<?xml version="1.0" encoding="UTF-8" standalone="no"?>
<svg
   xmlns:dc="http://purl.org/dc/elements/1.1/"
   xmlns:cc="http://creativecommons.org/ns#"
   xmlns:rdf="http://www.w3.org/1999/02/22-rdf-syntax-ns#"
   xmlns:svg="http://www.w3.org/2000/svg"
   xmlns="http://www.w3.org/2000/svg"
   xmlns:sodipodi="http://sodipodi.sourceforge.net/DTD/sodipodi-0.dtd"
   xmlns:inkscape="http://www.inkscape.org/namespaces/inkscape"
   version="1.1"
   id="svg10082"
   xml:space="preserve"
   width="1280"
   height="720"
   viewBox="0 0 1280 720"
   sodipodi:docname="frvrs_data_and_analysis_presentation_for_itm_slide011.svg"
   inkscape:version="1.0.2-2 (e86c870879, 2021-01-15)"
   inkscape:export-filename="C:\Users\DaveBabbitt\Documents\GitHub\itm-analysis-reporting\saves\png\frvrs_data_and_analysis_presentation_for_itm\slide011.png"
   inkscape:export-xdpi="96"
   inkscape:export-ydpi="96"><metadata
     id="metadata10088"><rdf:RDF><cc:Work
         rdf:about=""><dc:format>image/svg+xml</dc:format><dc:type
           rdf:resource="http://purl.org/dc/dcmitype/StillImage" /><dc:title></dc:title></cc:Work></rdf:RDF></metadata><defs
     id="defs10086"><clipPath
       clipPathUnits="userSpaceOnUse"
       id="clipPath10098"><path
         d="M 0,1.2207e-4 H 960 V 540.00012 H 0 Z"
         clip-rule="evenodd"
         id="path10096" /></clipPath><clipPath
       clipPathUnits="userSpaceOnUse"
       id="clipPath10108"><path
         d="M 0,1.2207e-4 H 960 V 540.00012 H 0 Z"
         clip-rule="evenodd"
         id="path10106" /></clipPath><linearGradient
       x1="73.199997"
       y1="453.48001"
       x2="867.07001"
       y2="453.48001"
       gradientUnits="userSpaceOnUse"
       spreadMethod="pad"
       id="linearGradient10118"><stop
         style="stop-opacity:1;stop-color:#00bac8"
         offset="0"
         id="stop10114" /><stop
         style="stop-opacity:1;stop-color:#203040"
         offset="1"
         id="stop10116" /></linearGradient><clipPath
       clipPathUnits="userSpaceOnUse"
       id="clipPath10128"><path
         d="m 75,435.75 h 791.25 v 33 H 75 Z"
         clip-rule="evenodd"
         id="path10126" /></clipPath><clipPath
       clipPathUnits="userSpaceOnUse"
       id="clipPath10140"><path
         d="M 1.5259e-4,540 H 960 V 1.8311e-4 H 1.8311e-4"
         clip-rule="evenodd"
         id="path10138" /></clipPath><clipPath
       clipPathUnits="userSpaceOnUse"
       id="clipPath10150"><path
         d="M 1.4305e-5,0 H 960.00001 V 540 H 1.4305e-5 Z"
         clip-rule="evenodd"
         id="path10148" /></clipPath><clipPath
       clipPathUnits="userSpaceOnUse"
       id="clipPath10162"><path
         d="M 1.4305e-5,0 H 960.00001 V 540 H 1.4305e-5 Z"
         clip-rule="evenodd"
         id="path10160" /></clipPath><clipPath
       clipPathUnits="userSpaceOnUse"
       id="clipPath10174"><path
         d="M 1.8311e-4,540 H 960 V 1.8311e-4 L 2.4414e-4,1.2207e-4"
         clip-rule="evenodd"
         id="path10172" /></clipPath><clipPath
       clipPathUnits="userSpaceOnUse"
       id="clipPath10184"><path
         d="M 1.4305e-5,0 H 960.00001 V 540 H 1.4305e-5 Z"
         clip-rule="evenodd"
         id="path10182" /></clipPath><clipPath
       clipPathUnits="userSpaceOnUse"
       id="clipPath10196"><path
         d="M 1.4305e-5,0 H 960.00001 V 540 H 1.4305e-5 Z"
         clip-rule="evenodd"
         id="path10194" /></clipPath><clipPath
       clipPathUnits="userSpaceOnUse"
       id="clipPath10208"><path
         d="M 4.5776e-5,540 H 960 V 1.8311e-4 L 6.1035e-5,1.2207e-4"
         clip-rule="evenodd"
         id="path10206" /></clipPath><clipPath
       clipPathUnits="userSpaceOnUse"
       id="clipPath10218"><path
         d="M 1.4305e-5,0 H 960.00001 V 540 H 1.4305e-5 Z"
         clip-rule="evenodd"
         id="path10216" /></clipPath><clipPath
       clipPathUnits="userSpaceOnUse"
       id="clipPath10230"><path
         d="M 1.4305e-5,0 H 960.00001 V 540 H 1.4305e-5 Z"
         clip-rule="evenodd"
         id="path10228" /></clipPath><clipPath
       clipPathUnits="userSpaceOnUse"
       id="clipPath10242"><path
         d="M 6.1035e-5,540 H 960 V 2.4414e-4 L 9.1553e-5,1.8311e-4"
         clip-rule="evenodd"
         id="path10240" /></clipPath><clipPath
       clipPathUnits="userSpaceOnUse"
       id="clipPath10252"><path
         d="M 1.4305e-5,0 H 960.00001 V 540 H 1.4305e-5 Z"
         clip-rule="evenodd"
         id="path10250" /></clipPath><clipPath
       clipPathUnits="userSpaceOnUse"
       id="clipPath10264"><path
         d="M 1.4305e-5,0 H 960.00001 V 540 H 1.4305e-5 Z"
         clip-rule="evenodd"
         id="path10262" /></clipPath><clipPath
       clipPathUnits="userSpaceOnUse"
       id="clipPath10276"><path
         d="M 1.2207e-4,540 H 960 V 1.8311e-4 H 1.8311e-4"
         clip-rule="evenodd"
         id="path10274" /></clipPath><clipPath
       clipPathUnits="userSpaceOnUse"
       id="clipPath10286"><path
         d="M 1.4305e-5,0 H 960.00001 V 540 H 1.4305e-5 Z"
         clip-rule="evenodd"
         id="path10284" /></clipPath><clipPath
       clipPathUnits="userSpaceOnUse"
       id="clipPath10298"><path
         d="M 1.4305e-5,0 H 960.00001 V 540 H 1.4305e-5 Z"
         clip-rule="evenodd"
         id="path10296" /></clipPath><clipPath
       clipPathUnits="userSpaceOnUse"
       id="clipPath10310"><path
         d="M 1.4305e-5,0 H 960.00001 V 540 H 1.4305e-5 Z"
         clip-rule="evenodd"
         id="path10308" /></clipPath><clipPath
       clipPathUnits="userSpaceOnUse"
       id="clipPath10322"><path
         d="M 1.4305e-5,0 H 960.00001 V 540 H 1.4305e-5 Z"
         clip-rule="evenodd"
         id="path10320" /></clipPath><clipPath
       clipPathUnits="userSpaceOnUse"
       id="clipPath10334"><path
         d="M 1.4305e-5,0 H 960.00001 V 540 H 1.4305e-5 Z"
         clip-rule="evenodd"
         id="path10332" /></clipPath><clipPath
       clipPathUnits="userSpaceOnUse"
       id="clipPath10346"><path
         d="M 1.4305e-5,0 H 960.00001 V 540 H 1.4305e-5 Z"
         clip-rule="evenodd"
         id="path10344" /></clipPath><clipPath
       clipPathUnits="userSpaceOnUse"
       id="clipPath10358"><path
         d="M 1.4305e-5,0 H 960.00001 V 540 H 1.4305e-5 Z"
         clip-rule="evenodd"
         id="path10356" /></clipPath><clipPath
       clipPathUnits="userSpaceOnUse"
       id="clipPath10370"><path
         d="M 1.4305e-5,0 H 960.00001 V 540 H 1.4305e-5 Z"
         clip-rule="evenodd"
         id="path10368" /></clipPath><clipPath
       clipPathUnits="userSpaceOnUse"
       id="clipPath10382"><path
         d="M 1.4305e-5,0 H 960.00001 V 540 H 1.4305e-5 Z"
         clip-rule="evenodd"
         id="path10380" /></clipPath><clipPath
       clipPathUnits="userSpaceOnUse"
       id="clipPath10394"><path
         d="M 1.4305e-5,0 H 960.00001 V 540 H 1.4305e-5 Z"
         clip-rule="evenodd"
         id="path10392" /></clipPath><clipPath
       clipPathUnits="userSpaceOnUse"
       id="clipPath10406"><path
         d="M 4.5776e-5,540 H 960 V 1.8311e-4 H 6.1035e-5"
         clip-rule="evenodd"
         id="path10404" /></clipPath><clipPath
       clipPathUnits="userSpaceOnUse"
       id="clipPath10416"><path
         d="M 1.4305e-5,0 H 960.00001 V 540 H 1.4305e-5 Z"
         clip-rule="evenodd"
         id="path10414" /></clipPath><clipPath
       clipPathUnits="userSpaceOnUse"
       id="clipPath10428"><path
         d="M 1.4305e-5,0 H 960.00001 V 540 H 1.4305e-5 Z"
         clip-rule="evenodd"
         id="path10426" /></clipPath><clipPath
       clipPathUnits="userSpaceOnUse"
       id="clipPath10440"><path
         d="M 6.1035e-5,540 H 960 V 1.8311e-4 L 9.1553e-5,1.2207e-4"
         clip-rule="evenodd"
         id="path10438" /></clipPath><clipPath
       clipPathUnits="userSpaceOnUse"
       id="clipPath10450"><path
         d="M 1.4305e-5,0 H 960.00001 V 540 H 1.4305e-5 Z"
         clip-rule="evenodd"
         id="path10448" /></clipPath><clipPath
       clipPathUnits="userSpaceOnUse"
       id="clipPath10462"><path
         d="M 1.4305e-5,0 H 960.00001 V 540 H 1.4305e-5 Z"
         clip-rule="evenodd"
         id="path10460" /></clipPath><clipPath
       clipPathUnits="userSpaceOnUse"
       id="clipPath10474"><path
         d="M 1.2207e-4,540 H 960 V 1.8311e-4 L 1.8311e-4,1.2207e-4"
         clip-rule="evenodd"
         id="path10472" /></clipPath><clipPath
       clipPathUnits="userSpaceOnUse"
       id="clipPath10484"><path
         d="M 1.4305e-5,0 H 960.00001 V 540 H 1.4305e-5 Z"
         clip-rule="evenodd"
         id="path10482" /></clipPath><clipPath
       clipPathUnits="userSpaceOnUse"
       id="clipPath10496"><path
         d="M 1.4305e-5,0 H 960.00001 V 540 H 1.4305e-5 Z"
         clip-rule="evenodd"
         id="path10494" /></clipPath><clipPath
       clipPathUnits="userSpaceOnUse"
       id="clipPath10508"><path
         d="M 1.5259e-4,540 H 960 V 1.8311e-4 L 1.8311e-4,1.2207e-4"
         clip-rule="evenodd"
         id="path10506" /></clipPath><clipPath
       clipPathUnits="userSpaceOnUse"
       id="clipPath10518"><path
         d="M 1.4305e-5,0 H 960.00001 V 540 H 1.4305e-5 Z"
         clip-rule="evenodd"
         id="path10516" /></clipPath><clipPath
       clipPathUnits="userSpaceOnUse"
       id="clipPath10530"><path
         d="M 1.4305e-5,0 H 960.00001 V 540 H 1.4305e-5 Z"
         clip-rule="evenodd"
         id="path10528" /></clipPath><clipPath
       clipPathUnits="userSpaceOnUse"
       id="clipPath10542"><path
         d="M 0,540 H 960 V 1.8311e-4 L 6.1035e-5,1.2207e-4"
         clip-rule="evenodd"
         id="path10540" /></clipPath><clipPath
       clipPathUnits="userSpaceOnUse"
       id="clipPath10552"><path
         d="M 1.4305e-5,0 H 960.00001 V 540 H 1.4305e-5 Z"
         clip-rule="evenodd"
         id="path10550" /></clipPath><clipPath
       clipPathUnits="userSpaceOnUse"
       id="clipPath10564"><path
         d="M 1.4305e-5,0 H 960.00001 V 540 H 1.4305e-5 Z"
         clip-rule="evenodd"
         id="path10562" /></clipPath><clipPath
       clipPathUnits="userSpaceOnUse"
       id="clipPath10576"><path
         d="M 3.0518e-5,540 H 960 V 1.2207e-4 H 6.1035e-5"
         clip-rule="evenodd"
         id="path10574" /></clipPath><clipPath
       clipPathUnits="userSpaceOnUse"
       id="clipPath10586"><path
         d="M 1.4305e-5,0 H 960.00001 V 540 H 1.4305e-5 Z"
         clip-rule="evenodd"
         id="path10584" /></clipPath><clipPath
       clipPathUnits="userSpaceOnUse"
       id="clipPath10598"><path
         d="M 1.4305e-5,0 H 960.00001 V 540 H 1.4305e-5 Z"
         clip-rule="evenodd"
         id="path10596" /></clipPath><clipPath
       clipPathUnits="userSpaceOnUse"
       id="clipPath10610"><path
         d="M 3.0518e-5,540 H 960 V 1.2207e-4 H 6.1035e-5"
         clip-rule="evenodd"
         id="path10608" /></clipPath><clipPath
       clipPathUnits="userSpaceOnUse"
       id="clipPath10620"><path
         d="M 1.4305e-5,0 H 960.00001 V 540 H 1.4305e-5 Z"
         clip-rule="evenodd"
         id="path10618" /></clipPath><clipPath
       clipPathUnits="userSpaceOnUse"
       id="clipPath10632"><path
         d="M 1.4305e-5,0 H 960.00001 V 540 H 1.4305e-5 Z"
         clip-rule="evenodd"
         id="path10630" /></clipPath><clipPath
       clipPathUnits="userSpaceOnUse"
       id="clipPath10644"><path
         d="M 6.1035e-5,540 H 960 V 1.2207e-4 H 1.2207e-4"
         clip-rule="evenodd"
         id="path10642" /></clipPath><clipPath
       clipPathUnits="userSpaceOnUse"
       id="clipPath10654"><path
         d="M 1.4305e-5,0 H 960.00001 V 540 H 1.4305e-5 Z"
         clip-rule="evenodd"
         id="path10652" /></clipPath><clipPath
       clipPathUnits="userSpaceOnUse"
       id="clipPath10666"><path
         d="M 1.4305e-5,0 H 960.00001 V 540 H 1.4305e-5 Z"
         clip-rule="evenodd"
         id="path10664" /></clipPath><clipPath
       clipPathUnits="userSpaceOnUse"
       id="clipPath10678"><path
         d="M 3.0518e-5,540 H 960 V 1.2207e-4 H 6.1035e-5"
         clip-rule="evenodd"
         id="path10676" /></clipPath><clipPath
       clipPathUnits="userSpaceOnUse"
       id="clipPath10688"><path
         d="M 1.4305e-5,0 H 960.00001 V 540 H 1.4305e-5 Z"
         clip-rule="evenodd"
         id="path10686" /></clipPath><clipPath
       clipPathUnits="userSpaceOnUse"
       id="clipPath10700"><path
         d="M 1.4305e-5,0 H 960.00001 V 540 H 1.4305e-5 Z"
         clip-rule="evenodd"
         id="path10698" /></clipPath><clipPath
       clipPathUnits="userSpaceOnUse"
       id="clipPath10712"><path
         d="M 1.5259e-4,540 H 960 V 1.8311e-4 L 1.8311e-4,1.2207e-4"
         clip-rule="evenodd"
         id="path10710" /></clipPath><clipPath
       clipPathUnits="userSpaceOnUse"
       id="clipPath10722"><path
         d="M 1.4305e-5,0 H 960.00001 V 540 H 1.4305e-5 Z"
         clip-rule="evenodd"
         id="path10720" /></clipPath><clipPath
       clipPathUnits="userSpaceOnUse"
       id="clipPath10734"><path
         d="M 1.4305e-5,0 H 960.00001 V 540 H 1.4305e-5 Z"
         clip-rule="evenodd"
         id="path10732" /></clipPath><clipPath
       clipPathUnits="userSpaceOnUse"
       id="clipPath10746"><path
         d="M 0,540 H 960 V 1.2207e-4 H 6.1035e-5"
         clip-rule="evenodd"
         id="path10744" /></clipPath><clipPath
       clipPathUnits="userSpaceOnUse"
       id="clipPath10756"><path
         d="M 1.4305e-5,0 H 960.00001 V 540 H 1.4305e-5 Z"
         clip-rule="evenodd"
         id="path10754" /></clipPath><clipPath
       clipPathUnits="userSpaceOnUse"
       id="clipPath10768"><path
         d="M 1.4305e-5,0 H 960.00001 V 540 H 1.4305e-5 Z"
         clip-rule="evenodd"
         id="path10766" /></clipPath><clipPath
       clipPathUnits="userSpaceOnUse"
       id="clipPath10780"><path
         d="M 1.2207e-4,540 H 960 V 1.2207e-4 H 1.8311e-4"
         clip-rule="evenodd"
         id="path10778" /></clipPath><clipPath
       clipPathUnits="userSpaceOnUse"
       id="clipPath10790"><path
         d="M 1.4305e-5,0 H 960.00001 V 540 H 1.4305e-5 Z"
         clip-rule="evenodd"
         id="path10788" /></clipPath><clipPath
       clipPathUnits="userSpaceOnUse"
       id="clipPath10802"><path
         d="M 1.4305e-5,0 H 960.00001 V 540 H 1.4305e-5 Z"
         clip-rule="evenodd"
         id="path10800" /></clipPath></defs><sodipodi:namedview
     pagecolor="#ffffff"
     bordercolor="#666666"
     borderopacity="1"
     objecttolerance="10"
     gridtolerance="10"
     guidetolerance="10"
     inkscape:pageopacity="0"
     inkscape:pageshadow="2"
     inkscape:window-width="1920"
     inkscape:window-height="1121"
     id="namedview10084"
     showgrid="false"
     inkscape:zoom="0.99765625"
     inkscape:cx="640"
     inkscape:cy="360"
     inkscape:window-x="-9"
     inkscape:window-y="611"
     inkscape:window-maximized="1"
     inkscape:current-layer="g10090" /><g
     id="g10090"
     inkscape:groupmode="layer"
     inkscape:label="FRVRS - Data and Analysis Presentation for ITM"
     transform="matrix(1.3333333,0,0,-1.3333333,0,720)"><path
       d="M 0,6.1035e-5 H 960 V 540.00006 H 0 Z"
       style="fill:#ffffff;fill-opacity:1;fill-rule:evenodd;stroke:none"
       id="path10100" /><path
       d="M 0,6.1035e-5 H 960 V 540.00006 H 0 Z"
       style="fill:#ffffff;fill-opacity:1;fill-rule:evenodd;stroke:none"
       id="path10110" /><path
       d="m 607.8,454.86 c -1.07,0 -1.95,-0.4 -2.64,-1.21 -0.56,-0.65 -0.84,-1.4 -0.84,-2.25 0,-0.84 0.28,-1.59 0.84,-2.24 0.68,-0.81 1.56,-1.22 2.64,-1.22 0.97,0 1.8,0.34 2.47,1 0.67,0.67 1.01,1.49 1.01,2.46 0,0.97 -0.34,1.78 -1.02,2.46 -0.68,0.67 -1.5,1 -2.46,1 z m -39,0 c -1.07,0 -1.95,-0.4 -2.64,-1.21 -0.56,-0.65 -0.84,-1.4 -0.84,-2.25 0,-0.84 0.28,-1.59 0.84,-2.24 0.68,-0.81 1.56,-1.22 2.64,-1.22 0.97,0 1.8,0.34 2.47,1 0.67,0.67 1.01,1.49 1.01,2.46 0,0.97 -0.34,1.78 -1.02,2.46 -0.68,0.67 -1.5,1 -2.46,1 z m -135.75,0 c -1.07,0 -1.95,-0.4 -2.64,-1.21 -0.56,-0.65 -0.84,-1.4 -0.84,-2.25 0,-0.84 0.28,-1.59 0.84,-2.24 0.68,-0.81 1.56,-1.22 2.64,-1.22 0.97,0 1.8,0.34 2.47,1 0.67,0.67 1.01,1.49 1.01,2.46 0,0.97 -0.34,1.78 -1.02,2.46 -0.68,0.67 -1.5,1 -2.46,1 z m -329.25,0 c -1.07,0 -1.95,-0.4 -2.64,-1.21 -0.56,-0.65 -0.84,-1.4 -0.84,-2.25 0,-0.84 0.28,-1.59 0.84,-2.24 0.68,-0.81 1.56,-1.22 2.64,-1.22 0.97,0 1.8,0.34 2.47,1 0.67,0.67 1.01,1.49 1.01,2.46 0,0.97 -0.34,1.78 -1.02,2.46 -0.68,0.67 -1.5,1 -2.46,1 z m 525.23,0.02 c -0.96,0 -1.78,-0.34 -2.46,-1.01 -0.68,-0.68 -1.02,-1.51 -1.02,-2.47 0,-0.97 0.34,-1.8 1.02,-2.47 0.68,-0.68 1.5,-1.02 2.46,-1.02 1.08,0 1.96,0.41 2.64,1.22 0.56,0.67 0.84,1.43 0.84,2.27 0,0.84 -0.28,1.6 -0.84,2.26 -0.69,0.81 -1.57,1.22 -2.64,1.22 z m -333.23,0 c -1.07,0 -1.95,-0.41 -2.64,-1.22 -0.56,-0.66 -0.84,-1.42 -0.84,-2.26 0,-0.85 0.28,-1.61 0.84,-2.27 0.68,-0.81 1.56,-1.22 2.64,-1.22 0.97,0 1.8,0.34 2.47,1.01 0.67,0.67 1.01,1.5 1.01,2.48 0,0.96 -0.34,1.79 -1.02,2.47 -0.68,0.67 -1.5,1.01 -2.46,1.01 z m 447.85,0.08 c -1.12,0 -2.03,-0.42 -2.73,-1.25 -0.56,-0.68 -0.85,-1.44 -0.85,-2.31 0,-0.87 0.29,-1.64 0.85,-2.31 0.7,-0.84 1.61,-1.26 2.73,-1.26 0.99,0 1.84,0.34 2.52,1.03 0.69,0.69 1.04,1.54 1.04,2.54 0,1 -0.35,1.84 -1.04,2.53 -0.7,0.69 -1.54,1.03 -2.52,1.03 z m -269.25,0 c -1.12,0 -2.03,-0.42 -2.72,-1.25 -0.57,-0.68 -0.86,-1.44 -0.86,-2.31 0,-0.87 0.29,-1.64 0.86,-2.31 0.69,-0.84 1.6,-1.26 2.72,-1.26 0.99,0 1.84,0.34 2.52,1.03 0.69,0.69 1.04,1.54 1.04,2.54 0,1 -0.35,1.84 -1.04,2.53 -0.7,0.69 -1.54,1.03 -2.52,1.03 z m -105.75,0 c -1.12,0 -2.03,-0.42 -2.72,-1.25 -0.57,-0.68 -0.86,-1.44 -0.86,-2.31 0,-0.87 0.29,-1.64 0.86,-2.31 0.69,-0.84 1.6,-1.26 2.72,-1.26 0.99,0 1.84,0.34 2.52,1.03 0.69,0.69 1.04,1.54 1.04,2.54 0,1 -0.35,1.84 -1.04,2.53 -0.7,0.69 -1.54,1.03 -2.52,1.03 z m -108,0 c -1.12,0 -2.03,-0.42 -2.73,-1.25 -0.56,-0.68 -0.85,-1.44 -0.85,-2.31 0,-0.87 0.29,-1.64 0.85,-2.31 0.7,-0.84 1.61,-1.26 2.73,-1.26 0.99,0 1.84,0.34 2.52,1.03 0.69,0.69 1.04,1.54 1.04,2.54 0,1 -0.35,1.84 -1.04,2.53 -0.7,0.69 -1.54,1.03 -2.52,1.03 z m 503.9,0.07 c -1.08,0 -1.97,-0.42 -2.66,-1.25 -0.54,-0.67 -0.82,-1.45 -0.82,-2.33 0,-0.97 0.34,-1.81 1.01,-2.51 0.67,-0.7 1.5,-1.05 2.47,-1.05 0.96,0 1.78,0.35 2.45,1.05 0.67,0.7 1.01,1.54 1.01,2.51 0,0.98 -0.33,1.82 -1,2.52 -0.67,0.71 -1.49,1.06 -2.46,1.06 z m -106.15,1.04 c -0.91,0 -1.66,-0.28 -2.23,-0.83 -0.44,-0.43 -0.73,-1.02 -0.85,-1.76 h 6.15 c -0.38,1.73 -1.41,2.59 -3.07,2.59 z m -432,0 c -0.91,0 -1.66,-0.28 -2.23,-0.83 -0.44,-0.43 -0.73,-1.02 -0.85,-1.76 h 6.15 c -0.38,1.73 -1.41,2.59 -3.07,2.59 z m -81.75,0 c -0.91,0 -1.66,-0.28 -2.23,-0.83 -0.44,-0.43 -0.73,-1.02 -0.85,-1.76 h 6.15 c -0.38,1.73 -1.41,2.59 -3.07,2.59 z m 701.05,2.98 h 6.28 l 4.09,-7.84 3.97,7.84 h 6.19 l -12.27,-22.94 h -6.07 l 5.19,9.74 z m -165.42,0 h 5.42 v -15.29 h -5.42 z m -99,0 h 5.42 v -15.29 h -5.42 z m -42.33,0 h 6.08 l 3.66,-7.84 3.67,7.84 h 6.05 l -7.96,-15.29 h -3.61 z m -82.17,0 h 5.42 v -15.29 h -5.42 z m -329.25,0 h 5.42 v -15.29 h -5.42 z m 716.18,0.21 c 0.29,0 0.64,-0.01 1.06,-0.04 v -5.15 c -0.76,0.37 -1.53,0.55 -2.31,0.55 -1.77,0 -2.92,-0.73 -3.45,-2.19 -0.19,-0.53 -0.29,-1.24 -0.29,-2.13 v -6.54 h -5.42 v 15.29 h 5.42 v -2.5 c 0.57,0.89 1.18,1.53 1.84,1.92 0.89,0.53 1.94,0.79 3.15,0.79 z m -452.25,0 c 0.29,0 0.64,-0.01 1.06,-0.04 v -5.15 c -0.76,0.37 -1.53,0.55 -2.31,0.55 -1.77,0 -2.92,-0.73 -3.45,-2.19 -0.19,-0.53 -0.29,-1.24 -0.29,-2.13 v -6.54 h -5.42 v 15.29 h 5.42 v -2.5 c 0.57,0.89 1.18,1.53 1.84,1.92 0.89,0.53 1.94,0.79 3.15,0.79 z m -108,0 c 0.29,0 0.64,-0.01 1.06,-0.04 v -5.15 c -0.76,0.37 -1.53,0.55 -2.31,0.55 -1.77,0 -2.92,-0.73 -3.45,-2.19 -0.19,-0.53 -0.29,-1.24 -0.29,-2.13 v -6.54 h -5.42 v 15.29 h 5.42 v -2.5 c 0.57,0.89 1.18,1.53 1.84,1.92 0.89,0.53 1.94,0.79 3.15,0.79 z m 243.52,0.04 -2.46,-7.17 h 4.88 z m -110.96,0.01 c 1.14,0 2.16,-0.27 3.05,-0.82 0.96,-0.6 1.59,-1.42 1.88,-2.46 0.18,-0.62 0.27,-1.4 0.27,-2.34 v -9.93 h -5.42 v 7.55 c 0,1.32 -0.14,2.22 -0.42,2.7 -0.4,0.71 -1.01,1.07 -1.83,1.07 -0.9,0 -1.59,-0.39 -2.07,-1.17 -0.34,-0.55 -0.51,-1.41 -0.51,-2.6 v -7.55 h -5.42 v 7.55 c 0,1.32 -0.11,2.17 -0.33,2.57 -0.44,0.79 -1.12,1.18 -2.03,1.18 -0.85,0 -1.51,-0.34 -1.98,-1.02 -0.17,-0.24 -0.3,-0.57 -0.38,-0.99 -0.07,-0.43 -0.11,-1 -0.11,-1.74 v -7.55 h -5.42 v 15.29 h 5.42 v -1.88 c 0.64,0.62 1.22,1.07 1.75,1.35 0.95,0.52 2.02,0.78 3.2,0.78 1.51,0 2.76,-0.39 3.76,-1.17 0.51,-0.4 0.99,-0.96 1.46,-1.68 0.41,0.68 0.88,1.22 1.4,1.61 1.09,0.84 2.33,1.25 3.73,1.25 z m 396.88,0.07 c 1.65,0 2.99,-0.44 4.02,-1.33 1.17,-1.02 1.76,-2.53 1.76,-4.55 v -9.74 h -5.42 v 7.73 c 0,1.35 -0.16,2.25 -0.46,2.68 -0.45,0.65 -1.12,0.97 -2.02,0.97 -0.81,0 -1.5,-0.27 -2.06,-0.83 -0.5,-0.5 -0.75,-1.29 -0.75,-2.36 v -8.19 h -5.42 v 15.29 h 5.42 v -1.93 c 0.62,0.73 1.2,1.24 1.73,1.54 0.85,0.48 1.92,0.72 3.2,0.72 z m -113.25,0 c 1.65,0 2.99,-0.44 4.02,-1.33 1.17,-1.02 1.76,-2.53 1.76,-4.55 v -9.74 h -5.42 v 7.73 c 0,1.35 -0.16,2.25 -0.46,2.68 -0.45,0.65 -1.12,0.97 -2.02,0.97 -0.81,0 -1.5,-0.27 -2.06,-0.83 -0.5,-0.5 -0.75,-1.29 -0.75,-2.36 v -8.19 h -5.42 v 15.29 h 5.42 v -1.93 c 0.62,0.73 1.2,1.24 1.73,1.54 0.85,0.48 1.92,0.72 3.2,0.72 z m -202.5,0 c 1.65,0 2.99,-0.44 4.02,-1.33 1.17,-1.02 1.76,-2.53 1.76,-4.55 v -9.74 h -5.42 v 7.73 c 0,1.35 -0.16,2.25 -0.46,2.68 -0.45,0.65 -1.12,0.97 -2.02,0.97 -0.81,0 -1.5,-0.27 -2.06,-0.83 -0.5,-0.5 -0.75,-1.29 -0.75,-2.36 v -8.19 h -5.42 v 15.29 h 5.42 v -1.93 c 0.62,0.73 1.2,1.24 1.73,1.54 0.85,0.48 1.92,0.72 3.2,0.72 z m -158.25,0 c 1.65,0 2.99,-0.44 4.02,-1.33 1.17,-1.02 1.76,-2.53 1.76,-4.55 v -9.74 h -5.42 v 7.73 c 0,1.35 -0.16,2.25 -0.46,2.68 -0.45,0.65 -1.12,0.97 -2.02,0.97 -0.81,0 -1.5,-0.27 -2.06,-0.83 -0.5,-0.5 -0.75,-1.29 -0.75,-2.36 v -8.19 h -5.42 v 15.29 h 5.42 v -1.93 c 0.62,0.73 1.2,1.24 1.73,1.54 0.85,0.48 1.92,0.72 3.2,0.72 z m -172.5,0 c 1.65,0 2.99,-0.44 4.02,-1.33 1.17,-1.02 1.76,-2.53 1.76,-4.55 v -9.74 h -5.42 v 7.73 c 0,1.35 -0.16,2.25 -0.46,2.68 -0.45,0.65 -1.12,0.97 -2.02,0.97 -0.81,0 -1.5,-0.27 -2.06,-0.83 -0.5,-0.5 -0.75,-1.29 -0.75,-2.36 v -8.19 h -5.42 v 15.29 h 5.42 v -1.93 c 0.62,0.73 1.2,1.24 1.73,1.54 0.85,0.48 1.92,0.72 3.2,0.72 z m 596.77,0.1 c 1.11,0 2.1,-0.23 2.96,-0.68 0.52,-0.27 1.06,-0.72 1.62,-1.35 v 1.6 h 5.42 v -14.24 c 0,-1.34 -0.1,-2.42 -0.28,-3.24 -0.3,-1.32 -1.07,-2.5 -2.31,-3.55 -1.57,-1.32 -3.66,-1.97 -6.26,-1.97 -2.73,0 -4.9,0.71 -6.51,2.15 -1.08,0.96 -1.76,1.96 -2.06,3 -0.03,0.11 -0.08,0.34 -0.13,0.7 h 6.06 c 0.18,-0.5 0.41,-0.86 0.71,-1.08 0.48,-0.36 1.1,-0.54 1.85,-0.54 1.25,0 2.21,0.44 2.88,1.33 0.42,0.56 0.63,1.36 0.63,2.4 v 1.45 c -0.65,-0.6 -1.19,-1.02 -1.63,-1.26 -0.91,-0.5 -1.99,-0.76 -3.23,-0.76 -1.56,0 -2.95,0.41 -4.18,1.21 -1.26,0.82 -2.17,1.95 -2.71,3.38 -0.38,0.96 -0.56,2.01 -0.56,3.14 0,2.51 0.79,4.55 2.38,6.12 1.48,1.46 3.27,2.19 5.35,2.19 z m -104.98,0 c 3.33,0 5.71,-1.21 7.13,-3.63 0.81,-1.37 1.21,-2.95 1.21,-4.76 v -0.69 h -11.36 c 0,-2.3 1.11,-3.45 3.31,-3.45 1.13,0 1.99,0.49 2.59,1.45 h 5.24 c -0.41,-1.38 -1.03,-2.44 -1.84,-3.2 -1.47,-1.37 -3.45,-2.05 -5.92,-2.05 -3.14,0 -5.5,0.95 -7.08,2.87 -1.19,1.42 -1.78,3.16 -1.78,5.22 0,2.44 0.74,4.42 2.22,5.95 1.48,1.53 3.58,2.29 6.28,2.29 z m -432,0 c 3.33,0 5.71,-1.21 7.14,-3.63 0.8,-1.37 1.2,-2.95 1.2,-4.76 v -0.69 h -11.36 c 0,-2.3 1.11,-3.45 3.31,-3.45 1.13,0 1.99,0.49 2.59,1.45 h 5.24 c -0.41,-1.38 -1.03,-2.44 -1.84,-3.2 -1.47,-1.37 -3.45,-2.05 -5.92,-2.05 -3.14,0 -5.5,0.95 -7.08,2.87 -1.19,1.42 -1.78,3.16 -1.78,5.22 0,2.44 0.74,4.42 2.22,5.95 1.48,1.53 3.58,2.29 6.28,2.29 z m -81.75,0 c 3.33,0 5.71,-1.21 7.14,-3.63 0.8,-1.37 1.2,-2.95 1.2,-4.76 v -0.69 h -11.36 c 0,-2.3 1.11,-3.45 3.31,-3.45 1.13,0 1.99,0.49 2.59,1.45 h 5.24 c -0.41,-1.38 -1.03,-2.44 -1.84,-3.2 -1.47,-1.37 -3.45,-2.05 -5.92,-2.05 -3.14,0 -5.5,0.95 -7.08,2.87 -1.19,1.42 -1.78,3.16 -1.78,5.22 0,2.44 0.74,4.42 2.22,5.95 1.48,1.53 3.58,2.29 6.28,2.29 z m 461.92,0.05 c 1.08,0 2.1,-0.23 3.06,-0.68 0.54,-0.26 1.11,-0.69 1.69,-1.3 v 1.5 h 5.42 v -15.29 h -5.42 v 1.7 c -0.51,-0.65 -1.04,-1.13 -1.56,-1.42 -0.92,-0.52 -1.97,-0.78 -3.15,-0.78 -1.89,0 -3.58,0.66 -5.06,1.96 -1.77,1.56 -2.65,3.62 -2.65,6.19 0,2.61 0.9,4.7 2.71,6.26 1.44,1.24 3.09,1.86 4.96,1.86 z m -39,0 c 1.08,0 2.1,-0.23 3.06,-0.68 0.54,-0.26 1.11,-0.69 1.69,-1.3 v 1.5 h 5.42 v -15.29 h -5.42 v 1.7 c -0.51,-0.65 -1.04,-1.13 -1.56,-1.42 -0.92,-0.52 -1.97,-0.78 -3.15,-0.78 -1.89,0 -3.58,0.66 -5.06,1.96 -1.77,1.56 -2.65,3.62 -2.65,6.19 0,2.61 0.9,4.7 2.71,6.26 1.44,1.24 3.09,1.86 4.96,1.86 z m -135.75,0 c 1.08,0 2.1,-0.23 3.06,-0.68 0.54,-0.26 1.11,-0.69 1.69,-1.3 v 1.5 h 5.42 v -15.29 h -5.42 v 1.7 c -0.51,-0.65 -1.04,-1.13 -1.56,-1.42 -0.92,-0.52 -1.97,-0.78 -3.15,-0.78 -1.89,0 -3.58,0.66 -5.06,1.96 -1.77,1.56 -2.65,3.62 -2.65,6.19 0,2.61 0.9,4.7 2.71,6.26 1.44,1.24 3.09,1.86 4.96,1.86 z m -185.81,0 c 1.26,0 2.43,-0.29 3.53,-0.86 v -4.6 c -0.95,0.67 -1.88,1.01 -2.79,1.01 -1.08,0 -1.96,-0.35 -2.67,-1.04 -0.7,-0.69 -1.05,-1.58 -1.05,-2.65 0,-1.08 0.35,-1.96 1.05,-2.66 0.71,-0.69 1.59,-1.03 2.67,-1.03 0.9,0 1.83,0.33 2.79,0.99 v -4.6 c -1.12,-0.56 -2.29,-0.84 -3.53,-0.84 -2.79,0 -5,0.94 -6.64,2.83 -1.31,1.53 -1.97,3.3 -1.97,5.31 0,2.02 0.66,3.79 1.97,5.3 1.64,1.89 3.85,2.84 6.64,2.84 z m -143.44,0 c 1.08,0 2.1,-0.23 3.06,-0.68 0.54,-0.26 1.11,-0.69 1.69,-1.3 v 1.5 h 5.42 v -15.29 h -5.42 v 1.7 c -0.51,-0.65 -1.04,-1.13 -1.56,-1.42 -0.92,-0.52 -1.97,-0.78 -3.15,-0.78 -1.89,0 -3.583,0.66 -5.064,1.96 -1.767,1.56 -2.65,3.62 -2.65,6.19 0,2.61 0.905,4.7 2.715,6.26 1.438,1.24 3.089,1.86 4.959,1.86 z m 641.45,0.08 c 2.89,0 5.2,-0.93 6.92,-2.78 1.41,-1.52 2.11,-3.33 2.11,-5.43 0,-2.12 -0.69,-3.93 -2.09,-5.45 -1.69,-1.85 -4.06,-2.77 -7.1,-2.77 -3.06,0 -5.43,0.92 -7.12,2.77 -1.4,1.52 -2.09,3.38 -2.09,5.59 0,1.98 0.7,3.75 2.11,5.29 1.7,1.85 4.12,2.78 7.26,2.78 z m -269.25,0 c 2.89,0 5.2,-0.93 6.92,-2.78 1.41,-1.52 2.11,-3.33 2.11,-5.43 0,-2.12 -0.69,-3.93 -2.09,-5.45 -1.69,-1.85 -4.06,-2.77 -7.1,-2.77 -3.06,0 -5.43,0.92 -7.12,2.77 -1.4,1.52 -2.09,3.38 -2.09,5.59 0,1.98 0.7,3.75 2.11,5.29 1.7,1.85 4.12,2.78 7.26,2.78 z m -105.75,0 c 2.89,0 5.2,-0.93 6.92,-2.78 1.41,-1.52 2.11,-3.33 2.11,-5.43 0,-2.12 -0.69,-3.93 -2.09,-5.45 -1.69,-1.85 -4.06,-2.77 -7.1,-2.77 -3.06,0 -5.43,0.92 -7.12,2.77 -1.4,1.52 -2.09,3.38 -2.09,5.59 0,1.98 0.7,3.75 2.11,5.29 1.7,1.85 4.12,2.78 7.26,2.78 z m -108,0 c 2.89,0 5.2,-0.93 6.92,-2.78 1.41,-1.52 2.11,-3.33 2.11,-5.43 0,-2.12 -0.69,-3.93 -2.09,-5.45 -1.69,-1.85 -4.06,-2.77 -7.1,-2.77 -3.06,0 -5.43,0.92 -7.12,2.77 -1.4,1.52 -2.09,3.38 -2.09,5.59 0,1.98 0.7,3.75 2.11,5.29 1.7,1.85 4.12,2.78 7.26,2.78 z m -179.403,1.93 v -5.6 h 1.951 c 1.267,0 2.138,0.27 2.612,0.82 0.429,0.5 0.644,1.17 0.644,2.02 0,0.84 -0.245,1.51 -0.735,2.01 -0.491,0.5 -1.326,0.75 -2.505,0.75 z m 122.253,0.26 v -5.6 h 1.09 c 1.23,0 2.12,0.26 2.66,0.77 0.59,0.56 0.88,1.24 0.88,2.04 0,0.8 -0.29,1.47 -0.88,2.02 -0.55,0.52 -1.44,0.77 -2.66,0.77 z m 619.01,1.85 h 5.42 v -4.6 h 3.09 v -4.43 h -3.09 v -10.86 h -5.42 v 10.86 h -1.78 v 4.43 h 1.78 z m -376.5,0 h 5.42 v -4.6 h 3.09 v -4.43 h -3.09 v -10.86 h -5.42 v 10.86 h -1.78 v 4.43 h 1.78 z m -270,0 h 5.42 v -4.6 h 3.09 v -4.43 h -3.09 v -10.86 h -5.42 v 10.86 h -1.78 v 4.43 h 1.78 z m -59.25,0 h 5.42 v -4.6 h 3.09 v -4.43 h -3.09 v -10.86 h -5.42 v 10.86 h -1.78 v 4.43 h 1.78 z m 669.64,2.6 h 12.8 v -4.88 h -6.95 v -3.84 h 6.57 v -4.87 h -6.57 v -4.02 h 6.95 v -4.88 h -12.8 z m -66.75,0 h 5.85 v -17.61 h 7.02 v -4.88 h -12.87 z m -195.98,0 h 6.38 l 8.47,-22.49 h -6.25 l -1.45,3.92 h -8.07 l -1.55,-3.92 h -6.18 z m -205.27,0 h 5.85 v -22.49 h -5.85 z m -120.75,0 h 9.09 c 2.66,0 4.63,-0.79 5.9,-2.39 1.04,-1.28 1.55,-2.79 1.55,-4.53 0,-1.99 -0.59,-3.58 -1.78,-4.76 -0.76,-0.76 -1.8,-1.29 -3.13,-1.58 l 7.07,-9.23 h -7.27 l -5.58,8.63 v -8.63 h -5.85 z m -122.253,0 h 9.31 c 2.648,0 4.659,-0.77 6.032,-2.32 1.187,-1.33 1.78,-3.02 1.78,-5.09 0,-2.03 -0.478,-3.7 -1.434,-5.03 -1.241,-1.73 -3.301,-2.59 -6.18,-2.59 h -3.658 v -7.46 h -5.85 z m 607.433,1.7 c 0.84,0 1.56,-0.29 2.15,-0.88 0.59,-0.59 0.89,-1.3 0.89,-2.14 0,-0.86 -0.29,-1.58 -0.88,-2.17 -0.58,-0.58 -1.31,-0.87 -2.16,-0.87 -0.84,0 -1.56,0.29 -2.14,0.88 -0.59,0.59 -0.88,1.31 -0.88,2.16 0,0.84 0.29,1.55 0.88,2.14 0.58,0.59 1.3,0.88 2.14,0.88 z m -99,0 c 0.84,0 1.56,-0.29 2.15,-0.88 0.59,-0.59 0.89,-1.3 0.89,-2.14 0,-0.86 -0.29,-1.58 -0.88,-2.17 -0.58,-0.58 -1.31,-0.87 -2.16,-0.87 -0.84,0 -1.56,0.29 -2.14,0.88 -0.59,0.59 -0.88,1.31 -0.88,2.16 0,0.84 0.29,1.55 0.88,2.14 0.58,0.59 1.3,0.88 2.14,0.88 z m -124.5,0 c 0.84,0 1.56,-0.29 2.15,-0.88 0.59,-0.59 0.89,-1.3 0.89,-2.14 0,-0.86 -0.29,-1.58 -0.88,-2.17 -0.58,-0.58 -1.31,-0.87 -2.16,-0.87 -0.84,0 -1.56,0.29 -2.14,0.88 -0.59,0.59 -0.88,1.31 -0.88,2.16 0,0.84 0.29,1.55 0.88,2.14 0.58,0.59 1.3,0.88 2.14,0.88 z m -329.25,0 c 0.84,0 1.56,-0.29 2.15,-0.88 0.59,-0.59 0.89,-1.3 0.89,-2.14 0,-0.86 -0.29,-1.58 -0.88,-2.17 -0.58,-0.58 -1.31,-0.87 -2.16,-0.87 -0.84,0 -1.56,0.29 -2.14,0.88 -0.59,0.59 -0.88,1.31 -0.88,2.16 0,0.84 0.29,1.55 0.88,2.14 0.58,0.59 1.3,0.88 2.14,0.88 z m 511.06,0.56 h 5.42 v -24.75 h -5.42 z m -21,0 h 5.42 v -10.98 c 0.58,0.61 1.14,1.04 1.69,1.31 0.96,0.46 1.98,0.69 3.06,0.69 1.87,0 3.52,-0.62 4.96,-1.86 1.81,-1.56 2.71,-3.65 2.71,-6.26 0,-2.57 -0.88,-4.63 -2.65,-6.19 -1.48,-1.3 -3.17,-1.96 -5.07,-1.96 -1.17,0 -2.22,0.26 -3.14,0.78 -0.56,0.31 -1.08,0.78 -1.56,1.42 v -1.7 h -5.42 z m -30,0 h 5.42 v -24.75 h -5.42 z m -291.19,0 h 5.42 v -24.75 h -5.42 v 1.7 c -0.51,-0.65 -1.04,-1.13 -1.56,-1.42 -0.92,-0.52 -1.97,-0.78 -3.15,-0.78 -1.89,0 -3.58,0.66 -5.06,1.96 -1.77,1.56 -2.65,3.62 -2.65,6.19 0,2.61 0.9,4.7 2.71,6.26 1.44,1.24 3.09,1.86 4.96,1.86 1.08,0 2.1,-0.23 3.06,-0.69 0.54,-0.27 1.11,-0.7 1.69,-1.31 z m 56.2,0.05 c 0.79,0 1.59,-0.19 2.39,-0.56 v -4.7 c -0.73,0.41 -1.36,0.61 -1.88,0.61 -0.74,0 -1.27,-0.28 -1.61,-0.84 -0.2,-0.32 -0.3,-1.11 -0.3,-2.37 v -1.65 h 3.79 v -4.45 h -3.79 v -10.84 h -5.42 v 10.84 h -1.93 v 4.45 h 1.93 v 2.03 c 0,2.25 0.57,3.99 1.71,5.21 1.42,1.51 3.12,2.27 5.11,2.27 z"
       style="fill:url(#linearGradient10118);fill-opacity:1;fill-rule:evenodd;stroke:none"
       id="path10120" /><text
       transform="scale(1,-1)"
       style="font-variant:normal;font-weight:bold;font-size:33.8px;font-family:Aharoni;-inkscape-font-specification:Aharoni-Bold;writing-mode:lr-tb;fill:#000000;fill-opacity:0;fill-rule:nonzero;stroke:none"
       id="text10132"
       x="73.25"
       y="-443.63"><tspan
         x="73.25 93.496201 114.4522 125.7752 134.9012 154.2348 173.83881 185.09421 195.5722 216.59579 236.0984 250.362 271.35181 285.5816 306.5376 316.3396 326.91901 346.38779 358.38681 379.37659 393.60641 422.8772 443.83319 455.15619 464.2822 485.20441 504.74081 515.21881 539.2168 558.71936 579.77679 588.90277 597.82599 618.78198 639.83942 648.96539 668.29901 678.87842 688.00439 707.43939 717.91742 733.70203 754.69177 775.68158 784.70618 801.23438 820.77081 832.02618 846.25598"
         y="-443.63"
         sodipodi:role="line"
         id="tspan10130">Patient Record Information Available in Log Entry</tspan></text><path
       d="m 275.63,377.62 c 0,4.98 0.67,9 1.49,9 h 90.38 c 0.83,0 1.5,4.03 1.5,9 0,-4.97 0.67,-9 1.5,-9 h 90.38 c 0.82,0 1.5,-4.02 1.5,-9"
       style="fill:none;stroke:#00bac8;stroke-width:0.5;stroke-linecap:butt;stroke-linejoin:miter;stroke-miterlimit:10;stroke-dasharray:none;stroke-opacity:1"
       id="path10142" /><text
       transform="scale(1,-1)"
       style="font-variant:normal;font-weight:normal;font-size:18.025px;font-family:AvenirNextLTPro;-inkscape-font-specification:AvenirNextLTPro;writing-mode:lr-tb;fill:#00bac8;fill-opacity:1;fill-rule:nonzero;stroke:none"
       id="text10154"
       x="322.64999"
       y="-402.07999"><tspan
         x="322.64999 333.14056 337.64679 353.38263 363.87317 372.1106 378.09491 387.8284 403.58224"
         y="-402.07999"
         sodipodi:role="line"
         id="tspan10152">Timestamp</tspan></text><text
       transform="scale(1,-1)"
       style="font-variant:normal;font-weight:normal;font-size:18.025px;font-family:AvenirNextLTPro;-inkscape-font-specification:AvenirNextLTPro;writing-mode:lr-tb;fill:#000000;fill-opacity:1;fill-rule:nonzero;stroke:none"
       id="text10166"
       x="277.10001"
       y="-364.95001"><tspan
         x="277.10001 287.5545 294.33191 304.78641 315.31299 322.03632 332.49081 343.01743 353.47192 363.99854 368.50479 378.95929 384.2406 394.6951 405.22171 410.46698 420.92148 431.44806 435.95432 446.40881 462.21674"
         y="-364.95001"
         sodipodi:role="line"
         id="tspan10164">9/11/2023 1:45:35 PM,</tspan></text><path
       d="m 839.63,377.62 c 0,4.98 0.67,9.01 1.49,9.01 l 11.26,-0.01 c 0.82,0 1.5,4.03 1.5,9 0,-4.97 0.67,-9 1.49,-9 h 11.26 c 0.82,0 1.5,-4.02 1.5,-9"
       style="fill:none;stroke:#00bac8;stroke-width:0.5;stroke-linecap:butt;stroke-linejoin:miter;stroke-miterlimit:10;stroke-dasharray:none;stroke-opacity:1"
       id="path10176" /><text
       transform="scale(1,-1)"
       style="font-variant:normal;font-weight:normal;font-size:18.025px;font-family:AvenirNextLTPro;-inkscape-font-specification:AvenirNextLTPro;writing-mode:lr-tb;fill:#00bac8;fill-opacity:1;fill-rule:nonzero;stroke:none"
       id="text10188"
       x="795.38"
       y="-402.07999"><tspan
         x="795.38 799.9223 811.11584 822.3634 833.61102 844.10156 850.82489 861.3335 871.82404 878.54736 886.78479 891.29102 901.78156"
         y="-402.07999"
         sodipodi:role="line"
         id="tspan10186">loggerVersion</tspan></text><text
       transform="scale(1,-1)"
       style="font-variant:normal;font-weight:normal;font-size:18.025px;font-family:AvenirNextLTPro;-inkscape-font-specification:AvenirNextLTPro;writing-mode:lr-tb;fill:#000000;fill-opacity:1;fill-rule:nonzero;stroke:none"
       id="text10200"
       x="841.02002"
       y="-364.95001"><tspan
         x="841.02002 851.47449 856.01678 866.47131"
         y="-364.95001"
         sodipodi:role="line"
         id="tspan10198">1.3,</tspan></text><path
       d="m 46.875,381.37 c 0,3.11 0.42,5.63 0.938,5.63 h 76.497 c 0.52,0 0.94,2.52 0.94,5.62 0,-3.1 0.42,-5.62 0.94,-5.62 h 76.5 c 0.52,0 0.94,-2.52 0.94,-5.63"
       style="fill:none;stroke:#00bac8;stroke-width:0.5;stroke-linecap:butt;stroke-linejoin:miter;stroke-miterlimit:10;stroke-dasharray:none;stroke-opacity:1"
       id="path10210" /><text
       transform="scale(1,-1)"
       style="font-variant:normal;font-weight:normal;font-size:18.025px;font-family:AvenirNextLTPro;-inkscape-font-specification:AvenirNextLTPro;writing-mode:lr-tb;fill:#00bac8;fill-opacity:1;fill-rule:nonzero;stroke:none"
       id="text10222"
       x="105.02"
       y="-402.07999"><tspan
         x="105.02 114.01447 122.99092 134.23853"
         y="-402.07999"
         sodipodi:role="line"
         id="tspan10220">Type</tspan></text><text
       transform="scale(1,-1)"
       style="font-variant:normal;font-weight:normal;font-size:18.025px;font-family:AvenirNextLTPro;-inkscape-font-specification:AvenirNextLTPro;writing-mode:lr-tb;fill:#000000;fill-opacity:1;fill-rule:nonzero;stroke:none"
       id="text10234"
       x="49.150002"
       y="-364.95001"><tspan
         x="49.150002 58.901524 70.906174 81.396721 85.902977 96.411552 109.91228 120.40282 129.41533 139.90587 150.41444 163.15813 178.15492 188.6635 201.40717"
         y="-364.95001"
         sodipodi:role="line"
         id="tspan10232">PATIENT_RECORD,</tspan></text><path
       d="m 211.88,379.12 c 0,4.15 0.55,7.5 1.24,7.5 H 238 c 0.69,0 1.25,3.36 1.25,7.5 0,-4.14 0.56,-7.5 1.25,-7.5 h 24.88 c 0.69,0 1.25,-3.35 1.25,-7.5"
       style="fill:none;stroke:#00bac8;stroke-width:0.5;stroke-linecap:butt;stroke-linejoin:miter;stroke-miterlimit:10;stroke-dasharray:none;stroke-opacity:1"
       id="path10244" /><text
       transform="scale(1,-1)"
       style="font-variant:normal;font-weight:normal;font-size:18.025px;font-family:AvenirNextLTPro;-inkscape-font-specification:AvenirNextLTPro;writing-mode:lr-tb;fill:#00bac8;fill-opacity:1;fill-rule:nonzero;stroke:none"
       id="text10256"
       x="186.10001"
       y="-402.07999"><tspan
         x="186.10001 196.59055 201.13284 210.83031 222.0779 230.31532 240.80588 252.05348 262.54404 267.05026 282.7861"
         y="-402.07999"
         sodipodi:role="line"
         id="tspan10254">elapsedTime</tspan></text><text
       transform="scale(1,-1)"
       style="font-variant:normal;font-weight:normal;font-size:18.025px;font-family:AvenirNextLTPro;-inkscape-font-specification:AvenirNextLTPro;writing-mode:lr-tb;fill:#000000;fill-opacity:1;fill-rule:nonzero;stroke:none"
       id="text10268"
       x="214.2"
       y="-364.95001"><tspan
         x="214.2 224.7 235.2 245.7 256.20001 266.70001"
         y="-364.95001"
         sodipodi:role="line"
         id="tspan10266">29802,</tspan></text><path
       d="m 473.63,378.37 c 0,4.77 0.64,8.63 1.43,8.63 h 177.13 c 0.79,0 1.44,3.86 1.44,8.62 0,-4.76 0.64,-8.62 1.43,-8.62 h 177.13 c 0.79,0 1.44,-3.86 1.44,-8.63"
       style="fill:none;stroke:#00bac8;stroke-width:0.5;stroke-linecap:butt;stroke-linejoin:miter;stroke-miterlimit:10;stroke-dasharray:none;stroke-opacity:1"
       id="path10278" /><text
       transform="scale(1,-1)"
       style="font-variant:normal;font-weight:normal;font-size:18.025px;font-family:AvenirNextLTPro;-inkscape-font-specification:AvenirNextLTPro;writing-mode:lr-tb;fill:#00bac8;fill-opacity:1;fill-rule:nonzero;stroke:none"
       id="text10290"
       x="613.54999"
       y="-402.07999"><tspan
         x="613.54999 624.04053 634.53113 642.76855 651.00598 655.51221 666.74176 677.21429 681.73859"
         y="-402.07999"
         sodipodi:role="line"
         id="tspan10288">SessionId</tspan></text><text
       transform="scale(1,-1)"
       style="font-variant:normal;font-weight:normal;font-size:18.025px;font-family:AvenirNextLTPro;-inkscape-font-specification:AvenirNextLTPro;writing-mode:lr-tb;fill:#000000;fill-opacity:1;fill-rule:nonzero;stroke:none"
       id="text10302"
       x="473.70001"
       y="-364.95001"><tspan
         x="473.70001 484.98364 495.49222 506.77588 517.28442 527.79303 539.07666 548.82819"
         y="-364.95001"
         sodipodi:role="line"
         id="tspan10300">d9d58da9</tspan></text><text
       transform="scale(1,-1)"
       style="font-variant:normal;font-weight:normal;font-size:18.025px;font-family:AvenirNextLTPro;-inkscape-font-specification:AvenirNextLTPro;writing-mode:lr-tb;fill:#000000;fill-opacity:1;fill-rule:nonzero;stroke:none"
       id="text10314"
       x="559.28003"
       y="-364.95001"><tspan
         x="559.28003"
         y="-364.95001"
         id="tspan10312">-</tspan></text><text
       transform="scale(1,-1)"
       style="font-variant:normal;font-weight:normal;font-size:18.025px;font-family:AvenirNextLTPro;-inkscape-font-specification:AvenirNextLTPro;writing-mode:lr-tb;fill:#000000;fill-opacity:1;fill-rule:nonzero;stroke:none"
       id="text10326"
       x="565.28003"
       y="-364.95001"><tspan
         x="565.28003 575.7345 587.0542 598.33783"
         y="-364.95001"
         sodipodi:role="line"
         id="tspan10324">9bdc</tspan></text><text
       transform="scale(1,-1)"
       style="font-variant:normal;font-weight:normal;font-size:18.025px;font-family:AvenirNextLTPro;-inkscape-font-specification:AvenirNextLTPro;writing-mode:lr-tb;fill:#000000;fill-opacity:1;fill-rule:nonzero;stroke:none"
       id="text10338"
       x="607.29999"
       y="-364.95001"><tspan
         x="607.29999"
         y="-364.95001"
         id="tspan10336">-</tspan></text><text
       transform="scale(1,-1)"
       style="font-variant:normal;font-weight:normal;font-size:18.025px;font-family:AvenirNextLTPro;-inkscape-font-specification:AvenirNextLTPro;writing-mode:lr-tb;fill:#000000;fill-opacity:1;fill-rule:nonzero;stroke:none"
       id="text10350"
       x="613.33002"
       y="-364.95001"><tspan
         x="613.33002 623.78448 634.3111 644.80164"
         y="-364.95001"
         sodipodi:role="line"
         id="tspan10348">41ea</tspan></text><text
       transform="scale(1,-1)"
       style="font-variant:normal;font-weight:normal;font-size:18.025px;font-family:AvenirNextLTPro;-inkscape-font-specification:AvenirNextLTPro;writing-mode:lr-tb;fill:#000000;fill-opacity:1;fill-rule:nonzero;stroke:none"
       id="text10362"
       x="654.59998"
       y="-364.95001"><tspan
         x="654.59998"
         y="-364.95001"
         id="tspan10360">-</tspan></text><text
       transform="scale(1,-1)"
       style="font-variant:normal;font-weight:normal;font-size:18.025px;font-family:AvenirNextLTPro;-inkscape-font-specification:AvenirNextLTPro;writing-mode:lr-tb;fill:#000000;fill-opacity:1;fill-rule:nonzero;stroke:none"
       id="text10374"
       x="660.59998"
       y="-364.95001"><tspan
         x="660.59998 671.0545 681.58112 686.82635"
         y="-364.95001"
         sodipodi:role="line"
         id="tspan10372">90fe</tspan></text><text
       transform="scale(1,-1)"
       style="font-variant:normal;font-weight:normal;font-size:18.025px;font-family:AvenirNextLTPro;-inkscape-font-specification:AvenirNextLTPro;writing-mode:lr-tb;fill:#000000;fill-opacity:1;fill-rule:nonzero;stroke:none"
       id="text10386"
       x="697.38"
       y="-364.95001"><tspan
         x="697.38"
         y="-364.95001"
         id="tspan10384">-</tspan></text><text
       transform="scale(1,-1)"
       style="font-variant:normal;font-weight:normal;font-size:18.025px;font-family:AvenirNextLTPro;-inkscape-font-specification:AvenirNextLTPro;writing-mode:lr-tb;fill:#000000;fill-opacity:1;fill-rule:nonzero;stroke:none"
       id="text10398"
       x="703.38"
       y="-364.95001"><tspan
         x="703.38 713.88855 722.90106 733.42767 743.93628 755.21991 766.50354 777.01215 787.52069 798.0293 808.53784 819.82147 830.33008"
         y="-364.95001"
         sodipodi:role="line"
         id="tspan10396">4c84db4635d9,</tspan></text><path
       d="m 179.63,242.62 c 0,4.77 0.64,8.63 1.43,8.63 h 14 c 0.8,0 1.44,3.86 1.44,8.62 0,-4.76 0.64,-8.62 1.44,-8.62 h 14 c 0.79,0 1.44,-3.86 1.44,-8.63"
       style="fill:none;stroke:#00bac8;stroke-width:0.5;stroke-linecap:butt;stroke-linejoin:miter;stroke-miterlimit:10;stroke-dasharray:none;stroke-opacity:1"
       id="path10408" /><text
       transform="scale(1,-1)"
       style="font-variant:normal;font-weight:normal;font-size:18.025px;font-family:AvenirNextLTPro;-inkscape-font-specification:AvenirNextLTPro;writing-mode:lr-tb;fill:#00bac8;fill-opacity:1;fill-rule:nonzero;stroke:none"
       id="text10420"
       x="148.38"
       y="-265.13"><tspan
         x="148.38 158.88858 169.3611 179.0946 183.6369 189.58514 200.09372 209.0882 219.57875 228.55521 239.04575"
         y="-265.13"
         sodipodi:role="line"
         id="tspan10418">healthLevel</tspan></text><text
       transform="scale(1,-1)"
       style="font-variant:normal;font-weight:normal;font-size:18.025px;font-family:AvenirNextLTPro;-inkscape-font-specification:AvenirNextLTPro;writing-mode:lr-tb;fill:#000000;fill-opacity:1;fill-rule:nonzero;stroke:none"
       id="text10432"
       x="180.64999"
       y="-229.64999"><tspan
         x="180.64999 191.14999 201.64999 212.14999"
         y="-229.64999"
         sodipodi:role="line"
         id="tspan10430">100,</tspan></text><path
       d="m 310.88,241.87 c 0,4.98 0.67,9 1.49,9 H 339 c 0.83,0 1.5,4.03 1.5,9 0,-4.97 0.67,-9 1.5,-9 h 26.63 c 0.82,0 1.5,-4.02 1.5,-9"
       style="fill:none;stroke:#00bac8;stroke-width:0.5;stroke-linecap:butt;stroke-linejoin:miter;stroke-miterlimit:10;stroke-dasharray:none;stroke-opacity:1"
       id="path10442" /><text
       transform="scale(1,-1)"
       style="font-variant:normal;font-weight:normal;font-size:18.025px;font-family:AvenirNextLTPro;-inkscape-font-specification:AvenirNextLTPro;writing-mode:lr-tb;fill:#00bac8;fill-opacity:1;fill-rule:nonzero;stroke:none"
       id="text10454"
       x="248.98"
       y="-265.13"><tspan
         x="248.98 259.48859 270.01517 279.76669 284.30899 290.27527 300.78384 311.31046 315.81671 331.58856 342.09714 352.62375 363.13232 378.90421 388.65573 393.16199 403.63449 408.14075 418.68536"
         y="-265.13"
         sodipodi:role="line"
         id="tspan10452">healthTimeRemaining</tspan></text><text
       transform="scale(1,-1)"
       style="font-variant:normal;font-weight:normal;font-size:18.025px;font-family:AvenirNextLTPro;-inkscape-font-specification:AvenirNextLTPro;writing-mode:lr-tb;fill:#000000;fill-opacity:1;fill-rule:nonzero;stroke:none"
       id="text10466"
       x="313.14999"
       y="-229.64999"><tspan
         x="313.14999 317.65625 328.12878 333.44614 337.95239 348.42493 352.93118 358.9335 367.20697"
         y="-229.64999"
         sodipodi:role="line"
         id="tspan10464">Infinity,</tspan></text><path
       d="m 651.38,244.12 c 0,3.94 0.53,7.13 1.18,7.13 h 77.13 c 0.65,0 1.19,3.19 1.19,7.12 0,-3.93 0.53,-7.12 1.18,-7.12 h 77.13 c 0.65,0 1.19,-3.19 1.19,-7.13"
       style="fill:none;stroke:#00bac8;stroke-width:0.5;stroke-linecap:butt;stroke-linejoin:miter;stroke-miterlimit:10;stroke-dasharray:none;stroke-opacity:1"
       id="path10476" /><text
       transform="scale(1,-1)"
       style="font-variant:normal;font-weight:normal;font-size:18.025px;font-family:AvenirNextLTPro;-inkscape-font-specification:AvenirNextLTPro;writing-mode:lr-tb;fill:#00bac8;fill-opacity:1;fill-rule:nonzero;stroke:none"
       id="text10488"
       x="697.45001"
       y="-265.13"><tspan
         x="697.45001 704.17334 715.43896 721.42328 731.17474 737.15906 741.66534 752.9129"
         y="-265.13"
         sodipodi:role="line"
         id="tspan10486">rotation</tspan></text><text
       transform="scale(1,-1)"
       style="font-variant:normal;font-weight:normal;font-size:18.025px;font-family:AvenirNextLTPro;-inkscape-font-specification:AvenirNextLTPro;writing-mode:lr-tb;fill:#000000;fill-opacity:1;fill-rule:nonzero;stroke:none"
       id="text10500"
       x="653.79999"
       y="-229.64999"><tspan
         x="653.79999 661.2804 666.52563 676.98016 681.52246 691.97693 695.78021 700.2865 710.74097 715.28326 725.73779 729.54108 734.76831 745.22278 749.76508 760.2196 764.02289 769.25012 779.70459 784.24695 794.70142 800.00079 807.48114"
         y="-229.64999"
         sodipodi:role="line"
         id="tspan10498">&quot;(0.0, 1.0, 0.0, 0.0)&quot;,</tspan></text><path
       d="m 379.13,245.62 c 0,3.11 0.41,5.63 0.93,5.63 h 61.88 c 0.52,0 0.94,2.52 0.94,5.62 0,-3.1 0.41,-5.62 0.93,-5.62 h 61.88 c 0.52,0 0.94,-2.52 0.94,-5.63"
       style="fill:none;stroke:#00bac8;stroke-width:0.5;stroke-linecap:butt;stroke-linejoin:miter;stroke-miterlimit:10;stroke-dasharray:none;stroke-opacity:1"
       id="path10510" /><text
       transform="scale(1,-1)"
       style="font-variant:normal;font-weight:normal;font-size:18.025px;font-family:AvenirNextLTPro;-inkscape-font-specification:AvenirNextLTPro;writing-mode:lr-tb;fill:#00bac8;fill-opacity:1;fill-rule:nonzero;stroke:none"
       id="text10522"
       x="434.98001"
       y="-265.13"><tspan
         x="434.98001 439.48001"
         y="-265.13"
         sodipodi:role="line"
         id="tspan10520">id</tspan></text><text
       transform="scale(1,-1)"
       style="font-variant:normal;font-weight:normal;font-size:18.025px;font-family:AvenirNextLTPro;-inkscape-font-specification:AvenirNextLTPro;writing-mode:lr-tb;fill:#000000;fill-opacity:1;fill-rule:nonzero;stroke:none"
       id="text10534"
       x="380.01999"
       y="-229.64999"><tspan
         x="380.01999 392.76367 403.25421 407.79654 419.00809 428.74158 437.75406 448.20859 458.71716 463.22339 473.71396 484.94351 496.1731 502.15741"
         y="-229.64999"
         sodipodi:role="line"
         id="tspan10532">Helga_17 Root,</tspan></text><path
       d="m 511.88,241.87 c 0,5.18 0.69,9.38 1.56,9.38 h 64 c 0.86,0 1.56,4.2 1.56,9.37 0,-5.17 0.7,-9.37 1.56,-9.37 h 64 c 0.87,0 1.57,-4.2 1.57,-9.38"
       style="fill:none;stroke:#00bac8;stroke-width:0.5;stroke-linecap:butt;stroke-linejoin:miter;stroke-miterlimit:10;stroke-dasharray:none;stroke-opacity:1"
       id="path10544" /><text
       transform="scale(1,-1)"
       style="font-variant:normal;font-weight:normal;font-size:18.025px;font-family:AvenirNextLTPro;-inkscape-font-specification:AvenirNextLTPro;writing-mode:lr-tb;fill:#00bac8;fill-opacity:1;fill-rule:nonzero;stroke:none"
       id="text10556"
       x="544.66998"
       y="-265.13"><tspan
         x="544.66998 555.9176 567.14716 575.38458 579.89087 585.87512 590.38141 601.61096"
         y="-265.13"
         sodipodi:role="line"
         id="tspan10554">position</tspan></text><text
       transform="scale(1,-1)"
       style="font-variant:normal;font-weight:normal;font-size:18.025px;font-family:AvenirNextLTPro;-inkscape-font-specification:AvenirNextLTPro;writing-mode:lr-tb;fill:#000000;fill-opacity:1;fill-rule:nonzero;stroke:none"
       id="text10568"
       x="512.91998"
       y="-229.64999"><tspan
         x="512.91998 520.4184 525.69971 536.20831 540.73254 551.24115 555.00836 559.51465 570.0412 574.56549 585.0741 588.84131 594.10461 604.61316 615.12177 619.64606 630.1546 635.43591 642.93433"
         y="-229.64999"
         sodipodi:role="line"
         id="tspan10566">&quot;(3.7, 0.0, 24.6)&quot;,</tspan></text><path
       d="m 322.13,109.12 c 0,3.73 0.5,6.75 1.12,6.75 H 336 c 0.62,0 1.13,3.03 1.13,6.75 0,-3.72 0.5,-6.75 1.12,-6.75 H 351 c 0.62,0 1.13,-3.02 1.13,-6.75"
       style="fill:none;stroke:#00bac8;stroke-width:0.5;stroke-linecap:butt;stroke-linejoin:miter;stroke-miterlimit:10;stroke-dasharray:none;stroke-opacity:1"
       id="path10578" /><text
       transform="scale(1,-1)"
       style="font-variant:normal;font-weight:normal;font-size:18.025px;font-family:AvenirNextLTPro;-inkscape-font-specification:AvenirNextLTPro;writing-mode:lr-tb;fill:#00bac8;fill-opacity:1;fill-rule:nonzero;stroke:none"
       id="text10590"
       x="320.17999"
       y="-130.67"><tspan
         x="320.17999 328.41742 339.647 346.37033"
         y="-130.67"
         sodipodi:role="line"
         id="tspan10588">sort</tspan></text><text
       transform="scale(1,-1)"
       style="font-variant:normal;font-weight:normal;font-size:18.025px;font-family:AvenirNextLTPro;-inkscape-font-specification:AvenirNextLTPro;writing-mode:lr-tb;fill:#000000;fill-opacity:1;fill-rule:nonzero;stroke:none"
       id="text10602"
       x="322.25"
       y="-93.525002"><tspan
         x="322.25 330.48743 336.47174 340.97797 345.52026 349.97244"
         y="-93.525002"
         sodipodi:role="line"
         id="tspan10600">still,</tspan></text><path
       d="m 361.13,107.62 c 0,4.15 0.55,7.5 1.24,7.5 h 17.01 c 0.69,0 1.25,3.36 1.25,7.5 0,-4.14 0.55,-7.5 1.24,-7.5 h 17.01 c 0.69,0 1.25,-3.35 1.25,-7.5"
       style="fill:none;stroke:#00bac8;stroke-width:0.5;stroke-linecap:butt;stroke-linejoin:miter;stroke-miterlimit:10;stroke-dasharray:none;stroke-opacity:1"
       id="path10612" /><text
       transform="scale(1,-1)"
       style="font-variant:normal;font-weight:normal;font-size:18.025px;font-family:AvenirNextLTPro;-inkscape-font-specification:AvenirNextLTPro;writing-mode:lr-tb;fill:#00bac8;fill-opacity:1;fill-rule:nonzero;stroke:none"
       id="text10624"
       x="357.73001"
       y="-130.67"><tspan
         x="357.73001 368.9776 379.45013 383.99243 392.21182"
         y="-130.67"
         sodipodi:role="line"
         id="tspan10622">pulse</tspan></text><text
       transform="scale(1,-1)"
       style="font-variant:normal;font-weight:normal;font-size:18.025px;font-family:AvenirNextLTPro;-inkscape-font-specification:AvenirNextLTPro;writing-mode:lr-tb;fill:#000000;fill-opacity:1;fill-rule:nonzero;stroke:none"
       id="text10636"
       x="362.95001"
       y="-93.525002"><tspan
         x="362.95001 368.19528 377.92877 382.43503 392.90756 398.90988"
         y="-93.525002"
         sodipodi:role="line"
         id="tspan10634">faint,</tspan></text><path
       d="m 505.88,107.62 c 0,4.56 0.61,8.25 1.37,8.25 h 19.38 c 0.75,0 1.37,3.7 1.37,8.25 0,-4.55 0.62,-8.25 1.37,-8.25 h 19.38 c 0.76,0 1.38,-3.69 1.38,-8.25"
       style="fill:none;stroke:#00bac8;stroke-width:0.5;stroke-linecap:butt;stroke-linejoin:miter;stroke-miterlimit:10;stroke-dasharray:none;stroke-opacity:1"
       id="path10646" /><text
       transform="scale(1,-1)"
       style="font-variant:normal;font-weight:normal;font-size:18.025px;font-family:AvenirNextLTPro;-inkscape-font-specification:AvenirNextLTPro;writing-mode:lr-tb;fill:#00bac8;fill-opacity:1;fill-rule:nonzero;stroke:none"
       id="text10658"
       x="496.17001"
       y="-130.67"><tspan
         x="496.17001 506.67859 517.15112 526.88458 533.60791 538.1142 548.58667"
         y="-130.67"
         sodipodi:role="line"
         id="tspan10656">hearing</tspan></text><text
       transform="scale(1,-1)"
       style="font-variant:normal;font-weight:normal;font-size:18.025px;font-family:AvenirNextLTPro;-inkscape-font-specification:AvenirNextLTPro;writing-mode:lr-tb;fill:#000000;fill-opacity:1;fill-rule:nonzero;stroke:none"
       id="text10670"
       x="507.39999"
       y="-94.375"><tspan
         x="507.39999 517.8725 529.17419 539.64673 550.20935"
         y="-94.375"
         sodipodi:role="line"
         id="tspan10668">none,</tspan></text><path
       d="m 203.63,108.37 c 0,4.35 0.58,7.88 1.31,7.88 h 50.62 c 0.73,0 1.32,3.53 1.32,7.87 0,-4.34 0.58,-7.87 1.31,-7.87 h 50.62 c 0.73,0 1.32,-3.53 1.32,-7.88"
       style="fill:none;stroke:#00bac8;stroke-width:0.5;stroke-linecap:butt;stroke-linejoin:miter;stroke-miterlimit:10;stroke-dasharray:none;stroke-opacity:1"
       id="path10680" /><text
       transform="scale(1,-1)"
       style="font-variant:normal;font-weight:normal;font-size:18.025px;font-family:AvenirNextLTPro;-inkscape-font-specification:AvenirNextLTPro;writing-mode:lr-tb;fill:#00bac8;fill-opacity:1;fill-rule:nonzero;stroke:none"
       id="text10692"
       x="242.64999"
       y="-130.67"><tspan
         x="242.64999 250.88742 260.62091 265.16324"
         y="-130.67"
         sodipodi:role="line"
         id="tspan10690">salt</tspan></text><text
       transform="scale(1,-1)"
       style="font-variant:normal;font-weight:normal;font-size:18.025px;font-family:AvenirNextLTPro;-inkscape-font-specification:AvenirNextLTPro;writing-mode:lr-tb;fill:#000000;fill-opacity:1;fill-rule:nonzero;stroke:none"
       id="text10704"
       x="204.25"
       y="-93.525002"><tspan
         x="204.25 214.75858 226.74519 237.19971 247.74432 260.48801 270.23953 282.96518 296.46588 305.46039"
         y="-93.525002"
         sodipodi:role="line"
         id="tspan10702">EXPECTANT,</tspan></text><path
       d="m 409.88,108.37 c 0,4.15 0.55,7.5 1.24,7.5 h 38.38 c 0.69,0 1.25,3.36 1.25,7.5 0,-4.14 0.56,-7.5 1.25,-7.5 h 38.38 c 0.69,0 1.25,-3.35 1.25,-7.5"
       style="fill:none;stroke:#00bac8;stroke-width:0.5;stroke-linecap:butt;stroke-linejoin:miter;stroke-miterlimit:10;stroke-dasharray:none;stroke-opacity:1"
       id="path10714" /><text
       transform="scale(1,-1)"
       style="font-variant:normal;font-weight:normal;font-size:18.025px;font-family:AvenirNextLTPro;-inkscape-font-specification:AvenirNextLTPro;writing-mode:lr-tb;fill:#00bac8;fill-opacity:1;fill-rule:nonzero;stroke:none"
       id="text10726"
       x="424.01999"
       y="-130.67"><tspan
         x="424.01999 435.30365 442.06302 452.57159 462.32312 468.32544"
         y="-130.67"
         sodipodi:role="line"
         id="tspan10724">breath</tspan></text><text
       transform="scale(1,-1)"
       style="font-variant:normal;font-weight:normal;font-size:18.025px;font-family:AvenirNextLTPro;-inkscape-font-specification:AvenirNextLTPro;writing-mode:lr-tb;fill:#000000;fill-opacity:1;fill-rule:nonzero;stroke:none"
       id="text10738"
       x="412.73001"
       y="-93.525002"><tspan
         x="412.73001 419.48938 429.99796 438.25339 444.25574 451.01511 455.52136 464.53384 470.57224 481.08081 492.36444"
         y="-93.525002"
         sodipodi:role="line"
         id="tspan10736">restricted,</tspan></text><path
       d="m 568.88,111.37 c 0,2.49 0.33,4.51 0.75,4.51 l 55.5,-0.01 c 0.41,0 0.75,2.02 0.75,4.5 0,-2.48 0.33,-4.5 0.75,-4.5 h 55.5 c 0.41,0 0.75,-2.01 0.75,-4.5"
       style="fill:none;stroke:#00bac8;stroke-width:0.5;stroke-linecap:butt;stroke-linejoin:miter;stroke-miterlimit:10;stroke-dasharray:none;stroke-opacity:1"
       id="path10748" /><text
       transform="scale(1,-1)"
       style="font-variant:normal;font-weight:normal;font-size:18.025px;font-family:AvenirNextLTPro;-inkscape-font-specification:AvenirNextLTPro;writing-mode:lr-tb;fill:#00bac8;fill-opacity:1;fill-rule:nonzero;stroke:none"
       id="text10760"
       x="600.63"
       y="-130.67"><tspan
         x="600.63 616.40186 627.66748 638.93311"
         y="-130.67"
         sodipodi:role="line"
         id="tspan10758">mood</tspan></text><text
       transform="scale(1,-1)"
       style="font-variant:normal;font-weight:normal;font-size:18.025px;font-family:AvenirNextLTPro;-inkscape-font-specification:AvenirNextLTPro;writing-mode:lr-tb;fill:#000000;fill-opacity:1;fill-rule:nonzero;stroke:none"
       id="text10772"
       x="567.79999"
       y="-93.525002"><tspan
         x="567.79999 578.27252 588.78113 595.50446 605.995 614.23242 625.47998 636.70959 647.18213 655.43756 659.94379 668.92023 679.41083"
         y="-93.525002"
         sodipodi:role="line"
         id="tspan10770">unresponsive,</tspan></text><path
       d="m 693.38,109.87 c 0,3.32 0.44,6 0.99,6 H 722 c 0.55,0 1,2.69 1,6 0,-3.31 0.45,-6 1,-6 h 27.63 c 0.55,0 1,-2.68 1,-6"
       style="fill:none;stroke:#00bac8;stroke-width:0.5;stroke-linecap:butt;stroke-linejoin:miter;stroke-miterlimit:10;stroke-dasharray:none;stroke-opacity:1"
       id="path10782" /><text
       transform="scale(1,-1)"
       style="font-variant:normal;font-weight:normal;font-size:18.025px;font-family:AvenirNextLTPro;-inkscape-font-specification:AvenirNextLTPro;writing-mode:lr-tb;fill:#00bac8;fill-opacity:1;fill-rule:nonzero;stroke:none"
       id="text10794"
       x="702.66998"
       y="-130.67"><tspan
         x="702.66998 713.9176 725.14716 733.38458"
         y="-130.67"
         sodipodi:role="line"
         id="tspan10792">pose</tspan></text><text
       transform="scale(1,-1)"
       style="font-variant:normal;font-weight:normal;font-size:18.025px;font-family:AvenirNextLTPro;-inkscape-font-specification:AvenirNextLTPro;writing-mode:lr-tb;fill:#000000;fill-opacity:1;fill-rule:nonzero;stroke:none"
       id="text10806"
       x="696.03003"
       y="-93.525002"><tspan
         x="696.03003 704.28546 714.758 726.0777 730.58392 741.11053 751.61908"
         y="-93.525002"
         sodipodi:role="line"
         id="tspan10804">supine,</tspan></text></g></svg>
