<?xml version="1.0" encoding="UTF-8" standalone="no"?>
<svg
   xmlns:dc="http://purl.org/dc/elements/1.1/"
   xmlns:cc="http://creativecommons.org/ns#"
   xmlns:rdf="http://www.w3.org/1999/02/22-rdf-syntax-ns#"
   xmlns:svg="http://www.w3.org/2000/svg"
   xmlns="http://www.w3.org/2000/svg"
   xmlns:sodipodi="http://sodipodi.sourceforge.net/DTD/sodipodi-0.dtd"
   xmlns:inkscape="http://www.inkscape.org/namespaces/inkscape"
   version="1.1"
   id="svg6261"
   xml:space="preserve"
   width="1280"
   height="720"
   viewBox="0 0 1280 720"
   sodipodi:docname="frvrs_data_and_analysis_presentation_for_itm_slide007.svg"
   inkscape:version="1.0.2-2 (e86c870879, 2021-01-15)"
   inkscape:export-filename="C:\Users\DaveBabbitt\Documents\GitHub\itm-analysis-reporting\saves\png\frvrs_data_and_analysis_presentation_for_itm\slide007.png"
   inkscape:export-xdpi="96"
   inkscape:export-ydpi="96"><metadata
     id="metadata6267"><rdf:RDF><cc:Work
         rdf:about=""><dc:format>image/svg+xml</dc:format><dc:type
           rdf:resource="http://purl.org/dc/dcmitype/StillImage" /><dc:title></dc:title></cc:Work></rdf:RDF></metadata><defs
     id="defs6265"><clipPath
       clipPathUnits="userSpaceOnUse"
       id="clipPath6277"><path
         d="M 0,1.2207e-4 H 960 V 540.00012 H 0 Z"
         clip-rule="evenodd"
         id="path6275" /></clipPath><clipPath
       clipPathUnits="userSpaceOnUse"
       id="clipPath6287"><path
         d="M 0,1.2207e-4 H 960 V 540.00012 H 0 Z"
         clip-rule="evenodd"
         id="path6285" /></clipPath><linearGradient
       x1="73.199997"
       y1="453.48001"
       x2="848.95001"
       y2="453.48001"
       gradientUnits="userSpaceOnUse"
       spreadMethod="pad"
       id="linearGradient6297"><stop
         style="stop-opacity:1;stop-color:#00bac8"
         offset="0"
         id="stop6293" /><stop
         style="stop-opacity:1;stop-color:#203040"
         offset="1"
         id="stop6295" /></linearGradient><clipPath
       clipPathUnits="userSpaceOnUse"
       id="clipPath6307"><path
         d="m 75,435.75 h 773.25 v 33 H 75 Z"
         clip-rule="evenodd"
         id="path6305" /></clipPath><clipPath
       clipPathUnits="userSpaceOnUse"
       id="clipPath6319"><path
         d="M 9.1553e-5,540 H 960 V 1.8311e-4 H 1.2207e-4"
         clip-rule="evenodd"
         id="path6317" /></clipPath><clipPath
       clipPathUnits="userSpaceOnUse"
       id="clipPath6329"><path
         d="M 1.4305e-5,0 H 960.00001 V 540 H 1.4305e-5 Z"
         clip-rule="evenodd"
         id="path6327" /></clipPath><clipPath
       clipPathUnits="userSpaceOnUse"
       id="clipPath6341"><path
         d="M 1.4305e-5,0 H 960.00001 V 540 H 1.4305e-5 Z"
         clip-rule="evenodd"
         id="path6339" /></clipPath><clipPath
       clipPathUnits="userSpaceOnUse"
       id="clipPath6353"><path
         d="M 1.2207e-4,540 H 960 V 1.8311e-4 L 1.8311e-4,1.2207e-4"
         clip-rule="evenodd"
         id="path6351" /></clipPath><clipPath
       clipPathUnits="userSpaceOnUse"
       id="clipPath6363"><path
         d="M 1.4305e-5,0 H 960.00001 V 540 H 1.4305e-5 Z"
         clip-rule="evenodd"
         id="path6361" /></clipPath><clipPath
       clipPathUnits="userSpaceOnUse"
       id="clipPath6375"><path
         d="M 1.4305e-5,0 H 960.00001 V 540 H 1.4305e-5 Z"
         clip-rule="evenodd"
         id="path6373" /></clipPath><clipPath
       clipPathUnits="userSpaceOnUse"
       id="clipPath6387"><path
         d="M 3.0518e-5,540 H 960 V 2.4414e-4 L 6.1035e-5,1.8311e-4"
         clip-rule="evenodd"
         id="path6385" /></clipPath><clipPath
       clipPathUnits="userSpaceOnUse"
       id="clipPath6397"><path
         d="M 1.4305e-5,0 H 960.00001 V 540 H 1.4305e-5 Z"
         clip-rule="evenodd"
         id="path6395" /></clipPath><clipPath
       clipPathUnits="userSpaceOnUse"
       id="clipPath6409"><path
         d="M 1.4305e-5,0 H 960.00001 V 540 H 1.4305e-5 Z"
         clip-rule="evenodd"
         id="path6407" /></clipPath><clipPath
       clipPathUnits="userSpaceOnUse"
       id="clipPath6421"><path
         d="M 1.2207e-4,540 H 960 V 1.8311e-4 H 1.8311e-4"
         clip-rule="evenodd"
         id="path6419" /></clipPath><clipPath
       clipPathUnits="userSpaceOnUse"
       id="clipPath6431"><path
         d="M 1.4305e-5,0 H 960.00001 V 540 H 1.4305e-5 Z"
         clip-rule="evenodd"
         id="path6429" /></clipPath><clipPath
       clipPathUnits="userSpaceOnUse"
       id="clipPath6443"><path
         d="M 1.4305e-5,0 H 960.00001 V 540 H 1.4305e-5 Z"
         clip-rule="evenodd"
         id="path6441" /></clipPath><clipPath
       clipPathUnits="userSpaceOnUse"
       id="clipPath6455"><path
         d="M 1.4305e-5,0 H 960.00001 V 540 H 1.4305e-5 Z"
         clip-rule="evenodd"
         id="path6453" /></clipPath><clipPath
       clipPathUnits="userSpaceOnUse"
       id="clipPath6467"><path
         d="M 1.4305e-5,0 H 960.00001 V 540 H 1.4305e-5 Z"
         clip-rule="evenodd"
         id="path6465" /></clipPath><clipPath
       clipPathUnits="userSpaceOnUse"
       id="clipPath6479"><path
         d="M 1.4305e-5,0 H 960.00001 V 540 H 1.4305e-5 Z"
         clip-rule="evenodd"
         id="path6477" /></clipPath><clipPath
       clipPathUnits="userSpaceOnUse"
       id="clipPath6491"><path
         d="M 1.4305e-5,0 H 960.00001 V 540 H 1.4305e-5 Z"
         clip-rule="evenodd"
         id="path6489" /></clipPath><clipPath
       clipPathUnits="userSpaceOnUse"
       id="clipPath6503"><path
         d="M 1.4305e-5,0 H 960.00001 V 540 H 1.4305e-5 Z"
         clip-rule="evenodd"
         id="path6501" /></clipPath><clipPath
       clipPathUnits="userSpaceOnUse"
       id="clipPath6515"><path
         d="M 1.4305e-5,0 H 960.00001 V 540 H 1.4305e-5 Z"
         clip-rule="evenodd"
         id="path6513" /></clipPath><clipPath
       clipPathUnits="userSpaceOnUse"
       id="clipPath6527"><path
         d="M 1.4305e-5,0 H 960.00001 V 540 H 1.4305e-5 Z"
         clip-rule="evenodd"
         id="path6525" /></clipPath><clipPath
       clipPathUnits="userSpaceOnUse"
       id="clipPath6539"><path
         d="M 1.4305e-5,0 H 960.00001 V 540 H 1.4305e-5 Z"
         clip-rule="evenodd"
         id="path6537" /></clipPath><clipPath
       clipPathUnits="userSpaceOnUse"
       id="clipPath6551"><path
         d="M 3.0518e-5,540 H 960 V 2.4414e-4 L 4.5776e-5,1.8311e-4"
         clip-rule="evenodd"
         id="path6549" /></clipPath><clipPath
       clipPathUnits="userSpaceOnUse"
       id="clipPath6561"><path
         d="M 1.4305e-5,0 H 960.00001 V 540 H 1.4305e-5 Z"
         clip-rule="evenodd"
         id="path6559" /></clipPath><clipPath
       clipPathUnits="userSpaceOnUse"
       id="clipPath6573"><path
         d="M 1.4305e-5,0 H 960.00001 V 540 H 1.4305e-5 Z"
         clip-rule="evenodd"
         id="path6571" /></clipPath><clipPath
       clipPathUnits="userSpaceOnUse"
       id="clipPath6585"><path
         d="M 1.2207e-4,540 H 960 V 1.8311e-4 H 1.8311e-4"
         clip-rule="evenodd"
         id="path6583" /></clipPath><clipPath
       clipPathUnits="userSpaceOnUse"
       id="clipPath6595"><path
         d="M 1.4305e-5,0 H 960.00001 V 540 H 1.4305e-5 Z"
         clip-rule="evenodd"
         id="path6593" /></clipPath><clipPath
       clipPathUnits="userSpaceOnUse"
       id="clipPath6607"><path
         d="M 1.4305e-5,0 H 960.00001 V 540 H 1.4305e-5 Z"
         clip-rule="evenodd"
         id="path6605" /></clipPath><clipPath
       clipPathUnits="userSpaceOnUse"
       id="clipPath6619"><path
         d="M 1.2207e-4,540 H 960 V 1.8311e-4 L 1.8311e-4,1.2207e-4"
         clip-rule="evenodd"
         id="path6617" /></clipPath><clipPath
       clipPathUnits="userSpaceOnUse"
       id="clipPath6629"><path
         d="M 1.4305e-5,0 H 960.00001 V 540 H 1.4305e-5 Z"
         clip-rule="evenodd"
         id="path6627" /></clipPath><clipPath
       clipPathUnits="userSpaceOnUse"
       id="clipPath6641"><path
         d="M 1.4305e-5,0 H 960.00001 V 540 H 1.4305e-5 Z"
         clip-rule="evenodd"
         id="path6639" /></clipPath><clipPath
       clipPathUnits="userSpaceOnUse"
       id="clipPath6653"><path
         d="M 1.2207e-4,540 H 960 V 1.8311e-4 L 1.8311e-4,1.2207e-4"
         clip-rule="evenodd"
         id="path6651" /></clipPath><clipPath
       clipPathUnits="userSpaceOnUse"
       id="clipPath6663"><path
         d="M 1.4305e-5,0 H 960.00001 V 540 H 1.4305e-5 Z"
         clip-rule="evenodd"
         id="path6661" /></clipPath><clipPath
       clipPathUnits="userSpaceOnUse"
       id="clipPath6675"><path
         d="M 1.4305e-5,0 H 960.00001 V 540 H 1.4305e-5 Z"
         clip-rule="evenodd"
         id="path6673" /></clipPath><clipPath
       clipPathUnits="userSpaceOnUse"
       id="clipPath6687"><path
         d="M 6.1035e-5,540 H 960 V 1.8311e-4 L 9.1553e-5,1.2207e-4"
         clip-rule="evenodd"
         id="path6685" /></clipPath><clipPath
       clipPathUnits="userSpaceOnUse"
       id="clipPath6697"><path
         d="M 1.4305e-5,0 H 960.00001 V 540 H 1.4305e-5 Z"
         clip-rule="evenodd"
         id="path6695" /></clipPath><clipPath
       clipPathUnits="userSpaceOnUse"
       id="clipPath6709"><path
         d="M 1.4305e-5,0 H 960.00001 V 540 H 1.4305e-5 Z"
         clip-rule="evenodd"
         id="path6707" /></clipPath><clipPath
       clipPathUnits="userSpaceOnUse"
       id="clipPath6721"><path
         d="M 9.1553e-5,540 H 960 V 1.8311e-4 L 1.2207e-4,1.2207e-4"
         clip-rule="evenodd"
         id="path6719" /></clipPath><clipPath
       clipPathUnits="userSpaceOnUse"
       id="clipPath6731"><path
         d="M 1.4305e-5,0 H 960.00001 V 540 H 1.4305e-5 Z"
         clip-rule="evenodd"
         id="path6729" /></clipPath><clipPath
       clipPathUnits="userSpaceOnUse"
       id="clipPath6743"><path
         d="M 1.4305e-5,0 H 960.00001 V 540 H 1.4305e-5 Z"
         clip-rule="evenodd"
         id="path6741" /></clipPath><clipPath
       clipPathUnits="userSpaceOnUse"
       id="clipPath6755"><path
         d="M 3.0518e-5,540 H 960 V 1.2207e-4 H 6.1035e-5"
         clip-rule="evenodd"
         id="path6753" /></clipPath><clipPath
       clipPathUnits="userSpaceOnUse"
       id="clipPath6765"><path
         d="M 1.4305e-5,0 H 960.00001 V 540 H 1.4305e-5 Z"
         clip-rule="evenodd"
         id="path6763" /></clipPath><clipPath
       clipPathUnits="userSpaceOnUse"
       id="clipPath6777"><path
         d="M 1.4305e-5,0 H 960.00001 V 540 H 1.4305e-5 Z"
         clip-rule="evenodd"
         id="path6775" /></clipPath><clipPath
       clipPathUnits="userSpaceOnUse"
       id="clipPath6789"><path
         d="M 9.1553e-5,540 H 960 V 1.2207e-4 H 1.2207e-4"
         clip-rule="evenodd"
         id="path6787" /></clipPath><clipPath
       clipPathUnits="userSpaceOnUse"
       id="clipPath6799"><path
         d="M 1.4305e-5,0 H 960.00001 V 540 H 1.4305e-5 Z"
         clip-rule="evenodd"
         id="path6797" /></clipPath><clipPath
       clipPathUnits="userSpaceOnUse"
       id="clipPath6811"><path
         d="M 1.4305e-5,0 H 960.00001 V 540 H 1.4305e-5 Z"
         clip-rule="evenodd"
         id="path6809" /></clipPath><clipPath
       clipPathUnits="userSpaceOnUse"
       id="clipPath6823"><path
         d="M 1.2207e-4,540 H 960 V 1.2207e-4 H 1.8311e-4"
         clip-rule="evenodd"
         id="path6821" /></clipPath><clipPath
       clipPathUnits="userSpaceOnUse"
       id="clipPath6833"><path
         d="M 1.4305e-5,0 H 960.00001 V 540 H 1.4305e-5 Z"
         clip-rule="evenodd"
         id="path6831" /></clipPath><clipPath
       clipPathUnits="userSpaceOnUse"
       id="clipPath6845"><path
         d="M 1.4305e-5,0 H 960.00001 V 540 H 1.4305e-5 Z"
         clip-rule="evenodd"
         id="path6843" /></clipPath></defs><sodipodi:namedview
     pagecolor="#ffffff"
     bordercolor="#666666"
     borderopacity="1"
     objecttolerance="10"
     gridtolerance="10"
     guidetolerance="10"
     inkscape:pageopacity="0"
     inkscape:pageshadow="2"
     inkscape:window-width="1920"
     inkscape:window-height="1121"
     id="namedview6263"
     showgrid="false"
     inkscape:zoom="0.99765625"
     inkscape:cx="640"
     inkscape:cy="360"
     inkscape:window-x="-9"
     inkscape:window-y="611"
     inkscape:window-maximized="1"
     inkscape:current-layer="g6269" /><g
     id="g6269"
     inkscape:groupmode="layer"
     inkscape:label="FRVRS - Data and Analysis Presentation for ITM"
     transform="matrix(1.3333333,0,0,-1.3333333,0,720)"><path
       d="M 0,6.1035e-5 H 960 V 540.00006 H 0 Z"
       style="fill:#ffffff;fill-opacity:1;fill-rule:evenodd;stroke:none"
       id="path6279" /><path
       d="M 0,6.1035e-5 H 960 V 540.00006 H 0 Z"
       style="fill:#ffffff;fill-opacity:1;fill-rule:evenodd;stroke:none"
       id="path6289" /><path
       d="m 589.8,454.86 c -1.07,0 -1.95,-0.4 -2.64,-1.21 -0.56,-0.65 -0.84,-1.4 -0.84,-2.25 0,-0.84 0.28,-1.59 0.84,-2.24 0.68,-0.81 1.56,-1.22 2.64,-1.22 0.97,0 1.8,0.34 2.47,1 0.67,0.67 1.01,1.49 1.01,2.46 0,0.97 -0.34,1.78 -1.02,2.46 -0.68,0.67 -1.5,1 -2.46,1 z m -39,0 c -1.07,0 -1.95,-0.4 -2.64,-1.21 -0.56,-0.65 -0.84,-1.4 -0.84,-2.25 0,-0.84 0.28,-1.59 0.84,-2.24 0.68,-0.81 1.56,-1.22 2.64,-1.22 0.97,0 1.8,0.34 2.47,1 0.67,0.67 1.01,1.49 1.01,2.46 0,0.97 -0.34,1.78 -1.02,2.46 -0.68,0.67 -1.5,1 -2.46,1 z m -135.75,0 c -1.07,0 -1.95,-0.4 -2.64,-1.21 -0.56,-0.65 -0.84,-1.4 -0.84,-2.25 0,-0.84 0.28,-1.59 0.84,-2.24 0.68,-0.81 1.56,-1.22 2.64,-1.22 0.97,0 1.8,0.34 2.47,1 0.67,0.67 1.01,1.49 1.01,2.46 0,0.97 -0.34,1.78 -1.02,2.46 -0.68,0.67 -1.5,1 -2.46,1 z m 195.98,0.02 c -0.96,0 -1.78,-0.34 -2.46,-1.01 -0.68,-0.68 -1.02,-1.51 -1.02,-2.47 0,-0.97 0.34,-1.8 1.02,-2.47 0.68,-0.68 1.5,-1.02 2.46,-1.02 1.08,0 1.96,0.41 2.64,1.22 0.56,0.67 0.84,1.43 0.84,2.27 0,0.84 -0.28,1.6 -0.84,2.26 -0.69,0.81 -1.57,1.22 -2.64,1.22 z m -333.98,0 c -1.07,0 -1.95,-0.41 -2.64,-1.22 -0.56,-0.66 -0.84,-1.42 -0.84,-2.26 0,-0.85 0.28,-1.61 0.84,-2.27 0.68,-0.81 1.56,-1.22 2.64,-1.22 0.97,0 1.8,0.34 2.47,1.01 0.67,0.67 1.01,1.5 1.01,2.48 0,0.96 -0.34,1.79 -1.02,2.47 -0.68,0.67 -1.5,1.01 -2.46,1.01 z m 447.85,0.08 c -1.12,0 -2.03,-0.42 -2.73,-1.25 -0.56,-0.68 -0.85,-1.44 -0.85,-2.31 0,-0.87 0.29,-1.64 0.85,-2.31 0.7,-0.84 1.61,-1.26 2.73,-1.26 0.99,0 1.84,0.34 2.52,1.03 0.69,0.69 1.04,1.54 1.04,2.54 0,1 -0.35,1.84 -1.04,2.53 -0.7,0.69 -1.54,1.03 -2.52,1.03 z m -268.5,0 c -1.12,0 -2.03,-0.42 -2.73,-1.25 -0.56,-0.68 -0.85,-1.44 -0.85,-2.31 0,-0.87 0.29,-1.64 0.85,-2.31 0.7,-0.84 1.61,-1.26 2.73,-1.26 0.99,0 1.84,0.34 2.52,1.03 0.69,0.69 1.04,1.54 1.04,2.54 0,1 -0.35,1.84 -1.04,2.53 -0.7,0.69 -1.54,1.03 -2.52,1.03 z m -105.75,0 c -1.12,0 -2.03,-0.42 -2.72,-1.25 -0.57,-0.68 -0.86,-1.44 -0.86,-2.31 0,-0.87 0.29,-1.64 0.86,-2.31 0.69,-0.84 1.6,-1.26 2.72,-1.26 0.99,0 1.84,0.34 2.52,1.03 0.69,0.69 1.04,1.54 1.04,2.54 0,1 -0.35,1.84 -1.04,2.53 -0.7,0.69 -1.54,1.03 -2.52,1.03 z m -108.75,0 c -1.12,0 -2.03,-0.42 -2.72,-1.25 -0.57,-0.68 -0.86,-1.44 -0.86,-2.31 0,-0.87 0.29,-1.64 0.86,-2.31 0.69,-0.84 1.6,-1.26 2.72,-1.26 0.99,0 1.84,0.34 2.52,1.03 0.69,0.69 1.04,1.54 1.04,2.54 0,1 -0.35,1.84 -1.04,2.53 -0.7,0.69 -1.54,1.03 -2.52,1.03 z m 503.9,0.07 c -1.08,0 -1.97,-0.42 -2.66,-1.25 -0.54,-0.67 -0.82,-1.45 -0.82,-2.33 0,-0.97 0.34,-1.81 1.01,-2.51 0.67,-0.7 1.5,-1.05 2.47,-1.05 0.96,0 1.78,0.35 2.45,1.05 0.67,0.7 1.01,1.54 1.01,2.51 0,0.98 -0.33,1.82 -1,2.52 -0.67,0.71 -1.49,1.06 -2.46,1.06 z m -105.4,1.04 c -0.91,0 -1.66,-0.28 -2.23,-0.83 -0.44,-0.43 -0.73,-1.02 -0.85,-1.76 h 6.15 c -0.38,1.73 -1.41,2.59 -3.07,2.59 z m -432.75,0 c -0.91,0 -1.66,-0.28 -2.23,-0.83 -0.44,-0.43 -0.73,-1.02 -0.85,-1.76 h 6.15 c -0.38,1.73 -1.41,2.59 -3.07,2.59 z m 620.05,2.98 h 6.28 l 4.09,-7.84 3.97,7.84 h 6.19 l -12.27,-22.94 h -6.07 l 5.19,9.74 z m -165.42,0 h 5.42 v -15.29 h -5.42 z m -99,0 h 5.42 v -15.29 h -5.42 z m -42.33,0 h 6.08 l 3.66,-7.84 3.67,7.84 h 6.05 l -7.96,-15.29 h -3.61 z m -82.17,0 h 5.42 v -15.29 h -5.42 z m -292.08,0 h 6.28 l 4.09,-7.84 3.97,7.84 h 6.19 l -12.27,-22.94 h -6.07 l 5.19,9.74 z m -32.65,0 h 5.42 v -8.67 c 0,-0.95 0.23,-1.66 0.69,-2.11 0.49,-0.48 1.17,-0.72 2.04,-0.72 0.87,0 1.54,0.24 2.03,0.72 0.46,0.45 0.69,1.16 0.69,2.11 v 8.67 h 5.42 v -9.71 c 0,-2.84 -1.34,-4.73 -4.03,-5.66 -1.12,-0.39 -2.49,-0.58 -4.11,-0.58 -3.17,0 -5.45,0.78 -6.84,2.34 -0.87,0.99 -1.31,2.29 -1.31,3.9 z m -9.02,0 h 5.42 v -22.94 h -5.42 z m 720.68,0.21 c 0.29,0 0.64,-0.01 1.06,-0.04 v -5.15 c -0.76,0.37 -1.53,0.55 -2.31,0.55 -1.77,0 -2.92,-0.73 -3.45,-2.19 -0.19,-0.53 -0.29,-1.24 -0.29,-2.13 v -6.54 h -5.42 v 15.29 h 5.42 v -2.5 c 0.57,0.89 1.18,1.53 1.84,1.92 0.89,0.53 1.94,0.79 3.15,0.79 z m -452.25,0 c 0.29,0 0.64,-0.01 1.06,-0.04 v -5.15 c -0.76,0.37 -1.53,0.55 -2.31,0.55 -1.77,0 -2.92,-0.73 -3.45,-2.19 -0.19,-0.53 -0.29,-1.24 -0.29,-2.13 v -6.54 h -5.42 v 15.29 h 5.42 v -2.5 c 0.57,0.89 1.18,1.53 1.84,1.92 0.89,0.53 1.94,0.79 3.15,0.79 z m -108.75,0 c 0.29,0 0.64,-0.01 1.06,-0.04 v -5.15 c -0.76,0.37 -1.53,0.55 -2.31,0.55 -1.77,0 -2.92,-0.73 -3.45,-2.19 -0.19,-0.53 -0.29,-1.24 -0.29,-2.13 v -6.54 h -5.42 v 15.29 h 5.42 v -2.5 c 0.57,0.89 1.18,1.53 1.84,1.92 0.89,0.53 1.94,0.79 3.15,0.79 z m -120,0 c 0.29,0 0.64,-0.01 1.06,-0.04 v -5.15 c -0.76,0.37 -1.53,0.55 -2.31,0.55 -1.77,0 -2.92,-0.73 -3.45,-2.19 -0.19,-0.53 -0.29,-1.24 -0.29,-2.13 v -6.54 h -5.42 v 15.29 h 5.42 v -2.5 c 0.57,0.89 1.18,1.53 1.84,1.92 0.89,0.53 1.94,0.79 3.15,0.79 z m 364.27,0.04 -2.46,-7.17 h 4.88 z m -110.96,0.01 c 1.14,0 2.16,-0.27 3.05,-0.82 0.96,-0.6 1.59,-1.42 1.88,-2.46 0.18,-0.62 0.27,-1.4 0.27,-2.34 v -9.93 h -5.42 v 7.55 c 0,1.32 -0.14,2.22 -0.42,2.7 -0.4,0.71 -1.01,1.07 -1.83,1.07 -0.9,0 -1.59,-0.39 -2.07,-1.17 -0.34,-0.55 -0.51,-1.41 -0.51,-2.6 v -7.55 h -5.42 v 7.55 c 0,1.32 -0.11,2.17 -0.33,2.57 -0.44,0.79 -1.12,1.18 -2.03,1.18 -0.85,0 -1.51,-0.34 -1.98,-1.02 -0.17,-0.24 -0.3,-0.57 -0.38,-0.99 -0.07,-0.43 -0.11,-1 -0.11,-1.74 v -7.55 h -5.42 v 15.29 h 5.42 v -1.88 c 0.64,0.62 1.22,1.07 1.75,1.35 0.95,0.52 2.02,0.78 3.2,0.78 1.51,0 2.76,-0.39 3.76,-1.17 0.51,-0.4 0.99,-0.96 1.46,-1.68 0.41,0.68 0.88,1.22 1.4,1.61 1.09,0.84 2.33,1.25 3.73,1.25 z m 396.88,0.07 c 1.65,0 2.99,-0.44 4.02,-1.33 1.17,-1.02 1.76,-2.53 1.76,-4.55 v -9.74 h -5.42 v 7.73 c 0,1.35 -0.16,2.25 -0.46,2.68 -0.45,0.65 -1.12,0.97 -2.02,0.97 -0.81,0 -1.5,-0.27 -2.06,-0.83 -0.5,-0.5 -0.75,-1.29 -0.75,-2.36 v -8.19 h -5.42 v 15.29 h 5.42 v -1.93 c 0.62,0.73 1.2,1.24 1.73,1.54 0.85,0.48 1.92,0.72 3.2,0.72 z m -113.25,0 c 1.65,0 2.99,-0.44 4.02,-1.33 1.17,-1.02 1.76,-2.53 1.76,-4.55 v -9.74 h -5.42 v 7.73 c 0,1.35 -0.16,2.25 -0.46,2.68 -0.45,0.65 -1.12,0.97 -2.02,0.97 -0.81,0 -1.5,-0.27 -2.06,-0.83 -0.5,-0.5 -0.75,-1.29 -0.75,-2.36 v -8.19 h -5.42 v 15.29 h 5.42 v -1.93 c 0.62,0.73 1.2,1.24 1.73,1.54 0.85,0.48 1.92,0.72 3.2,0.72 z m -202.5,0 c 1.65,0 2.99,-0.44 4.02,-1.33 1.17,-1.02 1.76,-2.53 1.76,-4.55 v -9.74 h -5.42 v 7.73 c 0,1.35 -0.16,2.25 -0.46,2.68 -0.45,0.65 -1.12,0.97 -2.02,0.97 -0.81,0 -1.5,-0.27 -2.06,-0.83 -0.5,-0.5 -0.75,-1.29 -0.75,-2.36 v -8.19 h -5.42 v 15.29 h 5.42 v -1.93 c 0.62,0.73 1.2,1.24 1.73,1.54 0.85,0.48 1.92,0.72 3.2,0.72 z m -158.25,0 c 1.65,0 2.99,-0.44 4.02,-1.33 1.17,-1.02 1.76,-2.53 1.76,-4.55 v -9.74 h -5.42 v 7.73 c 0,1.35 -0.16,2.25 -0.46,2.68 -0.45,0.65 -1.12,0.97 -2.02,0.97 -0.81,0 -1.5,-0.27 -2.06,-0.83 -0.5,-0.5 -0.75,-1.29 -0.75,-2.36 v -8.19 h -5.42 v 15.29 h 5.42 v -1.93 c 0.62,0.73 1.2,1.24 1.73,1.54 0.85,0.48 1.92,0.72 3.2,0.72 z m -224.996,0 c 1.645,0 2.983,-0.44 4.015,-1.33 1.171,-1.02 1.761,-2.53 1.761,-4.55 v -9.74 h -5.423 v 7.73 c 0,1.35 -0.152,2.25 -0.458,2.68 -0.448,0.65 -1.119,0.97 -2.015,0.97 -0.818,0 -1.506,-0.27 -2.063,-0.83 -0.502,-0.5 -0.754,-1.29 -0.754,-2.36 v -8.19 h -5.421 v 15.29 h 5.421 v -1.93 c 0.626,0.73 1.202,1.24 1.728,1.54 0.856,0.48 1.925,0.72 3.209,0.72 z m 648.516,0.1 c 1.11,0 2.1,-0.23 2.96,-0.68 0.52,-0.27 1.06,-0.72 1.62,-1.35 v 1.6 h 5.42 v -14.24 c 0,-1.34 -0.1,-2.42 -0.28,-3.24 -0.3,-1.32 -1.07,-2.5 -2.31,-3.55 -1.57,-1.32 -3.66,-1.97 -6.26,-1.97 -2.73,0 -4.9,0.71 -6.51,2.15 -1.08,0.96 -1.76,1.96 -2.06,3 -0.03,0.11 -0.08,0.34 -0.13,0.7 h 6.06 c 0.18,-0.5 0.41,-0.86 0.71,-1.08 0.48,-0.36 1.1,-0.54 1.85,-0.54 1.25,0 2.21,0.44 2.88,1.33 0.42,0.56 0.63,1.36 0.63,2.4 v 1.45 c -0.65,-0.6 -1.19,-1.02 -1.63,-1.26 -0.91,-0.5 -1.99,-0.76 -3.23,-0.76 -1.56,0 -2.95,0.41 -4.18,1.21 -1.26,0.82 -2.17,1.95 -2.71,3.38 -0.38,0.96 -0.56,2.01 -0.56,3.14 0,2.51 0.79,4.55 2.38,6.12 1.48,1.46 3.27,2.19 5.35,2.19 z m -104.23,0 c 3.33,0 5.71,-1.21 7.13,-3.63 0.81,-1.37 1.21,-2.95 1.21,-4.76 v -0.69 h -11.36 c 0,-2.3 1.11,-3.45 3.31,-3.45 1.13,0 1.99,0.49 2.59,1.45 h 5.24 c -0.41,-1.38 -1.03,-2.44 -1.84,-3.2 -1.47,-1.37 -3.45,-2.05 -5.92,-2.05 -3.14,0 -5.5,0.95 -7.08,2.87 -1.19,1.42 -1.78,3.16 -1.78,5.22 0,2.44 0.74,4.42 2.22,5.95 1.48,1.53 3.58,2.29 6.28,2.29 z m -432.75,0 c 3.33,0 5.71,-1.21 7.14,-3.63 0.8,-1.37 1.2,-2.95 1.2,-4.76 v -0.69 h -11.36 c 0,-2.3 1.11,-3.45 3.31,-3.45 1.13,0 1.99,0.49 2.59,1.45 h 5.24 c -0.41,-1.38 -1.03,-2.44 -1.84,-3.2 -1.47,-1.37 -3.45,-2.05 -5.92,-2.05 -3.14,0 -5.5,0.95 -7.08,2.87 -1.19,1.42 -1.78,3.16 -1.78,5.22 0,2.44 0.74,4.42 2.22,5.95 1.48,1.53 3.58,2.29 6.28,2.29 z m 380.92,0.05 c 1.08,0 2.1,-0.23 3.06,-0.68 0.54,-0.26 1.11,-0.69 1.69,-1.3 v 1.5 h 5.42 v -15.29 h -5.42 v 1.7 c -0.51,-0.65 -1.04,-1.13 -1.56,-1.42 -0.92,-0.52 -1.97,-0.78 -3.15,-0.78 -1.89,0 -3.58,0.66 -5.06,1.96 -1.77,1.56 -2.65,3.62 -2.65,6.19 0,2.61 0.9,4.7 2.71,6.26 1.44,1.24 3.09,1.86 4.96,1.86 z m -39,0 c 1.08,0 2.1,-0.23 3.06,-0.68 0.54,-0.26 1.11,-0.69 1.69,-1.3 v 1.5 h 5.42 v -15.29 h -5.42 v 1.7 c -0.51,-0.65 -1.04,-1.13 -1.56,-1.42 -0.92,-0.52 -1.97,-0.78 -3.15,-0.78 -1.89,0 -3.58,0.66 -5.06,1.96 -1.77,1.56 -2.65,3.62 -2.65,6.19 0,2.61 0.9,4.7 2.71,6.26 1.44,1.24 3.09,1.86 4.96,1.86 z m -135.75,0 c 1.08,0 2.1,-0.23 3.06,-0.68 0.54,-0.26 1.11,-0.69 1.69,-1.3 v 1.5 h 5.42 v -15.29 h -5.42 v 1.7 c -0.51,-0.65 -1.04,-1.13 -1.56,-1.42 -0.92,-0.52 -1.97,-0.78 -3.15,-0.78 -1.89,0 -3.58,0.66 -5.06,1.96 -1.77,1.56 -2.65,3.62 -2.65,6.19 0,2.61 0.9,4.7 2.71,6.26 1.44,1.24 3.09,1.86 4.96,1.86 z m -186.56,0 c 1.26,0 2.43,-0.29 3.53,-0.86 v -4.6 c -0.95,0.67 -1.88,1.01 -2.79,1.01 -1.08,0 -1.96,-0.35 -2.67,-1.04 -0.7,-0.69 -1.05,-1.58 -1.05,-2.65 0,-1.08 0.35,-1.96 1.05,-2.66 0.71,-0.69 1.59,-1.03 2.67,-1.03 0.9,0 1.83,0.33 2.79,0.99 v -4.6 c -1.12,-0.56 -2.29,-0.84 -3.53,-0.84 -2.79,0 -5,0.94 -6.64,2.83 -1.31,1.53 -1.97,3.3 -1.97,5.31 0,2.02 0.66,3.79 1.97,5.3 1.64,1.89 3.85,2.84 6.64,2.84 z m 498.01,0.08 c 2.89,0 5.2,-0.93 6.92,-2.78 1.41,-1.52 2.11,-3.33 2.11,-5.43 0,-2.12 -0.69,-3.93 -2.09,-5.45 -1.69,-1.85 -4.06,-2.77 -7.1,-2.77 -3.06,0 -5.43,0.92 -7.12,2.77 -1.4,1.52 -2.09,3.38 -2.09,5.59 0,1.98 0.7,3.75 2.11,5.29 1.7,1.85 4.12,2.78 7.26,2.78 z m -268.5,0 c 2.89,0 5.2,-0.93 6.92,-2.78 1.41,-1.52 2.11,-3.33 2.11,-5.43 0,-2.12 -0.69,-3.93 -2.09,-5.45 -1.69,-1.85 -4.06,-2.77 -7.1,-2.77 -3.06,0 -5.43,0.92 -7.12,2.77 -1.4,1.52 -2.09,3.38 -2.09,5.59 0,1.98 0.7,3.75 2.11,5.29 1.7,1.85 4.12,2.78 7.26,2.78 z m -105.75,0 c 2.89,0 5.2,-0.93 6.92,-2.78 1.41,-1.52 2.11,-3.33 2.11,-5.43 0,-2.12 -0.69,-3.93 -2.09,-5.45 -1.69,-1.85 -4.06,-2.77 -7.1,-2.77 -3.06,0 -5.43,0.92 -7.12,2.77 -1.4,1.52 -2.09,3.38 -2.09,5.59 0,1.98 0.7,3.75 2.11,5.29 1.7,1.85 4.12,2.78 7.26,2.78 z m -108.75,0 c 2.89,0 5.2,-0.93 6.92,-2.78 1.41,-1.52 2.11,-3.33 2.11,-5.43 0,-2.12 -0.69,-3.93 -2.09,-5.45 -1.69,-1.85 -4.06,-2.77 -7.1,-2.77 -3.06,0 -5.43,0.92 -7.12,2.77 -1.4,1.52 -2.09,3.38 -2.09,5.59 0,1.98 0.7,3.75 2.11,5.29 1.7,1.85 4.12,2.78 7.26,2.78 z m -57.15,2.19 v -5.6 H 186 c 1.23,0 2.12,0.26 2.66,0.77 0.59,0.56 0.88,1.24 0.88,2.04 0,0.8 -0.29,1.47 -0.88,2.02 -0.55,0.52 -1.44,0.77 -2.66,0.77 z m 619.76,1.85 h 5.42 v -4.6 h 3.09 v -4.43 h -3.09 v -10.86 h -5.42 v 10.86 h -1.78 v 4.43 h 1.78 z m -376.5,0 h 5.42 v -4.6 h 3.09 v -4.43 h -3.09 v -10.86 h -5.42 v 10.86 h -1.78 v 4.43 h 1.78 z m 340.39,2.6 h 12.8 v -4.88 h -6.95 v -3.84 h 6.57 v -4.87 h -6.57 v -4.02 h 6.95 v -4.88 h -12.8 z m -67.5,0 h 5.85 v -17.61 h 7.02 v -4.88 h -12.87 z m -195.23,0 h 6.38 l 8.47,-22.49 h -6.25 l -1.45,3.92 h -8.07 l -1.55,-3.92 h -6.18 z m -205.27,0 h 5.85 v -22.49 h -5.85 z m -121.5,0 h 9.09 c 2.66,0 4.63,-0.79 5.9,-2.39 1.04,-1.28 1.55,-2.79 1.55,-4.53 0,-1.99 -0.59,-3.58 -1.78,-4.76 -0.76,-0.76 -1.8,-1.29 -3.13,-1.58 l 7.07,-9.23 h -7.27 l -5.58,8.63 v -8.63 h -5.85 z m -103.503,0 h 5.85 v -22.49 h -5.85 z m 589.433,1.7 c 0.84,0 1.56,-0.29 2.15,-0.88 0.59,-0.59 0.89,-1.3 0.89,-2.14 0,-0.86 -0.29,-1.58 -0.88,-2.17 -0.58,-0.58 -1.31,-0.87 -2.16,-0.87 -0.84,0 -1.56,0.29 -2.14,0.88 -0.59,0.59 -0.88,1.31 -0.88,2.16 0,0.84 0.29,1.55 0.88,2.14 0.58,0.59 1.3,0.88 2.14,0.88 z m -99,0 c 0.84,0 1.56,-0.29 2.15,-0.88 0.59,-0.59 0.89,-1.3 0.89,-2.14 0,-0.86 -0.29,-1.58 -0.88,-2.17 -0.58,-0.58 -1.31,-0.87 -2.16,-0.87 -0.84,0 -1.56,0.29 -2.14,0.88 -0.59,0.59 -0.88,1.31 -0.88,2.16 0,0.84 0.29,1.55 0.88,2.14 0.58,0.59 1.3,0.88 2.14,0.88 z m -124.5,0 c 0.84,0 1.56,-0.29 2.15,-0.88 0.59,-0.59 0.89,-1.3 0.89,-2.14 0,-0.86 -0.29,-1.58 -0.88,-2.17 -0.58,-0.58 -1.31,-0.87 -2.16,-0.87 -0.84,0 -1.56,0.29 -2.14,0.88 -0.59,0.59 -0.88,1.31 -0.88,2.16 0,0.84 0.29,1.55 0.88,2.14 0.58,0.59 1.3,0.88 2.14,0.88 z m -333.75,0 c 0.84,0 1.56,-0.29 2.15,-0.88 0.59,-0.59 0.89,-1.3 0.89,-2.14 0,-0.86 -0.29,-1.58 -0.88,-2.17 -0.58,-0.58 -1.31,-0.87 -2.16,-0.87 -0.84,0 -1.56,0.29 -2.14,0.88 -0.59,0.59 -0.88,1.31 -0.88,2.16 0,0.84 0.29,1.55 0.88,2.14 0.58,0.59 1.3,0.88 2.14,0.88 z m 515.56,0.56 h 5.42 v -24.75 h -5.42 z m -21,0 h 5.42 v -10.98 c 0.58,0.61 1.14,1.04 1.69,1.31 0.96,0.46 1.98,0.69 3.06,0.69 1.87,0 3.52,-0.62 4.96,-1.86 1.81,-1.56 2.71,-3.65 2.71,-6.26 0,-2.57 -0.88,-4.63 -2.65,-6.19 -1.48,-1.3 -3.17,-1.96 -5.07,-1.96 -1.17,0 -2.22,0.26 -3.14,0.78 -0.56,0.31 -1.08,0.78 -1.56,1.42 v -1.7 h -5.42 z m -30,0 h 5.42 v -24.75 h -5.42 z m -291.94,0 h 5.42 v -24.75 h -5.42 v 1.7 c -0.51,-0.65 -1.04,-1.13 -1.56,-1.42 -0.92,-0.52 -1.97,-0.78 -3.15,-0.78 -1.89,0 -3.58,0.66 -5.06,1.96 -1.77,1.56 -2.65,3.62 -2.65,6.19 0,2.61 0.9,4.7 2.71,6.26 1.44,1.24 3.09,1.86 4.96,1.86 1.08,0 2.1,-0.23 3.06,-0.69 0.54,-0.27 1.11,-0.7 1.69,-1.31 z m 56.95,0.05 c 0.79,0 1.59,-0.19 2.39,-0.56 v -4.7 c -0.73,0.41 -1.36,0.61 -1.88,0.61 -0.74,0 -1.27,-0.28 -1.61,-0.84 -0.2,-0.32 -0.3,-1.11 -0.3,-2.37 v -1.65 h 3.79 v -4.45 h -3.79 v -10.84 h -5.42 v 10.84 h -1.93 v 4.45 h 1.93 v 2.03 c 0,2.25 0.57,3.99 1.71,5.21 1.42,1.51 3.12,2.27 5.11,2.27 z"
       style="fill:url(#linearGradient6297);fill-opacity:1;fill-rule:evenodd;stroke:none"
       id="path6299" /><text
       transform="scale(1,-1)"
       style="font-variant:normal;font-weight:bold;font-size:33.8px;font-family:Aharoni;-inkscape-font-specification:Aharoni-Bold;writing-mode:lr-tb;fill:#000000;fill-opacity:0;fill-rule:nonzero;stroke:none"
       id="text6311"
       x="73.25"
       y="-443.63"><tspan
         x="73.25 83.829399 103.2982 112.42419 132.569 146.7988 167.0788 176.8132 197.83679 217.3394 231.603 252.5928 266.8226 287.77859 298.32422 308.90359 328.37241 340.3714 361.36121 375.591 404.86179 425.81781 437.14081 446.26682 467.189 486.7254 497.2034 521.20142 540.70398 561.76141 570.88739 579.81061 600.7666 621.82397 630.95001 650.28363 660.86298 669.98901 689.42401 699.15839 714.94299 735.9328 756.92261 766.65698 783.18518 802.72162 813.97699 828.20679"
         y="-443.63"
         sodipodi:role="line"
         id="tspan6309">Injury Record Information Available in Log Entry</tspan></text><path
       d="m 273.38,377.62 c 0,4.98 0.67,9 1.49,9 h 90.38 c 0.83,0 1.5,4.03 1.5,9 0,-4.97 0.67,-9 1.5,-9 h 90.38 c 0.82,0 1.5,-4.02 1.5,-9"
       style="fill:none;stroke:#00bac8;stroke-width:0.5;stroke-linecap:butt;stroke-linejoin:miter;stroke-miterlimit:10;stroke-dasharray:none;stroke-opacity:1"
       id="path6321" /><text
       transform="scale(1,-1)"
       style="font-variant:normal;font-weight:normal;font-size:18.025px;font-family:AvenirNextLTPro;-inkscape-font-specification:AvenirNextLTPro;writing-mode:lr-tb;fill:#00bac8;fill-opacity:1;fill-rule:nonzero;stroke:none"
       id="text6333"
       x="320.32999"
       y="-402.07999"><tspan
         x="320.32999 330.83856 335.34482 351.13474 361.64331 369.89874 375.90106 385.65259 401.42447"
         y="-402.07999"
         sodipodi:role="line"
         id="tspan6331">Timestamp</tspan></text><text
       transform="scale(1,-1)"
       style="font-variant:normal;font-weight:normal;font-size:18.025px;font-family:AvenirNextLTPro;-inkscape-font-specification:AvenirNextLTPro;writing-mode:lr-tb;fill:#000000;fill-opacity:1;fill-rule:nonzero;stroke:none"
       id="text6345"
       x="273.95001"
       y="-364.95001"><tspan
         x="273.95001 284.45859 291.21796 301.72653 312.23511 318.99448 329.50305 340.01163 350.5202 361.02878 365.53503 376.04361 381.32492 391.8335 402.34207 407.62341 418.13199 428.64056 433.14679 443.65536 459.42725"
         y="-364.95001"
         sodipodi:role="line"
         id="tspan6343">9/11/2023 1:45:35 PM,</tspan></text><path
       d="m 837.38,377.62 c 0,4.98 0.67,9.01 1.49,9.01 l 11.26,-0.01 c 0.82,0 1.5,4.03 1.5,9 0,-4.97 0.67,-9 1.49,-9 h 11.26 c 0.82,0 1.5,-4.02 1.5,-9"
       style="fill:none;stroke:#00bac8;stroke-width:0.5;stroke-linecap:butt;stroke-linejoin:miter;stroke-miterlimit:10;stroke-dasharray:none;stroke-opacity:1"
       id="path6355" /><text
       transform="scale(1,-1)"
       style="font-variant:normal;font-weight:normal;font-size:18.025px;font-family:AvenirNextLTPro;-inkscape-font-specification:AvenirNextLTPro;writing-mode:lr-tb;fill:#00bac8;fill-opacity:1;fill-rule:nonzero;stroke:none"
       id="text6367"
       x="793.04999"
       y="-402.07999"><tspan
         x="793.04999 797.59229 808.80383 820.08752 831.37115 841.8797 848.60303 859.12964 869.63824 876.36157 884.599 889.10522 899.63184"
         y="-402.07999"
         sodipodi:role="line"
         id="tspan6365">loggerVersion</tspan></text><text
       transform="scale(1,-1)"
       style="font-variant:normal;font-weight:normal;font-size:18.025px;font-family:AvenirNextLTPro;-inkscape-font-specification:AvenirNextLTPro;writing-mode:lr-tb;fill:#000000;fill-opacity:1;fill-rule:nonzero;stroke:none"
       id="text6379"
       x="838.71997"
       y="-364.95001"><tspan
         x="838.71997 849.1745 853.7168 864.17133"
         y="-364.95001"
         sodipodi:role="line"
         id="tspan6377">1.3,</tspan></text><path
       d="m 212.63,379.12 c 0,4.15 0.55,7.5 1.24,7.5 h 24.88 c 0.69,0 1.25,3.36 1.25,7.5 0,-4.14 0.56,-7.5 1.25,-7.5 h 24.88 c 0.69,0 1.25,-3.35 1.25,-7.5"
       style="fill:none;stroke:#00bac8;stroke-width:0.5;stroke-linecap:butt;stroke-linejoin:miter;stroke-miterlimit:10;stroke-dasharray:none;stroke-opacity:1"
       id="path6389" /><text
       transform="scale(1,-1)"
       style="font-variant:normal;font-weight:normal;font-size:18.025px;font-family:AvenirNextLTPro;-inkscape-font-specification:AvenirNextLTPro;writing-mode:lr-tb;fill:#00bac8;fill-opacity:1;fill-rule:nonzero;stroke:none"
       id="text6401"
       x="186"
       y="-402.07999"><tspan
         x="186 196.50858 201.05087 210.76636 222.05 230.30545 240.81403 252.09767 262.60626 267.11249 282.88437"
         y="-402.07999"
         sodipodi:role="line"
         id="tspan6399">elapsedTime</tspan></text><text
       transform="scale(1,-1)"
       style="font-variant:normal;font-weight:normal;font-size:18.025px;font-family:AvenirNextLTPro;-inkscape-font-specification:AvenirNextLTPro;writing-mode:lr-tb;fill:#000000;fill-opacity:1;fill-rule:nonzero;stroke:none"
       id="text6413"
       x="214.02"
       y="-364.95001"><tspan
         x="214.02 224.545 235.06999 245.595 256.12 266.64499"
         y="-364.95001"
         sodipodi:role="line"
         id="tspan6411">29802,</tspan></text><path
       d="m 468.38,378.37 c 0,4.77 0.64,8.63 1.43,8.63 h 177.13 c 0.79,0 1.44,3.86 1.44,8.62 0,-4.76 0.64,-8.62 1.43,-8.62 h 177.13 c 0.79,0 1.44,-3.86 1.44,-8.63"
       style="fill:none;stroke:#00bac8;stroke-width:0.5;stroke-linecap:butt;stroke-linejoin:miter;stroke-miterlimit:10;stroke-dasharray:none;stroke-opacity:1"
       id="path6423" /><text
       transform="scale(1,-1)"
       style="font-variant:normal;font-weight:normal;font-size:18.025px;font-family:AvenirNextLTPro;-inkscape-font-specification:AvenirNextLTPro;writing-mode:lr-tb;fill:#00bac8;fill-opacity:1;fill-rule:nonzero;stroke:none"
       id="text6435"
       x="608.75"
       y="-402.07999"><tspan
         x="608.75 619.24054 629.73108 637.96851 646.20593 650.71222 661.94177 672.41431 676.9386"
         y="-402.07999"
         sodipodi:role="line"
         id="tspan6433">SessionId</tspan></text><text
       transform="scale(1,-1)"
       style="font-variant:normal;font-weight:normal;font-size:18.025px;font-family:AvenirNextLTPro;-inkscape-font-specification:AvenirNextLTPro;writing-mode:lr-tb;fill:#000000;fill-opacity:1;fill-rule:nonzero;stroke:none"
       id="text6447"
       x="469.72"
       y="-364.95001"><tspan
         x="469.72 481.00366 491.51224 502.79587 513.30444 523.81305 535.09668 544.84821"
         y="-364.95001"
         sodipodi:role="line"
         id="tspan6445">d9d58da9</tspan></text><text
       transform="scale(1,-1)"
       style="font-variant:normal;font-weight:normal;font-size:18.025px;font-family:AvenirNextLTPro;-inkscape-font-specification:AvenirNextLTPro;writing-mode:lr-tb;fill:#000000;fill-opacity:1;fill-rule:nonzero;stroke:none"
       id="text6459"
       x="555.29999"
       y="-364.95001"><tspan
         x="555.29999"
         y="-364.95001"
         id="tspan6457">-</tspan></text><text
       transform="scale(1,-1)"
       style="font-variant:normal;font-weight:normal;font-size:18.025px;font-family:AvenirNextLTPro;-inkscape-font-specification:AvenirNextLTPro;writing-mode:lr-tb;fill:#000000;fill-opacity:1;fill-rule:nonzero;stroke:none"
       id="text6471"
       x="561.29999"
       y="-364.95001"><tspan
         x="561.29999 571.75452 583.05615 594.30377"
         y="-364.95001"
         sodipodi:role="line"
         id="tspan6469">9bdc</tspan></text><text
       transform="scale(1,-1)"
       style="font-variant:normal;font-weight:normal;font-size:18.025px;font-family:AvenirNextLTPro;-inkscape-font-specification:AvenirNextLTPro;writing-mode:lr-tb;fill:#000000;fill-opacity:1;fill-rule:nonzero;stroke:none"
       id="text6483"
       x="603.33002"
       y="-364.95001"><tspan
         x="603.33002"
         y="-364.95001"
         id="tspan6481">-</tspan></text><text
       transform="scale(1,-1)"
       style="font-variant:normal;font-weight:normal;font-size:18.025px;font-family:AvenirNextLTPro;-inkscape-font-specification:AvenirNextLTPro;writing-mode:lr-tb;fill:#000000;fill-opacity:1;fill-rule:nonzero;stroke:none"
       id="text6495"
       x="609.34998"
       y="-364.95001"><tspan
         x="609.34998 619.8045 630.33112 640.82166"
         y="-364.95001"
         sodipodi:role="line"
         id="tspan6493">41ea</tspan></text><text
       transform="scale(1,-1)"
       style="font-variant:normal;font-weight:normal;font-size:18.025px;font-family:AvenirNextLTPro;-inkscape-font-specification:AvenirNextLTPro;writing-mode:lr-tb;fill:#000000;fill-opacity:1;fill-rule:nonzero;stroke:none"
       id="text6507"
       x="650.63"
       y="-364.95001"><tspan
         x="650.63"
         y="-364.95001"
         id="tspan6505">-</tspan></text><text
       transform="scale(1,-1)"
       style="font-variant:normal;font-weight:normal;font-size:18.025px;font-family:AvenirNextLTPro;-inkscape-font-specification:AvenirNextLTPro;writing-mode:lr-tb;fill:#000000;fill-opacity:1;fill-rule:nonzero;stroke:none"
       id="text6519"
       x="656.63"
       y="-364.95001"><tspan
         x="656.63 667.08447 677.61108 682.85638"
         y="-364.95001"
         sodipodi:role="line"
         id="tspan6517">90fe</tspan></text><text
       transform="scale(1,-1)"
       style="font-variant:normal;font-weight:normal;font-size:18.025px;font-family:AvenirNextLTPro;-inkscape-font-specification:AvenirNextLTPro;writing-mode:lr-tb;fill:#000000;fill-opacity:1;fill-rule:nonzero;stroke:none"
       id="text6531"
       x="693.40002"
       y="-364.95001"><tspan
         x="693.40002"
         y="-364.95001"
         id="tspan6529">-</tspan></text><text
       transform="scale(1,-1)"
       style="font-variant:normal;font-weight:normal;font-size:18.025px;font-family:AvenirNextLTPro;-inkscape-font-specification:AvenirNextLTPro;writing-mode:lr-tb;fill:#000000;fill-opacity:1;fill-rule:nonzero;stroke:none"
       id="text6543"
       x="699.40002"
       y="-364.95001"><tspan
         x="699.40002 709.90857 718.92108 729.44769 739.95624 751.23993 762.52356 773.0321 783.54071 794.04926 804.55786 815.84149 826.3501"
         y="-364.95001"
         sodipodi:role="line"
         id="tspan6541">4c84db4635d9,</tspan></text><path
       d="m 53.625,379.12 c 0,4.15 0.56,7.5 1.25,7.5 H 125.5 c 0.69,0 1.25,3.36 1.25,7.5 0,-4.14 0.56,-7.5 1.25,-7.5 h 70.63 c 0.69,0 1.25,-3.35 1.25,-7.5"
       style="fill:none;stroke:#00bac8;stroke-width:0.5;stroke-linecap:butt;stroke-linejoin:miter;stroke-miterlimit:10;stroke-dasharray:none;stroke-opacity:1"
       id="path6553" /><text
       transform="scale(1,-1)"
       style="font-variant:normal;font-weight:normal;font-size:18.025px;font-family:AvenirNextLTPro;-inkscape-font-specification:AvenirNextLTPro;writing-mode:lr-tb;fill:#00bac8;fill-opacity:1;fill-rule:nonzero;stroke:none"
       id="text6565"
       x="106.87"
       y="-402.07999"><tspan
         x="106.87 115.90053 124.91302 136.19667"
         y="-402.07999"
         sodipodi:role="line"
         id="tspan6563">Type</tspan></text><text
       transform="scale(1,-1)"
       style="font-variant:normal;font-weight:normal;font-size:18.025px;font-family:AvenirNextLTPro;-inkscape-font-specification:AvenirNextLTPro;writing-mode:lr-tb;fill:#000000;fill-opacity:1;fill-rule:nonzero;stroke:none"
       id="text6577"
       x="55.5"
       y="-364.95001"><tspan
         x="55.5 60.006248 73.525002 82.537498 95.335251 105.84383 116.37042 125.38293 135.92755 146.45415 159.23387 174.26672 184.79332 197.57304"
         y="-364.95001"
         sodipodi:role="line"
         id="tspan6575">INJURY_RECORD,</tspan></text><path
       d="m 703.88,242.62 c 0,4.56 0.61,8.25 1.37,8.25 h 17.88 c 0.75,0 1.37,3.7 1.37,8.25 0,-4.55 0.62,-8.25 1.37,-8.25 h 17.88 c 0.76,0 1.38,-3.69 1.38,-8.25"
       style="fill:none;stroke:#00bac8;stroke-width:0.5;stroke-linecap:butt;stroke-linejoin:miter;stroke-miterlimit:10;stroke-dasharray:none;stroke-opacity:1"
       id="path6587" /><text
       transform="scale(1,-1)"
       style="font-variant:normal;font-weight:normal;font-size:18.025px;font-family:AvenirNextLTPro;-inkscape-font-specification:AvenirNextLTPro;writing-mode:lr-tb;fill:#00bac8;fill-opacity:1;fill-rule:nonzero;stroke:none"
       id="text6599"
       x="674.27002"
       y="-265.13"><tspan
         x="674.27002 685.51758 696.74719 707.99475 716.97125 727.4798 737.97034 749.21796 753.72418 764.9538"
         y="-265.13"
         sodipodi:role="line"
         id="tspan6597">bodyRegion</tspan></text><text
       transform="scale(1,-1)"
       style="font-variant:normal;font-weight:normal;font-size:18.025px;font-family:AvenirNextLTPro;-inkscape-font-specification:AvenirNextLTPro;writing-mode:lr-tb;fill:#000000;fill-opacity:1;fill-rule:nonzero;stroke:none"
       id="text6611"
       x="703.91998"
       y="-229.64999"><tspan
         x="703.91998 714.42859 724.90112 734.63458 745.8822"
         y="-229.64999"
         sodipodi:role="line"
         id="tspan6609">head,</tspan></text><path
       d="m 491.63,244.12 c 0,3.94 0.53,7.13 1.18,7.13 h 20.88 c 0.65,0 1.19,3.19 1.19,7.12 0,-3.93 0.53,-7.12 1.18,-7.12 h 20.88 c 0.65,0 1.19,-3.19 1.19,-7.13"
       style="fill:none;stroke:#00bac8;stroke-width:0.5;stroke-linecap:butt;stroke-linejoin:miter;stroke-miterlimit:10;stroke-dasharray:none;stroke-opacity:1"
       id="path6621" /><text
       transform="scale(1,-1)"
       style="font-variant:normal;font-weight:normal;font-size:18.025px;font-family:AvenirNextLTPro;-inkscape-font-specification:AvenirNextLTPro;writing-mode:lr-tb;fill:#00bac8;fill-opacity:1;fill-rule:nonzero;stroke:none"
       id="text6633"
       x="437.17999"
       y="-265.13"><tspan
         x="437.17999 443.90332 454.39386 465.64148 476.11398 480.62024 487.37961 497.87018 509.11777 518.86932 525.59265 536.8222 545.83472 556.30725 567.55481 578.02734 584.04773"
         y="-265.13"
         sodipodi:role="line"
         id="tspan6631">requiredProcedure</tspan></text><text
       transform="scale(1,-1)"
       style="font-variant:normal;font-weight:normal;font-size:18.025px;font-family:AvenirNextLTPro;-inkscape-font-specification:AvenirNextLTPro;writing-mode:lr-tb;fill:#000000;fill-opacity:1;fill-rule:nonzero;stroke:none"
       id="text6645"
       x="493.45001"
       y="-229.64999"><tspan
         x="493.45001 503.92252 515.18817 525.66064 536.16925"
         y="-229.64999"
         sodipodi:role="line"
         id="tspan6643">none,</tspan></text><path
       d="m 619.88,241.87 c 0,5.18 0.69,9.38 1.56,9.38 h 11.87 c 0.87,0 1.57,4.2 1.57,9.37 0,-5.17 0.69,-9.37 1.56,-9.37 h 11.87 c 0.87,0 1.57,-4.2 1.57,-9.38"
       style="fill:none;stroke:#00bac8;stroke-width:0.5;stroke-linecap:butt;stroke-linejoin:miter;stroke-miterlimit:10;stroke-dasharray:none;stroke-opacity:1"
       id="path6655" /><text
       transform="scale(1,-1)"
       style="font-variant:normal;font-weight:normal;font-size:18.025px;font-family:AvenirNextLTPro;-inkscape-font-specification:AvenirNextLTPro;writing-mode:lr-tb;fill:#00bac8;fill-opacity:1;fill-rule:nonzero;stroke:none"
       id="text6667"
       x="601.38"
       y="-265.13"><tspan
         x="601.38 609.61743 620.10797 629.08441 639.57495 646.29828 650.80457 656.78888"
         y="-265.13"
         sodipodi:role="line"
         id="tspan6665">severity</tspan></text><text
       transform="scale(1,-1)"
       style="font-variant:normal;font-weight:normal;font-size:18.025px;font-family:AvenirNextLTPro;-inkscape-font-specification:AvenirNextLTPro;writing-mode:lr-tb;fill:#000000;fill-opacity:1;fill-rule:nonzero;stroke:none"
       id="text6679"
       x="620.59998"
       y="-229.64999"><tspan
         x="620.59998 625.14227 636.33582 649.07953"
         y="-229.64999"
         sodipodi:role="line"
         id="tspan6677">low,</tspan></text><path
       d="m 183.38,244.87 c 0,3.53 0.47,6.38 1.06,6.38 h 69.12 c 0.59,0 1.07,2.85 1.07,6.37 0,-3.52 0.47,-6.37 1.06,-6.37 h 69.12 c 0.59,0 1.07,-2.85 1.07,-6.38"
       style="fill:none;stroke:#00bac8;stroke-width:0.5;stroke-linecap:butt;stroke-linejoin:miter;stroke-miterlimit:10;stroke-dasharray:none;stroke-opacity:1"
       id="path6689" /><text
       transform="scale(1,-1)"
       style="font-variant:normal;font-weight:normal;font-size:18.025px;font-family:AvenirNextLTPro;-inkscape-font-specification:AvenirNextLTPro;writing-mode:lr-tb;fill:#00bac8;fill-opacity:1;fill-rule:nonzero;stroke:none"
       id="text6701"
       x="246.28"
       y="-265.13"><tspan
         x="246.28 250.7795"
         y="-265.13"
         sodipodi:role="line"
         id="tspan6699">Id</tspan></text><text
       transform="scale(1,-1)"
       style="font-variant:normal;font-weight:normal;font-size:18.025px;font-family:AvenirNextLTPro;-inkscape-font-specification:AvenirNextLTPro;writing-mode:lr-tb;fill:#000000;fill-opacity:1;fill-rule:nonzero;stroke:none"
       id="text6713"
       x="185.77"
       y="-229.64999"><tspan
         x="185.77 194.76448 205.99405 212.71738 223.20792 233.71649 244.18903 253.92253 265.17014 268.91931 279.40988 288.42236 295.14569 304.87921 316.1268 326.61734"
         y="-229.64999"
         sodipodi:role="line"
         id="tspan6711">Forehead Scrape,</tspan></text><path
       d="m 336.38,241.87 c 0,4.98 0.67,9.01 1.49,9.01 l 54.38,-0.01 c 0.83,0 1.5,4.03 1.5,9 0,-4.97 0.67,-9 1.5,-9 h 54.38 c 0.82,0 1.5,-4.02 1.5,-9"
       style="fill:none;stroke:#00bac8;stroke-width:0.5;stroke-linecap:butt;stroke-linejoin:miter;stroke-miterlimit:10;stroke-dasharray:none;stroke-opacity:1"
       id="path6723" /><text
       transform="scale(1,-1)"
       style="font-variant:normal;font-weight:normal;font-size:18.025px;font-family:AvenirNextLTPro;-inkscape-font-specification:AvenirNextLTPro;writing-mode:lr-tb;fill:#00bac8;fill-opacity:1;fill-rule:nonzero;stroke:none"
       id="text6735"
       x="356.25"
       y="-265.13"><tspan
         x="356.25 367.53366 377.28519 383.26947 387.77573 398.2843 408.75684 414.7952 419.30145"
         y="-265.13"
         sodipodi:role="line"
         id="tspan6733">patientId</tspan></text><text
       transform="scale(1,-1)"
       style="font-variant:normal;font-weight:normal;font-size:18.025px;font-family:AvenirNextLTPro;-inkscape-font-specification:AvenirNextLTPro;writing-mode:lr-tb;fill:#000000;fill-opacity:1;fill-rule:nonzero;stroke:none"
       id="text6747"
       x="338.25"
       y="-229.64999"><tspan
         x="338.25 352.50778 362.25931 369.01868 378.03119 387.04367 397.57028 408.07886 411.84607 422.37268 433.63831 444.90393 450.90625"
         y="-229.64999"
         sodipodi:role="line"
         id="tspan6745">Gary_16 Root,</tspan></text><path
       d="m 247.13,109.12 c 0,4.15 0.55,7.5 1.24,7.5 H 268 c 0.69,0 1.25,3.36 1.25,7.5 0,-4.14 0.56,-7.5 1.25,-7.5 h 19.63 c 0.69,0 1.25,-3.35 1.25,-7.5"
       style="fill:none;stroke:#00bac8;stroke-width:0.5;stroke-linecap:butt;stroke-linejoin:miter;stroke-miterlimit:10;stroke-dasharray:none;stroke-opacity:1"
       id="path6757" /><text
       transform="scale(1,-1)"
       style="font-variant:normal;font-weight:normal;font-size:18.025px;font-family:AvenirNextLTPro;-inkscape-font-specification:AvenirNextLTPro;writing-mode:lr-tb;fill:#00bac8;fill-opacity:1;fill-rule:nonzero;stroke:none"
       id="text6769"
       x="215.13"
       y="-130.67"><tspan
         x="215.13 219.63625 230.10878 234.63306 245.10558 251.86494 260.8414 269.83588 276.5592 287.04974 296.78326 302.76755 313.25809"
         y="-130.67"
         sodipodi:role="line"
         id="tspan6767">injuryTreated</tspan></text><text
       transform="scale(1,-1)"
       style="font-variant:normal;font-weight:normal;font-size:18.025px;font-family:AvenirNextLTPro;-inkscape-font-specification:AvenirNextLTPro;writing-mode:lr-tb;fill:#000000;fill-opacity:1;fill-rule:nonzero;stroke:none"
       id="text6781"
       x="247.58"
       y="-93.525002"><tspan
         x="247.58 256.57446 266.30798 270.85028 279.03363 289.52417"
         y="-93.525002"
         sodipodi:role="line"
         id="tspan6779">False,</tspan></text><path
       d="m 454.13,109.12 c 0,3.73 0.5,6.75 1.12,6.75 H 474 c 0.62,0 1.13,3.03 1.13,6.75 0,-3.72 0.5,-6.75 1.12,-6.75 H 495 c 0.62,0 1.13,-3.02 1.13,-6.75"
       style="fill:none;stroke:#00bac8;stroke-width:0.5;stroke-linecap:butt;stroke-linejoin:miter;stroke-miterlimit:10;stroke-dasharray:none;stroke-opacity:1"
       id="path6791" /><text
       transform="scale(1,-1)"
       style="font-variant:normal;font-weight:normal;font-size:18.025px;font-family:AvenirNextLTPro;-inkscape-font-specification:AvenirNextLTPro;writing-mode:lr-tb;fill:#00bac8;fill-opacity:1;fill-rule:nonzero;stroke:none"
       id="text6803"
       x="329.35001"
       y="-130.67"><tspan
         x="329.35001 333.85626 344.32877 348.85306 359.32556 366.08496 375.0614 384.05588 390.77921 401.26974 411.00327 416.98755 427.47809 438.72571 455.97565 460.48187 466.46619 476.97476 493.46762 500.19095 511.42053 521.89307 533.1767 541.43213 547.43445 557.92505 567.65851 572.90381 588.65765 599.14819 609.62073"
         y="-130.67"
         sodipodi:role="line"
         id="tspan6801">injuryTreatedWithWrongTreatment</tspan></text><text
       transform="scale(1,-1)"
       style="font-variant:normal;font-weight:normal;font-size:18.025px;font-family:AvenirNextLTPro;-inkscape-font-specification:AvenirNextLTPro;writing-mode:lr-tb;fill:#000000;fill-opacity:1;fill-rule:nonzero;stroke:none"
       id="text6815"
       x="454.76999"
       y="-93.525002"><tspan
         x="454.76999 463.76447 473.49799 478.04028 486.22363 496.71417"
         y="-93.525002"
         sodipodi:role="line"
         id="tspan6813">False,</tspan></text><path
       d="m 609.38,111.37 c 0,3.11 0.41,5.63 0.93,5.63 h 64.5 c 0.52,0 0.94,2.52 0.94,5.62 0,-3.1 0.42,-5.62 0.94,-5.62 h 64.5 c 0.52,0 0.94,-2.52 0.94,-5.63"
       style="fill:none;stroke:#00bac8;stroke-width:0.5;stroke-linecap:butt;stroke-linejoin:miter;stroke-miterlimit:10;stroke-dasharray:none;stroke-opacity:1"
       id="path6825" /><text
       transform="scale(1,-1)"
       style="font-variant:normal;font-weight:normal;font-size:18.025px;font-family:AvenirNextLTPro;-inkscape-font-specification:AvenirNextLTPro;writing-mode:lr-tb;fill:#00bac8;fill-opacity:1;fill-rule:nonzero;stroke:none"
       id="text6837"
       x="622.20001"
       y="-130.67"><tspan
         x="622.20001 626.70624 637.23285 641.75714 652.22968 659.04309 668.0556 677.08612 688.35175 697.36426 707.13379 713.13611 724.40173"
         y="-130.67"
         sodipodi:role="line"
         id="tspan6835">injuryLocator</tspan></text><text
       transform="scale(1,-1)"
       style="font-variant:normal;font-weight:normal;font-size:18.025px;font-family:AvenirNextLTPro;-inkscape-font-specification:AvenirNextLTPro;writing-mode:lr-tb;fill:#000000;fill-opacity:1;fill-rule:nonzero;stroke:none"
       id="text6849"
       x="610.63"
       y="-93.525002"><tspan
         x="610.63 618.11035 623.35565 633.81012 638.35248 648.80695 652.61023 657.11646 667.57098 672.11328 682.56775 686.37103 691.59833 702.0528 712.57941 717.08563 727.54016 732.83948 740.31989"
         y="-93.525002"
         sodipodi:role="line"
         id="tspan6847">&quot;(2.0, 1.6, 11.9)&quot;,</tspan></text></g></svg>
