<?xml version="1.0" encoding="UTF-8" standalone="no"?>
<svg
   xmlns:dc="http://purl.org/dc/elements/1.1/"
   xmlns:cc="http://creativecommons.org/ns#"
   xmlns:rdf="http://www.w3.org/1999/02/22-rdf-syntax-ns#"
   xmlns:svg="http://www.w3.org/2000/svg"
   xmlns="http://www.w3.org/2000/svg"
   xmlns:sodipodi="http://sodipodi.sourceforge.net/DTD/sodipodi-0.dtd"
   xmlns:inkscape="http://www.inkscape.org/namespaces/inkscape"
   version="1.1"
   id="svg4438"
   xml:space="preserve"
   width="1280"
   height="720"
   viewBox="0 0 1280 720"
   sodipodi:docname="frvrs_data_and_analysis_presentation_for_itm_slide024.svg"
   inkscape:version="1.0.2-2 (e86c870879, 2021-01-15)"
   inkscape:export-filename="C:\Users\DaveBabbitt\Documents\GitHub\itm-analysis-reporting\saves\png\frvrs_data_and_analysis_presentation_for_itm\slide024.png"
   inkscape:export-xdpi="96"
   inkscape:export-ydpi="96"><metadata
     id="metadata4444"><rdf:RDF><cc:Work
         rdf:about=""><dc:format>image/svg+xml</dc:format><dc:type
           rdf:resource="http://purl.org/dc/dcmitype/StillImage" /><dc:title></dc:title></cc:Work></rdf:RDF></metadata><defs
     id="defs4442"><clipPath
       clipPathUnits="userSpaceOnUse"
       id="clipPath4454"><path
         d="M 0,1.2207e-4 H 960 V 540.00012 H 0 Z"
         clip-rule="evenodd"
         id="path4452" /></clipPath><clipPath
       clipPathUnits="userSpaceOnUse"
       id="clipPath4464"><path
         d="M 0,1.2207e-4 H 960 V 540.00012 H 0 Z"
         clip-rule="evenodd"
         id="path4462" /></clipPath><linearGradient
       x1="73.199997"
       y1="455.88"
       x2="1718.7"
       y2="455.88"
       gradientUnits="userSpaceOnUse"
       spreadMethod="pad"
       id="linearGradient4474"><stop
         style="stop-opacity:1;stop-color:#00bac8"
         offset="0"
         id="stop4470" /><stop
         style="stop-opacity:1;stop-color:#00bac8"
         offset="1"
         id="stop4472" /></linearGradient><clipPath
       clipPathUnits="userSpaceOnUse"
       id="clipPath4484"><path
         d="M 72.75,435.75 H 897 v 37.5 H 72.75 Z"
         clip-rule="evenodd"
         id="path4482" /></clipPath><clipPath
       clipPathUnits="userSpaceOnUse"
       id="clipPath4496"><path
         d="M 1.2207e-4,540 H 960 V 1.8311e-4 L 1.8311e-4,1.2207e-4"
         clip-rule="evenodd"
         id="path4494" /></clipPath><clipPath
       clipPathUnits="userSpaceOnUse"
       id="clipPath4506"><path
         d="M 1.4305e-5,0 H 960.00001 V 540 H 1.4305e-5 Z"
         clip-rule="evenodd"
         id="path4504" /></clipPath><clipPath
       clipPathUnits="userSpaceOnUse"
       id="clipPath4518"><path
         d="M 1.4305e-5,0 H 960.00001 V 540 H 1.4305e-5 Z"
         clip-rule="evenodd"
         id="path4516" /></clipPath><clipPath
       clipPathUnits="userSpaceOnUse"
       id="clipPath4530"><path
         d="M 4.5776e-5,540 H 960 V 1.8311e-4 L 6.1035e-5,1.2207e-4"
         clip-rule="evenodd"
         id="path4528" /></clipPath><clipPath
       clipPathUnits="userSpaceOnUse"
       id="clipPath4540"><path
         d="M 1.4305e-5,0 H 960.00001 V 540 H 1.4305e-5 Z"
         clip-rule="evenodd"
         id="path4538" /></clipPath><clipPath
       clipPathUnits="userSpaceOnUse"
       id="clipPath4552"><path
         d="M 1.4305e-5,0 H 960.00001 V 540 H 1.4305e-5 Z"
         clip-rule="evenodd"
         id="path4550" /></clipPath><clipPath
       clipPathUnits="userSpaceOnUse"
       id="clipPath4564"><path
         d="M 3.0518e-5,540 H 960 V 1.8311e-4 L 6.1035e-5,1.2207e-4"
         clip-rule="evenodd"
         id="path4562" /></clipPath><clipPath
       clipPathUnits="userSpaceOnUse"
       id="clipPath4574"><path
         d="M 1.4305e-5,0 H 960.00001 V 540 H 1.4305e-5 Z"
         clip-rule="evenodd"
         id="path4572" /></clipPath><clipPath
       clipPathUnits="userSpaceOnUse"
       id="clipPath4586"><path
         d="M 1.4305e-5,0 H 960.00001 V 540 H 1.4305e-5 Z"
         clip-rule="evenodd"
         id="path4584" /></clipPath><clipPath
       clipPathUnits="userSpaceOnUse"
       id="clipPath4598"><path
         d="M 6.1035e-5,540 H 960 V 2.4414e-4 L 9.1553e-5,1.8311e-4"
         clip-rule="evenodd"
         id="path4596" /></clipPath><clipPath
       clipPathUnits="userSpaceOnUse"
       id="clipPath4608"><path
         d="M 1.4305e-5,0 H 960.00001 V 540 H 1.4305e-5 Z"
         clip-rule="evenodd"
         id="path4606" /></clipPath><clipPath
       clipPathUnits="userSpaceOnUse"
       id="clipPath4620"><path
         d="M 1.4305e-5,0 H 960.00001 V 540 H 1.4305e-5 Z"
         clip-rule="evenodd"
         id="path4618" /></clipPath><clipPath
       clipPathUnits="userSpaceOnUse"
       id="clipPath4632"><path
         d="M 1.2207e-4,540 H 960 V 1.8311e-4 H 1.8311e-4"
         clip-rule="evenodd"
         id="path4630" /></clipPath><clipPath
       clipPathUnits="userSpaceOnUse"
       id="clipPath4642"><path
         d="M 1.4305e-5,0 H 960.00001 V 540 H 1.4305e-5 Z"
         clip-rule="evenodd"
         id="path4640" /></clipPath><clipPath
       clipPathUnits="userSpaceOnUse"
       id="clipPath4654"><path
         d="M 1.4305e-5,0 H 960.00001 V 540 H 1.4305e-5 Z"
         clip-rule="evenodd"
         id="path4652" /></clipPath><clipPath
       clipPathUnits="userSpaceOnUse"
       id="clipPath4666"><path
         d="M 1.4305e-5,0 H 960.00001 V 540 H 1.4305e-5 Z"
         clip-rule="evenodd"
         id="path4664" /></clipPath><clipPath
       clipPathUnits="userSpaceOnUse"
       id="clipPath4678"><path
         d="M 1.4305e-5,0 H 960.00001 V 540 H 1.4305e-5 Z"
         clip-rule="evenodd"
         id="path4676" /></clipPath><clipPath
       clipPathUnits="userSpaceOnUse"
       id="clipPath4690"><path
         d="M 1.4305e-5,0 H 960.00001 V 540 H 1.4305e-5 Z"
         clip-rule="evenodd"
         id="path4688" /></clipPath><clipPath
       clipPathUnits="userSpaceOnUse"
       id="clipPath4702"><path
         d="M 1.4305e-5,0 H 960.00001 V 540 H 1.4305e-5 Z"
         clip-rule="evenodd"
         id="path4700" /></clipPath><clipPath
       clipPathUnits="userSpaceOnUse"
       id="clipPath4714"><path
         d="M 1.4305e-5,0 H 960.00001 V 540 H 1.4305e-5 Z"
         clip-rule="evenodd"
         id="path4712" /></clipPath><clipPath
       clipPathUnits="userSpaceOnUse"
       id="clipPath4726"><path
         d="M 1.4305e-5,0 H 960.00001 V 540 H 1.4305e-5 Z"
         clip-rule="evenodd"
         id="path4724" /></clipPath><clipPath
       clipPathUnits="userSpaceOnUse"
       id="clipPath4738"><path
         d="M 1.4305e-5,0 H 960.00001 V 540 H 1.4305e-5 Z"
         clip-rule="evenodd"
         id="path4736" /></clipPath><clipPath
       clipPathUnits="userSpaceOnUse"
       id="clipPath4750"><path
         d="M 1.4305e-5,0 H 960.00001 V 540 H 1.4305e-5 Z"
         clip-rule="evenodd"
         id="path4748" /></clipPath><clipPath
       clipPathUnits="userSpaceOnUse"
       id="clipPath4762"><path
         d="M 6.1035e-5,540 H 960 V 1.8311e-4 L 1.2207e-4,1.2207e-4"
         clip-rule="evenodd"
         id="path4760" /></clipPath><clipPath
       clipPathUnits="userSpaceOnUse"
       id="clipPath4772"><path
         d="M 1.4305e-5,0 H 960.00001 V 540 H 1.4305e-5 Z"
         clip-rule="evenodd"
         id="path4770" /></clipPath><clipPath
       clipPathUnits="userSpaceOnUse"
       id="clipPath4784"><path
         d="M 1.4305e-5,0 H 960.00001 V 540 H 1.4305e-5 Z"
         clip-rule="evenodd"
         id="path4782" /></clipPath><clipPath
       clipPathUnits="userSpaceOnUse"
       id="clipPath4796"><path
         d="M 1.5259e-4,540 H 960 V 1.8311e-4 L 1.8311e-4,1.2207e-4"
         clip-rule="evenodd"
         id="path4794" /></clipPath><clipPath
       clipPathUnits="userSpaceOnUse"
       id="clipPath4806"><path
         d="M 1.4305e-5,0 H 960.00001 V 540 H 1.4305e-5 Z"
         clip-rule="evenodd"
         id="path4804" /></clipPath><clipPath
       clipPathUnits="userSpaceOnUse"
       id="clipPath4818"><path
         d="M 1.4305e-5,0 H 960.00001 V 540 H 1.4305e-5 Z"
         clip-rule="evenodd"
         id="path4816" /></clipPath></defs><sodipodi:namedview
     pagecolor="#ffffff"
     bordercolor="#666666"
     borderopacity="1"
     objecttolerance="10"
     gridtolerance="10"
     guidetolerance="10"
     inkscape:pageopacity="0"
     inkscape:pageshadow="2"
     inkscape:window-width="1920"
     inkscape:window-height="1121"
     id="namedview4440"
     showgrid="false"
     inkscape:zoom="1.071875"
     inkscape:cx="640"
     inkscape:cy="360"
     inkscape:window-x="-9"
     inkscape:window-y="611"
     inkscape:window-maximized="1"
     inkscape:current-layer="g4446" /><g
     id="g4446"
     inkscape:groupmode="layer"
     inkscape:label="FRVRS - Data and Analysis Presentation for ITM"
     transform="matrix(1.3333333,0,0,-1.3333333,0,720)"><path
       d="M 0,6.1035e-5 H 960 V 540.00006 H 0 Z"
       style="fill:#ffffff;fill-opacity:1;fill-rule:evenodd;stroke:none"
       id="path4456" /><path
       d="M 0,6.1035e-5 H 960 V 540.00006 H 0 Z"
       style="fill:#ffffff;fill-opacity:1;fill-rule:evenodd;stroke:none"
       id="path4466" /><path
       d="m 607.68,457.43 c -1.22,0 -2.21,-0.46 -2.99,-1.38 -0.64,-0.74 -0.95,-1.59 -0.95,-2.55 0,-0.95 0.31,-1.8 0.95,-2.54 0.76,-0.92 1.76,-1.38 2.99,-1.38 1.1,0 2.03,0.38 2.8,1.14 0.76,0.75 1.14,1.68 1.14,2.78 0,1.09 -0.38,2.02 -1.15,2.78 -0.77,0.76 -1.7,1.15 -2.79,1.15 z m -45,0 c -1.22,0 -2.21,-0.46 -2.99,-1.38 -0.64,-0.74 -0.95,-1.59 -0.95,-2.55 0,-0.95 0.31,-1.8 0.95,-2.54 0.76,-0.92 1.76,-1.38 2.99,-1.38 1.1,0 2.03,0.38 2.8,1.14 0.76,0.75 1.14,1.68 1.14,2.78 0,1.09 -0.38,2.02 -1.15,2.78 -0.77,0.76 -1.7,1.15 -2.79,1.15 z m -149.25,0 c -1.22,0 -2.21,-0.46 -2.99,-1.38 -0.64,-0.74 -0.95,-1.59 -0.95,-2.55 0,-0.95 0.31,-1.8 0.95,-2.54 0.76,-0.92 1.76,-1.38 2.99,-1.38 1.1,0 2.03,0.38 2.8,1.14 0.76,0.75 1.14,1.68 1.14,2.78 0,1.09 -0.38,2.02 -1.15,2.78 -0.77,0.76 -1.7,1.15 -2.79,1.15 z m 218.51,0.01 c -1.09,0 -2.02,-0.38 -2.79,-1.15 -0.77,-0.76 -1.15,-1.7 -1.15,-2.8 0,-1.09 0.38,-2.03 1.15,-2.79 0.77,-0.77 1.7,-1.16 2.79,-1.16 1.23,0 2.22,0.47 2.99,1.39 0.64,0.76 0.95,1.62 0.95,2.56 0,0.97 -0.31,1.82 -0.95,2.57 -0.78,0.92 -1.78,1.38 -2.99,1.38 z m 126.6,0.1 c -1.26,0 -2.29,-0.48 -3.09,-1.43 -0.64,-0.76 -0.96,-1.63 -0.96,-2.61 0,-0.98 0.32,-1.86 0.96,-2.62 0.8,-0.95 1.83,-1.43 3.09,-1.43 1.13,0 2.08,0.39 2.86,1.17 0.78,0.79 1.18,1.75 1.18,2.88 0,1.13 -0.4,2.08 -1.19,2.87 -0.78,0.78 -1.73,1.17 -2.85,1.17 z m -298.5,0 c -1.26,0 -2.29,-0.48 -3.08,-1.43 -0.65,-0.76 -0.97,-1.63 -0.97,-2.61 0,-0.98 0.32,-1.86 0.97,-2.62 0.79,-0.95 1.82,-1.43 3.08,-1.43 1.13,0 2.08,0.39 2.86,1.17 0.78,0.79 1.18,1.75 1.18,2.88 0,1.13 -0.4,2.08 -1.19,2.87 -0.78,0.78 -1.73,1.17 -2.85,1.17 z m -120,0 c -1.26,0 -2.29,-0.48 -3.09,-1.43 -0.64,-0.76 -0.96,-1.63 -0.96,-2.61 0,-0.98 0.32,-1.86 0.96,-2.62 0.8,-0.95 1.83,-1.43 3.09,-1.43 1.13,0 2.08,0.39 2.86,1.17 0.78,0.79 1.18,1.75 1.18,2.88 0,1.13 -0.4,2.08 -1.19,2.87 -0.78,0.78 -1.73,1.17 -2.85,1.17 z m -141,0 c -1.26,0 -2.29,-0.48 -3.08,-1.43 -0.65,-0.76 -0.97,-1.63 -0.97,-2.61 0,-0.98 0.32,-1.86 0.97,-2.62 0.79,-0.95 1.82,-1.43 3.08,-1.43 1.13,0 2.08,0.39 2.86,1.17 0.78,0.79 1.18,1.75 1.18,2.88 0,1.13 -0.4,2.08 -1.19,2.87 -0.78,0.78 -1.73,1.17 -2.85,1.17 z m -72,0 c -1.26,0 -2.29,-0.48 -3.08,-1.43 -0.65,-0.76 -0.97,-1.63 -0.97,-2.61 0,-0.98 0.32,-1.86 0.97,-2.62 0.79,-0.95 1.82,-1.43 3.08,-1.43 1.13,0 2.08,0.39 2.86,1.17 0.78,0.79 1.18,1.75 1.18,2.88 0,1.13 -0.4,2.08 -1.19,2.87 -0.78,0.78 -1.73,1.17 -2.85,1.17 z m -24,0 c -1.26,0 -2.29,-0.48 -3.085,-1.43 -0.645,-0.76 -0.967,-1.63 -0.967,-2.61 0,-0.98 0.322,-1.86 0.967,-2.62 0.795,-0.95 1.825,-1.43 3.085,-1.43 1.13,0 2.08,0.39 2.86,1.17 0.78,0.79 1.18,1.75 1.18,2.88 0,1.13 -0.4,2.08 -1.19,2.87 -0.78,0.78 -1.73,1.17 -2.85,1.17 z m 679.39,0.07 c -1.23,0 -2.23,-0.47 -3.01,-1.42 -0.62,-0.76 -0.93,-1.63 -0.93,-2.63 0,-1.11 0.38,-2.06 1.14,-2.85 0.76,-0.79 1.7,-1.18 2.8,-1.18 1.09,0 2.02,0.39 2.78,1.18 0.76,0.79 1.14,1.74 1.14,2.85 0,1.11 -0.38,2.06 -1.13,2.86 -0.76,0.79 -1.69,1.19 -2.79,1.19 z m -116.7,1.18 c -1.04,0 -1.88,-0.31 -2.53,-0.93 -0.5,-0.5 -0.83,-1.17 -0.96,-2 h 6.96 c -0.43,1.95 -1.59,2.93 -3.47,2.93 z m -421.5,0 c -1.04,0 -1.88,-0.31 -2.53,-0.93 -0.5,-0.5 -0.83,-1.17 -0.96,-2 h 6.96 c -0.43,1.95 -1.59,2.93 -3.47,2.93 z m 629.22,3.38 h 7.12 l 4.63,-8.89 4.5,8.89 h 7.02 l -13.91,-26 h -6.88 l 5.89,11.04 z m -186.18,0 h 6.15 v -17.33 h -6.15 z m -110.25,0 h 6.15 v -17.33 h -6.15 z m -47.82,0 h 6.89 l 4.15,-8.89 4.16,8.89 h 6.86 l -9.02,-17.33 h -4.09 z m -88.68,0 h 6.15 v -17.33 h -6.15 z m -229.32,0 h 6.89 l 4.15,-8.89 4.16,8.89 h 6.86 l -9.02,-17.33 h -4.09 z m 660.4,0.24 c 0.32,0 0.72,-0.02 1.19,-0.05 v -5.83 c -0.86,0.41 -1.73,0.62 -2.61,0.62 -2.01,0 -3.31,-0.83 -3.91,-2.49 -0.22,-0.6 -0.33,-1.4 -0.33,-2.41 v -7.41 h -6.15 v 17.33 h 6.15 v -2.84 c 0.64,1.01 1.34,1.74 2.08,2.19 1.01,0.59 2.2,0.89 3.58,0.89 z m -505.5,0 c 0.32,0 0.72,-0.02 1.19,-0.05 v -5.83 c -0.86,0.41 -1.73,0.62 -2.61,0.62 -2.01,0 -3.31,-0.83 -3.91,-2.49 -0.22,-0.6 -0.33,-1.4 -0.33,-2.41 v -7.41 h -6.15 v 17.33 h 6.15 v -2.84 c 0.64,1.01 1.34,1.74 2.08,2.19 1.01,0.59 2.2,0.89 3.58,0.89 z m -97.5,0 c 0.32,0 0.72,-0.02 1.19,-0.05 v -5.83 c -0.86,0.41 -1.73,0.62 -2.61,0.62 -2.01,0 -3.31,-0.83 -3.91,-2.49 -0.22,-0.6 -0.33,-1.4 -0.33,-2.41 v -7.41 h -6.15 v 17.33 h 6.15 v -2.84 c 0.64,1.01 1.34,1.74 2.08,2.19 1.01,0.59 2.2,0.89 3.58,0.89 z m 247.23,0.04 -2.78,-8.12 h 5.53 z m -122.3,0.02 c 1.29,0 2.45,-0.31 3.46,-0.94 1.08,-0.68 1.79,-1.61 2.13,-2.78 0.2,-0.71 0.3,-1.59 0.3,-2.65 v -11.26 h -6.14 v 8.56 c 0,1.49 -0.16,2.51 -0.47,3.06 -0.46,0.8 -1.15,1.21 -2.07,1.21 -1.03,0 -1.81,-0.44 -2.36,-1.33 -0.38,-0.62 -0.58,-1.6 -0.58,-2.94 v -8.56 h -6.14 v 8.56 c 0,1.49 -0.13,2.46 -0.37,2.91 -0.5,0.89 -1.27,1.34 -2.3,1.34 -0.96,0 -1.71,-0.39 -2.24,-1.16 -0.2,-0.27 -0.35,-0.65 -0.43,-1.12 -0.09,-0.48 -0.13,-1.14 -0.13,-1.97 v -8.56 h -6.15 v 17.33 h 6.15 v -2.13 c 0.72,0.7 1.38,1.21 1.98,1.53 1.08,0.59 2.29,0.88 3.63,0.88 1.71,0 3.13,-0.44 4.26,-1.33 0.58,-0.44 1.13,-1.08 1.65,-1.9 0.47,0.77 1,1.38 1.59,1.83 1.23,0.95 2.64,1.42 4.23,1.42 z m 442.75,0.07 c 1.87,0 3.38,-0.5 4.55,-1.51 1.33,-1.15 2,-2.86 2,-5.15 v -11.04 h -6.15 v 8.76 c 0,1.53 -0.17,2.55 -0.52,3.04 -0.51,0.74 -1.27,1.1 -2.28,1.1 -0.93,0 -1.71,-0.31 -2.34,-0.94 -0.57,-0.57 -0.85,-1.47 -0.85,-2.68 v -9.28 h -6.15 v 17.33 h 6.15 v -2.19 c 0.7,0.83 1.36,1.41 1.95,1.74 0.97,0.55 2.19,0.82 3.64,0.82 z m -126.75,0 c 1.87,0 3.38,-0.5 4.55,-1.51 1.33,-1.15 2,-2.86 2,-5.15 v -11.04 h -6.15 v 8.76 c 0,1.53 -0.17,2.55 -0.52,3.04 -0.51,0.74 -1.27,1.1 -2.28,1.1 -0.93,0 -1.71,-0.31 -2.34,-0.94 -0.57,-0.57 -0.85,-1.47 -0.85,-2.68 v -9.28 h -6.15 v 17.33 h 6.15 v -2.19 c 0.7,0.83 1.36,1.41 1.95,1.74 0.97,0.55 2.19,0.82 3.64,0.82 z m -223.5,0 c 1.87,0 3.38,-0.5 4.55,-1.51 1.33,-1.15 2,-2.86 2,-5.15 v -11.04 h -6.15 v 8.76 c 0,1.53 -0.17,2.55 -0.52,3.04 -0.51,0.74 -1.27,1.1 -2.28,1.1 -0.93,0 -1.71,-0.31 -2.34,-0.94 -0.57,-0.57 -0.85,-1.47 -0.85,-2.68 v -9.28 h -6.15 v 17.33 h 6.15 v -2.19 c 0.71,0.83 1.36,1.41 1.95,1.74 0.97,0.55 2.19,0.82 3.64,0.82 z m -180,0 c 1.87,0 3.38,-0.5 4.55,-1.51 1.33,-1.15 2,-2.86 2,-5.15 v -11.04 h -6.15 v 8.76 c 0,1.53 -0.17,2.55 -0.52,3.04 -0.51,0.74 -1.27,1.1 -2.28,1.1 -0.93,0 -1.71,-0.31 -2.34,-0.94 -0.57,-0.57 -0.85,-1.47 -0.85,-2.68 v -9.28 h -6.15 v 17.33 h 6.15 v -2.19 c 0.7,0.83 1.36,1.41 1.95,1.74 0.97,0.55 2.19,0.82 3.64,0.82 z m 474.84,0.12 c 1.25,0 2.37,-0.26 3.35,-0.77 0.59,-0.31 1.2,-0.82 1.83,-1.53 v 1.81 h 6.15 v -16.14 c 0,-1.52 -0.11,-2.74 -0.32,-3.68 -0.34,-1.49 -1.21,-2.83 -2.62,-4.01 -1.78,-1.5 -4.14,-2.24 -7.09,-2.24 -3.09,0 -5.55,0.81 -7.38,2.44 -1.22,1.09 -2,2.22 -2.33,3.4 -0.04,0.13 -0.09,0.39 -0.15,0.79 h 6.87 c 0.2,-0.57 0.47,-0.98 0.8,-1.22 0.55,-0.41 1.25,-0.61 2.09,-0.61 1.42,0 2.51,0.5 3.27,1.51 0.48,0.63 0.71,1.53 0.71,2.71 v 1.64 c -0.73,-0.67 -1.35,-1.14 -1.84,-1.42 -1.04,-0.57 -2.25,-0.86 -3.66,-0.86 -1.77,0 -3.35,0.46 -4.74,1.37 -1.43,0.93 -2.45,2.21 -3.08,3.82 -0.42,1.1 -0.63,2.29 -0.63,3.57 0,2.84 0.9,5.15 2.71,6.93 1.67,1.66 3.69,2.49 6.06,2.49 z m -115.38,0 c 3.77,0 6.47,-1.38 8.08,-4.12 0.91,-1.55 1.37,-3.34 1.37,-5.39 v -0.79 h -12.87 c 0,-2.6 1.25,-3.9 3.75,-3.9 1.28,0 2.26,0.55 2.94,1.64 h 5.94 c -0.48,-1.56 -1.17,-2.77 -2.1,-3.63 -1.66,-1.55 -3.9,-2.32 -6.7,-2.32 -3.56,0 -6.24,1.08 -8.03,3.25 -1.35,1.62 -2.02,3.59 -2.02,5.92 0,2.76 0.84,5.01 2.52,6.74 1.68,1.73 4.05,2.6 7.12,2.6 z m -421.5,0 c 3.77,0 6.47,-1.38 8.09,-4.12 0.9,-1.55 1.36,-3.34 1.36,-5.39 v -0.79 h -12.87 c 0,-2.6 1.25,-3.9 3.75,-3.9 1.28,0 2.26,0.55 2.94,1.64 h 5.94 c -0.48,-1.56 -1.17,-2.77 -2.1,-3.63 -1.66,-1.55 -3.9,-2.32 -6.7,-2.32 -3.56,0 -6.24,1.08 -8.03,3.25 -1.35,1.62 -2.02,3.59 -2.02,5.92 0,2.76 0.84,5.01 2.52,6.74 1.68,1.73 4.05,2.6 7.12,2.6 z m 362.05,0.05 c 1.23,0 2.39,-0.25 3.47,-0.76 0.62,-0.3 1.26,-0.8 1.92,-1.48 v 1.7 h 6.15 v -17.33 h -6.15 v 1.92 c -0.58,-0.73 -1.17,-1.27 -1.77,-1.6 -1.04,-0.59 -2.23,-0.88 -3.56,-0.88 -2.15,0 -4.07,0.74 -5.75,2.22 -2,1.76 -3,4.1 -3,7.01 0,2.96 1.03,5.33 3.08,7.09 1.63,1.41 3.5,2.11 5.61,2.11 z m -45,0 c 1.23,0 2.39,-0.25 3.47,-0.76 0.62,-0.3 1.26,-0.8 1.92,-1.48 v 1.7 h 6.15 v -17.33 h -6.15 v 1.92 c -0.58,-0.73 -1.17,-1.27 -1.77,-1.6 -1.04,-0.59 -2.23,-0.88 -3.56,-0.88 -2.15,0 -4.07,0.74 -5.75,2.22 -2,1.76 -3,4.1 -3,7.01 0,2.96 1.03,5.33 3.08,7.09 1.63,1.41 3.5,2.11 5.61,2.11 z m -149.25,0 c 1.23,0 2.39,-0.25 3.47,-0.76 0.62,-0.3 1.26,-0.8 1.92,-1.48 v 1.7 h 6.15 v -17.33 h -6.15 v 1.92 c -0.58,-0.73 -1.17,-1.27 -1.77,-1.6 -1.04,-0.59 -2.23,-0.88 -3.56,-0.88 -2.15,0 -4.07,0.74 -5.75,2.22 -2,1.76 -3,4.1 -3,7.01 0,2.96 1.03,5.33 3.08,7.09 1.63,1.41 3.5,2.11 5.61,2.11 z m 346.94,0.09 c 3.27,0 5.89,-1.05 7.84,-3.15 1.6,-1.72 2.39,-3.77 2.39,-6.15 0,-2.4 -0.79,-4.46 -2.37,-6.18 -1.92,-2.09 -4.6,-3.14 -8.05,-3.14 -3.46,0 -6.15,1.05 -8.07,3.14 -1.58,1.72 -2.37,3.83 -2.37,6.33 0,2.26 0.8,4.26 2.39,6 1.93,2.1 4.68,3.15 8.24,3.15 z m -298.5,0 c 3.27,0 5.89,-1.05 7.84,-3.15 1.6,-1.72 2.39,-3.77 2.39,-6.15 0,-2.4 -0.79,-4.46 -2.37,-6.18 -1.92,-2.09 -4.6,-3.14 -8.05,-3.14 -3.46,0 -6.15,1.05 -8.07,3.14 -1.58,1.72 -2.37,3.83 -2.37,6.33 0,2.26 0.8,4.26 2.39,6 1.93,2.1 4.68,3.15 8.24,3.15 z m -120,0 c 3.27,0 5.89,-1.05 7.84,-3.15 1.6,-1.72 2.39,-3.77 2.39,-6.15 0,-2.4 -0.79,-4.46 -2.37,-6.18 -1.92,-2.09 -4.6,-3.14 -8.05,-3.14 -3.46,0 -6.15,1.05 -8.07,3.14 -1.58,1.72 -2.37,3.83 -2.37,6.33 0,2.26 0.8,4.26 2.39,6 1.93,2.1 4.68,3.15 8.24,3.15 z m -141,0 c 3.27,0 5.89,-1.05 7.84,-3.15 1.6,-1.72 2.39,-3.77 2.39,-6.15 0,-2.4 -0.79,-4.46 -2.37,-6.18 -1.92,-2.09 -4.6,-3.14 -8.05,-3.14 -3.46,0 -6.15,1.05 -8.07,3.14 -1.58,1.72 -2.37,3.83 -2.37,6.33 0,2.26 0.8,4.26 2.39,6 1.93,2.1 4.68,3.15 8.24,3.15 z m -72,0 c 3.27,0 5.89,-1.05 7.84,-3.15 1.6,-1.72 2.39,-3.77 2.39,-6.15 0,-2.4 -0.79,-4.46 -2.37,-6.18 -1.92,-2.09 -4.6,-3.14 -8.05,-3.14 -3.46,0 -6.15,1.05 -8.07,3.14 -1.58,1.72 -2.37,3.83 -2.37,6.33 0,2.26 0.8,4.26 2.39,6 1.93,2.1 4.68,3.15 8.24,3.15 z m -24,0 c 3.27,0 5.89,-1.05 7.84,-3.15 1.6,-1.72 2.39,-3.77 2.39,-6.15 0,-2.4 -0.79,-4.46 -2.37,-6.18 -1.92,-2.09 -4.6,-3.14 -8.05,-3.14 -3.46,0 -6.15,1.05 -8.067,3.14 -1.582,1.72 -2.372,3.83 -2.372,6.33 0,2.26 0.797,4.26 2.39,6 1.93,2.1 4.676,3.15 8.239,3.15 z m 744.52,4.58 h 6.15 v -5.21 h 3.49 v -5.02 h -3.49 v -12.31 h -6.15 v 12.31 h -2.02 v 5.02 h 2.02 z m -419.25,0 h 6.15 v -5.21 h 3.49 v -5.02 h -3.49 v -12.31 h -6.15 v 12.31 h -2.02 v 5.02 h 2.02 z m 377.87,2.95 h 14.51 V 464.8 H 813 v -4.35 h 7.45 v -5.53 H 813 v -4.55 h 7.88 v -5.53 h -14.51 z m -75,0 H 738 v -19.96 h 7.96 v -5.53 h -14.59 z m -219.1,0 h 7.22 l 9.6,-25.49 h -7.07 l -1.65,4.44 h -9.15 l -1.75,-4.44 h -7.01 z m -229.4,0 h 6.63 v -25.49 h -6.63 z m -121.5,0 H 168 v -9.84 h 9.56 v 9.84 h 6.63 v -25.49 h -6.63 v 10.61 H 168 v -10.61 h -6.63 z m -87.909,0 H 90.98 v -5.53 h -5.491 v -19.96 h -6.63 v 19.96 h -5.398 z m 616.889,1.93 c 0.95,0 1.76,-0.34 2.44,-1 0.67,-0.67 1,-1.48 1,-2.43 0,-0.97 -0.33,-1.79 -1,-2.45 -0.66,-0.67 -1.48,-1 -2.44,-1 -0.96,0 -1.77,0.34 -2.44,1.01 -0.66,0.67 -0.99,1.48 -0.99,2.44 0,0.95 0.33,1.76 0.99,2.43 0.67,0.66 1.48,1 2.44,1 z m -110.25,0 c 0.95,0 1.76,-0.34 2.44,-1 0.67,-0.67 1,-1.48 1,-2.43 0,-0.97 -0.33,-1.79 -1,-2.45 -0.66,-0.67 -1.48,-1 -2.44,-1 -0.96,0 -1.77,0.34 -2.44,1.01 -0.66,0.67 -0.99,1.48 -0.99,2.44 0,0.95 0.33,1.76 0.99,2.43 0.67,0.66 1.48,1 2.44,1 z m -136.5,0 c 0.95,0 1.77,-0.34 2.44,-1 0.67,-0.67 1,-1.48 1,-2.43 0,-0.97 -0.33,-1.79 -1,-2.45 -0.66,-0.67 -1.48,-1 -2.44,-1 -0.96,0 -1.77,0.34 -2.44,1.01 -0.66,0.67 -0.99,1.48 -0.99,2.44 0,0.95 0.33,1.76 0.99,2.43 0.67,0.66 1.48,1 2.44,1 z m 202.44,0.63 h 6.15 v -28.05 h -6.15 z m -24,0 h 6.15 v -12.44 c 0.66,0.69 1.3,1.18 1.92,1.48 1.08,0.52 2.24,0.78 3.47,0.78 2.11,0 3.98,-0.7 5.61,-2.11 2.05,-1.76 3.08,-4.13 3.08,-7.09 0,-2.91 -1,-5.25 -3,-7.01 -1.68,-1.48 -3.6,-2.22 -5.75,-2.22 -1.33,0 -2.52,0.29 -3.56,0.88 -0.64,0.34 -1.23,0.88 -1.77,1.6 v -1.92 h -6.15 z m -34.5,0 h 6.15 v -28.05 h -6.15 z m -446.25,0 h 6.15 v -28.05 h -6.15 z m 183.74,0.06 c 0.89,0 1.8,-0.21 2.71,-0.64 v -5.32 c -0.83,0.46 -1.55,0.69 -2.14,0.69 -0.83,0 -1.44,-0.32 -1.82,-0.96 -0.23,-0.36 -0.34,-1.25 -0.34,-2.68 v -1.87 h 4.3 v -5.04 h -4.3 v -12.29 h -6.14 v 12.29 h -2.19 v 5.04 h 2.19 v 2.3 c 0,2.55 0.64,4.52 1.94,5.9 1.6,1.72 3.53,2.58 5.79,2.58 z"
       style="fill:url(#linearGradient4474);fill-opacity:1;fill-rule:evenodd;stroke:none"
       id="path4476" /><text
       transform="scale(1,-1)"
       style="font-variant:normal;font-weight:bold;font-size:38.3px;font-family:Aharoni;-inkscape-font-specification:Aharoni-Bold;writing-mode:lr-tb;fill:#000000;fill-opacity:0;fill-rule:nonzero;stroke:none"
       id="text4488"
       x="73.25"
       y="-444.70001"><tspan
         x="73.25 91.289299 115.2651 139.24091 149.73511 158.7739 187.2691 211.2449 233.0376 254.83031 270.57159 280.3764 292.36432 314.84641 328.4046 352.3804 368.1217 401.90231 425.87811 438.63199 448.3985 472.3743 494.16699 502.43979 529.47961 551.27234 575.24811 585.74231 596.23651 620.21228 644.18811 654.68231 676.47498 685.51379 696.008 718.49011 729.09918 747.10022 771.07599 794.36243 804.12891 822.8576 845.33972 858.17023 873.9115"
         y="-444.70001"
         sodipodi:role="line"
         id="tspan4486">Tool Hover Information Available in Log Entry</tspan></text><path
       d="m 807.38,376.12 c 0,4.77 0.64,8.63 1.43,8.63 h 11 c 0.8,0 1.44,3.86 1.44,8.62 0,-4.76 0.64,-8.62 1.44,-8.62 h 11 c 0.79,0 1.44,-3.86 1.44,-8.63"
       style="fill:none;stroke:#00bac8;stroke-width:0.5;stroke-linecap:butt;stroke-linejoin:miter;stroke-miterlimit:10;stroke-dasharray:none;stroke-opacity:1"
       id="path4498" /><text
       transform="scale(1,-1)"
       style="font-variant:normal;font-weight:normal;font-size:18.025px;font-family:AvenirNextLTPro;-inkscape-font-specification:AvenirNextLTPro;writing-mode:lr-tb;fill:#00bac8;fill-opacity:1;fill-rule:nonzero;stroke:none"
       id="text4510"
       x="762.84998"
       y="-402.07999"><tspan
         x="762.84998 767.39227 778.58582 789.83344 801.08105 811.57159 818.29492 828.80347 839.29401 846.01733 854.25476 858.76105 869.25159"
         y="-402.07999"
         sodipodi:role="line"
         id="tspan4508">loggerVersion</tspan></text><text
       transform="scale(1,-1)"
       style="font-variant:normal;font-weight:normal;font-size:18.025px;font-family:AvenirNextLTPro;-inkscape-font-specification:AvenirNextLTPro;writing-mode:lr-tb;fill:#000000;fill-opacity:1;fill-rule:nonzero;stroke:none"
       id="text4522"
       x="808.5"
       y="-364.95001"><tspan
         x="808.5 818.95453 823.49683 833.95129"
         y="-364.95001"
         sodipodi:role="line"
         id="tspan4520">1.3,</tspan></text><path
       d="m 80.625,376.87 c 0,4.15 0.56,7.5 1.25,7.5 h 59.005 c 0.69,0 1.25,3.36 1.25,7.5 0,-4.14 0.55,-7.5 1.24,-7.5 h 59.01 c 0.69,0 1.25,-3.35 1.25,-7.5"
       style="fill:none;stroke:#00bac8;stroke-width:0.5;stroke-linecap:butt;stroke-linejoin:miter;stroke-miterlimit:10;stroke-dasharray:none;stroke-opacity:1"
       id="path4532" /><text
       transform="scale(1,-1)"
       style="font-variant:normal;font-weight:normal;font-size:18.025px;font-family:AvenirNextLTPro;-inkscape-font-specification:AvenirNextLTPro;writing-mode:lr-tb;fill:#00bac8;fill-opacity:1;fill-rule:nonzero;stroke:none"
       id="text4544"
       x="122.12"
       y="-402.07999"><tspan
         x="122.12 131.11447 140.09093 151.33853"
         y="-402.07999"
         sodipodi:role="line"
         id="tspan4542">Type</tspan></text><text
       transform="scale(1,-1)"
       style="font-variant:normal;font-weight:normal;font-size:18.025px;font-family:AvenirNextLTPro;-inkscape-font-specification:AvenirNextLTPro;writing-mode:lr-tb;fill:#000000;fill-opacity:1;fill-rule:nonzero;stroke:none"
       id="text4556"
       x="83.949997"
       y="-364.95001"><tspan
         x="83.949997 93.701523 108.69833 123.69512 132.68961 141.7021 154.44577 169.44258 180.67215 191.19875 201.70732"
         y="-364.95001"
         sodipodi:role="line"
         id="tspan4554">TOOL_HOVER,</tspan></text><path
       d="m 214.13,376.12 c 0,3.73 0.5,6.76 1.12,6.76 l 24,-0.01 c 0.62,0 1.13,3.03 1.13,6.75 0,-3.72 0.5,-6.75 1.12,-6.75 h 24 c 0.62,0 1.13,-3.02 1.13,-6.75"
       style="fill:none;stroke:#00bac8;stroke-width:0.5;stroke-linecap:butt;stroke-linejoin:miter;stroke-miterlimit:10;stroke-dasharray:none;stroke-opacity:1"
       id="path4566" /><text
       transform="scale(1,-1)"
       style="font-variant:normal;font-weight:normal;font-size:18.025px;font-family:AvenirNextLTPro;-inkscape-font-specification:AvenirNextLTPro;writing-mode:lr-tb;fill:#00bac8;fill-opacity:1;fill-rule:nonzero;stroke:none"
       id="text4578"
       x="186.10001"
       y="-402.07999"><tspan
         x="186.10001 196.59055 201.13284 210.83031 222.0779 230.31532 240.80588 252.05348 262.54404 267.05026 282.7861"
         y="-402.07999"
         sodipodi:role="line"
         id="tspan4576">elapsedTime</tspan></text><text
       transform="scale(1,-1)"
       style="font-variant:normal;font-weight:normal;font-size:18.025px;font-family:AvenirNextLTPro;-inkscape-font-specification:AvenirNextLTPro;writing-mode:lr-tb;fill:#000000;fill-opacity:1;fill-rule:nonzero;stroke:none"
       id="text4590"
       x="213.60001"
       y="-364.95001"><tspan
         x="213.60001 224.10001 234.60001 245.10001 255.60001 266.10001"
         y="-364.95001"
         sodipodi:role="line"
         id="tspan4588">96401,</tspan></text><path
       d="m 274.88,376.87 c 0,3.73 0.5,6.76 1.12,6.76 l 88.13,-0.01 c 0.62,0 1.12,3.03 1.12,6.75 0,-3.72 0.5,-6.75 1.12,-6.75 h 88.13 c 0.62,0 1.13,-3.02 1.13,-6.75"
       style="fill:none;stroke:#00bac8;stroke-width:0.5;stroke-linecap:butt;stroke-linejoin:miter;stroke-miterlimit:10;stroke-dasharray:none;stroke-opacity:1"
       id="path4600" /><text
       transform="scale(1,-1)"
       style="font-variant:normal;font-weight:normal;font-size:18.025px;font-family:AvenirNextLTPro;-inkscape-font-specification:AvenirNextLTPro;writing-mode:lr-tb;fill:#00bac8;fill-opacity:1;fill-rule:nonzero;stroke:none"
       id="text4612"
       x="318.48001"
       y="-402.07999"><tspan
         x="318.48001 328.97055 333.47681 349.21262 359.70319 367.94061 373.9249 383.65839 399.41226"
         y="-402.07999"
         sodipodi:role="line"
         id="tspan4610">Timestamp</tspan></text><text
       transform="scale(1,-1)"
       style="font-variant:normal;font-weight:normal;font-size:18.025px;font-family:AvenirNextLTPro;-inkscape-font-specification:AvenirNextLTPro;writing-mode:lr-tb;fill:#000000;fill-opacity:1;fill-rule:nonzero;stroke:none"
       id="text4624"
       x="277.10001"
       y="-364.95001"><tspan
         x="277.10001 287.5545 294.33191 304.78641 311.56381 322.01831 332.54489 342.99939 353.526 358.03226 368.48676 373.76807 384.22256 394.74918 399.99445 410.44894 420.97556 425.48181 435.93631 451.74423"
         y="-364.95001"
         sodipodi:role="line"
         id="tspan4622">9/7/2023 2:50:29 PM,</tspan></text><path
       d="m 464.63,373.12 c 0,5.6 0.75,10.13 1.68,10.13 h 163.88 c 0.93,0 1.69,4.53 1.69,10.12 0,-5.59 0.75,-10.12 1.68,-10.12 h 163.88 c 0.93,0 1.69,-4.53 1.69,-10.13"
       style="fill:none;stroke:#00bac8;stroke-width:0.5;stroke-linecap:butt;stroke-linejoin:miter;stroke-miterlimit:10;stroke-dasharray:none;stroke-opacity:1"
       id="path4634" /><text
       transform="scale(1,-1)"
       style="font-variant:normal;font-weight:normal;font-size:18.025px;font-family:AvenirNextLTPro;-inkscape-font-specification:AvenirNextLTPro;writing-mode:lr-tb;fill:#00bac8;fill-opacity:1;fill-rule:nonzero;stroke:none"
       id="text4646"
       x="591.45001"
       y="-402.07999"><tspan
         x="591.45001 601.94055 612.43109 620.66852 628.90594 633.41217 644.64178 655.11432 659.63855"
         y="-402.07999"
         sodipodi:role="line"
         id="tspan4644">SessionId</tspan></text><text
       transform="scale(1,-1)"
       style="font-variant:normal;font-weight:normal;font-size:18.025px;font-family:AvenirNextLTPro;-inkscape-font-specification:AvenirNextLTPro;writing-mode:lr-tb;fill:#000000;fill-opacity:1;fill-rule:nonzero;stroke:none"
       id="text4658"
       x="467.35001"
       y="-364.95001"><tspan
         x="467.35001 472.59528 483.84286 494.33344 504.78793 513.80042 524.30902 534.76349"
         y="-364.95001"
         sodipodi:role="line"
         id="tspan4656">fde2c201</tspan></text><text
       transform="scale(1,-1)"
       style="font-variant:normal;font-weight:normal;font-size:18.025px;font-family:AvenirNextLTPro;-inkscape-font-specification:AvenirNextLTPro;writing-mode:lr-tb;fill:#000000;fill-opacity:1;fill-rule:nonzero;stroke:none"
       id="text4670"
       x="545.40002"
       y="-364.95001"><tspan
         x="545.40002"
         y="-364.95001"
         id="tspan4668">-</tspan></text><text
       transform="scale(1,-1)"
       style="font-variant:normal;font-weight:normal;font-size:18.025px;font-family:AvenirNextLTPro;-inkscape-font-specification:AvenirNextLTPro;writing-mode:lr-tb;fill:#000000;fill-opacity:1;fill-rule:nonzero;stroke:none"
       id="text4682"
       x="551.41998"
       y="-364.95001"><tspan
         x="551.41998 561.87451 572.40112 577.64636"
         y="-364.95001"
         sodipodi:role="line"
         id="tspan4680">36fc</tspan></text><text
       transform="scale(1,-1)"
       style="font-variant:normal;font-weight:normal;font-size:18.025px;font-family:AvenirNextLTPro;-inkscape-font-specification:AvenirNextLTPro;writing-mode:lr-tb;fill:#000000;fill-opacity:1;fill-rule:nonzero;stroke:none"
       id="text4694"
       x="586.70001"
       y="-364.95001"><tspan
         x="586.70001"
         y="-364.95001"
         id="tspan4692">-</tspan></text><text
       transform="scale(1,-1)"
       style="font-variant:normal;font-weight:normal;font-size:18.025px;font-family:AvenirNextLTPro;-inkscape-font-specification:AvenirNextLTPro;writing-mode:lr-tb;fill:#000000;fill-opacity:1;fill-rule:nonzero;stroke:none"
       id="text4706"
       x="592.70001"
       y="-364.95001"><tspan
         x="592.70001 603.20001 613.70001 624.20001"
         y="-364.95001"
         sodipodi:role="line"
         id="tspan4704">4123</tspan></text><text
       transform="scale(1,-1)"
       style="font-variant:normal;font-weight:normal;font-size:18.025px;font-family:AvenirNextLTPro;-inkscape-font-specification:AvenirNextLTPro;writing-mode:lr-tb;fill:#000000;fill-opacity:1;fill-rule:nonzero;stroke:none"
       id="text4718"
       x="634.72998"
       y="-364.95001"><tspan
         x="634.72998"
         y="-364.95001"
         id="tspan4716">-</tspan></text><text
       transform="scale(1,-1)"
       style="font-variant:normal;font-weight:normal;font-size:18.025px;font-family:AvenirNextLTPro;-inkscape-font-specification:AvenirNextLTPro;writing-mode:lr-tb;fill:#000000;fill-opacity:1;fill-rule:nonzero;stroke:none"
       id="text4730"
       x="640.71997"
       y="-364.95001"><tspan
         x="640.71997 652.00366 657.32104 667.77551"
         y="-364.95001"
         sodipodi:role="line"
         id="tspan4728">bf42</tspan></text><text
       transform="scale(1,-1)"
       style="font-variant:normal;font-weight:normal;font-size:18.025px;font-family:AvenirNextLTPro;-inkscape-font-specification:AvenirNextLTPro;writing-mode:lr-tb;fill:#000000;fill-opacity:1;fill-rule:nonzero;stroke:none"
       id="text4742"
       x="678.28003"
       y="-364.95001"><tspan
         x="678.28003"
         y="-364.95001"
         id="tspan4740">-</tspan></text><text
       transform="scale(1,-1)"
       style="font-variant:normal;font-weight:normal;font-size:18.025px;font-family:AvenirNextLTPro;-inkscape-font-specification:AvenirNextLTPro;writing-mode:lr-tb;fill:#000000;fill-opacity:1;fill-rule:nonzero;stroke:none"
       id="text4754"
       x="684.28003"
       y="-364.95001"><tspan
         x="684.28003 689.52527 699.9798 711.28143 716.52673 721.77197 732.2265 743.5282 753.98267 764.50928 774.96381 785.49036 795.94489"
         y="-364.95001"
         sodipodi:role="line"
         id="tspan4752">f1bff1b24969,</tspan></text><path
       d="m 510.38,244.87 c 0,4.15 0.55,7.5 1.24,7.5 h 13.63 c 0.69,0 1.25,3.36 1.25,7.5 0,-4.14 0.56,-7.5 1.25,-7.5 h 13.63 c 0.69,0 1.25,-3.35 1.25,-7.5"
       style="fill:none;stroke:#00bac8;stroke-width:0.5;stroke-linecap:butt;stroke-linejoin:miter;stroke-miterlimit:10;stroke-dasharray:none;stroke-opacity:1"
       id="path4764" /><text
       transform="scale(1,-1)"
       style="font-variant:normal;font-weight:normal;font-size:18.025px;font-family:AvenirNextLTPro;-inkscape-font-specification:AvenirNextLTPro;writing-mode:lr-tb;fill:#00bac8;fill-opacity:1;fill-rule:nonzero;stroke:none"
       id="text4776"
       x="501.5"
       y="-265.13"><tspan
         x="501.5 514.24365 525.47327 535.9458 546.45435"
         y="-265.13"
         sodipodi:role="line"
         id="tspan4774">Count</tspan></text><text
       transform="scale(1,-1)"
       style="font-variant:normal;font-weight:normal;font-size:18.025px;font-family:AvenirNextLTPro;-inkscape-font-specification:AvenirNextLTPro;writing-mode:lr-tb;fill:#000000;fill-opacity:1;fill-rule:nonzero;stroke:none"
       id="text4788"
       x="511.01999"
       y="-230.5"><tspan
         x="511.01999 521.52002 532.02002 542.52002"
         y="-230.5"
         sodipodi:role="line"
         id="tspan4786">999,</tspan></text><path
       d="m 406.88,243.37 c 0,4.56 0.61,8.25 1.37,8.25 h 44.13 c 0.75,0 1.37,3.7 1.37,8.25 0,-4.55 0.62,-8.25 1.37,-8.25 h 44.13 c 0.76,0 1.38,-3.69 1.38,-8.25"
       style="fill:none;stroke:#00bac8;stroke-width:0.5;stroke-linecap:butt;stroke-linejoin:miter;stroke-miterlimit:10;stroke-dasharray:none;stroke-opacity:1"
       id="path4798" /><text
       transform="scale(1,-1)"
       style="font-variant:normal;font-weight:normal;font-size:18.025px;font-family:AvenirNextLTPro;-inkscape-font-specification:AvenirNextLTPro;writing-mode:lr-tb;fill:#00bac8;fill-opacity:1;fill-rule:nonzero;stroke:none"
       id="text4810"
       x="434.45001"
       y="-265.13"><tspan
         x="434.45001 443.44449 452.42093 463.66852"
         y="-265.13"
         sodipodi:role="line"
         id="tspan4808">Type</tspan></text><text
       transform="scale(1,-1)"
       style="font-variant:normal;font-weight:normal;font-size:18.025px;font-family:AvenirNextLTPro;-inkscape-font-specification:AvenirNextLTPro;writing-mode:lr-tb;fill:#000000;fill-opacity:1;fill-rule:nonzero;stroke:none"
       id="text4822"
       x="408.60001"
       y="-230.5"><tspan
         x="408.60001 417.59448 428.82404 439.29657 446.05594 456.52847 461.03473 472.30035 482.77289 493.28146 499.26575"
         y="-230.5"
         sodipodi:role="line"
         id="tspan4820">Tourniquet,</tspan></text></g></svg>
