<?xml version="1.0" encoding="UTF-8" standalone="no"?>
<svg
   xmlns:dc="http://purl.org/dc/elements/1.1/"
   xmlns:cc="http://creativecommons.org/ns#"
   xmlns:rdf="http://www.w3.org/1999/02/22-rdf-syntax-ns#"
   xmlns:svg="http://www.w3.org/2000/svg"
   xmlns="http://www.w3.org/2000/svg"
   xmlns:sodipodi="http://sodipodi.sourceforge.net/DTD/sodipodi-0.dtd"
   xmlns:inkscape="http://www.inkscape.org/namespaces/inkscape"
   version="1.1"
   id="svg12364"
   xml:space="preserve"
   width="1280"
   height="720"
   viewBox="0 0 1280 720"
   sodipodi:docname="frvrs_data_and_analysis_presentation_for_itm_slide033.svg"
   inkscape:version="1.0.2-2 (e86c870879, 2021-01-15)"
   inkscape:export-filename="C:\Users\DaveBabbitt\Documents\GitHub\itm-analysis-reporting\saves\png\frvrs_data_and_analysis_presentation_for_itm\slide033.png"
   inkscape:export-xdpi="96"
   inkscape:export-ydpi="96"><metadata
     id="metadata12370"><rdf:RDF><cc:Work
         rdf:about=""><dc:format>image/svg+xml</dc:format><dc:type
           rdf:resource="http://purl.org/dc/dcmitype/StillImage" /><dc:title></dc:title></cc:Work></rdf:RDF></metadata><defs
     id="defs12368"><clipPath
       clipPathUnits="userSpaceOnUse"
       id="clipPath12380"><path
         d="M 0,1.2207e-4 H 960 V 540.00012 H 0 Z"
         clip-rule="evenodd"
         id="path12378" /></clipPath><linearGradient
       x1="73.199997"
       y1="487.70001"
       x2="550.20001"
       y2="487.70001"
       gradientUnits="userSpaceOnUse"
       spreadMethod="pad"
       id="linearGradient12390"><stop
         style="stop-opacity:1;stop-color:#00bac8"
         offset="0"
         id="stop12386" /><stop
         style="stop-opacity:1;stop-color:#203040"
         offset="1"
         id="stop12388" /></linearGradient><clipPath
       clipPathUnits="userSpaceOnUse"
       id="clipPath12400"><path
         d="m 76.5,472.5 h 72.75 v 33.75 H 76.5 Z"
         clip-rule="evenodd"
         id="path12398" /></clipPath><linearGradient
       x1="73.199997"
       y1="487.70001"
       x2="550.20001"
       y2="487.70001"
       gradientUnits="userSpaceOnUse"
       spreadMethod="pad"
       id="linearGradient12412"><stop
         style="stop-opacity:1;stop-color:#00bac8"
         offset="0"
         id="stop12408" /><stop
         style="stop-opacity:1;stop-color:#203040"
         offset="1"
         id="stop12410" /></linearGradient><clipPath
       clipPathUnits="userSpaceOnUse"
       id="clipPath12422"><path
         d="m 152.25,481.5 h 11.25 v 6 h -11.25 z"
         clip-rule="evenodd"
         id="path12420" /></clipPath><linearGradient
       x1="73.199997"
       y1="487.70001"
       x2="550.20001"
       y2="487.70001"
       gradientUnits="userSpaceOnUse"
       spreadMethod="pad"
       id="linearGradient12434"><stop
         style="stop-opacity:1;stop-color:#00bac8"
         offset="0"
         id="stop12430" /><stop
         style="stop-opacity:1;stop-color:#203040"
         offset="1"
         id="stop12432" /></linearGradient><clipPath
       clipPathUnits="userSpaceOnUse"
       id="clipPath12444"><path
         d="m 168,462 h 380.25 v 47.25 H 168 Z"
         clip-rule="evenodd"
         id="path12442" /></clipPath><clipPath
       clipPathUnits="userSpaceOnUse"
       id="clipPath12456"><path
         d="M 1.4305e-5,0 H 960.00001 V 540 H 1.4305e-5 Z"
         clip-rule="evenodd"
         id="path12454" /></clipPath><clipPath
       clipPathUnits="userSpaceOnUse"
       id="clipPath12468"><path
         d="M 1.4305e-5,0 H 960.00001 V 540 H 1.4305e-5 Z"
         clip-rule="evenodd"
         id="path12466" /></clipPath><clipPath
       clipPathUnits="userSpaceOnUse"
       id="clipPath12480"><path
         d="M 1.4305e-5,0 H 960.00001 V 540 H 1.4305e-5 Z"
         clip-rule="evenodd"
         id="path12478" /></clipPath><clipPath
       clipPathUnits="userSpaceOnUse"
       id="clipPath12492"><path
         d="M 1.4305e-5,0 H 960.00001 V 540 H 1.4305e-5 Z"
         clip-rule="evenodd"
         id="path12490" /></clipPath><clipPath
       clipPathUnits="userSpaceOnUse"
       id="clipPath12504"><path
         d="M 1.4305e-5,0 H 960.00001 V 540 H 1.4305e-5 Z"
         clip-rule="evenodd"
         id="path12502" /></clipPath><clipPath
       clipPathUnits="userSpaceOnUse"
       id="clipPath12516"><path
         d="M 1.4305e-5,0 H 960.00001 V 540 H 1.4305e-5 Z"
         clip-rule="evenodd"
         id="path12514" /></clipPath><clipPath
       clipPathUnits="userSpaceOnUse"
       id="clipPath12528"><path
         d="M 1.4305e-5,0 H 960.00001 V 540 H 1.4305e-5 Z"
         clip-rule="evenodd"
         id="path12526" /></clipPath><clipPath
       clipPathUnits="userSpaceOnUse"
       id="clipPath12540"><path
         d="M 1.4305e-5,0 H 960.00001 V 540 H 1.4305e-5 Z"
         clip-rule="evenodd"
         id="path12538" /></clipPath><clipPath
       clipPathUnits="userSpaceOnUse"
       id="clipPath12552"><path
         d="M 1.4305e-5,0 H 960.00001 V 540 H 1.4305e-5 Z"
         clip-rule="evenodd"
         id="path12550" /></clipPath><clipPath
       clipPathUnits="userSpaceOnUse"
       id="clipPath12564"><path
         d="M 1.4305e-5,0 H 960.00001 V 540 H 1.4305e-5 Z"
         clip-rule="evenodd"
         id="path12562" /></clipPath><clipPath
       clipPathUnits="userSpaceOnUse"
       id="clipPath12576"><path
         d="M 1.4305e-5,0 H 960.00001 V 540 H 1.4305e-5 Z"
         clip-rule="evenodd"
         id="path12574" /></clipPath><clipPath
       clipPathUnits="userSpaceOnUse"
       id="clipPath12588"><path
         d="M 1.4305e-5,0 H 960.00001 V 540 H 1.4305e-5 Z"
         clip-rule="evenodd"
         id="path12586" /></clipPath><clipPath
       clipPathUnits="userSpaceOnUse"
       id="clipPath12600"><path
         d="M 1.4305e-5,0 H 960.00001 V 540 H 1.4305e-5 Z"
         clip-rule="evenodd"
         id="path12598" /></clipPath><clipPath
       clipPathUnits="userSpaceOnUse"
       id="clipPath12612"><path
         d="M 1.4305e-5,0 H 960.00001 V 540 H 1.4305e-5 Z"
         clip-rule="evenodd"
         id="path12610" /></clipPath><clipPath
       clipPathUnits="userSpaceOnUse"
       id="clipPath12624"><path
         d="M 1.4305e-5,0 H 960.00001 V 540 H 1.4305e-5 Z"
         clip-rule="evenodd"
         id="path12622" /></clipPath><clipPath
       clipPathUnits="userSpaceOnUse"
       id="clipPath12636"><path
         d="M 1.4305e-5,0 H 960.00001 V 540 H 1.4305e-5 Z"
         clip-rule="evenodd"
         id="path12634" /></clipPath><clipPath
       clipPathUnits="userSpaceOnUse"
       id="clipPath12648"><path
         d="M 1.4305e-5,0 H 960.00001 V 540 H 1.4305e-5 Z"
         clip-rule="evenodd"
         id="path12646" /></clipPath><clipPath
       clipPathUnits="userSpaceOnUse"
       id="clipPath12660"><path
         d="M 1.4305e-5,0 H 960.00001 V 540 H 1.4305e-5 Z"
         clip-rule="evenodd"
         id="path12658" /></clipPath><clipPath
       clipPathUnits="userSpaceOnUse"
       id="clipPath12672"><path
         d="M 1.4305e-5,0 H 960.00001 V 540 H 1.4305e-5 Z"
         clip-rule="evenodd"
         id="path12670" /></clipPath><clipPath
       clipPathUnits="userSpaceOnUse"
       id="clipPath12684"><path
         d="M 1.4305e-5,0 H 960.00001 V 540 H 1.4305e-5 Z"
         clip-rule="evenodd"
         id="path12682" /></clipPath><clipPath
       clipPathUnits="userSpaceOnUse"
       id="clipPath12696"><path
         d="M 1.4305e-5,0 H 960.00001 V 540 H 1.4305e-5 Z"
         clip-rule="evenodd"
         id="path12694" /></clipPath><clipPath
       clipPathUnits="userSpaceOnUse"
       id="clipPath12708"><path
         d="M 1.4305e-5,0 H 960.00001 V 540 H 1.4305e-5 Z"
         clip-rule="evenodd"
         id="path12706" /></clipPath><clipPath
       clipPathUnits="userSpaceOnUse"
       id="clipPath12720"><path
         d="M 1.4305e-5,0 H 960.00001 V 540 H 1.4305e-5 Z"
         clip-rule="evenodd"
         id="path12718" /></clipPath><clipPath
       clipPathUnits="userSpaceOnUse"
       id="clipPath12732"><path
         d="M 1.4305e-5,0 H 960.00001 V 540 H 1.4305e-5 Z"
         clip-rule="evenodd"
         id="path12730" /></clipPath><clipPath
       clipPathUnits="userSpaceOnUse"
       id="clipPath12744"><path
         d="M 1.4305e-5,0 H 960.00001 V 540 H 1.4305e-5 Z"
         clip-rule="evenodd"
         id="path12742" /></clipPath><clipPath
       clipPathUnits="userSpaceOnUse"
       id="clipPath12756"><path
         d="M 1.4305e-5,0 H 960.00001 V 540 H 1.4305e-5 Z"
         clip-rule="evenodd"
         id="path12754" /></clipPath><clipPath
       clipPathUnits="userSpaceOnUse"
       id="clipPath12768"><path
         d="M 1.4305e-5,0 H 960.00001 V 540 H 1.4305e-5 Z"
         clip-rule="evenodd"
         id="path12766" /></clipPath><clipPath
       clipPathUnits="userSpaceOnUse"
       id="clipPath12780"><path
         d="M 1.4305e-5,0 H 960.00001 V 540 H 1.4305e-5 Z"
         clip-rule="evenodd"
         id="path12778" /></clipPath><clipPath
       clipPathUnits="userSpaceOnUse"
       id="clipPath12792"><path
         d="M 1.4305e-5,0 H 960.00001 V 540 H 1.4305e-5 Z"
         clip-rule="evenodd"
         id="path12790" /></clipPath><clipPath
       clipPathUnits="userSpaceOnUse"
       id="clipPath12804"><path
         d="M 1.4305e-5,0 H 960.00001 V 540 H 1.4305e-5 Z"
         clip-rule="evenodd"
         id="path12802" /></clipPath><clipPath
       clipPathUnits="userSpaceOnUse"
       id="clipPath12816"><path
         d="M 1.4305e-5,0 H 960.00001 V 540 H 1.4305e-5 Z"
         clip-rule="evenodd"
         id="path12814" /></clipPath><clipPath
       clipPathUnits="userSpaceOnUse"
       id="clipPath12828"><path
         d="M 1.4305e-5,0 H 960.00001 V 540 H 1.4305e-5 Z"
         clip-rule="evenodd"
         id="path12826" /></clipPath><clipPath
       clipPathUnits="userSpaceOnUse"
       id="clipPath12840"><path
         d="M 1.4305e-5,0 H 960.00001 V 540 H 1.4305e-5 Z"
         clip-rule="evenodd"
         id="path12838" /></clipPath><clipPath
       clipPathUnits="userSpaceOnUse"
       id="clipPath12852"><path
         d="M 1.4305e-5,0 H 960.00001 V 540 H 1.4305e-5 Z"
         clip-rule="evenodd"
         id="path12850" /></clipPath><clipPath
       clipPathUnits="userSpaceOnUse"
       id="clipPath12864"><path
         d="M 1.4305e-5,0 H 960.00001 V 540 H 1.4305e-5 Z"
         clip-rule="evenodd"
         id="path12862" /></clipPath><clipPath
       clipPathUnits="userSpaceOnUse"
       id="clipPath12876"><path
         d="M 1.4305e-5,0 H 960.00001 V 540 H 1.4305e-5 Z"
         clip-rule="evenodd"
         id="path12874" /></clipPath><clipPath
       clipPathUnits="userSpaceOnUse"
       id="clipPath12888"><path
         d="M 1.4305e-5,0 H 960.00001 V 540 H 1.4305e-5 Z"
         clip-rule="evenodd"
         id="path12886" /></clipPath><clipPath
       clipPathUnits="userSpaceOnUse"
       id="clipPath12900"><path
         d="M 1.4305e-5,0 H 960.00001 V 540 H 1.4305e-5 Z"
         clip-rule="evenodd"
         id="path12898" /></clipPath><clipPath
       clipPathUnits="userSpaceOnUse"
       id="clipPath12912"><path
         d="M 1.4305e-5,0 H 960.00001 V 540 H 1.4305e-5 Z"
         clip-rule="evenodd"
         id="path12910" /></clipPath><clipPath
       clipPathUnits="userSpaceOnUse"
       id="clipPath12924"><path
         d="M 1.4305e-5,0 H 960.00001 V 540 H 1.4305e-5 Z"
         clip-rule="evenodd"
         id="path12922" /></clipPath><clipPath
       clipPathUnits="userSpaceOnUse"
       id="clipPath12936"><path
         d="M 1.4305e-5,0 H 960.00001 V 540 H 1.4305e-5 Z"
         clip-rule="evenodd"
         id="path12934" /></clipPath><clipPath
       clipPathUnits="userSpaceOnUse"
       id="clipPath12948"><path
         d="M 1.4305e-5,0 H 960.00001 V 540 H 1.4305e-5 Z"
         clip-rule="evenodd"
         id="path12946" /></clipPath><clipPath
       clipPathUnits="userSpaceOnUse"
       id="clipPath12960"><path
         d="M 1.4305e-5,0 H 960.00001 V 540 H 1.4305e-5 Z"
         clip-rule="evenodd"
         id="path12958" /></clipPath><clipPath
       clipPathUnits="userSpaceOnUse"
       id="clipPath12972"><path
         d="M 1.4305e-5,0 H 960.00001 V 540 H 1.4305e-5 Z"
         clip-rule="evenodd"
         id="path12970" /></clipPath><clipPath
       clipPathUnits="userSpaceOnUse"
       id="clipPath12984"><path
         d="M 1.4305e-5,0 H 960.00001 V 540 H 1.4305e-5 Z"
         clip-rule="evenodd"
         id="path12982" /></clipPath><clipPath
       clipPathUnits="userSpaceOnUse"
       id="clipPath12996"><path
         d="M 1.4305e-5,0 H 960.00001 V 540 H 1.4305e-5 Z"
         clip-rule="evenodd"
         id="path12994" /></clipPath><clipPath
       clipPathUnits="userSpaceOnUse"
       id="clipPath13008"><path
         d="M 1.4305e-5,0 H 960.00001 V 540 H 1.4305e-5 Z"
         clip-rule="evenodd"
         id="path13006" /></clipPath><clipPath
       clipPathUnits="userSpaceOnUse"
       id="clipPath13020"><path
         d="M 1.4305e-5,0 H 960.00001 V 540 H 1.4305e-5 Z"
         clip-rule="evenodd"
         id="path13018" /></clipPath><clipPath
       clipPathUnits="userSpaceOnUse"
       id="clipPath13032"><path
         d="M 1.4305e-5,0 H 960.00001 V 540 H 1.4305e-5 Z"
         clip-rule="evenodd"
         id="path13030" /></clipPath><clipPath
       clipPathUnits="userSpaceOnUse"
       id="clipPath13044"><path
         d="M 1.4305e-5,0 H 960.00001 V 540 H 1.4305e-5 Z"
         clip-rule="evenodd"
         id="path13042" /></clipPath><clipPath
       clipPathUnits="userSpaceOnUse"
       id="clipPath13056"><path
         d="M 1.4305e-5,0 H 960.00001 V 540 H 1.4305e-5 Z"
         clip-rule="evenodd"
         id="path13054" /></clipPath><clipPath
       clipPathUnits="userSpaceOnUse"
       id="clipPath13068"><path
         d="M 1.4305e-5,0 H 960.00001 V 540 H 1.4305e-5 Z"
         clip-rule="evenodd"
         id="path13066" /></clipPath><clipPath
       clipPathUnits="userSpaceOnUse"
       id="clipPath13080"><path
         d="M 1.4305e-5,0 H 960.00001 V 540 H 1.4305e-5 Z"
         clip-rule="evenodd"
         id="path13078" /></clipPath><clipPath
       clipPathUnits="userSpaceOnUse"
       id="clipPath13092"><path
         d="M 1.4305e-5,0 H 960.00001 V 540 H 1.4305e-5 Z"
         clip-rule="evenodd"
         id="path13090" /></clipPath><clipPath
       clipPathUnits="userSpaceOnUse"
       id="clipPath13104"><path
         d="M 1.4305e-5,0 H 960.00001 V 540 H 1.4305e-5 Z"
         clip-rule="evenodd"
         id="path13102" /></clipPath><clipPath
       clipPathUnits="userSpaceOnUse"
       id="clipPath13116"><path
         d="M 1.4305e-5,0 H 960.00001 V 540 H 1.4305e-5 Z"
         clip-rule="evenodd"
         id="path13114" /></clipPath><clipPath
       clipPathUnits="userSpaceOnUse"
       id="clipPath13128"><path
         d="M 1.4305e-5,0 H 960.00001 V 540 H 1.4305e-5 Z"
         clip-rule="evenodd"
         id="path13126" /></clipPath><clipPath
       clipPathUnits="userSpaceOnUse"
       id="clipPath13140"><path
         d="M 1.4305e-5,0 H 960.00001 V 540 H 1.4305e-5 Z"
         clip-rule="evenodd"
         id="path13138" /></clipPath><clipPath
       clipPathUnits="userSpaceOnUse"
       id="clipPath13152"><path
         d="M 1.4305e-5,0 H 960.00001 V 540 H 1.4305e-5 Z"
         clip-rule="evenodd"
         id="path13150" /></clipPath><clipPath
       clipPathUnits="userSpaceOnUse"
       id="clipPath13164"><path
         d="M 1.4305e-5,0 H 960.00001 V 540 H 1.4305e-5 Z"
         clip-rule="evenodd"
         id="path13162" /></clipPath></defs><sodipodi:namedview
     pagecolor="#ffffff"
     bordercolor="#666666"
     borderopacity="1"
     objecttolerance="10"
     gridtolerance="10"
     guidetolerance="10"
     inkscape:pageopacity="0"
     inkscape:pageshadow="2"
     inkscape:window-width="1920"
     inkscape:window-height="1121"
     id="namedview12366"
     showgrid="false"
     inkscape:zoom="1.071875"
     inkscape:cx="640"
     inkscape:cy="360"
     inkscape:window-x="-9"
     inkscape:window-y="611"
     inkscape:window-maximized="1"
     inkscape:current-layer="g12372" /><g
     id="g12372"
     inkscape:groupmode="layer"
     inkscape:label="FRVRS - Data and Analysis Presentation for ITM"
     transform="matrix(1.3333333,0,0,-1.3333333,0,720)"><path
       d="M 0,6.1035e-5 H 960 V 540.00006 H 0 Z"
       style="fill:#ffffff;fill-opacity:1;fill-rule:evenodd;stroke:none"
       id="path12382" /><path
       d="m 137.08,491.38 c -1.33,0 -2.4,-0.39 -3.22,-1.19 -0.65,-0.63 -1.06,-1.48 -1.23,-2.54 h 8.87 c -0.55,2.49 -2.02,3.73 -4.42,3.73 z M 120.16,496 c 0.42,0 0.92,-0.02 1.52,-0.07 v -7.43 c -1.09,0.53 -2.2,0.79 -3.32,0.79 -2.56,0 -4.23,-1.06 -4.99,-3.17 -0.28,-0.76 -0.42,-1.78 -0.42,-3.07 v -9.45 h -7.83 v 22.09 h 7.83 v -3.62 c 0.82,1.29 1.71,2.22 2.66,2.79 1.28,0.76 2.8,1.14 4.55,1.14 z m 16.61,0.31 c 4.81,0 8.24,-1.75 10.31,-5.25 1.15,-1.97 1.73,-4.26 1.73,-6.86 v -1.01 h -16.4 c 0,-3.31 1.6,-4.97 4.78,-4.97 1.63,0 2.88,0.7 3.74,2.09 h 7.57 c -0.6,-1.99 -1.49,-3.53 -2.66,-4.62 -2.13,-1.98 -4.98,-2.97 -8.55,-2.97 -4.54,0 -7.95,1.38 -10.23,4.14 -1.72,2.07 -2.57,4.58 -2.57,7.55 0,3.52 1.07,6.39 3.21,8.59 2.14,2.21 5.16,3.31 9.07,3.31 z m -51.716,2.98 v -8.1 h 2.818 c 1.831,0 3.088,0.4 3.773,1.2 0.621,0.71 0.931,1.68 0.931,2.91 0,1.21 -0.354,2.17 -1.062,2.9 -0.709,0.72 -1.915,1.09 -3.618,1.09 z m -8.45,6.8 h 13.449 c 3.824,0 6.729,-1.11 8.712,-3.35 1.715,-1.92 2.575,-4.37 2.575,-7.35 0,-2.93 -0.69,-5.35 -2.075,-7.27 -1.793,-2.49 -4.769,-3.74 -8.926,-3.74 H 85.054 V 473.6 h -8.45 z"
       style="fill:url(#linearGradient12390);fill-opacity:1;fill-rule:evenodd;stroke:none"
       id="path12392" /><text
       transform="scale(1,-1)"
       style="font-variant:normal;font-weight:bold;font-size:48.8px;font-family:Aharoni;-inkscape-font-specification:Aharoni-Bold;writing-mode:lr-tb;fill:#000000;fill-opacity:0;fill-rule:nonzero;stroke:none"
       id="text12404"
       x="73.25"
       y="-473.5"><tspan
         x="73.25 102.4812 122.7332"
         y="-473.5"
         sodipodi:role="line"
         id="tspan12402">Pre</tspan></text><path
       d="m 152.59,482.19 h 10.426 v 5.0464 H 152.59 Z"
       style="fill:url(#linearGradient12412);fill-opacity:1;fill-rule:evenodd;stroke:none"
       id="path12414" /><text
       transform="scale(1,-1)"
       style="font-variant:normal;font-weight:bold;font-size:48.8px;font-family:Aharoni;-inkscape-font-specification:Aharoni-Bold;writing-mode:lr-tb;fill:#000000;fill-opacity:0;fill-rule:nonzero;stroke:none"
       id="text12426"
       x="150.58"
       y="-473.5"><tspan
         x="150.58"
         y="-473.5"
         id="tspan12424">-</tspan></text><path
       d="m 512.23,489.67 c -1.4,0 -2.59,-0.49 -3.56,-1.46 -0.97,-0.97 -1.46,-2.16 -1.46,-3.58 0,-1.4 0.49,-2.58 1.47,-3.56 0.98,-0.98 2.16,-1.47 3.55,-1.47 1.57,0 2.84,0.59 3.82,1.77 0.8,0.95 1.2,2.04 1.2,3.26 0,1.26 -0.39,2.35 -1.18,3.27 -1,1.18 -2.27,1.77 -3.84,1.77 z m -331.5,0 c -1.4,0 -2.59,-0.49 -3.56,-1.46 -0.97,-0.97 -1.46,-2.16 -1.46,-3.58 0,-1.4 0.49,-2.58 1.47,-3.56 0.98,-0.98 2.16,-1.47 3.55,-1.47 1.57,0 2.84,0.59 3.82,1.77 0.8,0.95 1.2,2.04 1.2,3.26 0,1.26 -0.39,2.35 -1.18,3.27 -1,1.18 -2.27,1.77 -3.84,1.77 z m 50.06,0.12 c -1.61,0 -2.92,-0.61 -3.93,-1.82 -0.82,-0.97 -1.23,-2.08 -1.23,-3.32 0,-1.26 0.41,-2.38 1.23,-3.35 1.01,-1.21 2.32,-1.82 3.93,-1.82 1.44,0 2.66,0.5 3.65,1.5 1,0.99 1.49,2.22 1.49,3.67 0,1.43 -0.5,2.65 -1.5,3.64 -1,1 -2.22,1.5 -3.64,1.5 z m 164.11,0.09 c -1.56,0 -2.84,-0.6 -3.84,-1.81 -0.79,-0.96 -1.18,-2.08 -1.18,-3.35 0,-1.42 0.48,-2.63 1.45,-3.63 0.97,-1.01 2.16,-1.51 3.57,-1.51 1.39,0 2.57,0.5 3.54,1.51 0.97,1 1.46,2.21 1.46,3.63 0,1.41 -0.48,2.62 -1.45,3.64 -0.96,1.01 -2.15,1.52 -3.55,1.52 z m 88.68,1.5 c -1.33,0 -2.4,-0.39 -3.22,-1.19 -0.65,-0.63 -1.06,-1.48 -1.23,-2.54 H 488 c -0.55,2.49 -2.02,3.73 -4.42,3.73 z m -202.5,0 c -1.33,0 -2.4,-0.39 -3.22,-1.19 -0.65,-0.63 -1.06,-1.48 -1.23,-2.54 h 8.87 c -0.55,2.49 -2.02,3.73 -4.42,3.73 z m 59.51,4.31 h 7.83 V 473.6 h -7.83 z M 213.16,496 c 0.42,0 0.92,-0.02 1.52,-0.07 v -7.43 c -1.09,0.53 -2.2,0.79 -3.32,0.79 -2.56,0 -4.23,-1.06 -4.99,-3.17 -0.28,-0.76 -0.42,-1.78 -0.42,-3.07 v -9.45 h -7.83 v 22.09 h 7.83 v -3.62 c 0.82,1.29 1.71,2.22 2.66,2.79 1.28,0.76 2.8,1.14 4.55,1.14 z m 155.92,0.17 c 2.37,0 4.31,-0.65 5.8,-1.93 1.69,-1.46 2.54,-3.65 2.54,-6.57 V 473.6 h -7.83 v 11.17 c 0,1.95 -0.22,3.24 -0.66,3.88 -0.65,0.93 -1.62,1.4 -2.91,1.4 -1.19,0 -2.18,-0.4 -2.98,-1.21 -0.73,-0.72 -1.09,-1.86 -1.09,-3.41 V 473.6 h -7.83 v 22.09 h 7.83 v -2.78 c 0.9,1.04 1.73,1.78 2.49,2.21 1.24,0.7 2.78,1.05 4.64,1.05 z m 114.19,0.14 c 4.81,0 8.24,-1.75 10.3,-5.25 1.16,-1.97 1.74,-4.26 1.74,-6.86 v -1.01 h -16.4 c 0,-3.31 1.6,-4.97 4.78,-4.97 1.63,0 2.88,0.7 3.74,2.09 H 495 c -0.6,-1.99 -1.49,-3.53 -2.66,-4.62 -2.13,-1.98 -4.98,-2.97 -8.55,-2.97 -4.54,0 -7.95,1.38 -10.23,4.14 -1.72,2.07 -2.57,4.58 -2.57,7.55 0,3.52 1.07,6.39 3.21,8.59 2.14,2.21 5.16,3.31 9.07,3.31 z m -90.36,0 c 1.6,0 3.02,-0.33 4.28,-0.98 0.74,-0.39 1.52,-1.04 2.33,-1.95 v 2.31 h 7.83 v -20.57 c 0,-1.93 -0.14,-3.49 -0.41,-4.68 -0.43,-1.91 -1.54,-3.62 -3.33,-5.12 -2.27,-1.91 -5.28,-2.86 -9.04,-2.86 -3.94,0 -7.07,1.04 -9.41,3.12 -1.55,1.38 -2.54,2.82 -2.97,4.33 -0.05,0.16 -0.11,0.49 -0.19,1 h 8.76 c 0.25,-0.72 0.59,-1.24 1.02,-1.55 0.7,-0.52 1.59,-0.78 2.67,-0.78 1.81,0 3.19,0.64 4.16,1.92 0.61,0.81 0.91,1.96 0.91,3.46 v 2.09 c -0.94,-0.85 -1.72,-1.46 -2.36,-1.81 -1.31,-0.73 -2.87,-1.09 -4.66,-1.09 -2.25,0 -4.26,0.58 -6.03,1.74 -1.83,1.19 -3.13,2.81 -3.93,4.88 -0.54,1.39 -0.8,2.91 -0.8,4.54 0,3.62 1.14,6.56 3.44,8.83 2.14,2.11 4.72,3.17 7.73,3.17 z m -112.14,0 c 4.81,0 8.24,-1.75 10.31,-5.25 1.15,-1.97 1.73,-4.26 1.73,-6.86 v -1.01 h -16.4 c 0,-3.31 1.6,-4.97 4.78,-4.97 1.63,0 2.88,0.7 3.74,2.09 h 7.57 c -0.6,-1.99 -1.49,-3.53 -2.66,-4.62 -2.13,-1.98 -4.98,-2.97 -8.55,-2.97 -4.54,0 -7.95,1.38 -10.23,4.14 -1.72,2.07 -2.57,4.58 -2.57,7.55 0,3.52 1.07,6.39 3.21,8.59 2.14,2.21 5.16,3.31 9.07,3.31 z m 233.48,0.07 c 2.74,0 5.18,-0.94 7.32,-2.83 2.55,-2.25 3.83,-5.23 3.83,-8.94 0,-3.77 -1.31,-6.78 -3.93,-9.04 -2.07,-1.79 -4.46,-2.68 -7.15,-2.68 -1.57,0 -3.05,0.33 -4.42,1 -0.8,0.38 -1.61,1 -2.45,1.88 v -13.21 h -7.83 v 33.13 h 7.83 v -2.47 c 0.69,0.92 1.45,1.6 2.26,2.04 1.33,0.75 2.84,1.12 4.54,1.12 z m -254.32,0 c 1.81,0 3.51,-0.41 5.1,-1.24 v -6.64 c -1.38,0.97 -2.72,1.45 -4.04,1.45 -1.55,0 -2.83,-0.5 -3.84,-1.5 -1.02,-1 -1.52,-2.27 -1.52,-3.83 0,-1.55 0.5,-2.83 1.52,-3.83 1.01,-1 2.29,-1.5 3.84,-1.5 1.3,0 2.65,0.48 4.04,1.43 v -6.64 c -1.62,-0.81 -3.32,-1.22 -5.1,-1.22 -4.03,0 -7.22,1.37 -9.59,4.1 -1.9,2.2 -2.85,4.76 -2.85,7.66 0,2.92 0.95,5.48 2.85,7.67 2.37,2.73 5.56,4.09 9.59,4.09 z m -77.18,0 c 2.74,0 5.18,-0.94 7.32,-2.83 2.55,-2.25 3.83,-5.23 3.83,-8.94 0,-3.77 -1.31,-6.78 -3.93,-9.04 -2.07,-1.79 -4.46,-2.68 -7.15,-2.68 -1.57,0 -3.05,0.33 -4.42,1 -0.8,0.38 -1.61,1 -2.45,1.88 v -13.21 h -7.83 v 33.13 h 7.83 v -2.47 c 0.69,0.92 1.45,1.6 2.26,2.04 1.33,0.75 2.84,1.12 4.54,1.12 z m 357.03,0.1 c 2.46,0 4.85,-0.48 7.17,-1.43 L 544.3,490 c -1.45,0.76 -2.84,1.14 -4.17,1.14 -1.57,0 -2.35,-0.54 -2.35,-1.63 0,-0.49 0.32,-0.89 0.95,-1.2 0.29,-0.14 1.12,-0.36 2.52,-0.64 2.04,-0.43 3.54,-1.11 4.51,-2.05 1.22,-1.17 1.83,-2.7 1.83,-4.57 0,-2.35 -0.84,-4.27 -2.53,-5.76 -1.88,-1.68 -4.54,-2.52 -7.97,-2.52 -3.03,0 -5.97,0.85 -8.83,2.54 l 2.83,5.53 c 2.23,-1.46 4.31,-2.19 6.22,-2.19 1.63,0 2.45,0.56 2.45,1.69 0,0.58 -0.29,1.04 -0.86,1.35 -0.36,0.21 -1.19,0.46 -2.47,0.74 -1.44,0.32 -2.38,0.56 -2.82,0.74 -1.59,0.62 -2.66,1.58 -3.21,2.9 -0.3,0.71 -0.45,1.57 -0.45,2.56 0,1.94 0.66,3.62 1.97,5.07 1.7,1.85 4.32,2.78 7.86,2.78 z m -210.75,0 c 2.46,0 4.85,-0.48 7.17,-1.43 L 333.55,490 c -1.45,0.76 -2.84,1.14 -4.17,1.14 -1.57,0 -2.35,-0.54 -2.35,-1.63 0,-0.49 0.32,-0.89 0.95,-1.2 0.29,-0.14 1.12,-0.36 2.52,-0.64 2.04,-0.43 3.54,-1.11 4.51,-2.05 1.22,-1.17 1.83,-2.7 1.83,-4.57 0,-2.35 -0.84,-4.27 -2.53,-5.76 -1.88,-1.68 -4.54,-2.52 -7.97,-2.52 -3.03,0 -5.97,0.85 -8.83,2.54 l 2.83,5.53 c 2.23,-1.46 4.31,-2.19 6.22,-2.19 1.63,0 2.45,0.56 2.45,1.69 0,0.58 -0.29,1.04 -0.86,1.35 -0.36,0.21 -1.19,0.46 -2.47,0.74 -1.44,0.32 -2.38,0.56 -2.82,0.74 -1.59,0.62 -2.66,1.58 -3.21,2.9 -0.3,0.71 -0.45,1.57 -0.45,2.56 0,1.94 0.66,3.62 1.97,5.07 1.7,1.85 4.32,2.78 7.86,2.78 z m -21.75,0 c 2.46,0 4.85,-0.48 7.17,-1.43 L 311.8,490 c -1.45,0.76 -2.84,1.14 -4.17,1.14 -1.57,0 -2.35,-0.54 -2.35,-1.63 0,-0.49 0.32,-0.89 0.95,-1.2 0.29,-0.14 1.12,-0.36 2.52,-0.64 2.04,-0.43 3.54,-1.11 4.51,-2.05 1.22,-1.17 1.83,-2.7 1.83,-4.57 0,-2.35 -0.84,-4.27 -2.53,-5.76 -1.88,-1.68 -4.54,-2.52 -7.97,-2.52 -3.03,0 -5.97,0.85 -8.83,2.54 l 2.83,5.53 c 2.23,-1.46 4.31,-2.19 6.22,-2.19 1.63,0 2.45,0.56 2.45,1.69 0,0.58 -0.29,1.04 -0.86,1.35 -0.36,0.21 -1.19,0.46 -2.47,0.74 -1.44,0.32 -2.38,0.56 -2.82,0.74 -1.59,0.62 -2.66,1.58 -3.21,2.9 -0.3,0.71 -0.45,1.57 -0.45,2.56 0,1.94 0.66,3.62 1.97,5.07 1.7,1.85 4.32,2.78 7.86,2.78 z m -76.25,0.02 c 4.17,0 7.51,-1.34 10,-4.02 2.03,-2.19 3.04,-4.8 3.04,-7.83 0,-3.07 -1,-5.69 -3.02,-7.88 -2.44,-2.67 -5.86,-4 -10.26,-4 -4.41,0 -7.84,1.33 -10.28,4 -2.02,2.19 -3.02,4.88 -3.02,8.07 0,2.87 1.01,5.42 3.04,7.64 2.46,2.68 5.96,4.02 10.5,4.02 z m 225.99,5.83 h 7.83 v -6.64 h 4.45 v -6.4 h -4.45 V 473.6 h -7.83 v 15.69 h -2.57 v 6.4 h 2.57 z m -17.01,4.55 c 3.5,0 6.94,-0.88 10.3,-2.64 l -3.38,-6.57 c -1.84,1.44 -3.7,2.16 -5.58,2.16 -0.91,0 -1.72,-0.23 -2.44,-0.69 -0.81,-0.53 -1.21,-1.23 -1.21,-2.1 0,-0.86 0.53,-1.6 1.59,-2.22 0.48,-0.29 1.91,-0.78 4.3,-1.49 2.99,-0.87 5.12,-2.11 6.39,-3.71 1.09,-1.37 1.64,-3.13 1.64,-5.27 0,-5.5 -2.41,-9.08 -7.23,-10.75 -1.69,-0.59 -3.5,-0.88 -5.43,-0.88 -4.06,0 -7.83,1.23 -11.31,3.69 l 3.62,6.81 c 2.54,-2.3 5.03,-3.45 7.47,-3.45 1.09,0 2.02,0.25 2.79,0.77 0.89,0.57 1.33,1.39 1.33,2.45 0,0.96 -0.49,1.76 -1.48,2.4 -0.73,0.48 -1.96,0.97 -3.69,1.47 -2.1,0.62 -3.42,1.05 -3.96,1.28 -0.86,0.37 -1.59,0.8 -2.19,1.29 -1.74,1.42 -2.6,3.58 -2.6,6.46 0,3.02 0.89,5.51 2.69,7.49 2.09,2.33 4.88,3.5 8.38,3.5 z m -95.5,1.66 c 1.22,0 2.25,-0.42 3.11,-1.27 0.85,-0.84 1.28,-1.87 1.28,-3.09 0,-1.24 -0.42,-2.28 -1.27,-3.12 -0.85,-0.85 -1.89,-1.27 -3.12,-1.27 -1.22,0 -2.25,0.42 -3.1,1.28 -0.85,0.85 -1.27,1.89 -1.27,3.11 0,1.22 0.42,2.25 1.27,3.09 0.85,0.85 1.88,1.27 3.1,1.27 z"
       style="fill:url(#linearGradient12434);fill-opacity:1;fill-rule:evenodd;stroke:none"
       id="path12436" /><text
       transform="scale(1,-1)"
       style="font-variant:normal;font-weight:bold;font-size:48.8px;font-family:Aharoni;-inkscape-font-specification:Aharoni-Bold;writing-mode:lr-tb;fill:#000000;fill-opacity:0;fill-rule:nonzero;stroke:none"
       id="text12448"
       x="165.58"
       y="-473.5"><tspan
         x="165.58 195.592 215.7952 245.80721 266.93759 294.60721 316.37201 338.13678 351.60559 380.25119 410.16559 425.87918 453.74399 469.40878 497.32239 527.18799"
         y="-473.5"
         sodipodi:role="line"
         id="tspan12446">processing Steps</tspan></text><text
       transform="scale(1,-1)"
       style="font-variant:normal;font-weight:normal;font-size:18.025px;font-family:Arial;-inkscape-font-specification:ArialMT;writing-mode:lr-tb;fill:#203040;fill-opacity:1;fill-rule:nonzero;stroke:none"
       id="text12460"
       x="73.25"
       y="-433.39999"><tspan
         x="73.25"
         y="-433.39999"
         id="tspan12458">•</tspan></text><text
       transform="scale(1,-1)"
       style="font-variant:normal;font-weight:normal;font-size:18.025px;font-family:Arial;-inkscape-font-specification:ArialMT;writing-mode:lr-tb;fill:#000000;fill-opacity:1;fill-rule:nonzero;stroke:none"
       id="text12472"
       x="91.275002"
       y="-433.39999"><tspan
         x="91.275002 101.78358 112.27412 122.02565 127.2529 141.51068 154.25435"
         y="-433.39999"
         sodipodi:role="line"
         id="tspan12470">The MCI</tspan></text><text
       transform="scale(1,-1)"
       style="font-variant:normal;font-weight:normal;font-size:18.025px;font-family:Arial;-inkscape-font-specification:ArialMT;writing-mode:lr-tb;fill:#000000;fill-opacity:1;fill-rule:nonzero;stroke:none"
       id="text12484"
       x="158.83"
       y="-433.39999"><tspan
         x="158.83"
         y="-433.39999"
         id="tspan12482">-</tspan></text><text
       transform="scale(1,-1)"
       style="font-variant:normal;font-weight:normal;font-size:18.025px;font-family:Arial;-inkscape-font-specification:ArialMT;writing-mode:lr-tb;fill:#000000;fill-opacity:1;fill-rule:nonzero;stroke:none"
       id="text12496"
       x="164.83"
       y="-433.39999"><tspan
         x="164.83 176.07761 188.82127 196.30165 202.30397 212.0555 221.06799 230.8015 236.80382 247.27635 256.28885 261.51608 276.53091 287.02145 291.5097 296.73694 300.48615 310.97668 315.4649 325.21643 328.20859 337.2211 346.23358 355.9671 366.45764 376.20917 385.22168 390.44891 396.45123 406.92377 417.41431"
         y="-433.39999"
         sodipodi:role="line"
         id="tspan12494">VR records multiple scenes/runs</tspan></text><text
       transform="scale(1,-1)"
       style="font-variant:normal;font-weight:normal;font-size:18.025px;font-family:Arial;-inkscape-font-specification:ArialMT;writing-mode:lr-tb;fill:#000000;fill-opacity:1;fill-rule:nonzero;stroke:none"
       id="text12508"
       x="430.53"
       y="-433.39999"><tspan
         x="430.53 434.27921 444.78778 449.29404 459.06357 469.57214 479.34171 484.56894 493.58145 503.35101 512.36353 521.37598 525.10718 534.87671 545.38531 550.61255 555.83978 559.58899 564.07721 573.8468 578.35303 582.10223 592.61078 602.38037 612.88892 618.11621 621.86536 627.09265 630.84186 640.61139 651.11993 655.62622 666.13477 675.14728 679.6355 689.40509 699.91364 709.68317 714.91046 724.67999 734.44952"
         y="-433.39999"
         sodipodi:role="line"
         id="tspan12506">in one session file identified by one 128</tspan></text><text
       transform="scale(1,-1)"
       style="font-variant:normal;font-weight:normal;font-size:18.025px;font-family:Arial;-inkscape-font-specification:ArialMT;writing-mode:lr-tb;fill:#000000;fill-opacity:1;fill-rule:nonzero;stroke:none"
       id="text12520"
       x="744.27002"
       y="-433.39999"><tspan
         x="744.27002"
         y="-433.39999"
         id="tspan12518">-</tspan></text><text
       transform="scale(1,-1)"
       style="font-variant:normal;font-weight:normal;font-size:18.025px;font-family:Arial;-inkscape-font-specification:ArialMT;writing-mode:lr-tb;fill:#000000;fill-opacity:1;fill-rule:nonzero;stroke:none"
       id="text12532"
       x="750.28003"
       y="-433.39999"><tspan
         x="750.28003 760.77057 764.51978 769.74701 774.97424 787.7179 800.46161 804.96783 817.71155 823.6958 827.44501 837.93561"
         y="-433.39999"
         sodipodi:role="line"
         id="tspan12530">bit UUID in </tspan></text><text
       transform="scale(1,-1)"
       style="font-variant:normal;font-weight:normal;font-size:18.025px;font-family:Arial;-inkscape-font-specification:ArialMT;writing-mode:lr-tb;fill:#000000;fill-opacity:1;fill-rule:nonzero;stroke:none"
       id="text12544"
       x="91.275002"
       y="-416.88"><tspan
         x="91.275002 101.76555 111.51707 119.77252 129.52405 140.0146 149.76613 158.77863 162.5098 177.52463 187.25812 191.74635 196.9736 202.20085 211.95238 217.9547 232.96951 242.70302 247.93027"
         y="-416.88"
         sodipodi:role="line"
         id="tspan12542">hexadecimal format.</tspan></text><text
       transform="scale(1,-1)"
       style="font-variant:normal;font-weight:normal;font-size:18.025px;font-family:Arial;-inkscape-font-specification:ArialMT;writing-mode:lr-tb;fill:#203040;fill-opacity:1;fill-rule:nonzero;stroke:none"
       id="text12556"
       x="73.25"
       y="-389.10001"><tspan
         x="73.25"
         y="-389.10001"
         id="tspan12554">•</tspan></text><text
       transform="scale(1,-1)"
       style="font-variant:normal;font-weight:normal;font-size:18.025px;font-family:Arial;-inkscape-font-specification:ArialMT;writing-mode:lr-tb;fill:#000000;fill-opacity:1;fill-rule:nonzero;stroke:none"
       id="text12568"
       x="91.275002"
       y="-389.10001"><tspan
         x="91.275002 101.78358 112.27412 122.02565 127.2529 139.99658 152.01926 163.24883 172.26132 178.2276 187.97913 193.98145 203.73297 208.96022 221.70389 225.45309 230.68034 241.1709 250.92242 261.41296 266.64023 271.14648 280.89801 286.12524 296.61581 306.36734 316.11887 326.60941 336.36093 342.36325 346.86951 352.87183 362.62335 375.367 381.35132 391.10284 396.33011 400.83633 409.84885 419.58234 434.59717 449.612"
         y="-389.10001"
         sodipodi:role="line"
         id="tspan12566">The CSVs are without a header row of comma</tspan></text><text
       transform="scale(1,-1)"
       style="font-variant:normal;font-weight:normal;font-size:18.025px;font-family:Arial;-inkscape-font-specification:ArialMT;writing-mode:lr-tb;fill:#000000;fill-opacity:1;fill-rule:nonzero;stroke:none"
       id="text12580"
       x="459.79999"
       y="-389.10001"><tspan
         x="459.79999"
         y="-389.10001"
         id="tspan12578">-</tspan></text><text
       transform="scale(1,-1)"
       style="font-variant:normal;font-weight:normal;font-size:18.025px;font-family:Arial;-inkscape-font-specification:ArialMT;writing-mode:lr-tb;fill:#000000;fill-opacity:1;fill-rule:nonzero;stroke:none"
       id="text12592"
       x="465.79999"
       y="-389.10001"><tspan
         x="465.79999 476.30856 486.07812 490.56635 494.31555 509.33038 513.0976 518.3609 528.13043 538.63904 543.90234 552.91479 562.70239 567.19061 577.69922 592.71399 603.2226 606.9718 617.48035 627.24994 642.26477 652.05231 661.06482 665.57104 675.34064 685.84918 696.35779 700.86401 710.63354 716.63593 726.44153 731.70477 737.70715 747.51276 757.28229 767.79083 773.05414 776.80334 787.31195 791.81818 796.3064 800.0556 810.56415"
         y="-389.10001"
         sodipodi:role="line"
         id="tspan12590">delimited column names and are read in line</tspan></text><text
       transform="scale(1,-1)"
       style="font-variant:normal;font-weight:normal;font-size:18.025px;font-family:Arial;-inkscape-font-specification:ArialMT;writing-mode:lr-tb;fill:#000000;fill-opacity:1;fill-rule:nonzero;stroke:none"
       id="text12604"
       x="820.08002"
       y="-389.10001"><tspan
         x="820.08002"
         y="-389.10001"
         id="tspan12602">-</tspan></text><text
       transform="scale(1,-1)"
       style="font-variant:normal;font-weight:normal;font-size:18.025px;font-family:Arial;-inkscape-font-specification:ArialMT;writing-mode:lr-tb;fill:#000000;fill-opacity:1;fill-rule:nonzero;stroke:none"
       id="text12616"
       x="826.08002"
       y="-389.10001"><tspan
         x="826.08002 836.60492"
         y="-389.10001"
         sodipodi:role="line"
         id="tspan12614">by</tspan></text><text
       transform="scale(1,-1)"
       style="font-variant:normal;font-weight:normal;font-size:18.025px;font-family:Arial;-inkscape-font-specification:ArialMT;writing-mode:lr-tb;fill:#000000;fill-opacity:1;fill-rule:nonzero;stroke:none"
       id="text12628"
       x="845.59998"
       y="-389.10001"><tspan
         x="845.59998"
         y="-389.10001"
         id="tspan12626">-</tspan></text><text
       transform="scale(1,-1)"
       style="font-variant:normal;font-weight:normal;font-size:18.025px;font-family:Arial;-inkscape-font-specification:ArialMT;writing-mode:lr-tb;fill:#000000;fill-opacity:1;fill-rule:nonzero;stroke:none"
       id="text12640"
       x="851.59998"
       y="-389.10001"><tspan
         x="851.59998 856.0882 859.8374 870.328 880.07953"
         y="-389.10001"
         sodipodi:role="line"
         id="tspan12638">line.</tspan></text><text
       transform="scale(1,-1)"
       style="font-variant:normal;font-weight:normal;font-size:18.025px;font-family:Arial;-inkscape-font-specification:ArialMT;writing-mode:lr-tb;fill:#203040;fill-opacity:1;fill-rule:nonzero;stroke:none"
       id="text12652"
       x="73.25"
       y="-362.04999"><tspan
         x="73.25"
         y="-362.04999"
         id="tspan12650">•</tspan></text><text
       transform="scale(1,-1)"
       style="font-variant:normal;font-weight:normal;font-size:18.025px;font-family:Arial;-inkscape-font-specification:ArialMT;writing-mode:lr-tb;fill:#000000;fill-opacity:1;fill-rule:nonzero;stroke:none"
       id="text12664"
       x="91.275002"
       y="-362.04999"><tspan
         x="91.275002 101.78358 112.27412 122.02565 127.2529 131.74112 141.49265 151.9832 162.47375 172.22527 178.2276 181.97679 190.23225 199.98378 205.9861 214.9986 218.72977 228.48129 238.97185 244.95615 248.70534 257.71786 262.9451 266.69431 277.18484 282.41211 292.16364 298.16595 304.16827 313.9198 324.41034 328.9166 334.14386 340.14618 349.89771 364.91251 370.12173 375.349 385.83954 395.59106 400.09732 410.58786 416.59018 426.34171 435.35422 445.08771 455.57828 464.59076 474.32428 478.83051 488.58203 494.58438 499.81161 509.56314 520.05371 529.06622 538.79968 549.29028 558.30273 568.03625 573.26349 583.01501 588.24231 592.74854 602.50006 607.72729 615.98279 625.73431 631.73663 640.74915 644.48029 654.23181"
         y="-362.04999"
         sodipodi:role="line"
         id="tspan12662">The logger version is inferred from the presence or absence of a version</tspan></text><text
       transform="scale(1,-1)"
       style="font-variant:normal;font-weight:normal;font-size:18.025px;font-family:Arial;-inkscape-font-specification:ArialMT;writing-mode:lr-tb;fill:#000000;fill-opacity:1;fill-rule:nonzero;stroke:none"
       id="text12676"
       x="665.45001"
       y="-362.04999"><tspan
         x="665.45001"
         y="-362.04999"
         id="tspan12674">-</tspan></text><text
       transform="scale(1,-1)"
       style="font-variant:normal;font-weight:normal;font-size:18.025px;font-family:Arial;-inkscape-font-specification:ArialMT;writing-mode:lr-tb;fill:#000000;fill-opacity:1;fill-rule:nonzero;stroke:none"
       id="text12688"
       x="671.46997"
       y="-362.04999"><tspan
         x="671.46997 675.95825 679.7074 688.71991 698.45343 704.43774 714.92828 725.41882 740.43365 750.90619 760.65771 766.66003 770.40924 774.15845 784.64899 789.87622 795.10345 805.59399 815.34552 819.85181 829.60333 834.83057 845.32111"
         y="-362.04999"
         sodipodi:role="line"
         id="tspan12686">like number in the 5th </tspan></text><text
       transform="scale(1,-1)"
       style="font-variant:normal;font-weight:normal;font-size:18.025px;font-family:Arial;-inkscape-font-specification:ArialMT;writing-mode:lr-tb;fill:#000000;fill-opacity:1;fill-rule:nonzero;stroke:none"
       id="text12700"
       x="91.275002"
       y="-344.76999"><tspan
         x="91.275002 100.2875 110.021 114.50922 124.99977 140.0146 150.48712"
         y="-344.76999"
         sodipodi:role="line"
         id="tspan12698">column.</tspan></text><text
       transform="scale(1,-1)"
       style="font-variant:normal;font-weight:normal;font-size:18.025px;font-family:Arial;-inkscape-font-specification:ArialMT;writing-mode:lr-tb;fill:#203040;fill-opacity:1;fill-rule:nonzero;stroke:none"
       id="text12712"
       x="73.25"
       y="-317"><tspan
         x="73.25"
         y="-317"
         id="tspan12710">•</tspan></text><text
       transform="scale(1,-1)"
       style="font-variant:normal;font-weight:normal;font-size:18.025px;font-family:Arial;-inkscape-font-specification:ArialMT;writing-mode:lr-tb;fill:#000000;fill-opacity:1;fill-rule:nonzero;stroke:none"
       id="text12724"
       x="91.275002"
       y="-317"><tspan
         x="91.275002 101.78358 112.27412 122.02565 127.2529 132.48015 136.22935 142.23167 151.24417 156.4534 160.95964 166.1869 175.93842 186.42897 192.4313 196.93755 205.95004 215.68355 220.17177 230.66232 245.67714 256.14969 265.16217 268.89334 278.64487 284.64719 294.39871 300.38303 310.13455 314.62277 327.36646 337.11798 346.13046 355.14297 360.3522 366.35452 376.10605 385.85757 396.34811 400.85437 404.60358 415.09412 420.32138 430.07291 439.08539"
         y="-317"
         sodipodi:role="line"
         id="tspan12722">The first four columns are always read in as </tspan></text><text
       transform="scale(1,-1)"
       style="font-variant:normal;font-weight:normal;font-size:18.025px;font-family:Arial;-inkscape-font-specification:ArialMT;writing-mode:lr-tb;fill:#000000;fill-opacity:1;fill-rule:nonzero;stroke:none"
       id="text12736"
       x="444.79999"
       y="-317"><tspan
         x="444.79999 454.55151 463.56403 468.79129 472.54047 482.29199 492.78256 502.53409 507.76132 516.7738 527.24634"
         y="-317"
         sodipodi:role="line"
         id="tspan12734">action_type</tspan></text><text
       transform="scale(1,-1)"
       style="font-variant:normal;font-weight:normal;font-size:18.025px;font-family:Arial;-inkscape-font-specification:ArialMT;writing-mode:lr-tb;fill:#000000;fill-opacity:1;fill-rule:nonzero;stroke:none"
       id="text12748"
       x="537.13"
       y="-317"><tspan
         x="537.13 542.37994"
         y="-317"
         sodipodi:role="line"
         id="tspan12746">, </tspan></text><text
       transform="scale(1,-1)"
       style="font-variant:normal;font-weight:normal;font-size:18.025px;font-family:Arial;-inkscape-font-specification:ArialMT;writing-mode:lr-tb;fill:#000000;fill-opacity:1;fill-rule:nonzero;stroke:none"
       id="text12760"
       x="546.88"
       y="-317"><tspan
         x="546.88 556.63153 565.64404 570.87128 574.62048 584.37201 594.86255 604.61407 609.84131 613.59052 622.60303"
         y="-317"
         sodipodi:role="line"
         id="tspan12758">action_tick</tspan></text><text
       transform="scale(1,-1)"
       style="font-variant:normal;font-weight:normal;font-size:18.025px;font-family:Arial;-inkscape-font-specification:ArialMT;writing-mode:lr-tb;fill:#000000;fill-opacity:1;fill-rule:nonzero;stroke:none"
       id="text12772"
       x="631.66998"
       y="-317"><tspan
         x="631.66998 636.94495"
         y="-317"
         sodipodi:role="line"
         id="tspan12770">, </tspan></text><text
       transform="scale(1,-1)"
       style="font-variant:normal;font-weight:normal;font-size:18.025px;font-family:Arial;-inkscape-font-specification:ArialMT;writing-mode:lr-tb;fill:#000000;fill-opacity:1;fill-rule:nonzero;stroke:none"
       id="text12784"
       x="641.45001"
       y="-317"><tspan
         x="641.45001 651.20154 659.45697 669.2085 679.69904 684.92627 694.6778 699.90509 703.6543 718.66913"
         y="-317"
         sodipodi:role="line"
         id="tspan12782">event_time</tspan></text><text
       transform="scale(1,-1)"
       style="font-variant:normal;font-weight:normal;font-size:18.025px;font-family:Arial;-inkscape-font-specification:ArialMT;writing-mode:lr-tb;fill:#000000;fill-opacity:1;fill-rule:nonzero;stroke:none"
       id="text12796"
       x="728.5"
       y="-317"><tspan
         x="728.5 733.76331 739.76562 749.53516 760.04376 770.55231"
         y="-317"
         sodipodi:role="line"
         id="tspan12794">, and </tspan></text><text
       transform="scale(1,-1)"
       style="font-variant:normal;font-weight:normal;font-size:18.025px;font-family:Arial;-inkscape-font-specification:ArialMT;writing-mode:lr-tb;fill:#000000;fill-opacity:1;fill-rule:nonzero;stroke:none"
       id="text12808"
       x="91.275002"
       y="-299.73001"><tspan
         x="91.275002 100.2875 110.021 119.0335 128.04601 131.77718 141.5287 152.01926 161.77077 172.26132 182.75188 186.50107"
         y="-299.73001"
         sodipodi:role="line"
         id="tspan12806">session_uuid</tspan></text><text
       transform="scale(1,-1)"
       style="font-variant:normal;font-weight:normal;font-size:18.025px;font-family:Arial;-inkscape-font-specification:ArialMT;writing-mode:lr-tb;fill:#000000;fill-opacity:1;fill-rule:nonzero;stroke:none"
       id="text12820"
       x="197.10001"
       y="-299.73001"><tspan
         x="197.10001"
         y="-299.73001"
         id="tspan12818">.</tspan></text><text
       transform="scale(1,-1)"
       style="font-variant:normal;font-weight:normal;font-size:18.025px;font-family:Arial;-inkscape-font-specification:ArialMT;writing-mode:lr-tb;fill:#203040;fill-opacity:1;fill-rule:nonzero;stroke:none"
       id="text12832"
       x="73.25"
       y="-272.67001"><tspan
         x="73.25"
         y="-272.67001"
         id="tspan12830">•</tspan></text><text
       transform="scale(1,-1)"
       style="font-variant:normal;font-weight:normal;font-size:18.025px;font-family:Arial;-inkscape-font-specification:ArialMT;writing-mode:lr-tb;fill:#000000;fill-opacity:1;fill-rule:nonzero;stroke:none"
       id="text12844"
       x="91.275002"
       y="-272.67001"><tspan
         x="91.275002 101.78358 112.27412 122.02565 127.2529 132.48015 142.9707 146.71989 152.72223 163.19475 166.94395 175.95645 185.68994 190.17818 200.66872 215.68355 226.15607 229.90527"
         y="-272.67001"
         sodipodi:role="line"
         id="tspan12842">The third column (</tspan></text><text
       transform="scale(1,-1)"
       style="font-variant:normal;font-weight:normal;font-size:18.025px;font-family:Arial;-inkscape-font-specification:ArialMT;writing-mode:lr-tb;fill:#000000;fill-opacity:1;fill-rule:nonzero;stroke:none"
       id="text12856"
       x="236.13"
       y="-272.67001"><tspan
         x="236.13 245.89955 254.17302 263.94257 274.45114 279.67841 289.44794 294.6752 298.42441 313.43924"
         y="-272.67001"
         sodipodi:role="line"
         id="tspan12854">event_time</tspan></text><text
       transform="scale(1,-1)"
       style="font-variant:normal;font-weight:normal;font-size:18.025px;font-family:Arial;-inkscape-font-specification:ArialMT;writing-mode:lr-tb;fill:#000000;fill-opacity:1;fill-rule:nonzero;stroke:none"
       id="text12868"
       x="323.20001"
       y="-272.67001"><tspan
         x="323.20001 329.20233 335.18661 338.93582 347.94833 353.17557 358.40283 364.40515 374.15668 383.9082 389.13544 398.88696 409.37753 414.60477 424.35629 433.3688 438.59604 448.3476"
         y="-272.67001"
         sodipodi:role="line"
         id="tspan12866">) is treated as a </tspan></text><text
       transform="scale(1,-1)"
       style="font-variant:normal;font-weight:normal;font-size:18.025px;font-family:Arial;-inkscape-font-specification:ArialMT;writing-mode:lr-tb;fill:#000000;fill-opacity:1;fill-rule:nonzero;stroke:none"
       id="text12880"
       x="453.79999"
       y="-272.67001"><tspan
         x="453.79999 464.29056 474.04208 479.26932 489.02084 494.24811 497.99731 513.01215"
         y="-272.67001"
         sodipodi:role="line"
         id="tspan12878">datetime</tspan></text><text
       transform="scale(1,-1)"
       style="font-variant:normal;font-weight:normal;font-size:18.025px;font-family:Arial;-inkscape-font-specification:ArialMT;writing-mode:lr-tb;fill:#000000;fill-opacity:1;fill-rule:nonzero;stroke:none"
       id="text12892"
       x="527.34998"
       y="-272.67001"><tspan
         x="527.34998 536.36249 546.13202 550.6203 561.12885 576.14368 586.65222"
         y="-272.67001"
         sodipodi:role="line"
         id="tspan12890">column.</tspan></text><text
       transform="scale(1,-1)"
       style="font-variant:normal;font-weight:normal;font-size:18.025px;font-family:Arial;-inkscape-font-specification:ArialMT;writing-mode:lr-tb;fill:#203040;fill-opacity:1;fill-rule:nonzero;stroke:none"
       id="text12904"
       x="73.25"
       y="-244.89999"><tspan
         x="73.25"
         y="-244.89999"
         id="tspan12902">•</tspan></text><text
       transform="scale(1,-1)"
       style="font-variant:normal;font-weight:normal;font-size:18.025px;font-family:Arial;-inkscape-font-specification:ArialMT;writing-mode:lr-tb;fill:#000000;fill-opacity:1;fill-rule:nonzero;stroke:none"
       id="text12916"
       x="91.275002"
       y="-244.89999"><tspan
         x="91.275002 101.78358 112.27412 122.02565 127.2529 136.2654 145.9989 150.48712 160.97768 175.99249 186.46503 195.47752 199.20869 208.96022"
         y="-244.89999"
         sodipodi:role="line"
         id="tspan12914">The columns of</tspan></text><text
       transform="scale(1,-1)"
       style="font-variant:normal;font-weight:normal;font-size:18.025px;font-family:Arial;-inkscape-font-specification:ArialMT;writing-mode:lr-tb;fill:#000000;fill-opacity:1;fill-rule:nonzero;stroke:none"
       id="text12928"
       x="219.63"
       y="-244.89999"><tspan
         x="219.63 233.88777 246.63145"
         y="-244.89999"
         sodipodi:role="line"
         id="tspan12926">MCI</tspan></text><text
       transform="scale(1,-1)"
       style="font-variant:normal;font-weight:normal;font-size:18.025px;font-family:Arial;-inkscape-font-specification:ArialMT;writing-mode:lr-tb;fill:#000000;fill-opacity:1;fill-rule:nonzero;stroke:none"
       id="text12940"
       x="251.14999"
       y="-244.89999"><tspan
         x="251.14999"
         y="-244.89999"
         id="tspan12938">-</tspan></text><text
       transform="scale(1,-1)"
       style="font-variant:normal;font-weight:normal;font-size:18.025px;font-family:Arial;-inkscape-font-specification:ArialMT;writing-mode:lr-tb;fill:#000000;fill-opacity:1;fill-rule:nonzero;stroke:none"
       id="text12952"
       x="257.14999"
       y="-244.89999"><tspan
         x="257.14999 268.39969"
         y="-244.89999"
         sodipodi:role="line"
         id="tspan12950">VR</tspan></text><text
       transform="scale(1,-1)"
       style="font-variant:normal;font-weight:normal;font-size:18.025px;font-family:Arial;-inkscape-font-specification:ArialMT;writing-mode:lr-tb;fill:#000000;fill-opacity:1;fill-rule:nonzero;stroke:none"
       id="text12964"
       x="288.67999"
       y="-244.89999"><tspan
         x="288.67999 303.69482 313.42831 318.65558 324.6579 328.4071 337.41959 346.4321 351.64133 355.39053 365.88107 371.10831 380.85983 386.86218 401.87698 411.6105 416.83774 420.58694 430.33847 440.82904 445.33527 450.56253 460.31406 466.31638 471.54364 481.29514 491.04666 500.05917 510.53171 515.03796 519.52618 529.27771 539.76825 544.27448 554.02606 564.5166 569.74384 575.74615 584.75867 589.24689 598.99841 605.00073 614.75226 619.97949 630.47003 640.22156 650.71216 661.2027 670.21521 679.94867 690.43921 694.18842 699.41571 705.41803 715.16956 730.18439 735.39355 740.62085 751.11139 760.86292 765.36914 775.12067 784.13318 789.36041 793.10962 802.86115 813.35168 817.85797 823.08521 832.09772 842.57019 852.32172"
         y="-244.89999"
         sodipodi:role="line"
         id="tspan12962">metrics information for each log entry are deduced from the action type </tspan></text><text
       transform="scale(1,-1)"
       style="font-variant:normal;font-weight:normal;font-size:18.025px;font-family:Arial;-inkscape-font-specification:ArialMT;writing-mode:lr-tb;fill:#000000;fill-opacity:1;fill-rule:nonzero;stroke:none"
       id="text12976"
       x="91.275002"
       y="-227.63"><tspan
         x="91.275002 100.2875 110.021 114.50922 124.99977 140.0146 150.48712 154.23633 157.98552 168.47607 172.98233 182.73384 187.96109 197.71262 207.46414"
         y="-227.63"
         sodipodi:role="line"
         id="tspan12974">column in a 138</tspan></text><text
       transform="scale(1,-1)"
       style="font-variant:normal;font-weight:normal;font-size:18.025px;font-family:Arial;-inkscape-font-specification:ArialMT;writing-mode:lr-tb;fill:#000000;fill-opacity:1;fill-rule:nonzero;stroke:none"
       id="text12988"
       x="217.38"
       y="-227.63"><tspan
         x="217.38"
         y="-227.63"
         id="tspan12986">-</tspan></text><text
       transform="scale(1,-1)"
       style="font-variant:normal;font-weight:normal;font-size:18.025px;font-family:Arial;-inkscape-font-specification:ArialMT;writing-mode:lr-tb;fill:#000000;fill-opacity:1;fill-rule:nonzero;stroke:none"
       id="text13000"
       x="223.38"
       y="-227.63"><tspan
         x="223.38 227.86823 231.61743 242.10797 251.8595"
         y="-227.63"
         sodipodi:role="line"
         id="tspan12998">lines</tspan></text><text
       transform="scale(1,-1)"
       style="font-variant:normal;font-weight:normal;font-size:18.025px;font-family:Arial;-inkscape-font-specification:ArialMT;writing-mode:lr-tb;fill:#000000;fill-opacity:1;fill-rule:nonzero;stroke:none"
       id="text13012"
       x="260.89999"
       y="-227.63"><tspan
         x="260.89999"
         y="-227.63"
         id="tspan13010">-</tspan></text><text
       transform="scale(1,-1)"
       style="font-variant:normal;font-weight:normal;font-size:18.025px;font-family:Arial;-inkscape-font-specification:ArialMT;writing-mode:lr-tb;fill:#000000;fill-opacity:1;fill-rule:nonzero;stroke:none"
       id="text13024"
       x="266.89999"
       y="-227.63"><tspan
         x="266.89999 271.38821 281.15778 291.66635 302.17493 306.68118 310.43039 315.65762 320.88489 326.11212 336.6207 346.39026 356.89883 360.64801 369.66052 374.88779 384.65732 389.88458 399.65411 414.66895 424.45651 434.96509 440.19235 445.41962 449.16879"
         y="-227.63"
         sodipodi:role="line"
         id="tspan13022">long if/then statement. D</tspan></text><text
       transform="scale(1,-1)"
       style="font-variant:normal;font-weight:normal;font-size:18.025px;font-family:Arial;-inkscape-font-specification:ArialMT;writing-mode:lr-tb;fill:#000000;fill-opacity:1;fill-rule:nonzero;stroke:none"
       id="text13036"
       x="462.04999"
       y="-227.63"><tspan
         x="462.04999 465.79919 471.02646 476.25369 486.02325 492.02557 501.79514 512.30371 517.53094 522.03723 531.80676 540.81927 546.04651 549.79572 559.56525 570.07385 575.30109 580.52832 589.54083 600.03137 609.8009 618.81342 623.30164 633.07117 639.07355 648.84308 654.07031 663.83984 672.85236 681.86487 691.61639 700.62891 704.36005 714.12964 719.35687 729.1264 739.63501 745.61932 758.39905 762.14825 767.37549 777.88403 782.39032 792.89886 796.64807 801.87531 807.1026 816.87213 822.87445 832.64398 843.15259 848.37982"
         y="-227.63"
         sodipodi:role="line"
         id="tspan13034">ifferent action types are associated with different </tspan></text><text
       transform="scale(1,-1)"
       style="font-variant:normal;font-weight:normal;font-size:18.025px;font-family:Arial;-inkscape-font-specification:ArialMT;writing-mode:lr-tb;fill:#000000;fill-opacity:1;fill-rule:nonzero;stroke:none"
       id="text13048"
       x="91.275002"
       y="-210.35001"><tspan
         x="91.275002 101.02653 106.25378 111.48103 117.48335 121.23255 131.7231 142.21365 147.4409 157.19243 166.20493 171.43217 175.18137 187.92505 198.4156 202.16479 211.17729 221.64983 226.15607 236.64662 246.39815 256.14969 266.64023 271.14648 276.37372 286.12524 291.35251 301.84305 311.59457 316.10083 326.59137 336.3429 342.34521 351.35773 361.09122 371.58176 376.08801 379.83722 390.32776 400.81833 410.56985 421.06039 430.81192 441.30246 451.79303 461.54456 472.0351 477.26233 481.01154 488.50995 493.73718 496.72934 502.73166 514.75433 523.76685 532.77936 542.47681 552.96735 558.19458 561.94379 571.69531 576.18353 580.67181 588.17017 593.39746 597.14661 602.3739 612.86444 622.61597 631.62848 641.362 645.86823 651.09546 654.84467 664.59619 669.08441 679.57495 688.58746 693.07568 702.0882 711.82172 722.31226 726.81848 737.30902 747.06055 752.28784 757.51508 768.00562 777.75714 788.24768 798.73822 809.22882 814.45605 817.44818 827.19971 832.427 836.93323 846.68475 855.69727"
         y="-210.35001"
         sodipodi:role="line"
         id="tspan13046">attributes, which need to be parsed independently. (Essentially, those fields can be thought of as </tspan></text><text
       transform="scale(1,-1)"
       style="font-variant:normal;font-weight:normal;font-size:18.025px;font-family:Arial;-inkscape-font-specification:ArialMT;writing-mode:lr-tb;fill:#000000;fill-opacity:1;fill-rule:nonzero;stroke:none"
       id="text13060"
       x="91.275002"
       y="-193.08"><tspan
         x="91.275002 101.76555 111.51707 120.52958 125.75683 135.50835 145.9989 150.50514 163.24883 166.99802 172.22527 182.71582 186.46503 196.95557 201.46182 206.68907 217.17961"
         y="-193.08"
         sodipodi:role="line"
         id="tspan13058">nested within the</tspan></text><text
       transform="scale(1,-1)"
       style="font-variant:normal;font-weight:normal;font-size:18.025px;font-family:Arial;-inkscape-font-specification:ArialMT;writing-mode:lr-tb;fill:#000000;fill-opacity:1;fill-rule:nonzero;stroke:none"
       id="text13072"
       x="231.63"
       y="-193.08"><tspan
         x="231.63 241.38153 250.39403 255.62128 259.37048 269.12201 279.61255 284.1188 289.34604 298.35855 308.83109 318.58261 323.80984"
         y="-193.08"
         sodipodi:role="line"
         id="tspan13070">action type.)</tspan></text><text
       transform="scale(1,-1)"
       style="font-variant:normal;font-weight:normal;font-size:18.025px;font-family:Arial;-inkscape-font-specification:ArialMT;writing-mode:lr-tb;fill:#203040;fill-opacity:1;fill-rule:nonzero;stroke:none"
       id="text13084"
       x="73.25"
       y="-161.53"><tspan
         x="73.25"
         y="-161.53"
         id="tspan13082">•</tspan></text><text
       transform="scale(1,-1)"
       style="font-variant:normal;font-weight:normal;font-size:18.025px;font-family:Arial;-inkscape-font-specification:ArialMT;writing-mode:lr-tb;fill:#000000;fill-opacity:1;fill-rule:nonzero;stroke:none"
       id="text13096"
       x="91.275002"
       y="-161.53"><tspan
         x="91.275002 103.29768 112.31017 122.02565 132.5162 142.26773 151.28023 156.50748 166.259 172.26132 182.01285 187.2401 197.73065 207.48218 211.9704 215.7196 226.21014 235.96167 245.7132 250.94044 260.69199 271.18253 274.93173 285.42227 294.43478 298.923 310.94568 322.96835 334.91891 346.94159 351.4118 365.65155 378.39523 388.14676 400.16943 412.89508 425.63873 432.36206 436.85028 446.60181 457.09238 460.84158 470.59311 481.08365 486.31088 492.31323 496.06241 505.81393 514.82648 520.05371 525.28094 537.30365 545.52301 555.27454 561.27686 570.28937 576.25568 580.7439 590.49542 600.98596 604.73517 614.48669 624.97723 630.20453 636.20685 645.2193 649.70752 659.45905 669.94965 679.70117 687.9566 697.70813 703.69244 713.44397 723.93451 734.42505 738.93127 742.68048 753.17102 762.18353 766.65375 777.14429 787.63483 791.38403 801.87457 812.36517 815.3573 820.58453 831.07507 840.8266 844.57581 849.8031 853.55225 859.55463 868.56708 873.77631"
         y="-161.53"
         sodipodi:role="line"
         id="tspan13094">Scenes are delineated by SESSION_END log entries. Every log entry above and including the first </tspan></text><text
       transform="scale(1,-1)"
       style="font-variant:normal;font-weight:normal;font-size:18.025px;font-family:Arial;-inkscape-font-specification:ArialMT;writing-mode:lr-tb;fill:#000000;fill-opacity:1;fill-rule:nonzero;stroke:none"
       id="text13108"
       x="91.275002"
       y="-139.75"><tspan
         x="91.275002 103.29768 115.32035 127.27093 139.29359 143.76379 158.00356 170.74722 180.49875 192.52142 205.24707 217.99075 223.97504 228.46327 238.2148 248.70534 253.21159 262.96313 273.45367 278.68094 284.68326 293.69574 298.18399 301.93317 310.94568 316.17291 326.66348 330.41269 338.66812 348.41965 358.91019 364.13745 373.88898 384.37952 388.88577 392.63498 403.12552 413.61606 423.36758 431.62305 436.85028 446.60181 451.82907 457.0563 466.80783 472.0351 477.26233 487.01385 497.50443 507.99496 511.74417 521.49573 529.75116 539.50269 545.505 554.51752 561.24084 565.72906 575.48059 585.97113 589.72034 599.47186 609.9624 615.1897 621.19202 630.20453 634.69275 644.44427 649.67151 654.89874 664.65027 670.65259 675.87982 681.10712 691.59766 701.34918 705.85541 710.34363 720.09515 729.10767 734.3349 738.84119 748.59271 759.08325 768.83478 774.06201 777.81122 786.82373 792.05096 802.5415 806.29071 814.5462 824.29773 834.78827 840.0155 849.76703 860.25757"
         y="-139.75"
         sodipodi:role="line"
         id="tspan13106">SESSION_END log entry is given an index of 0, and every log entry after the last one is given an </tspan></text><text
       transform="scale(1,-1)"
       style="font-variant:normal;font-weight:normal;font-size:18.025px;font-family:Arial;-inkscape-font-specification:ArialMT;writing-mode:lr-tb;fill:#000000;fill-opacity:1;fill-rule:nonzero;stroke:none"
       id="text13120"
       x="91.275002"
       y="-118.72"><tspan
         x="91.275002 95.0242 105.51475 116.0053 125.75683 134.01227 139.23952 148.99104 154.21829 159.44554 169.9361 175.16335 178.91255 189.40309 193.90935 204.3999 214.15143 217.90063 228.39117 238.88171 243.38797 248.61522 259.10577 268.8573 273.36356 282.37604 292.10956 302.6001 313.09064 318.3179 322.06711 331.81863 337.04587 342.27313 351.28561 360.29813 370.03162 380.52216 390.27368 399.28619 403.77441 407.52362 418.01416 423.24142 428.46866 438.95923 448.71075 453.21698 462.22949 471.96298 480.97549 489.98801 493.71918 503.4707 513.96124 519.18854 524.41577 528.16498 532.6532 542.40472"
         y="-118.72"
         sodipodi:role="line"
         id="tspan13118">index of n, n being the count of scenes in the session file.</tspan></text><text
       transform="scale(1,-1)"
       style="font-variant:normal;font-weight:normal;font-size:18.025px;font-family:Arial;-inkscape-font-specification:ArialMT;writing-mode:lr-tb;fill:#203040;fill-opacity:1;fill-rule:nonzero;stroke:none"
       id="text13132"
       x="73.25"
       y="-86.425003"><tspan
         x="73.25"
         y="-86.425003"
         id="tspan13130">•</tspan></text><text
       transform="scale(1,-1)"
       style="font-variant:normal;font-weight:normal;font-size:18.025px;font-family:Arial;-inkscape-font-specification:ArialMT;writing-mode:lr-tb;fill:#000000;fill-opacity:1;fill-rule:nonzero;stroke:none"
       id="text13144"
       x="91.275002"
       y="-86.425003"><tspan
         x="91.275002 101.78358 112.27412"
         y="-86.425003"
         sodipodi:role="line"
         id="tspan13142">The</tspan></text><text
       transform="scale(1,-1)"
       style="font-variant:normal;font-weight:normal;font-size:18.025px;font-family:Arial;-inkscape-font-specification:ArialMT;writing-mode:lr-tb;fill:#000000;fill-opacity:1;fill-rule:nonzero;stroke:none"
       id="text13156"
       x="127.3"
       y="-86.425003"><tspan
         x="127.3 137.05153 146.06403 151.29128 155.04048 164.79201 175.28255 180.5098 185.73705 189.48625 198.49875 207.51125 211.98145 220.99394 230.72745 235.21567 245.70622 260.72104 271.19357 274.94278 278.69196 287.70447 292.93173 298.15897 304.16129 313.91281 323.66434 328.8916 338.64313 349.13367 354.36093 364.11246 373.12494 378.3522 388.1037 398.59427 403.10052 406.8497 417.34027 422.5675 432.31903 442.8096 452.56113 457.8064 463.03363 466.78284 472.0101 482.50064 492.25217 496.75842 507.24896 517.7395 532.75433 543.22687 552.97839 558.98071 562.72992 572.48145 577.70868 582.93597 597.95081 601.68195 606.17017 610.65839 614.40759 623.4201 633.15363 642.16608 651.8996 662.39014 672.88068 681.89319 685.62439 695.37592 699.86414 709.61566 720.1062 729.11871 738.85217 749.34271 753.849 762.86151 766.59265 777.08319 786.0957 795.82922 801.05646 806.28369 816.77429 826.52582"
         y="-86.425003"
         sodipodi:role="line"
         id="tspan13154">action tick column is treated as an integer, the number of milliseconds elapsed since the </tspan></text><text
       transform="scale(1,-1)"
       style="font-variant:normal;font-weight:normal;font-size:18.025px;font-family:Arial;-inkscape-font-specification:ArialMT;writing-mode:lr-tb;fill:#000000;fill-opacity:1;fill-rule:nonzero;stroke:none"
       id="text13168"
       x="91.275002"
       y="-65.400002"><tspan
         x="91.275002 101.76555 111.51707 122.00762 125.75683 136.24738 146.73793 150.48712 160.97768 171.46822 174.46037 184.2119 189.43915 193.9454 199.17265 209.66319 219.41472 223.92097 229.92329 240.39581 250.88637"
         y="-65.400002"
         sodipodi:role="line"
         id="tspan13166">beginning of the run.</tspan></text></g></svg>
