<?xml version="1.0" encoding="UTF-8" standalone="no"?>
<svg
   xmlns:dc="http://purl.org/dc/elements/1.1/"
   xmlns:cc="http://creativecommons.org/ns#"
   xmlns:rdf="http://www.w3.org/1999/02/22-rdf-syntax-ns#"
   xmlns:svg="http://www.w3.org/2000/svg"
   xmlns="http://www.w3.org/2000/svg"
   xmlns:sodipodi="http://sodipodi.sourceforge.net/DTD/sodipodi-0.dtd"
   xmlns:inkscape="http://www.inkscape.org/namespaces/inkscape"
   version="1.1"
   id="svg15673"
   xml:space="preserve"
   width="1280"
   height="720"
   viewBox="0 0 1280 720"
   sodipodi:docname="frvrs_data_and_analysis_presentation_for_itm_slide019.svg"
   inkscape:version="1.0.2-2 (e86c870879, 2021-01-15)"
   inkscape:export-filename="C:\Users\DaveBabbitt\Documents\GitHub\itm-analysis-reporting\saves\png\frvrs_data_and_analysis_presentation_for_itm\slide019.png"
   inkscape:export-xdpi="96"
   inkscape:export-ydpi="96"><metadata
     id="metadata15679"><rdf:RDF><cc:Work
         rdf:about=""><dc:format>image/svg+xml</dc:format><dc:type
           rdf:resource="http://purl.org/dc/dcmitype/StillImage" /><dc:title></dc:title></cc:Work></rdf:RDF></metadata><defs
     id="defs15677"><clipPath
       clipPathUnits="userSpaceOnUse"
       id="clipPath15689"><path
         d="M 0,1.2207e-4 H 960 V 540.00012 H 0 Z"
         clip-rule="evenodd"
         id="path15687" /></clipPath><clipPath
       clipPathUnits="userSpaceOnUse"
       id="clipPath15699"><path
         d="M 0,1.2207e-4 H 960 V 540.00012 H 0 Z"
         clip-rule="evenodd"
         id="path15697" /></clipPath><linearGradient
       x1="73.199997"
       y1="452.54001"
       x2="1776.45"
       y2="452.54001"
       gradientUnits="userSpaceOnUse"
       spreadMethod="pad"
       id="linearGradient15709"><stop
         style="stop-opacity:1;stop-color:#00bac8"
         offset="0"
         id="stop15705" /><stop
         style="stop-opacity:1;stop-color:#00bac8"
         offset="1"
         id="stop15707" /></linearGradient><clipPath
       clipPathUnits="userSpaceOnUse"
       id="clipPath15719"><path
         d="M 72.75,432.75 H 925.5 v 37.5 H 72.75 Z"
         clip-rule="evenodd"
         id="path15717" /></clipPath><clipPath
       clipPathUnits="userSpaceOnUse"
       id="clipPath15731"><path
         d="M 9.1553e-5,540 H 960 V 1.8311e-4 H 1.2207e-4"
         clip-rule="evenodd"
         id="path15729" /></clipPath><clipPath
       clipPathUnits="userSpaceOnUse"
       id="clipPath15741"><path
         d="M 1.4305e-5,0 H 960.00001 V 540 H 1.4305e-5 Z"
         clip-rule="evenodd"
         id="path15739" /></clipPath><clipPath
       clipPathUnits="userSpaceOnUse"
       id="clipPath15753"><path
         d="M 1.4305e-5,0 H 960.00001 V 540 H 1.4305e-5 Z"
         clip-rule="evenodd"
         id="path15751" /></clipPath><clipPath
       clipPathUnits="userSpaceOnUse"
       id="clipPath15765"><path
         d="M 9.1553e-5,540 H 960 V 1.8311e-4 L 1.2207e-4,1.2207e-4"
         clip-rule="evenodd"
         id="path15763" /></clipPath><clipPath
       clipPathUnits="userSpaceOnUse"
       id="clipPath15775"><path
         d="M 1.4305e-5,0 H 960.00001 V 540 H 1.4305e-5 Z"
         clip-rule="evenodd"
         id="path15773" /></clipPath><clipPath
       clipPathUnits="userSpaceOnUse"
       id="clipPath15787"><path
         d="M 1.4305e-5,0 H 960.00001 V 540 H 1.4305e-5 Z"
         clip-rule="evenodd"
         id="path15785" /></clipPath><clipPath
       clipPathUnits="userSpaceOnUse"
       id="clipPath15799"><path
         d="M 1.2207e-4,540 H 960 V 1.8311e-4 H 1.8311e-4"
         clip-rule="evenodd"
         id="path15797" /></clipPath><clipPath
       clipPathUnits="userSpaceOnUse"
       id="clipPath15809"><path
         d="M 1.4305e-5,0 H 960.00001 V 540 H 1.4305e-5 Z"
         clip-rule="evenodd"
         id="path15807" /></clipPath><clipPath
       clipPathUnits="userSpaceOnUse"
       id="clipPath15821"><path
         d="M 1.4305e-5,0 H 960.00001 V 540 H 1.4305e-5 Z"
         clip-rule="evenodd"
         id="path15819" /></clipPath><clipPath
       clipPathUnits="userSpaceOnUse"
       id="clipPath15833"><path
         d="M 3.0518e-5,540 H 960 V 2.4414e-4 L 4.5776e-5,1.8311e-4"
         clip-rule="evenodd"
         id="path15831" /></clipPath><clipPath
       clipPathUnits="userSpaceOnUse"
       id="clipPath15843"><path
         d="M 1.4305e-5,0 H 960.00001 V 540 H 1.4305e-5 Z"
         clip-rule="evenodd"
         id="path15841" /></clipPath><clipPath
       clipPathUnits="userSpaceOnUse"
       id="clipPath15855"><path
         d="M 1.4305e-5,0 H 960.00001 V 540 H 1.4305e-5 Z"
         clip-rule="evenodd"
         id="path15853" /></clipPath><clipPath
       clipPathUnits="userSpaceOnUse"
       id="clipPath15867"><path
         d="M 3.0518e-5,540 H 960 V 1.8311e-4 L 6.1035e-5,1.2207e-4"
         clip-rule="evenodd"
         id="path15865" /></clipPath><clipPath
       clipPathUnits="userSpaceOnUse"
       id="clipPath15877"><path
         d="M 1.4305e-5,0 H 960.00001 V 540 H 1.4305e-5 Z"
         clip-rule="evenodd"
         id="path15875" /></clipPath><clipPath
       clipPathUnits="userSpaceOnUse"
       id="clipPath15889"><path
         d="M 1.4305e-5,0 H 960.00001 V 540 H 1.4305e-5 Z"
         clip-rule="evenodd"
         id="path15887" /></clipPath><clipPath
       clipPathUnits="userSpaceOnUse"
       id="clipPath15901"><path
         d="M 1.2207e-4,540 H 960 V 1.8311e-4 L 1.8311e-4,1.2207e-4"
         clip-rule="evenodd"
         id="path15899" /></clipPath><clipPath
       clipPathUnits="userSpaceOnUse"
       id="clipPath15911"><path
         d="M 1.4305e-5,0 H 960.00001 V 540 H 1.4305e-5 Z"
         clip-rule="evenodd"
         id="path15909" /></clipPath><clipPath
       clipPathUnits="userSpaceOnUse"
       id="clipPath15923"><path
         d="M 1.4305e-5,0 H 960.00001 V 540 H 1.4305e-5 Z"
         clip-rule="evenodd"
         id="path15921" /></clipPath><clipPath
       clipPathUnits="userSpaceOnUse"
       id="clipPath15935"><path
         d="M 1.4305e-5,0 H 960.00001 V 540 H 1.4305e-5 Z"
         clip-rule="evenodd"
         id="path15933" /></clipPath><clipPath
       clipPathUnits="userSpaceOnUse"
       id="clipPath15947"><path
         d="M 1.4305e-5,0 H 960.00001 V 540 H 1.4305e-5 Z"
         clip-rule="evenodd"
         id="path15945" /></clipPath><clipPath
       clipPathUnits="userSpaceOnUse"
       id="clipPath15959"><path
         d="M 1.4305e-5,0 H 960.00001 V 540 H 1.4305e-5 Z"
         clip-rule="evenodd"
         id="path15957" /></clipPath><clipPath
       clipPathUnits="userSpaceOnUse"
       id="clipPath15971"><path
         d="M 1.4305e-5,0 H 960.00001 V 540 H 1.4305e-5 Z"
         clip-rule="evenodd"
         id="path15969" /></clipPath><clipPath
       clipPathUnits="userSpaceOnUse"
       id="clipPath15983"><path
         d="M 1.4305e-5,0 H 960.00001 V 540 H 1.4305e-5 Z"
         clip-rule="evenodd"
         id="path15981" /></clipPath><clipPath
       clipPathUnits="userSpaceOnUse"
       id="clipPath15995"><path
         d="M 1.4305e-5,0 H 960.00001 V 540 H 1.4305e-5 Z"
         clip-rule="evenodd"
         id="path15993" /></clipPath><clipPath
       clipPathUnits="userSpaceOnUse"
       id="clipPath16007"><path
         d="M 1.4305e-5,0 H 960.00001 V 540 H 1.4305e-5 Z"
         clip-rule="evenodd"
         id="path16005" /></clipPath><clipPath
       clipPathUnits="userSpaceOnUse"
       id="clipPath16019"><path
         d="M 1.4305e-5,0 H 960.00001 V 540 H 1.4305e-5 Z"
         clip-rule="evenodd"
         id="path16017" /></clipPath></defs><sodipodi:namedview
     pagecolor="#ffffff"
     bordercolor="#666666"
     borderopacity="1"
     objecttolerance="10"
     gridtolerance="10"
     guidetolerance="10"
     inkscape:pageopacity="0"
     inkscape:pageshadow="2"
     inkscape:window-width="1920"
     inkscape:window-height="1121"
     id="namedview15675"
     showgrid="false"
     inkscape:zoom="0.99765625"
     inkscape:cx="640"
     inkscape:cy="360"
     inkscape:window-x="-9"
     inkscape:window-y="611"
     inkscape:window-maximized="1"
     inkscape:current-layer="g15681" /><g
     id="g15681"
     inkscape:groupmode="layer"
     inkscape:label="FRVRS - Data and Analysis Presentation for ITM"
     transform="matrix(1.3333333,0,0,-1.3333333,0,720)"><path
       d="M 0,6.1035e-5 H 960 V 540.00006 H 0 Z"
       style="fill:#ffffff;fill-opacity:1;fill-rule:evenodd;stroke:none"
       id="path15691" /><path
       d="M 0,6.1035e-5 H 960 V 540.00006 H 0 Z"
       style="fill:#ffffff;fill-opacity:1;fill-rule:evenodd;stroke:none"
       id="path15701" /><path
       d="m 636.93,454.09 c -1.22,0 -2.21,-0.46 -2.99,-1.37 -0.64,-0.75 -0.95,-1.6 -0.95,-2.55 0,-0.95 0.31,-1.8 0.95,-2.55 0.76,-0.91 1.76,-1.37 2.99,-1.37 1.1,0 2.03,0.38 2.8,1.13 0.76,0.76 1.14,1.69 1.14,2.79 0,1.09 -0.38,2.02 -1.15,2.78 -0.77,0.76 -1.7,1.14 -2.79,1.14 z m -45,0 c -1.22,0 -2.21,-0.46 -2.99,-1.37 -0.64,-0.75 -0.95,-1.6 -0.95,-2.55 0,-0.95 0.31,-1.8 0.95,-2.55 0.76,-0.91 1.76,-1.37 2.99,-1.37 1.1,0 2.03,0.38 2.8,1.13 0.76,0.76 1.14,1.69 1.14,2.79 0,1.09 -0.38,2.02 -1.15,2.78 -0.77,0.76 -1.7,1.14 -2.79,1.14 z m -150,0 c -1.22,0 -2.21,-0.46 -2.99,-1.37 -0.64,-0.75 -0.95,-1.6 -0.95,-2.55 0,-0.95 0.31,-1.8 0.95,-2.55 0.76,-0.91 1.76,-1.37 2.99,-1.37 1.1,0 2.03,0.38 2.8,1.13 0.76,0.76 1.14,1.69 1.14,2.79 0,1.09 -0.38,2.02 -1.15,2.78 -0.77,0.76 -1.7,1.14 -2.79,1.14 z m -339,0 c -1.22,0 -2.21,-0.46 -2.994,-1.37 -0.632,-0.75 -0.948,-1.6 -0.948,-2.55 0,-0.95 0.316,-1.8 0.948,-2.55 0.764,-0.91 1.764,-1.37 2.994,-1.37 1.1,0 2.03,0.38 2.8,1.13 0.76,0.76 1.14,1.69 1.14,2.79 0,1.09 -0.38,2.02 -1.15,2.78 -0.77,0.76 -1.7,1.14 -2.79,1.14 z m 558.26,0.02 c -1.09,0 -2.02,-0.38 -2.79,-1.15 -0.77,-0.77 -1.15,-1.7 -1.15,-2.8 0,-1.1 0.38,-2.03 1.15,-2.8 0.77,-0.77 1.7,-1.15 2.79,-1.15 1.23,0 2.22,0.46 2.99,1.39 0.64,0.76 0.95,1.61 0.95,2.56 0,0.96 -0.31,1.82 -0.95,2.57 -0.78,0.92 -1.78,1.38 -2.99,1.38 z m -374.51,0 c -1.22,0 -2.21,-0.46 -2.99,-1.38 -0.64,-0.75 -0.95,-1.61 -0.95,-2.57 0,-0.96 0.31,-1.81 0.95,-2.56 0.76,-0.93 1.76,-1.39 2.99,-1.39 1.1,0 2.03,0.38 2.8,1.14 0.76,0.76 1.14,1.7 1.14,2.81 0,1.1 -0.38,2.03 -1.15,2.8 -0.77,0.77 -1.7,1.15 -2.79,1.15 z m 500.36,0.09 c -1.26,0 -2.29,-0.47 -3.09,-1.42 -0.64,-0.76 -0.96,-1.63 -0.96,-2.61 0,-0.99 0.32,-1.86 0.96,-2.63 0.8,-0.95 1.83,-1.42 3.09,-1.42 1.13,0 2.08,0.39 2.86,1.17 0.78,0.78 1.18,1.74 1.18,2.88 0,1.13 -0.4,2.08 -1.19,2.86 -0.78,0.78 -1.73,1.17 -2.85,1.17 z m -297.75,0 c -1.26,0 -2.29,-0.47 -3.09,-1.42 -0.64,-0.76 -0.96,-1.63 -0.96,-2.61 0,-0.99 0.32,-1.86 0.96,-2.63 0.8,-0.95 1.83,-1.42 3.09,-1.42 1.13,0 2.08,0.39 2.86,1.17 0.78,0.78 1.18,1.74 1.18,2.88 0,1.13 -0.4,2.08 -1.19,2.86 -0.78,0.78 -1.73,1.17 -2.85,1.17 z m -120.75,0 c -1.26,0 -2.29,-0.47 -3.08,-1.42 -0.65,-0.76 -0.97,-1.63 -0.97,-2.61 0,-0.99 0.32,-1.86 0.97,-2.63 0.79,-0.95 1.82,-1.42 3.08,-1.42 1.13,0 2.08,0.39 2.86,1.17 0.78,0.78 1.18,1.74 1.18,2.88 0,1.13 -0.4,2.08 -1.19,2.86 -0.78,0.78 -1.73,1.17 -2.85,1.17 z m 442.39,0.08 c -1.23,0 -2.23,-0.47 -3.01,-1.42 -0.62,-0.76 -0.93,-1.64 -0.93,-2.63 0,-1.11 0.38,-2.06 1.14,-2.85 0.76,-0.79 1.7,-1.19 2.8,-1.19 1.09,0 2.02,0.4 2.78,1.19 0.76,0.79 1.14,1.74 1.14,2.85 0,1.1 -0.38,2.06 -1.13,2.85 -0.76,0.8 -1.69,1.2 -2.79,1.2 z m -684,0 c -1.23,0 -2.23,-0.47 -3.01,-1.42 -0.62,-0.76 -0.93,-1.64 -0.93,-2.63 0,-1.11 0.38,-2.06 1.14,-2.85 0.76,-0.79 1.7,-1.19 2.8,-1.19 1.09,0 2.02,0.4 2.78,1.19 0.76,0.79 1.14,1.74 1.14,2.85 0,1.1 -0.38,2.06 -1.13,2.85 -0.76,0.8 -1.69,1.2 -2.79,1.2 z m 568.05,1.18 c -1.04,0 -1.88,-0.32 -2.53,-0.94 -0.5,-0.49 -0.83,-1.16 -0.96,-2 h 6.96 c -0.43,1.96 -1.59,2.94 -3.47,2.94 z m -430.5,0 c -1.04,0 -1.88,-0.32 -2.53,-0.94 -0.5,-0.49 -0.83,-1.16 -0.96,-2 h 6.96 c -0.43,1.96 -1.59,2.94 -3.47,2.94 z m -51,0 c -1.04,0 -1.88,-0.32 -2.53,-0.94 -0.5,-0.49 -0.83,-1.16 -0.96,-2 h 6.96 c -0.43,1.96 -1.59,2.94 -3.47,2.94 z m -32.25,0 c -1.04,0 -1.88,-0.32 -2.53,-0.94 -0.5,-0.49 -0.83,-1.16 -0.96,-2 h 6.96 c -0.43,1.96 -1.59,2.94 -3.47,2.94 z m 720.72,3.38 h 7.12 l 4.63,-8.89 4.5,8.89 h 7.02 l -13.91,-26 h -6.88 l 5.89,11.04 z m -185.43,0 h 6.15 V 441.5 h -6.15 z m -110.25,0 h 6.15 V 441.5 h -6.15 z m -47.82,0 h 6.89 l 4.15,-8.89 4.16,8.89 h 6.86 l -9.02,-17.34 h -4.09 z m -89.43,0 h 6.15 V 441.5 h -6.15 z m 431.08,0.24 c 0.32,0 0.72,-0.02 1.19,-0.06 v -5.82 c -0.86,0.41 -1.73,0.61 -2.61,0.61 -2.01,0 -3.31,-0.83 -3.91,-2.48 -0.22,-0.6 -0.33,-1.4 -0.33,-2.41 v -7.42 h -6.15 v 17.34 h 6.15 V 456 c 0.64,1.01 1.34,1.73 2.08,2.18 1.01,0.6 2.2,0.9 3.58,0.9 z m -505.5,0 c 0.32,0 0.72,-0.02 1.19,-0.06 v -5.82 c -0.86,0.41 -1.73,0.61 -2.61,0.61 -2.01,0 -3.31,-0.83 -3.91,-2.48 -0.22,-0.6 -0.33,-1.4 -0.33,-2.41 v -7.42 h -6.15 v 17.34 h 6.15 V 456 c 0.64,1.01 1.34,1.73 2.08,2.18 1.01,0.6 2.2,0.9 3.58,0.9 z m 150.48,0.04 -2.78,-8.13 h 5.53 z m -123.05,0.02 c 1.29,0 2.45,-0.32 3.46,-0.94 1.08,-0.68 1.79,-1.61 2.13,-2.78 0.2,-0.71 0.3,-1.6 0.3,-2.65 V 441.5 h -6.14 v 8.56 c 0,1.5 -0.16,2.52 -0.47,3.06 -0.46,0.81 -1.15,1.22 -2.07,1.22 -1.03,0 -1.81,-0.45 -2.36,-1.33 -0.38,-0.62 -0.58,-1.6 -0.58,-2.95 v -8.56 h -6.14 v 8.56 c 0,1.5 -0.13,2.47 -0.37,2.91 -0.5,0.9 -1.27,1.35 -2.3,1.35 -0.96,0 -1.71,-0.39 -2.24,-1.16 -0.2,-0.27 -0.35,-0.65 -0.43,-1.13 -0.09,-0.48 -0.13,-1.13 -0.13,-1.97 v -8.56 h -6.15 v 17.34 h 6.15 v -2.13 c 0.72,0.69 1.38,1.2 1.98,1.53 1.08,0.58 2.29,0.88 3.63,0.88 1.71,0 3.13,-0.45 4.26,-1.33 0.58,-0.45 1.13,-1.08 1.65,-1.9 0.47,0.77 1,1.38 1.59,1.83 1.23,0.94 2.64,1.42 4.23,1.42 z m 442.75,0.07 c 1.87,0 3.38,-0.5 4.55,-1.51 1.33,-1.15 2,-2.87 2,-5.16 V 441.5 h -6.15 v 8.77 c 0,1.53 -0.17,2.54 -0.52,3.04 -0.51,0.73 -1.27,1.1 -2.28,1.1 -0.93,0 -1.71,-0.32 -2.34,-0.95 -0.57,-0.57 -0.85,-1.46 -0.85,-2.67 v -9.29 h -6.15 v 17.34 h 6.15 v -2.19 c 0.7,0.82 1.36,1.4 1.95,1.74 0.97,0.55 2.19,0.82 3.64,0.82 z m -126,0 c 1.87,0 3.38,-0.5 4.55,-1.51 1.33,-1.15 2,-2.87 2,-5.16 V 441.5 h -6.15 v 8.77 c 0,1.53 -0.17,2.54 -0.52,3.04 -0.51,0.73 -1.27,1.1 -2.28,1.1 -0.93,0 -1.71,-0.32 -2.34,-0.95 -0.57,-0.57 -0.85,-1.46 -0.85,-2.67 v -9.29 h -6.15 v 17.34 h 6.15 v -2.19 c 0.7,0.82 1.36,1.4 1.95,1.74 0.97,0.55 2.19,0.82 3.64,0.82 z m -224.25,0 c 1.87,0 3.38,-0.5 4.55,-1.51 1.33,-1.15 2,-2.87 2,-5.16 V 441.5 h -6.15 v 8.77 c 0,1.53 -0.17,2.54 -0.52,3.04 -0.51,0.73 -1.27,1.1 -2.28,1.1 -0.93,0 -1.71,-0.32 -2.34,-0.95 -0.57,-0.57 -0.85,-1.46 -0.85,-2.67 v -9.29 h -6.15 v 17.34 h 6.15 v -2.19 c 0.71,0.82 1.36,1.4 1.95,1.74 0.97,0.55 2.19,0.82 3.64,0.82 z m -180,0 c 1.87,0 3.38,-0.5 4.55,-1.51 1.33,-1.15 2,-2.87 2,-5.16 V 441.5 h -6.15 v 8.77 c 0,1.53 -0.17,2.54 -0.52,3.04 -0.51,0.73 -1.27,1.1 -2.28,1.1 -0.93,0 -1.71,-0.32 -2.34,-0.95 -0.57,-0.57 -0.85,-1.46 -0.85,-2.67 v -9.29 h -6.15 v 17.34 h 6.15 v -2.19 c 0.7,0.82 1.36,1.4 1.95,1.74 0.97,0.55 2.19,0.82 3.64,0.82 z m 474.84,0.11 c 1.25,0 2.37,-0.25 3.35,-0.76 0.59,-0.32 1.2,-0.83 1.83,-1.54 v 1.82 h 6.15 V 442.7 c 0,-1.52 -0.11,-2.75 -0.32,-3.68 -0.34,-1.49 -1.21,-2.83 -2.62,-4.02 -1.78,-1.49 -4.14,-2.24 -7.09,-2.24 -3.09,0 -5.55,0.82 -7.38,2.45 -1.22,1.08 -2,2.22 -2.33,3.4 -0.04,0.12 -0.09,0.39 -0.15,0.78 h 6.87 c 0.2,-0.56 0.47,-0.97 0.8,-1.22 0.55,-0.4 1.25,-0.61 2.09,-0.61 1.42,0 2.51,0.51 3.27,1.51 0.48,0.63 0.71,1.54 0.71,2.72 v 1.64 c -0.73,-0.67 -1.35,-1.15 -1.84,-1.42 -1.04,-0.57 -2.25,-0.86 -3.66,-0.86 -1.77,0 -3.35,0.45 -4.74,1.36 -1.43,0.94 -2.45,2.21 -3.08,3.83 -0.42,1.1 -0.63,2.29 -0.63,3.57 0,2.84 0.9,5.15 2.71,6.93 1.67,1.65 3.69,2.48 6.06,2.48 z m -114.63,0 c 3.77,0 6.47,-1.37 8.08,-4.11 0.91,-1.55 1.37,-3.35 1.37,-5.39 v -0.79 h -12.87 c 0,-2.6 1.25,-3.9 3.75,-3.9 1.28,0 2.26,0.55 2.94,1.64 h 5.94 c -0.48,-1.56 -1.17,-2.77 -2.1,-3.63 -1.66,-1.55 -3.9,-2.33 -6.7,-2.33 -3.56,0 -6.24,1.09 -8.03,3.25 -1.35,1.62 -2.02,3.6 -2.02,5.92 0,2.77 0.84,5.02 2.52,6.75 1.68,1.73 4.05,2.59 7.12,2.59 z m -430.5,0 c 3.77,0 6.47,-1.37 8.09,-4.11 0.9,-1.55 1.36,-3.35 1.36,-5.39 v -0.79 h -12.87 c 0,-2.6 1.25,-3.9 3.75,-3.9 1.28,0 2.26,0.55 2.94,1.64 h 5.94 c -0.48,-1.56 -1.17,-2.77 -2.1,-3.63 -1.66,-1.55 -3.9,-2.33 -6.7,-2.33 -3.56,0 -6.24,1.09 -8.03,3.25 -1.35,1.62 -2.02,3.6 -2.02,5.92 0,2.77 0.84,5.02 2.52,6.75 1.68,1.73 4.05,2.59 7.12,2.59 z m -51,0 c 3.77,0 6.47,-1.37 8.09,-4.11 0.9,-1.55 1.36,-3.35 1.36,-5.39 v -0.79 h -12.87 c 0,-2.6 1.25,-3.9 3.75,-3.9 1.28,0 2.26,0.55 2.94,1.64 h 5.94 c -0.48,-1.56 -1.17,-2.77 -2.1,-3.63 -1.66,-1.55 -3.9,-2.33 -6.7,-2.33 -3.56,0 -6.24,1.09 -8.03,3.25 -1.35,1.62 -2.02,3.6 -2.02,5.92 0,2.77 0.84,5.02 2.52,6.75 1.68,1.73 4.05,2.59 7.12,2.59 z m -32.25,0 c 3.77,0 6.47,-1.37 8.09,-4.11 0.9,-1.55 1.36,-3.35 1.36,-5.39 v -0.79 h -12.87 c 0,-2.6 1.25,-3.9 3.75,-3.9 1.28,0 2.26,0.55 2.94,1.64 h 5.94 c -0.48,-1.56 -1.17,-2.77 -2.1,-3.63 -1.66,-1.55 -3.9,-2.33 -6.7,-2.33 -3.56,0 -6.24,1.09 -8.03,3.25 -1.35,1.62 -2.02,3.6 -2.02,5.92 0,2.77 0.84,5.02 2.52,6.75 1.68,1.73 4.05,2.59 7.12,2.59 z m -55.62,0 c 1.25,0 2.37,-0.25 3.35,-0.76 0.59,-0.32 1.2,-0.83 1.83,-1.54 v 1.82 h 6.15 V 442.7 c 0,-1.52 -0.11,-2.75 -0.32,-3.68 -0.34,-1.49 -1.21,-2.83 -2.62,-4.02 -1.78,-1.49 -4.14,-2.24 -7.09,-2.24 -3.09,0 -5.55,0.82 -7.38,2.45 -1.22,1.08 -2,2.22 -2.33,3.4 -0.04,0.12 -0.09,0.39 -0.15,0.78 h 6.87 c 0.2,-0.56 0.47,-0.97 0.8,-1.22 0.55,-0.4 1.25,-0.61 2.09,-0.61 1.42,0 2.51,0.51 3.27,1.51 0.48,0.63 0.71,1.54 0.71,2.72 v 1.64 c -0.73,-0.67 -1.35,-1.15 -1.84,-1.42 -1.04,-0.57 -2.25,-0.86 -3.66,-0.86 -1.77,0 -3.34,0.45 -4.74,1.36 -1.43,0.94 -2.45,2.21 -3.08,3.83 -0.42,1.1 -0.63,2.29 -0.63,3.57 0,2.84 0.9,5.15 2.71,6.93 1.67,1.65 3.69,2.48 6.06,2.48 z m 509.92,0.06 c 1.23,0 2.39,-0.26 3.47,-0.77 0.62,-0.3 1.26,-0.79 1.92,-1.47 v 1.7 h 6.15 V 441.5 h -6.15 v 1.93 c -0.58,-0.74 -1.17,-1.27 -1.77,-1.61 -1.04,-0.58 -2.23,-0.88 -3.56,-0.88 -2.15,0 -4.07,0.74 -5.75,2.22 -2,1.77 -3,4.11 -3,7.02 0,2.96 1.03,5.32 3.08,7.09 1.63,1.41 3.5,2.11 5.61,2.11 z m -45,0 c 1.23,0 2.39,-0.26 3.47,-0.77 0.62,-0.3 1.26,-0.79 1.92,-1.47 v 1.7 h 6.15 V 441.5 h -6.15 v 1.93 c -0.58,-0.74 -1.17,-1.27 -1.77,-1.61 -1.04,-0.58 -2.23,-0.88 -3.56,-0.88 -2.15,0 -4.07,0.74 -5.75,2.22 -2,1.77 -3,4.11 -3,7.02 0,2.96 1.03,5.32 3.08,7.09 1.63,1.41 3.5,2.11 5.61,2.11 z m -150,0 c 1.23,0 2.39,-0.26 3.47,-0.77 0.62,-0.3 1.26,-0.79 1.92,-1.47 v 1.7 h 6.15 V 441.5 h -6.15 v 1.93 c -0.58,-0.74 -1.17,-1.27 -1.77,-1.61 -1.04,-0.58 -2.23,-0.88 -3.56,-0.88 -2.15,0 -4.07,0.74 -5.75,2.22 -2,1.77 -3,4.11 -3,7.02 0,2.96 1.03,5.32 3.08,7.09 1.63,1.41 3.5,2.11 5.61,2.11 z m -205.17,0 c 1.42,0 2.75,-0.33 4,-0.97 v -5.21 c -1.09,0.76 -2.14,1.14 -3.17,1.14 -1.22,0 -2.22,-0.4 -3.02,-1.18 -0.79,-0.79 -1.19,-1.79 -1.19,-3.01 0,-1.22 0.4,-2.22 1.19,-3.01 0.8,-0.78 1.8,-1.17 3.02,-1.17 1.02,0 2.07,0.37 3.17,1.12 v -5.21 c -1.27,-0.64 -2.61,-0.95 -4,-0.95 -3.16,0 -5.67,1.07 -7.53,3.21 -1.49,1.73 -2.24,3.73 -2.24,6.01 0,2.29 0.75,4.3 2.24,6.02 1.86,2.14 4.37,3.21 7.53,3.21 z m -133.83,0 c 1.23,0 2.39,-0.26 3.47,-0.77 0.62,-0.3 1.26,-0.79 1.92,-1.47 v 1.7 h 6.15 V 441.5 h -6.15 v 1.93 c -0.58,-0.74 -1.17,-1.27 -1.77,-1.61 -1.04,-0.58 -2.23,-0.88 -3.56,-0.88 -2.153,0 -4.068,0.74 -5.746,2.22 -2.002,1.77 -3.003,4.11 -3.003,7.02 0,2.96 1.026,5.32 3.077,7.09 1.629,1.41 3.501,2.11 5.612,2.11 z m 685.94,0.09 c 3.27,0 5.89,-1.05 7.84,-3.15 1.6,-1.72 2.39,-3.77 2.39,-6.15 0,-2.4 -0.79,-4.46 -2.37,-6.18 -1.92,-2.09 -4.6,-3.14 -8.05,-3.14 -3.46,0 -6.15,1.05 -8.07,3.14 -1.58,1.72 -2.37,3.83 -2.37,6.33 0,2.25 0.8,4.25 2.39,6 1.93,2.1 4.68,3.15 8.24,3.15 z m -297.75,0 c 3.27,0 5.89,-1.05 7.84,-3.15 1.6,-1.72 2.39,-3.77 2.39,-6.15 0,-2.4 -0.79,-4.46 -2.37,-6.18 -1.92,-2.09 -4.6,-3.14 -8.05,-3.14 -3.46,0 -6.15,1.05 -8.07,3.14 -1.58,1.72 -2.37,3.83 -2.37,6.33 0,2.25 0.8,4.25 2.39,6 1.93,2.1 4.68,3.15 8.24,3.15 z m -120.75,0 c 3.27,0 5.89,-1.05 7.84,-3.15 1.6,-1.72 2.39,-3.77 2.39,-6.15 0,-2.4 -0.79,-4.46 -2.37,-6.18 -1.92,-2.09 -4.6,-3.14 -8.05,-3.14 -3.46,0 -6.15,1.05 -8.07,3.14 -1.58,1.72 -2.37,3.83 -2.37,6.33 0,2.25 0.8,4.25 2.39,6 1.93,2.1 4.68,3.15 8.24,3.15 z m 507.52,4.58 h 6.15 v -5.21 h 3.49 v -5.03 H 882.4 V 441.5 h -6.15 v 12.31 h -2.02 v 5.03 h 2.02 z m -419.25,0 h 6.15 v -5.21 h 3.49 v -5.03 h -3.49 V 441.5 H 457 v 12.31 h -2.02 v 5.03 H 457 Z m -213.75,0 h 6.15 v -5.21 h 3.49 v -5.03 H 249.4 V 441.5 h -6.15 v 12.31 h -2.02 v 5.03 h 2.02 z M 834.87,467 h 14.51 v -5.53 h -7.88 v -4.35 h 7.45 v -5.53 h -7.45 v -4.56 h 7.88 v -5.53 h -14.51 z m -75,0 h 6.63 v -19.97 h 7.96 v -5.53 h -14.59 z m -218.35,0 h 7.22 l 9.6,-25.5 h -7.07 l -1.65,4.45 h -9.15 l -1.75,-4.45 h -7.01 z m -230.15,0 H 318 v -25.5 h -6.63 z M 73.461,467 H 90.98 v -5.53 H 85.489 V 441.5 h -6.63 v 19.97 h -5.398 z m 85.959,0.61 c 2.76,0 5.45,-0.69 8.09,-2.07 l -2.65,-5.15 c -1.45,1.13 -2.91,1.7 -4.38,1.7 -0.71,0 -1.35,-0.19 -1.91,-0.55 -0.64,-0.41 -0.96,-0.96 -0.96,-1.65 0,-0.67 0.42,-1.25 1.26,-1.74 0.37,-0.23 1.49,-0.61 3.36,-1.16 2.35,-0.69 4.02,-1.66 5.02,-2.92 0.86,-1.07 1.29,-2.45 1.29,-4.13 0,-4.31 -1.89,-7.13 -5.68,-8.43 -1.32,-0.47 -2.74,-0.7 -4.26,-0.7 -3.18,0 -6.14,0.97 -8.87,2.9 l 2.84,5.34 c 2,-1.81 3.95,-2.71 5.86,-2.71 0.86,0 1.59,0.2 2.19,0.61 0.7,0.45 1.05,1.09 1.05,1.92 0,0.75 -0.39,1.38 -1.16,1.89 -0.58,0.37 -1.54,0.76 -2.9,1.15 -1.65,0.48 -2.69,0.82 -3.11,1 -0.67,0.29 -1.25,0.63 -1.72,1.01 -1.36,1.12 -2.04,2.81 -2.04,5.08 0,2.36 0.7,4.32 2.11,5.87 1.64,1.83 3.84,2.74 6.57,2.74 z m 560.18,1.31 c 0.95,0 1.76,-0.33 2.44,-0.99 0.67,-0.67 1,-1.48 1,-2.44 0,-0.96 -0.33,-1.78 -1,-2.44 -0.66,-0.67 -1.48,-1 -2.44,-1 -0.96,0 -1.77,0.33 -2.44,1 -0.66,0.68 -0.99,1.49 -0.99,2.44 0,0.96 0.33,1.77 0.99,2.44 0.67,0.66 1.48,0.99 2.44,0.99 z m -110.25,0 c 0.95,0 1.76,-0.33 2.44,-0.99 0.67,-0.67 1,-1.48 1,-2.44 0,-0.96 -0.33,-1.78 -1,-2.44 -0.66,-0.67 -1.48,-1 -2.44,-1 -0.96,0 -1.77,0.33 -2.44,1 -0.66,0.68 -0.99,1.49 -0.99,2.44 0,0.96 0.33,1.77 0.99,2.44 0.67,0.66 1.48,0.99 2.44,0.99 z m -137.25,0 c 0.95,0 1.77,-0.33 2.44,-0.99 0.67,-0.67 1,-1.48 1,-2.44 0,-0.96 -0.33,-1.78 -1,-2.44 -0.66,-0.67 -1.48,-1 -2.44,-1 -0.96,0 -1.77,0.33 -2.44,1 -0.66,0.68 -0.99,1.49 -0.99,2.44 0,0.96 0.33,1.77 0.99,2.44 0.67,0.66 1.48,0.99 2.44,0.99 z m 203.19,0.64 h 6.15 V 441.5 h -6.15 z m -24,0 h 6.15 v -12.44 c 0.66,0.68 1.3,1.17 1.92,1.47 1.08,0.53 2.24,0.79 3.47,0.79 2.11,0 3.98,-0.7 5.61,-2.11 2.05,-1.77 3.08,-4.13 3.08,-7.09 0,-2.91 -1,-5.25 -3,-7.02 -1.68,-1.48 -3.6,-2.22 -5.75,-2.22 -1.33,0 -2.52,0.3 -3.56,0.88 -0.64,0.35 -1.23,0.89 -1.77,1.61 v -1.93 h -6.15 z m -34.5,0 h 6.15 V 441.5 h -6.15 z m -326.36,0 h 6.15 V 441.5 h -6.15 v 1.93 c -0.58,-0.74 -1.17,-1.27 -1.77,-1.61 -1.04,-0.58 -2.23,-0.88 -3.56,-0.88 -2.15,0 -4.07,0.74 -5.75,2.22 -2,1.77 -3,4.11 -3,7.02 0,2.96 1.03,5.32 3.08,7.09 1.63,1.41 3.5,2.11 5.61,2.11 1.23,0 2.39,-0.26 3.47,-0.79 0.62,-0.3 1.26,-0.79 1.92,-1.47 z m -96.64,0 h 6.15 V 441.5 h -6.15 z m 159.74,0.05 c 0.89,0 1.8,-0.21 2.71,-0.63 v -5.33 c -0.83,0.47 -1.55,0.7 -2.14,0.7 -0.83,0 -1.44,-0.32 -1.82,-0.96 -0.23,-0.36 -0.34,-1.26 -0.34,-2.68 v -1.87 h 4.3 v -5.05 h -4.3 V 441.5 h -6.14 v 12.29 h -2.19 v 5.05 h 2.19 v 2.29 c 0,2.56 0.64,4.52 1.94,5.91 1.6,1.71 3.53,2.57 5.79,2.57 z"
       style="fill:url(#linearGradient15709);fill-opacity:1;fill-rule:evenodd;stroke:none"
       id="path15711" /><text
       transform="scale(1,-1)"
       style="font-variant:normal;font-weight:bold;font-size:38.3px;font-family:Aharoni;-inkscape-font-specification:Aharoni-Bold;writing-mode:lr-tb;fill:#000000;fill-opacity:0;fill-rule:nonzero;stroke:none"
       id="text15723"
       x="73.25"
       y="-441.38"><tspan
         x="73.25 91.289299 115.2651 138.5515 148.31799 170.1873 191.8651 202.3593 224.15199 240.7359 253.37489 275.2825 299.22 308.98651 320.9744 343.45651 357.01471 380.99051 396.73181 430.51239 454.48819 467.2421 477.7363 501.02271 523.50476 531.81592 558.85571 580.64844 604.62421 615.11841 625.61261 649.58838 673.56421 684.05841 705.85107 714.88989 725.38409 747.86621 757.67102 775.672 799.6861 822.97247 832.73901 851.46771 873.94983 886.78027 902.52161"
         y="-441.38"
         sodipodi:role="line"
         id="tspan15721">Tag Selected Information Available in Log Entry</tspan></text><path
       d="m 466.13,247.12 c 0,2.9 0.39,5.25 0.87,5.25 h 13.25 c 0.48,0 0.88,2.36 0.88,5.25 0,-2.89 0.39,-5.25 0.87,-5.25 h 13.25 c 0.48,0 0.88,-2.35 0.88,-5.25"
       style="fill:none;stroke:#00bac8;stroke-width:0.5;stroke-linecap:butt;stroke-linejoin:miter;stroke-miterlimit:10;stroke-dasharray:none;stroke-opacity:1"
       id="path15733" /><text
       transform="scale(1,-1)"
       style="font-variant:normal;font-weight:normal;font-size:18.025px;font-family:AvenirNextLTPro;-inkscape-font-specification:AvenirNextLTPro;writing-mode:lr-tb;fill:#00bac8;fill-opacity:1;fill-rule:nonzero;stroke:none"
       id="text15745"
       x="460.26999"
       y="-265.13"><tspan
         x="460.26999 469.26447 478.24094 489.48853"
         y="-265.13"
         sodipodi:role="line"
         id="tspan15743">Type</tspan></text><text
       transform="scale(1,-1)"
       style="font-variant:normal;font-weight:normal;font-size:18.025px;font-family:AvenirNextLTPro;-inkscape-font-specification:AvenirNextLTPro;writing-mode:lr-tb;fill:#000000;fill-opacity:1;fill-rule:nonzero;stroke:none"
       id="text15757"
       x="466.76999"
       y="-230.5"><tspan
         x="466.76999 473.49332 483.98389 495.23148"
         y="-230.5"
         sodipodi:role="line"
         id="tspan15755">red,</tspan></text><path
       d="m 280.88,379.12 c 0,4.35 0.58,7.88 1.31,7.88 h 86.25 c 0.72,0 1.31,3.53 1.31,7.87 0,-4.34 0.59,-7.87 1.31,-7.87 h 86.25 c 0.73,0 1.32,-3.53 1.32,-7.88"
       style="fill:none;stroke:#00bac8;stroke-width:0.5;stroke-linecap:butt;stroke-linejoin:miter;stroke-miterlimit:10;stroke-dasharray:none;stroke-opacity:1"
       id="path15767" /><text
       transform="scale(1,-1)"
       style="font-variant:normal;font-weight:normal;font-size:18.025px;font-family:AvenirNextLTPro;-inkscape-font-specification:AvenirNextLTPro;writing-mode:lr-tb;fill:#00bac8;fill-opacity:1;fill-rule:nonzero;stroke:none"
       id="text15779"
       x="323.57999"
       y="-402.07999"><tspan
         x="323.57999 334.08856 338.59482 354.3667 364.87527 373.13074 379.13306 388.88458 404.65643"
         y="-402.07999"
         sodipodi:role="line"
         id="tspan15777">Timestamp</tspan></text><text
       transform="scale(1,-1)"
       style="font-variant:normal;font-weight:normal;font-size:18.025px;font-family:AvenirNextLTPro;-inkscape-font-specification:AvenirNextLTPro;writing-mode:lr-tb;fill:#000000;fill-opacity:1;fill-rule:nonzero;stroke:none"
       id="text15791"
       x="281.79999"
       y="-364.95001"><tspan
         x="281.79999 292.25449 299.03189 309.48639 316.26379 326.71829 337.2449 347.6994 358.22601 362.73224 373.18674 378.46808 388.92258 399.44919 404.69446 415.14896 425.67554 430.18179 440.63629 456.42621"
         y="-364.95001"
         sodipodi:role="line"
         id="tspan15789">9/7/2023 2:46:08 PM,</tspan></text><path
       d="m 822.38,377.62 c 0,4.98 0.67,9 1.49,9 h 10.88 c 0.83,0 1.5,4.03 1.5,9 0,-4.97 0.67,-9 1.5,-9 h 10.88 c 0.82,0 1.5,-4.02 1.5,-9"
       style="fill:none;stroke:#00bac8;stroke-width:0.5;stroke-linecap:butt;stroke-linejoin:miter;stroke-miterlimit:10;stroke-dasharray:none;stroke-opacity:1"
       id="path15801" /><text
       transform="scale(1,-1)"
       style="font-variant:normal;font-weight:normal;font-size:18.025px;font-family:AvenirNextLTPro;-inkscape-font-specification:AvenirNextLTPro;writing-mode:lr-tb;fill:#00bac8;fill-opacity:1;fill-rule:nonzero;stroke:none"
       id="text15813"
       x="777.84998"
       y="-402.07999"><tspan
         x="777.84998 782.39227 793.60382 804.88751 816.17114 826.67975 833.40308 843.92963 854.43823 861.16156 869.41699 873.92328 884.44983"
         y="-402.07999"
         sodipodi:role="line"
         id="tspan15811">loggerVersion</tspan></text><text
       transform="scale(1,-1)"
       style="font-variant:normal;font-weight:normal;font-size:18.025px;font-family:AvenirNextLTPro;-inkscape-font-specification:AvenirNextLTPro;writing-mode:lr-tb;fill:#000000;fill-opacity:1;fill-rule:nonzero;stroke:none"
       id="text15825"
       x="823.53003"
       y="-364.95001"><tspan
         x="823.53003 833.9845 838.52679 848.98132"
         y="-364.95001"
         sodipodi:role="line"
         id="tspan15823">1.3,</tspan></text><path
       d="m 64.125,379.87 c 0,4.15 0.56,7.5 1.25,7.5 h 66.875 c 0.69,0 1.25,3.36 1.25,7.5 0,-4.14 0.56,-7.5 1.25,-7.5 h 66.87 c 0.7,0 1.26,-3.35 1.26,-7.5"
       style="fill:none;stroke:#00bac8;stroke-width:0.5;stroke-linecap:butt;stroke-linejoin:miter;stroke-miterlimit:10;stroke-dasharray:none;stroke-opacity:1"
       id="path15835" /><text
       transform="scale(1,-1)"
       style="font-variant:normal;font-weight:normal;font-size:18.025px;font-family:AvenirNextLTPro;-inkscape-font-specification:AvenirNextLTPro;writing-mode:lr-tb;fill:#00bac8;fill-opacity:1;fill-rule:nonzero;stroke:none"
       id="text15847"
       x="112.9"
       y="-402.07999"><tspan
         x="112.9 121.89448 130.87093 142.11853"
         y="-402.07999"
         sodipodi:role="line"
         id="tspan15845">Type</tspan></text><text
       transform="scale(1,-1)"
       style="font-variant:normal;font-weight:normal;font-size:18.025px;font-family:AvenirNextLTPro;-inkscape-font-specification:AvenirNextLTPro;writing-mode:lr-tb;fill:#000000;fill-opacity:1;fill-rule:nonzero;stroke:none"
       id="text15859"
       x="66.199997"
       y="-364.95001"><tspan
         x="66.199997 75.969551 88.731247 102.98902 112.00153 122.49207 133.01868 142.01315 152.53975 165.31947 175.82805 186.35464 199.13437"
         y="-364.95001"
         sodipodi:role="line"
         id="tspan15857">TAG_SELECTED,</tspan></text><path
       d="m 208.13,379.87 c 0,3.73 0.5,6.75 1.12,6.75 h 30 c 0.62,0 1.13,3.03 1.13,6.75 0,-3.72 0.5,-6.75 1.12,-6.75 h 30 c 0.62,0 1.13,-3.02 1.13,-6.75"
       style="fill:none;stroke:#00bac8;stroke-width:0.5;stroke-linecap:butt;stroke-linejoin:miter;stroke-miterlimit:10;stroke-dasharray:none;stroke-opacity:1"
       id="path15869" /><text
       transform="scale(1,-1)"
       style="font-variant:normal;font-weight:normal;font-size:18.025px;font-family:AvenirNextLTPro;-inkscape-font-specification:AvenirNextLTPro;writing-mode:lr-tb;fill:#00bac8;fill-opacity:1;fill-rule:nonzero;stroke:none"
       id="text15881"
       x="186.03"
       y="-402.07999"><tspan
         x="186.03 196.52055 201.06285 210.7603 222.0079 230.24533 240.73587 251.98347 262.47403 266.98029 282.71609"
         y="-402.07999"
         sodipodi:role="line"
         id="tspan15879">elapsedTime</tspan></text><text
       transform="scale(1,-1)"
       style="font-variant:normal;font-weight:normal;font-size:18.025px;font-family:AvenirNextLTPro;-inkscape-font-specification:AvenirNextLTPro;writing-mode:lr-tb;fill:#000000;fill-opacity:1;fill-rule:nonzero;stroke:none"
       id="text15893"
       x="208.67999"
       y="-364.95001"><tspan
         x="208.67999 219.17999 229.67999 240.17999 250.67999 261.17999 271.67999"
         y="-364.95001"
         sodipodi:role="line"
         id="tspan15891">272063,</tspan></text><path
       d="m 463.88,379.87 c 0,4.15 0.55,7.5 1.24,7.5 h 172.26 c 0.69,0 1.25,3.36 1.25,7.5 0,-4.14 0.55,-7.5 1.24,-7.5 h 172.26 c 0.69,0 1.25,-3.35 1.25,-7.5"
       style="fill:none;stroke:#00bac8;stroke-width:0.5;stroke-linecap:butt;stroke-linejoin:miter;stroke-miterlimit:10;stroke-dasharray:none;stroke-opacity:1"
       id="path15903" /><text
       transform="scale(1,-1)"
       style="font-variant:normal;font-weight:normal;font-size:18.025px;font-family:AvenirNextLTPro;-inkscape-font-specification:AvenirNextLTPro;writing-mode:lr-tb;fill:#00bac8;fill-opacity:1;fill-rule:nonzero;stroke:none"
       id="text15915"
       x="599.22998"
       y="-402.07999"><tspan
         x="599.22998 609.72052 620.21112 628.44855 636.68597 641.1922 652.42175 662.89429 667.41858"
         y="-402.07999"
         sodipodi:role="line"
         id="tspan15913">SessionId</tspan></text><text
       transform="scale(1,-1)"
       style="font-variant:normal;font-weight:normal;font-size:18.025px;font-family:AvenirNextLTPro;-inkscape-font-specification:AvenirNextLTPro;writing-mode:lr-tb;fill:#000000;fill-opacity:1;fill-rule:nonzero;stroke:none"
       id="text15927"
       x="467.63"
       y="-364.95001"><tspan
         x="467.63 478.0845 489.38617 499.84067 510.36728 520.82178 530.59131 541.04584"
         y="-364.95001"
         sodipodi:role="line"
         id="tspan15925">0b630a14</tspan></text><text
       transform="scale(1,-1)"
       style="font-variant:normal;font-weight:normal;font-size:18.025px;font-family:AvenirNextLTPro;-inkscape-font-specification:AvenirNextLTPro;writing-mode:lr-tb;fill:#000000;fill-opacity:1;fill-rule:nonzero;stroke:none"
       id="text15939"
       x="551.66998"
       y="-364.95001"><tspan
         x="551.66998"
         y="-364.95001"
         id="tspan15937">-</tspan></text><text
       transform="scale(1,-1)"
       style="font-variant:normal;font-weight:normal;font-size:18.025px;font-family:AvenirNextLTPro;-inkscape-font-specification:AvenirNextLTPro;writing-mode:lr-tb;fill:#000000;fill-opacity:1;fill-rule:nonzero;stroke:none"
       id="text15951"
       x="557.66998"
       y="-364.95001"><tspan
         x="557.66998 568.17859 577.93011 586.94263"
         y="-364.95001"
         sodipodi:role="line"
         id="tspan15949">5acd</tspan></text><text
       transform="scale(1,-1)"
       style="font-variant:normal;font-weight:normal;font-size:18.025px;font-family:AvenirNextLTPro;-inkscape-font-specification:AvenirNextLTPro;writing-mode:lr-tb;fill:#000000;fill-opacity:1;fill-rule:nonzero;stroke:none"
       id="text15963"
       x="598.21997"
       y="-364.95001"><tspan
         x="598.21997"
         y="-364.95001"
         id="tspan15961">-</tspan></text><text
       transform="scale(1,-1)"
       style="font-variant:normal;font-weight:normal;font-size:18.025px;font-family:AvenirNextLTPro;-inkscape-font-specification:AvenirNextLTPro;writing-mode:lr-tb;fill:#000000;fill-opacity:1;fill-rule:nonzero;stroke:none"
       id="text15975"
       x="604.21997"
       y="-364.95001"><tspan
         x="604.21997 614.6745 625.20111 635.65558"
         y="-364.95001"
         sodipodi:role="line"
         id="tspan15973">4e11</tspan></text><text
       transform="scale(1,-1)"
       style="font-variant:normal;font-weight:normal;font-size:18.025px;font-family:AvenirNextLTPro;-inkscape-font-specification:AvenirNextLTPro;writing-mode:lr-tb;fill:#000000;fill-opacity:1;fill-rule:nonzero;stroke:none"
       id="text15987"
       x="646.25"
       y="-364.95001"><tspan
         x="646.25"
         y="-364.95001"
         id="tspan15985">-</tspan></text><text
       transform="scale(1,-1)"
       style="font-variant:normal;font-weight:normal;font-size:18.025px;font-family:AvenirNextLTPro;-inkscape-font-specification:AvenirNextLTPro;writing-mode:lr-tb;fill:#000000;fill-opacity:1;fill-rule:nonzero;stroke:none"
       id="text15999"
       x="652.25"
       y="-364.95001"><tspan
         x="652.25 662.75854 673.26715 684.55078"
         y="-364.95001"
         sodipodi:role="line"
         id="tspan15997">99df</tspan></text><text
       transform="scale(1,-1)"
       style="font-variant:normal;font-weight:normal;font-size:18.025px;font-family:AvenirNextLTPro;-inkscape-font-specification:AvenirNextLTPro;writing-mode:lr-tb;fill:#000000;fill-opacity:1;fill-rule:nonzero;stroke:none"
       id="text16011"
       x="689.78003"
       y="-364.95001"><tspan
         x="689.78003"
         y="-364.95001"
         id="tspan16009">-</tspan></text><text
       transform="scale(1,-1)"
       style="font-variant:normal;font-weight:normal;font-size:18.025px;font-family:AvenirNextLTPro;-inkscape-font-specification:AvenirNextLTPro;writing-mode:lr-tb;fill:#000000;fill-opacity:1;fill-rule:nonzero;stroke:none"
       id="text16023"
       x="695.79999"
       y="-364.95001"><tspan
         x="695.79999 706.25452 711.5719 722.02637 732.53497 743.78253 754.23706 764.76367 775.21814 780.53552 790.99005 801.4986 811.95312"
         y="-364.95001"
         sodipodi:role="line"
         id="tspan16021">8f59d804f807,</tspan></text></g></svg>
