<?xml version="1.0" encoding="UTF-8" standalone="no"?>
<svg
   xmlns:dc="http://purl.org/dc/elements/1.1/"
   xmlns:cc="http://creativecommons.org/ns#"
   xmlns:rdf="http://www.w3.org/1999/02/22-rdf-syntax-ns#"
   xmlns:svg="http://www.w3.org/2000/svg"
   xmlns="http://www.w3.org/2000/svg"
   xmlns:sodipodi="http://sodipodi.sourceforge.net/DTD/sodipodi-0.dtd"
   xmlns:inkscape="http://www.inkscape.org/namespaces/inkscape"
   version="1.1"
   id="svg15136"
   xml:space="preserve"
   width="1280"
   height="720"
   viewBox="0 0 1280 720"
   sodipodi:docname="frvrs_data_and_analysis_presentation_for_itm_slide018.svg"
   inkscape:version="1.0.2-2 (e86c870879, 2021-01-15)"
   inkscape:export-filename="C:\Users\DaveBabbitt\Documents\GitHub\itm-analysis-reporting\saves\png\frvrs_data_and_analysis_presentation_for_itm\slide018.png"
   inkscape:export-xdpi="96"
   inkscape:export-ydpi="96"><metadata
     id="metadata15142"><rdf:RDF><cc:Work
         rdf:about=""><dc:format>image/svg+xml</dc:format><dc:type
           rdf:resource="http://purl.org/dc/dcmitype/StillImage" /><dc:title></dc:title></cc:Work></rdf:RDF></metadata><defs
     id="defs15140"><clipPath
       clipPathUnits="userSpaceOnUse"
       id="clipPath15152"><path
         d="M 0,1.2207e-4 H 960 V 540.00012 H 0 Z"
         clip-rule="evenodd"
         id="path15150" /></clipPath><clipPath
       clipPathUnits="userSpaceOnUse"
       id="clipPath15162"><path
         d="M 0,1.2207e-4 H 960 V 540.00012 H 0 Z"
         clip-rule="evenodd"
         id="path15160" /></clipPath><linearGradient
       x1="73.199997"
       y1="453.48001"
       x2="860.45001"
       y2="453.48001"
       gradientUnits="userSpaceOnUse"
       spreadMethod="pad"
       id="linearGradient15172"><stop
         style="stop-opacity:1;stop-color:#00bac8"
         offset="0"
         id="stop15168" /><stop
         style="stop-opacity:1;stop-color:#203040"
         offset="1"
         id="stop15170" /></linearGradient><clipPath
       clipPathUnits="userSpaceOnUse"
       id="clipPath15182"><path
         d="m 72.75,435.75 h 787.5 v 33 H 72.75 Z"
         clip-rule="evenodd"
         id="path15180" /></clipPath><clipPath
       clipPathUnits="userSpaceOnUse"
       id="clipPath15194"><path
         d="M 1.2207e-4,540 H 960 V 1.8311e-4 H 1.8311e-4"
         clip-rule="evenodd"
         id="path15192" /></clipPath><clipPath
       clipPathUnits="userSpaceOnUse"
       id="clipPath15204"><path
         d="M 1.4305e-5,0 H 960.00001 V 540 H 1.4305e-5 Z"
         clip-rule="evenodd"
         id="path15202" /></clipPath><clipPath
       clipPathUnits="userSpaceOnUse"
       id="clipPath15216"><path
         d="M 1.4305e-5,0 H 960.00001 V 540 H 1.4305e-5 Z"
         clip-rule="evenodd"
         id="path15214" /></clipPath><clipPath
       clipPathUnits="userSpaceOnUse"
       id="clipPath15228"><path
         d="M 1.5259e-5,540 H 960 V 1.8311e-4 L 3.0518e-5,1.2207e-4"
         clip-rule="evenodd"
         id="path15226" /></clipPath><clipPath
       clipPathUnits="userSpaceOnUse"
       id="clipPath15238"><path
         d="M 1.4305e-5,0 H 960.00001 V 540 H 1.4305e-5 Z"
         clip-rule="evenodd"
         id="path15236" /></clipPath><clipPath
       clipPathUnits="userSpaceOnUse"
       id="clipPath15250"><path
         d="M 1.4305e-5,0 H 960.00001 V 540 H 1.4305e-5 Z"
         clip-rule="evenodd"
         id="path15248" /></clipPath><clipPath
       clipPathUnits="userSpaceOnUse"
       id="clipPath15262"><path
         d="M 3.0518e-5,540 H 960 V 1.8311e-4 L 6.1035e-5,1.2207e-4"
         clip-rule="evenodd"
         id="path15260" /></clipPath><clipPath
       clipPathUnits="userSpaceOnUse"
       id="clipPath15272"><path
         d="M 1.4305e-5,0 H 960.00001 V 540 H 1.4305e-5 Z"
         clip-rule="evenodd"
         id="path15270" /></clipPath><clipPath
       clipPathUnits="userSpaceOnUse"
       id="clipPath15284"><path
         d="M 1.4305e-5,0 H 960.00001 V 540 H 1.4305e-5 Z"
         clip-rule="evenodd"
         id="path15282" /></clipPath><clipPath
       clipPathUnits="userSpaceOnUse"
       id="clipPath15296"><path
         d="M 9.1553e-5,540 H 960 V 2.4414e-4 L 1.2207e-4,1.8311e-4"
         clip-rule="evenodd"
         id="path15294" /></clipPath><clipPath
       clipPathUnits="userSpaceOnUse"
       id="clipPath15306"><path
         d="M 1.4305e-5,0 H 960.00001 V 540 H 1.4305e-5 Z"
         clip-rule="evenodd"
         id="path15304" /></clipPath><clipPath
       clipPathUnits="userSpaceOnUse"
       id="clipPath15318"><path
         d="M 1.4305e-5,0 H 960.00001 V 540 H 1.4305e-5 Z"
         clip-rule="evenodd"
         id="path15316" /></clipPath><clipPath
       clipPathUnits="userSpaceOnUse"
       id="clipPath15330"><path
         d="M 1.2207e-4,540 H 960 V 1.8311e-4 L 1.8311e-4,1.2207e-4"
         clip-rule="evenodd"
         id="path15328" /></clipPath><clipPath
       clipPathUnits="userSpaceOnUse"
       id="clipPath15340"><path
         d="M 1.4305e-5,0 H 960.00001 V 540 H 1.4305e-5 Z"
         clip-rule="evenodd"
         id="path15338" /></clipPath><clipPath
       clipPathUnits="userSpaceOnUse"
       id="clipPath15352"><path
         d="M 1.4305e-5,0 H 960.00001 V 540 H 1.4305e-5 Z"
         clip-rule="evenodd"
         id="path15350" /></clipPath><clipPath
       clipPathUnits="userSpaceOnUse"
       id="clipPath15364"><path
         d="M 1.4305e-5,0 H 960.00001 V 540 H 1.4305e-5 Z"
         clip-rule="evenodd"
         id="path15362" /></clipPath><clipPath
       clipPathUnits="userSpaceOnUse"
       id="clipPath15376"><path
         d="M 1.4305e-5,0 H 960.00001 V 540 H 1.4305e-5 Z"
         clip-rule="evenodd"
         id="path15374" /></clipPath><clipPath
       clipPathUnits="userSpaceOnUse"
       id="clipPath15388"><path
         d="M 1.4305e-5,0 H 960.00001 V 540 H 1.4305e-5 Z"
         clip-rule="evenodd"
         id="path15386" /></clipPath><clipPath
       clipPathUnits="userSpaceOnUse"
       id="clipPath15400"><path
         d="M 1.4305e-5,0 H 960.00001 V 540 H 1.4305e-5 Z"
         clip-rule="evenodd"
         id="path15398" /></clipPath><clipPath
       clipPathUnits="userSpaceOnUse"
       id="clipPath15412"><path
         d="M 1.4305e-5,0 H 960.00001 V 540 H 1.4305e-5 Z"
         clip-rule="evenodd"
         id="path15410" /></clipPath><clipPath
       clipPathUnits="userSpaceOnUse"
       id="clipPath15424"><path
         d="M 1.4305e-5,0 H 960.00001 V 540 H 1.4305e-5 Z"
         clip-rule="evenodd"
         id="path15422" /></clipPath><clipPath
       clipPathUnits="userSpaceOnUse"
       id="clipPath15436"><path
         d="M 1.4305e-5,0 H 960.00001 V 540 H 1.4305e-5 Z"
         clip-rule="evenodd"
         id="path15434" /></clipPath><clipPath
       clipPathUnits="userSpaceOnUse"
       id="clipPath15448"><path
         d="M 1.4305e-5,0 H 960.00001 V 540 H 1.4305e-5 Z"
         clip-rule="evenodd"
         id="path15446" /></clipPath><clipPath
       clipPathUnits="userSpaceOnUse"
       id="clipPath15460"><path
         d="M 6.1035e-5,540 H 960 V 1.8311e-4 L 9.1553e-5,1.2207e-4"
         clip-rule="evenodd"
         id="path15458" /></clipPath><clipPath
       clipPathUnits="userSpaceOnUse"
       id="clipPath15470"><path
         d="M 1.4305e-5,0 H 960.00001 V 540 H 1.4305e-5 Z"
         clip-rule="evenodd"
         id="path15468" /></clipPath><clipPath
       clipPathUnits="userSpaceOnUse"
       id="clipPath15482"><path
         d="M 1.4305e-5,0 H 960.00001 V 540 H 1.4305e-5 Z"
         clip-rule="evenodd"
         id="path15480" /></clipPath><clipPath
       clipPathUnits="userSpaceOnUse"
       id="clipPath15494"><path
         d="M 6.1035e-5,540 H 960 V 1.8311e-4 L 1.2207e-4,1.2207e-4"
         clip-rule="evenodd"
         id="path15492" /></clipPath><clipPath
       clipPathUnits="userSpaceOnUse"
       id="clipPath15504"><path
         d="M 1.4305e-5,0 H 960.00001 V 540 H 1.4305e-5 Z"
         clip-rule="evenodd"
         id="path15502" /></clipPath><clipPath
       clipPathUnits="userSpaceOnUse"
       id="clipPath15516"><path
         d="M 1.4305e-5,0 H 960.00001 V 540 H 1.4305e-5 Z"
         clip-rule="evenodd"
         id="path15514" /></clipPath></defs><sodipodi:namedview
     pagecolor="#ffffff"
     bordercolor="#666666"
     borderopacity="1"
     objecttolerance="10"
     gridtolerance="10"
     guidetolerance="10"
     inkscape:pageopacity="0"
     inkscape:pageshadow="2"
     inkscape:window-width="1920"
     inkscape:window-height="1121"
     id="namedview15138"
     showgrid="false"
     inkscape:zoom="0.99765625"
     inkscape:cx="640"
     inkscape:cy="360"
     inkscape:window-x="-9"
     inkscape:window-y="611"
     inkscape:window-maximized="1"
     inkscape:current-layer="g15144" /><g
     id="g15144"
     inkscape:groupmode="layer"
     inkscape:label="FRVRS - Data and Analysis Presentation for ITM"
     transform="matrix(1.3333333,0,0,-1.3333333,0,720)"><path
       d="M 0,6.1035e-5 H 960 V 540.00006 H 0 Z"
       style="fill:#ffffff;fill-opacity:1;fill-rule:evenodd;stroke:none"
       id="path15154" /><path
       d="M 0,6.1035e-5 H 960 V 540.00006 H 0 Z"
       style="fill:#ffffff;fill-opacity:1;fill-rule:evenodd;stroke:none"
       id="path15164" /><path
       d="m 601.8,454.86 c -1.07,0 -1.95,-0.4 -2.64,-1.21 -0.56,-0.65 -0.84,-1.4 -0.84,-2.25 0,-0.84 0.28,-1.59 0.84,-2.24 0.68,-0.81 1.56,-1.22 2.64,-1.22 0.97,0 1.8,0.34 2.47,1 0.67,0.67 1.01,1.49 1.01,2.46 0,0.97 -0.34,1.78 -1.02,2.46 -0.68,0.67 -1.5,1 -2.46,1 z m -39,0 c -1.07,0 -1.95,-0.4 -2.64,-1.21 -0.56,-0.65 -0.84,-1.4 -0.84,-2.25 0,-0.84 0.28,-1.59 0.84,-2.24 0.68,-0.81 1.56,-1.22 2.64,-1.22 0.97,0 1.8,0.34 2.47,1 0.67,0.67 1.01,1.49 1.01,2.46 0,0.97 -0.34,1.78 -1.02,2.46 -0.68,0.67 -1.5,1 -2.46,1 z m -136.5,0 c -1.07,0 -1.95,-0.4 -2.64,-1.21 -0.56,-0.65 -0.84,-1.4 -0.84,-2.25 0,-0.84 0.28,-1.59 0.84,-2.24 0.68,-0.81 1.56,-1.22 2.64,-1.22 0.97,0 1.8,0.34 2.47,1 0.67,0.67 1.01,1.49 1.01,2.46 0,0.97 -0.34,1.78 -1.02,2.46 -0.68,0.67 -1.5,1 -2.46,1 z m -213.75,0 c -1.07,0 -1.95,-0.4 -2.64,-1.21 -0.56,-0.65 -0.84,-1.4 -0.84,-2.25 0,-0.84 0.28,-1.59 0.84,-2.24 0.68,-0.81 1.56,-1.22 2.64,-1.22 0.97,0 1.8,0.34 2.47,1 0.67,0.67 1.01,1.49 1.01,2.46 0,0.97 -0.34,1.78 -1.02,2.46 -0.68,0.67 -1.5,1 -2.46,1 z m -113.251,0 c -1.071,0 -1.952,-0.4 -2.64,-1.21 -0.558,-0.65 -0.837,-1.4 -0.837,-2.25 0,-0.84 0.279,-1.59 0.837,-2.24 0.677,-0.81 1.558,-1.22 2.64,-1.22 0.971,0 1.801,0.34 2.471,1 0.67,0.67 1.01,1.49 1.01,2.46 0,0.97 -0.34,1.78 -1.02,2.46 -0.68,0.67 -1.5,1 -2.461,1 z m 523.731,0.02 c -0.96,0 -1.78,-0.34 -2.46,-1.01 -0.68,-0.68 -1.02,-1.51 -1.02,-2.47 0,-0.97 0.34,-1.8 1.02,-2.47 0.68,-0.68 1.5,-1.02 2.46,-1.02 1.08,0 1.96,0.41 2.64,1.22 0.56,0.67 0.84,1.43 0.84,2.27 0,0.84 -0.28,1.6 -0.84,2.26 -0.69,0.81 -1.57,1.22 -2.64,1.22 z m -334.73,0 c -1.07,0 -1.95,-0.41 -2.64,-1.22 -0.56,-0.66 -0.84,-1.42 -0.84,-2.26 0,-0.85 0.28,-1.61 0.84,-2.27 0.68,-0.81 1.56,-1.22 2.64,-1.22 0.97,0 1.8,0.34 2.47,1.01 0.67,0.67 1.01,1.5 1.01,2.48 0,0.96 -0.34,1.79 -1.02,2.47 -0.68,0.67 -1.5,1.01 -2.46,1.01 z m -40.5,0 c -1.07,0 -1.95,-0.41 -2.64,-1.22 -0.56,-0.66 -0.84,-1.42 -0.84,-2.26 0,-0.85 0.28,-1.61 0.84,-2.27 0.68,-0.81 1.56,-1.22 2.64,-1.22 0.97,0 1.8,0.34 2.47,1.01 0.67,0.67 1.01,1.5 1.01,2.48 0,0.96 -0.34,1.79 -1.02,2.47 -0.68,0.67 -1.5,1.01 -2.46,1.01 z m 489.1,0.08 c -1.12,0 -2.03,-0.42 -2.73,-1.25 -0.56,-0.68 -0.85,-1.44 -0.85,-2.31 0,-0.87 0.29,-1.64 0.85,-2.31 0.7,-0.84 1.61,-1.26 2.73,-1.26 0.99,0 1.84,0.34 2.52,1.03 0.69,0.69 1.04,1.54 1.04,2.54 0,1 -0.35,1.84 -1.04,2.53 -0.7,0.69 -1.54,1.03 -2.52,1.03 z m -269.25,0 c -1.12,0 -2.03,-0.42 -2.72,-1.25 -0.57,-0.68 -0.86,-1.44 -0.86,-2.31 0,-0.87 0.29,-1.64 0.86,-2.31 0.69,-0.84 1.6,-1.26 2.72,-1.26 0.99,0 1.84,0.34 2.52,1.03 0.69,0.69 1.04,1.54 1.04,2.54 0,1 -0.35,1.84 -1.04,2.53 -0.7,0.69 -1.54,1.03 -2.52,1.03 z m -105.75,0 c -1.12,0 -2.03,-0.42 -2.72,-1.25 -0.57,-0.68 -0.86,-1.44 -0.86,-2.31 0,-0.87 0.29,-1.64 0.86,-2.31 0.69,-0.84 1.6,-1.26 2.72,-1.26 0.99,0 1.84,0.34 2.52,1.03 0.69,0.69 1.04,1.54 1.04,2.54 0,1 -0.35,1.84 -1.04,2.53 -0.7,0.69 -1.54,1.03 -2.52,1.03 z m 395.9,0.07 c -1.08,0 -1.97,-0.42 -2.66,-1.25 -0.54,-0.67 -0.82,-1.45 -0.82,-2.33 0,-0.97 0.34,-1.81 1.01,-2.51 0.67,-0.7 1.5,-1.05 2.47,-1.05 0.96,0 1.78,0.35 2.45,1.05 0.67,0.7 1.01,1.54 1.01,2.51 0,0.98 -0.33,1.82 -1,2.52 -0.67,0.71 -1.49,1.06 -2.46,1.06 z m -637.5,0 c -1.08,0 -1.97,-0.42 -2.66,-1.25 -0.54,-0.67 -0.82,-1.45 -0.82,-2.33 0,-0.97 0.34,-1.81 1.01,-2.51 0.67,-0.7 1.5,-1.05 2.47,-1.05 0.96,0 1.78,0.35 2.45,1.05 0.67,0.7 1.01,1.54 1.01,2.51 0,0.98 -0.33,1.82 -1,2.52 -0.67,0.71 -1.49,1.06 -2.46,1.06 z m 532.1,1.04 c -0.91,0 -1.66,-0.28 -2.23,-0.83 -0.44,-0.43 -0.73,-1.02 -0.85,-1.76 h 6.15 c -0.38,1.73 -1.41,2.59 -3.07,2.59 z m -384,0 c -0.91,0 -1.66,-0.28 -2.23,-0.83 -0.44,-0.43 -0.73,-1.02 -0.85,-1.76 h 6.15 c -0.38,1.73 -1.41,2.59 -3.07,2.59 z m 571.3,2.98 h 6.28 l 4.09,-7.84 3.97,7.84 h 6.19 l -12.27,-22.94 h -6.07 l 5.19,9.74 z m -166.17,0 h 5.42 v -15.29 h -5.42 z m -98.25,0 h 5.42 v -15.29 h -5.42 z m -42.33,0 h 6.08 l 3.66,-7.84 3.67,7.84 h 6.05 l -7.96,-15.29 h -3.61 z m -82.92,0 h 5.42 v -15.29 h -5.42 z m -284.25,0 h 5.42 v -15.29 h -5.42 z m 671.93,0.21 c 0.29,0 0.64,-0.01 1.06,-0.04 v -5.15 c -0.76,0.37 -1.53,0.55 -2.31,0.55 -1.77,0 -2.92,-0.73 -3.45,-2.19 -0.19,-0.53 -0.29,-1.24 -0.29,-2.13 v -6.54 h -5.42 v 15.29 h 5.42 v -2.5 c 0.57,0.89 1.18,1.53 1.84,1.92 0.89,0.53 1.94,0.79 3.15,0.79 z m -453,0 c 0.29,0 0.64,-0.01 1.06,-0.04 v -5.15 c -0.76,0.37 -1.53,0.55 -2.31,0.55 -1.77,0 -2.92,-0.73 -3.45,-2.19 -0.19,-0.53 -0.29,-1.24 -0.29,-2.13 v -6.54 h -5.42 v 15.29 h 5.42 v -2.5 c 0.57,0.89 1.18,1.53 1.84,1.92 0.89,0.53 1.94,0.79 3.15,0.79 z m -149.25,0 c 0.29,0 0.64,-0.01 1.06,-0.04 v -5.15 c -0.76,0.37 -1.53,0.55 -2.31,0.55 -1.77,0 -2.92,-0.73 -3.45,-2.19 -0.19,-0.53 -0.29,-1.24 -0.29,-2.13 v -6.54 h -5.42 v 15.29 h 5.42 v -2.5 c 0.57,0.89 1.18,1.53 1.84,1.92 0.89,0.53 1.94,0.79 3.15,0.79 z m 285.52,0.04 -2.46,-7.17 h 4.88 z m -111.71,0.01 c 1.14,0 2.16,-0.27 3.05,-0.82 0.96,-0.6 1.59,-1.42 1.88,-2.46 0.18,-0.62 0.27,-1.4 0.27,-2.34 v -9.93 h -5.42 v 7.55 c 0,1.32 -0.14,2.22 -0.42,2.7 -0.4,0.71 -1.01,1.07 -1.83,1.07 -0.9,0 -1.59,-0.39 -2.07,-1.17 -0.34,-0.55 -0.51,-1.41 -0.51,-2.6 v -7.55 h -5.42 v 7.55 c 0,1.32 -0.11,2.17 -0.33,2.57 -0.44,0.79 -1.12,1.18 -2.03,1.18 -0.85,0 -1.51,-0.34 -1.98,-1.02 -0.17,-0.24 -0.3,-0.57 -0.38,-0.99 -0.07,-0.43 -0.11,-1 -0.11,-1.74 v -7.55 h -5.42 v 15.29 h 5.42 v -1.88 c 0.64,0.62 1.22,1.07 1.75,1.35 0.95,0.52 2.02,0.78 3.2,0.78 1.51,0 2.76,-0.39 3.76,-1.17 0.51,-0.4 0.99,-0.96 1.46,-1.68 0.41,0.68 0.88,1.22 1.4,1.61 1.09,0.84 2.33,1.25 3.73,1.25 z m 397.63,0.07 c 1.65,0 2.99,-0.44 4.02,-1.33 1.17,-1.02 1.76,-2.53 1.76,-4.55 v -9.74 h -5.42 v 7.73 c 0,1.35 -0.16,2.25 -0.46,2.68 -0.45,0.65 -1.12,0.97 -2.02,0.97 -0.81,0 -1.5,-0.27 -2.06,-0.83 -0.5,-0.5 -0.75,-1.29 -0.75,-2.36 v -8.19 h -5.42 v 15.29 h 5.42 v -1.93 c 0.62,0.73 1.2,1.24 1.73,1.54 0.85,0.48 1.92,0.72 3.2,0.72 z m -114,0 c 1.65,0 2.99,-0.44 4.02,-1.33 1.17,-1.02 1.76,-2.53 1.76,-4.55 v -9.74 h -5.42 v 7.73 c 0,1.35 -0.16,2.25 -0.46,2.68 -0.45,0.65 -1.12,0.97 -2.02,0.97 -0.81,0 -1.5,-0.27 -2.06,-0.83 -0.5,-0.5 -0.75,-1.29 -0.75,-2.36 v -8.19 h -5.42 v 15.29 h 5.42 v -1.93 c 0.62,0.73 1.2,1.24 1.73,1.54 0.85,0.48 1.92,0.72 3.2,0.72 z m -202.5,0 c 1.65,0 2.99,-0.44 4.02,-1.33 1.17,-1.02 1.76,-2.53 1.76,-4.55 v -9.74 h -5.42 v 7.73 c 0,1.35 -0.16,2.25 -0.46,2.68 -0.45,0.65 -1.12,0.97 -2.02,0.97 -0.81,0 -1.5,-0.27 -2.06,-0.83 -0.5,-0.5 -0.75,-1.29 -0.75,-2.36 v -8.19 h -5.42 v 15.29 h 5.42 v -1.93 c 0.62,0.73 1.2,1.24 1.73,1.54 0.85,0.48 1.92,0.72 3.2,0.72 z m -158.25,0 c 1.65,0 2.99,-0.44 4.02,-1.33 1.17,-1.02 1.76,-2.53 1.76,-4.55 v -9.74 h -5.42 v 7.73 c 0,1.35 -0.16,2.25 -0.46,2.68 -0.45,0.65 -1.12,0.97 -2.02,0.97 -0.81,0 -1.5,-0.27 -2.06,-0.83 -0.5,-0.5 -0.75,-1.29 -0.75,-2.36 v -8.19 h -5.42 v 15.29 h 5.42 v -1.93 c 0.62,0.73 1.2,1.24 1.73,1.54 0.85,0.48 1.92,0.72 3.2,0.72 z m 424.27,0.1 c 1.11,0 2.1,-0.23 2.96,-0.68 0.52,-0.27 1.06,-0.72 1.62,-1.35 v 1.6 h 5.42 v -14.24 c 0,-1.34 -0.1,-2.42 -0.28,-3.24 -0.3,-1.32 -1.07,-2.5 -2.31,-3.55 -1.57,-1.32 -3.66,-1.97 -6.26,-1.97 -2.73,0 -4.9,0.71 -6.51,2.15 -1.08,0.96 -1.76,1.96 -2.06,3 -0.03,0.11 -0.08,0.34 -0.13,0.7 h 6.06 c 0.18,-0.5 0.41,-0.86 0.71,-1.08 0.48,-0.36 1.1,-0.54 1.85,-0.54 1.25,0 2.21,0.44 2.88,1.33 0.42,0.56 0.63,1.36 0.63,2.4 v 1.45 c -0.65,-0.6 -1.19,-1.02 -1.63,-1.26 -0.91,-0.5 -1.99,-0.76 -3.23,-0.76 -1.56,0 -2.95,0.41 -4.18,1.21 -1.26,0.82 -2.17,1.95 -2.71,3.38 -0.38,0.96 -0.56,2.01 -0.56,3.14 0,2.51 0.79,4.55 2.38,6.12 1.48,1.46 3.27,2.19 5.35,2.19 z m -104.23,0 c 3.33,0 5.71,-1.21 7.13,-3.63 0.81,-1.37 1.21,-2.95 1.21,-4.76 v -0.69 h -11.36 c 0,-2.3 1.11,-3.45 3.31,-3.45 1.13,0 1.99,0.49 2.59,1.45 h 5.24 c -0.41,-1.38 -1.03,-2.44 -1.84,-3.2 -1.47,-1.37 -3.45,-2.05 -5.92,-2.05 -3.14,0 -5.5,0.95 -7.08,2.87 -1.19,1.42 -1.78,3.16 -1.78,5.22 0,2.44 0.74,4.42 2.22,5.95 1.48,1.53 3.58,2.29 6.28,2.29 z m -384,0 c 3.33,0 5.71,-1.21 7.14,-3.63 0.8,-1.37 1.2,-2.95 1.2,-4.76 v -0.69 h -11.36 c 0,-2.3 1.11,-3.45 3.31,-3.45 1.13,0 1.99,0.49 2.59,1.45 h 5.24 c -0.41,-1.38 -1.03,-2.44 -1.84,-3.2 -1.47,-1.37 -3.45,-2.05 -5.92,-2.05 -3.14,0 -5.5,0.95 -7.08,2.87 -1.19,1.42 -1.78,3.16 -1.78,5.22 0,2.44 0.74,4.42 2.22,5.95 1.48,1.53 3.58,2.29 6.28,2.29 z m -149.27,0 c 1.11,0 2.1,-0.23 2.96,-0.68 0.52,-0.27 1.06,-0.72 1.62,-1.35 v 1.6 h 5.42 v -14.24 c 0,-1.34 -0.1,-2.42 -0.28,-3.24 -0.3,-1.32 -1.07,-2.5 -2.31,-3.55 -1.57,-1.32 -3.66,-1.97 -6.26,-1.97 -2.73,0 -4.9,0.71 -6.51,2.15 -1.08,0.96 -1.76,1.96 -2.06,3 -0.03,0.11 -0.08,0.34 -0.13,0.7 h 6.06 c 0.18,-0.5 0.41,-0.86 0.71,-1.08 0.48,-0.36 1.1,-0.54 1.85,-0.54 1.25,0 2.21,0.44 2.88,1.33 0.42,0.56 0.63,1.36 0.63,2.4 v 1.45 c -0.65,-0.6 -1.19,-1.02 -1.63,-1.26 -0.91,-0.5 -1.99,-0.76 -3.23,-0.76 -1.56,0 -2.95,0.41 -4.18,1.21 -1.26,0.82 -2.17,1.95 -2.71,3.38 -0.38,0.96 -0.56,2.01 -0.56,3.14 0,2.51 0.79,4.55 2.38,6.12 1.48,1.46 3.27,2.19 5.35,2.19 z m 481.44,0.05 c 1.08,0 2.1,-0.23 3.06,-0.68 0.54,-0.26 1.11,-0.69 1.69,-1.3 v 1.5 h 5.42 v -15.29 h -5.42 v 1.7 c -0.51,-0.65 -1.04,-1.13 -1.56,-1.42 -0.92,-0.52 -1.97,-0.78 -3.15,-0.78 -1.89,0 -3.58,0.66 -5.06,1.96 -1.77,1.56 -2.65,3.62 -2.65,6.19 0,2.61 0.9,4.7 2.71,6.26 1.44,1.24 3.09,1.86 4.96,1.86 z m -39,0 c 1.08,0 2.1,-0.23 3.06,-0.68 0.54,-0.26 1.11,-0.69 1.69,-1.3 v 1.5 h 5.42 v -15.29 h -5.42 v 1.7 c -0.51,-0.65 -1.04,-1.13 -1.56,-1.42 -0.92,-0.52 -1.97,-0.78 -3.15,-0.78 -1.89,0 -3.58,0.66 -5.06,1.96 -1.77,1.56 -2.65,3.62 -2.65,6.19 0,2.61 0.9,4.7 2.71,6.26 1.44,1.24 3.09,1.86 4.96,1.86 z m -136.5,0 c 1.08,0 2.1,-0.23 3.06,-0.68 0.54,-0.26 1.11,-0.69 1.69,-1.3 v 1.5 h 5.42 v -15.29 h -5.42 v 1.7 c -0.51,-0.65 -1.04,-1.13 -1.56,-1.42 -0.92,-0.52 -1.97,-0.78 -3.15,-0.78 -1.89,0 -3.58,0.66 -5.06,1.96 -1.77,1.56 -2.65,3.62 -2.65,6.19 0,2.61 0.9,4.7 2.71,6.26 1.44,1.24 3.09,1.86 4.96,1.86 z m -213.75,0 c 1.08,0 2.1,-0.23 3.06,-0.68 0.54,-0.26 1.11,-0.69 1.69,-1.3 v 1.5 h 5.42 v -15.29 h -5.42 v 1.7 c -0.51,-0.65 -1.04,-1.13 -1.56,-1.42 -0.92,-0.52 -1.97,-0.78 -3.15,-0.78 -1.89,0 -3.58,0.66 -5.06,1.96 -1.77,1.56 -2.65,3.62 -2.65,6.19 0,2.61 0.9,4.7 2.71,6.26 1.44,1.24 3.09,1.86 4.96,1.86 z m -13.31,0 c 1.26,0 2.43,-0.29 3.53,-0.86 v -4.6 c -0.95,0.67 -1.88,1.01 -2.79,1.01 -1.08,0 -1.96,-0.35 -2.67,-1.04 -0.7,-0.69 -1.05,-1.58 -1.05,-2.65 0,-1.08 0.35,-1.96 1.05,-2.66 0.71,-0.69 1.59,-1.03 2.67,-1.03 0.9,0 1.83,0.33 2.79,0.99 v -4.6 c -1.12,-0.56 -2.29,-0.84 -3.53,-0.84 -2.79,0 -5,0.94 -6.64,2.83 -1.31,1.53 -1.97,3.3 -1.97,5.31 0,2.02 0.66,3.79 1.97,5.3 1.64,1.89 3.85,2.84 6.64,2.84 z m -99.945,0 c 1.086,0 2.107,-0.23 3.065,-0.68 0.54,-0.26 1.11,-0.69 1.69,-1.3 v 1.5 h 5.42 v -15.29 h -5.42 v 1.7 c -0.51,-0.65 -1.04,-1.13 -1.56,-1.42 -0.92,-0.52 -1.971,-0.78 -3.145,-0.78 -1.899,0 -3.588,0.66 -5.069,1.96 -1.767,1.56 -2.65,3.62 -2.65,6.19 0,2.61 0.905,4.7 2.715,6.26 1.438,1.24 3.089,1.86 4.954,1.86 z m 83.975,0.06 c 1.71,0 3.36,-0.33 4.96,-0.98 l -1.83,-3.5 c -1,0.53 -1.97,0.79 -2.89,0.79 -1.08,0 -1.62,-0.37 -1.62,-1.13 0,-0.34 0.22,-0.62 0.66,-0.83 0.19,-0.1 0.77,-0.25 1.74,-0.44 1.41,-0.3 2.45,-0.77 3.12,-1.42 0.85,-0.81 1.27,-1.87 1.27,-3.16 0,-1.63 -0.58,-2.96 -1.75,-3.99 -1.31,-1.17 -3.15,-1.75 -5.52,-1.75 -2.1,0 -4.14,0.59 -6.11,1.76 l 1.96,3.83 c 1.54,-1.01 2.98,-1.52 4.3,-1.52 1.13,0 1.7,0.39 1.7,1.17 0,0.41 -0.2,0.72 -0.6,0.94 -0.25,0.14 -0.82,0.31 -1.71,0.51 -0.99,0.22 -1.64,0.39 -1.95,0.51 -1.1,0.43 -1.84,1.1 -2.22,2.01 -0.21,0.49 -0.31,1.08 -0.31,1.78 0,1.33 0.45,2.5 1.36,3.5 1.18,1.28 2.99,1.92 5.44,1.92 z m 555.23,0.02 c 2.89,0 5.2,-0.93 6.92,-2.78 1.41,-1.52 2.11,-3.33 2.11,-5.43 0,-2.12 -0.69,-3.93 -2.09,-5.45 -1.69,-1.85 -4.06,-2.77 -7.1,-2.77 -3.06,0 -5.43,0.92 -7.12,2.77 -1.4,1.52 -2.09,3.38 -2.09,5.59 0,1.98 0.7,3.75 2.11,5.29 1.7,1.85 4.12,2.78 7.26,2.78 z m -269.25,0 c 2.89,0 5.2,-0.93 6.92,-2.78 1.41,-1.52 2.11,-3.33 2.11,-5.43 0,-2.12 -0.69,-3.93 -2.09,-5.45 -1.69,-1.85 -4.06,-2.77 -7.1,-2.77 -3.06,0 -5.43,0.92 -7.12,2.77 -1.4,1.52 -2.09,3.38 -2.09,5.59 0,1.98 0.7,3.75 2.11,5.29 1.7,1.85 4.12,2.78 7.26,2.78 z m -105.75,0 c 2.89,0 5.2,-0.93 6.92,-2.78 1.41,-1.52 2.11,-3.33 2.11,-5.43 0,-2.12 -0.69,-3.93 -2.09,-5.45 -1.69,-1.85 -4.06,-2.77 -7.1,-2.77 -3.06,0 -5.43,0.92 -7.12,2.77 -1.4,1.52 -2.09,3.38 -2.09,5.59 0,1.98 0.7,3.75 2.11,5.29 1.7,1.85 4.12,2.78 7.26,2.78 z m -213.15,1.76 v -12.73 h 1.33 c 2.31,0 4.03,0.76 5.17,2.29 0.87,1.17 1.31,2.53 1.31,4.08 0,1.56 -0.44,2.91 -1.31,4.07 -1.15,1.53 -2.88,2.29 -5.17,2.29 z m 667.76,2.28 h 5.42 v -4.6 h 3.09 v -4.43 h -3.09 v -10.86 h -5.42 v 10.86 h -1.78 v 4.43 h 1.78 z m -377.25,0 h 5.42 v -4.6 h 3.09 v -4.43 h -3.09 v -10.86 h -5.42 v 10.86 h -1.78 v 4.43 h 1.78 z m 341.14,2.6 h 12.8 v -4.88 h -6.95 v -3.84 h 6.57 v -4.87 h -6.57 v -4.02 h 6.95 v -4.88 h -12.8 z m -67.5,0 h 5.85 v -17.61 h 7.02 v -4.88 h -12.87 z m -195.23,0 h 6.38 l 8.47,-22.49 h -6.25 l -1.45,3.92 h -8.07 l -1.55,-3.92 h -6.18 z m -206.02,0 h 5.85 v -22.49 h -5.85 z m -168.75,0 h 8.63 c 2.11,0 4.07,-0.59 5.87,-1.76 1.77,-1.14 3.12,-2.67 4.07,-4.58 0.77,-1.58 1.15,-3.22 1.15,-4.9 0,-2.34 -0.7,-4.5 -2.12,-6.5 -1.41,-1.99 -3.21,-3.37 -5.41,-4.14 -1.16,-0.41 -2.35,-0.61 -3.56,-0.61 h -8.63 z m -69.629,0 h 15.457 v -4.88 h -4.844 v -17.61 h -5.851 v 17.61 h -4.762 z m 602.809,1.7 c 0.84,0 1.56,-0.29 2.15,-0.88 0.59,-0.59 0.89,-1.3 0.89,-2.14 0,-0.86 -0.29,-1.58 -0.88,-2.17 -0.58,-0.58 -1.31,-0.87 -2.16,-0.87 -0.84,0 -1.56,0.29 -2.14,0.88 -0.59,0.59 -0.88,1.31 -0.88,2.16 0,0.84 0.29,1.55 0.88,2.14 0.58,0.59 1.3,0.88 2.14,0.88 z m -98.25,0 c 0.84,0 1.56,-0.29 2.15,-0.88 0.59,-0.59 0.89,-1.3 0.89,-2.14 0,-0.86 -0.29,-1.58 -0.88,-2.17 -0.58,-0.58 -1.31,-0.87 -2.16,-0.87 -0.84,0 -1.56,0.29 -2.14,0.88 -0.59,0.59 -0.88,1.31 -0.88,2.16 0,0.84 0.29,1.55 0.88,2.14 0.58,0.59 1.3,0.88 2.14,0.88 z m -125.25,0 c 0.84,0 1.56,-0.29 2.15,-0.88 0.59,-0.59 0.89,-1.3 0.89,-2.14 0,-0.86 -0.29,-1.58 -0.88,-2.17 -0.58,-0.58 -1.31,-0.87 -2.16,-0.87 -0.84,0 -1.56,0.29 -2.14,0.88 -0.59,0.59 -0.88,1.31 -0.88,2.16 0,0.84 0.29,1.55 0.88,2.14 0.58,0.59 1.3,0.88 2.14,0.88 z m -284.25,0 c 0.84,0 1.56,-0.29 2.15,-0.88 0.59,-0.59 0.89,-1.3 0.89,-2.14 0,-0.86 -0.29,-1.58 -0.88,-2.17 -0.58,-0.58 -1.31,-0.87 -2.16,-0.87 -0.84,0 -1.56,0.29 -2.14,0.88 -0.59,0.59 -0.88,1.31 -0.88,2.16 0,0.84 0.29,1.55 0.88,2.14 0.58,0.59 1.3,0.88 2.14,0.88 z m 466.81,0.56 h 5.42 v -24.75 h -5.42 z m -21,0 h 5.42 v -10.98 c 0.58,0.61 1.14,1.04 1.69,1.31 0.96,0.46 1.98,0.69 3.06,0.69 1.87,0 3.52,-0.62 4.96,-1.86 1.81,-1.56 2.71,-3.65 2.71,-6.26 0,-2.57 -0.88,-4.63 -2.65,-6.19 -1.48,-1.3 -3.17,-1.96 -5.07,-1.96 -1.17,0 -2.22,0.26 -3.14,0.78 -0.56,0.31 -1.08,0.78 -1.56,1.42 v -1.7 h -5.42 z m -30,0 h 5.42 v -24.75 h -5.42 z m -292.69,0 h 5.42 v -24.75 h -5.42 v 1.7 c -0.51,-0.65 -1.04,-1.13 -1.56,-1.42 -0.92,-0.52 -1.97,-0.78 -3.15,-0.78 -1.89,0 -3.58,0.66 -5.06,1.96 -1.77,1.56 -2.65,3.62 -2.65,6.19 0,2.61 0.9,4.7 2.71,6.26 1.44,1.24 3.09,1.86 4.96,1.86 1.08,0 2.1,-0.23 3.06,-0.69 0.54,-0.27 1.11,-0.7 1.69,-1.31 z m -40.5,0 h 5.42 v -24.75 h -5.42 v 1.7 c -0.51,-0.65 -1.04,-1.13 -1.56,-1.42 -0.92,-0.52 -1.97,-0.78 -3.15,-0.78 -1.89,0 -3.58,0.66 -5.06,1.96 -1.77,1.56 -2.65,3.62 -2.65,6.19 0,2.61 0.9,4.7 2.71,6.26 1.44,1.24 3.09,1.86 4.96,1.86 1.08,0 2.1,-0.23 3.06,-0.69 0.54,-0.27 1.11,-0.7 1.69,-1.31 z m 97.45,0.05 c 0.79,0 1.59,-0.19 2.39,-0.56 v -4.7 c -0.73,0.41 -1.36,0.61 -1.88,0.61 -0.74,0 -1.27,-0.28 -1.61,-0.84 -0.2,-0.32 -0.3,-1.11 -0.3,-2.37 v -1.65 h 3.79 v -4.45 h -3.79 v -10.84 h -5.42 v 10.84 h -1.93 v 4.45 h 1.93 v 2.03 c 0,2.25 0.57,3.99 1.71,5.21 1.42,1.51 3.12,2.27 5.11,2.27 z"
       style="fill:url(#linearGradient15172);fill-opacity:1;fill-rule:evenodd;stroke:none"
       id="path15174" /><text
       transform="scale(1,-1)"
       style="font-variant:normal;font-weight:bold;font-size:33.8px;font-family:Aharoni;-inkscape-font-specification:Aharoni-Bold;writing-mode:lr-tb;fill:#000000;fill-opacity:0;fill-rule:nonzero;stroke:none"
       id="text15186"
       x="73.25"
       y="-443.63"><tspan
         x="73.25 89.034599 109.9906 131.048 140.78241 164.0706 173.19659 188.1362 202.3998 223.3558 237.6532 258.60919 278.17938 299.13541 309.681 320.26041 339.72919 351.72821 372.71799 386.94781 416.2186 437.17459 448.49759 457.6236 478.54581 498.08221 509.33759 533.33557 552.8382 573.89563 583.02161 591.94482 612.90082 633.95819 643.08423 662.41779 672.2536 681.37958 700.81458 711.2926 727.07721 748.06702 769.05682 778.7912 795.3194 814.85577 826.11121 840.341"
         y="-443.63"
         sodipodi:role="line"
         id="tspan15184">Tag Discarded Information Available in Log Entry</tspan></text><path
       d="m 827.63,376.12 c 0,4.77 0.64,8.63 1.43,8.63 h 11.38 c 0.79,0 1.44,3.86 1.44,8.62 0,-4.76 0.64,-8.62 1.43,-8.62 h 11.38 c 0.79,0 1.44,-3.86 1.44,-8.63"
       style="fill:none;stroke:#00bac8;stroke-width:0.5;stroke-linecap:butt;stroke-linejoin:miter;stroke-miterlimit:10;stroke-dasharray:none;stroke-opacity:1"
       id="path15196" /><text
       transform="scale(1,-1)"
       style="font-variant:normal;font-weight:normal;font-size:18.025px;font-family:AvenirNextLTPro;-inkscape-font-specification:AvenirNextLTPro;writing-mode:lr-tb;fill:#00bac8;fill-opacity:1;fill-rule:nonzero;stroke:none"
       id="text15208"
       x="783.70001"
       y="-402.07999"><tspan
         x="783.70001 788.24231 799.43585 810.68341 821.93103 832.42157 839.1449 849.6535 860.14404 866.86737 875.1048 879.61102 890.10156"
         y="-402.07999"
         sodipodi:role="line"
         id="tspan15206">loggerVersion</tspan></text><text
       transform="scale(1,-1)"
       style="font-variant:normal;font-weight:normal;font-size:18.025px;font-family:AvenirNextLTPro;-inkscape-font-specification:AvenirNextLTPro;writing-mode:lr-tb;fill:#000000;fill-opacity:1;fill-rule:nonzero;stroke:none"
       id="text15220"
       x="829.34998"
       y="-364.95001"><tspan
         x="829.34998 839.8045 844.3468 854.80127"
         y="-364.95001"
         sodipodi:role="line"
         id="tspan15218">1.3,</tspan></text><path
       d="m 60.375,377.62 c 0,3.94 0.532,7.13 1.188,7.13 h 71.497 c 0.66,0 1.19,3.19 1.19,7.12 0,-3.93 0.53,-7.12 1.19,-7.12 h 71.5 c 0.65,0 1.19,-3.19 1.19,-7.13"
       style="fill:none;stroke:#00bac8;stroke-width:0.5;stroke-linecap:butt;stroke-linejoin:miter;stroke-miterlimit:10;stroke-dasharray:none;stroke-opacity:1"
       id="path15230" /><text
       transform="scale(1,-1)"
       style="font-variant:normal;font-weight:normal;font-size:18.025px;font-family:AvenirNextLTPro;-inkscape-font-specification:AvenirNextLTPro;writing-mode:lr-tb;fill:#00bac8;fill-opacity:1;fill-rule:nonzero;stroke:none"
       id="text15242"
       x="114.2"
       y="-402.07999"><tspan
         x="114.2 123.19447 132.17093 143.41852"
         y="-402.07999"
         sodipodi:role="line"
         id="tspan15240">Type</tspan></text><text
       transform="scale(1,-1)"
       style="font-variant:normal;font-weight:normal;font-size:18.025px;font-family:AvenirNextLTPro;-inkscape-font-specification:AvenirNextLTPro;writing-mode:lr-tb;fill:#000000;fill-opacity:1;fill-rule:nonzero;stroke:none"
       id="text15254"
       x="61.549999"
       y="-364.95001"><tspan
         x="61.549999 71.301521 84.027176 98.26693 107.27943 120.76212 125.26838 135.75893 148.50259 161.22826 171.73683 185.23755 195.74612 208.48981"
         y="-364.95001"
         sodipodi:role="line"
         id="tspan15252">TAG_DISCARDED,</tspan></text><path
       d="m 220.13,376.12 c 0,3.73 0.5,6.76 1.12,6.76 l 24,-0.01 c 0.62,0 1.13,3.03 1.13,6.75 0,-3.72 0.5,-6.75 1.12,-6.75 h 24 c 0.62,0 1.13,-3.02 1.13,-6.75"
       style="fill:none;stroke:#00bac8;stroke-width:0.5;stroke-linecap:butt;stroke-linejoin:miter;stroke-miterlimit:10;stroke-dasharray:none;stroke-opacity:1"
       id="path15264" /><text
       transform="scale(1,-1)"
       style="font-variant:normal;font-weight:normal;font-size:18.025px;font-family:AvenirNextLTPro;-inkscape-font-specification:AvenirNextLTPro;writing-mode:lr-tb;fill:#00bac8;fill-opacity:1;fill-rule:nonzero;stroke:none"
       id="text15276"
       x="191.92999"
       y="-402.07999"><tspan
         x="191.92999 202.43857 206.98088 216.69635 227.98 236.23544 246.74402 258.02768 268.53625 273.04251 288.81436"
         y="-402.07999"
         sodipodi:role="line"
         id="tspan15274">elapsedTime</tspan></text><text
       transform="scale(1,-1)"
       style="font-variant:normal;font-weight:normal;font-size:18.025px;font-family:AvenirNextLTPro;-inkscape-font-specification:AvenirNextLTPro;writing-mode:lr-tb;fill:#000000;fill-opacity:1;fill-rule:nonzero;stroke:none"
       id="text15288"
       x="219.42999"
       y="-364.95001"><tspan
         x="219.42999 229.92999 240.42999 250.92999 261.42999 271.92999"
         y="-364.95001"
         sodipodi:role="line"
         id="tspan15286">75975,</tspan></text><path
       d="m 280.13,377.62 c 0,3.53 0.47,6.38 1.06,6.38 h 95 c 0.58,0 1.06,2.85 1.06,6.37 0,-3.52 0.48,-6.37 1.06,-6.37 h 95 c 0.59,0 1.07,-2.85 1.07,-6.38"
       style="fill:none;stroke:#00bac8;stroke-width:0.5;stroke-linecap:butt;stroke-linejoin:miter;stroke-miterlimit:10;stroke-dasharray:none;stroke-opacity:1"
       id="path15298" /><text
       transform="scale(1,-1)"
       style="font-variant:normal;font-weight:normal;font-size:18.025px;font-family:AvenirNextLTPro;-inkscape-font-specification:AvenirNextLTPro;writing-mode:lr-tb;fill:#00bac8;fill-opacity:1;fill-rule:nonzero;stroke:none"
       id="text15310"
       x="331.39999"
       y="-402.07999"><tspan
         x="331.39999 341.89056 346.39679 362.16867 372.65921 380.89664 386.88095 396.61444 412.38632"
         y="-402.07999"
         sodipodi:role="line"
         id="tspan15308">Timestamp</tspan></text><text
       transform="scale(1,-1)"
       style="font-variant:normal;font-weight:normal;font-size:18.025px;font-family:AvenirNextLTPro;-inkscape-font-specification:AvenirNextLTPro;writing-mode:lr-tb;fill:#000000;fill-opacity:1;fill-rule:nonzero;stroke:none"
       id="text15322"
       x="282.95001"
       y="-364.95001"><tspan
         x="282.95001 293.40451 300.18188 310.63641 321.16299 327.88632 338.34082 348.86743 359.32193 369.84851 374.35477 384.8093 390.09061 400.5451 411.07172 416.31699 426.77148 437.29807 441.80432 454.52997 470.28384"
         y="-364.95001"
         sodipodi:role="line"
         id="tspan15320">9/11/2023 9:42:58 AM,</tspan></text><path
       d="m 483.38,373.12 c 0,5.6 0.75,10.13 1.68,10.13 h 163.5 c 0.93,0 1.69,4.53 1.69,10.12 0,-5.59 0.76,-10.12 1.69,-10.12 h 163.5 c 0.93,0 1.69,-4.53 1.69,-10.13"
       style="fill:none;stroke:#00bac8;stroke-width:0.5;stroke-linecap:butt;stroke-linejoin:miter;stroke-miterlimit:10;stroke-dasharray:none;stroke-opacity:1"
       id="path15332" /><text
       transform="scale(1,-1)"
       style="font-variant:normal;font-weight:normal;font-size:18.025px;font-family:AvenirNextLTPro;-inkscape-font-specification:AvenirNextLTPro;writing-mode:lr-tb;fill:#00bac8;fill-opacity:1;fill-rule:nonzero;stroke:none"
       id="text15344"
       x="609.79999"
       y="-402.07999"><tspan
         x="609.79999 620.29053 630.78113 639.01855 647.25598 651.76221 662.99176 673.46429 677.98859"
         y="-402.07999"
         sodipodi:role="line"
         id="tspan15342">SessionId</tspan></text><text
       transform="scale(1,-1)"
       style="font-variant:normal;font-weight:normal;font-size:18.025px;font-family:AvenirNextLTPro;-inkscape-font-specification:AvenirNextLTPro;writing-mode:lr-tb;fill:#000000;fill-opacity:1;fill-rule:nonzero;stroke:none"
       id="text15356"
       x="483.45001"
       y="-364.95001"><tspan
         x="483.45001 493.90451 499.22186 508.93735 518.67084 528.40436 538.85883 549.38544"
         y="-364.95001"
         sodipodi:role="line"
         id="tspan15354">2faaa766</tspan></text><text
       transform="scale(1,-1)"
       style="font-variant:normal;font-weight:normal;font-size:18.025px;font-family:AvenirNextLTPro;-inkscape-font-specification:AvenirNextLTPro;writing-mode:lr-tb;fill:#000000;fill-opacity:1;fill-rule:nonzero;stroke:none"
       id="text15368"
       x="560"
       y="-364.95001"><tspan
         x="560"
         y="-364.95001"
         id="tspan15366">-</tspan></text><text
       transform="scale(1,-1)"
       style="font-variant:normal;font-weight:normal;font-size:18.025px;font-family:AvenirNextLTPro;-inkscape-font-specification:AvenirNextLTPro;writing-mode:lr-tb;fill:#000000;fill-opacity:1;fill-rule:nonzero;stroke:none"
       id="text15380"
       x="566"
       y="-364.95001"><tspan
         x="566 576.50854 587.01715 598.30078"
         y="-364.95001"
         sodipodi:role="line"
         id="tspan15378">35d7</tspan></text><text
       transform="scale(1,-1)"
       style="font-variant:normal;font-weight:normal;font-size:18.025px;font-family:AvenirNextLTPro;-inkscape-font-specification:AvenirNextLTPro;writing-mode:lr-tb;fill:#000000;fill-opacity:1;fill-rule:nonzero;stroke:none"
       id="text15392"
       x="608.79999"
       y="-364.95001"><tspan
         x="608.79999"
         y="-364.95001"
         id="tspan15390">-</tspan></text><text
       transform="scale(1,-1)"
       style="font-variant:normal;font-weight:normal;font-size:18.025px;font-family:AvenirNextLTPro;-inkscape-font-specification:AvenirNextLTPro;writing-mode:lr-tb;fill:#000000;fill-opacity:1;fill-rule:nonzero;stroke:none"
       id="text15404"
       x="614.79999"
       y="-364.95001"><tspan
         x="614.79999 625.25452 630.5719 635.79913"
         y="-364.95001"
         sodipodi:role="line"
         id="tspan15402">4fff</tspan></text><text
       transform="scale(1,-1)"
       style="font-variant:normal;font-weight:normal;font-size:18.025px;font-family:AvenirNextLTPro;-inkscape-font-specification:AvenirNextLTPro;writing-mode:lr-tb;fill:#000000;fill-opacity:1;fill-rule:nonzero;stroke:none"
       id="text15416"
       x="641.07001"
       y="-364.95001"><tspan
         x="641.07001"
         y="-364.95001"
         id="tspan15414">-</tspan></text><text
       transform="scale(1,-1)"
       style="font-variant:normal;font-weight:normal;font-size:18.025px;font-family:AvenirNextLTPro;-inkscape-font-specification:AvenirNextLTPro;writing-mode:lr-tb;fill:#000000;fill-opacity:1;fill-rule:nonzero;stroke:none"
       id="text15428"
       x="647.08002"
       y="-364.95001"><tspan
         x="647.08002 657.58002 668.08002 678.58002"
         y="-364.95001"
         sodipodi:role="line"
         id="tspan15426">910c</tspan></text><text
       transform="scale(1,-1)"
       style="font-variant:normal;font-weight:normal;font-size:18.025px;font-family:AvenirNextLTPro;-inkscape-font-specification:AvenirNextLTPro;writing-mode:lr-tb;fill:#000000;fill-opacity:1;fill-rule:nonzero;stroke:none"
       id="text15440"
       x="687.59998"
       y="-364.95001"><tspan
         x="687.59998"
         y="-364.95001"
         id="tspan15438">-</tspan></text><text
       transform="scale(1,-1)"
       style="font-variant:normal;font-weight:normal;font-size:18.025px;font-family:AvenirNextLTPro;-inkscape-font-specification:AvenirNextLTPro;writing-mode:lr-tb;fill:#000000;fill-opacity:1;fill-rule:nonzero;stroke:none"
       id="text15452"
       x="693.59998"
       y="-364.95001"><tspan
         x="693.59998 698.91736 709.37189 720.67352 731.18213 741.69067 752.19928 763.48291 774.7666 785.27515 795.78375 806.2923 817.57593"
         y="-364.95001"
         sodipodi:role="line"
         id="tspan15450">f7b044bb913b,</tspan></text><path
       d="m 389.63,241.87 c 0,4.98 0.67,9 1.49,9 H 411 c 0.83,0 1.5,4.03 1.5,9 0,-4.97 0.67,-9 1.5,-9 h 19.88 c 0.82,0 1.5,-4.02 1.5,-9"
       style="fill:none;stroke:#00bac8;stroke-width:0.5;stroke-linecap:butt;stroke-linejoin:miter;stroke-miterlimit:10;stroke-dasharray:none;stroke-opacity:1"
       id="path15462" /><text
       transform="scale(1,-1)"
       style="font-variant:normal;font-weight:normal;font-size:18.025px;font-family:AvenirNextLTPro;-inkscape-font-specification:AvenirNextLTPro;writing-mode:lr-tb;fill:#00bac8;fill-opacity:1;fill-rule:nonzero;stroke:none"
       id="text15474"
       x="392.32999"
       y="-265.13"><tspan
         x="392.32999 401.32446 410.30093 421.54852"
         y="-265.13"
         sodipodi:role="line"
         id="tspan15472">Type</tspan></text><text
       transform="scale(1,-1)"
       style="font-variant:normal;font-weight:normal;font-size:18.025px;font-family:AvenirNextLTPro;-inkscape-font-specification:AvenirNextLTPro;writing-mode:lr-tb;fill:#000000;fill-opacity:1;fill-rule:nonzero;stroke:none"
       id="text15486"
       x="390.57001"
       y="-230.5"><tspan
         x="390.57001 401.8176 406.35989 416.05734 425.06985 434.06433"
         y="-230.5"
         sodipodi:role="line"
         id="tspan15484">black,</tspan></text><path
       d="m 445.13,242.62 c 0,4.77 0.64,8.63 1.43,8.63 h 57.13 c 0.79,0 1.44,3.86 1.44,8.62 0,-4.76 0.64,-8.62 1.43,-8.62 h 57.13 c 0.79,0 1.44,-3.86 1.44,-8.63"
       style="fill:none;stroke:#00bac8;stroke-width:0.5;stroke-linecap:butt;stroke-linejoin:miter;stroke-miterlimit:10;stroke-dasharray:none;stroke-opacity:1"
       id="path15496" /><text
       transform="scale(1,-1)"
       style="font-variant:normal;font-weight:normal;font-size:18.025px;font-family:AvenirNextLTPro;-inkscape-font-specification:AvenirNextLTPro;writing-mode:lr-tb;fill:#00bac8;fill-opacity:1;fill-rule:nonzero;stroke:none"
       id="text15508"
       x="469.26999"
       y="-265.13"><tspan
         x="469.26999 478.26447 489.49405 498.50656 508.22202 514.2063 518.71259 529.94214"
         y="-265.13"
         sodipodi:role="line"
         id="tspan15506">Location</tspan></text><text
       transform="scale(1,-1)"
       style="font-variant:normal;font-weight:normal;font-size:18.025px;font-family:AvenirNextLTPro;-inkscape-font-specification:AvenirNextLTPro;writing-mode:lr-tb;fill:#000000;fill-opacity:1;fill-rule:nonzero;stroke:none"
       id="text15520"
       x="446.23001"
       y="-230.5"><tspan
         x="446.23001 453.71039 458.95566 469.41016 473.95245 484.40695 488.21024 492.71649 503.17099 507.71329 518.16779 521.97107 527.1983 537.65277 542.19513 552.6496 557.94897 565.42932"
         y="-230.5"
         sodipodi:role="line"
         id="tspan15518">&quot;(2.6, 1.4, 1.9)&quot;,</tspan></text></g></svg>
