<?xml version="1.0" encoding="UTF-8" standalone="no"?>
<svg
   xmlns:dc="http://purl.org/dc/elements/1.1/"
   xmlns:cc="http://creativecommons.org/ns#"
   xmlns:rdf="http://www.w3.org/1999/02/22-rdf-syntax-ns#"
   xmlns:svg="http://www.w3.org/2000/svg"
   xmlns="http://www.w3.org/2000/svg"
   xmlns:sodipodi="http://sodipodi.sourceforge.net/DTD/sodipodi-0.dtd"
   xmlns:inkscape="http://www.inkscape.org/namespaces/inkscape"
   version="1.1"
   id="svg6092"
   xml:space="preserve"
   width="1280"
   height="720"
   viewBox="0 0 1280 720"
   sodipodi:docname="frvrs_data_and_analysis_presentation_for_itm_slide027.svg"
   inkscape:version="1.0.2-2 (e86c870879, 2021-01-15)"
   inkscape:export-filename="C:\Users\DaveBabbitt\Documents\GitHub\itm-analysis-reporting\saves\png\frvrs_data_and_analysis_presentation_for_itm\slide027.png"
   inkscape:export-xdpi="96"
   inkscape:export-ydpi="96"><metadata
     id="metadata6098"><rdf:RDF><cc:Work
         rdf:about=""><dc:format>image/svg+xml</dc:format><dc:type
           rdf:resource="http://purl.org/dc/dcmitype/StillImage" /><dc:title></dc:title></cc:Work></rdf:RDF></metadata><defs
     id="defs6096"><clipPath
       clipPathUnits="userSpaceOnUse"
       id="clipPath6108"><path
         d="M 0,1.2207e-4 H 960 V 540.00012 H 0 Z"
         clip-rule="evenodd"
         id="path6106" /></clipPath><clipPath
       clipPathUnits="userSpaceOnUse"
       id="clipPath6118"><path
         d="M 0,1.2207e-4 H 960 V 540.00012 H 0 Z"
         clip-rule="evenodd"
         id="path6116" /></clipPath><linearGradient
       x1="-747.16998"
       y1="453.48001"
       x2="893.57001"
       y2="453.48001"
       gradientUnits="userSpaceOnUse"
       spreadMethod="pad"
       id="linearGradient6128"><stop
         style="stop-opacity:1;stop-color:#203040"
         offset="0"
         id="stop6124" /><stop
         style="stop-opacity:1;stop-color:#203040"
         offset="1"
         id="stop6126" /></linearGradient><clipPath
       clipPathUnits="userSpaceOnUse"
       id="clipPath6138"><path
         d="m 72.75,435.75 h 820.5 v 33 H 72.75 Z"
         clip-rule="evenodd"
         id="path6136" /></clipPath><clipPath
       clipPathUnits="userSpaceOnUse"
       id="clipPath6150"><path
         d="M 1.8311e-4,540 H 960 V 2.4414e-4 L 2.4414e-4,1.8311e-4"
         clip-rule="evenodd"
         id="path6148" /></clipPath><clipPath
       clipPathUnits="userSpaceOnUse"
       id="clipPath6160"><path
         d="M 1.4305e-5,0 H 960.00001 V 540 H 1.4305e-5 Z"
         clip-rule="evenodd"
         id="path6158" /></clipPath><clipPath
       clipPathUnits="userSpaceOnUse"
       id="clipPath6172"><path
         d="M 1.4305e-5,0 H 960.00001 V 540 H 1.4305e-5 Z"
         clip-rule="evenodd"
         id="path6170" /></clipPath><clipPath
       clipPathUnits="userSpaceOnUse"
       id="clipPath6184"><path
         d="M 3.0518e-5,540 H 960 V 1.8311e-4 H 4.5776e-5"
         clip-rule="evenodd"
         id="path6182" /></clipPath><clipPath
       clipPathUnits="userSpaceOnUse"
       id="clipPath6194"><path
         d="M 1.4305e-5,0 H 960.00001 V 540 H 1.4305e-5 Z"
         clip-rule="evenodd"
         id="path6192" /></clipPath><clipPath
       clipPathUnits="userSpaceOnUse"
       id="clipPath6206"><path
         d="M 1.4305e-5,0 H 960.00001 V 540 H 1.4305e-5 Z"
         clip-rule="evenodd"
         id="path6204" /></clipPath><clipPath
       clipPathUnits="userSpaceOnUse"
       id="clipPath6218"><path
         d="M 3.0518e-5,540 H 960 V 2.4414e-4 L 6.1035e-5,1.8311e-4"
         clip-rule="evenodd"
         id="path6216" /></clipPath><clipPath
       clipPathUnits="userSpaceOnUse"
       id="clipPath6228"><path
         d="M 1.4305e-5,0 H 960.00001 V 540 H 1.4305e-5 Z"
         clip-rule="evenodd"
         id="path6226" /></clipPath><clipPath
       clipPathUnits="userSpaceOnUse"
       id="clipPath6240"><path
         d="M 1.4305e-5,0 H 960.00001 V 540 H 1.4305e-5 Z"
         clip-rule="evenodd"
         id="path6238" /></clipPath><clipPath
       clipPathUnits="userSpaceOnUse"
       id="clipPath6252"><path
         d="M 9.1553e-5,540 H 960 V 1.8311e-4 L 1.2207e-4,1.2207e-4"
         clip-rule="evenodd"
         id="path6250" /></clipPath><clipPath
       clipPathUnits="userSpaceOnUse"
       id="clipPath6262"><path
         d="M 1.4305e-5,0 H 960.00001 V 540 H 1.4305e-5 Z"
         clip-rule="evenodd"
         id="path6260" /></clipPath><clipPath
       clipPathUnits="userSpaceOnUse"
       id="clipPath6274"><path
         d="M 1.4305e-5,0 H 960.00001 V 540 H 1.4305e-5 Z"
         clip-rule="evenodd"
         id="path6272" /></clipPath><clipPath
       clipPathUnits="userSpaceOnUse"
       id="clipPath6286"><path
         d="M 1.2207e-4,540 H 960 V 2.4414e-4 L 1.8311e-4,1.8311e-4"
         clip-rule="evenodd"
         id="path6284" /></clipPath><clipPath
       clipPathUnits="userSpaceOnUse"
       id="clipPath6296"><path
         d="M 1.4305e-5,0 H 960.00001 V 540 H 1.4305e-5 Z"
         clip-rule="evenodd"
         id="path6294" /></clipPath><clipPath
       clipPathUnits="userSpaceOnUse"
       id="clipPath6308"><path
         d="M 1.4305e-5,0 H 960.00001 V 540 H 1.4305e-5 Z"
         clip-rule="evenodd"
         id="path6306" /></clipPath><clipPath
       clipPathUnits="userSpaceOnUse"
       id="clipPath6320"><path
         d="M 1.4305e-5,0 H 960.00001 V 540 H 1.4305e-5 Z"
         clip-rule="evenodd"
         id="path6318" /></clipPath><clipPath
       clipPathUnits="userSpaceOnUse"
       id="clipPath6332"><path
         d="M 1.4305e-5,0 H 960.00001 V 540 H 1.4305e-5 Z"
         clip-rule="evenodd"
         id="path6330" /></clipPath><clipPath
       clipPathUnits="userSpaceOnUse"
       id="clipPath6344"><path
         d="M 1.4305e-5,0 H 960.00001 V 540 H 1.4305e-5 Z"
         clip-rule="evenodd"
         id="path6342" /></clipPath><clipPath
       clipPathUnits="userSpaceOnUse"
       id="clipPath6356"><path
         d="M 1.4305e-5,0 H 960.00001 V 540 H 1.4305e-5 Z"
         clip-rule="evenodd"
         id="path6354" /></clipPath><clipPath
       clipPathUnits="userSpaceOnUse"
       id="clipPath6368"><path
         d="M 1.4305e-5,0 H 960.00001 V 540 H 1.4305e-5 Z"
         clip-rule="evenodd"
         id="path6366" /></clipPath><clipPath
       clipPathUnits="userSpaceOnUse"
       id="clipPath6380"><path
         d="M 1.4305e-5,0 H 960.00001 V 540 H 1.4305e-5 Z"
         clip-rule="evenodd"
         id="path6378" /></clipPath><clipPath
       clipPathUnits="userSpaceOnUse"
       id="clipPath6392"><path
         d="M 1.4305e-5,0 H 960.00001 V 540 H 1.4305e-5 Z"
         clip-rule="evenodd"
         id="path6390" /></clipPath><clipPath
       clipPathUnits="userSpaceOnUse"
       id="clipPath6404"><path
         d="M 1.4305e-5,0 H 960.00001 V 540 H 1.4305e-5 Z"
         clip-rule="evenodd"
         id="path6402" /></clipPath><clipPath
       clipPathUnits="userSpaceOnUse"
       id="clipPath6416"><path
         d="M 9.1553e-5,540 H 960 V 1.8311e-4 H 1.2207e-4"
         clip-rule="evenodd"
         id="path6414" /></clipPath><clipPath
       clipPathUnits="userSpaceOnUse"
       id="clipPath6426"><path
         d="M 1.4305e-5,0 H 960.00001 V 540 H 1.4305e-5 Z"
         clip-rule="evenodd"
         id="path6424" /></clipPath><clipPath
       clipPathUnits="userSpaceOnUse"
       id="clipPath6438"><path
         d="M 1.4305e-5,0 H 960.00001 V 540 H 1.4305e-5 Z"
         clip-rule="evenodd"
         id="path6436" /></clipPath><clipPath
       clipPathUnits="userSpaceOnUse"
       id="clipPath6450"><path
         d="M 0,540 H 960 V 1.8311e-4 H 6.1035e-5"
         clip-rule="evenodd"
         id="path6448" /></clipPath><clipPath
       clipPathUnits="userSpaceOnUse"
       id="clipPath6460"><path
         d="M 1.4305e-5,0 H 960.00001 V 540 H 1.4305e-5 Z"
         clip-rule="evenodd"
         id="path6458" /></clipPath><clipPath
       clipPathUnits="userSpaceOnUse"
       id="clipPath6472"><path
         d="M 1.4305e-5,0 H 960.00001 V 540 H 1.4305e-5 Z"
         clip-rule="evenodd"
         id="path6470" /></clipPath></defs><sodipodi:namedview
     pagecolor="#ffffff"
     bordercolor="#666666"
     borderopacity="1"
     objecttolerance="10"
     gridtolerance="10"
     guidetolerance="10"
     inkscape:pageopacity="0"
     inkscape:pageshadow="2"
     inkscape:window-width="1920"
     inkscape:window-height="1121"
     id="namedview6094"
     showgrid="false"
     inkscape:zoom="1.071875"
     inkscape:cx="640"
     inkscape:cy="360"
     inkscape:window-x="-9"
     inkscape:window-y="611"
     inkscape:window-maximized="1"
     inkscape:current-layer="g6100" /><g
     id="g6100"
     inkscape:groupmode="layer"
     inkscape:label="FRVRS - Data and Analysis Presentation for ITM"
     transform="matrix(1.3333333,0,0,-1.3333333,0,720)"><path
       d="M 0,6.1035e-5 H 960 V 540.00006 H 0 Z"
       style="fill:#ffffff;fill-opacity:1;fill-rule:evenodd;stroke:none"
       id="path6110" /><path
       d="M 0,6.1035e-5 H 960 V 540.00006 H 0 Z"
       style="fill:#ffffff;fill-opacity:1;fill-rule:evenodd;stroke:none"
       id="path6120" /><path
       d="m 634.8,454.86 c -1.07,0 -1.95,-0.4 -2.64,-1.21 -0.56,-0.65 -0.84,-1.4 -0.84,-2.25 0,-0.84 0.28,-1.59 0.84,-2.24 0.68,-0.81 1.56,-1.22 2.64,-1.22 0.97,0 1.8,0.34 2.47,1 0.67,0.67 1.01,1.49 1.01,2.46 0,0.97 -0.34,1.78 -1.02,2.46 -0.68,0.67 -1.5,1 -2.46,1 z m -39,0 c -1.07,0 -1.95,-0.4 -2.64,-1.21 -0.56,-0.65 -0.84,-1.4 -0.84,-2.25 0,-0.84 0.28,-1.59 0.84,-2.24 0.68,-0.81 1.56,-1.22 2.64,-1.22 0.97,0 1.8,0.34 2.47,1 0.67,0.67 1.01,1.49 1.01,2.46 0,0.97 -0.34,1.78 -1.02,2.46 -0.68,0.67 -1.5,1 -2.46,1 z m -136.5,0 c -1.07,0 -1.95,-0.4 -2.64,-1.21 -0.56,-0.65 -0.84,-1.4 -0.84,-2.25 0,-0.84 0.28,-1.59 0.84,-2.24 0.68,-0.81 1.56,-1.22 2.64,-1.22 0.97,0 1.8,0.34 2.47,1 0.67,0.67 1.01,1.49 1.01,2.46 0,0.97 -0.34,1.78 -1.02,2.46 -0.68,0.67 -1.5,1 -2.46,1 z m -178.5,0 c -1.07,0 -1.95,-0.4 -2.64,-1.21 -0.56,-0.65 -0.84,-1.4 -0.84,-2.25 0,-0.84 0.28,-1.59 0.84,-2.24 0.68,-0.81 1.56,-1.22 2.64,-1.22 0.97,0 1.8,0.34 2.47,1 0.67,0.67 1.01,1.49 1.01,2.46 0,0.97 -0.34,1.78 -1.02,2.46 -0.68,0.67 -1.5,1 -2.46,1 z m 375.23,0.02 c -0.96,0 -1.78,-0.34 -2.46,-1.01 -0.68,-0.68 -1.02,-1.51 -1.02,-2.47 0,-0.97 0.34,-1.8 1.02,-2.47 0.68,-0.68 1.5,-1.02 2.46,-1.02 1.08,0 1.96,0.41 2.64,1.22 0.56,0.67 0.84,1.43 0.84,2.27 0,0.84 -0.28,1.6 -0.84,2.26 -0.69,0.81 -1.57,1.22 -2.64,1.22 z m -334.73,0 c -1.07,0 -1.95,-0.41 -2.64,-1.22 -0.56,-0.66 -0.84,-1.42 -0.84,-2.26 0,-0.85 0.28,-1.61 0.84,-2.27 0.68,-0.81 1.56,-1.22 2.64,-1.22 0.97,0 1.8,0.34 2.47,1.01 0.67,0.67 1.01,1.5 1.01,2.48 0,0.96 -0.34,1.79 -1.02,2.47 -0.68,0.67 -1.5,1.01 -2.46,1.01 z m 448.6,0.08 c -1.12,0 -2.03,-0.42 -2.73,-1.25 -0.56,-0.68 -0.85,-1.44 -0.85,-2.31 0,-0.87 0.29,-1.64 0.85,-2.31 0.7,-0.84 1.61,-1.26 2.73,-1.26 0.99,0 1.84,0.34 2.52,1.03 0.69,0.69 1.04,1.54 1.04,2.54 0,1 -0.35,1.84 -1.04,2.53 -0.7,0.69 -1.54,1.03 -2.52,1.03 z m -269.25,0 c -1.12,0 -2.03,-0.42 -2.72,-1.25 -0.57,-0.68 -0.86,-1.44 -0.86,-2.31 0,-0.87 0.29,-1.64 0.86,-2.31 0.69,-0.84 1.6,-1.26 2.72,-1.26 0.99,0 1.84,0.34 2.52,1.03 0.69,0.69 1.04,1.54 1.04,2.54 0,1 -0.35,1.84 -1.04,2.53 -0.7,0.69 -1.54,1.03 -2.52,1.03 z m -105.75,0 c -1.12,0 -2.03,-0.42 -2.73,-1.25 -0.56,-0.68 -0.85,-1.44 -0.85,-2.31 0,-0.87 0.29,-1.64 0.85,-2.31 0.7,-0.84 1.61,-1.26 2.73,-1.26 0.99,0 1.84,0.34 2.52,1.03 0.69,0.69 1.04,1.54 1.04,2.54 0,1 -0.35,1.84 -1.04,2.53 -0.7,0.69 -1.54,1.03 -2.52,1.03 z m -193.5,0 c -1.12,0 -2.03,-0.42 -2.72,-1.25 -0.57,-0.68 -0.86,-1.44 -0.86,-2.31 0,-0.87 0.29,-1.64 0.86,-2.31 0.69,-0.84 1.6,-1.26 2.72,-1.26 0.99,0 1.84,0.34 2.52,1.03 0.69,0.69 1.04,1.54 1.04,2.54 0,1 -0.35,1.84 -1.04,2.53 -0.7,0.69 -1.54,1.03 -2.52,1.03 z m -94.5,0 c -1.12,0 -2.03,-0.42 -2.72,-1.25 -0.57,-0.68 -0.86,-1.44 -0.86,-2.31 0,-0.87 0.29,-1.64 0.86,-2.31 0.69,-0.84 1.6,-1.26 2.72,-1.26 0.99,0 1.84,0.34 2.52,1.03 0.69,0.69 1.04,1.54 1.04,2.54 0,1 -0.35,1.84 -1.04,2.53 -0.7,0.69 -1.54,1.03 -2.52,1.03 z m 683.9,0.07 c -1.08,0 -1.97,-0.42 -2.66,-1.25 -0.54,-0.67 -0.82,-1.45 -0.82,-2.33 0,-0.97 0.34,-1.81 1.01,-2.51 0.67,-0.7 1.5,-1.05 2.47,-1.05 0.96,0 1.78,0.35 2.45,1.05 0.67,0.7 1.01,1.54 1.01,2.51 0,0.98 -0.33,1.82 -1,2.52 -0.67,0.71 -1.49,1.06 -2.46,1.06 z m -105.4,1.04 c -0.91,0 -1.66,-0.28 -2.23,-0.83 -0.44,-0.43 -0.73,-1.02 -0.85,-1.76 h 6.15 c -0.38,1.73 -1.41,2.59 -3.07,2.59 z m -534.75,0 c -0.91,0 -1.66,-0.28 -2.23,-0.83 -0.44,-0.43 -0.73,-1.02 -0.85,-1.76 h 6.15 c -0.38,1.73 -1.41,2.59 -3.07,2.59 z m 722.05,2.98 h 6.28 l 4.09,-7.84 3.97,7.84 h 6.19 l -12.27,-22.94 h -6.07 l 5.19,9.74 z m -165.42,0 h 5.42 v -15.29 h -5.42 z m -99,0 h 5.42 v -15.29 h -5.42 z m -42.33,0 h 6.08 l 3.66,-7.84 3.67,7.84 h 6.05 l -7.96,-15.29 h -3.61 z m -82.92,0 h 5.42 v -15.29 h -5.42 z m -363.75,0 h 5.42 v -15.29 h -5.42 z m 751.43,0.21 c 0.29,0 0.64,-0.01 1.06,-0.04 v -5.15 c -0.76,0.37 -1.53,0.55 -2.31,0.55 -1.77,0 -2.92,-0.73 -3.45,-2.19 -0.19,-0.53 -0.29,-1.24 -0.29,-2.13 v -6.54 h -5.42 v 15.29 h 5.42 v -2.5 c 0.57,0.89 1.18,1.53 1.84,1.92 0.89,0.53 1.94,0.79 3.15,0.79 z m -453,0 c 0.29,0 0.64,-0.01 1.06,-0.04 v -5.15 c -0.76,0.37 -1.53,0.55 -2.31,0.55 -1.77,0 -2.92,-0.73 -3.45,-2.19 -0.19,-0.53 -0.29,-1.24 -0.29,-2.13 v -6.54 h -5.42 v 15.29 h 5.42 v -2.5 c 0.57,0.89 1.18,1.53 1.84,1.92 0.89,0.53 1.94,0.79 3.15,0.79 z m 136.27,0.04 -2.46,-7.17 h 4.88 z m -111.71,0.01 c 1.14,0 2.16,-0.27 3.05,-0.82 0.96,-0.6 1.59,-1.42 1.88,-2.46 0.18,-0.62 0.27,-1.4 0.27,-2.34 v -9.93 h -5.42 v 7.55 c 0,1.32 -0.14,2.22 -0.42,2.7 -0.4,0.71 -1.01,1.07 -1.83,1.07 -0.9,0 -1.59,-0.39 -2.07,-1.17 -0.34,-0.55 -0.51,-1.41 -0.51,-2.6 v -7.55 h -5.42 v 7.55 c 0,1.32 -0.11,2.17 -0.33,2.57 -0.44,0.79 -1.12,1.18 -2.03,1.18 -0.85,0 -1.51,-0.34 -1.98,-1.02 -0.17,-0.24 -0.3,-0.57 -0.38,-0.99 -0.07,-0.43 -0.11,-1 -0.11,-1.74 v -7.55 h -5.42 v 15.29 h 5.42 v -1.88 c 0.64,0.62 1.22,1.07 1.75,1.35 0.95,0.52 2.02,0.78 3.2,0.78 1.51,0 2.76,-0.39 3.76,-1.17 0.51,-0.4 0.99,-0.96 1.46,-1.68 0.41,0.68 0.88,1.22 1.4,1.61 1.09,0.84 2.33,1.25 3.73,1.25 z m -178.5,0 c 1.14,0 2.16,-0.27 3.05,-0.82 0.96,-0.6 1.59,-1.42 1.88,-2.46 0.18,-0.62 0.27,-1.4 0.27,-2.34 v -9.93 h -5.42 v 7.55 c 0,1.32 -0.14,2.22 -0.42,2.7 -0.4,0.71 -1.01,1.07 -1.83,1.07 -0.9,0 -1.59,-0.39 -2.07,-1.17 -0.34,-0.55 -0.51,-1.41 -0.51,-2.6 v -7.55 h -5.42 v 7.55 c 0,1.32 -0.11,2.17 -0.33,2.57 -0.44,0.79 -1.12,1.18 -2.03,1.18 -0.85,0 -1.51,-0.34 -1.98,-1.02 -0.17,-0.24 -0.3,-0.57 -0.38,-0.99 -0.07,-0.43 -0.11,-1 -0.11,-1.74 v -7.55 h -5.42 v 15.29 h 5.42 v -1.88 c 0.64,0.62 1.22,1.07 1.75,1.35 0.95,0.52 2.02,0.78 3.2,0.78 1.51,0 2.76,-0.39 3.76,-1.17 0.51,-0.4 0.99,-0.96 1.46,-1.68 0.41,0.68 0.88,1.22 1.4,1.61 1.09,0.84 2.33,1.25 3.73,1.25 z m -29.25,0 c 1.14,0 2.16,-0.27 3.05,-0.82 0.96,-0.6 1.59,-1.42 1.88,-2.46 0.18,-0.62 0.27,-1.4 0.27,-2.34 v -9.93 h -5.42 v 7.55 c 0,1.32 -0.14,2.22 -0.42,2.7 -0.4,0.71 -1.01,1.07 -1.83,1.07 -0.9,0 -1.59,-0.39 -2.07,-1.17 -0.34,-0.55 -0.51,-1.41 -0.51,-2.6 v -7.55 h -5.42 v 7.55 c 0,1.32 -0.11,2.17 -0.33,2.57 -0.44,0.79 -1.12,1.18 -2.03,1.18 -0.85,0 -1.51,-0.34 -1.98,-1.02 -0.17,-0.24 -0.3,-0.57 -0.38,-0.99 -0.07,-0.43 -0.11,-1 -0.11,-1.74 v -7.55 h -5.42 v 15.29 h 5.42 v -1.88 c 0.64,0.62 1.22,1.07 1.75,1.35 0.95,0.52 2.02,0.78 3.2,0.78 1.51,0 2.76,-0.39 3.76,-1.17 0.51,-0.4 0.99,-0.96 1.46,-1.68 0.41,0.68 0.88,1.22 1.4,1.61 1.09,0.84 2.33,1.25 3.73,1.25 z m 605.38,0.07 c 1.65,0 2.99,-0.44 4.02,-1.33 1.17,-1.02 1.76,-2.53 1.76,-4.55 v -9.74 h -5.42 v 7.73 c 0,1.35 -0.16,2.25 -0.46,2.68 -0.45,0.65 -1.12,0.97 -2.02,0.97 -0.81,0 -1.5,-0.27 -2.06,-0.83 -0.5,-0.5 -0.75,-1.29 -0.75,-2.36 v -8.19 h -5.42 v 15.29 h 5.42 v -1.93 c 0.62,0.73 1.2,1.24 1.73,1.54 0.85,0.48 1.92,0.72 3.2,0.72 z m -113.25,0 c 1.65,0 2.99,-0.44 4.02,-1.33 1.17,-1.02 1.76,-2.53 1.76,-4.55 v -9.74 h -5.42 v 7.73 c 0,1.35 -0.16,2.25 -0.46,2.68 -0.45,0.65 -1.12,0.97 -2.02,0.97 -0.81,0 -1.5,-0.27 -2.06,-0.83 -0.5,-0.5 -0.75,-1.29 -0.75,-2.36 v -8.19 h -5.42 v 15.29 h 5.42 v -1.93 c 0.62,0.73 1.2,1.24 1.73,1.54 0.85,0.48 1.92,0.72 3.2,0.72 z m -203.25,0 c 1.65,0 2.99,-0.44 4.02,-1.33 1.17,-1.02 1.76,-2.53 1.76,-4.55 v -9.74 h -5.42 v 7.73 c 0,1.35 -0.16,2.25 -0.46,2.68 -0.45,0.65 -1.12,0.97 -2.02,0.97 -0.81,0 -1.5,-0.27 -2.06,-0.83 -0.5,-0.5 -0.75,-1.29 -0.75,-2.36 v -8.19 h -5.42 v 15.29 h 5.42 v -1.93 c 0.62,0.73 1.2,1.24 1.73,1.54 0.85,0.48 1.92,0.72 3.2,0.72 z m -158.25,0 c 1.65,0 2.99,-0.44 4.02,-1.33 1.17,-1.02 1.76,-2.53 1.76,-4.55 v -9.74 h -5.42 v 7.73 c 0,1.35 -0.16,2.25 -0.46,2.68 -0.45,0.65 -1.12,0.97 -2.02,0.97 -0.81,0 -1.5,-0.27 -2.06,-0.83 -0.5,-0.5 -0.75,-1.29 -0.75,-2.36 v -8.19 h -5.42 v 15.29 h 5.42 v -1.93 c 0.62,0.73 1.2,1.24 1.73,1.54 0.85,0.48 1.92,0.72 3.2,0.72 z m -61.5,0 c 1.65,0 2.99,-0.44 4.02,-1.33 1.17,-1.02 1.76,-2.53 1.76,-4.55 v -9.74 h -5.42 v 7.73 c 0,1.35 -0.16,2.25 -0.46,2.68 -0.45,0.65 -1.12,0.97 -2.02,0.97 -0.81,0 -1.5,-0.27 -2.06,-0.83 -0.5,-0.5 -0.75,-1.29 -0.75,-2.36 v -8.19 h -5.42 v 15.29 h 5.42 v -1.93 c 0.62,0.73 1.2,1.24 1.73,1.54 0.85,0.48 1.92,0.72 3.2,0.72 z m 485.77,0.1 c 1.11,0 2.1,-0.23 2.96,-0.68 0.52,-0.27 1.06,-0.72 1.62,-1.35 v 1.6 h 5.42 v -14.24 c 0,-1.34 -0.1,-2.42 -0.28,-3.24 -0.3,-1.32 -1.07,-2.5 -2.31,-3.55 -1.57,-1.32 -3.66,-1.97 -6.26,-1.97 -2.73,0 -4.9,0.71 -6.51,2.15 -1.08,0.96 -1.76,1.96 -2.06,3 -0.03,0.11 -0.08,0.34 -0.13,0.7 h 6.06 c 0.18,-0.5 0.41,-0.86 0.71,-1.08 0.48,-0.36 1.1,-0.54 1.85,-0.54 1.25,0 2.21,0.44 2.88,1.33 0.42,0.56 0.63,1.36 0.63,2.4 v 1.45 c -0.65,-0.6 -1.19,-1.02 -1.63,-1.26 -0.91,-0.5 -1.99,-0.76 -3.23,-0.76 -1.56,0 -2.95,0.41 -4.18,1.21 -1.26,0.82 -2.17,1.95 -2.71,3.38 -0.38,0.96 -0.56,2.01 -0.56,3.14 0,2.51 0.79,4.55 2.38,6.12 1.48,1.46 3.27,2.19 5.35,2.19 z m -104.23,0 c 3.33,0 5.71,-1.21 7.13,-3.63 0.81,-1.37 1.21,-2.95 1.21,-4.76 v -0.69 h -11.36 c 0,-2.3 1.11,-3.45 3.31,-3.45 1.13,0 1.99,0.49 2.59,1.45 h 5.24 c -0.41,-1.38 -1.03,-2.44 -1.84,-3.2 -1.47,-1.37 -3.45,-2.05 -5.92,-2.05 -3.14,0 -5.5,0.95 -7.08,2.87 -1.19,1.42 -1.78,3.16 -1.78,5.22 0,2.44 0.74,4.42 2.22,5.95 1.48,1.53 3.58,2.29 6.28,2.29 z m -534.75,0 c 3.33,0 5.71,-1.21 7.14,-3.63 0.8,-1.37 1.2,-2.95 1.2,-4.76 v -0.69 h -11.36 c 0,-2.3 1.11,-3.45 3.31,-3.45 1.13,0 1.99,0.49 2.59,1.45 h 5.24 c -0.41,-1.38 -1.03,-2.44 -1.84,-3.2 -1.47,-1.37 -3.45,-2.05 -5.92,-2.05 -3.14,0 -5.5,0.95 -7.08,2.87 -1.19,1.42 -1.78,3.16 -1.78,5.22 0,2.44 0.74,4.42 2.22,5.95 1.48,1.53 3.58,2.29 6.28,2.29 z m 482.92,0.05 c 1.08,0 2.1,-0.23 3.06,-0.68 0.54,-0.26 1.11,-0.69 1.69,-1.3 v 1.5 h 5.42 v -15.29 h -5.42 v 1.7 c -0.51,-0.65 -1.04,-1.13 -1.56,-1.42 -0.92,-0.52 -1.97,-0.78 -3.15,-0.78 -1.89,0 -3.58,0.66 -5.06,1.96 -1.77,1.56 -2.65,3.62 -2.65,6.19 0,2.61 0.9,4.7 2.71,6.26 1.44,1.24 3.09,1.86 4.96,1.86 z m -39,0 c 1.08,0 2.1,-0.23 3.06,-0.68 0.54,-0.26 1.11,-0.69 1.69,-1.3 v 1.5 h 5.42 v -15.29 h -5.42 v 1.7 c -0.51,-0.65 -1.04,-1.13 -1.56,-1.42 -0.92,-0.52 -1.97,-0.78 -3.15,-0.78 -1.89,0 -3.58,0.66 -5.06,1.96 -1.77,1.56 -2.65,3.62 -2.65,6.19 0,2.61 0.9,4.7 2.71,6.26 1.44,1.24 3.09,1.86 4.96,1.86 z m -136.5,0 c 1.08,0 2.1,-0.23 3.06,-0.68 0.54,-0.26 1.11,-0.69 1.69,-1.3 v 1.5 h 5.42 v -15.29 h -5.42 v 1.7 c -0.51,-0.65 -1.04,-1.13 -1.56,-1.42 -0.92,-0.52 -1.97,-0.78 -3.15,-0.78 -1.89,0 -3.58,0.66 -5.06,1.96 -1.77,1.56 -2.65,3.62 -2.65,6.19 0,2.61 0.9,4.7 2.71,6.26 1.44,1.24 3.09,1.86 4.96,1.86 z m -178.5,0 c 1.08,0 2.1,-0.23 3.06,-0.68 0.54,-0.26 1.11,-0.69 1.69,-1.3 v 1.5 h 5.42 v -15.29 h -5.42 v 1.7 c -0.51,-0.65 -1.04,-1.13 -1.56,-1.42 -0.92,-0.52 -1.97,-0.78 -3.15,-0.78 -1.89,0 -3.58,0.66 -5.06,1.96 -1.77,1.56 -2.65,3.62 -2.65,6.19 0,2.61 0.9,4.7 2.71,6.26 1.44,1.24 3.09,1.86 4.96,1.86 z m -143.06,0 c 1.26,0 2.43,-0.29 3.53,-0.86 v -4.6 c -0.95,0.67 -1.88,1.01 -2.79,1.01 -1.08,0 -1.96,-0.35 -2.67,-1.04 -0.7,-0.69 -1.05,-1.58 -1.05,-2.65 0,-1.08 0.35,-1.96 1.05,-2.66 0.71,-0.69 1.59,-1.03 2.67,-1.03 0.9,0 1.83,0.33 2.79,0.99 v -4.6 c -1.12,-0.56 -2.29,-0.84 -3.53,-0.84 -2.79,0 -5,0.94 -6.64,2.83 -1.31,1.53 -1.97,3.3 -1.97,5.31 0,2.02 0.66,3.79 1.97,5.3 1.64,1.89 3.85,2.84 6.64,2.84 z m 633.76,0.08 c 2.89,0 5.2,-0.93 6.92,-2.78 1.41,-1.52 2.11,-3.33 2.11,-5.43 0,-2.12 -0.69,-3.93 -2.09,-5.45 -1.69,-1.85 -4.06,-2.77 -7.1,-2.77 -3.06,0 -5.43,0.92 -7.12,2.77 -1.4,1.52 -2.09,3.38 -2.09,5.59 0,1.98 0.7,3.75 2.11,5.29 1.7,1.85 4.12,2.78 7.26,2.78 z m -269.25,0 c 2.89,0 5.2,-0.93 6.92,-2.78 1.41,-1.52 2.11,-3.33 2.11,-5.43 0,-2.12 -0.69,-3.93 -2.09,-5.45 -1.69,-1.85 -4.06,-2.77 -7.1,-2.77 -3.06,0 -5.43,0.92 -7.12,2.77 -1.4,1.52 -2.09,3.38 -2.09,5.59 0,1.98 0.7,3.75 2.11,5.29 1.7,1.85 4.12,2.78 7.26,2.78 z m -105.75,0 c 2.89,0 5.2,-0.93 6.92,-2.78 1.41,-1.52 2.11,-3.33 2.11,-5.43 0,-2.12 -0.69,-3.93 -2.09,-5.45 -1.69,-1.85 -4.06,-2.77 -7.1,-2.77 -3.06,0 -5.43,0.92 -7.12,2.77 -1.4,1.52 -2.09,3.38 -2.09,5.59 0,1.98 0.7,3.75 2.11,5.29 1.7,1.85 4.12,2.78 7.26,2.78 z m -193.5,0 c 2.89,0 5.2,-0.93 6.92,-2.78 1.41,-1.52 2.11,-3.33 2.11,-5.43 0,-2.12 -0.69,-3.93 -2.09,-5.45 -1.69,-1.85 -4.06,-2.77 -7.1,-2.77 -3.06,0 -5.43,0.92 -7.12,2.77 -1.4,1.52 -2.09,3.38 -2.09,5.59 0,1.98 0.7,3.75 2.11,5.29 1.7,1.85 4.12,2.78 7.26,2.78 z m -94.5,0 c 2.89,0 5.2,-0.93 6.92,-2.78 1.41,-1.52 2.11,-3.33 2.11,-5.43 0,-2.12 -0.69,-3.93 -2.09,-5.45 -1.69,-1.85 -4.06,-2.77 -7.1,-2.77 -3.06,0 -5.43,0.92 -7.121,2.77 -1.395,1.52 -2.093,3.38 -2.093,5.59 0,1.98 0.703,3.75 2.109,5.29 1.705,1.85 4.125,2.78 7.265,2.78 z m 742.61,4.04 h 5.42 v -4.6 h 3.09 v -4.43 h -3.09 v -10.86 h -5.42 v 10.86 h -1.78 v 4.43 h 1.78 z m -377.25,0 h 5.42 v -4.6 h 3.09 v -4.43 h -3.09 v -10.86 h -5.42 v 10.86 h -1.78 v 4.43 h 1.78 z m 341.14,2.6 h 12.8 v -4.88 h -6.95 v -3.84 h 6.57 v -4.87 h -6.57 v -4.02 h 6.95 v -4.88 h -12.8 z m -67.5,0 h 5.85 v -17.61 h 7.02 v -4.88 h -12.87 z m -195.23,0 h 6.38 l 8.47,-22.49 h -6.25 l -1.45,3.92 h -8.07 l -1.55,-3.92 h -6.18 z m -206.02,0 h 5.85 v -22.49 h -5.85 z m -271.61,0 h 6.361 l 5.422,-13.68 5.471,13.68 h 6.345 l -9.591,-22.49 h -4.549 z m 110.8,0.48 c 1.56,0 3.31,-0.38 5.26,-1.14 v -7 c -0.55,0.67 -1.12,1.18 -1.69,1.53 -1.04,0.63 -2.17,0.94 -3.36,0.94 -1.52,0 -2.84,-0.46 -3.97,-1.37 -1.41,-1.16 -2.12,-2.74 -2.12,-4.76 0,-2 0.71,-3.59 2.12,-4.74 1.13,-0.92 2.45,-1.37 3.97,-1.37 1.19,0 2.32,0.31 3.36,0.94 0.56,0.33 1.12,0.84 1.69,1.53 v -7.01 c -1.92,-0.75 -3.68,-1.13 -5.31,-1.13 -2.83,0 -5.37,0.9 -7.61,2.72 -2.86,2.32 -4.29,5.34 -4.29,9.06 0,3.74 1.43,6.76 4.29,9.08 2.24,1.81 4.79,2.72 7.66,2.72 z m 525.99,1.22 c 0.84,0 1.56,-0.29 2.15,-0.88 0.59,-0.59 0.89,-1.3 0.89,-2.14 0,-0.86 -0.29,-1.58 -0.88,-2.17 -0.58,-0.58 -1.31,-0.87 -2.16,-0.87 -0.84,0 -1.56,0.29 -2.14,0.88 -0.59,0.59 -0.88,1.31 -0.88,2.16 0,0.84 0.29,1.55 0.88,2.14 0.58,0.59 1.3,0.88 2.14,0.88 z m -99,0 c 0.84,0 1.56,-0.29 2.15,-0.88 0.59,-0.59 0.89,-1.3 0.89,-2.14 0,-0.86 -0.29,-1.58 -0.88,-2.17 -0.58,-0.58 -1.31,-0.87 -2.16,-0.87 -0.84,0 -1.56,0.29 -2.14,0.88 -0.59,0.59 -0.88,1.31 -0.88,2.16 0,0.84 0.29,1.55 0.88,2.14 0.58,0.59 1.3,0.88 2.14,0.88 z m -125.25,0 c 0.84,0 1.56,-0.29 2.15,-0.88 0.59,-0.59 0.89,-1.3 0.89,-2.14 0,-0.86 -0.29,-1.58 -0.88,-2.17 -0.58,-0.58 -1.31,-0.87 -2.16,-0.87 -0.84,0 -1.56,0.29 -2.14,0.88 -0.59,0.59 -0.88,1.31 -0.88,2.16 0,0.84 0.29,1.55 0.88,2.14 0.58,0.59 1.3,0.88 2.14,0.88 z m -363.75,0 c 0.84,0 1.56,-0.29 2.15,-0.88 0.59,-0.59 0.89,-1.3 0.89,-2.14 0,-0.86 -0.29,-1.58 -0.88,-2.17 -0.58,-0.58 -1.31,-0.87 -2.16,-0.87 -0.84,0 -1.56,0.29 -2.14,0.88 -0.59,0.59 -0.88,1.31 -0.88,2.16 0,0.84 0.29,1.55 0.88,2.14 0.58,0.59 1.3,0.88 2.14,0.88 z m 546.31,0.56 h 5.42 v -24.75 h -5.42 z m -21,0 h 5.42 v -10.98 c 0.58,0.61 1.14,1.04 1.69,1.31 0.96,0.46 1.98,0.69 3.06,0.69 1.87,0 3.52,-0.62 4.96,-1.86 1.81,-1.56 2.71,-3.65 2.71,-6.26 0,-2.57 -0.88,-4.63 -2.65,-6.19 -1.48,-1.3 -3.17,-1.96 -5.07,-1.96 -1.17,0 -2.22,0.26 -3.14,0.78 -0.56,0.31 -1.08,0.78 -1.56,1.42 v -1.7 h -5.42 z m -30,0 h 5.42 v -24.75 h -5.42 z m -292.69,0 h 5.42 v -24.75 h -5.42 v 1.7 c -0.51,-0.65 -1.04,-1.13 -1.56,-1.42 -0.92,-0.52 -1.97,-0.78 -3.15,-0.78 -1.89,0 -3.58,0.66 -5.06,1.96 -1.77,1.56 -2.65,3.62 -2.65,6.19 0,2.61 0.9,4.7 2.71,6.26 1.44,1.24 3.09,1.86 4.96,1.86 1.08,0 2.1,-0.23 3.06,-0.69 0.54,-0.27 1.11,-0.7 1.69,-1.31 z m 56.95,0.05 c 0.79,0 1.59,-0.19 2.39,-0.56 v -4.7 c -0.73,0.41 -1.36,0.61 -1.88,0.61 -0.74,0 -1.27,-0.28 -1.61,-0.84 -0.2,-0.32 -0.3,-1.11 -0.3,-2.37 v -1.65 h 3.79 v -4.45 h -3.79 v -10.84 h -5.42 v 10.84 h -1.93 v 4.45 h 1.93 v 2.03 c 0,2.25 0.57,3.99 1.71,5.21 1.42,1.51 3.12,2.27 5.11,2.27 z"
       style="fill:url(#linearGradient6128);fill-opacity:1;fill-rule:evenodd;stroke:none"
       id="path6130" /><text
       transform="scale(1,-1)"
       style="font-variant:normal;font-weight:bold;font-size:33.8px;font-family:Aharoni;-inkscape-font-specification:Aharoni-Bold;writing-mode:lr-tb;fill:#000000;fill-opacity:0;fill-rule:nonzero;stroke:none"
       id="text6142"
       x="73.25"
       y="-443.63"><tspan
         x="73.25 96.5382 117.528 126.654 140.81619 160.3188 170.7968 191.043 212.03281 241.3036 270.5744 291.5304 311.1344 332.09039 342.63599 353.21539 372.6842 384.6832 405.673 419.9028 449.17361 470.12961 481.45261 490.57861 511.50079 531.03723 542.2926 566.29059 585.79321 606.85059 615.97662 624.89978 645.85577 666.91321 676.03918 695.3728 705.95221 715.07819 734.51318 744.24762 760.03223 781.02197 802.01178 811.74622 828.27441 847.81079 859.06622 873.29602"
         y="-443.63"
         sodipodi:role="line"
         id="tspan6140">Voice Command Information Available in Log Entry</tspan></text><path
       d="m 856.13,371.62 c 0,6.22 0.83,11.25 1.87,11.25 h 10.13 c 1.03,0 1.87,5.04 1.87,11.25 0,-6.21 0.84,-11.25 1.87,-11.25 H 882 c 1.04,0 1.88,-5.03 1.88,-11.25"
       style="fill:none;stroke:#00bac8;stroke-width:0.5;stroke-linecap:butt;stroke-linejoin:miter;stroke-miterlimit:10;stroke-dasharray:none;stroke-opacity:1"
       id="path6152" /><text
       transform="scale(1,-1)"
       style="font-variant:normal;font-weight:normal;font-size:18.025px;font-family:AvenirNextLTPro;-inkscape-font-specification:AvenirNextLTPro;writing-mode:lr-tb;fill:#00bac8;fill-opacity:1;fill-rule:nonzero;stroke:none"
       id="text6164"
       x="812.45001"
       y="-402.07999"><tspan
         x="812.45001 816.99231 828.23993 839.52356 850.80719 861.3158 868.07513 878.60175 889.11035 895.86969 904.12512 908.63141 919.17603"
         y="-402.07999"
         sodipodi:role="line"
         id="tspan6162">loggerVersion</tspan></text><text
       transform="scale(1,-1)"
       style="font-variant:normal;font-weight:normal;font-size:18.025px;font-family:AvenirNextLTPro;-inkscape-font-specification:AvenirNextLTPro;writing-mode:lr-tb;fill:#000000;fill-opacity:1;fill-rule:nonzero;stroke:none"
       id="text6176"
       x="857.28003"
       y="-364.95001"><tspan
         x="857.28003 867.78857 872.2948 882.80341"
         y="-364.95001"
         sodipodi:role="line"
         id="tspan6174">1.3,</tspan></text><path
       d="m 31.125,370.87 c 0,6.84 0.923,12.38 2.062,12.38 h 79.873 c 1.14,0 2.06,5.54 2.06,12.37 0,-6.83 0.93,-12.37 2.07,-12.37 h 79.87 c 1.14,0 2.07,-5.54 2.07,-12.38"
       style="fill:none;stroke:#00bac8;stroke-width:0.5;stroke-linecap:butt;stroke-linejoin:miter;stroke-miterlimit:10;stroke-dasharray:none;stroke-opacity:1"
       id="path6186" /><text
       transform="scale(1,-1)"
       style="font-variant:normal;font-weight:normal;font-size:18.025px;font-family:AvenirNextLTPro;-inkscape-font-specification:AvenirNextLTPro;writing-mode:lr-tb;fill:#00bac8;fill-opacity:1;fill-rule:nonzero;stroke:none"
       id="text6198"
       x="95"
       y="-402.07999"><tspan
         x="95 104.03053 113.04302 124.32668"
         y="-402.07999"
         sodipodi:role="line"
         id="tspan6196">Type</tspan></text><text
       transform="scale(1,-1)"
       style="font-variant:normal;font-weight:normal;font-size:18.025px;font-family:AvenirNextLTPro;-inkscape-font-specification:AvenirNextLTPro;writing-mode:lr-tb;fill:#000000;fill-opacity:1;fill-rule:nonzero;stroke:none"
       id="text6210"
       x="34.275002"
       y="-363.28"><tspan
         x="34.275002 45.504574 60.573475 65.079727 77.859451 88.368027 97.380524 110.14223 125.17508 140.94695 156.71881 169.48051 182.99927 195.77899"
         y="-363.28"
         sodipodi:role="line"
         id="tspan6208">VOICE_COMMAND,</tspan></text><path
       d="m 208.13,370.87 c 0,6.63 0.89,12 1.99,12 H 238 c 1.1,0 2,5.38 2,12 0,-6.62 0.9,-12 2,-12 h 27.88 c 1.1,0 2,-5.37 2,-12"
       style="fill:none;stroke:#00bac8;stroke-width:0.5;stroke-linecap:butt;stroke-linejoin:miter;stroke-miterlimit:10;stroke-dasharray:none;stroke-opacity:1"
       id="path6220" /><text
       transform="scale(1,-1)"
       style="font-variant:normal;font-weight:normal;font-size:18.025px;font-family:AvenirNextLTPro;-inkscape-font-specification:AvenirNextLTPro;writing-mode:lr-tb;fill:#00bac8;fill-opacity:1;fill-rule:nonzero;stroke:none"
       id="text6232"
       x="186.5"
       y="-402.07999"><tspan
         x="186.5 197.00858 201.55087 211.28438 222.56802 230.82347 241.33205 252.61569 263.12427 267.63052 283.42041"
         y="-402.07999"
         sodipodi:role="line"
         id="tspan6230">elapsedTime</tspan></text><text
       transform="scale(1,-1)"
       style="font-variant:normal;font-weight:normal;font-size:18.025px;font-family:AvenirNextLTPro;-inkscape-font-specification:AvenirNextLTPro;writing-mode:lr-tb;fill:#000000;fill-opacity:1;fill-rule:nonzero;stroke:none"
       id="text6244"
       x="208.10001"
       y="-364.95001"><tspan
         x="208.10001 218.625 229.14999 239.675 250.2 260.72501 271.25"
         y="-364.95001"
         sodipodi:role="line"
         id="tspan6242">179632,</tspan></text><path
       d="m 281.63,371.62 c 0,6.01 0.81,10.88 1.81,10.88 h 94.25 c 1,0 1.81,4.87 1.81,10.87 0,-6 0.81,-10.87 1.81,-10.87 h 94.25 c 1,0 1.82,-4.87 1.82,-10.88"
       style="fill:none;stroke:#00bac8;stroke-width:0.5;stroke-linecap:butt;stroke-linejoin:miter;stroke-miterlimit:10;stroke-dasharray:none;stroke-opacity:1"
       id="path6254" /><text
       transform="scale(1,-1)"
       style="font-variant:normal;font-weight:normal;font-size:18.025px;font-family:AvenirNextLTPro;-inkscape-font-specification:AvenirNextLTPro;writing-mode:lr-tb;fill:#00bac8;fill-opacity:1;fill-rule:nonzero;stroke:none"
       id="text6266"
       x="332.64999"
       y="-402.07999"><tspan
         x="332.64999 343.14056 347.64679 363.41867 373.90921 382.14664 388.13095 397.86444 413.63632"
         y="-402.07999"
         sodipodi:role="line"
         id="tspan6264">Timestamp</tspan></text><text
       transform="scale(1,-1)"
       style="font-variant:normal;font-weight:normal;font-size:18.025px;font-family:AvenirNextLTPro;-inkscape-font-specification:AvenirNextLTPro;writing-mode:lr-tb;fill:#000000;fill-opacity:1;fill-rule:nonzero;stroke:none"
       id="text6278"
       x="281.70001"
       y="-363.28"><tspan
         x="281.70001 292.15451 298.93188 309.38641 319.91299 326.63632 337.09082 347.61743 358.07193 368.59851 373.10477 383.5593 394.08588 399.33115 409.78564 420.31226 425.55753 436.01202 446.53864 451.04489 461.49939 477.28928"
         y="-363.28"
         sodipodi:role="line"
         id="tspan6276">9/11/2023 12:48:44 PM,</tspan></text><path
       d="m 487.88,372.37 c 0,6.01 0.81,10.88 1.81,10.88 h 176.37 c 1,0 1.82,4.87 1.82,10.87 0,-6 0.81,-10.87 1.81,-10.87 h 176.37 c 1,0 1.82,-4.87 1.82,-10.88"
       style="fill:none;stroke:#00bac8;stroke-width:0.5;stroke-linecap:butt;stroke-linejoin:miter;stroke-miterlimit:10;stroke-dasharray:none;stroke-opacity:1"
       id="path6288" /><text
       transform="scale(1,-1)"
       style="font-variant:normal;font-weight:normal;font-size:18.025px;font-family:AvenirNextLTPro;-inkscape-font-specification:AvenirNextLTPro;writing-mode:lr-tb;fill:#00bac8;fill-opacity:1;fill-rule:nonzero;stroke:none"
       id="text6300"
       x="628.15002"
       y="-402.07999"><tspan
         x="628.15002 638.64056 649.1311 657.36853 665.60596 670.11218 681.3418 691.81427 696.33856"
         y="-402.07999"
         sodipodi:role="line"
         id="tspan6298">SessionId</tspan></text><text
       transform="scale(1,-1)"
       style="font-variant:normal;font-weight:normal;font-size:18.025px;font-family:AvenirNextLTPro;-inkscape-font-specification:AvenirNextLTPro;writing-mode:lr-tb;fill:#000000;fill-opacity:1;fill-rule:nonzero;stroke:none"
       id="text6312"
       x="489.76999"
       y="-363.28"><tspan
         x="489.76999 500.22449 509.99405 520.44855 530.97516 541.42963 551.95624 562.44678"
         y="-363.28"
         sodipodi:role="line"
         id="tspan6310">2a5106e4</tspan></text><text
       transform="scale(1,-1)"
       style="font-variant:normal;font-weight:normal;font-size:18.025px;font-family:AvenirNextLTPro;-inkscape-font-specification:AvenirNextLTPro;writing-mode:lr-tb;fill:#000000;fill-opacity:1;fill-rule:nonzero;stroke:none"
       id="text6324"
       x="573.08002"
       y="-363.28"><tspan
         x="573.08002"
         y="-363.28"
         id="tspan6322">-</tspan></text><text
       transform="scale(1,-1)"
       style="font-variant:normal;font-weight:normal;font-size:18.025px;font-family:AvenirNextLTPro;-inkscape-font-specification:AvenirNextLTPro;writing-mode:lr-tb;fill:#000000;fill-opacity:1;fill-rule:nonzero;stroke:none"
       id="text6336"
       x="579.08002"
       y="-363.28"><tspan
         x="579.08002 589.60498 600.13 610.65503"
         y="-363.28"
         sodipodi:role="line"
         id="tspan6334">984c</tspan></text><text
       transform="scale(1,-1)"
       style="font-variant:normal;font-weight:normal;font-size:18.025px;font-family:AvenirNextLTPro;-inkscape-font-specification:AvenirNextLTPro;writing-mode:lr-tb;fill:#000000;fill-opacity:1;fill-rule:nonzero;stroke:none"
       id="text6348"
       x="619.63"
       y="-363.28"><tspan
         x="619.63"
         y="-363.28"
         id="tspan6346">-</tspan></text><text
       transform="scale(1,-1)"
       style="font-variant:normal;font-weight:normal;font-size:18.025px;font-family:AvenirNextLTPro;-inkscape-font-specification:AvenirNextLTPro;writing-mode:lr-tb;fill:#000000;fill-opacity:1;fill-rule:nonzero;stroke:none"
       id="text6360"
       x="625.63"
       y="-363.28"><tspan
         x="625.63 636.08447 646.61108 656.3446"
         y="-363.28"
         sodipodi:role="line"
         id="tspan6358">42a7</tspan></text><text
       transform="scale(1,-1)"
       style="font-variant:normal;font-weight:normal;font-size:18.025px;font-family:AvenirNextLTPro;-inkscape-font-specification:AvenirNextLTPro;writing-mode:lr-tb;fill:#000000;fill-opacity:1;fill-rule:nonzero;stroke:none"
       id="text6372"
       x="666.90002"
       y="-363.28"><tspan
         x="666.90002"
         y="-363.28"
         id="tspan6370">-</tspan></text><text
       transform="scale(1,-1)"
       style="font-variant:normal;font-weight:normal;font-size:18.025px;font-family:AvenirNextLTPro;-inkscape-font-specification:AvenirNextLTPro;writing-mode:lr-tb;fill:#000000;fill-opacity:1;fill-rule:nonzero;stroke:none"
       id="text6384"
       x="672.90002"
       y="-363.28"><tspan
         x="672.90002 683.40857 693.91718 705.20081"
         y="-363.28"
         sodipodi:role="line"
         id="tspan6382">9edd</tspan></text><text
       transform="scale(1,-1)"
       style="font-variant:normal;font-weight:normal;font-size:18.025px;font-family:AvenirNextLTPro;-inkscape-font-specification:AvenirNextLTPro;writing-mode:lr-tb;fill:#000000;fill-opacity:1;fill-rule:nonzero;stroke:none"
       id="text6396"
       x="716.45001"
       y="-363.28"><tspan
         x="716.45001"
         y="-363.28"
         id="tspan6394">-</tspan></text><text
       transform="scale(1,-1)"
       style="font-variant:normal;font-weight:normal;font-size:18.025px;font-family:AvenirNextLTPro;-inkscape-font-specification:AvenirNextLTPro;writing-mode:lr-tb;fill:#000000;fill-opacity:1;fill-rule:nonzero;stroke:none"
       id="text6408"
       x="722.45001"
       y="-363.28"><tspan
         x="722.45001 732.90448 738.22186 749.45148 759.90594 770.43256 780.88702 791.41364 801.86816 812.39478 823.64233 834.09686 844.62347"
         y="-363.28"
         sodipodi:role="line"
         id="tspan6406">2fb3e6325d10,</tspan></text><path
       d="m 338.63,244.12 c 0,4.35 0.58,7.88 1.31,7.88 h 59.25 c 0.72,0 1.31,3.53 1.31,7.87 0,-4.34 0.59,-7.87 1.31,-7.87 h 59.25 c 0.73,0 1.32,-3.53 1.32,-7.88"
       style="fill:none;stroke:#00bac8;stroke-width:0.5;stroke-linecap:butt;stroke-linejoin:miter;stroke-miterlimit:10;stroke-dasharray:none;stroke-opacity:1"
       id="path6418" /><text
       transform="scale(1,-1)"
       style="font-variant:normal;font-weight:normal;font-size:18.025px;font-family:AvenirNextLTPro;-inkscape-font-specification:AvenirNextLTPro;writing-mode:lr-tb;fill:#00bac8;fill-opacity:1;fill-rule:nonzero;stroke:none"
       id="text6430"
       x="363.07999"
       y="-265.13"><tspan
         x="363.07999 378.83386 389.3244 397.56183 405.79926 415.53275 426.78036"
         y="-265.13"
         sodipodi:role="line"
         id="tspan6428">Message</tspan></text><text
       transform="scale(1,-1)"
       style="font-variant:normal;font-weight:normal;font-size:18.025px;font-family:AvenirNextLTPro;-inkscape-font-specification:AvenirNextLTPro;writing-mode:lr-tb;fill:#000000;fill-opacity:1;fill-rule:nonzero;stroke:none"
       id="text6442"
       x="337.92001"
       y="-232.14999"><tspan
         x="337.92001 351.42072 361.15424 370.13068 380.62122 384.37042 388.87668 394.86096 399.36722 408.34369 419.57324 430.04578 433.83102 442.84354 452.55899 463.03152"
         y="-232.14999"
         sodipodi:role="line"
         id="tspan6440">wave if you can,</tspan></text><path
       d="m 512.63,242.62 c 0,4.77 0.64,8.63 1.43,8.63 h 18.5 c 0.8,0 1.44,3.86 1.44,8.62 0,-4.76 0.64,-8.62 1.44,-8.62 h 18.5 c 0.79,0 1.44,-3.86 1.44,-8.63"
       style="fill:none;stroke:#00bac8;stroke-width:0.5;stroke-linecap:butt;stroke-linejoin:miter;stroke-miterlimit:10;stroke-dasharray:none;stroke-opacity:1"
       id="path6452" /><text
       transform="scale(1,-1)"
       style="font-variant:normal;font-weight:normal;font-size:18.025px;font-family:AvenirNextLTPro;-inkscape-font-specification:AvenirNextLTPro;writing-mode:lr-tb;fill:#00bac8;fill-opacity:1;fill-rule:nonzero;stroke:none"
       id="text6464"
       x="444.54999"
       y="-265.13"><tspan
         x="444.54999 453.5625 464.77405 480.54593 496.31781 506.0513 516.5238 527.8075 541.32623 551.81677 560.0542 569.06671 575.79004 580.29626 591.54388 597.5282 602.03442 613.26398"
         y="-265.13"
         sodipodi:role="line"
         id="tspan6462">commandDescription</tspan></text><text
       transform="scale(1,-1)"
       style="font-variant:normal;font-weight:normal;font-size:18.025px;font-family:AvenirNextLTPro;-inkscape-font-specification:AvenirNextLTPro;writing-mode:lr-tb;fill:#000000;fill-opacity:1;fill-rule:nonzero;stroke:none"
       id="text6476"
       x="512.96997"
       y="-230.5"><tspan
         x="512.96997 526.4707 536.22223 545.19867 555.70728"
         y="-230.5"
         sodipodi:role="line"
         id="tspan6474">wave,</tspan></text></g></svg>
