<?xml version="1.0" encoding="UTF-8" standalone="no"?>
<svg
   xmlns:dc="http://purl.org/dc/elements/1.1/"
   xmlns:cc="http://creativecommons.org/ns#"
   xmlns:rdf="http://www.w3.org/1999/02/22-rdf-syntax-ns#"
   xmlns:svg="http://www.w3.org/2000/svg"
   xmlns="http://www.w3.org/2000/svg"
   xmlns:sodipodi="http://sodipodi.sourceforge.net/DTD/sodipodi-0.dtd"
   xmlns:inkscape="http://www.inkscape.org/namespaces/inkscape"
   version="1.1"
   id="svg5703"
   xml:space="preserve"
   width="1280"
   height="720"
   viewBox="0 0 1280 720"
   sodipodi:docname="frvrs_data_and_analysis_presentation_for_itm_slide006.svg"
   inkscape:version="1.0.2-2 (e86c870879, 2021-01-15)"
   inkscape:export-filename="C:\Users\DaveBabbitt\Documents\GitHub\itm-analysis-reporting\saves\png\frvrs_data_and_analysis_presentation_for_itm\slide006.png"
   inkscape:export-xdpi="96"
   inkscape:export-ydpi="96"><metadata
     id="metadata5709"><rdf:RDF><cc:Work
         rdf:about=""><dc:format>image/svg+xml</dc:format><dc:type
           rdf:resource="http://purl.org/dc/dcmitype/StillImage" /><dc:title></dc:title></cc:Work></rdf:RDF></metadata><defs
     id="defs5707"><clipPath
       clipPathUnits="userSpaceOnUse"
       id="clipPath5719"><path
         d="M 0,1.2207e-4 H 960 V 540.00012 H 0 Z"
         clip-rule="evenodd"
         id="path5717" /></clipPath><clipPath
       clipPathUnits="userSpaceOnUse"
       id="clipPath5729"><path
         d="M 0,1.2207e-4 H 960 V 540.00012 H 0 Z"
         clip-rule="evenodd"
         id="path5727" /></clipPath><linearGradient
       x1="73.199997"
       y1="452.54001"
       x2="1725.2"
       y2="452.54001"
       gradientUnits="userSpaceOnUse"
       spreadMethod="pad"
       id="linearGradient5739"><stop
         style="stop-opacity:1;stop-color:#00bac8"
         offset="0"
         id="stop5735" /><stop
         style="stop-opacity:1;stop-color:#00bac8"
         offset="1"
         id="stop5737" /></linearGradient><clipPath
       clipPathUnits="userSpaceOnUse"
       id="clipPath5749"><path
         d="M 75.75,432.75 H 900 v 37.5 H 75.75 Z"
         clip-rule="evenodd"
         id="path5747" /></clipPath><clipPath
       clipPathUnits="userSpaceOnUse"
       id="clipPath5761"><path
         d="M 9.1553e-5,540 H 960 V 1.8311e-4 L 1.2207e-4,1.2207e-4"
         clip-rule="evenodd"
         id="path5759" /></clipPath><clipPath
       clipPathUnits="userSpaceOnUse"
       id="clipPath5771"><path
         d="M 1.4305e-5,0 H 960.00001 V 540 H 1.4305e-5 Z"
         clip-rule="evenodd"
         id="path5769" /></clipPath><clipPath
       clipPathUnits="userSpaceOnUse"
       id="clipPath5783"><path
         d="M 1.4305e-5,0 H 960.00001 V 540 H 1.4305e-5 Z"
         clip-rule="evenodd"
         id="path5781" /></clipPath><clipPath
       clipPathUnits="userSpaceOnUse"
       id="clipPath5795"><path
         d="M 1.2207e-4,540 H 960 V 1.8311e-4 L 1.8311e-4,1.2207e-4"
         clip-rule="evenodd"
         id="path5793" /></clipPath><clipPath
       clipPathUnits="userSpaceOnUse"
       id="clipPath5805"><path
         d="M 1.4305e-5,0 H 960.00001 V 540 H 1.4305e-5 Z"
         clip-rule="evenodd"
         id="path5803" /></clipPath><clipPath
       clipPathUnits="userSpaceOnUse"
       id="clipPath5817"><path
         d="M 1.4305e-5,0 H 960.00001 V 540 H 1.4305e-5 Z"
         clip-rule="evenodd"
         id="path5815" /></clipPath><clipPath
       clipPathUnits="userSpaceOnUse"
       id="clipPath5829"><path
         d="M 3.0518e-5,540 H 960 V 2.4414e-4 L 6.1035e-5,1.8311e-4"
         clip-rule="evenodd"
         id="path5827" /></clipPath><clipPath
       clipPathUnits="userSpaceOnUse"
       id="clipPath5839"><path
         d="M 1.4305e-5,0 H 960.00001 V 540 H 1.4305e-5 Z"
         clip-rule="evenodd"
         id="path5837" /></clipPath><clipPath
       clipPathUnits="userSpaceOnUse"
       id="clipPath5851"><path
         d="M 1.4305e-5,0 H 960.00001 V 540 H 1.4305e-5 Z"
         clip-rule="evenodd"
         id="path5849" /></clipPath><clipPath
       clipPathUnits="userSpaceOnUse"
       id="clipPath5863"><path
         d="M 1.2207e-4,540 H 960 V 1.8311e-4 L 1.8311e-4,1.2207e-4"
         clip-rule="evenodd"
         id="path5861" /></clipPath><clipPath
       clipPathUnits="userSpaceOnUse"
       id="clipPath5873"><path
         d="M 1.4305e-5,0 H 960.00001 V 540 H 1.4305e-5 Z"
         clip-rule="evenodd"
         id="path5871" /></clipPath><clipPath
       clipPathUnits="userSpaceOnUse"
       id="clipPath5885"><path
         d="M 1.4305e-5,0 H 960.00001 V 540 H 1.4305e-5 Z"
         clip-rule="evenodd"
         id="path5883" /></clipPath><clipPath
       clipPathUnits="userSpaceOnUse"
       id="clipPath5897"><path
         d="M 1.4305e-5,0 H 960.00001 V 540 H 1.4305e-5 Z"
         clip-rule="evenodd"
         id="path5895" /></clipPath><clipPath
       clipPathUnits="userSpaceOnUse"
       id="clipPath5909"><path
         d="M 1.4305e-5,0 H 960.00001 V 540 H 1.4305e-5 Z"
         clip-rule="evenodd"
         id="path5907" /></clipPath><clipPath
       clipPathUnits="userSpaceOnUse"
       id="clipPath5921"><path
         d="M 1.4305e-5,0 H 960.00001 V 540 H 1.4305e-5 Z"
         clip-rule="evenodd"
         id="path5919" /></clipPath><clipPath
       clipPathUnits="userSpaceOnUse"
       id="clipPath5933"><path
         d="M 1.4305e-5,0 H 960.00001 V 540 H 1.4305e-5 Z"
         clip-rule="evenodd"
         id="path5931" /></clipPath><clipPath
       clipPathUnits="userSpaceOnUse"
       id="clipPath5945"><path
         d="M 1.4305e-5,0 H 960.00001 V 540 H 1.4305e-5 Z"
         clip-rule="evenodd"
         id="path5943" /></clipPath><clipPath
       clipPathUnits="userSpaceOnUse"
       id="clipPath5957"><path
         d="M 1.4305e-5,0 H 960.00001 V 540 H 1.4305e-5 Z"
         clip-rule="evenodd"
         id="path5955" /></clipPath><clipPath
       clipPathUnits="userSpaceOnUse"
       id="clipPath5969"><path
         d="M 1.4305e-5,0 H 960.00001 V 540 H 1.4305e-5 Z"
         clip-rule="evenodd"
         id="path5967" /></clipPath><clipPath
       clipPathUnits="userSpaceOnUse"
       id="clipPath5981"><path
         d="M 1.4305e-5,0 H 960.00001 V 540 H 1.4305e-5 Z"
         clip-rule="evenodd"
         id="path5979" /></clipPath><clipPath
       clipPathUnits="userSpaceOnUse"
       id="clipPath5993"><path
         d="M 4.5776e-5,540 H 960 V 1.8311e-4 L 6.1035e-5,1.2207e-4"
         clip-rule="evenodd"
         id="path5991" /></clipPath><clipPath
       clipPathUnits="userSpaceOnUse"
       id="clipPath6003"><path
         d="M 1.4305e-5,0 H 960.00001 V 540 H 1.4305e-5 Z"
         clip-rule="evenodd"
         id="path6001" /></clipPath><clipPath
       clipPathUnits="userSpaceOnUse"
       id="clipPath6015"><path
         d="M 1.4305e-5,0 H 960.00001 V 540 H 1.4305e-5 Z"
         clip-rule="evenodd"
         id="path6013" /></clipPath><clipPath
       clipPathUnits="userSpaceOnUse"
       id="clipPath6027"><path
         d="M 6.1035e-5,540 H 960 V 1.8311e-4 L 1.2207e-4,1.2207e-4"
         clip-rule="evenodd"
         id="path6025" /></clipPath><clipPath
       clipPathUnits="userSpaceOnUse"
       id="clipPath6037"><path
         d="M 1.4305e-5,0 H 960.00001 V 540 H 1.4305e-5 Z"
         clip-rule="evenodd"
         id="path6035" /></clipPath><clipPath
       clipPathUnits="userSpaceOnUse"
       id="clipPath6049"><path
         d="M 1.4305e-5,0 H 960.00001 V 540 H 1.4305e-5 Z"
         clip-rule="evenodd"
         id="path6047" /></clipPath><clipPath
       clipPathUnits="userSpaceOnUse"
       id="clipPath6061"><path
         d="M 1.4305e-5,0 H 960.00001 V 540 H 1.4305e-5 Z"
         clip-rule="evenodd"
         id="path6059" /></clipPath><clipPath
       clipPathUnits="userSpaceOnUse"
       id="clipPath6073"><path
         d="M 1.4305e-5,0 H 960.00001 V 540 H 1.4305e-5 Z"
         clip-rule="evenodd"
         id="path6071" /></clipPath><clipPath
       clipPathUnits="userSpaceOnUse"
       id="clipPath6085"><path
         d="M 1.4305e-5,0 H 960.00001 V 540 H 1.4305e-5 Z"
         clip-rule="evenodd"
         id="path6083" /></clipPath><clipPath
       clipPathUnits="userSpaceOnUse"
       id="clipPath6097"><path
         d="M 1.4305e-5,0 H 960.00001 V 540 H 1.4305e-5 Z"
         clip-rule="evenodd"
         id="path6095" /></clipPath></defs><sodipodi:namedview
     pagecolor="#ffffff"
     bordercolor="#666666"
     borderopacity="1"
     objecttolerance="10"
     gridtolerance="10"
     guidetolerance="10"
     inkscape:pageopacity="0"
     inkscape:pageshadow="2"
     inkscape:window-width="1920"
     inkscape:window-height="1121"
     id="namedview5705"
     showgrid="false"
     inkscape:zoom="0.99765625"
     inkscape:cx="640"
     inkscape:cy="360"
     inkscape:window-x="-9"
     inkscape:window-y="611"
     inkscape:window-maximized="1"
     inkscape:current-layer="g5711" /><g
     id="g5711"
     inkscape:groupmode="layer"
     inkscape:label="FRVRS - Data and Analysis Presentation for ITM"
     transform="matrix(1.3333333,0,0,-1.3333333,0,720)"><path
       d="M 0,6.1035e-5 H 960 V 540.00006 H 0 Z"
       style="fill:#ffffff;fill-opacity:1;fill-rule:evenodd;stroke:none"
       id="path5721" /><path
       d="M 0,6.1035e-5 H 960 V 540.00006 H 0 Z"
       style="fill:#ffffff;fill-opacity:1;fill-rule:evenodd;stroke:none"
       id="path5731" /><path
       d="m 82.501,451.93 v -5.38 h 1.471 c 1.688,0 2.867,0.2 3.538,0.59 0.757,0.45 1.136,1.14 1.136,2.06 0,1.48 -0.764,2.35 -2.291,2.61 -0.484,0.08 -1.315,0.12 -2.495,0.12 z m 528.929,2.16 c -1.22,0 -2.21,-0.46 -2.99,-1.37 -0.64,-0.75 -0.95,-1.6 -0.95,-2.55 0,-0.95 0.31,-1.8 0.95,-2.55 0.76,-0.91 1.76,-1.37 2.99,-1.37 1.1,0 2.03,0.38 2.8,1.13 0.76,0.76 1.14,1.69 1.14,2.79 0,1.09 -0.38,2.02 -1.15,2.78 -0.77,0.76 -1.7,1.14 -2.79,1.14 z m -45,0 c -1.22,0 -2.21,-0.46 -2.99,-1.37 -0.64,-0.75 -0.95,-1.6 -0.95,-2.55 0,-0.95 0.31,-1.8 0.95,-2.55 0.76,-0.91 1.76,-1.37 2.99,-1.37 1.1,0 2.03,0.38 2.8,1.13 0.76,0.76 1.14,1.69 1.14,2.79 0,1.09 -0.38,2.02 -1.15,2.78 -0.77,0.76 -1.7,1.14 -2.79,1.14 z m -150,0 c -1.22,0 -2.21,-0.46 -2.99,-1.37 -0.64,-0.75 -0.95,-1.6 -0.95,-2.55 0,-0.95 0.31,-1.8 0.95,-2.55 0.76,-0.91 1.76,-1.37 2.99,-1.37 1.1,0 2.03,0.38 2.8,1.13 0.76,0.76 1.14,1.69 1.14,2.79 0,1.09 -0.38,2.02 -1.15,2.78 -0.77,0.76 -1.7,1.14 -2.79,1.14 z m -307.5,0 c -1.22,0 -2.21,-0.46 -2.99,-1.37 -0.64,-0.75 -0.95,-1.6 -0.95,-2.55 0,-0.95 0.31,-1.8 0.95,-2.55 0.76,-0.91 1.76,-1.37 2.99,-1.37 1.1,0 2.03,0.38 2.8,1.13 0.76,0.76 1.14,1.69 1.14,2.79 0,1.09 -0.38,2.02 -1.15,2.78 -0.77,0.76 -1.7,1.14 -2.79,1.14 z m 526.76,0.02 c -1.09,0 -2.02,-0.38 -2.79,-1.15 -0.77,-0.77 -1.15,-1.7 -1.15,-2.8 0,-1.1 0.38,-2.03 1.15,-2.8 0.77,-0.77 1.7,-1.15 2.79,-1.15 1.23,0 2.22,0.46 2.99,1.39 0.64,0.76 0.95,1.61 0.95,2.56 0,0.96 -0.31,1.82 -0.95,2.57 -0.78,0.92 -1.78,1.38 -2.99,1.38 z m -373.76,0 c -1.22,0 -2.21,-0.46 -2.99,-1.38 -0.64,-0.75 -0.95,-1.61 -0.95,-2.57 0,-0.96 0.31,-1.81 0.95,-2.56 0.76,-0.93 1.76,-1.39 2.99,-1.39 1.1,0 2.03,0.38 2.8,1.14 0.76,0.76 1.14,1.7 1.14,2.81 0,1.1 -0.38,2.03 -1.15,2.8 -0.77,0.77 -1.7,1.15 -2.79,1.15 z m 499.61,0.09 c -1.26,0 -2.29,-0.47 -3.09,-1.42 -0.64,-0.76 -0.96,-1.63 -0.96,-2.61 0,-0.99 0.32,-1.86 0.96,-2.63 0.8,-0.95 1.83,-1.42 3.09,-1.42 1.13,0 2.08,0.39 2.86,1.17 0.78,0.78 1.18,1.74 1.18,2.88 0,1.13 -0.4,2.08 -1.19,2.86 -0.78,0.78 -1.73,1.17 -2.85,1.17 z m -297.75,0 c -1.26,0 -2.29,-0.47 -3.09,-1.42 -0.64,-0.76 -0.96,-1.63 -0.96,-2.61 0,-0.99 0.32,-1.86 0.96,-2.63 0.8,-0.95 1.83,-1.42 3.09,-1.42 1.13,0 2.08,0.39 2.86,1.17 0.78,0.78 1.18,1.74 1.18,2.88 0,1.13 -0.4,2.08 -1.19,2.86 -0.78,0.78 -1.73,1.17 -2.85,1.17 z m -120.75,0 c -1.26,0 -2.29,-0.47 -3.08,-1.42 -0.65,-0.76 -0.97,-1.63 -0.97,-2.61 0,-0.99 0.32,-1.86 0.97,-2.63 0.79,-0.95 1.82,-1.42 3.08,-1.42 1.13,0 2.08,0.39 2.86,1.17 0.78,0.78 1.18,1.74 1.18,2.88 0,1.13 -0.4,2.08 -1.19,2.86 -0.78,0.78 -1.73,1.17 -2.85,1.17 z m -144,0 c -1.26,0 -2.29,-0.47 -3.08,-1.42 -0.65,-0.76 -0.97,-1.63 -0.97,-2.61 0,-0.99 0.32,-1.86 0.97,-2.63 0.79,-0.95 1.82,-1.42 3.08,-1.42 1.13,0 2.08,0.39 2.86,1.17 0.78,0.78 1.18,1.74 1.18,2.88 0,1.13 -0.4,2.08 -1.19,2.86 -0.78,0.78 -1.73,1.17 -2.85,1.17 z m 586.39,0.08 c -1.23,0 -2.23,-0.47 -3.01,-1.42 -0.62,-0.76 -0.93,-1.64 -0.93,-2.63 0,-1.11 0.38,-2.06 1.14,-2.85 0.76,-0.79 1.7,-1.19 2.8,-1.19 1.09,0 2.02,0.4 2.78,1.19 0.76,0.79 1.14,1.74 1.14,2.85 0,1.1 -0.38,2.06 -1.13,2.85 -0.76,0.8 -1.69,1.2 -2.79,1.2 z m -652.5,0 c -1.23,0 -2.23,-0.47 -3.01,-1.42 -0.62,-0.76 -0.93,-1.64 -0.93,-2.63 0,-1.11 0.38,-2.06 1.14,-2.85 0.76,-0.79 1.7,-1.19 2.8,-1.19 1.09,0 2.02,0.4 2.78,1.19 0.76,0.79 1.14,1.74 1.14,2.85 0,1.1 -0.38,2.06 -1.13,2.85 -0.76,0.8 -1.69,1.2 -2.79,1.2 z m 536.55,1.18 c -1.04,0 -1.88,-0.32 -2.53,-0.94 -0.5,-0.49 -0.83,-1.16 -0.96,-2 h 6.96 c -0.43,1.96 -1.59,2.94 -3.47,2.94 z m -429.75,0 c -1.04,0 -1.88,-0.32 -2.53,-0.94 -0.5,-0.49 -0.83,-1.16 -0.96,-2 h 6.96 c -0.43,1.96 -1.59,2.94 -3.47,2.94 z m 636.72,3.38 h 7.12 l 4.63,-8.89 4.5,8.89 h 7.02 l -13.91,-26 h -6.88 l 5.89,11.04 z m -186.18,0 h 6.15 V 441.5 h -6.15 z m -109.5,0 h 6.15 V 441.5 h -6.15 z m -47.82,0 h 6.89 l 4.15,-8.89 4.16,8.89 h 6.86 l -9.02,-17.34 h -4.09 z m -89.43,0 h 6.15 V 441.5 h -6.15 z m 431.08,0.24 c 0.32,0 0.72,-0.02 1.19,-0.06 v -5.82 c -0.86,0.41 -1.73,0.61 -2.61,0.61 -2.01,0 -3.31,-0.83 -3.91,-2.48 -0.22,-0.6 -0.33,-1.4 -0.33,-2.41 v -7.42 h -6.15 v 17.34 h 6.15 V 456 c 0.64,1.01 1.34,1.73 2.08,2.18 1.01,0.6 2.2,0.9 3.58,0.9 z m -505.5,0 c 0.32,0 0.72,-0.02 1.19,-0.06 v -5.82 c -0.86,0.41 -1.73,0.61 -2.61,0.61 -2.01,0 -3.31,-0.83 -3.91,-2.48 -0.22,-0.6 -0.33,-1.4 -0.33,-2.41 v -7.42 h -6.15 v 17.34 h 6.15 V 456 c 0.64,1.01 1.34,1.73 2.08,2.18 1.01,0.6 2.2,0.9 3.58,0.9 z m 150.48,0.04 -2.78,-8.13 h 5.53 z m -123.05,0.02 c 1.29,0 2.45,-0.32 3.46,-0.94 1.08,-0.68 1.79,-1.61 2.13,-2.78 0.2,-0.71 0.3,-1.6 0.3,-2.65 V 441.5 h -6.14 v 8.56 c 0,1.5 -0.16,2.52 -0.47,3.06 -0.46,0.81 -1.15,1.22 -2.07,1.22 -1.03,0 -1.81,-0.45 -2.36,-1.33 -0.38,-0.62 -0.58,-1.6 -0.58,-2.95 v -8.56 h -6.14 v 8.56 c 0,1.5 -0.13,2.47 -0.37,2.91 -0.5,0.9 -1.27,1.35 -2.3,1.35 -0.96,0 -1.71,-0.39 -2.24,-1.16 -0.2,-0.27 -0.35,-0.65 -0.43,-1.13 -0.09,-0.48 -0.13,-1.13 -0.13,-1.97 v -8.56 h -6.15 v 17.34 h 6.15 v -2.13 c 0.72,0.69 1.38,1.2 1.98,1.53 1.08,0.58 2.29,0.88 3.63,0.88 1.71,0 3.13,-0.45 4.26,-1.33 0.58,-0.45 1.13,-1.08 1.65,-1.9 0.47,0.77 1,1.38 1.59,1.83 1.23,0.94 2.64,1.42 4.23,1.42 z m 442.75,0.07 c 1.87,0 3.38,-0.5 4.55,-1.51 1.33,-1.15 2,-2.87 2,-5.16 V 441.5 h -6.15 v 8.77 c 0,1.53 -0.17,2.54 -0.52,3.04 -0.51,0.73 -1.27,1.1 -2.28,1.1 -0.93,0 -1.71,-0.32 -2.34,-0.95 -0.57,-0.57 -0.85,-1.46 -0.85,-2.67 v -9.29 h -6.15 v 17.34 h 6.15 v -2.19 c 0.7,0.82 1.36,1.4 1.95,1.74 0.97,0.55 2.19,0.82 3.64,0.82 z m -126.75,0 c 1.87,0 3.38,-0.5 4.55,-1.51 1.33,-1.15 2,-2.87 2,-5.16 V 441.5 h -6.15 v 8.77 c 0,1.53 -0.17,2.54 -0.52,3.04 -0.51,0.73 -1.27,1.1 -2.28,1.1 -0.93,0 -1.71,-0.32 -2.34,-0.95 -0.57,-0.57 -0.85,-1.46 -0.85,-2.67 v -9.29 h -6.15 v 17.34 h 6.15 v -2.19 c 0.71,0.82 1.36,1.4 1.95,1.74 0.97,0.55 2.19,0.82 3.64,0.82 z m -223.5,0 c 1.87,0 3.38,-0.5 4.55,-1.51 1.33,-1.15 2,-2.87 2,-5.16 V 441.5 h -6.15 v 8.77 c 0,1.53 -0.17,2.54 -0.52,3.04 -0.51,0.73 -1.27,1.1 -2.28,1.1 -0.93,0 -1.71,-0.32 -2.34,-0.95 -0.57,-0.57 -0.85,-1.46 -0.85,-2.67 v -9.29 h -6.15 v 17.34 h 6.15 v -2.19 c 0.7,0.82 1.36,1.4 1.95,1.74 0.97,0.55 2.19,0.82 3.64,0.82 z m -180,0 c 1.87,0 3.38,-0.5 4.55,-1.51 1.33,-1.15 2,-2.87 2,-5.16 V 441.5 h -6.15 v 8.77 c 0,1.53 -0.17,2.54 -0.52,3.04 -0.51,0.73 -1.27,1.1 -2.28,1.1 -0.93,0 -1.71,-0.32 -2.34,-0.95 -0.57,-0.57 -0.85,-1.46 -0.85,-2.67 v -9.29 h -6.15 v 17.34 h 6.15 v -2.19 c 0.7,0.82 1.36,1.4 1.95,1.74 0.97,0.55 2.19,0.82 3.64,0.82 z m 474.84,0.11 c 1.25,0 2.37,-0.25 3.35,-0.76 0.59,-0.32 1.2,-0.83 1.83,-1.54 v 1.82 h 6.15 V 442.7 c 0,-1.52 -0.11,-2.75 -0.32,-3.68 -0.34,-1.49 -1.21,-2.83 -2.62,-4.02 -1.78,-1.49 -4.14,-2.24 -7.09,-2.24 -3.09,0 -5.55,0.82 -7.38,2.45 -1.22,1.08 -2,2.22 -2.33,3.4 -0.04,0.12 -0.09,0.39 -0.15,0.78 h 6.87 c 0.2,-0.56 0.47,-0.97 0.8,-1.22 0.55,-0.4 1.25,-0.61 2.09,-0.61 1.42,0 2.51,0.51 3.27,1.51 0.48,0.63 0.71,1.54 0.71,2.72 v 1.64 c -0.73,-0.67 -1.35,-1.15 -1.84,-1.42 -1.04,-0.57 -2.25,-0.86 -3.66,-0.86 -1.77,0 -3.34,0.45 -4.74,1.36 -1.43,0.94 -2.45,2.21 -3.08,3.83 -0.42,1.1 -0.63,2.29 -0.63,3.57 0,2.84 0.9,5.15 2.71,6.93 1.67,1.65 3.69,2.48 6.06,2.48 z m -114.63,0 c 3.77,0 6.47,-1.37 8.08,-4.11 0.91,-1.55 1.37,-3.35 1.37,-5.39 v -0.79 h -12.87 c 0,-2.6 1.25,-3.9 3.75,-3.9 1.28,0 2.26,0.55 2.94,1.64 h 5.94 c -0.48,-1.56 -1.17,-2.77 -2.1,-3.63 -1.66,-1.55 -3.9,-2.33 -6.7,-2.33 -3.56,0 -6.24,1.09 -8.03,3.25 -1.35,1.62 -2.02,3.6 -2.02,5.92 0,2.77 0.84,5.02 2.52,6.75 1.68,1.73 4.05,2.59 7.12,2.59 z m -429.75,0 c 3.77,0 6.47,-1.37 8.09,-4.11 0.9,-1.55 1.36,-3.35 1.36,-5.39 v -0.79 h -12.87 c 0,-2.6 1.25,-3.9 3.75,-3.9 1.28,0 2.26,0.55 2.94,1.64 h 5.94 c -0.48,-1.56 -1.17,-2.77 -2.1,-3.63 -1.66,-1.55 -3.9,-2.33 -6.7,-2.33 -3.56,0 -6.24,1.09 -8.03,3.25 -1.35,1.62 -2.02,3.6 -2.02,5.92 0,2.77 0.84,5.02 2.52,6.75 1.68,1.73 4.05,2.59 7.12,2.59 z m -108.12,0 c 1.25,0 2.37,-0.25 3.35,-0.76 0.59,-0.32 1.2,-0.83 1.83,-1.54 v 1.82 h 6.15 V 442.7 c 0,-1.52 -0.11,-2.75 -0.32,-3.68 -0.34,-1.49 -1.21,-2.83 -2.62,-4.02 -1.78,-1.49 -4.14,-2.24 -7.09,-2.24 -3.09,0 -5.55,0.82 -7.38,2.45 -1.22,1.08 -2,2.22 -2.33,3.4 -0.04,0.12 -0.09,0.39 -0.15,0.78 h 6.87 c 0.2,-0.56 0.47,-0.97 0.8,-1.22 0.55,-0.4 1.25,-0.61 2.09,-0.61 1.42,0 2.51,0.51 3.27,1.51 0.48,0.63 0.71,1.54 0.71,2.72 v 1.64 c -0.73,-0.67 -1.35,-1.15 -1.84,-1.42 -1.04,-0.57 -2.25,-0.86 -3.66,-0.86 -1.77,0 -3.34,0.45 -4.74,1.36 -1.43,0.94 -2.45,2.21 -3.08,3.83 -0.42,1.1 -0.63,2.29 -0.63,3.57 0,2.84 0.9,5.15 2.71,6.93 1.67,1.65 3.69,2.48 6.06,2.48 z m 478.42,0.06 c 1.23,0 2.39,-0.26 3.47,-0.77 0.62,-0.3 1.26,-0.79 1.92,-1.47 v 1.7 h 6.15 V 441.5 h -6.15 v 1.93 c -0.58,-0.74 -1.17,-1.27 -1.77,-1.61 -1.04,-0.58 -2.23,-0.88 -3.56,-0.88 -2.15,0 -4.07,0.74 -5.75,2.22 -2,1.77 -3,4.11 -3,7.02 0,2.96 1.03,5.32 3.08,7.09 1.63,1.41 3.5,2.11 5.61,2.11 z m -45,0 c 1.23,0 2.39,-0.26 3.47,-0.77 0.62,-0.3 1.26,-0.79 1.92,-1.47 v 1.7 h 6.15 V 441.5 h -6.15 v 1.93 c -0.58,-0.74 -1.17,-1.27 -1.77,-1.61 -1.04,-0.58 -2.23,-0.88 -3.56,-0.88 -2.15,0 -4.07,0.74 -5.75,2.22 -2,1.77 -3,4.11 -3,7.02 0,2.96 1.03,5.32 3.08,7.09 1.63,1.41 3.5,2.11 5.61,2.11 z m -150,0 c 1.23,0 2.39,-0.26 3.47,-0.77 0.62,-0.3 1.26,-0.79 1.92,-1.47 v 1.7 h 6.15 V 441.5 h -6.15 v 1.93 c -0.58,-0.74 -1.17,-1.27 -1.77,-1.61 -1.04,-0.58 -2.23,-0.88 -3.56,-0.88 -2.15,0 -4.07,0.74 -5.75,2.22 -2,1.77 -3,4.11 -3,7.02 0,2.96 1.03,5.32 3.08,7.09 1.63,1.41 3.5,2.11 5.61,2.11 z m -307.5,0 c 1.23,0 2.39,-0.26 3.47,-0.77 0.62,-0.3 1.26,-0.79 1.92,-1.47 v 1.7 h 6.15 V 441.5 h -6.15 v 1.93 c -0.58,-0.74 -1.17,-1.27 -1.77,-1.61 -1.04,-0.58 -2.23,-0.88 -3.56,-0.88 -2.15,0 -4.07,0.74 -5.75,2.22 -1.998,1.77 -2.999,4.11 -2.999,7.02 0,2.96 1.026,5.32 3.079,7.09 1.63,1.41 3.5,2.11 5.61,2.11 z m 113.98,0.07 c 1.93,0 3.8,-0.37 5.62,-1.12 l -2.07,-3.96 c -1.15,0.6 -2.24,0.9 -3.28,0.9 -1.23,0 -1.84,-0.43 -1.84,-1.28 0,-0.39 0.25,-0.7 0.74,-0.94 0.23,-0.12 0.89,-0.28 1.98,-0.51 1.6,-0.33 2.78,-0.87 3.54,-1.6 0.95,-0.93 1.43,-2.12 1.43,-3.59 0,-1.84 -0.66,-3.35 -1.98,-4.52 -1.48,-1.32 -3.56,-1.98 -6.25,-1.98 -2.38,0 -4.69,0.67 -6.93,2 l 2.22,4.33 c 1.75,-1.14 3.38,-1.72 4.88,-1.72 1.28,0 1.92,0.45 1.92,1.33 0,0.46 -0.23,0.82 -0.67,1.06 -0.29,0.17 -0.93,0.36 -1.94,0.58 -1.13,0.25 -1.87,0.44 -2.22,0.58 -1.24,0.49 -2.08,1.24 -2.51,2.28 -0.24,0.56 -0.36,1.23 -0.36,2.01 0,1.52 0.52,2.84 1.55,3.97 1.34,1.46 3.39,2.18 6.17,2.18 z m 540.46,0.02 c 3.27,0 5.89,-1.05 7.84,-3.15 1.6,-1.72 2.39,-3.77 2.39,-6.15 0,-2.4 -0.79,-4.46 -2.37,-6.18 -1.92,-2.09 -4.6,-3.14 -8.05,-3.14 -3.46,0 -6.15,1.05 -8.07,3.14 -1.58,1.72 -2.37,3.83 -2.37,6.33 0,2.25 0.8,4.25 2.39,6 1.93,2.1 4.68,3.15 8.24,3.15 z m -297.75,0 c 3.27,0 5.89,-1.05 7.84,-3.15 1.6,-1.72 2.39,-3.77 2.39,-6.15 0,-2.4 -0.79,-4.46 -2.37,-6.18 -1.92,-2.09 -4.6,-3.14 -8.05,-3.14 -3.46,0 -6.15,1.05 -8.07,3.14 -1.58,1.72 -2.37,3.83 -2.37,6.33 0,2.25 0.8,4.25 2.39,6 1.93,2.1 4.68,3.15 8.24,3.15 z m -120.75,0 c 3.27,0 5.89,-1.05 7.84,-3.15 1.6,-1.72 2.39,-3.77 2.39,-6.15 0,-2.4 -0.79,-4.46 -2.37,-6.18 -1.92,-2.09 -4.6,-3.14 -8.05,-3.14 -3.46,0 -6.15,1.05 -8.07,3.14 -1.58,1.72 -2.37,3.83 -2.37,6.33 0,2.25 0.8,4.25 2.39,6 1.93,2.1 4.68,3.15 8.24,3.15 z m -144,0 c 3.27,0 5.89,-1.05 7.84,-3.15 1.6,-1.72 2.39,-3.77 2.39,-6.15 0,-2.4 -0.79,-4.46 -2.37,-6.18 -1.92,-2.09 -4.6,-3.14 -8.05,-3.14 -3.46,0 -6.15,1.05 -8.07,3.14 -1.58,1.72 -2.37,3.83 -2.37,6.33 0,2.25 0.8,4.25 2.39,6 1.93,2.1 4.68,3.15 8.24,3.15 z m -116.729,2.49 v -4.99 h 1.209 c 1.14,0 1.958,0.28 2.454,0.84 0.397,0.45 0.595,1 0.595,1.66 0,1.16 -0.52,1.93 -1.562,2.3 -0.372,0.12 -0.867,0.19 -1.487,0.19 z m 768.249,2.09 h 6.15 v -5.21 h 3.49 v -5.03 H 856.9 V 441.5 h -6.15 v 12.31 h -2.02 v 5.03 h 2.02 z m -419.25,0 h 6.15 v -5.21 h 3.49 v -5.03 h -3.49 V 441.5 h -6.15 v 12.31 h -2.02 v 5.03 h 2.02 z M 809.37,467 h 14.51 v -5.53 H 816 v -4.35 h 7.45 v -5.53 H 816 v -4.56 h 7.88 v -5.53 h -14.51 z m -75,0 H 741 v -19.97 h 7.96 v -5.53 h -14.59 z m -218.35,0 h 7.22 l 9.6,-25.5 h -7.07 l -1.65,4.45 h -9.15 l -1.75,-4.45 h -7.01 z m -230.15,0 h 6.63 v -25.5 h -6.63 z m -209.999,0 h 9.861 c 4.781,0 7.172,-2.22 7.172,-6.65 0,-1.33 -0.261,-2.45 -0.784,-3.34 -0.436,-0.76 -1.109,-1.41 -2.018,-1.95 2.035,-0.42 3.425,-1.24 4.169,-2.44 0.67,-1.11 1.005,-2.4 1.005,-3.87 0,-1.9 -0.542,-3.45 -1.625,-4.65 -1.569,-1.73 -3.959,-2.6 -7.172,-2.6 H 75.871 Z m 93.399,0.54 c 1.77,0 3.76,-0.43 5.96,-1.29 v -7.94 c -0.62,0.77 -1.26,1.34 -1.91,1.73 -1.18,0.72 -2.45,1.07 -3.81,1.07 -1.72,0 -3.22,-0.51 -4.49,-1.55 -1.61,-1.31 -2.42,-3.11 -2.42,-5.39 0,-2.28 0.81,-4.07 2.42,-5.38 1.27,-1.03 2.77,-1.55 4.49,-1.55 1.36,0 2.63,0.36 3.81,1.07 0.64,0.38 1.27,0.95 1.91,1.73 v -7.94 c -2.17,-0.86 -4.17,-1.29 -6.01,-1.29 -3.22,0 -6.09,1.03 -8.63,3.08 -3.24,2.63 -4.86,6.06 -4.86,10.28 0,4.23 1.62,7.66 4.86,10.29 2.54,2.05 5.43,3.08 8.68,3.08 z m 524.08,1.38 c 0.95,0 1.76,-0.33 2.44,-0.99 0.67,-0.67 1,-1.48 1,-2.44 0,-0.96 -0.33,-1.78 -1,-2.44 -0.66,-0.67 -1.48,-1 -2.44,-1 -0.96,0 -1.77,0.33 -2.44,1 -0.66,0.68 -0.99,1.49 -0.99,2.44 0,0.96 0.33,1.77 0.99,2.44 0.67,0.66 1.48,0.99 2.44,0.99 z m -109.5,0 c 0.95,0 1.76,-0.33 2.44,-0.99 0.67,-0.67 1,-1.48 1,-2.44 0,-0.96 -0.33,-1.78 -1,-2.44 -0.66,-0.67 -1.48,-1 -2.44,-1 -0.96,0 -1.77,0.33 -2.44,1 -0.66,0.68 -0.99,1.49 -0.99,2.44 0,0.96 0.33,1.77 0.99,2.44 0.67,0.66 1.48,0.99 2.44,0.99 z m -137.25,0 c 0.95,0 1.77,-0.33 2.44,-0.99 0.67,-0.67 1,-1.48 1,-2.44 0,-0.96 -0.33,-1.78 -1,-2.44 -0.66,-0.67 -1.48,-1 -2.44,-1 -0.96,0 -1.77,0.33 -2.44,1 -0.66,0.68 -0.99,1.49 -0.99,2.44 0,0.96 0.33,1.77 0.99,2.44 0.67,0.66 1.48,0.99 2.44,0.99 z m 203.19,0.64 h 6.15 V 441.5 h -6.15 z m -24,0 h 6.15 v -12.44 c 0.66,0.68 1.3,1.17 1.92,1.47 1.08,0.53 2.24,0.79 3.47,0.79 2.11,0 3.98,-0.7 5.61,-2.11 2.05,-1.77 3.08,-4.13 3.08,-7.09 0,-2.91 -1,-5.25 -3,-7.02 -1.68,-1.48 -3.6,-2.22 -5.75,-2.22 -1.33,0 -2.52,0.3 -3.56,0.88 -0.64,0.35 -1.23,0.89 -1.77,1.61 v -1.93 h -6.15 z m -34.5,0 h 6.15 V 441.5 h -6.15 z m -325.61,0 h 6.15 V 441.5 h -6.15 v 1.93 c -0.58,-0.74 -1.17,-1.27 -1.77,-1.61 -1.04,-0.58 -2.23,-0.88 -3.56,-0.88 -2.15,0 -4.07,0.74 -5.75,2.22 -2,1.77 -3,4.11 -3,7.02 0,2.96 1.03,5.32 3.08,7.09 1.63,1.41 3.5,2.11 5.61,2.11 1.23,0 2.39,-0.26 3.47,-0.79 0.62,-0.3 1.26,-0.79 1.92,-1.47 z m -86.89,0 h 6.15 V 441.5 h -6.15 z m 149.24,0.05 c 0.89,0 1.8,-0.21 2.71,-0.63 v -5.33 c -0.83,0.47 -1.55,0.7 -2.14,0.7 -0.83,0 -1.44,-0.32 -1.82,-0.96 -0.23,-0.36 -0.34,-1.26 -0.34,-2.68 v -1.87 h 4.3 v -5.05 h -4.3 V 441.5 h -6.14 v 12.29 h -2.19 v 5.05 h 2.19 v 2.29 c 0,2.56 0.64,4.52 1.94,5.91 1.6,1.71 3.53,2.57 5.79,2.57 z"
       style="fill:url(#linearGradient5739);fill-opacity:1;fill-rule:evenodd;stroke:none"
       id="path5741" /><text
       transform="scale(1,-1)"
       style="font-variant:normal;font-weight:bold;font-size:38.3px;font-family:Aharoni;-inkscape-font-specification:Aharoni-Bold;writing-mode:lr-tb;fill:#000000;fill-opacity:0;fill-rule:nonzero;stroke:none"
       id="text5753"
       x="73.25"
       y="-441.38"><tspan
         x="73.25 97.2258 121.2016 144.48801 154.2545 176.8515 187.1925 211.2832 228.5182 250.4258 274.32501 283.3638 295.35168 317.8338 331.392 355.3678 371.1091 404.88971 428.86551 441.61938 452.11359 475.39999 497.88211 506.19321 533.23303 555.0257 579.00146 589.49573 599.98993 623.9657 647.94153 658.43573 680.22839 688.50122 698.99542 721.47748 732.08661 750.08759 774.06342 797.34979 807.11627 825.84497 848.32709 861.15759 876.89893"
         y="-441.38"
         sodipodi:role="line"
         id="tspan5751">Bag Closed Information Available in Log Entry</tspan></text><path
       d="m 277.13,379.12 c 0,4.35 0.58,7.88 1.31,7.88 h 86.25 c 0.72,0 1.31,3.53 1.31,7.87 0,-4.34 0.59,-7.87 1.31,-7.87 h 86.25 c 0.73,0 1.32,-3.53 1.32,-7.88"
       style="fill:none;stroke:#00bac8;stroke-width:0.5;stroke-linecap:butt;stroke-linejoin:miter;stroke-miterlimit:10;stroke-dasharray:none;stroke-opacity:1"
       id="path5763" /><text
       transform="scale(1,-1)"
       style="font-variant:normal;font-weight:normal;font-size:18.025px;font-family:AvenirNextLTPro;-inkscape-font-specification:AvenirNextLTPro;writing-mode:lr-tb;fill:#00bac8;fill-opacity:1;fill-rule:nonzero;stroke:none"
       id="text5775"
       x="319.76999"
       y="-402.07999"><tspan
         x="319.76999 330.26056 334.76682 350.53867 361.02924 369.26666 375.25095 384.98444 400.75632"
         y="-402.07999"
         sodipodi:role="line"
         id="tspan5773">Timestamp</tspan></text><text
       transform="scale(1,-1)"
       style="font-variant:normal;font-weight:normal;font-size:18.025px;font-family:AvenirNextLTPro;-inkscape-font-specification:AvenirNextLTPro;writing-mode:lr-tb;fill:#000000;fill-opacity:1;fill-rule:nonzero;stroke:none"
       id="text5787"
       x="278"
       y="-364.95001"><tspan
         x="278 288.4545 295.2319 305.6864 312.46381 322.9183 333.44489 343.89941 354.42599 358.93225 369.38675 374.66809 385.12256 395.64917 400.89444 411.34894 421.87555 426.38181 436.8363 452.62622"
         y="-364.95001"
         sodipodi:role="line"
         id="tspan5785">9/7/2023 2:50:10 PM,</tspan></text><path
       d="m 804.38,377.62 c 0,4.98 0.67,9.01 1.49,9.01 l 11.26,-0.01 c 0.82,0 1.5,4.03 1.5,9 0,-4.97 0.67,-9 1.49,-9 h 11.26 c 0.82,0 1.5,-4.02 1.5,-9"
       style="fill:none;stroke:#00bac8;stroke-width:0.5;stroke-linecap:butt;stroke-linejoin:miter;stroke-miterlimit:10;stroke-dasharray:none;stroke-opacity:1"
       id="path5797" /><text
       transform="scale(1,-1)"
       style="font-variant:normal;font-weight:normal;font-size:18.025px;font-family:AvenirNextLTPro;-inkscape-font-specification:AvenirNextLTPro;writing-mode:lr-tb;fill:#00bac8;fill-opacity:1;fill-rule:nonzero;stroke:none"
       id="text5809"
       x="760.40002"
       y="-402.07999"><tspan
         x="760.40002 764.94232 776.1358 787.38342 798.63104 809.12158 815.84491 826.35345 836.84399 843.56732 851.80475 856.31104 866.80157"
         y="-402.07999"
         sodipodi:role="line"
         id="tspan5807">loggerVersion</tspan></text><text
       transform="scale(1,-1)"
       style="font-variant:normal;font-weight:normal;font-size:18.025px;font-family:AvenirNextLTPro;-inkscape-font-specification:AvenirNextLTPro;writing-mode:lr-tb;fill:#000000;fill-opacity:1;fill-rule:nonzero;stroke:none"
       id="text5821"
       x="806.04999"
       y="-364.95001"><tspan
         x="806.04999 816.50452 821.04681 831.50128"
         y="-364.95001"
         sodipodi:role="line"
         id="tspan5819">1.3,</tspan></text><path
       d="m 214.88,379.12 c 0,4.15 0.55,7.5 1.24,7.5 H 241 c 0.69,0 1.25,3.36 1.25,7.5 0,-4.14 0.56,-7.5 1.25,-7.5 h 24.88 c 0.69,0 1.25,-3.35 1.25,-7.5"
       style="fill:none;stroke:#00bac8;stroke-width:0.5;stroke-linecap:butt;stroke-linejoin:miter;stroke-miterlimit:10;stroke-dasharray:none;stroke-opacity:1"
       id="path5831" /><text
       transform="scale(1,-1)"
       style="font-variant:normal;font-weight:normal;font-size:18.025px;font-family:AvenirNextLTPro;-inkscape-font-specification:AvenirNextLTPro;writing-mode:lr-tb;fill:#00bac8;fill-opacity:1;fill-rule:nonzero;stroke:none"
       id="text5843"
       x="188.45"
       y="-402.07999"><tspan
         x="188.45 198.94055 203.48285 213.1803 224.4279 232.66533 243.15587 254.40347 264.89401 269.40027 285.13611"
         y="-402.07999"
         sodipodi:role="line"
         id="tspan5841">elapsedTime</tspan></text><text
       transform="scale(1,-1)"
       style="font-variant:normal;font-weight:normal;font-size:18.025px;font-family:AvenirNextLTPro;-inkscape-font-specification:AvenirNextLTPro;writing-mode:lr-tb;fill:#000000;fill-opacity:1;fill-rule:nonzero;stroke:none"
       id="text5855"
       x="216.89999"
       y="-364.95001"><tspan
         x="216.89999 227.39999 237.89999 248.39999 258.89999 269.39999"
         y="-364.95001"
         sodipodi:role="line"
         id="tspan5853">77754,</tspan></text><path
       d="m 462.38,379.12 c 0,4.35 0.58,7.88 1.31,7.88 h 163.5 c 0.72,0 1.31,3.53 1.31,7.87 0,-4.34 0.59,-7.87 1.31,-7.87 h 163.5 c 0.73,0 1.32,-3.53 1.32,-7.88"
       style="fill:none;stroke:#00bac8;stroke-width:0.5;stroke-linecap:butt;stroke-linejoin:miter;stroke-miterlimit:10;stroke-dasharray:none;stroke-opacity:1"
       id="path5865" /><text
       transform="scale(1,-1)"
       style="font-variant:normal;font-weight:normal;font-size:18.025px;font-family:AvenirNextLTPro;-inkscape-font-specification:AvenirNextLTPro;writing-mode:lr-tb;fill:#00bac8;fill-opacity:1;fill-rule:nonzero;stroke:none"
       id="text5877"
       x="588.58002"
       y="-402.07999"><tspan
         x="588.58002 599.08856 609.59717 617.8526 626.10803 630.61432 641.86188 652.33441 656.89478"
         y="-402.07999"
         sodipodi:role="line"
         id="tspan5875">SessionId</tspan></text><text
       transform="scale(1,-1)"
       style="font-variant:normal;font-weight:normal;font-size:18.025px;font-family:AvenirNextLTPro;-inkscape-font-specification:AvenirNextLTPro;writing-mode:lr-tb;fill:#000000;fill-opacity:1;fill-rule:nonzero;stroke:none"
       id="text5889"
       x="464.48001"
       y="-364.95001"><tspan
         x="464.48001 469.79736 481.02695 491.53552 502.0441 511.05661 521.58319 532.0918"
         y="-364.95001"
         sodipodi:role="line"
         id="tspan5887">fde2c201</tspan></text><text
       transform="scale(1,-1)"
       style="font-variant:normal;font-weight:normal;font-size:18.025px;font-family:AvenirNextLTPro;-inkscape-font-specification:AvenirNextLTPro;writing-mode:lr-tb;fill:#000000;fill-opacity:1;fill-rule:nonzero;stroke:none"
       id="text5901"
       x="542.54999"
       y="-364.95001"><tspan
         x="542.54999"
         y="-364.95001"
         id="tspan5899">-</tspan></text><text
       transform="scale(1,-1)"
       style="font-variant:normal;font-weight:normal;font-size:18.025px;font-family:AvenirNextLTPro;-inkscape-font-specification:AvenirNextLTPro;writing-mode:lr-tb;fill:#000000;fill-opacity:1;fill-rule:nonzero;stroke:none"
       id="text5913"
       x="548.54999"
       y="-364.95001"><tspan
         x="548.54999 559.00452 569.53113 574.77637"
         y="-364.95001"
         sodipodi:role="line"
         id="tspan5911">36fc</tspan></text><text
       transform="scale(1,-1)"
       style="font-variant:normal;font-weight:normal;font-size:18.025px;font-family:AvenirNextLTPro;-inkscape-font-specification:AvenirNextLTPro;writing-mode:lr-tb;fill:#000000;fill-opacity:1;fill-rule:nonzero;stroke:none"
       id="text5925"
       x="583.83002"
       y="-364.95001"><tspan
         x="583.83002"
         y="-364.95001"
         id="tspan5923">-</tspan></text><text
       transform="scale(1,-1)"
       style="font-variant:normal;font-weight:normal;font-size:18.025px;font-family:AvenirNextLTPro;-inkscape-font-specification:AvenirNextLTPro;writing-mode:lr-tb;fill:#000000;fill-opacity:1;fill-rule:nonzero;stroke:none"
       id="text5937"
       x="589.83002"
       y="-364.95001"><tspan
         x="589.83002 600.35498 610.88 621.40503"
         y="-364.95001"
         sodipodi:role="line"
         id="tspan5935">4123</tspan></text><text
       transform="scale(1,-1)"
       style="font-variant:normal;font-weight:normal;font-size:18.025px;font-family:AvenirNextLTPro;-inkscape-font-specification:AvenirNextLTPro;writing-mode:lr-tb;fill:#000000;fill-opacity:1;fill-rule:nonzero;stroke:none"
       id="text5949"
       x="631.88"
       y="-364.95001"><tspan
         x="631.88"
         y="-364.95001"
         id="tspan5947">-</tspan></text><text
       transform="scale(1,-1)"
       style="font-variant:normal;font-weight:normal;font-size:18.025px;font-family:AvenirNextLTPro;-inkscape-font-specification:AvenirNextLTPro;writing-mode:lr-tb;fill:#000000;fill-opacity:1;fill-rule:nonzero;stroke:none"
       id="text5961"
       x="637.88"
       y="-364.95001"><tspan
         x="637.88 649.12762 654.37286 664.82739"
         y="-364.95001"
         sodipodi:role="line"
         id="tspan5959">bf42</tspan></text><text
       transform="scale(1,-1)"
       style="font-variant:normal;font-weight:normal;font-size:18.025px;font-family:AvenirNextLTPro;-inkscape-font-specification:AvenirNextLTPro;writing-mode:lr-tb;fill:#000000;fill-opacity:1;fill-rule:nonzero;stroke:none"
       id="text5973"
       x="675.40002"
       y="-364.95001"><tspan
         x="675.40002"
         y="-364.95001"
         id="tspan5971">-</tspan></text><text
       transform="scale(1,-1)"
       style="font-variant:normal;font-weight:normal;font-size:18.025px;font-family:AvenirNextLTPro;-inkscape-font-specification:AvenirNextLTPro;writing-mode:lr-tb;fill:#000000;fill-opacity:1;fill-rule:nonzero;stroke:none"
       id="text5985"
       x="681.40002"
       y="-364.95001"><tspan
         x="681.40002 686.64526 697.09979 708.40143 713.64673 718.89203 729.3465 740.64819 751.10266 761.62927 772.0838 782.61035 793.06488"
         y="-364.95001"
         sodipodi:role="line"
         id="tspan5983">f1bff1b24969,</tspan></text><path
       d="m 84.375,379.12 c 0,4.35 0.588,7.88 1.313,7.88 h 56.252 c 0.72,0 1.31,3.53 1.31,7.87 0,-4.34 0.59,-7.87 1.31,-7.87 h 56.25 c 0.73,0 1.32,-3.53 1.32,-7.88"
       style="fill:none;stroke:#00bac8;stroke-width:0.5;stroke-linecap:butt;stroke-linejoin:miter;stroke-miterlimit:10;stroke-dasharray:none;stroke-opacity:1"
       id="path5995" /><text
       transform="scale(1,-1)"
       style="font-variant:normal;font-weight:normal;font-size:18.025px;font-family:AvenirNextLTPro;-inkscape-font-specification:AvenirNextLTPro;writing-mode:lr-tb;fill:#00bac8;fill-opacity:1;fill-rule:nonzero;stroke:none"
       id="text6007"
       x="123.43"
       y="-402.07999"><tspan
         x="123.43 132.42447 141.40092 152.64853"
         y="-402.07999"
         sodipodi:role="line"
         id="tspan6005">Type</tspan></text><text
       transform="scale(1,-1)"
       style="font-variant:normal;font-weight:normal;font-size:18.025px;font-family:AvenirNextLTPro;-inkscape-font-specification:AvenirNextLTPro;writing-mode:lr-tb;fill:#000000;fill-opacity:1;fill-rule:nonzero;stroke:none"
       id="text6019"
       x="84.125"
       y="-364.95001"><tspan
         x="84.125 95.372597 108.09825 122.338 131.35049 144.09418 152.34962 167.34644 177.83698 188.34555 201.08923"
         y="-364.95001"
         sodipodi:role="line"
         id="tspan6017">BAG_CLOSED,</tspan></text><path
       d="m 406.13,244.87 c 0,3.53 0.47,6.38 1.06,6.38 h 69.12 c 0.59,0 1.07,2.85 1.07,6.37 0,-3.52 0.47,-6.37 1.06,-6.37 h 69.12 c 0.59,0 1.07,-2.85 1.07,-6.38"
       style="fill:none;stroke:#00bac8;stroke-width:0.5;stroke-linecap:butt;stroke-linejoin:miter;stroke-miterlimit:10;stroke-dasharray:none;stroke-opacity:1"
       id="path6029" /><text
       transform="scale(1,-1)"
       style="font-variant:normal;font-weight:normal;font-size:18.025px;font-family:AvenirNextLTPro;-inkscape-font-specification:AvenirNextLTPro;writing-mode:lr-tb;fill:#00bac8;fill-opacity:1;fill-rule:nonzero;stroke:none"
       id="text6041"
       x="441.92999"
       y="-265.13"><tspan
         x="441.92999 450.92447 462.15405 471.16653 480.88202 486.86633 491.37256 502.60214"
         y="-265.13"
         sodipodi:role="line"
         id="tspan6039">Location</tspan></text><text
       transform="scale(1,-1)"
       style="font-variant:normal;font-weight:normal;font-size:18.025px;font-family:AvenirNextLTPro;-inkscape-font-specification:AvenirNextLTPro;writing-mode:lr-tb;fill:#000000;fill-opacity:1;fill-rule:nonzero;stroke:none"
       id="text6053"
       x="407.60001"
       y="-230.5"><tspan
         x="407.60001 415.10013"
         y="-230.5"
         sodipodi:role="line"
         id="tspan6051">&quot;(</tspan></text><text
       transform="scale(1,-1)"
       style="font-variant:normal;font-weight:normal;font-size:18.025px;font-family:AvenirNextLTPro;-inkscape-font-specification:AvenirNextLTPro;writing-mode:lr-tb;fill:#000000;fill-opacity:1;fill-rule:nonzero;stroke:none"
       id="text6065"
       x="420.38"
       y="-230.5"><tspan
         x="420.38"
         y="-230.5"
         id="tspan6063">-</tspan></text><text
       transform="scale(1,-1)"
       style="font-variant:normal;font-weight:normal;font-size:18.025px;font-family:AvenirNextLTPro;-inkscape-font-specification:AvenirNextLTPro;writing-mode:lr-tb;fill:#000000;fill-opacity:1;fill-rule:nonzero;stroke:none"
       id="text6077"
       x="426.38"
       y="-230.5"><tspan
         x="426.38 436.8345 441.3768 451.8313 455.63458 460.14084 470.59534 475.13763 485.59213 489.39539"
         y="-230.5"
         sodipodi:role="line"
         id="tspan6075">2.3, 1.0, </tspan></text><text
       transform="scale(1,-1)"
       style="font-variant:normal;font-weight:normal;font-size:18.025px;font-family:AvenirNextLTPro;-inkscape-font-specification:AvenirNextLTPro;writing-mode:lr-tb;fill:#000000;fill-opacity:1;fill-rule:nonzero;stroke:none"
       id="text6089"
       x="494.67999"
       y="-230.5"><tspan
         x="494.67999"
         y="-230.5"
         id="tspan6087">-</tspan></text><text
       transform="scale(1,-1)"
       style="font-variant:normal;font-weight:normal;font-size:18.025px;font-family:AvenirNextLTPro;-inkscape-font-specification:AvenirNextLTPro;writing-mode:lr-tb;fill:#000000;fill-opacity:1;fill-rule:nonzero;stroke:none"
       id="text6101"
       x="500.67001"
       y="-230.5"><tspan
         x="500.67001 511.12451 521.65112 526.15735 536.61188 541.91119 549.3916"
         y="-230.5"
         sodipodi:role="line"
         id="tspan6099">20.9)&quot;,</tspan></text></g></svg>
