<?xml version="1.0" encoding="UTF-8" standalone="no"?>
<svg
   xmlns:dc="http://purl.org/dc/elements/1.1/"
   xmlns:cc="http://creativecommons.org/ns#"
   xmlns:rdf="http://www.w3.org/1999/02/22-rdf-syntax-ns#"
   xmlns:svg="http://www.w3.org/2000/svg"
   xmlns="http://www.w3.org/2000/svg"
   xmlns:sodipodi="http://sodipodi.sourceforge.net/DTD/sodipodi-0.dtd"
   xmlns:inkscape="http://www.inkscape.org/namespaces/inkscape"
   version="1.1"
   id="svg11643"
   xml:space="preserve"
   width="1280"
   height="720"
   viewBox="0 0 1280 720"
   sodipodi:docname="frvrs_data_and_analysis_presentation_for_itm_slide013.svg"
   inkscape:version="1.0.2-2 (e86c870879, 2021-01-15)"
   inkscape:export-filename="C:\Users\DaveBabbitt\Documents\GitHub\itm-analysis-reporting\saves\png\frvrs_data_and_analysis_presentation_for_itm\slide013.png"
   inkscape:export-xdpi="96"
   inkscape:export-ydpi="96"><metadata
     id="metadata11649"><rdf:RDF><cc:Work
         rdf:about=""><dc:format>image/svg+xml</dc:format><dc:type
           rdf:resource="http://purl.org/dc/dcmitype/StillImage" /><dc:title></dc:title></cc:Work></rdf:RDF></metadata><defs
     id="defs11647"><clipPath
       clipPathUnits="userSpaceOnUse"
       id="clipPath11659"><path
         d="M 0,1.2207e-4 H 960 V 540.00012 H 0 Z"
         clip-rule="evenodd"
         id="path11657" /></clipPath><clipPath
       clipPathUnits="userSpaceOnUse"
       id="clipPath11669"><path
         d="M 0,1.2207e-4 H 960 V 540.00012 H 0 Z"
         clip-rule="evenodd"
         id="path11667" /></clipPath><linearGradient
       x1="73.199997"
       y1="453.48001"
       x2="844.57001"
       y2="453.48001"
       gradientUnits="userSpaceOnUse"
       spreadMethod="pad"
       id="linearGradient11679"><stop
         style="stop-opacity:1;stop-color:#00bac8"
         offset="0"
         id="stop11675" /><stop
         style="stop-opacity:1;stop-color:#203040"
         offset="1"
         id="stop11677" /></linearGradient><clipPath
       clipPathUnits="userSpaceOnUse"
       id="clipPath11689"><path
         d="m 74.25,435.75 h 769.5 v 33 H 74.25 Z"
         clip-rule="evenodd"
         id="path11687" /></clipPath><clipPath
       clipPathUnits="userSpaceOnUse"
       id="clipPath11701"><path
         d="M 6.1035e-5,540 H 960 V 1.8311e-4 H 9.1553e-5"
         clip-rule="evenodd"
         id="path11699" /></clipPath><clipPath
       clipPathUnits="userSpaceOnUse"
       id="clipPath11711"><path
         d="M 1.4305e-5,0 H 960.00001 V 540 H 1.4305e-5 Z"
         clip-rule="evenodd"
         id="path11709" /></clipPath><clipPath
       clipPathUnits="userSpaceOnUse"
       id="clipPath11723"><path
         d="M 1.4305e-5,0 H 960.00001 V 540 H 1.4305e-5 Z"
         clip-rule="evenodd"
         id="path11721" /></clipPath><clipPath
       clipPathUnits="userSpaceOnUse"
       id="clipPath11735"><path
         d="M 1.8311e-4,540 H 960 V 1.8311e-4 L 2.4414e-4,1.2207e-4"
         clip-rule="evenodd"
         id="path11733" /></clipPath><clipPath
       clipPathUnits="userSpaceOnUse"
       id="clipPath11745"><path
         d="M 1.4305e-5,0 H 960.00001 V 540 H 1.4305e-5 Z"
         clip-rule="evenodd"
         id="path11743" /></clipPath><clipPath
       clipPathUnits="userSpaceOnUse"
       id="clipPath11757"><path
         d="M 1.4305e-5,0 H 960.00001 V 540 H 1.4305e-5 Z"
         clip-rule="evenodd"
         id="path11755" /></clipPath><clipPath
       clipPathUnits="userSpaceOnUse"
       id="clipPath11769"><path
         d="M 3.0518e-5,540 H 960 V 2.4414e-4 L 4.5776e-5,1.8311e-4"
         clip-rule="evenodd"
         id="path11767" /></clipPath><clipPath
       clipPathUnits="userSpaceOnUse"
       id="clipPath11779"><path
         d="M 1.4305e-5,0 H 960.00001 V 540 H 1.4305e-5 Z"
         clip-rule="evenodd"
         id="path11777" /></clipPath><clipPath
       clipPathUnits="userSpaceOnUse"
       id="clipPath11791"><path
         d="M 1.4305e-5,0 H 960.00001 V 540 H 1.4305e-5 Z"
         clip-rule="evenodd"
         id="path11789" /></clipPath><clipPath
       clipPathUnits="userSpaceOnUse"
       id="clipPath11803"><path
         d="M 3.0518e-5,540 H 960 V 2.4414e-4 L 6.1035e-5,1.8311e-4"
         clip-rule="evenodd"
         id="path11801" /></clipPath><clipPath
       clipPathUnits="userSpaceOnUse"
       id="clipPath11813"><path
         d="M 1.4305e-5,0 H 960.00001 V 540 H 1.4305e-5 Z"
         clip-rule="evenodd"
         id="path11811" /></clipPath><clipPath
       clipPathUnits="userSpaceOnUse"
       id="clipPath11825"><path
         d="M 1.4305e-5,0 H 960.00001 V 540 H 1.4305e-5 Z"
         clip-rule="evenodd"
         id="path11823" /></clipPath><clipPath
       clipPathUnits="userSpaceOnUse"
       id="clipPath11837"><path
         d="M 1.2207e-4,540 H 960 V 1.8311e-4 H 1.8311e-4"
         clip-rule="evenodd"
         id="path11835" /></clipPath><clipPath
       clipPathUnits="userSpaceOnUse"
       id="clipPath11847"><path
         d="M 1.4305e-5,0 H 960.00001 V 540 H 1.4305e-5 Z"
         clip-rule="evenodd"
         id="path11845" /></clipPath><clipPath
       clipPathUnits="userSpaceOnUse"
       id="clipPath11859"><path
         d="M 1.4305e-5,0 H 960.00001 V 540 H 1.4305e-5 Z"
         clip-rule="evenodd"
         id="path11857" /></clipPath><clipPath
       clipPathUnits="userSpaceOnUse"
       id="clipPath11871"><path
         d="M 1.4305e-5,0 H 960.00001 V 540 H 1.4305e-5 Z"
         clip-rule="evenodd"
         id="path11869" /></clipPath><clipPath
       clipPathUnits="userSpaceOnUse"
       id="clipPath11883"><path
         d="M 1.4305e-5,0 H 960.00001 V 540 H 1.4305e-5 Z"
         clip-rule="evenodd"
         id="path11881" /></clipPath><clipPath
       clipPathUnits="userSpaceOnUse"
       id="clipPath11895"><path
         d="M 1.4305e-5,0 H 960.00001 V 540 H 1.4305e-5 Z"
         clip-rule="evenodd"
         id="path11893" /></clipPath><clipPath
       clipPathUnits="userSpaceOnUse"
       id="clipPath11907"><path
         d="M 1.4305e-5,0 H 960.00001 V 540 H 1.4305e-5 Z"
         clip-rule="evenodd"
         id="path11905" /></clipPath><clipPath
       clipPathUnits="userSpaceOnUse"
       id="clipPath11919"><path
         d="M 1.4305e-5,0 H 960.00001 V 540 H 1.4305e-5 Z"
         clip-rule="evenodd"
         id="path11917" /></clipPath><clipPath
       clipPathUnits="userSpaceOnUse"
       id="clipPath11931"><path
         d="M 1.4305e-5,0 H 960.00001 V 540 H 1.4305e-5 Z"
         clip-rule="evenodd"
         id="path11929" /></clipPath><clipPath
       clipPathUnits="userSpaceOnUse"
       id="clipPath11943"><path
         d="M 1.4305e-5,0 H 960.00001 V 540 H 1.4305e-5 Z"
         clip-rule="evenodd"
         id="path11941" /></clipPath><clipPath
       clipPathUnits="userSpaceOnUse"
       id="clipPath11955"><path
         d="M 1.4305e-5,0 H 960.00001 V 540 H 1.4305e-5 Z"
         clip-rule="evenodd"
         id="path11953" /></clipPath><clipPath
       clipPathUnits="userSpaceOnUse"
       id="clipPath11967"><path
         d="M 6.1035e-5,540 H 960 V 1.8311e-4 L 9.1553e-5,1.2207e-4"
         clip-rule="evenodd"
         id="path11965" /></clipPath><clipPath
       clipPathUnits="userSpaceOnUse"
       id="clipPath11977"><path
         d="M 1.4305e-5,0 H 960.00001 V 540 H 1.4305e-5 Z"
         clip-rule="evenodd"
         id="path11975" /></clipPath><clipPath
       clipPathUnits="userSpaceOnUse"
       id="clipPath11989"><path
         d="M 1.4305e-5,0 H 960.00001 V 540 H 1.4305e-5 Z"
         clip-rule="evenodd"
         id="path11987" /></clipPath><clipPath
       clipPathUnits="userSpaceOnUse"
       id="clipPath12001"><path
         d="M 6.1035e-5,540 H 960 V 1.8311e-4 H 9.1553e-5"
         clip-rule="evenodd"
         id="path11999" /></clipPath><clipPath
       clipPathUnits="userSpaceOnUse"
       id="clipPath12011"><path
         d="M 1.4305e-5,0 H 960.00001 V 540 H 1.4305e-5 Z"
         clip-rule="evenodd"
         id="path12009" /></clipPath><clipPath
       clipPathUnits="userSpaceOnUse"
       id="clipPath12023"><path
         d="M 1.4305e-5,0 H 960.00001 V 540 H 1.4305e-5 Z"
         clip-rule="evenodd"
         id="path12021" /></clipPath><clipPath
       clipPathUnits="userSpaceOnUse"
       id="clipPath12035"><path
         d="M 1.2207e-4,540 H 960 V 1.8311e-4 L 1.8311e-4,1.2207e-4"
         clip-rule="evenodd"
         id="path12033" /></clipPath><clipPath
       clipPathUnits="userSpaceOnUse"
       id="clipPath12045"><path
         d="M 1.4305e-5,0 H 960.00001 V 540 H 1.4305e-5 Z"
         clip-rule="evenodd"
         id="path12043" /></clipPath><clipPath
       clipPathUnits="userSpaceOnUse"
       id="clipPath12057"><path
         d="M 1.4305e-5,0 H 960.00001 V 540 H 1.4305e-5 Z"
         clip-rule="evenodd"
         id="path12055" /></clipPath></defs><sodipodi:namedview
     pagecolor="#ffffff"
     bordercolor="#666666"
     borderopacity="1"
     objecttolerance="10"
     gridtolerance="10"
     guidetolerance="10"
     inkscape:pageopacity="0"
     inkscape:pageshadow="2"
     inkscape:window-width="1920"
     inkscape:window-height="1121"
     id="namedview11645"
     showgrid="false"
     inkscape:zoom="0.99765625"
     inkscape:cx="640"
     inkscape:cy="360"
     inkscape:window-x="-9"
     inkscape:window-y="611"
     inkscape:window-maximized="1"
     inkscape:current-layer="g11651" /><g
     id="g11651"
     inkscape:groupmode="layer"
     inkscape:label="FRVRS - Data and Analysis Presentation for ITM"
     transform="matrix(1.3333333,0,0,-1.3333333,0,720)"><path
       d="M 0,6.1035e-5 H 960 V 540.00006 H 0 Z"
       style="fill:#ffffff;fill-opacity:1;fill-rule:evenodd;stroke:none"
       id="path11661" /><path
       d="M 0,6.1035e-5 H 960 V 540.00006 H 0 Z"
       style="fill:#ffffff;fill-opacity:1;fill-rule:evenodd;stroke:none"
       id="path11671" /><path
       d="m 585.3,454.86 c -1.07,0 -1.95,-0.4 -2.64,-1.21 -0.56,-0.65 -0.84,-1.4 -0.84,-2.25 0,-0.84 0.28,-1.59 0.84,-2.24 0.68,-0.81 1.56,-1.22 2.64,-1.22 0.97,0 1.8,0.34 2.47,1 0.67,0.67 1.01,1.49 1.01,2.46 0,0.97 -0.34,1.78 -1.02,2.46 -0.68,0.67 -1.5,1 -2.46,1 z m -39,0 c -1.07,0 -1.95,-0.4 -2.64,-1.21 -0.56,-0.65 -0.84,-1.4 -0.84,-2.25 0,-0.84 0.28,-1.59 0.84,-2.24 0.68,-0.81 1.56,-1.22 2.64,-1.22 0.97,0 1.8,0.34 2.47,1 0.67,0.67 1.01,1.49 1.01,2.46 0,0.97 -0.34,1.78 -1.02,2.46 -0.68,0.67 -1.5,1 -2.46,1 z m -135.75,0 c -1.07,0 -1.95,-0.4 -2.64,-1.21 -0.56,-0.65 -0.84,-1.4 -0.84,-2.25 0,-0.84 0.28,-1.59 0.84,-2.24 0.68,-0.81 1.56,-1.22 2.64,-1.22 0.97,0 1.8,0.34 2.47,1 0.67,0.67 1.01,1.49 1.01,2.46 0,0.97 -0.34,1.78 -1.02,2.46 -0.68,0.67 -1.5,1 -2.46,1 z m -207.75,0 c -1.07,0 -1.95,-0.4 -2.64,-1.21 -0.56,-0.65 -0.84,-1.4 -0.84,-2.25 0,-0.84 0.28,-1.59 0.84,-2.24 0.68,-0.81 1.56,-1.22 2.64,-1.22 0.97,0 1.8,0.34 2.47,1 0.67,0.67 1.01,1.49 1.01,2.46 0,0.97 -0.34,1.78 -1.02,2.46 -0.68,0.67 -1.5,1 -2.46,1 z m 403.73,0.02 c -0.96,0 -1.78,-0.34 -2.46,-1.01 -0.68,-0.68 -1.02,-1.51 -1.02,-2.47 0,-0.97 0.34,-1.8 1.02,-2.47 0.68,-0.68 1.5,-1.02 2.46,-1.02 1.08,0 1.96,0.41 2.64,1.22 0.56,0.67 0.84,1.43 0.84,2.27 0,0.84 -0.28,1.6 -0.84,2.26 -0.69,0.81 -1.57,1.22 -2.64,1.22 z m -333.23,0 c -1.07,0 -1.95,-0.41 -2.64,-1.22 -0.56,-0.66 -0.84,-1.42 -0.84,-2.26 0,-0.85 0.28,-1.61 0.84,-2.27 0.68,-0.81 1.56,-1.22 2.64,-1.22 0.97,0 1.8,0.34 2.47,1.01 0.67,0.67 1.01,1.5 1.01,2.48 0,0.96 -0.34,1.79 -1.02,2.47 -0.68,0.67 -1.5,1.01 -2.46,1.01 z m 447.85,0.08 c -1.12,0 -2.03,-0.42 -2.73,-1.25 -0.56,-0.68 -0.85,-1.44 -0.85,-2.31 0,-0.87 0.29,-1.64 0.85,-2.31 0.7,-0.84 1.61,-1.26 2.73,-1.26 0.99,0 1.84,0.34 2.52,1.03 0.69,0.69 1.04,1.54 1.04,2.54 0,1 -0.35,1.84 -1.04,2.53 -0.7,0.69 -1.54,1.03 -2.52,1.03 z m -269.25,0 c -1.12,0 -2.03,-0.42 -2.73,-1.25 -0.56,-0.68 -0.85,-1.44 -0.85,-2.31 0,-0.87 0.29,-1.64 0.85,-2.31 0.7,-0.84 1.61,-1.26 2.73,-1.26 0.99,0 1.84,0.34 2.52,1.03 0.69,0.69 1.04,1.54 1.04,2.54 0,1 -0.35,1.84 -1.04,2.53 -0.7,0.69 -1.54,1.03 -2.52,1.03 z m -105.75,0 c -1.12,0 -2.03,-0.42 -2.72,-1.25 -0.57,-0.68 -0.86,-1.44 -0.86,-2.31 0,-0.87 0.29,-1.64 0.86,-2.31 0.69,-0.84 1.6,-1.26 2.72,-1.26 0.99,0 1.84,0.34 2.52,1.03 0.69,0.69 1.04,1.54 1.04,2.54 0,1 -0.35,1.84 -1.04,2.53 -0.7,0.69 -1.54,1.03 -2.52,1.03 z m 395.9,0.07 c -1.08,0 -1.97,-0.42 -2.66,-1.25 -0.54,-0.67 -0.82,-1.45 -0.82,-2.33 0,-0.97 0.34,-1.81 1.01,-2.51 0.67,-0.7 1.5,-1.05 2.47,-1.05 0.96,0 1.78,0.35 2.45,1.05 0.67,0.7 1.01,1.54 1.01,2.51 0,0.98 -0.33,1.82 -1,2.52 -0.67,0.71 -1.49,1.06 -2.46,1.06 z m -106.15,1.04 c -0.91,0 -1.66,-0.28 -2.23,-0.83 -0.44,-0.43 -0.73,-1.02 -0.85,-1.76 h 6.15 c -0.38,1.73 -1.41,2.59 -3.07,2.59 z m -382.5,0 c -0.91,0 -1.66,-0.28 -2.23,-0.83 -0.44,-0.43 -0.73,-1.02 -0.85,-1.76 h 6.15 c -0.38,1.73 -1.41,2.59 -3.07,2.59 z m 569.8,2.98 h 6.28 l 4.09,-7.84 3.97,7.84 h 6.19 l -12.27,-22.94 h -6.07 l 5.19,9.74 z m -165.42,0 h 5.42 v -15.29 h -5.42 z m -99,0 h 5.42 v -15.29 h -5.42 z m -42.33,0 h 6.08 l 3.66,-7.84 3.67,7.84 h 6.05 l -7.96,-15.29 h -3.61 z m -82.17,0 h 5.42 v -15.29 h -5.42 z m 386.93,0.21 c 0.29,0 0.64,-0.01 1.06,-0.04 v -5.15 c -0.76,0.37 -1.53,0.55 -2.31,0.55 -1.77,0 -2.92,-0.73 -3.45,-2.19 -0.19,-0.53 -0.29,-1.24 -0.29,-2.13 v -6.54 h -5.42 v 15.29 h 5.42 v -2.5 c 0.57,0.89 1.18,1.53 1.84,1.92 0.89,0.53 1.94,0.79 3.15,0.79 z m -452.25,0 c 0.29,0 0.64,-0.01 1.06,-0.04 v -5.15 c -0.76,0.37 -1.53,0.55 -2.31,0.55 -1.77,0 -2.92,-0.73 -3.45,-2.19 -0.19,-0.53 -0.29,-1.24 -0.29,-2.13 v -6.54 h -5.42 v 15.29 h 5.42 v -2.5 c 0.57,0.89 1.18,1.53 1.84,1.92 0.89,0.53 1.94,0.79 3.15,0.79 z m 135.52,0.04 -2.46,-7.17 h 4.88 z m -399.75,0 -2.46,-7.17 h 4.88 z m 288.79,0.01 c 1.14,0 2.16,-0.27 3.05,-0.82 0.96,-0.6 1.59,-1.42 1.88,-2.46 0.18,-0.62 0.27,-1.4 0.27,-2.34 v -9.93 h -5.42 v 7.55 c 0,1.32 -0.14,2.22 -0.42,2.7 -0.4,0.71 -1.01,1.07 -1.83,1.07 -0.9,0 -1.59,-0.39 -2.07,-1.17 -0.34,-0.55 -0.51,-1.41 -0.51,-2.6 v -7.55 h -5.42 v 7.55 c 0,1.32 -0.11,2.17 -0.33,2.57 -0.44,0.79 -1.12,1.18 -2.03,1.18 -0.85,0 -1.51,-0.34 -1.98,-1.02 -0.17,-0.24 -0.3,-0.57 -0.38,-0.99 -0.07,-0.43 -0.11,-1 -0.11,-1.74 v -7.55 h -5.42 v 15.29 h 5.42 v -1.88 c 0.64,0.62 1.22,1.07 1.75,1.35 0.95,0.52 2.02,0.78 3.2,0.78 1.51,0 2.76,-0.39 3.76,-1.17 0.51,-0.4 0.99,-0.96 1.46,-1.68 0.41,0.68 0.88,1.22 1.4,1.61 1.09,0.84 2.33,1.25 3.73,1.25 z m 396.88,0.07 c 1.65,0 2.99,-0.44 4.02,-1.33 1.17,-1.02 1.76,-2.53 1.76,-4.55 v -9.74 h -5.42 v 7.73 c 0,1.35 -0.16,2.25 -0.46,2.68 -0.45,0.65 -1.12,0.97 -2.02,0.97 -0.81,0 -1.5,-0.27 -2.06,-0.83 -0.5,-0.5 -0.75,-1.29 -0.75,-2.36 v -8.19 h -5.42 v 15.29 h 5.42 v -1.93 c 0.62,0.73 1.2,1.24 1.73,1.54 0.85,0.48 1.92,0.72 3.2,0.72 z m -113.25,0 c 1.65,0 2.99,-0.44 4.02,-1.33 1.17,-1.02 1.76,-2.53 1.76,-4.55 v -9.74 h -5.42 v 7.73 c 0,1.35 -0.16,2.25 -0.46,2.68 -0.45,0.65 -1.12,0.97 -2.02,0.97 -0.81,0 -1.5,-0.27 -2.06,-0.83 -0.5,-0.5 -0.75,-1.29 -0.75,-2.36 v -8.19 h -5.42 v 15.29 h 5.42 v -1.93 c 0.62,0.73 1.2,1.24 1.73,1.54 0.85,0.48 1.92,0.72 3.2,0.72 z m -202.5,0 c 1.65,0 2.99,-0.44 4.02,-1.33 1.17,-1.02 1.76,-2.53 1.76,-4.55 v -9.74 h -5.42 v 7.73 c 0,1.35 -0.16,2.25 -0.46,2.68 -0.45,0.65 -1.12,0.97 -2.02,0.97 -0.81,0 -1.5,-0.27 -2.06,-0.83 -0.5,-0.5 -0.75,-1.29 -0.75,-2.36 v -8.19 h -5.42 v 15.29 h 5.42 v -1.93 c 0.62,0.73 1.2,1.24 1.73,1.54 0.85,0.48 1.92,0.72 3.2,0.72 z m -158.25,0 c 1.65,0 2.99,-0.44 4.02,-1.33 1.17,-1.02 1.76,-2.53 1.76,-4.55 v -9.74 h -5.42 v 7.73 c 0,1.35 -0.16,2.25 -0.46,2.68 -0.45,0.65 -1.12,0.97 -2.02,0.97 -0.81,0 -1.5,-0.27 -2.06,-0.83 -0.5,-0.5 -0.75,-1.29 -0.75,-2.36 v -8.19 h -5.42 v 15.29 h 5.42 v -1.93 c 0.62,0.73 1.2,1.24 1.73,1.54 0.85,0.48 1.92,0.72 3.2,0.72 z m 424.27,0.1 c 1.11,0 2.1,-0.23 2.96,-0.68 0.52,-0.27 1.06,-0.72 1.62,-1.35 v 1.6 h 5.42 v -14.24 c 0,-1.34 -0.1,-2.42 -0.28,-3.24 -0.3,-1.32 -1.07,-2.5 -2.31,-3.55 -1.57,-1.32 -3.66,-1.97 -6.26,-1.97 -2.73,0 -4.9,0.71 -6.51,2.15 -1.08,0.96 -1.76,1.96 -2.06,3 -0.03,0.11 -0.08,0.34 -0.13,0.7 h 6.06 c 0.18,-0.5 0.41,-0.86 0.71,-1.08 0.48,-0.36 1.1,-0.54 1.85,-0.54 1.25,0 2.21,0.44 2.88,1.33 0.42,0.56 0.63,1.36 0.63,2.4 v 1.45 c -0.65,-0.6 -1.19,-1.02 -1.63,-1.26 -0.91,-0.5 -1.99,-0.76 -3.23,-0.76 -1.56,0 -2.95,0.41 -4.18,1.21 -1.26,0.82 -2.17,1.95 -2.71,3.38 -0.38,0.96 -0.56,2.01 -0.56,3.14 0,2.51 0.79,4.55 2.38,6.12 1.48,1.46 3.27,2.19 5.35,2.19 z m -104.98,0 c 3.33,0 5.71,-1.21 7.13,-3.63 0.81,-1.37 1.21,-2.95 1.21,-4.76 v -0.69 h -11.36 c 0,-2.3 1.11,-3.45 3.31,-3.45 1.13,0 1.99,0.49 2.59,1.45 h 5.24 c -0.41,-1.38 -1.03,-2.44 -1.84,-3.2 -1.47,-1.37 -3.45,-2.05 -5.92,-2.05 -3.14,0 -5.5,0.95 -7.08,2.87 -1.19,1.42 -1.78,3.16 -1.78,5.22 0,2.44 0.74,4.42 2.22,5.95 1.48,1.53 3.58,2.29 6.28,2.29 z m -382.5,0 c 3.33,0 5.71,-1.21 7.14,-3.63 0.8,-1.37 1.2,-2.95 1.2,-4.76 v -0.69 h -11.36 c 0,-2.3 1.11,-3.45 3.31,-3.45 1.13,0 1.99,0.49 2.59,1.45 h 5.24 c -0.41,-1.38 -1.03,-2.44 -1.84,-3.2 -1.47,-1.37 -3.45,-2.05 -5.92,-2.05 -3.14,0 -5.5,0.95 -7.08,2.87 -1.19,1.42 -1.78,3.16 -1.78,5.22 0,2.44 0.74,4.42 2.22,5.95 1.48,1.53 3.58,2.29 6.28,2.29 z m 330.67,0.05 c 1.08,0 2.1,-0.23 3.06,-0.68 0.54,-0.26 1.11,-0.69 1.69,-1.3 v 1.5 h 5.42 v -15.29 h -5.42 v 1.7 c -0.51,-0.65 -1.04,-1.13 -1.56,-1.42 -0.92,-0.52 -1.97,-0.78 -3.15,-0.78 -1.89,0 -3.58,0.66 -5.06,1.96 -1.77,1.56 -2.65,3.62 -2.65,6.19 0,2.61 0.9,4.7 2.71,6.26 1.44,1.24 3.09,1.86 4.96,1.86 z m -39,0 c 1.08,0 2.1,-0.23 3.06,-0.68 0.54,-0.26 1.11,-0.69 1.69,-1.3 v 1.5 h 5.42 v -15.29 h -5.42 v 1.7 c -0.51,-0.65 -1.04,-1.13 -1.56,-1.42 -0.92,-0.52 -1.97,-0.78 -3.15,-0.78 -1.89,0 -3.58,0.66 -5.06,1.96 -1.77,1.56 -2.65,3.62 -2.65,6.19 0,2.61 0.9,4.7 2.71,6.26 1.44,1.24 3.09,1.86 4.96,1.86 z m -135.75,0 c 1.08,0 2.1,-0.23 3.06,-0.68 0.54,-0.26 1.11,-0.69 1.69,-1.3 v 1.5 h 5.42 v -15.29 h -5.42 v 1.7 c -0.51,-0.65 -1.04,-1.13 -1.56,-1.42 -0.92,-0.52 -1.97,-0.78 -3.15,-0.78 -1.89,0 -3.58,0.66 -5.06,1.96 -1.77,1.56 -2.65,3.62 -2.65,6.19 0,2.61 0.9,4.7 2.71,6.26 1.44,1.24 3.09,1.86 4.96,1.86 z m -207.75,0 c 1.08,0 2.1,-0.23 3.06,-0.68 0.54,-0.26 1.11,-0.69 1.69,-1.3 v 1.5 h 5.42 v -15.29 h -5.42 v 1.7 c -0.51,-0.65 -1.04,-1.13 -1.56,-1.42 -0.92,-0.52 -1.97,-0.78 -3.15,-0.78 -1.89,0 -3.58,0.66 -5.06,1.96 -1.77,1.56 -2.65,3.62 -2.65,6.19 0,2.61 0.9,4.7 2.71,6.26 1.44,1.24 3.09,1.86 4.96,1.86 z m 519.95,0.08 c 2.89,0 5.2,-0.93 6.92,-2.78 1.41,-1.52 2.11,-3.33 2.11,-5.43 0,-2.12 -0.69,-3.93 -2.09,-5.45 -1.69,-1.85 -4.06,-2.77 -7.1,-2.77 -3.06,0 -5.43,0.92 -7.12,2.77 -1.4,1.52 -2.09,3.38 -2.09,5.59 0,1.98 0.7,3.75 2.11,5.29 1.7,1.85 4.12,2.78 7.26,2.78 z m -269.25,0 c 2.89,0 5.2,-0.93 6.92,-2.78 1.41,-1.52 2.11,-3.33 2.11,-5.43 0,-2.12 -0.69,-3.93 -2.09,-5.45 -1.69,-1.85 -4.06,-2.77 -7.1,-2.77 -3.06,0 -5.43,0.92 -7.12,2.77 -1.4,1.52 -2.09,3.38 -2.09,5.59 0,1.98 0.7,3.75 2.11,5.29 1.7,1.85 4.12,2.78 7.26,2.78 z m -105.75,0 c 2.89,0 5.2,-0.93 6.92,-2.78 1.41,-1.52 2.11,-3.33 2.11,-5.43 0,-2.12 -0.69,-3.93 -2.09,-5.45 -1.69,-1.85 -4.06,-2.77 -7.1,-2.77 -3.06,0 -5.43,0.92 -7.12,2.77 -1.4,1.52 -2.09,3.38 -2.09,5.59 0,1.98 0.7,3.75 2.11,5.29 1.7,1.85 4.12,2.78 7.26,2.78 z m 453.86,4.04 h 5.42 v -4.6 h 3.09 v -4.43 h -3.09 v -10.86 h -5.42 v 10.86 h -1.78 v 4.43 h 1.78 z m -376.5,0 h 5.42 v -4.6 h 3.09 v -4.43 h -3.09 v -10.86 h -5.42 v 10.86 h -1.78 v 4.43 h 1.78 z m 340.39,2.6 h 12.8 v -4.88 h -6.95 v -3.84 h 6.57 v -4.87 h -6.57 v -4.02 h 6.95 v -4.88 h -12.8 z m -66.75,0 h 5.85 v -17.61 h 7.02 v -4.88 h -12.87 z m -195.98,0 h 6.38 l 8.47,-22.49 h -6.25 l -1.45,3.92 h -8.07 l -1.55,-3.92 h -6.18 z m -205.27,0 h 5.85 v -22.49 h -5.85 z m -138.11,0 h 6.11 l 3.91,-14.53 4.76,14.53 h 4.65 l 4.43,-14.53 4.25,14.53 h 6.1 l -7.18,-22.49 h -5.97 l -4.1,13.03 -4.3,-13.03 h -5.95 z m -25.27,0 h 15.46 v -4.88 h -4.85 v -17.61 h -5.85 v 17.61 h -4.76 z m -13.62,0 h 5.85 v -17.61 h 7.02 v -4.88 h -12.87 z m -17.48,0 h 6.38 l 8.47,-22.49 h -6.25 l -1.45,3.92 h -8.07 l -1.549,-3.92 h -6.18 z m -18.476,0.55 c 2.428,0 4.807,-0.61 7.136,-1.83 l -2.34,-4.55 c -1.278,1 -2.567,1.5 -3.867,1.5 -0.627,0 -1.189,-0.16 -1.685,-0.48 -0.561,-0.37 -0.842,-0.85 -0.842,-1.46 0,-0.59 0.368,-1.11 1.106,-1.54 0.33,-0.19 1.32,-0.54 2.971,-1.02 2.069,-0.61 3.544,-1.46 4.424,-2.57 0.759,-0.95 1.139,-2.17 1.139,-3.65 0,-3.81 -1.67,-6.29 -5.01,-7.44 -1.164,-0.41 -2.417,-0.61 -3.757,-0.61 -2.812,0 -5.422,0.85 -7.828,2.55 l 2.505,4.72 c 1.762,-1.6 3.485,-2.39 5.169,-2.39 0.759,0 1.404,0.17 1.932,0.53 0.617,0.4 0.925,0.96 0.925,1.7 0,0.66 -0.341,1.22 -1.024,1.66 -0.506,0.33 -1.359,0.67 -2.559,1.02 -1.452,0.42 -2.366,0.72 -2.74,0.89 -0.594,0.25 -1.1,0.54 -1.518,0.88 -1.2,0.99 -1.8,2.48 -1.8,4.48 0,2.09 0.621,3.81 1.862,5.19 1.451,1.61 3.384,2.42 5.801,2.42 z m 577.386,1.15 c 0.84,0 1.56,-0.29 2.15,-0.88 0.59,-0.59 0.89,-1.3 0.89,-2.14 0,-0.86 -0.29,-1.58 -0.88,-2.17 -0.58,-0.58 -1.31,-0.87 -2.16,-0.87 -0.84,0 -1.56,0.29 -2.14,0.88 -0.59,0.59 -0.88,1.31 -0.88,2.16 0,0.84 0.29,1.55 0.88,2.14 0.58,0.59 1.3,0.88 2.14,0.88 z m -99,0 c 0.84,0 1.56,-0.29 2.15,-0.88 0.59,-0.59 0.89,-1.3 0.89,-2.14 0,-0.86 -0.29,-1.58 -0.88,-2.17 -0.58,-0.58 -1.31,-0.87 -2.16,-0.87 -0.84,0 -1.56,0.29 -2.14,0.88 -0.59,0.59 -0.88,1.31 -0.88,2.16 0,0.84 0.29,1.55 0.88,2.14 0.58,0.59 1.3,0.88 2.14,0.88 z m -124.5,0 c 0.84,0 1.56,-0.29 2.15,-0.88 0.59,-0.59 0.89,-1.3 0.89,-2.14 0,-0.86 -0.29,-1.58 -0.88,-2.17 -0.58,-0.58 -1.31,-0.87 -2.16,-0.87 -0.84,0 -1.56,0.29 -2.14,0.88 -0.59,0.59 -0.88,1.31 -0.88,2.16 0,0.84 0.29,1.55 0.88,2.14 0.58,0.59 1.3,0.88 2.14,0.88 z m 181.81,0.56 h 5.42 v -24.75 h -5.42 z m -21,0 h 5.42 v -10.98 c 0.58,0.61 1.14,1.04 1.69,1.31 0.96,0.46 1.98,0.69 3.06,0.69 1.87,0 3.52,-0.62 4.96,-1.86 1.81,-1.56 2.71,-3.65 2.71,-6.26 0,-2.57 -0.88,-4.63 -2.65,-6.19 -1.48,-1.3 -3.17,-1.96 -5.07,-1.96 -1.17,0 -2.22,0.26 -3.14,0.78 -0.56,0.31 -1.08,0.78 -1.56,1.42 v -1.7 h -5.42 z m -30,0 h 5.42 v -24.75 h -5.42 z m -291.19,0 h 5.42 v -24.75 h -5.42 v 1.7 c -0.51,-0.65 -1.04,-1.13 -1.56,-1.42 -0.92,-0.52 -1.97,-0.78 -3.15,-0.78 -1.89,0 -3.58,0.66 -5.06,1.96 -1.77,1.56 -2.65,3.62 -2.65,6.19 0,2.61 0.9,4.7 2.71,6.26 1.44,1.24 3.09,1.86 4.96,1.86 1.08,0 2.1,-0.23 3.06,-0.69 0.54,-0.27 1.11,-0.7 1.69,-1.31 z m -52.31,0 h 5.42 v -14.96 l 5.65,5.5 h 7.42 l -7.67,-7.05 8.13,-8.24 h -7.58 l -5.95,6.23 v -6.23 h -5.42 z m -9,0 h 5.42 v -24.75 h -5.42 z m 117.51,0.05 c 0.79,0 1.59,-0.19 2.39,-0.56 v -4.7 c -0.73,0.41 -1.36,0.61 -1.88,0.61 -0.74,0 -1.27,-0.28 -1.61,-0.84 -0.2,-0.32 -0.3,-1.11 -0.3,-2.37 v -1.65 h 3.79 v -4.45 h -3.79 v -10.84 h -5.42 v 10.84 h -1.93 v 4.45 h 1.93 v 2.03 c 0,2.25 0.57,3.99 1.71,5.21 1.42,1.51 3.12,2.27 5.11,2.27 z"
       style="fill:url(#linearGradient11679);fill-opacity:1;fill-rule:evenodd;stroke:none"
       id="path11681" /><text
       transform="scale(1,-1)"
       style="font-variant:normal;font-weight:bold;font-size:33.8px;font-family:Aharoni;-inkscape-font-specification:Aharoni-Bold;writing-mode:lr-tb;fill:#000000;fill-opacity:0;fill-rule:nonzero;stroke:none"
       id="text11693"
       x="73.25"
       y="-443.63"><tspan
         x="73.25 92.752602 116.7506 132.6366 148.31979 158.0542 192.5302 213.48621 222.6122 243.56821 263.0708 284.02679 293.8288 304.4082 323.87701 335.87601 356.86581 371.09561 400.36639 421.32239 432.64539 441.77139 462.6936 482.23001 492.70801 516.70599 536.20862 557.26599 566.39197 575.31519 596.27118 617.32861 626.45459 645.78821 656.36761 665.49359 684.92859 695.40662 711.19122 732.18103 753.17078 762.19537 778.72357 798.26001 809.51538 823.74518"
         y="-443.63"
         sodipodi:role="line"
         id="tspan11691">SALT Walked Information Available in Log Entry</tspan></text><path
       d="m 276.38,377.62 c 0,4.98 0.67,9 1.49,9 h 90.38 c 0.83,0 1.5,4.03 1.5,9 0,-4.97 0.67,-9 1.5,-9 h 90.38 c 0.82,0 1.5,-4.02 1.5,-9"
       style="fill:none;stroke:#00bac8;stroke-width:0.5;stroke-linecap:butt;stroke-linejoin:miter;stroke-miterlimit:10;stroke-dasharray:none;stroke-opacity:1"
       id="path11703" /><text
       transform="scale(1,-1)"
       style="font-variant:normal;font-weight:normal;font-size:18.025px;font-family:AvenirNextLTPro;-inkscape-font-specification:AvenirNextLTPro;writing-mode:lr-tb;fill:#00bac8;fill-opacity:1;fill-rule:nonzero;stroke:none"
       id="text11715"
       x="323.04999"
       y="-402.07999"><tspan
         x="323.04999 333.55856 338.06482 353.85474 364.36331 372.61874 378.62106 388.37259 404.14447"
         y="-402.07999"
         sodipodi:role="line"
         id="tspan11713">Timestamp</tspan></text><text
       transform="scale(1,-1)"
       style="font-variant:normal;font-weight:normal;font-size:18.025px;font-family:AvenirNextLTPro;-inkscape-font-specification:AvenirNextLTPro;writing-mode:lr-tb;fill:#000000;fill-opacity:1;fill-rule:nonzero;stroke:none"
       id="text11727"
       x="277.51999"
       y="-364.95001"><tspan
         x="277.51999 287.97449 294.75189 305.20639 311.9838 322.43829 332.9649 343.4194 353.94601 358.45224 368.90674 374.18808 384.64258 395.16919 400.41446 410.86896 421.39554 425.90179 436.35629 452.14621"
         y="-364.95001"
         sodipodi:role="line"
         id="tspan11725">9/7/2023 3:28:16 PM,</tspan></text><path
       d="m 839.63,377.62 c 0,4.98 0.67,9.01 1.49,9.01 l 11.26,-0.01 c 0.82,0 1.5,4.03 1.5,9 0,-4.97 0.67,-9 1.49,-9 h 11.26 c 0.82,0 1.5,-4.02 1.5,-9"
       style="fill:none;stroke:#00bac8;stroke-width:0.5;stroke-linecap:butt;stroke-linejoin:miter;stroke-miterlimit:10;stroke-dasharray:none;stroke-opacity:1"
       id="path11737" /><text
       transform="scale(1,-1)"
       style="font-variant:normal;font-weight:normal;font-size:18.025px;font-family:AvenirNextLTPro;-inkscape-font-specification:AvenirNextLTPro;writing-mode:lr-tb;fill:#00bac8;fill-opacity:1;fill-rule:nonzero;stroke:none"
       id="text11749"
       x="795.77002"
       y="-402.07999"><tspan
         x="795.77002 800.31232 811.52386 822.8075 834.09113 844.59973 851.32306 861.84967 872.35822 879.08154 887.31897 891.8252 902.35181"
         y="-402.07999"
         sodipodi:role="line"
         id="tspan11747">loggerVersion</tspan></text><text
       transform="scale(1,-1)"
       style="font-variant:normal;font-weight:normal;font-size:18.025px;font-family:AvenirNextLTPro;-inkscape-font-specification:AvenirNextLTPro;writing-mode:lr-tb;fill:#000000;fill-opacity:1;fill-rule:nonzero;stroke:none"
       id="text11761"
       x="841.45001"
       y="-364.95001"><tspan
         x="841.45001 851.90448 856.44678 866.90131"
         y="-364.95001"
         sodipodi:role="line"
         id="tspan11759">1.3,</tspan></text><path
       d="m 47.625,381.37 c 0,3.11 0.42,5.63 0.937,5.63 h 76.128 c 0.52,0 0.93,2.52 0.93,5.62 0,-3.1 0.42,-5.62 0.94,-5.62 h 76.13 c 0.52,0 0.94,-2.52 0.94,-5.63"
       style="fill:none;stroke:#00bac8;stroke-width:0.5;stroke-linecap:butt;stroke-linejoin:miter;stroke-miterlimit:10;stroke-dasharray:none;stroke-opacity:1"
       id="path11771" /><text
       transform="scale(1,-1)"
       style="font-variant:normal;font-weight:normal;font-size:18.025px;font-family:AvenirNextLTPro;-inkscape-font-specification:AvenirNextLTPro;writing-mode:lr-tb;fill:#00bac8;fill-opacity:1;fill-rule:nonzero;stroke:none"
       id="text11783"
       x="105.43"
       y="-402.07999"><tspan
         x="105.43 114.46053 123.47302 134.75667"
         y="-402.07999"
         sodipodi:role="line"
         id="tspan11781">Type</tspan></text><text
       transform="scale(1,-1)"
       style="font-variant:normal;font-weight:normal;font-size:18.025px;font-family:AvenirNextLTPro;-inkscape-font-specification:AvenirNextLTPro;writing-mode:lr-tb;fill:#000000;fill-opacity:1;fill-rule:nonzero;stroke:none"
       id="text11795"
       x="48.724998"
       y="-364.95001"><tspan
         x="48.724998 59.215549 68.22805 80.971725 89.984222 98.978699 107.9912 118.46372 127.47623 144.74417 157.50589 166.50035 177.82005 188.27455 201.05428"
         y="-364.95001"
         sodipodi:role="line"
         id="tspan11793">S_A_L_T_WALKED,</tspan></text><path
       d="m 212.63,379.12 c 0,4.15 0.55,7.5 1.24,7.5 h 24.88 c 0.69,0 1.25,3.36 1.25,7.5 0,-4.14 0.56,-7.5 1.25,-7.5 h 24.88 c 0.69,0 1.25,-3.35 1.25,-7.5"
       style="fill:none;stroke:#00bac8;stroke-width:0.5;stroke-linecap:butt;stroke-linejoin:miter;stroke-miterlimit:10;stroke-dasharray:none;stroke-opacity:1"
       id="path11805" /><text
       transform="scale(1,-1)"
       style="font-variant:normal;font-weight:normal;font-size:18.025px;font-family:AvenirNextLTPro;-inkscape-font-specification:AvenirNextLTPro;writing-mode:lr-tb;fill:#00bac8;fill-opacity:1;fill-rule:nonzero;stroke:none"
       id="text11817"
       x="186.5"
       y="-402.07999"><tspan
         x="186.5 197.00858 201.55087 211.28438 222.56802 230.82347 241.33205 252.61569 263.12427 267.63052 283.42041"
         y="-402.07999"
         sodipodi:role="line"
         id="tspan11815">elapsedTime</tspan></text><text
       transform="scale(1,-1)"
       style="font-variant:normal;font-weight:normal;font-size:18.025px;font-family:AvenirNextLTPro;-inkscape-font-specification:AvenirNextLTPro;writing-mode:lr-tb;fill:#000000;fill-opacity:1;fill-rule:nonzero;stroke:none"
       id="text11829"
       x="214.63"
       y="-364.95001"><tspan
         x="214.63 225.13 235.63 246.13 256.63 267.13"
         y="-364.95001"
         sodipodi:role="line"
         id="tspan11827">47531,</tspan></text><path
       d="m 473.63,378.37 c 0,4.77 0.64,8.63 1.43,8.63 h 177.13 c 0.79,0 1.44,3.86 1.44,8.62 0,-4.76 0.64,-8.62 1.43,-8.62 h 177.13 c 0.79,0 1.44,-3.86 1.44,-8.63"
       style="fill:none;stroke:#00bac8;stroke-width:0.5;stroke-linecap:butt;stroke-linejoin:miter;stroke-miterlimit:10;stroke-dasharray:none;stroke-opacity:1"
       id="path11839" /><text
       transform="scale(1,-1)"
       style="font-variant:normal;font-weight:normal;font-size:18.025px;font-family:AvenirNextLTPro;-inkscape-font-specification:AvenirNextLTPro;writing-mode:lr-tb;fill:#00bac8;fill-opacity:1;fill-rule:nonzero;stroke:none"
       id="text11851"
       x="613.96997"
       y="-402.07999"><tspan
         x="613.96997 624.46057 634.95111 643.18854 651.42596 655.93219 667.1618 677.63428 682.15857"
         y="-402.07999"
         sodipodi:role="line"
         id="tspan11849">SessionId</tspan></text><text
       transform="scale(1,-1)"
       style="font-variant:normal;font-weight:normal;font-size:18.025px;font-family:AvenirNextLTPro;-inkscape-font-specification:AvenirNextLTPro;writing-mode:lr-tb;fill:#000000;fill-opacity:1;fill-rule:nonzero;stroke:none"
       id="text11863"
       x="477.88"
       y="-364.95001"><tspan
         x="477.88 488.3345 498.86111 509.31561 518.32812 528.83667 539.2912 549.81775"
         y="-364.95001"
         sodipodi:role="line"
         id="tspan11861">666ce61c</tspan></text><text
       transform="scale(1,-1)"
       style="font-variant:normal;font-weight:normal;font-size:18.025px;font-family:AvenirNextLTPro;-inkscape-font-specification:AvenirNextLTPro;writing-mode:lr-tb;fill:#000000;fill-opacity:1;fill-rule:nonzero;stroke:none"
       id="text11875"
       x="558.95001"
       y="-364.95001"><tspan
         x="558.95001"
         y="-364.95001"
         id="tspan11873">-</tspan></text><text
       transform="scale(1,-1)"
       style="font-variant:normal;font-weight:normal;font-size:18.025px;font-family:AvenirNextLTPro;-inkscape-font-specification:AvenirNextLTPro;writing-mode:lr-tb;fill:#000000;fill-opacity:1;fill-rule:nonzero;stroke:none"
       id="text11887"
       x="564.95001"
       y="-364.95001"><tspan
         x="564.95001 575.40448 585.93109 597.17871"
         y="-364.95001"
         sodipodi:role="line"
         id="tspan11885">2ebc</tspan></text><text
       transform="scale(1,-1)"
       style="font-variant:normal;font-weight:normal;font-size:18.025px;font-family:AvenirNextLTPro;-inkscape-font-specification:AvenirNextLTPro;writing-mode:lr-tb;fill:#000000;fill-opacity:1;fill-rule:nonzero;stroke:none"
       id="text11899"
       x="606.21997"
       y="-364.95001"><tspan
         x="606.21997"
         y="-364.95001"
         id="tspan11897">-</tspan></text><text
       transform="scale(1,-1)"
       style="font-variant:normal;font-weight:normal;font-size:18.025px;font-family:AvenirNextLTPro;-inkscape-font-specification:AvenirNextLTPro;writing-mode:lr-tb;fill:#000000;fill-opacity:1;fill-rule:nonzero;stroke:none"
       id="text11911"
       x="612.22998"
       y="-364.95001"><tspan
         x="612.22998 622.73859 633.24713 643.75574"
         y="-364.95001"
         sodipodi:role="line"
         id="tspan11909">40ee</tspan></text><text
       transform="scale(1,-1)"
       style="font-variant:normal;font-weight:normal;font-size:18.025px;font-family:AvenirNextLTPro;-inkscape-font-specification:AvenirNextLTPro;writing-mode:lr-tb;fill:#000000;fill-opacity:1;fill-rule:nonzero;stroke:none"
       id="text11923"
       x="654.27002"
       y="-364.95001"><tspan
         x="654.27002"
         y="-364.95001"
         id="tspan11921">-</tspan></text><text
       transform="scale(1,-1)"
       style="font-variant:normal;font-weight:normal;font-size:18.025px;font-family:AvenirNextLTPro;-inkscape-font-specification:AvenirNextLTPro;writing-mode:lr-tb;fill:#000000;fill-opacity:1;fill-rule:nonzero;stroke:none"
       id="text11935"
       x="660.28003"
       y="-364.95001"><tspan
         x="660.28003 670.78003 681.28003 691.78003"
         y="-364.95001"
         sodipodi:role="line"
         id="tspan11933">902e</tspan></text><text
       transform="scale(1,-1)"
       style="font-variant:normal;font-weight:normal;font-size:18.025px;font-family:AvenirNextLTPro;-inkscape-font-specification:AvenirNextLTPro;writing-mode:lr-tb;fill:#000000;fill-opacity:1;fill-rule:nonzero;stroke:none"
       id="text11947"
       x="702.29999"
       y="-364.95001"><tspan
         x="702.29999"
         y="-364.95001"
         id="tspan11945">-</tspan></text><text
       transform="scale(1,-1)"
       style="font-variant:normal;font-weight:normal;font-size:18.025px;font-family:AvenirNextLTPro;-inkscape-font-specification:AvenirNextLTPro;writing-mode:lr-tb;fill:#000000;fill-opacity:1;fill-rule:nonzero;stroke:none"
       id="text11959"
       x="708.29999"
       y="-364.95001"><tspan
         x="708.29999 718.80859 724.05383 734.56244 744.31396 754.06549 764.57404 775.08264 785.59119 796.09979 806.60834 816.35986 827.64355"
         y="-364.95001"
         sodipodi:role="line"
         id="tspan11957">6f6aa42801ad,</tspan></text><path
       d="m 199.88,243.37 c 0,4.56 0.61,8.25 1.37,8.25 h 56.88 c 0.75,0 1.37,3.7 1.37,8.25 0,-4.55 0.62,-8.25 1.37,-8.25 h 56.88 c 0.76,0 1.38,-3.69 1.38,-8.25"
       style="fill:none;stroke:#00bac8;stroke-width:0.5;stroke-linecap:butt;stroke-linejoin:miter;stroke-miterlimit:10;stroke-dasharray:none;stroke-opacity:1"
       id="path11969" /><text
       transform="scale(1,-1)"
       style="font-variant:normal;font-weight:normal;font-size:18.025px;font-family:AvenirNextLTPro;-inkscape-font-specification:AvenirNextLTPro;writing-mode:lr-tb;fill:#00bac8;fill-opacity:1;fill-rule:nonzero;stroke:none"
       id="text11981"
       x="208.85001"
       y="-265.13"><tspan
         x="208.85001 217.08742 228.317 235.04033 241.02463 250.0191 261.24869 270.26117 279.97665 285.96094 290.46719 301.69678"
         y="-265.13"
         sodipodi:role="line"
         id="tspan11979">sortLocation</tspan></text><text
       transform="scale(1,-1)"
       style="font-variant:normal;font-weight:normal;font-size:18.025px;font-family:AvenirNextLTPro;-inkscape-font-specification:AvenirNextLTPro;writing-mode:lr-tb;fill:#000000;fill-opacity:1;fill-rule:nonzero;stroke:none"
       id="text11993"
       x="200.77"
       y="-230.5"><tspan
         x="200.77 208.25038 213.49565 224.00423 228.51047 239.01904 242.76825 247.27451 257.78308 262.28934 272.79791 276.54709 281.77435 292.28293 296.78918 307.29776 312.54303 320.02341"
         y="-230.5"
         sodipodi:role="line"
         id="tspan11991">&quot;(2.9, 0.0, 2.4)&quot;,</tspan></text><path
       d="m 361.13,243.37 c 0,4.35 0.58,7.88 1.31,7.88 h 29.25 c 0.72,0 1.31,3.53 1.31,7.87 0,-4.34 0.59,-7.87 1.31,-7.87 h 29.25 c 0.73,0 1.32,-3.53 1.32,-7.88"
       style="fill:none;stroke:#00bac8;stroke-width:0.5;stroke-linecap:butt;stroke-linejoin:miter;stroke-miterlimit:10;stroke-dasharray:none;stroke-opacity:1"
       id="path12003" /><text
       transform="scale(1,-1)"
       style="font-variant:normal;font-weight:normal;font-size:18.025px;font-family:AvenirNextLTPro;-inkscape-font-specification:AvenirNextLTPro;writing-mode:lr-tb;fill:#00bac8;fill-opacity:1;fill-rule:nonzero;stroke:none"
       id="text12015"
       x="317.07999"
       y="-265.13"><tspan
         x="317.07999 325.31741 336.547 343.27032 349.25464 361.99829 373.22787 388.99976 404.77164 414.50513 424.97766 436.26129 445.25577 455.00729 463.26276"
         y="-265.13"
         sodipodi:role="line"
         id="tspan12013">sortCommandText</tspan></text><text
       transform="scale(1,-1)"
       style="font-variant:normal;font-weight:normal;font-size:18.025px;font-family:AvenirNextLTPro;-inkscape-font-specification:AvenirNextLTPro;writing-mode:lr-tb;fill:#000000;fill-opacity:1;fill-rule:nonzero;stroke:none"
       id="text12027"
       x="364.45001"
       y="-230.5"><tspan
         x="364.45001 377.89664 387.68423 392.22653 401.18494 411.67551 422.9231"
         y="-230.5"
         sodipodi:role="line"
         id="tspan12025">walked,</tspan></text><path
       d="m 436.12,245.62 c 0,3.11 0.42,5.63 0.94,5.63 h 158.63 c 0.52,0 0.94,2.52 0.94,5.62 0,-3.1 0.41,-5.62 0.93,-5.62 h 158.63 c 0.52,0 0.94,-2.52 0.94,-5.63"
       style="fill:none;stroke:#00bac8;stroke-width:0.5;stroke-linecap:butt;stroke-linejoin:miter;stroke-miterlimit:10;stroke-dasharray:none;stroke-opacity:1"
       id="path12037" /><text
       transform="scale(1,-1)"
       style="font-variant:normal;font-weight:normal;font-size:18.025px;font-family:AvenirNextLTPro;-inkscape-font-specification:AvenirNextLTPro;writing-mode:lr-tb;fill:#00bac8;fill-opacity:1;fill-rule:nonzero;stroke:none"
       id="text12049"
       x="559.28003"
       y="-265.13"><tspan
         x="559.28003 570.52759 580.26111 586.24542 590.75165 601.22418 611.69672 617.69904 622.20526"
         y="-265.13"
         sodipodi:role="line"
         id="tspan12047">patientId</tspan></text><text
       transform="scale(1,-1)"
       style="font-variant:normal;font-weight:normal;font-size:18.025px;font-family:AvenirNextLTPro;-inkscape-font-specification:AvenirNextLTPro;writing-mode:lr-tb;fill:#000000;fill-opacity:1;fill-rule:nonzero;stroke:none"
       id="text12061"
       x="437.79999"
       y="-230.5"><tspan
         x="437.79999 453.55386 458.06009 462.60239 467.05457 473.03888 482.77237 489.4957 498.47214 502.22134 517.97522 522.48145 531.47595 541.96649 546.47272 555.44916 565.92169 576.4303 587.67786 592.22015 602.65662 606.40582 619.14954 630.37909 646.13293 657.38055 667.11407 673.09833 682.11084 692.56537 701.57788 712.08643 716.59265 727.08325 738.31281 749.54236 755.52667"
         y="-230.5"
         sodipodi:role="line"
         id="tspan12059">Military Mike Jungle Combat_2_0 Root,</tspan></text></g></svg>
