<?xml version="1.0" encoding="UTF-8" standalone="no"?>
<svg
   xmlns:dc="http://purl.org/dc/elements/1.1/"
   xmlns:cc="http://creativecommons.org/ns#"
   xmlns:rdf="http://www.w3.org/1999/02/22-rdf-syntax-ns#"
   xmlns:svg="http://www.w3.org/2000/svg"
   xmlns="http://www.w3.org/2000/svg"
   xmlns:sodipodi="http://sodipodi.sourceforge.net/DTD/sodipodi-0.dtd"
   xmlns:inkscape="http://www.inkscape.org/namespaces/inkscape"
   version="1.1"
   id="svg11089"
   xml:space="preserve"
   width="1280"
   height="720"
   viewBox="0 0 1280 720"
   sodipodi:docname="frvrs_data_and_analysis_presentation_for_itm_slide012.svg"
   inkscape:version="1.0.2-2 (e86c870879, 2021-01-15)"
   inkscape:export-filename="C:\Users\DaveBabbitt\Documents\GitHub\itm-analysis-reporting\saves\png\frvrs_data_and_analysis_presentation_for_itm\slide012.png"
   inkscape:export-xdpi="96"
   inkscape:export-ydpi="96"><metadata
     id="metadata11095"><rdf:RDF><cc:Work
         rdf:about=""><dc:format>image/svg+xml</dc:format><dc:type
           rdf:resource="http://purl.org/dc/dcmitype/StillImage" /><dc:title></dc:title></cc:Work></rdf:RDF></metadata><defs
     id="defs11093"><clipPath
       clipPathUnits="userSpaceOnUse"
       id="clipPath11105"><path
         d="M 0,1.2207e-4 H 960 V 540.00012 H 0 Z"
         clip-rule="evenodd"
         id="path11103" /></clipPath><clipPath
       clipPathUnits="userSpaceOnUse"
       id="clipPath11115"><path
         d="M 0,1.2207e-4 H 960 V 540.00012 H 0 Z"
         clip-rule="evenodd"
         id="path11113" /></clipPath><linearGradient
       x1="73.199997"
       y1="453.48001"
       x2="824.70001"
       y2="453.48001"
       gradientUnits="userSpaceOnUse"
       spreadMethod="pad"
       id="linearGradient11125"><stop
         style="stop-opacity:1;stop-color:#00bac8"
         offset="0"
         id="stop11121" /><stop
         style="stop-opacity:1;stop-color:#203040"
         offset="1"
         id="stop11123" /></linearGradient><clipPath
       clipPathUnits="userSpaceOnUse"
       id="clipPath11135"><path
         d="m 75,435.75 h 749.25 v 33 H 75 Z"
         clip-rule="evenodd"
         id="path11133" /></clipPath><clipPath
       clipPathUnits="userSpaceOnUse"
       id="clipPath11147"><path
         d="M 1.2207e-4,540 H 960 V 1.8311e-4 H 1.8311e-4"
         clip-rule="evenodd"
         id="path11145" /></clipPath><clipPath
       clipPathUnits="userSpaceOnUse"
       id="clipPath11157"><path
         d="M 1.4305e-5,0 H 960.00001 V 540 H 1.4305e-5 Z"
         clip-rule="evenodd"
         id="path11155" /></clipPath><clipPath
       clipPathUnits="userSpaceOnUse"
       id="clipPath11169"><path
         d="M 1.4305e-5,0 H 960.00001 V 540 H 1.4305e-5 Z"
         clip-rule="evenodd"
         id="path11167" /></clipPath><clipPath
       clipPathUnits="userSpaceOnUse"
       id="clipPath11181"><path
         d="M 3.0518e-5,540 H 960 V 1.8311e-4 H 4.5776e-5"
         clip-rule="evenodd"
         id="path11179" /></clipPath><clipPath
       clipPathUnits="userSpaceOnUse"
       id="clipPath11191"><path
         d="M 1.4305e-5,0 H 960.00001 V 540 H 1.4305e-5 Z"
         clip-rule="evenodd"
         id="path11189" /></clipPath><clipPath
       clipPathUnits="userSpaceOnUse"
       id="clipPath11203"><path
         d="M 1.4305e-5,0 H 960.00001 V 540 H 1.4305e-5 Z"
         clip-rule="evenodd"
         id="path11201" /></clipPath><clipPath
       clipPathUnits="userSpaceOnUse"
       id="clipPath11215"><path
         d="M 3.0518e-5,540 H 960 V 1.8311e-4 H 6.1035e-5"
         clip-rule="evenodd"
         id="path11213" /></clipPath><clipPath
       clipPathUnits="userSpaceOnUse"
       id="clipPath11225"><path
         d="M 1.4305e-5,0 H 960.00001 V 540 H 1.4305e-5 Z"
         clip-rule="evenodd"
         id="path11223" /></clipPath><clipPath
       clipPathUnits="userSpaceOnUse"
       id="clipPath11237"><path
         d="M 1.4305e-5,0 H 960.00001 V 540 H 1.4305e-5 Z"
         clip-rule="evenodd"
         id="path11235" /></clipPath><clipPath
       clipPathUnits="userSpaceOnUse"
       id="clipPath11249"><path
         d="M 9.1553e-5,540 H 960 V 1.8311e-4 L 1.2207e-4,1.2207e-4"
         clip-rule="evenodd"
         id="path11247" /></clipPath><clipPath
       clipPathUnits="userSpaceOnUse"
       id="clipPath11259"><path
         d="M 1.4305e-5,0 H 960.00001 V 540 H 1.4305e-5 Z"
         clip-rule="evenodd"
         id="path11257" /></clipPath><clipPath
       clipPathUnits="userSpaceOnUse"
       id="clipPath11271"><path
         d="M 1.4305e-5,0 H 960.00001 V 540 H 1.4305e-5 Z"
         clip-rule="evenodd"
         id="path11269" /></clipPath><clipPath
       clipPathUnits="userSpaceOnUse"
       id="clipPath11283"><path
         d="M 1.2207e-4,540 H 960 V 1.8311e-4 L 1.8311e-4,1.2207e-4"
         clip-rule="evenodd"
         id="path11281" /></clipPath><clipPath
       clipPathUnits="userSpaceOnUse"
       id="clipPath11293"><path
         d="M 1.4305e-5,0 H 960.00001 V 540 H 1.4305e-5 Z"
         clip-rule="evenodd"
         id="path11291" /></clipPath><clipPath
       clipPathUnits="userSpaceOnUse"
       id="clipPath11305"><path
         d="M 1.4305e-5,0 H 960.00001 V 540 H 1.4305e-5 Z"
         clip-rule="evenodd"
         id="path11303" /></clipPath><clipPath
       clipPathUnits="userSpaceOnUse"
       id="clipPath11317"><path
         d="M 1.4305e-5,0 H 960.00001 V 540 H 1.4305e-5 Z"
         clip-rule="evenodd"
         id="path11315" /></clipPath><clipPath
       clipPathUnits="userSpaceOnUse"
       id="clipPath11329"><path
         d="M 1.4305e-5,0 H 960.00001 V 540 H 1.4305e-5 Z"
         clip-rule="evenodd"
         id="path11327" /></clipPath><clipPath
       clipPathUnits="userSpaceOnUse"
       id="clipPath11341"><path
         d="M 1.4305e-5,0 H 960.00001 V 540 H 1.4305e-5 Z"
         clip-rule="evenodd"
         id="path11339" /></clipPath><clipPath
       clipPathUnits="userSpaceOnUse"
       id="clipPath11353"><path
         d="M 1.4305e-5,0 H 960.00001 V 540 H 1.4305e-5 Z"
         clip-rule="evenodd"
         id="path11351" /></clipPath><clipPath
       clipPathUnits="userSpaceOnUse"
       id="clipPath11365"><path
         d="M 1.4305e-5,0 H 960.00001 V 540 H 1.4305e-5 Z"
         clip-rule="evenodd"
         id="path11363" /></clipPath><clipPath
       clipPathUnits="userSpaceOnUse"
       id="clipPath11377"><path
         d="M 1.4305e-5,0 H 960.00001 V 540 H 1.4305e-5 Z"
         clip-rule="evenodd"
         id="path11375" /></clipPath><clipPath
       clipPathUnits="userSpaceOnUse"
       id="clipPath11389"><path
         d="M 1.4305e-5,0 H 960.00001 V 540 H 1.4305e-5 Z"
         clip-rule="evenodd"
         id="path11387" /></clipPath><clipPath
       clipPathUnits="userSpaceOnUse"
       id="clipPath11401"><path
         d="M 1.4305e-5,0 H 960.00001 V 540 H 1.4305e-5 Z"
         clip-rule="evenodd"
         id="path11399" /></clipPath><clipPath
       clipPathUnits="userSpaceOnUse"
       id="clipPath11413"><path
         d="M 3.0518e-5,540 H 960 V 1.8311e-4 H 6.1035e-5"
         clip-rule="evenodd"
         id="path11411" /></clipPath><clipPath
       clipPathUnits="userSpaceOnUse"
       id="clipPath11423"><path
         d="M 1.4305e-5,0 H 960.00001 V 540 H 1.4305e-5 Z"
         clip-rule="evenodd"
         id="path11421" /></clipPath><clipPath
       clipPathUnits="userSpaceOnUse"
       id="clipPath11435"><path
         d="M 1.4305e-5,0 H 960.00001 V 540 H 1.4305e-5 Z"
         clip-rule="evenodd"
         id="path11433" /></clipPath><clipPath
       clipPathUnits="userSpaceOnUse"
       id="clipPath11447"><path
         d="M 1.4305e-5,0 H 960.00001 V 540 H 1.4305e-5 Z"
         clip-rule="evenodd"
         id="path11445" /></clipPath><clipPath
       clipPathUnits="userSpaceOnUse"
       id="clipPath11459"><path
         d="M 1.2207e-4,540 H 960 V 1.8311e-4 H 1.8311e-4"
         clip-rule="evenodd"
         id="path11457" /></clipPath><clipPath
       clipPathUnits="userSpaceOnUse"
       id="clipPath11469"><path
         d="M 1.4305e-5,0 H 960.00001 V 540 H 1.4305e-5 Z"
         clip-rule="evenodd"
         id="path11467" /></clipPath><clipPath
       clipPathUnits="userSpaceOnUse"
       id="clipPath11481"><path
         d="M 1.4305e-5,0 H 960.00001 V 540 H 1.4305e-5 Z"
         clip-rule="evenodd"
         id="path11479" /></clipPath></defs><sodipodi:namedview
     pagecolor="#ffffff"
     bordercolor="#666666"
     borderopacity="1"
     objecttolerance="10"
     gridtolerance="10"
     guidetolerance="10"
     inkscape:pageopacity="0"
     inkscape:pageshadow="2"
     inkscape:window-width="1920"
     inkscape:window-height="1121"
     id="namedview11091"
     showgrid="false"
     inkscape:zoom="0.99765625"
     inkscape:cx="640"
     inkscape:cy="360"
     inkscape:window-x="-9"
     inkscape:window-y="611"
     inkscape:window-maximized="1"
     inkscape:current-layer="g11097" /><g
     id="g11097"
     inkscape:groupmode="layer"
     inkscape:label="FRVRS - Data and Analysis Presentation for ITM"
     transform="matrix(1.3333333,0,0,-1.3333333,0,720)"><path
       d="M 0,6.1035e-5 H 960 V 540.00006 H 0 Z"
       style="fill:#ffffff;fill-opacity:1;fill-rule:evenodd;stroke:none"
       id="path11107" /><path
       d="M 0,6.1035e-5 H 960 V 540.00006 H 0 Z"
       style="fill:#ffffff;fill-opacity:1;fill-rule:evenodd;stroke:none"
       id="path11117" /><path
       d="m 565.8,454.86 c -1.07,0 -1.95,-0.4 -2.64,-1.21 -0.56,-0.65 -0.84,-1.4 -0.84,-2.25 0,-0.84 0.28,-1.59 0.84,-2.24 0.68,-0.81 1.56,-1.22 2.64,-1.22 0.97,0 1.8,0.34 2.47,1 0.67,0.67 1.01,1.49 1.01,2.46 0,0.97 -0.34,1.78 -1.02,2.46 -0.68,0.67 -1.5,1 -2.46,1 z m -39,0 c -1.07,0 -1.95,-0.4 -2.64,-1.21 -0.56,-0.65 -0.84,-1.4 -0.84,-2.25 0,-0.84 0.28,-1.59 0.84,-2.24 0.68,-0.81 1.56,-1.22 2.64,-1.22 0.97,0 1.8,0.34 2.47,1 0.67,0.67 1.01,1.49 1.01,2.46 0,0.97 -0.34,1.78 -1.02,2.46 -0.68,0.67 -1.5,1 -2.46,1 z m -135.75,0 c -1.07,0 -1.95,-0.4 -2.64,-1.21 -0.56,-0.65 -0.84,-1.4 -0.84,-2.25 0,-0.84 0.28,-1.59 0.84,-2.24 0.68,-0.81 1.56,-1.22 2.64,-1.22 0.97,0 1.8,0.34 2.47,1 0.67,0.67 1.01,1.49 1.01,2.46 0,0.97 -0.34,1.78 -1.02,2.46 -0.68,0.67 -1.5,1 -2.46,1 z m -198,0 c -1.07,0 -1.95,-0.4 -2.64,-1.21 -0.56,-0.65 -0.84,-1.4 -0.84,-2.25 0,-0.84 0.28,-1.59 0.84,-2.24 0.68,-0.81 1.56,-1.22 2.64,-1.22 0.97,0 1.8,0.34 2.47,1 0.67,0.67 1.01,1.49 1.01,2.46 0,0.97 -0.34,1.78 -1.02,2.46 -0.68,0.67 -1.5,1 -2.46,1 z m 393.98,0.02 c -0.96,0 -1.78,-0.34 -2.46,-1.01 -0.68,-0.68 -1.02,-1.51 -1.02,-2.47 0,-0.97 0.34,-1.8 1.02,-2.47 0.68,-0.68 1.5,-1.02 2.46,-1.02 1.08,0 1.96,0.41 2.64,1.22 0.56,0.67 0.84,1.43 0.84,2.27 0,0.84 -0.28,1.6 -0.84,2.26 -0.69,0.81 -1.57,1.22 -2.64,1.22 z m 113.87,0.08 c -1.12,0 -2.03,-0.42 -2.73,-1.25 -0.56,-0.68 -0.85,-1.44 -0.85,-2.31 0,-0.87 0.29,-1.64 0.85,-2.31 0.7,-0.84 1.61,-1.26 2.73,-1.26 0.99,0 1.84,0.34 2.52,1.03 0.69,0.69 1.04,1.54 1.04,2.54 0,1 -0.35,1.84 -1.04,2.53 -0.7,0.69 -1.54,1.03 -2.52,1.03 z m -268.5,0 c -1.12,0 -2.03,-0.42 -2.72,-1.25 -0.57,-0.68 -0.86,-1.44 -0.86,-2.31 0,-0.87 0.29,-1.64 0.86,-2.31 0.69,-0.84 1.6,-1.26 2.72,-1.26 0.99,0 1.84,0.34 2.52,1.03 0.69,0.69 1.04,1.54 1.04,2.54 0,1 -0.35,1.84 -1.04,2.53 -0.7,0.69 -1.54,1.03 -2.52,1.03 z m -105.75,0 c -1.12,0 -2.03,-0.42 -2.72,-1.25 -0.57,-0.68 -0.86,-1.44 -0.86,-2.31 0,-0.87 0.29,-1.64 0.86,-2.31 0.69,-0.84 1.6,-1.26 2.72,-1.26 0.99,0 1.84,0.34 2.52,1.03 0.69,0.69 1.04,1.54 1.04,2.54 0,1 -0.35,1.84 -1.04,2.53 -0.7,0.69 -1.54,1.03 -2.52,1.03 z m 395.15,0.07 c -1.08,0 -1.97,-0.42 -2.66,-1.25 -0.54,-0.67 -0.82,-1.45 -0.82,-2.33 0,-0.97 0.34,-1.81 1.01,-2.51 0.67,-0.7 1.5,-1.05 2.47,-1.05 0.96,0 1.78,0.35 2.45,1.05 0.67,0.7 1.01,1.54 1.01,2.51 0,0.98 -0.33,1.82 -1,2.52 -0.67,0.71 -1.49,1.06 -2.46,1.06 z m -105.4,1.04 c -0.91,0 -1.66,-0.28 -2.23,-0.83 -0.44,-0.43 -0.73,-1.02 -0.85,-1.76 h 6.15 c -0.38,1.73 -1.41,2.59 -3.07,2.59 z m -381.75,0 c -0.91,0 -1.66,-0.28 -2.23,-0.83 -0.44,-0.43 -0.73,-1.02 -0.85,-1.76 h 6.15 c -0.38,1.73 -1.41,2.59 -3.07,2.59 z m -87,0 c -0.91,0 -1.66,-0.28 -2.23,-0.83 -0.44,-0.43 -0.73,-1.02 -0.85,-1.76 h 6.15 c -0.38,1.73 -1.41,2.59 -3.07,2.59 z m 656.05,2.98 h 6.28 l 4.09,-7.84 3.97,7.84 h 6.19 l -12.27,-22.94 h -6.07 l 5.19,9.74 z m -165.42,0 h 5.42 v -15.29 h -5.42 z m -99,0 h 5.42 v -15.29 h -5.42 z m -42.33,0 h 6.08 l 3.66,-7.84 3.67,7.84 h 6.05 l -7.96,-15.29 h -3.61 z m -82.17,0 h 5.42 v -15.29 h -5.42 z m -319.484,0 h 5.424 v -8.67 c 0,-0.95 0.23,-1.66 0.69,-2.11 0.49,-0.48 1.17,-0.72 2.04,-0.72 0.87,0 1.54,0.24 2.03,0.72 0.46,0.45 0.69,1.16 0.69,2.11 v 8.67 h 5.42 v -9.71 c 0,-2.84 -1.34,-4.73 -4.03,-5.66 -1.12,-0.39 -2.49,-0.58 -4.11,-0.58 -3.17,0 -5.452,0.78 -6.836,2.34 -0.879,0.99 -1.318,2.29 -1.318,3.9 z m 706.414,0.21 c 0.29,0 0.64,-0.01 1.06,-0.04 v -5.15 c -0.76,0.37 -1.53,0.55 -2.31,0.55 -1.77,0 -2.92,-0.73 -3.45,-2.19 -0.19,-0.53 -0.29,-1.24 -0.29,-2.13 v -6.54 h -5.42 v 15.29 h 5.42 v -2.5 c 0.57,0.89 1.18,1.53 1.84,1.92 0.89,0.53 1.94,0.79 3.15,0.79 z m -452.25,0 c 0.29,0 0.64,-0.01 1.06,-0.04 v -5.15 c -0.76,0.37 -1.53,0.55 -2.31,0.55 -1.77,0 -2.92,-0.73 -3.45,-2.19 -0.19,-0.53 -0.29,-1.24 -0.29,-2.13 v -6.54 h -5.42 v 15.29 h 5.42 v -2.5 c 0.57,0.89 1.18,1.53 1.84,1.92 0.89,0.53 1.94,0.79 3.15,0.79 z m 135.52,0.04 -2.46,-7.17 h 4.88 z m -110.96,0.01 c 1.14,0 2.16,-0.27 3.05,-0.82 0.96,-0.6 1.59,-1.42 1.88,-2.46 0.18,-0.62 0.27,-1.4 0.27,-2.34 v -9.93 h -5.42 v 7.55 c 0,1.32 -0.14,2.22 -0.42,2.7 -0.4,0.71 -1.01,1.07 -1.83,1.07 -0.9,0 -1.59,-0.39 -2.07,-1.17 -0.34,-0.55 -0.51,-1.41 -0.51,-2.6 v -7.55 h -5.42 v 7.55 c 0,1.32 -0.11,2.17 -0.33,2.57 -0.44,0.79 -1.12,1.18 -2.03,1.18 -0.85,0 -1.51,-0.34 -1.98,-1.02 -0.17,-0.24 -0.3,-0.57 -0.38,-0.99 -0.07,-0.43 -0.11,-1 -0.11,-1.74 v -7.55 h -5.42 v 15.29 h 5.42 v -1.88 c 0.64,0.62 1.22,1.07 1.75,1.35 0.95,0.52 2.02,0.78 3.2,0.78 1.51,0 2.76,-0.39 3.76,-1.17 0.51,-0.4 0.99,-0.96 1.46,-1.68 0.41,0.68 0.88,1.22 1.4,1.61 1.09,0.84 2.33,1.25 3.73,1.25 z m 396.88,0.07 c 1.65,0 2.99,-0.44 4.02,-1.33 1.17,-1.02 1.76,-2.53 1.76,-4.55 v -9.74 h -5.42 v 7.73 c 0,1.35 -0.16,2.25 -0.46,2.68 -0.45,0.65 -1.12,0.97 -2.02,0.97 -0.81,0 -1.5,-0.27 -2.06,-0.83 -0.5,-0.5 -0.75,-1.29 -0.75,-2.36 v -8.19 h -5.42 v 15.29 h 5.42 v -1.93 c 0.62,0.73 1.2,1.24 1.73,1.54 0.85,0.48 1.92,0.72 3.2,0.72 z m -113.25,0 c 1.65,0 2.99,-0.44 4.02,-1.33 1.17,-1.02 1.76,-2.53 1.76,-4.55 v -9.74 h -5.42 v 7.73 c 0,1.35 -0.16,2.25 -0.46,2.68 -0.45,0.65 -1.12,0.97 -2.02,0.97 -0.81,0 -1.5,-0.27 -2.06,-0.83 -0.5,-0.5 -0.75,-1.29 -0.75,-2.36 v -8.19 h -5.42 v 15.29 h 5.42 v -1.93 c 0.62,0.73 1.2,1.24 1.73,1.54 0.85,0.48 1.92,0.72 3.2,0.72 z m -202.5,0 c 1.65,0 2.99,-0.44 4.02,-1.33 1.17,-1.02 1.76,-2.53 1.76,-4.55 v -9.74 h -5.42 v 7.73 c 0,1.35 -0.16,2.25 -0.46,2.68 -0.45,0.65 -1.12,0.97 -2.02,0.97 -0.81,0 -1.5,-0.27 -2.06,-0.83 -0.5,-0.5 -0.75,-1.29 -0.75,-2.36 v -8.19 h -5.42 v 15.29 h 5.42 v -1.93 c 0.62,0.73 1.2,1.24 1.73,1.54 0.85,0.48 1.92,0.72 3.2,0.72 z m -158.25,0 c 1.65,0 2.99,-0.44 4.02,-1.33 1.17,-1.02 1.76,-2.53 1.76,-4.55 v -9.74 h -5.42 v 7.73 c 0,1.35 -0.16,2.25 -0.46,2.68 -0.45,0.65 -1.12,0.97 -2.02,0.97 -0.81,0 -1.5,-0.27 -2.06,-0.83 -0.5,-0.5 -0.75,-1.29 -0.75,-2.36 v -8.19 h -5.42 v 15.29 h 5.42 v -1.93 c 0.62,0.73 1.2,1.24 1.73,1.54 0.85,0.48 1.92,0.72 3.2,0.72 z m -40.5,0 c 1.65,0 2.99,-0.44 4.02,-1.33 1.17,-1.02 1.76,-2.53 1.76,-4.55 v -9.74 h -5.42 v 7.73 c 0,1.35 -0.16,2.25 -0.46,2.68 -0.45,0.65 -1.12,0.97 -2.02,0.97 -0.81,0 -1.5,-0.27 -2.06,-0.83 -0.5,-0.5 -0.75,-1.29 -0.75,-2.36 v -8.19 h -5.42 v 15.29 h 5.42 v -1.93 c 0.62,0.73 1.2,1.24 1.73,1.54 0.85,0.48 1.92,0.72 3.2,0.72 z m 464.02,0.1 c 1.11,0 2.1,-0.23 2.96,-0.68 0.52,-0.27 1.06,-0.72 1.62,-1.35 v 1.6 h 5.42 v -14.24 c 0,-1.34 -0.1,-2.42 -0.28,-3.24 -0.3,-1.32 -1.07,-2.5 -2.31,-3.55 -1.57,-1.32 -3.66,-1.97 -6.26,-1.97 -2.73,0 -4.9,0.71 -6.51,2.15 -1.08,0.96 -1.76,1.96 -2.06,3 -0.03,0.11 -0.08,0.34 -0.13,0.7 h 6.06 c 0.18,-0.5 0.41,-0.86 0.71,-1.08 0.48,-0.36 1.1,-0.54 1.85,-0.54 1.25,0 2.21,0.44 2.88,1.33 0.42,0.56 0.63,1.36 0.63,2.4 v 1.45 c -0.65,-0.6 -1.19,-1.02 -1.63,-1.26 -0.91,-0.5 -1.99,-0.76 -3.23,-0.76 -1.56,0 -2.95,0.41 -4.18,1.21 -1.26,0.82 -2.17,1.95 -2.71,3.38 -0.38,0.96 -0.56,2.01 -0.56,3.14 0,2.51 0.79,4.55 2.38,6.12 1.48,1.46 3.27,2.19 5.35,2.19 z m -104.23,0 c 3.33,0 5.71,-1.21 7.13,-3.63 0.81,-1.37 1.21,-2.95 1.21,-4.76 v -0.69 h -11.36 c 0,-2.3 1.11,-3.45 3.31,-3.45 1.13,0 1.99,0.49 2.59,1.45 h 5.24 c -0.41,-1.38 -1.03,-2.44 -1.84,-3.2 -1.47,-1.37 -3.45,-2.05 -5.92,-2.05 -3.14,0 -5.5,0.95 -7.08,2.87 -1.19,1.42 -1.78,3.16 -1.78,5.22 0,2.44 0.74,4.42 2.22,5.95 1.48,1.53 3.58,2.29 6.28,2.29 z m -381.75,0 c 3.33,0 5.71,-1.21 7.14,-3.63 0.8,-1.37 1.2,-2.95 1.2,-4.76 v -0.69 h -11.36 c 0,-2.3 1.11,-3.45 3.31,-3.45 1.13,0 1.99,0.49 2.59,1.45 h 5.24 c -0.41,-1.38 -1.03,-2.44 -1.84,-3.2 -1.47,-1.37 -3.45,-2.05 -5.92,-2.05 -3.14,0 -5.5,0.95 -7.08,2.87 -1.19,1.42 -1.78,3.16 -1.78,5.22 0,2.44 0.74,4.42 2.22,5.95 1.48,1.53 3.58,2.29 6.28,2.29 z m -87,0 c 3.33,0 5.71,-1.21 7.14,-3.63 0.8,-1.37 1.2,-2.95 1.2,-4.76 v -0.69 h -11.36 c 0,-2.3 1.11,-3.45 3.31,-3.45 1.13,0 1.99,0.49 2.59,1.45 h 5.24 c -0.41,-1.38 -1.03,-2.44 -1.84,-3.2 -1.47,-1.37 -3.45,-2.05 -5.92,-2.05 -3.14,0 -5.5,0.95 -7.08,2.87 -1.19,1.42 -1.78,3.16 -1.78,5.22 0,2.44 0.74,4.42 2.22,5.95 1.48,1.53 3.58,2.29 6.28,2.29 z m 416.92,0.05 c 1.08,0 2.1,-0.23 3.06,-0.68 0.54,-0.26 1.11,-0.69 1.69,-1.3 v 1.5 h 5.42 v -15.29 h -5.42 v 1.7 c -0.51,-0.65 -1.04,-1.13 -1.56,-1.42 -0.92,-0.52 -1.97,-0.78 -3.15,-0.78 -1.89,0 -3.58,0.66 -5.06,1.96 -1.77,1.56 -2.65,3.62 -2.65,6.19 0,2.61 0.9,4.7 2.71,6.26 1.44,1.24 3.09,1.86 4.96,1.86 z m -39,0 c 1.08,0 2.1,-0.23 3.06,-0.68 0.54,-0.26 1.11,-0.69 1.69,-1.3 v 1.5 h 5.42 v -15.29 h -5.42 v 1.7 c -0.51,-0.65 -1.04,-1.13 -1.56,-1.42 -0.92,-0.52 -1.97,-0.78 -3.15,-0.78 -1.89,0 -3.58,0.66 -5.06,1.96 -1.77,1.56 -2.65,3.62 -2.65,6.19 0,2.61 0.9,4.7 2.71,6.26 1.44,1.24 3.09,1.86 4.96,1.86 z m -135.75,0 c 1.08,0 2.1,-0.23 3.06,-0.68 0.54,-0.26 1.11,-0.69 1.69,-1.3 v 1.5 h 5.42 v -15.29 h -5.42 v 1.7 c -0.51,-0.65 -1.04,-1.13 -1.56,-1.42 -0.92,-0.52 -1.97,-0.78 -3.15,-0.78 -1.89,0 -3.58,0.66 -5.06,1.96 -1.77,1.56 -2.65,3.62 -2.65,6.19 0,2.61 0.9,4.7 2.71,6.26 1.44,1.24 3.09,1.86 4.96,1.86 z m -198,0 c 1.08,0 2.1,-0.23 3.06,-0.68 0.54,-0.26 1.11,-0.69 1.69,-1.3 v 1.5 h 5.42 v -15.29 h -5.42 v 1.7 c -0.51,-0.65 -1.04,-1.13 -1.56,-1.42 -0.92,-0.52 -1.97,-0.78 -3.15,-0.78 -1.89,0 -3.58,0.66 -5.06,1.96 -1.77,1.56 -2.65,3.62 -2.65,6.19 0,2.61 0.9,4.7 2.71,6.26 1.44,1.24 3.09,1.86 4.96,1.86 z m -60.03,0.06 c 1.71,0 3.36,-0.33 4.96,-0.98 l -1.83,-3.5 c -1,0.53 -1.97,0.79 -2.89,0.79 -1.08,0 -1.62,-0.37 -1.62,-1.13 0,-0.34 0.22,-0.62 0.66,-0.83 0.19,-0.1 0.77,-0.25 1.74,-0.44 1.41,-0.3 2.45,-0.77 3.12,-1.42 0.85,-0.81 1.27,-1.87 1.27,-3.16 0,-1.63 -0.58,-2.96 -1.75,-3.99 -1.31,-1.17 -3.15,-1.75 -5.52,-1.75 -2.1,0 -4.14,0.59 -6.11,1.76 l 1.96,3.83 c 1.54,-1.01 2.98,-1.52 4.3,-1.52 1.13,0 1.7,0.39 1.7,1.17 0,0.41 -0.2,0.72 -0.6,0.94 -0.25,0.14 -0.82,0.31 -1.71,0.51 -0.99,0.22 -1.64,0.39 -1.95,0.51 -1.1,0.43 -1.84,1.1 -2.22,2.01 -0.21,0.49 -0.31,1.08 -0.31,1.78 0,1.33 0.45,2.5 1.36,3.5 1.18,1.28 2.99,1.92 5.44,1.92 z m 569.48,0.02 c 2.89,0 5.2,-0.93 6.92,-2.78 1.41,-1.52 2.11,-3.33 2.11,-5.43 0,-2.12 -0.69,-3.93 -2.09,-5.45 -1.69,-1.85 -4.06,-2.77 -7.1,-2.77 -3.06,0 -5.43,0.92 -7.12,2.77 -1.4,1.52 -2.09,3.38 -2.09,5.59 0,1.98 0.7,3.75 2.11,5.29 1.7,1.85 4.12,2.78 7.26,2.78 z m -268.5,0 c 2.89,0 5.2,-0.93 6.92,-2.78 1.41,-1.52 2.11,-3.33 2.11,-5.43 0,-2.12 -0.69,-3.93 -2.09,-5.45 -1.69,-1.85 -4.06,-2.77 -7.1,-2.77 -3.06,0 -5.43,0.92 -7.12,2.77 -1.4,1.52 -2.09,3.38 -2.09,5.59 0,1.98 0.7,3.75 2.11,5.29 1.7,1.85 4.12,2.78 7.26,2.78 z m -105.75,0 c 2.89,0 5.2,-0.93 6.92,-2.78 1.41,-1.52 2.11,-3.33 2.11,-5.43 0,-2.12 -0.69,-3.93 -2.09,-5.45 -1.69,-1.85 -4.06,-2.77 -7.1,-2.77 -3.06,0 -5.43,0.92 -7.12,2.77 -1.4,1.52 -2.09,3.38 -2.09,5.59 0,1.98 0.7,3.75 2.11,5.29 1.7,1.85 4.12,2.78 7.26,2.78 z m -245.403,1.93 v -5.6 h 1.951 c 1.267,0 2.138,0.27 2.612,0.82 0.429,0.5 0.644,1.17 0.644,2.02 0,0.84 -0.245,1.51 -0.735,2.01 -0.491,0.5 -1.326,0.75 -2.505,0.75 z m 699.263,2.11 h 5.42 v -4.6 h 3.09 v -4.43 h -3.09 v -10.86 h -5.42 v 10.86 h -1.78 v 4.43 h 1.78 z m -376.5,0 h 5.42 v -4.6 h 3.09 v -4.43 h -3.09 v -10.86 h -5.42 v 10.86 h -1.78 v 4.43 h 1.78 z m 340.39,2.6 h 12.8 v -4.88 h -6.95 v -3.84 h 6.57 v -4.87 h -6.57 v -4.02 h 6.95 v -4.88 h -12.8 z m -67.5,0 h 5.85 v -17.61 h 7.02 v -4.88 h -12.87 z m -195.23,0 h 6.38 l 8.47,-22.49 h -6.25 l -1.45,3.92 h -8.07 l -1.55,-3.92 h -6.18 z m -205.27,0 h 5.85 v -22.49 h -5.85 z m -109.38,0 h 15.46 v -4.88 h -4.85 v -17.61 h -5.85 v 17.61 h -4.76 z m -91.623,0 h 9.31 c 2.648,0 4.659,-0.77 6.032,-2.32 1.187,-1.33 1.78,-3.02 1.78,-5.09 0,-2.03 -0.478,-3.7 -1.434,-5.03 -1.241,-1.73 -3.301,-2.59 -6.18,-2.59 h -3.658 v -7.46 h -5.85 z m 565.433,1.7 c 0.84,0 1.56,-0.29 2.15,-0.88 0.59,-0.59 0.89,-1.3 0.89,-2.14 0,-0.86 -0.29,-1.58 -0.88,-2.17 -0.58,-0.58 -1.31,-0.87 -2.16,-0.87 -0.84,0 -1.56,0.29 -2.14,0.88 -0.59,0.59 -0.88,1.31 -0.88,2.16 0,0.84 0.29,1.55 0.88,2.14 0.58,0.59 1.3,0.88 2.14,0.88 z m -99,0 c 0.84,0 1.56,-0.29 2.15,-0.88 0.59,-0.59 0.89,-1.3 0.89,-2.14 0,-0.86 -0.29,-1.58 -0.88,-2.17 -0.58,-0.58 -1.31,-0.87 -2.16,-0.87 -0.84,0 -1.56,0.29 -2.14,0.88 -0.59,0.59 -0.88,1.31 -0.88,2.16 0,0.84 0.29,1.55 0.88,2.14 0.58,0.59 1.3,0.88 2.14,0.88 z m -124.5,0 c 0.84,0 1.56,-0.29 2.15,-0.88 0.59,-0.59 0.89,-1.3 0.89,-2.14 0,-0.86 -0.29,-1.58 -0.88,-2.17 -0.58,-0.58 -1.31,-0.87 -2.16,-0.87 -0.84,0 -1.56,0.29 -2.14,0.88 -0.59,0.59 -0.88,1.31 -0.88,2.16 0,0.84 0.29,1.55 0.88,2.14 0.58,0.59 1.3,0.88 2.14,0.88 z m 181.81,0.56 h 5.42 v -24.75 h -5.42 z m -21,0 h 5.42 v -10.98 c 0.58,0.61 1.14,1.04 1.69,1.31 0.96,0.46 1.98,0.69 3.06,0.69 1.87,0 3.52,-0.62 4.96,-1.86 1.81,-1.56 2.71,-3.65 2.71,-6.26 0,-2.57 -0.88,-4.63 -2.65,-6.19 -1.48,-1.3 -3.17,-1.96 -5.07,-1.96 -1.17,0 -2.22,0.26 -3.14,0.78 -0.56,0.31 -1.08,0.78 -1.56,1.42 v -1.7 h -5.42 z m -30,0 h 5.42 v -24.75 h -5.42 z m -342.75,0 h 5.42 v -14.96 l 5.65,5.5 h 7.42 l -7.67,-7.05 8.13,-8.24 h -7.58 l -5.95,6.23 v -6.23 h -5.42 z m -90,0 h 5.42 v -24.75 h -5.42 z m 197.76,0.05 c 0.79,0 1.59,-0.19 2.39,-0.56 v -4.7 c -0.73,0.41 -1.36,0.61 -1.88,0.61 -0.74,0 -1.27,-0.28 -1.61,-0.84 -0.2,-0.32 -0.3,-1.11 -0.3,-2.37 v -1.65 h 3.79 v -4.45 h -3.79 v -10.84 h -5.42 v 10.84 h -1.93 v 4.45 h 1.93 v 2.03 c 0,2.25 0.57,3.99 1.71,5.21 1.42,1.51 3.12,2.27 5.11,2.27 z"
       style="fill:url(#linearGradient11125);fill-opacity:1;fill-rule:evenodd;stroke:none"
       id="path11127" /><text
       transform="scale(1,-1)"
       style="font-variant:normal;font-weight:bold;font-size:33.8px;font-family:Aharoni;-inkscape-font-specification:Aharoni-Bold;writing-mode:lr-tb;fill:#000000;fill-opacity:0;fill-rule:nonzero;stroke:none"
       id="text11139"
       x="73.25"
       y="-443.63"><tspan
         x="73.25 93.496201 113.7762 122.9022 137.8418 157.34439 167.0788 182.8634 203.8194 224.8768 244.37939 263.9158 274.3938 284.97321 304.44202 316.44098 337.43079 351.66061 380.9314 401.88739 413.21039 422.3364 443.25861 462.79501 473.27301 497.271 516.77356 537.83099 546.95703 555.88019 576.83618 597.89362 607.01959 626.35321 636.93262 646.05859 665.49359 675.22803 691.01257 712.00238 732.99219 742.72662 759.25482 778.7912 790.04657 804.27643"
         y="-443.63"
         sodipodi:role="line"
         id="tspan11137">Pulse Taken Information Available in Log Entry</tspan></text><path
       d="m 818.63,376.12 c 0,4.77 0.64,8.63 1.43,8.63 h 11.38 c 0.79,0 1.44,3.86 1.44,8.62 0,-4.76 0.64,-8.62 1.43,-8.62 h 11.38 c 0.79,0 1.44,-3.86 1.44,-8.63"
       style="fill:none;stroke:#00bac8;stroke-width:0.5;stroke-linecap:butt;stroke-linejoin:miter;stroke-miterlimit:10;stroke-dasharray:none;stroke-opacity:1"
       id="path11149" /><text
       transform="scale(1,-1)"
       style="font-variant:normal;font-weight:normal;font-size:18.025px;font-family:AvenirNextLTPro;-inkscape-font-specification:AvenirNextLTPro;writing-mode:lr-tb;fill:#00bac8;fill-opacity:1;fill-rule:nonzero;stroke:none"
       id="text11161"
       x="774.40002"
       y="-402.07999"><tspan
         x="774.40002 778.94232 790.1358 801.38342 812.63104 823.12158 829.84491 840.35345 850.84399 857.56732 865.80475 870.31104 880.80157"
         y="-402.07999"
         sodipodi:role="line"
         id="tspan11159">loggerVersion</tspan></text><text
       transform="scale(1,-1)"
       style="font-variant:normal;font-weight:normal;font-size:18.025px;font-family:AvenirNextLTPro;-inkscape-font-specification:AvenirNextLTPro;writing-mode:lr-tb;fill:#000000;fill-opacity:1;fill-rule:nonzero;stroke:none"
       id="text11173"
       x="820.04999"
       y="-364.95001"><tspan
         x="820.04999 830.55859 835.06482 845.57343"
         y="-364.95001"
         sodipodi:role="line"
         id="tspan11171">1.3,</tspan></text><path
       d="m 69.375,378.37 c 0,3.73 0.504,6.75 1.125,6.75 h 59.63 c 0.62,0 1.12,3.03 1.12,6.75 0,-3.72 0.5,-6.75 1.12,-6.75 H 192 c 0.62,0 1.13,-3.02 1.13,-6.75"
       style="fill:none;stroke:#00bac8;stroke-width:0.5;stroke-linecap:butt;stroke-linejoin:miter;stroke-miterlimit:10;stroke-dasharray:none;stroke-opacity:1"
       id="path11183" /><text
       transform="scale(1,-1)"
       style="font-variant:normal;font-weight:normal;font-size:18.025px;font-family:AvenirNextLTPro;-inkscape-font-specification:AvenirNextLTPro;writing-mode:lr-tb;fill:#00bac8;fill-opacity:1;fill-rule:nonzero;stroke:none"
       id="text11195"
       x="111.25"
       y="-402.07999"><tspan
         x="111.25 120.28053 129.29303 140.57668"
         y="-402.07999"
         sodipodi:role="line"
         id="tspan11193">Type</tspan></text><text
       transform="scale(1,-1)"
       style="font-variant:normal;font-weight:normal;font-size:18.025px;font-family:AvenirNextLTPro;-inkscape-font-specification:AvenirNextLTPro;writing-mode:lr-tb;fill:#000000;fill-opacity:1;fill-rule:nonzero;stroke:none"
       id="text11207"
       x="71.824997"
       y="-364.95001"><tspan
         x="71.824997 82.279503 95.077248 104.07172 114.56227 125.07085 134.08334 143.81685 156.5425 167.7901 178.29868 191.79941"
         y="-364.95001"
         sodipodi:role="line"
         id="tspan11205">PULSE_TAKEN,</tspan></text><path
       d="m 204.38,378.37 c 0,3.73 0.5,6.75 1.12,6.75 h 29.63 c 0.62,0 1.12,3.03 1.12,6.75 0,-3.72 0.5,-6.75 1.12,-6.75 H 267 c 0.62,0 1.13,-3.02 1.13,-6.75"
       style="fill:none;stroke:#00bac8;stroke-width:0.5;stroke-linecap:butt;stroke-linejoin:miter;stroke-miterlimit:10;stroke-dasharray:none;stroke-opacity:1"
       id="path11217" /><text
       transform="scale(1,-1)"
       style="font-variant:normal;font-weight:normal;font-size:18.025px;font-family:AvenirNextLTPro;-inkscape-font-specification:AvenirNextLTPro;writing-mode:lr-tb;fill:#00bac8;fill-opacity:1;fill-rule:nonzero;stroke:none"
       id="text11229"
       x="182.63"
       y="-402.07999"><tspan
         x="182.63 193.12054 197.66286 207.36031 218.60789 226.84532 237.33588 248.58348 259.07404 263.58026 279.3161"
         y="-402.07999"
         sodipodi:role="line"
         id="tspan11227">elapsedTime</tspan></text><text
       transform="scale(1,-1)"
       style="font-variant:normal;font-weight:normal;font-size:18.025px;font-family:AvenirNextLTPro;-inkscape-font-specification:AvenirNextLTPro;writing-mode:lr-tb;fill:#000000;fill-opacity:1;fill-rule:nonzero;stroke:none"
       id="text11241"
       x="203.64999"
       y="-364.95001"><tspan
         x="203.64999 214.14999 224.64999 235.14999 245.64999 256.14999 266.64999"
         y="-364.95001"
         sodipodi:role="line"
         id="tspan11239">158328,</tspan></text><path
       d="m 275.63,376.87 c 0,4.56 0.61,8.25 1.37,8.25 h 87.25 c 0.76,0 1.38,3.7 1.38,8.25 0,-4.55 0.61,-8.25 1.37,-8.25 h 87.25 c 0.76,0 1.38,-3.69 1.38,-8.25"
       style="fill:none;stroke:#00bac8;stroke-width:0.5;stroke-linecap:butt;stroke-linejoin:miter;stroke-miterlimit:10;stroke-dasharray:none;stroke-opacity:1"
       id="path11251" /><text
       transform="scale(1,-1)"
       style="font-variant:normal;font-weight:normal;font-size:18.025px;font-family:AvenirNextLTPro;-inkscape-font-specification:AvenirNextLTPro;writing-mode:lr-tb;fill:#00bac8;fill-opacity:1;fill-rule:nonzero;stroke:none"
       id="text11263"
       x="319.29999"
       y="-402.07999"><tspan
         x="319.29999 329.79056 334.29681 350.03262 360.52316 368.76059 374.7449 384.47839 400.23224"
         y="-402.07999"
         sodipodi:role="line"
         id="tspan11261">Timestamp</tspan></text><text
       transform="scale(1,-1)"
       style="font-variant:normal;font-weight:normal;font-size:18.025px;font-family:AvenirNextLTPro;-inkscape-font-specification:AvenirNextLTPro;writing-mode:lr-tb;fill:#000000;fill-opacity:1;fill-rule:nonzero;stroke:none"
       id="text11275"
       x="276.67001"
       y="-364.95001"><tspan
         x="276.67001 287.12451 293.90189 304.35638 311.13379 321.58829 332.1149 342.5694 353.09601 357.60226 368.05676 373.33807 383.79257 394.31918 399.56445 410.01895 420.54556 425.05182 437.77747 453.53131"
         y="-364.95001"
         sodipodi:role="line"
         id="tspan11273">9/7/2023 8:56:37 AM,</tspan></text><path
       d="m 464.63,374.62 c 0,5.8 0.78,10.51 1.75,10.51 l 167.5,-0.01 c 0.96,0 1.75,4.71 1.75,10.5 0,-5.79 0.78,-10.5 1.75,-10.5 h 167.5 c 0.96,0 1.75,-4.7 1.75,-10.5"
       style="fill:none;stroke:#00bac8;stroke-width:0.5;stroke-linecap:butt;stroke-linejoin:miter;stroke-miterlimit:10;stroke-dasharray:none;stroke-opacity:1"
       id="path11285" /><text
       transform="scale(1,-1)"
       style="font-variant:normal;font-weight:normal;font-size:18.025px;font-family:AvenirNextLTPro;-inkscape-font-specification:AvenirNextLTPro;writing-mode:lr-tb;fill:#00bac8;fill-opacity:1;fill-rule:nonzero;stroke:none"
       id="text11297"
       x="595.75"
       y="-402.07999"><tspan
         x="595.75 606.25854 616.76715 625.02258 633.27808 637.7843 649.06793 659.54047 664.11884"
         y="-402.07999"
         sodipodi:role="line"
         id="tspan11295">SessionId</tspan></text><text
       transform="scale(1,-1)"
       style="font-variant:normal;font-weight:normal;font-size:18.025px;font-family:AvenirNextLTPro;-inkscape-font-specification:AvenirNextLTPro;writing-mode:lr-tb;fill:#000000;fill-opacity:1;fill-rule:nonzero;stroke:none"
       id="text11309"
       x="464.14999"
       y="-364.95001"><tspan
         x="464.14999 469.46738 474.69461 485.20319 494.2157 504.74231 515.25085 525.75946"
         y="-364.95001"
         sodipodi:role="line"
         id="tspan11307">ff4c3532</tspan></text><text
       transform="scale(1,-1)"
       style="font-variant:normal;font-weight:normal;font-size:18.025px;font-family:AvenirNextLTPro;-inkscape-font-specification:AvenirNextLTPro;writing-mode:lr-tb;fill:#000000;fill-opacity:1;fill-rule:nonzero;stroke:none"
       id="text11321"
       x="536.21997"
       y="-364.95001"><tspan
         x="536.21997"
         y="-364.95001"
         id="tspan11319">-</tspan></text><text
       transform="scale(1,-1)"
       style="font-variant:normal;font-weight:normal;font-size:18.025px;font-family:AvenirNextLTPro;-inkscape-font-specification:AvenirNextLTPro;writing-mode:lr-tb;fill:#000000;fill-opacity:1;fill-rule:nonzero;stroke:none"
       id="text11333"
       x="542.21997"
       y="-364.95001"><tspan
         x="542.21997 552.71997 563.21997 573.71997"
         y="-364.95001"
         sodipodi:role="line"
         id="tspan11331">5924</tspan></text><text
       transform="scale(1,-1)"
       style="font-variant:normal;font-weight:normal;font-size:18.025px;font-family:AvenirNextLTPro;-inkscape-font-specification:AvenirNextLTPro;writing-mode:lr-tb;fill:#000000;fill-opacity:1;fill-rule:nonzero;stroke:none"
       id="text11345"
       x="584.25"
       y="-364.95001"><tspan
         x="584.25"
         y="-364.95001"
         id="tspan11343">-</tspan></text><text
       transform="scale(1,-1)"
       style="font-variant:normal;font-weight:normal;font-size:18.025px;font-family:AvenirNextLTPro;-inkscape-font-specification:AvenirNextLTPro;writing-mode:lr-tb;fill:#000000;fill-opacity:1;fill-rule:nonzero;stroke:none"
       id="text11357"
       x="590.25"
       y="-364.95001"><tspan
         x="590.25 600.75854 611.26715 622.55078"
         y="-364.95001"
         sodipodi:role="line"
         id="tspan11355">45b6</tspan></text><text
       transform="scale(1,-1)"
       style="font-variant:normal;font-weight:normal;font-size:18.025px;font-family:AvenirNextLTPro;-inkscape-font-specification:AvenirNextLTPro;writing-mode:lr-tb;fill:#000000;fill-opacity:1;fill-rule:nonzero;stroke:none"
       id="text11369"
       x="633.04999"
       y="-364.95001"><tspan
         x="633.04999"
         y="-364.95001"
         id="tspan11367">-</tspan></text><text
       transform="scale(1,-1)"
       style="font-variant:normal;font-weight:normal;font-size:18.025px;font-family:AvenirNextLTPro;-inkscape-font-specification:AvenirNextLTPro;writing-mode:lr-tb;fill:#000000;fill-opacity:1;fill-rule:nonzero;stroke:none"
       id="text11381"
       x="639.04999"
       y="-364.95001"><tspan
         x="639.04999 649.50452 659.27405 669.72858"
         y="-364.95001"
         sodipodi:role="line"
         id="tspan11379">9a6a</tspan></text><text
       transform="scale(1,-1)"
       style="font-variant:normal;font-weight:normal;font-size:18.025px;font-family:AvenirNextLTPro;-inkscape-font-specification:AvenirNextLTPro;writing-mode:lr-tb;fill:#000000;fill-opacity:1;fill-rule:nonzero;stroke:none"
       id="text11393"
       x="679.57001"
       y="-364.95001"><tspan
         x="679.57001"
         y="-364.95001"
         id="tspan11391">-</tspan></text><text
       transform="scale(1,-1)"
       style="font-variant:normal;font-weight:normal;font-size:18.025px;font-family:AvenirNextLTPro;-inkscape-font-specification:AvenirNextLTPro;writing-mode:lr-tb;fill:#000000;fill-opacity:1;fill-rule:nonzero;stroke:none"
       id="text11405"
       x="685.58002"
       y="-364.95001"><tspan
         x="685.58002 696.86365 707.31818 718.63788 729.09235 739.61896 750.07343 760.60004 771.88373 782.3382 792.86481 798.11011 808.56458"
         y="-364.95001"
         sodipodi:role="line"
         id="tspan11403">d0d3274b6ef0,</tspan></text><path
       d="m 266.63,244.87 c 0,4.15 0.55,7.51 1.25,7.51 l 38,-0.01 c 0.69,0 1.25,3.36 1.25,7.5 0,-4.14 0.55,-7.5 1.25,-7.5 h 38 c 0.69,0 1.25,-3.35 1.25,-7.5"
       style="fill:none;stroke:#00bac8;stroke-width:0.5;stroke-linecap:butt;stroke-linejoin:miter;stroke-miterlimit:10;stroke-dasharray:none;stroke-opacity:1"
       id="path11415" /><text
       transform="scale(1,-1)"
       style="font-variant:normal;font-weight:normal;font-size:18.025px;font-family:AvenirNextLTPro;-inkscape-font-specification:AvenirNextLTPro;writing-mode:lr-tb;fill:#00bac8;fill-opacity:1;fill-rule:nonzero;stroke:none"
       id="text11427"
       x="260.45001"
       y="-265.13"><tspan
         x="260.45001 271.6976 282.17014 286.71243 294.93182 305.42236 318.94113 328.67462 344.4465"
         y="-265.13"
         sodipodi:role="line"
         id="tspan11425">pulseName</tspan></text><text
       transform="scale(1,-1)"
       style="font-variant:normal;font-weight:normal;font-size:18.025px;font-family:AvenirNextLTPro;-inkscape-font-specification:AvenirNextLTPro;writing-mode:lr-tb;fill:#000000;fill-opacity:1;fill-rule:nonzero;stroke:none"
       id="text11439"
       x="265.89999"
       y="-230.5"><tspan
         x="265.89999 277.14761 287.62012 292.16241 300.38184 310.87238 319.88489 325.13016 334.86365 343.10107"
         y="-230.5"
         sodipodi:role="line"
         id="tspan11437">pulse_fast</tspan></text><text
       transform="scale(1,-1)"
       style="font-variant:normal;font-weight:normal;font-size:18.025px;font-family:AvenirNextLTPro;-inkscape-font-specification:AvenirNextLTPro;writing-mode:lr-tb;fill:#000000;fill-opacity:1;fill-rule:nonzero;stroke:none"
       id="text11451"
       x="349.20001"
       y="-230.5"><tspan
         x="349.20001"
         y="-230.5"
         id="tspan11449">,</tspan></text><path
       d="m 361.13,244.12 c 0,4.35 0.58,7.88 1.31,7.88 h 165 c 0.72,0 1.31,3.53 1.31,7.87 0,-4.34 0.59,-7.87 1.31,-7.87 h 165 c 0.73,0 1.32,-3.53 1.32,-7.88"
       style="fill:none;stroke:#00bac8;stroke-width:0.5;stroke-linecap:butt;stroke-linejoin:miter;stroke-miterlimit:10;stroke-dasharray:none;stroke-opacity:1"
       id="path11461" /><text
       transform="scale(1,-1)"
       style="font-variant:normal;font-weight:normal;font-size:18.025px;font-family:AvenirNextLTPro;-inkscape-font-specification:AvenirNextLTPro;writing-mode:lr-tb;fill:#00bac8;fill-opacity:1;fill-rule:nonzero;stroke:none"
       id="text11473"
       x="491.79999"
       y="-265.13"><tspan
         x="491.79999 503.04761 512.78113 518.76538 523.27167 533.7442 544.21667 550.21906 554.72528"
         y="-265.13"
         sodipodi:role="line"
         id="tspan11471">patientId</tspan></text><text
       transform="scale(1,-1)"
       style="font-variant:normal;font-weight:normal;font-size:18.025px;font-family:AvenirNextLTPro;-inkscape-font-specification:AvenirNextLTPro;writing-mode:lr-tb;fill:#000000;fill-opacity:1;fill-rule:nonzero;stroke:none"
       id="text11485"
       x="361.5"
       y="-230.5"><tspan
         x="361.5 366.00626 376.47876 382.48111 392.97165 397.51395 401.96613 406.47238 417.71997 428.21051 438.68304 447.69556 458.1861 461.9353 476.9321 482.17737 487.42267 491.92889 500.94141 511.3959 518.11926 521.86841 533.11603 543.58856 550.3479 560.82043 571.32904 582.57666 591.58911 605.81085 615.54437 622.2677 631.24414 640.25659 650.71112 654.49634 665.00494 676.2345 687.46411 693.44836"
         y="-230.5"
         sodipodi:role="line"
         id="tspan11483">Intelligence Officer Burned_Gary_1 Root,</tspan></text></g></svg>
