<?xml version="1.0" encoding="UTF-8" standalone="no"?>
<svg
   xmlns:dc="http://purl.org/dc/elements/1.1/"
   xmlns:cc="http://creativecommons.org/ns#"
   xmlns:rdf="http://www.w3.org/1999/02/22-rdf-syntax-ns#"
   xmlns:svg="http://www.w3.org/2000/svg"
   xmlns="http://www.w3.org/2000/svg"
   xmlns:sodipodi="http://sodipodi.sourceforge.net/DTD/sodipodi-0.dtd"
   xmlns:inkscape="http://www.inkscape.org/namespaces/inkscape"
   version="1.1"
   id="svg9013"
   xml:space="preserve"
   width="1280"
   height="720"
   viewBox="0 0 1280 720"
   sodipodi:docname="frvrs_data_and_analysis_presentation_for_itm_slide010.svg"
   inkscape:version="1.0.2-2 (e86c870879, 2021-01-15)"
   inkscape:export-filename="C:\Users\DaveBabbitt\Documents\GitHub\itm-analysis-reporting\saves\png\frvrs_data_and_analysis_presentation_for_itm\slide010.png"
   inkscape:export-xdpi="96"
   inkscape:export-ydpi="96"><metadata
     id="metadata9019"><rdf:RDF><cc:Work
         rdf:about=""><dc:format>image/svg+xml</dc:format><dc:type
           rdf:resource="http://purl.org/dc/dcmitype/StillImage" /><dc:title></dc:title></cc:Work></rdf:RDF></metadata><defs
     id="defs9017"><clipPath
       clipPathUnits="userSpaceOnUse"
       id="clipPath9029"><path
         d="M 0,1.2207e-4 H 960 V 540.00012 H 0 Z"
         clip-rule="evenodd"
         id="path9027" /></clipPath><clipPath
       clipPathUnits="userSpaceOnUse"
       id="clipPath9039"><path
         d="M 0,1.2207e-4 H 960 V 540.00012 H 0 Z"
         clip-rule="evenodd"
         id="path9037" /></clipPath><linearGradient
       x1="73.199997"
       y1="486.12"
       x2="863.20001"
       y2="486.12"
       gradientUnits="userSpaceOnUse"
       spreadMethod="pad"
       id="linearGradient9049"><stop
         style="stop-opacity:1;stop-color:#00bac8"
         offset="0"
         id="stop9045" /><stop
         style="stop-opacity:1;stop-color:#203040"
         offset="1"
         id="stop9047" /></linearGradient><clipPath
       clipPathUnits="userSpaceOnUse"
       id="clipPath9059"><path
         d="m 75,468 h 786 v 33.75 H 75 Z"
         clip-rule="evenodd"
         id="path9057" /></clipPath><linearGradient
       x1="73.199997"
       y1="453.48001"
       x2="155.7"
       y2="453.48001"
       gradientUnits="userSpaceOnUse"
       spreadMethod="pad"
       id="linearGradient9071"><stop
         style="stop-opacity:1;stop-color:#00bac8"
         offset="0"
         id="stop9067" /><stop
         style="stop-opacity:1;stop-color:#203040"
         offset="1"
         id="stop9069" /></linearGradient><clipPath
       clipPathUnits="userSpaceOnUse"
       id="clipPath9081"><path
         d="m 75,435.75 h 80.25 V 466.5 H 75 Z"
         clip-rule="evenodd"
         id="path9079" /></clipPath><clipPath
       clipPathUnits="userSpaceOnUse"
       id="clipPath9093"><path
         d="M 4.5776e-5,540 H 960 V 1.8311e-4 L 6.1035e-5,1.2207e-4"
         clip-rule="evenodd"
         id="path9091" /></clipPath><clipPath
       clipPathUnits="userSpaceOnUse"
       id="clipPath9103"><path
         d="M 1.4305e-5,0 H 960.00001 V 540 H 1.4305e-5 Z"
         clip-rule="evenodd"
         id="path9101" /></clipPath><clipPath
       clipPathUnits="userSpaceOnUse"
       id="clipPath9115"><path
         d="M 1.4305e-5,0 H 960.00001 V 540 H 1.4305e-5 Z"
         clip-rule="evenodd"
         id="path9113" /></clipPath><clipPath
       clipPathUnits="userSpaceOnUse"
       id="clipPath9127"><path
         d="M 9.1553e-5,540 H 960 V 1.8311e-4 H 1.2207e-4"
         clip-rule="evenodd"
         id="path9125" /></clipPath><clipPath
       clipPathUnits="userSpaceOnUse"
       id="clipPath9137"><path
         d="M 1.4305e-5,0 H 960.00001 V 540 H 1.4305e-5 Z"
         clip-rule="evenodd"
         id="path9135" /></clipPath><clipPath
       clipPathUnits="userSpaceOnUse"
       id="clipPath9149"><path
         d="M 1.4305e-5,0 H 960.00001 V 540 H 1.4305e-5 Z"
         clip-rule="evenodd"
         id="path9147" /></clipPath><clipPath
       clipPathUnits="userSpaceOnUse"
       id="clipPath9161"><path
         d="M 1.8311e-4,540 H 960 V 1.8311e-4 L 2.4414e-4,1.2207e-4"
         clip-rule="evenodd"
         id="path9159" /></clipPath><clipPath
       clipPathUnits="userSpaceOnUse"
       id="clipPath9171"><path
         d="M 1.4305e-5,0 H 960.00001 V 540 H 1.4305e-5 Z"
         clip-rule="evenodd"
         id="path9169" /></clipPath><clipPath
       clipPathUnits="userSpaceOnUse"
       id="clipPath9183"><path
         d="M 1.4305e-5,0 H 960.00001 V 540 H 1.4305e-5 Z"
         clip-rule="evenodd"
         id="path9181" /></clipPath><clipPath
       clipPathUnits="userSpaceOnUse"
       id="clipPath9195"><path
         d="M 3.0518e-5,540 H 960 V 2.4414e-4 L 6.1035e-5,1.8311e-4"
         clip-rule="evenodd"
         id="path9193" /></clipPath><clipPath
       clipPathUnits="userSpaceOnUse"
       id="clipPath9205"><path
         d="M 1.4305e-5,0 H 960.00001 V 540 H 1.4305e-5 Z"
         clip-rule="evenodd"
         id="path9203" /></clipPath><clipPath
       clipPathUnits="userSpaceOnUse"
       id="clipPath9217"><path
         d="M 1.4305e-5,0 H 960.00001 V 540 H 1.4305e-5 Z"
         clip-rule="evenodd"
         id="path9215" /></clipPath><clipPath
       clipPathUnits="userSpaceOnUse"
       id="clipPath9229"><path
         d="M 1.2207e-4,540 H 960 V 2.4414e-4 L 1.8311e-4,1.8311e-4"
         clip-rule="evenodd"
         id="path9227" /></clipPath><clipPath
       clipPathUnits="userSpaceOnUse"
       id="clipPath9239"><path
         d="M 1.4305e-5,0 H 960.00001 V 540 H 1.4305e-5 Z"
         clip-rule="evenodd"
         id="path9237" /></clipPath><clipPath
       clipPathUnits="userSpaceOnUse"
       id="clipPath9251"><path
         d="M 1.4305e-5,0 H 960.00001 V 540 H 1.4305e-5 Z"
         clip-rule="evenodd"
         id="path9249" /></clipPath><clipPath
       clipPathUnits="userSpaceOnUse"
       id="clipPath9263"><path
         d="M 1.4305e-5,0 H 960.00001 V 540 H 1.4305e-5 Z"
         clip-rule="evenodd"
         id="path9261" /></clipPath><clipPath
       clipPathUnits="userSpaceOnUse"
       id="clipPath9275"><path
         d="M 1.4305e-5,0 H 960.00001 V 540 H 1.4305e-5 Z"
         clip-rule="evenodd"
         id="path9273" /></clipPath><clipPath
       clipPathUnits="userSpaceOnUse"
       id="clipPath9287"><path
         d="M 1.4305e-5,0 H 960.00001 V 540 H 1.4305e-5 Z"
         clip-rule="evenodd"
         id="path9285" /></clipPath><clipPath
       clipPathUnits="userSpaceOnUse"
       id="clipPath9299"><path
         d="M 1.4305e-5,0 H 960.00001 V 540 H 1.4305e-5 Z"
         clip-rule="evenodd"
         id="path9297" /></clipPath><clipPath
       clipPathUnits="userSpaceOnUse"
       id="clipPath9311"><path
         d="M 1.4305e-5,0 H 960.00001 V 540 H 1.4305e-5 Z"
         clip-rule="evenodd"
         id="path9309" /></clipPath><clipPath
       clipPathUnits="userSpaceOnUse"
       id="clipPath9323"><path
         d="M 1.4305e-5,0 H 960.00001 V 540 H 1.4305e-5 Z"
         clip-rule="evenodd"
         id="path9321" /></clipPath><clipPath
       clipPathUnits="userSpaceOnUse"
       id="clipPath9335"><path
         d="M 1.4305e-5,0 H 960.00001 V 540 H 1.4305e-5 Z"
         clip-rule="evenodd"
         id="path9333" /></clipPath><clipPath
       clipPathUnits="userSpaceOnUse"
       id="clipPath9347"><path
         d="M 1.4305e-5,0 H 960.00001 V 540 H 1.4305e-5 Z"
         clip-rule="evenodd"
         id="path9345" /></clipPath><clipPath
       clipPathUnits="userSpaceOnUse"
       id="clipPath9359"><path
         d="M 3.0518e-5,540 H 960 V 1.8311e-4 L 4.5776e-5,1.2207e-4"
         clip-rule="evenodd"
         id="path9357" /></clipPath><clipPath
       clipPathUnits="userSpaceOnUse"
       id="clipPath9369"><path
         d="M 1.4305e-5,0 H 960.00001 V 540 H 1.4305e-5 Z"
         clip-rule="evenodd"
         id="path9367" /></clipPath><clipPath
       clipPathUnits="userSpaceOnUse"
       id="clipPath9381"><path
         d="M 1.4305e-5,0 H 960.00001 V 540 H 1.4305e-5 Z"
         clip-rule="evenodd"
         id="path9379" /></clipPath><clipPath
       clipPathUnits="userSpaceOnUse"
       id="clipPath9393"><path
         d="M 3.0518e-5,540 H 960 V 1.8311e-4 H 6.1035e-5"
         clip-rule="evenodd"
         id="path9391" /></clipPath><clipPath
       clipPathUnits="userSpaceOnUse"
       id="clipPath9403"><path
         d="M 1.4305e-5,0 H 960.00001 V 540 H 1.4305e-5 Z"
         clip-rule="evenodd"
         id="path9401" /></clipPath><clipPath
       clipPathUnits="userSpaceOnUse"
       id="clipPath9415"><path
         d="M 1.4305e-5,0 H 960.00001 V 540 H 1.4305e-5 Z"
         clip-rule="evenodd"
         id="path9413" /></clipPath><clipPath
       clipPathUnits="userSpaceOnUse"
       id="clipPath9427"><path
         d="M 6.1035e-5,540 H 960 V 1.8311e-4 L 1.2207e-4,1.2207e-4"
         clip-rule="evenodd"
         id="path9425" /></clipPath><clipPath
       clipPathUnits="userSpaceOnUse"
       id="clipPath9437"><path
         d="M 1.4305e-5,0 H 960.00001 V 540 H 1.4305e-5 Z"
         clip-rule="evenodd"
         id="path9435" /></clipPath><clipPath
       clipPathUnits="userSpaceOnUse"
       id="clipPath9449"><path
         d="M 1.4305e-5,0 H 960.00001 V 540 H 1.4305e-5 Z"
         clip-rule="evenodd"
         id="path9447" /></clipPath><clipPath
       clipPathUnits="userSpaceOnUse"
       id="clipPath9461"><path
         d="M 0,540 H 960 V 1.8311e-4 H 6.1035e-5"
         clip-rule="evenodd"
         id="path9459" /></clipPath><clipPath
       clipPathUnits="userSpaceOnUse"
       id="clipPath9471"><path
         d="M 1.4305e-5,0 H 960.00001 V 540 H 1.4305e-5 Z"
         clip-rule="evenodd"
         id="path9469" /></clipPath><clipPath
       clipPathUnits="userSpaceOnUse"
       id="clipPath9483"><path
         d="M 1.4305e-5,0 H 960.00001 V 540 H 1.4305e-5 Z"
         clip-rule="evenodd"
         id="path9481" /></clipPath><clipPath
       clipPathUnits="userSpaceOnUse"
       id="clipPath9495"><path
         d="M 1.2207e-4,540 H 960 V 1.8311e-4 L 1.8311e-4,1.2207e-4"
         clip-rule="evenodd"
         id="path9493" /></clipPath><clipPath
       clipPathUnits="userSpaceOnUse"
       id="clipPath9505"><path
         d="M 1.4305e-5,0 H 960.00001 V 540 H 1.4305e-5 Z"
         clip-rule="evenodd"
         id="path9503" /></clipPath><clipPath
       clipPathUnits="userSpaceOnUse"
       id="clipPath9517"><path
         d="M 1.4305e-5,0 H 960.00001 V 540 H 1.4305e-5 Z"
         clip-rule="evenodd"
         id="path9515" /></clipPath><clipPath
       clipPathUnits="userSpaceOnUse"
       id="clipPath9529"><path
         d="M 1.4305e-5,0 H 960.00001 V 540 H 1.4305e-5 Z"
         clip-rule="evenodd"
         id="path9527" /></clipPath><clipPath
       clipPathUnits="userSpaceOnUse"
       id="clipPath9541"><path
         d="M 1.4305e-5,0 H 960.00001 V 540 H 1.4305e-5 Z"
         clip-rule="evenodd"
         id="path9539" /></clipPath><clipPath
       clipPathUnits="userSpaceOnUse"
       id="clipPath9553"><path
         d="M 3.0518e-5,540 H 960 V 1.2207e-4 H 6.1035e-5"
         clip-rule="evenodd"
         id="path9551" /></clipPath><clipPath
       clipPathUnits="userSpaceOnUse"
       id="clipPath9563"><path
         d="M 1.4305e-5,0 H 960.00001 V 540 H 1.4305e-5 Z"
         clip-rule="evenodd"
         id="path9561" /></clipPath><clipPath
       clipPathUnits="userSpaceOnUse"
       id="clipPath9575"><path
         d="M 1.4305e-5,0 H 960.00001 V 540 H 1.4305e-5 Z"
         clip-rule="evenodd"
         id="path9573" /></clipPath><clipPath
       clipPathUnits="userSpaceOnUse"
       id="clipPath9587"><path
         d="M 6.1035e-5,540 H 960 V 1.2207e-4 H 9.1553e-5"
         clip-rule="evenodd"
         id="path9585" /></clipPath><clipPath
       clipPathUnits="userSpaceOnUse"
       id="clipPath9597"><path
         d="M 1.4305e-5,0 H 960.00001 V 540 H 1.4305e-5 Z"
         clip-rule="evenodd"
         id="path9595" /></clipPath><clipPath
       clipPathUnits="userSpaceOnUse"
       id="clipPath9609"><path
         d="M 1.4305e-5,0 H 960.00001 V 540 H 1.4305e-5 Z"
         clip-rule="evenodd"
         id="path9607" /></clipPath><clipPath
       clipPathUnits="userSpaceOnUse"
       id="clipPath9621"><path
         d="M 0,540 H 960 V 1.2207e-4 H 6.1035e-5"
         clip-rule="evenodd"
         id="path9619" /></clipPath><clipPath
       clipPathUnits="userSpaceOnUse"
       id="clipPath9631"><path
         d="M 1.4305e-5,0 H 960.00001 V 540 H 1.4305e-5 Z"
         clip-rule="evenodd"
         id="path9629" /></clipPath><clipPath
       clipPathUnits="userSpaceOnUse"
       id="clipPath9643"><path
         d="M 1.4305e-5,0 H 960.00001 V 540 H 1.4305e-5 Z"
         clip-rule="evenodd"
         id="path9641" /></clipPath><clipPath
       clipPathUnits="userSpaceOnUse"
       id="clipPath9655"><path
         d="M 3.0518e-5,540 H 960 V 1.8311e-4 H 6.1035e-5"
         clip-rule="evenodd"
         id="path9653" /></clipPath><clipPath
       clipPathUnits="userSpaceOnUse"
       id="clipPath9665"><path
         d="M 1.4305e-5,0 H 960.00001 V 540 H 1.4305e-5 Z"
         clip-rule="evenodd"
         id="path9663" /></clipPath><clipPath
       clipPathUnits="userSpaceOnUse"
       id="clipPath9677"><path
         d="M 1.4305e-5,0 H 960.00001 V 540 H 1.4305e-5 Z"
         clip-rule="evenodd"
         id="path9675" /></clipPath><clipPath
       clipPathUnits="userSpaceOnUse"
       id="clipPath9689"><path
         d="M 0,540 H 960 V 1.2207e-4 H 6.1035e-5"
         clip-rule="evenodd"
         id="path9687" /></clipPath><clipPath
       clipPathUnits="userSpaceOnUse"
       id="clipPath9699"><path
         d="M 1.4305e-5,0 H 960.00001 V 540 H 1.4305e-5 Z"
         clip-rule="evenodd"
         id="path9697" /></clipPath><clipPath
       clipPathUnits="userSpaceOnUse"
       id="clipPath9711"><path
         d="M 1.4305e-5,0 H 960.00001 V 540 H 1.4305e-5 Z"
         clip-rule="evenodd"
         id="path9709" /></clipPath><clipPath
       clipPathUnits="userSpaceOnUse"
       id="clipPath9723"><path
         d="M 6.1035e-5,540 H 960 V 1.2207e-4 H 1.2207e-4"
         clip-rule="evenodd"
         id="path9721" /></clipPath><clipPath
       clipPathUnits="userSpaceOnUse"
       id="clipPath9733"><path
         d="M 1.4305e-5,0 H 960.00001 V 540 H 1.4305e-5 Z"
         clip-rule="evenodd"
         id="path9731" /></clipPath><clipPath
       clipPathUnits="userSpaceOnUse"
       id="clipPath9745"><path
         d="M 1.4305e-5,0 H 960.00001 V 540 H 1.4305e-5 Z"
         clip-rule="evenodd"
         id="path9743" /></clipPath><clipPath
       clipPathUnits="userSpaceOnUse"
       id="clipPath9757"><path
         d="M 1.2207e-4,540 H 960 V 1.2207e-4 H 1.8311e-4"
         clip-rule="evenodd"
         id="path9755" /></clipPath><clipPath
       clipPathUnits="userSpaceOnUse"
       id="clipPath9767"><path
         d="M 1.4305e-5,0 H 960.00001 V 540 H 1.4305e-5 Z"
         clip-rule="evenodd"
         id="path9765" /></clipPath><clipPath
       clipPathUnits="userSpaceOnUse"
       id="clipPath9779"><path
         d="M 1.4305e-5,0 H 960.00001 V 540 H 1.4305e-5 Z"
         clip-rule="evenodd"
         id="path9777" /></clipPath></defs><sodipodi:namedview
     pagecolor="#ffffff"
     bordercolor="#666666"
     borderopacity="1"
     objecttolerance="10"
     gridtolerance="10"
     guidetolerance="10"
     inkscape:pageopacity="0"
     inkscape:pageshadow="2"
     inkscape:window-width="1920"
     inkscape:window-height="1121"
     id="namedview9015"
     showgrid="false"
     inkscape:zoom="0.99765625"
     inkscape:cx="640"
     inkscape:cy="360"
     inkscape:window-x="-9"
     inkscape:window-y="611"
     inkscape:window-maximized="1"
     inkscape:current-layer="g9021" /><g
     id="g9021"
     inkscape:groupmode="layer"
     inkscape:label="FRVRS - Data and Analysis Presentation for ITM"
     transform="matrix(1.3333333,0,0,-1.3333333,0,720)"><path
       d="M 0,6.1035e-5 H 960 V 540.00006 H 0 Z"
       style="fill:#ffffff;fill-opacity:1;fill-rule:evenodd;stroke:none"
       id="path9031" /><path
       d="M 0,6.1035e-5 H 960 V 540.00006 H 0 Z"
       style="fill:#ffffff;fill-opacity:1;fill-rule:evenodd;stroke:none"
       id="path9041" /><path
       d="m 696.3,487.5 c -1.07,0 -1.95,-0.4 -2.64,-1.21 -0.56,-0.65 -0.84,-1.4 -0.84,-2.25 0,-0.84 0.28,-1.59 0.84,-2.24 0.68,-0.81 1.56,-1.22 2.64,-1.22 0.97,0 1.8,0.34 2.47,1 0.67,0.67 1.01,1.49 1.01,2.46 0,0.97 -0.34,1.78 -1.02,2.46 -0.68,0.67 -1.5,1 -2.46,1 z m -39,0 c -1.07,0 -1.95,-0.4 -2.64,-1.21 -0.56,-0.65 -0.84,-1.4 -0.84,-2.25 0,-0.84 0.28,-1.59 0.84,-2.24 0.68,-0.81 1.56,-1.22 2.64,-1.22 0.97,0 1.8,0.34 2.47,1 0.67,0.67 1.01,1.49 1.01,2.46 0,0.97 -0.34,1.78 -1.02,2.46 -0.68,0.67 -1.5,1 -2.46,1 z m -136.5,0 c -1.07,0 -1.95,-0.4 -2.64,-1.21 -0.56,-0.65 -0.84,-1.4 -0.84,-2.25 0,-0.84 0.28,-1.59 0.84,-2.24 0.68,-0.81 1.56,-1.22 2.64,-1.22 0.97,0 1.8,0.34 2.47,1 0.67,0.67 1.01,1.49 1.01,2.46 0,0.97 -0.34,1.78 -1.02,2.46 -0.68,0.67 -1.5,1 -2.46,1 z m -258,0 c -1.07,0 -1.95,-0.4 -2.64,-1.21 -0.56,-0.65 -0.84,-1.4 -0.84,-2.25 0,-0.84 0.28,-1.59 0.84,-2.24 0.68,-0.81 1.56,-1.22 2.64,-1.22 0.97,0 1.8,0.34 2.47,1 0.67,0.67 1.01,1.49 1.01,2.46 0,0.97 -0.34,1.78 -1.02,2.46 -0.68,0.67 -1.5,1 -2.46,1 z m -159,0 c -1.07,0 -1.95,-0.4 -2.64,-1.21 -0.56,-0.65 -0.84,-1.4 -0.84,-2.25 0,-0.84 0.28,-1.59 0.84,-2.24 0.68,-0.81 1.56,-1.22 2.64,-1.22 0.97,0 1.8,0.34 2.47,1 0.67,0.67 1.01,1.49 1.01,2.46 0,0.97 -0.34,1.78 -1.02,2.46 -0.68,0.67 -1.5,1 -2.46,1 z m 613.73,0.02 c -0.96,0 -1.78,-0.34 -2.46,-1.01 -0.68,-0.68 -1.02,-1.51 -1.02,-2.47 0,-0.97 0.34,-1.8 1.02,-2.47 0.68,-0.68 1.5,-1.02 2.46,-1.02 1.08,0 1.96,0.41 2.64,1.22 0.56,0.67 0.84,1.43 0.84,2.27 0,0.84 -0.28,1.6 -0.84,2.26 -0.69,0.81 -1.57,1.22 -2.64,1.22 z m 113.87,0.08 c -1.12,0 -2.03,-0.42 -2.73,-1.25 -0.56,-0.68 -0.85,-1.44 -0.85,-2.31 0,-0.87 0.29,-1.64 0.85,-2.31 0.7,-0.84 1.61,-1.26 2.73,-1.26 0.99,0 1.84,0.34 2.52,1.03 0.69,0.69 1.04,1.54 1.04,2.54 0,1 -0.35,1.84 -1.04,2.53 -0.7,0.69 -1.54,1.03 -2.52,1.03 z m -269.25,0 c -1.12,0 -2.03,-0.42 -2.73,-1.25 -0.56,-0.68 -0.85,-1.44 -0.85,-2.31 0,-0.87 0.29,-1.64 0.85,-2.31 0.7,-0.84 1.61,-1.26 2.73,-1.26 0.99,0 1.84,0.34 2.52,1.03 0.69,0.69 1.04,1.54 1.04,2.54 0,1 -0.35,1.84 -1.04,2.53 -0.7,0.69 -1.54,1.03 -2.52,1.03 z m -105.75,0 c -1.12,0 -2.03,-0.42 -2.73,-1.25 -0.56,-0.68 -0.85,-1.44 -0.85,-2.31 0,-0.87 0.29,-1.64 0.85,-2.31 0.7,-0.84 1.61,-1.26 2.73,-1.26 0.99,0 1.84,0.34 2.52,1.03 0.69,0.69 1.04,1.54 1.04,2.54 0,1 -0.35,1.84 -1.04,2.53 -0.7,0.69 -1.54,1.03 -2.52,1.03 z m 395.9,0.07 c -1.08,0 -1.97,-0.42 -2.66,-1.25 -0.54,-0.67 -0.82,-1.45 -0.82,-2.33 0,-0.97 0.34,-1.81 1.01,-2.51 0.67,-0.7 1.5,-1.05 2.47,-1.05 0.96,0 1.78,0.35 2.45,1.05 0.67,0.7 1.01,1.54 1.01,2.51 0,0.98 -0.33,1.82 -1,2.52 -0.67,0.71 -1.49,1.06 -2.46,1.06 z m -568.5,0 c -1.08,0 -1.97,-0.42 -2.66,-1.25 -0.54,-0.67 -0.82,-1.45 -0.82,-2.33 0,-0.97 0.34,-1.81 1.01,-2.51 0.67,-0.7 1.5,-1.05 2.47,-1.05 0.96,0 1.78,0.35 2.45,1.05 0.67,0.7 1.01,1.54 1.01,2.51 0,0.98 -0.33,1.82 -1,2.52 -0.67,0.71 -1.49,1.06 -2.46,1.06 z m -42,0 c -1.08,0 -1.97,-0.42 -2.66,-1.25 -0.54,-0.67 -0.82,-1.45 -0.82,-2.33 0,-0.97 0.34,-1.81 1.01,-2.51 0.67,-0.7 1.5,-1.05 2.47,-1.05 0.96,0 1.78,0.35 2.45,1.05 0.67,0.7 1.01,1.54 1.01,2.51 0,0.98 -0.33,1.82 -1,2.52 -0.67,0.71 -1.49,1.06 -2.46,1.06 z m 505.1,1.04 c -0.91,0 -1.66,-0.28 -2.23,-0.83 -0.44,-0.43 -0.73,-1.02 -0.85,-1.76 h 6.15 c -0.38,1.73 -1.41,2.59 -3.07,2.59 z m -393.75,0 c -0.91,0 -1.66,-0.28 -2.23,-0.83 -0.44,-0.43 -0.73,-1.02 -0.85,-1.76 h 6.15 c -0.38,1.73 -1.41,2.59 -3.07,2.59 z m -48.75,0 c -0.91,0 -1.66,-0.28 -2.23,-0.83 -0.44,-0.43 -0.73,-1.02 -0.85,-1.76 h 6.15 c -0.38,1.73 -1.41,2.59 -3.07,2.59 z m -159.75,0 c -0.91,0 -1.66,-0.28 -2.23,-0.83 -0.44,-0.43 -0.73,-1.02 -0.85,-1.76 h 6.15 c -0.38,1.73 -1.41,2.59 -3.07,2.59 z m 624.13,2.98 h 5.42 V 476.4 h -5.42 z m -99,0 h 5.42 V 476.4 h -5.42 z m -42.33,0 h 6.08 l 3.66,-7.84 3.67,7.84 h 6.05 l -7.96,-15.29 h -3.61 z m -82.92,0 h 5.42 V 476.4 h -5.42 z m -417,0 h 5.42 V 476.4 h -5.42 z m 351.68,0.21 c 0.29,0 0.64,-0.01 1.06,-0.04 v -5.15 c -0.76,0.37 -1.53,0.55 -2.31,0.55 -1.77,0 -2.92,-0.73 -3.45,-2.19 -0.19,-0.53 -0.29,-1.24 -0.29,-2.13 v -6.54 h -5.42 v 15.29 h 5.42 v -2.5 c 0.57,0.89 1.18,1.53 1.84,1.92 0.89,0.53 1.94,0.79 3.15,0.79 z m 136.27,0.04 -2.46,-7.17 h 4.88 z m -111.71,0.01 c 1.14,0 2.16,-0.27 3.05,-0.82 0.96,-0.6 1.59,-1.42 1.88,-2.46 0.18,-0.62 0.27,-1.4 0.27,-2.34 v -9.93 h -5.42 v 7.55 c 0,1.32 -0.14,2.22 -0.42,2.7 -0.4,0.71 -1.01,1.07 -1.83,1.07 -0.9,0 -1.59,-0.39 -2.07,-1.17 -0.34,-0.55 -0.51,-1.41 -0.51,-2.6 v -7.55 h -5.42 v 7.55 c 0,1.32 -0.11,2.17 -0.33,2.57 -0.44,0.79 -1.12,1.18 -2.03,1.18 -0.85,0 -1.51,-0.34 -1.98,-1.02 -0.17,-0.24 -0.3,-0.57 -0.38,-0.99 -0.07,-0.43 -0.11,-1 -0.11,-1.74 v -7.55 h -5.42 v 15.29 h 5.42 v -1.88 c 0.64,0.62 1.22,1.07 1.75,1.35 0.95,0.52 2.02,0.78 3.2,0.78 1.51,0 2.76,-0.39 3.76,-1.17 0.51,-0.4 0.99,-0.96 1.46,-1.68 0.41,0.68 0.88,1.22 1.4,1.61 1.09,0.84 2.33,1.25 3.73,1.25 z m -167.25,0 c 1.14,0 2.16,-0.27 3.05,-0.82 0.96,-0.6 1.59,-1.42 1.88,-2.46 0.18,-0.62 0.27,-1.4 0.27,-2.34 v -9.93 h -5.42 v 7.55 c 0,1.32 -0.14,2.22 -0.42,2.7 -0.4,0.71 -1.01,1.07 -1.83,1.07 -0.9,0 -1.59,-0.39 -2.07,-1.17 -0.34,-0.55 -0.51,-1.41 -0.51,-2.6 v -7.55 h -5.42 v 7.55 c 0,1.32 -0.11,2.17 -0.33,2.57 -0.44,0.79 -1.12,1.18 -2.03,1.18 -0.85,0 -1.51,-0.34 -1.98,-1.02 -0.17,-0.24 -0.3,-0.57 -0.38,-0.99 -0.07,-0.43 -0.11,-1 -0.11,-1.74 v -7.55 h -5.42 v 15.29 h 5.42 v -1.88 c 0.64,0.62 1.22,1.07 1.75,1.35 0.95,0.52 2.02,0.78 3.2,0.78 1.51,0 2.76,-0.39 3.76,-1.17 0.51,-0.4 0.99,-0.96 1.46,-1.68 0.41,0.68 0.88,1.22 1.4,1.61 1.09,0.84 2.33,1.25 3.73,1.25 z m 451.63,0.07 c 1.65,0 2.99,-0.44 4.02,-1.33 1.17,-1.02 1.76,-2.53 1.76,-4.55 v -9.74 h -5.42 v 7.73 c 0,1.35 -0.16,2.25 -0.46,2.68 -0.45,0.65 -1.12,0.97 -2.02,0.97 -0.81,0 -1.5,-0.27 -2.06,-0.83 -0.5,-0.5 -0.75,-1.29 -0.75,-2.36 v -8.19 h -5.42 v 15.29 h 5.42 v -1.93 c 0.62,0.73 1.2,1.24 1.73,1.54 0.85,0.48 1.92,0.72 3.2,0.72 z m -203.25,0 c 1.65,0 2.99,-0.44 4.02,-1.33 1.17,-1.02 1.76,-2.53 1.76,-4.55 v -9.74 h -5.42 v 7.73 c 0,1.35 -0.16,2.25 -0.46,2.68 -0.45,0.65 -1.12,0.97 -2.02,0.97 -0.81,0 -1.5,-0.27 -2.06,-0.83 -0.5,-0.5 -0.75,-1.29 -0.75,-2.36 v -8.19 h -5.42 v 15.29 h 5.42 v -1.93 c 0.62,0.73 1.2,1.24 1.73,1.54 0.85,0.48 1.92,0.72 3.2,0.72 z m -158.25,0 c 1.65,0 2.99,-0.44 4.02,-1.33 1.17,-1.02 1.76,-2.53 1.76,-4.55 v -9.74 h -5.42 v 7.73 c 0,1.35 -0.16,2.25 -0.46,2.68 -0.45,0.65 -1.12,0.97 -2.02,0.97 -0.81,0 -1.5,-0.27 -2.06,-0.83 -0.5,-0.5 -0.75,-1.29 -0.75,-2.36 v -8.19 h -5.42 v 15.29 h 5.42 v -1.93 c 0.62,0.73 1.2,1.24 1.73,1.54 0.85,0.48 1.92,0.72 3.2,0.72 z m -51.75,0 c 1.65,0 2.99,-0.44 4.02,-1.33 1.17,-1.02 1.76,-2.53 1.76,-4.55 v -9.74 h -5.42 v 7.73 c 0,1.35 -0.16,2.25 -0.46,2.68 -0.45,0.65 -1.12,0.97 -2.02,0.97 -0.81,0 -1.5,-0.27 -2.06,-0.83 -0.5,-0.5 -0.75,-1.29 -0.75,-2.36 v -8.19 h -5.42 v 15.29 h 5.42 v -1.93 c 0.62,0.73 1.2,1.24 1.73,1.54 0.85,0.48 1.92,0.72 3.2,0.72 z m -150.75,0 c 1.65,0 2.99,-0.44 4.02,-1.33 1.17,-1.02 1.76,-2.53 1.76,-4.55 v -9.74 h -5.42 v 7.73 c 0,1.35 -0.16,2.25 -0.46,2.68 -0.45,0.65 -1.12,0.97 -2.02,0.97 -0.81,0 -1.5,-0.27 -2.06,-0.83 -0.5,-0.5 -0.75,-1.29 -0.75,-2.36 v -8.19 h -5.42 v 15.29 h 5.42 v -1.93 c 0.62,0.73 1.2,1.24 1.73,1.54 0.85,0.48 1.92,0.72 3.2,0.72 z m -57.75,0 c 1.65,0 2.99,-0.44 4.02,-1.33 1.17,-1.02 1.76,-2.53 1.76,-4.55 v -9.74 h -5.42 v 7.73 c 0,1.35 -0.16,2.25 -0.46,2.68 -0.45,0.65 -1.12,0.97 -2.02,0.97 -0.81,0 -1.5,-0.27 -2.06,-0.83 -0.5,-0.5 -0.75,-1.29 -0.75,-2.36 v -8.19 h -5.42 v 15.29 h 5.42 v -1.93 c 0.62,0.73 1.2,1.24 1.73,1.54 0.85,0.48 1.92,0.72 3.2,0.72 z m 684.52,0.1 c 1.11,0 2.1,-0.23 2.96,-0.68 0.52,-0.27 1.06,-0.72 1.62,-1.35 v 1.6 h 5.42 v -14.24 c 0,-1.34 -0.1,-2.42 -0.28,-3.24 -0.3,-1.32 -1.07,-2.5 -2.31,-3.55 -1.57,-1.32 -3.66,-1.97 -6.26,-1.97 -2.73,0 -4.9,0.71 -6.51,2.15 -1.08,0.96 -1.76,1.96 -2.06,3 -0.03,0.11 -0.08,0.34 -0.13,0.7 h 6.06 c 0.18,-0.5 0.41,-0.86 0.71,-1.08 0.48,-0.36 1.1,-0.54 1.85,-0.54 1.25,0 2.21,0.44 2.88,1.33 0.42,0.56 0.63,1.36 0.63,2.4 v 1.45 c -0.65,-0.6 -1.19,-1.02 -1.63,-1.26 -0.91,-0.5 -1.99,-0.76 -3.23,-0.76 -1.56,0 -2.95,0.41 -4.18,1.21 -1.26,0.82 -2.17,1.95 -2.71,3.38 -0.38,0.96 -0.56,2.01 -0.56,3.14 0,2.51 0.79,4.55 2.38,6.12 1.48,1.46 3.27,2.19 5.35,2.19 z m -104.23,0 c 3.33,0 5.71,-1.21 7.14,-3.63 0.8,-1.37 1.2,-2.95 1.2,-4.76 v -0.69 h -11.36 c 0,-2.3 1.11,-3.45 3.31,-3.45 1.13,0 1.99,0.49 2.59,1.45 h 5.24 c -0.41,-1.38 -1.03,-2.44 -1.84,-3.2 -1.47,-1.37 -3.45,-2.05 -5.92,-2.05 -3.14,0 -5.5,0.95 -7.08,2.87 -1.19,1.42 -1.78,3.16 -1.78,5.22 0,2.44 0.74,4.42 2.22,5.95 1.48,1.53 3.58,2.29 6.28,2.29 z m -393.75,0 c 3.33,0 5.71,-1.21 7.13,-3.63 0.81,-1.37 1.21,-2.95 1.21,-4.76 v -0.69 h -11.36 c 0,-2.3 1.11,-3.45 3.31,-3.45 1.13,0 1.99,0.49 2.59,1.45 h 5.24 c -0.41,-1.38 -1.03,-2.44 -1.84,-3.2 -1.47,-1.37 -3.45,-2.05 -5.92,-2.05 -3.14,0 -5.5,0.95 -7.08,2.87 -1.19,1.42 -1.78,3.16 -1.78,5.22 0,2.44 0.74,4.42 2.22,5.95 1.48,1.53 3.58,2.29 6.28,2.29 z m -48.75,0 c 3.33,0 5.71,-1.21 7.14,-3.63 0.8,-1.37 1.2,-2.95 1.2,-4.76 v -0.69 h -11.36 c 0,-2.3 1.11,-3.45 3.31,-3.45 1.13,0 1.99,0.49 2.59,1.45 h 5.24 c -0.41,-1.38 -1.03,-2.44 -1.84,-3.2 -1.47,-1.37 -3.45,-2.05 -5.92,-2.05 -3.14,0 -5.5,0.95 -7.08,2.87 -1.19,1.42 -1.78,3.16 -1.78,5.22 0,2.44 0.74,4.42 2.22,5.95 1.48,1.53 3.58,2.29 6.28,2.29 z m -21.77,0 c 1.11,0 2.1,-0.23 2.96,-0.68 0.52,-0.27 1.06,-0.72 1.62,-1.35 v 1.6 h 5.42 v -14.24 c 0,-1.34 -0.1,-2.42 -0.28,-3.24 -0.3,-1.32 -1.07,-2.5 -2.31,-3.55 -1.57,-1.32 -3.66,-1.97 -6.26,-1.97 -2.73,0 -4.9,0.71 -6.51,2.15 -1.08,0.96 -1.76,1.96 -2.06,3 -0.03,0.11 -0.08,0.34 -0.13,0.7 h 6.06 c 0.18,-0.5 0.41,-0.86 0.71,-1.08 0.48,-0.36 1.1,-0.54 1.85,-0.54 1.25,0 2.21,0.44 2.88,1.33 0.42,0.56 0.63,1.36 0.63,2.4 v 1.45 c -0.65,-0.6 -1.19,-1.02 -1.63,-1.26 -0.91,-0.5 -1.99,-0.76 -3.23,-0.76 -1.56,0 -2.95,0.41 -4.18,1.21 -1.26,0.82 -2.17,1.95 -2.71,3.38 -0.38,0.96 -0.56,2.01 -0.56,3.14 0,2.51 0.79,4.55 2.38,6.12 1.48,1.46 3.27,2.19 5.35,2.19 z m -42,0 c 1.11,0 2.1,-0.23 2.96,-0.68 0.52,-0.27 1.06,-0.72 1.62,-1.35 v 1.6 h 5.42 v -14.24 c 0,-1.34 -0.1,-2.42 -0.28,-3.24 -0.3,-1.32 -1.07,-2.5 -2.31,-3.55 -1.57,-1.32 -3.66,-1.97 -6.26,-1.97 -2.73,0 -4.9,0.71 -6.51,2.15 -1.08,0.96 -1.76,1.96 -2.06,3 -0.03,0.11 -0.08,0.34 -0.13,0.7 h 6.06 c 0.18,-0.5 0.41,-0.86 0.71,-1.08 0.48,-0.36 1.1,-0.54 1.85,-0.54 1.25,0 2.21,0.44 2.88,1.33 0.42,0.56 0.63,1.36 0.63,2.4 v 1.45 c -0.65,-0.6 -1.19,-1.02 -1.63,-1.26 -0.91,-0.5 -1.99,-0.76 -3.23,-0.76 -1.56,0 -2.95,0.41 -4.18,1.21 -1.26,0.82 -2.17,1.95 -2.71,3.38 -0.38,0.96 -0.56,2.01 -0.56,3.14 0,2.51 0.79,4.55 2.38,6.12 1.48,1.46 3.27,2.19 5.35,2.19 z m -95.98,0 c 3.33,0 5.71,-1.21 7.14,-3.63 0.8,-1.37 1.2,-2.95 1.2,-4.76 v -0.69 h -11.36 c 0,-2.3 1.11,-3.45 3.31,-3.45 1.13,0 1.99,0.49 2.59,1.45 h 5.24 c -0.41,-1.38 -1.03,-2.44 -1.84,-3.2 -1.47,-1.37 -3.45,-2.05 -5.92,-2.05 -3.14,0 -5.5,0.95 -7.08,2.87 -1.19,1.42 -1.78,3.16 -1.78,5.22 0,2.44 0.74,4.42 2.22,5.95 1.48,1.53 3.58,2.29 6.28,2.29 z m 550.42,0.05 c 1.08,0 2.1,-0.23 3.06,-0.68 0.54,-0.26 1.11,-0.69 1.69,-1.3 v 1.5 h 5.42 V 476.4 h -5.42 v 1.7 c -0.51,-0.65 -1.04,-1.13 -1.56,-1.42 -0.92,-0.52 -1.97,-0.78 -3.15,-0.78 -1.89,0 -3.58,0.66 -5.06,1.96 -1.77,1.56 -2.65,3.62 -2.65,6.19 0,2.61 0.9,4.7 2.71,6.26 1.44,1.24 3.09,1.86 4.96,1.86 z m -39,0 c 1.08,0 2.1,-0.23 3.06,-0.68 0.54,-0.26 1.11,-0.69 1.69,-1.3 v 1.5 h 5.42 V 476.4 h -5.42 v 1.7 c -0.51,-0.65 -1.04,-1.13 -1.56,-1.42 -0.92,-0.52 -1.97,-0.78 -3.15,-0.78 -1.89,0 -3.58,0.66 -5.06,1.96 -1.77,1.56 -2.65,3.62 -2.65,6.19 0,2.61 0.9,4.7 2.71,6.26 1.44,1.24 3.09,1.86 4.96,1.86 z m -136.5,0 c 1.08,0 2.1,-0.23 3.06,-0.68 0.54,-0.26 1.11,-0.69 1.69,-1.3 v 1.5 h 5.42 V 476.4 h -5.42 v 1.7 c -0.51,-0.65 -1.04,-1.13 -1.56,-1.42 -0.92,-0.52 -1.97,-0.78 -3.15,-0.78 -1.89,0 -3.58,0.66 -5.06,1.96 -1.77,1.56 -2.65,3.62 -2.65,6.19 0,2.61 0.9,4.7 2.71,6.26 1.44,1.24 3.09,1.86 4.96,1.86 z m -258,0 c 1.08,0 2.1,-0.23 3.06,-0.68 0.54,-0.26 1.11,-0.69 1.69,-1.3 v 1.5 h 5.42 V 476.4 h -5.42 v 1.7 c -0.51,-0.65 -1.04,-1.13 -1.56,-1.42 -0.92,-0.52 -1.97,-0.78 -3.15,-0.78 -1.89,0 -3.58,0.66 -5.06,1.96 -1.77,1.56 -2.65,3.62 -2.65,6.19 0,2.61 0.9,4.7 2.71,6.26 1.44,1.24 3.09,1.86 4.96,1.86 z m -159,0 c 1.08,0 2.1,-0.23 3.06,-0.68 0.54,-0.26 1.11,-0.69 1.69,-1.3 v 1.5 h 5.42 V 476.4 h -5.42 v 1.7 c -0.51,-0.65 -1.04,-1.13 -1.56,-1.42 -0.92,-0.52 -1.97,-0.78 -3.15,-0.78 -1.89,0 -3.583,0.66 -5.064,1.96 -1.767,1.56 -2.65,3.62 -2.65,6.19 0,2.61 0.905,4.7 2.715,6.26 1.438,1.24 3.089,1.86 4.959,1.86 z m 729.2,0.08 c 2.89,0 5.2,-0.93 6.92,-2.78 1.41,-1.52 2.11,-3.33 2.11,-5.43 0,-2.12 -0.69,-3.93 -2.09,-5.45 -1.69,-1.85 -4.06,-2.77 -7.1,-2.77 -3.06,0 -5.43,0.92 -7.12,2.77 -1.4,1.52 -2.09,3.38 -2.09,5.59 0,1.98 0.7,3.75 2.11,5.29 1.7,1.85 4.12,2.78 7.26,2.78 z m -269.25,0 c 2.89,0 5.2,-0.93 6.92,-2.78 1.41,-1.52 2.11,-3.33 2.11,-5.43 0,-2.12 -0.69,-3.93 -2.09,-5.45 -1.69,-1.85 -4.06,-2.77 -7.1,-2.77 -3.06,0 -5.43,0.92 -7.12,2.77 -1.4,1.52 -2.09,3.38 -2.09,5.59 0,1.98 0.7,3.75 2.11,5.29 1.7,1.85 4.12,2.78 7.26,2.78 z m -105.75,0 c 2.89,0 5.2,-0.93 6.92,-2.78 1.41,-1.52 2.11,-3.33 2.11,-5.43 0,-2.12 -0.69,-3.93 -2.09,-5.45 -1.69,-1.85 -4.06,-2.77 -7.1,-2.77 -3.06,0 -5.43,0.92 -7.12,2.77 -1.4,1.52 -2.09,3.38 -2.09,5.59 0,1.98 0.7,3.75 2.11,5.29 1.7,1.85 4.12,2.78 7.26,2.78 z m -375.153,1.93 v -5.6 h 1.951 c 1.267,0 2.138,0.27 2.612,0.82 0.429,0.5 0.644,1.17 0.644,2.02 0,0.84 -0.245,1.51 -0.735,2.01 -0.491,0.5 -1.326,0.75 -2.505,0.75 z m 452.513,2.11 h 5.42 v -4.6 h 3.09 v -4.43 h -3.09 V 476.4 h -5.42 v 10.86 h -1.78 v 4.43 h 1.78 z m -149.25,0 h 5.42 v -4.6 h 3.09 v -4.43 h -3.09 V 476.4 h -5.42 v 10.86 h -1.78 v 4.43 h 1.78 z m -208.5,0 h 5.42 v -4.6 h 3.09 v -4.43 h -3.09 V 476.4 h -5.42 v 10.86 h -1.78 v 4.43 h 1.78 z m -59.25,0 h 5.42 v -4.6 h 3.09 v -4.43 h -3.09 V 476.4 h -5.42 v 10.86 h -1.78 v 4.43 h 1.78 z m 690.64,2.6 h 5.85 v -17.61 h 7.02 v -4.88 h -12.87 z m -195.23,0 h 6.38 l 8.47,-22.49 h -6.25 l -1.45,3.92 h -8.07 l -1.55,-3.92 h -6.18 z m -206.02,0 h 5.85 V 476.4 h -5.85 z m -208.5,0 h 12.8 v -4.88 h -6.95 v -3.84 h 6.57 v -4.87 h -6.57 v -4.02 h 6.95 v -4.88 h -12.8 z m -122.253,0 h 9.31 c 2.648,0 4.659,-0.77 6.032,-2.32 1.187,-1.33 1.78,-3.02 1.78,-5.09 0,-2.03 -0.478,-3.7 -1.434,-5.03 -1.241,-1.73 -3.301,-2.59 -6.18,-2.59 h -3.658 v -7.46 h -5.85 z m 695.933,1.7 c 0.84,0 1.56,-0.29 2.15,-0.88 0.59,-0.59 0.89,-1.3 0.89,-2.14 0,-0.86 -0.29,-1.58 -0.88,-2.17 -0.58,-0.58 -1.31,-0.87 -2.16,-0.87 -0.84,0 -1.56,0.29 -2.14,0.88 -0.59,0.59 -0.88,1.31 -0.88,2.16 0,0.84 0.29,1.55 0.88,2.14 0.58,0.59 1.3,0.88 2.14,0.88 z m -99,0 c 0.84,0 1.56,-0.29 2.15,-0.88 0.59,-0.59 0.89,-1.3 0.89,-2.14 0,-0.86 -0.29,-1.58 -0.88,-2.17 -0.58,-0.58 -1.31,-0.87 -2.16,-0.87 -0.84,0 -1.56,0.29 -2.14,0.88 -0.59,0.59 -0.88,1.31 -0.88,2.16 0,0.84 0.29,1.55 0.88,2.14 0.58,0.59 1.3,0.88 2.14,0.88 z m -125.25,0 c 0.84,0 1.56,-0.29 2.15,-0.88 0.59,-0.59 0.89,-1.3 0.89,-2.14 0,-0.86 -0.29,-1.58 -0.88,-2.17 -0.58,-0.58 -1.31,-0.87 -2.16,-0.87 -0.84,0 -1.56,0.29 -2.14,0.88 -0.59,0.59 -0.88,1.31 -0.88,2.16 0,0.84 0.29,1.55 0.88,2.14 0.58,0.59 1.3,0.88 2.14,0.88 z m -417,0 c 0.84,0 1.56,-0.29 2.15,-0.88 0.59,-0.59 0.89,-1.3 0.89,-2.14 0,-0.86 -0.29,-1.58 -0.88,-2.17 -0.58,-0.58 -1.31,-0.87 -2.16,-0.87 -0.84,0 -1.56,0.29 -2.14,0.88 -0.59,0.59 -0.88,1.31 -0.88,2.16 0,0.84 0.29,1.55 0.88,2.14 0.58,0.59 1.3,0.88 2.14,0.88 z m 599.56,0.56 h 5.42 V 476.4 h -5.42 z m -21,0 h 5.42 v -10.98 c 0.58,0.61 1.14,1.04 1.69,1.31 0.96,0.46 1.98,0.69 3.06,0.69 1.87,0 3.52,-0.62 4.96,-1.86 1.81,-1.56 2.71,-3.65 2.71,-6.26 0,-2.57 -0.88,-4.63 -2.65,-6.19 -1.48,-1.3 -3.17,-1.96 -5.07,-1.96 -1.17,0 -2.22,0.26 -3.14,0.78 -0.56,0.31 -1.08,0.78 -1.56,1.42 v -1.7 h -5.42 z m -30,0 h 5.42 V 476.4 h -5.42 z m -235.74,0.05 c 0.79,0 1.59,-0.19 2.39,-0.56 v -4.7 c -0.73,0.41 -1.36,0.61 -1.88,0.61 -0.74,0 -1.27,-0.28 -1.61,-0.84 -0.2,-0.32 -0.3,-1.11 -0.3,-2.37 v -1.65 h 3.79 v -4.45 h -3.79 V 476.4 h -5.42 v 10.84 h -1.93 v 4.45 h 1.93 v 2.03 c 0,2.25 0.57,3.99 1.71,5.21 1.42,1.51 3.12,2.27 5.11,2.27 z"
       style="fill:url(#linearGradient9049);fill-opacity:1;fill-rule:evenodd;stroke:none"
       id="path9051" /><text
       transform="scale(1,-1)"
       style="font-variant:normal;font-weight:bold;font-size:33.8px;font-family:Aharoni;-inkscape-font-specification:Aharoni-Bold;writing-mode:lr-tb;fill:#000000;fill-opacity:0;fill-rule:nonzero;stroke:none"
       id="text9063"
       x="73.25"
       y="-476.29999"><tspan
         x="73.25 93.496201 114.4522 125.7752 134.9012 154.2348 173.83881 185.09421 195.5722 212.1004 231.6368 252.6266 273.58258 294.64001 314.14258 343.41339 362.91599 382.45239 393.70779 404.18579 414.7652 434.23401 446.233 467.22281 481.45261 510.72339 531.67944 543.00244 552.12842 573.0506 592.58698 603.84241 627.84039 647.34302 668.40039 677.52643 686.44958 707.40558 728.46301 737.58899 756.92261 767.50201 776.62799 796.06299 805.79742 821.58197 842.57178 863.56158"
         y="-476.29999"
         sodipodi:role="line"
         id="tspan9061">Patient Engagement Information Available in Log </tspan></text><path
       d="m 134.7,458.69 h 6.28 l 4.09,-7.84 3.97,7.84 h 6.19 l -12.27,-22.94 h -6.07 l 5.19,9.74 z m -1.99,0.21 c 0.29,0 0.64,-0.01 1.06,-0.04 v -5.15 c -0.76,0.37 -1.53,0.55 -2.31,0.55 -1.77,0 -2.92,-0.73 -3.45,-2.19 -0.19,-0.53 -0.29,-1.24 -0.29,-2.13 v -6.54 h -5.42 v 15.29 h 5.42 v -2.5 c 0.57,0.89 1.18,1.53 1.84,1.92 0.89,0.53 1.94,0.79 3.15,0.79 z m -30.81,0.12 c 1.65,0 2.99,-0.44 4.02,-1.33 1.17,-1.02 1.76,-2.53 1.76,-4.55 v -9.74 h -5.42 v 7.73 c 0,1.35 -0.16,2.25 -0.46,2.68 -0.45,0.65 -1.12,0.97 -2.016,0.97 -0.818,0 -1.506,-0.27 -2.063,-0.83 -0.502,-0.5 -0.754,-1.29 -0.754,-2.36 v -8.19 h -5.421 v 15.29 h 5.421 v -1.93 c 0.626,0.73 1.202,1.24 1.728,1.54 0.856,0.48 1.925,0.72 3.205,0.72 z m 9.77,4.27 h 5.42 v -4.6 h 3.09 v -4.43 h -3.09 V 443.4 h -5.42 v 10.86 h -1.78 v 4.43 h 1.78 z m -36.113,2.6 h 12.804 v -4.88 h -6.954 v -3.84 h 6.575 v -4.87 h -6.575 v -4.02 h 6.954 V 443.4 H 75.557 Z"
       style="fill:url(#linearGradient9071);fill-opacity:1;fill-rule:evenodd;stroke:none"
       id="path9073" /><text
       transform="scale(1,-1)"
       style="font-variant:normal;font-weight:bold;font-size:33.8px;font-family:Aharoni;-inkscape-font-specification:Aharoni-Bold;writing-mode:lr-tb;fill:#000000;fill-opacity:0;fill-rule:nonzero;stroke:none"
       id="text9085"
       x="73.25"
       y="-443.26999"><tspan
         x="73.25 89.778198 109.31461 120.57 134.7998"
         y="-443.26999"
         sodipodi:role="line"
         id="tspan9083">Entry</tspan></text><path
       d="m 43.125,378.37 c 0,4.15 0.56,7.5 1.25,7.5 h 82.255 c 0.69,0 1.25,3.36 1.25,7.5 0,-4.14 0.55,-7.5 1.24,-7.5 h 82.26 c 0.69,0 1.25,-3.35 1.25,-7.5"
       style="fill:none;stroke:#00bac8;stroke-width:0.5;stroke-linecap:butt;stroke-linejoin:miter;stroke-miterlimit:10;stroke-dasharray:none;stroke-opacity:1"
       id="path9095" /><text
       transform="scale(1,-1)"
       style="font-variant:normal;font-weight:normal;font-size:18.025px;font-family:AvenirNextLTPro;-inkscape-font-specification:AvenirNextLTPro;writing-mode:lr-tb;fill:#00bac8;fill-opacity:1;fill-rule:nonzero;stroke:none"
       id="text9107"
       x="108.05"
       y="-402.07999"><tspan
         x="108.05 117.04447 126.02093 137.26852"
         y="-402.07999"
         sodipodi:role="line"
         id="tspan9105">Type</tspan></text><text
       transform="scale(1,-1)"
       style="font-variant:normal;font-weight:normal;font-size:18.025px;font-family:AvenirNextLTPro;-inkscape-font-specification:AvenirNextLTPro;writing-mode:lr-tb;fill:#000000;fill-opacity:1;fill-rule:nonzero;stroke:none"
       id="text9119"
       x="42.549999"
       y="-364.95001"><tspan
         x="42.549999 52.301525 64.324203 74.814751 79.320999 89.829575 103.34833 113.83887 122.85138 133.34192 146.86067 161.11845 173.88016 188.13792 198.6465 211.42622"
         y="-364.95001"
         sodipodi:role="line"
         id="tspan9117">PATIENT_ENGAGED,</tspan></text><path
       d="m 292.88,377.62 c 0,4.98 0.67,9 1.49,9 h 90.38 c 0.83,0 1.5,4.03 1.5,9 0,-4.97 0.67,-9 1.5,-9 h 90.38 c 0.82,0 1.5,-4.02 1.5,-9"
       style="fill:none;stroke:#00bac8;stroke-width:0.5;stroke-linecap:butt;stroke-linejoin:miter;stroke-miterlimit:10;stroke-dasharray:none;stroke-opacity:1"
       id="path9129" /><text
       transform="scale(1,-1)"
       style="font-variant:normal;font-weight:normal;font-size:18.025px;font-family:AvenirNextLTPro;-inkscape-font-specification:AvenirNextLTPro;writing-mode:lr-tb;fill:#00bac8;fill-opacity:1;fill-rule:nonzero;stroke:none"
       id="text9141"
       x="339.64999"
       y="-402.07999"><tspan
         x="339.64999 350.15857 354.66483 370.43671 380.94528 389.20071 395.20306 404.95456 420.72644"
         y="-402.07999"
         sodipodi:role="line"
         id="tspan9139">Timestamp</tspan></text><text
       transform="scale(1,-1)"
       style="font-variant:normal;font-weight:normal;font-size:18.025px;font-family:AvenirNextLTPro;-inkscape-font-specification:AvenirNextLTPro;writing-mode:lr-tb;fill:#000000;fill-opacity:1;fill-rule:nonzero;stroke:none"
       id="text9153"
       x="295.76999"
       y="-364.95001"><tspan
         x="295.76999 306.27856 313.03796 323.54654 330.30591 340.81448 351.32306 361.83163 372.34021 376.84644 387.35501 392.63635 403.14493 413.6535 418.93484 429.44339 439.95197 444.45822 454.9668 470.73868"
         y="-364.95001"
         sodipodi:role="line"
         id="tspan9151">9/7/2023 2:00:51 PM,</tspan></text><path
       d="m 845.63,377.62 c 0,4.98 0.67,9.01 1.49,9.01 l 11.26,-0.01 c 0.82,0 1.5,4.03 1.5,9 0,-4.97 0.67,-9 1.49,-9 h 11.26 c 0.82,0 1.5,-4.02 1.5,-9"
       style="fill:none;stroke:#00bac8;stroke-width:0.5;stroke-linecap:butt;stroke-linejoin:miter;stroke-miterlimit:10;stroke-dasharray:none;stroke-opacity:1"
       id="path9163" /><text
       transform="scale(1,-1)"
       style="font-variant:normal;font-weight:normal;font-size:18.025px;font-family:AvenirNextLTPro;-inkscape-font-specification:AvenirNextLTPro;writing-mode:lr-tb;fill:#00bac8;fill-opacity:1;fill-rule:nonzero;stroke:none"
       id="text9175"
       x="801.58002"
       y="-402.07999"><tspan
         x="801.58002 806.12231 817.33386 828.61749 839.90112 850.40973 857.16913 867.69568 878.20428 884.96362 893.21912 897.72534 908.25195"
         y="-402.07999"
         sodipodi:role="line"
         id="tspan9173">loggerVersion</tspan></text><text
       transform="scale(1,-1)"
       style="font-variant:normal;font-weight:normal;font-size:18.025px;font-family:AvenirNextLTPro;-inkscape-font-specification:AvenirNextLTPro;writing-mode:lr-tb;fill:#000000;fill-opacity:1;fill-rule:nonzero;stroke:none"
       id="text9187"
       x="847.25"
       y="-364.95001"><tspan
         x="847.25 857.70453 862.24683 872.70129"
         y="-364.95001"
         sodipodi:role="line"
         id="tspan9185">1.3,</tspan></text><path
       d="m 221.63,379.12 c 0,4.15 0.55,7.51 1.24,7.51 l 29.76,-0.01 c 0.69,0 1.25,3.36 1.25,7.5 0,-4.14 0.55,-7.5 1.24,-7.5 h 29.76 c 0.69,0 1.25,-3.35 1.25,-7.5"
       style="fill:none;stroke:#00bac8;stroke-width:0.5;stroke-linecap:butt;stroke-linejoin:miter;stroke-miterlimit:10;stroke-dasharray:none;stroke-opacity:1"
       id="path9197" /><text
       transform="scale(1,-1)"
       style="font-variant:normal;font-weight:normal;font-size:18.025px;font-family:AvenirNextLTPro;-inkscape-font-specification:AvenirNextLTPro;writing-mode:lr-tb;fill:#00bac8;fill-opacity:1;fill-rule:nonzero;stroke:none"
       id="text9209"
       x="199.3"
       y="-402.07999"><tspan
         x="199.3 209.79054 214.33286 224.0303 235.27791 243.51532 254.00587 265.25348 275.74402 280.25027 295.98608"
         y="-402.07999"
         sodipodi:role="line"
         id="tspan9207">elapsedTime</tspan></text><text
       transform="scale(1,-1)"
       style="font-variant:normal;font-weight:normal;font-size:18.025px;font-family:AvenirNextLTPro;-inkscape-font-specification:AvenirNextLTPro;writing-mode:lr-tb;fill:#000000;fill-opacity:1;fill-rule:nonzero;stroke:none"
       id="text9221"
       x="222.75"
       y="-365.76999"><tspan
         x="222.75 233.25 243.75 254.25 264.75 275.25 285.75"
         y="-365.76999"
         sodipodi:role="line"
         id="tspan9219">327937,</tspan></text><path
       d="m 483.38,377.62 c 0,4.77 0.64,8.63 1.43,8.63 h 172.63 c 0.79,0 1.44,3.86 1.44,8.62 0,-4.76 0.64,-8.62 1.43,-8.62 h 172.63 c 0.79,0 1.44,-3.86 1.44,-8.63"
       style="fill:none;stroke:#00bac8;stroke-width:0.5;stroke-linecap:butt;stroke-linejoin:miter;stroke-miterlimit:10;stroke-dasharray:none;stroke-opacity:1"
       id="path9231" /><text
       transform="scale(1,-1)"
       style="font-variant:normal;font-weight:normal;font-size:18.025px;font-family:AvenirNextLTPro;-inkscape-font-specification:AvenirNextLTPro;writing-mode:lr-tb;fill:#00bac8;fill-opacity:1;fill-rule:nonzero;stroke:none"
       id="text9243"
       x="618.79999"
       y="-402.07999"><tspan
         x="618.79999 629.29053 639.78113 648.01855 656.25598 660.76221 671.99176 682.46429 686.98859"
         y="-402.07999"
         sodipodi:role="line"
         id="tspan9241">SessionId</tspan></text><text
       transform="scale(1,-1)"
       style="font-variant:normal;font-weight:normal;font-size:18.025px;font-family:AvenirNextLTPro;-inkscape-font-specification:AvenirNextLTPro;writing-mode:lr-tb;fill:#000000;fill-opacity:1;fill-rule:nonzero;stroke:none"
       id="text9255"
       x="484.67999"
       y="-365.63"><tspan
         x="484.67999 495.17056 506.41815 515.43066 525.88513 531.20251 542.41406 552.86859"
         y="-365.63"
         sodipodi:role="line"
         id="tspan9253">ebc4fb38</tspan></text><text
       transform="scale(1,-1)"
       style="font-variant:normal;font-weight:normal;font-size:18.025px;font-family:AvenirNextLTPro;-inkscape-font-specification:AvenirNextLTPro;writing-mode:lr-tb;fill:#000000;fill-opacity:1;fill-rule:nonzero;stroke:none"
       id="text9267"
       x="563.46997"
       y="-365.63"><tspan
         x="563.46997"
         y="-365.63"
         id="tspan9265">-</tspan></text><text
       transform="scale(1,-1)"
       style="font-variant:normal;font-weight:normal;font-size:18.025px;font-family:AvenirNextLTPro;-inkscape-font-specification:AvenirNextLTPro;writing-mode:lr-tb;fill:#000000;fill-opacity:1;fill-rule:nonzero;stroke:none"
       id="text9279"
       x="569.5"
       y="-365.63"><tspan
         x="569.5 579.95453 590.48108 599.49359"
         y="-365.63"
         sodipodi:role="line"
         id="tspan9277">01c3</tspan></text><text
       transform="scale(1,-1)"
       style="font-variant:normal;font-weight:normal;font-size:18.025px;font-family:AvenirNextLTPro;-inkscape-font-specification:AvenirNextLTPro;writing-mode:lr-tb;fill:#000000;fill-opacity:1;fill-rule:nonzero;stroke:none"
       id="text9291"
       x="610.03003"
       y="-365.63"><tspan
         x="610.03003"
         y="-365.63"
         id="tspan9289">-</tspan></text><text
       transform="scale(1,-1)"
       style="font-variant:normal;font-weight:normal;font-size:18.025px;font-family:AvenirNextLTPro;-inkscape-font-specification:AvenirNextLTPro;writing-mode:lr-tb;fill:#000000;fill-opacity:1;fill-rule:nonzero;stroke:none"
       id="text9303"
       x="616.02002"
       y="-365.63"><tspan
         x="616.02002 626.52002 637.02002 647.52002"
         y="-365.63"
         sodipodi:role="line"
         id="tspan9301">4296</tspan></text><text
       transform="scale(1,-1)"
       style="font-variant:normal;font-weight:normal;font-size:18.025px;font-family:AvenirNextLTPro;-inkscape-font-specification:AvenirNextLTPro;writing-mode:lr-tb;fill:#000000;fill-opacity:1;fill-rule:nonzero;stroke:none"
       id="text9315"
       x="658.04999"
       y="-365.63"><tspan
         x="658.04999"
         y="-365.63"
         id="tspan9313">-</tspan></text><text
       transform="scale(1,-1)"
       style="font-variant:normal;font-weight:normal;font-size:18.025px;font-family:AvenirNextLTPro;-inkscape-font-specification:AvenirNextLTPro;writing-mode:lr-tb;fill:#000000;fill-opacity:1;fill-rule:nonzero;stroke:none"
       id="text9327"
       x="664.08002"
       y="-365.63"><tspan
         x="664.08002 675.32758 685.7821 696.30872"
         y="-365.63"
         sodipodi:role="line"
         id="tspan9325">b22d</tspan></text><text
       transform="scale(1,-1)"
       style="font-variant:normal;font-weight:normal;font-size:18.025px;font-family:AvenirNextLTPro;-inkscape-font-specification:AvenirNextLTPro;writing-mode:lr-tb;fill:#000000;fill-opacity:1;fill-rule:nonzero;stroke:none"
       id="text9339"
       x="707.59998"
       y="-365.63"><tspan
         x="707.59998"
         y="-365.63"
         id="tspan9337">-</tspan></text><text
       transform="scale(1,-1)"
       style="font-variant:normal;font-weight:normal;font-size:18.025px;font-family:AvenirNextLTPro;-inkscape-font-specification:AvenirNextLTPro;writing-mode:lr-tb;fill:#000000;fill-opacity:1;fill-rule:nonzero;stroke:none"
       id="text9351"
       x="713.59998"
       y="-365.63"><tspan
         x="713.59998 724.0545 734.58112 744.31458 755.56219 760.8075 771.26196 781.78857 792.27911 802.73364 814.03528 824.48981 835.01642"
         y="-365.63"
         sodipodi:role="line"
         id="tspan9349">34adf70e0d43,</tspan></text><path
       d="m 165.38,241.87 c 0,4.98 0.67,9 1.49,9 h 13.88 c 0.83,0 1.5,4.03 1.5,9 0,-4.97 0.67,-9 1.5,-9 h 13.88 c 0.82,0 1.5,-4.02 1.5,-9"
       style="fill:none;stroke:#00bac8;stroke-width:0.5;stroke-linecap:butt;stroke-linejoin:miter;stroke-miterlimit:10;stroke-dasharray:none;stroke-opacity:1"
       id="path9361" /><text
       transform="scale(1,-1)"
       style="font-variant:normal;font-weight:normal;font-size:18.025px;font-family:AvenirNextLTPro;-inkscape-font-specification:AvenirNextLTPro;writing-mode:lr-tb;fill:#00bac8;fill-opacity:1;fill-rule:nonzero;stroke:none"
       id="text9373"
       x="134.17999"
       y="-265.13"><tspan
         x="134.17999 144.68857 155.21518 164.96671 169.509 175.4933 186.00188 195.05043 205.55899 214.5715 225.08008"
         y="-265.13"
         sodipodi:role="line"
         id="tspan9371">healthLevel</tspan></text><text
       transform="scale(1,-1)"
       style="font-variant:normal;font-weight:normal;font-size:18.025px;font-family:AvenirNextLTPro;-inkscape-font-specification:AvenirNextLTPro;writing-mode:lr-tb;fill:#000000;fill-opacity:1;fill-rule:nonzero;stroke:none"
       id="text9385"
       x="166.48"
       y="-229.64999"><tspan
         x="166.48 176.98 187.48 197.98"
         y="-229.64999"
         sodipodi:role="line"
         id="tspan9383">100,</tspan></text><path
       d="m 296.63,241.12 c 0,5.18 0.69,9.38 1.56,9.38 h 26.5 c 0.86,0 1.56,4.2 1.56,9.37 0,-5.17 0.7,-9.37 1.56,-9.37 h 26.5 c 0.87,0 1.57,-4.2 1.57,-9.38"
       style="fill:none;stroke:#00bac8;stroke-width:0.5;stroke-linecap:butt;stroke-linejoin:miter;stroke-miterlimit:10;stroke-dasharray:none;stroke-opacity:1"
       id="path9395" /><text
       transform="scale(1,-1)"
       style="font-variant:normal;font-weight:normal;font-size:18.025px;font-family:AvenirNextLTPro;-inkscape-font-specification:AvenirNextLTPro;writing-mode:lr-tb;fill:#00bac8;fill-opacity:1;fill-rule:nonzero;stroke:none"
       id="text9407"
       x="234.8"
       y="-265.13"><tspan
         x="234.8 245.30858 255.83517 265.5867 270.129 276.07724 286.58582 297.11243 301.61868 317.39056 327.89914 338.42572 348.9343 364.70618 374.4577 378.96396 389.43646 393.94272 404.48734"
         y="-265.13"
         sodipodi:role="line"
         id="tspan9405">healthTimeRemaining</tspan></text><text
       transform="scale(1,-1)"
       style="font-variant:normal;font-weight:normal;font-size:18.025px;font-family:AvenirNextLTPro;-inkscape-font-specification:AvenirNextLTPro;writing-mode:lr-tb;fill:#000000;fill-opacity:1;fill-rule:nonzero;stroke:none"
       id="text9419"
       x="298.98001"
       y="-229.64999"><tspan
         x="298.98001 303.48624 313.95877 319.27615 323.78241 334.25491 338.76117 344.76349 353.01895"
         y="-229.64999"
         sodipodi:role="line"
         id="tspan9417">Infinity,</tspan></text><path
       d="m 526.13,241.87 c 0,5.18 0.69,9.38 1.56,9.38 h 56.12 c 0.87,0 1.57,4.2 1.57,9.37 0,-5.17 0.69,-9.37 1.56,-9.37 h 56.12 c 0.87,0 1.57,-4.2 1.57,-9.38"
       style="fill:none;stroke:#00bac8;stroke-width:0.5;stroke-linecap:butt;stroke-linejoin:miter;stroke-miterlimit:10;stroke-dasharray:none;stroke-opacity:1"
       id="path9429" /><text
       transform="scale(1,-1)"
       style="font-variant:normal;font-weight:normal;font-size:18.025px;font-family:AvenirNextLTPro;-inkscape-font-specification:AvenirNextLTPro;writing-mode:lr-tb;fill:#00bac8;fill-opacity:1;fill-rule:nonzero;stroke:none"
       id="text9441"
       x="551.34998"
       y="-265.13"><tspan
         x="551.34998 562.5976 573.82715 582.06458 586.57086 592.55518 597.0614 608.29095"
         y="-265.13"
         sodipodi:role="line"
         id="tspan9439">position</tspan></text><text
       transform="scale(1,-1)"
       style="font-variant:normal;font-weight:normal;font-size:18.025px;font-family:AvenirNextLTPro;-inkscape-font-specification:AvenirNextLTPro;writing-mode:lr-tb;fill:#000000;fill-opacity:1;fill-rule:nonzero;stroke:none"
       id="text9453"
       x="527.96997"
       y="-229.64999"><tspan
         x="527.96997 535.45038 540.69568 551.15015 555.69244 566.14697 569.9502 574.45648 584.91095 589.45325 599.90778 603.71106 608.93829 619.39282 623.93512 634.38959 639.68896 647.16931"
         y="-229.64999"
         sodipodi:role="line"
         id="tspan9451">&quot;(2.9, 0.0, 2.3)&quot;,</tspan></text><path
       d="m 364.13,244.87 c 0,3.53 0.47,6.38 1.06,6.38 h 72.5 c 0.58,0 1.06,2.85 1.06,6.37 0,-3.52 0.48,-6.37 1.06,-6.37 h 72.5 c 0.59,0 1.07,-2.85 1.07,-6.38"
       style="fill:none;stroke:#00bac8;stroke-width:0.5;stroke-linecap:butt;stroke-linejoin:miter;stroke-miterlimit:10;stroke-dasharray:none;stroke-opacity:1"
       id="path9463" /><text
       transform="scale(1,-1)"
       style="font-variant:normal;font-weight:normal;font-size:18.025px;font-family:AvenirNextLTPro;-inkscape-font-specification:AvenirNextLTPro;writing-mode:lr-tb;fill:#00bac8;fill-opacity:1;fill-rule:nonzero;stroke:none"
       id="text9475"
       x="430.39999"
       y="-265.13"><tspan
         x="430.39999 434.89999"
         y="-265.13"
         sodipodi:role="line"
         id="tspan9473">id</tspan></text><text
       transform="scale(1,-1)"
       style="font-variant:normal;font-weight:normal;font-size:18.025px;font-family:AvenirNextLTPro;-inkscape-font-specification:AvenirNextLTPro;writing-mode:lr-tb;fill:#000000;fill-opacity:1;fill-rule:nonzero;stroke:none"
       id="text9487"
       x="363.17999"
       y="-229.64999"><tspan
         x="363.17999 375.90564 384.14307 388.64932 398.38281 408.85535 412.64059 423.88818 435.11777 446.36536 455.37787 465.83237 471.09567 481.60425 492.83383 504.06342 510.0477"
         y="-229.64999"
         sodipodi:role="line"
         id="tspan9485">Asian Bob_4 Root,</tspan></text><path
       d="m 661.88,243.37 c 0,3.94 0.53,7.13 1.18,7.13 h 77.13 c 0.65,0 1.19,3.19 1.19,7.12 0,-3.93 0.53,-7.12 1.18,-7.12 h 77.13 c 0.65,0 1.19,-3.19 1.19,-7.13"
       style="fill:none;stroke:#00bac8;stroke-width:0.5;stroke-linecap:butt;stroke-linejoin:miter;stroke-miterlimit:10;stroke-dasharray:none;stroke-opacity:1"
       id="path9497" /><text
       transform="scale(1,-1)"
       style="font-variant:normal;font-weight:normal;font-size:18.025px;font-family:AvenirNextLTPro;-inkscape-font-specification:AvenirNextLTPro;writing-mode:lr-tb;fill:#00bac8;fill-opacity:1;fill-rule:nonzero;stroke:none"
       id="text9509"
       x="708.29999"
       y="-265.13"><tspan
         x="708.29999 715.02332 726.25293 732.23718 741.9707 747.95502 752.46124 763.6908"
         y="-265.13"
         sodipodi:role="line"
         id="tspan9507">rotation</tspan></text><text
       transform="scale(1,-1)"
       style="font-variant:normal;font-weight:normal;font-size:18.025px;font-family:AvenirNextLTPro;-inkscape-font-specification:AvenirNextLTPro;writing-mode:lr-tb;fill:#000000;fill-opacity:1;fill-rule:nonzero;stroke:none"
       id="text9521"
       x="661.97998"
       y="-229.64999"><tspan
         x="661.97998 669.46039 674.70563 685.16016 689.70245 700.15692 703.96021"
         y="-229.64999"
         sodipodi:role="line"
         id="tspan9519">&quot;(0.0, </tspan></text><text
       transform="scale(1,-1)"
       style="font-variant:normal;font-weight:normal;font-size:18.025px;font-family:AvenirNextLTPro;-inkscape-font-specification:AvenirNextLTPro;writing-mode:lr-tb;fill:#000000;fill-opacity:1;fill-rule:nonzero;stroke:none"
       id="text9533"
       x="708.5"
       y="-229.64999"><tspan
         x="708.5"
         y="-229.64999"
         id="tspan9531">-</tspan></text><text
       transform="scale(1,-1)"
       style="font-variant:normal;font-weight:normal;font-size:18.025px;font-family:AvenirNextLTPro;-inkscape-font-specification:AvenirNextLTPro;writing-mode:lr-tb;fill:#000000;fill-opacity:1;fill-rule:nonzero;stroke:none"
       id="text9545"
       x="714.5"
       y="-229.64999"><tspan
         x="714.5 725.00854 729.53284 740.04144 743.80865 749.07196 759.58051 764.1048 774.6134 778.38062 782.88684 793.41345 797.93774 808.44629 813.7276 821.22601"
         y="-229.64999"
         sodipodi:role="line"
         id="tspan9543">0.7, 0.0, 0.7)&quot;,</tspan></text><path
       d="m 367.13,109.12 c 0,3.73 0.5,6.75 1.12,6.75 H 381 c 0.62,0 1.13,3.03 1.13,6.75 0,-3.72 0.5,-6.75 1.12,-6.75 H 396 c 0.62,0 1.13,-3.02 1.13,-6.75"
       style="fill:none;stroke:#00bac8;stroke-width:0.5;stroke-linecap:butt;stroke-linejoin:miter;stroke-miterlimit:10;stroke-dasharray:none;stroke-opacity:1"
       id="path9555" /><text
       transform="scale(1,-1)"
       style="font-variant:normal;font-weight:normal;font-size:18.025px;font-family:AvenirNextLTPro;-inkscape-font-specification:AvenirNextLTPro;writing-mode:lr-tb;fill:#00bac8;fill-opacity:1;fill-rule:nonzero;stroke:none"
       id="text9567"
       x="365.20001"
       y="-130.67"><tspan
         x="365.20001 373.43744 384.66699 391.39032"
         y="-130.67"
         sodipodi:role="line"
         id="tspan9565">sort</tspan></text><text
       transform="scale(1,-1)"
       style="font-variant:normal;font-weight:normal;font-size:18.025px;font-family:AvenirNextLTPro;-inkscape-font-specification:AvenirNextLTPro;writing-mode:lr-tb;fill:#000000;fill-opacity:1;fill-rule:nonzero;stroke:none"
       id="text9579"
       x="367.28"
       y="-93.525002"><tspan
         x="367.28 375.53546 381.53778 386.04404 390.58633 395.12863"
         y="-93.525002"
         sodipodi:role="line"
         id="tspan9577">still,</tspan></text><path
       d="m 406.13,108.37 c 0,4.15 0.55,7.5 1.24,7.5 h 17.01 c 0.69,0 1.25,3.36 1.25,7.5 0,-4.14 0.55,-7.5 1.24,-7.5 h 17.01 c 0.69,0 1.25,-3.35 1.25,-7.5"
       style="fill:none;stroke:#00bac8;stroke-width:0.5;stroke-linecap:butt;stroke-linejoin:miter;stroke-miterlimit:10;stroke-dasharray:none;stroke-opacity:1"
       id="path9589" /><text
       transform="scale(1,-1)"
       style="font-variant:normal;font-weight:normal;font-size:18.025px;font-family:AvenirNextLTPro;-inkscape-font-specification:AvenirNextLTPro;writing-mode:lr-tb;fill:#00bac8;fill-opacity:1;fill-rule:nonzero;stroke:none"
       id="text9601"
       x="402.75"
       y="-130.67"><tspan
         x="402.75 413.99759 424.47012 429.01242 437.23181"
         y="-130.67"
         sodipodi:role="line"
         id="tspan9599">pulse</tspan></text><text
       transform="scale(1,-1)"
       style="font-variant:normal;font-weight:normal;font-size:18.025px;font-family:AvenirNextLTPro;-inkscape-font-specification:AvenirNextLTPro;writing-mode:lr-tb;fill:#000000;fill-opacity:1;fill-rule:nonzero;stroke:none"
       id="text9613"
       x="407.98001"
       y="-93.525002"><tspan
         x="407.98001 413.22528 422.97681 427.48306 437.95557 443.97592"
         y="-93.525002"
         sodipodi:role="line"
         id="tspan9611">faint,</tspan></text><path
       d="m 526.88,107.62 c 0,4.35 0.58,7.88 1.31,7.88 h 19.5 c 0.72,0 1.31,3.53 1.31,7.87 0,-4.34 0.59,-7.87 1.31,-7.87 h 19.5 c 0.73,0 1.32,-3.53 1.32,-7.88"
       style="fill:none;stroke:#00bac8;stroke-width:0.5;stroke-linecap:butt;stroke-linejoin:miter;stroke-miterlimit:10;stroke-dasharray:none;stroke-opacity:1"
       id="path9623" /><text
       transform="scale(1,-1)"
       style="font-variant:normal;font-weight:normal;font-size:18.025px;font-family:AvenirNextLTPro;-inkscape-font-specification:AvenirNextLTPro;writing-mode:lr-tb;fill:#00bac8;fill-opacity:1;fill-rule:nonzero;stroke:none"
       id="text9635"
       x="517.03003"
       y="-130.67"><tspan
         x="517.03003 527.53857 538.01111 547.74463 554.4679 558.97418 569.44672"
         y="-130.67"
         sodipodi:role="line"
         id="tspan9633">hearing</tspan></text><text
       transform="scale(1,-1)"
       style="font-variant:normal;font-weight:normal;font-size:18.025px;font-family:AvenirNextLTPro;-inkscape-font-specification:AvenirNextLTPro;writing-mode:lr-tb;fill:#000000;fill-opacity:1;fill-rule:nonzero;stroke:none"
       id="text9647"
       x="528.25"
       y="-94.375"><tspan
         x="528.25 538.72253 550.02417 560.4967 571.05939"
         y="-94.375"
         sodipodi:role="line"
         id="tspan9645">none,</tspan></text><path
       d="m 278.63,108.37 c 0,4.35 0.58,7.88 1.31,7.88 h 37.5 c 0.72,0 1.31,3.53 1.31,7.87 0,-4.34 0.59,-7.87 1.31,-7.87 h 37.5 c 0.73,0 1.32,-3.53 1.32,-7.88"
       style="fill:none;stroke:#00bac8;stroke-width:0.5;stroke-linecap:butt;stroke-linejoin:miter;stroke-miterlimit:10;stroke-dasharray:none;stroke-opacity:1"
       id="path9657" /><text
       transform="scale(1,-1)"
       style="font-variant:normal;font-weight:normal;font-size:18.025px;font-family:AvenirNextLTPro;-inkscape-font-specification:AvenirNextLTPro;writing-mode:lr-tb;fill:#00bac8;fill-opacity:1;fill-rule:nonzero;stroke:none"
       id="text9669"
       x="303.95001"
       y="-130.67"><tspan
         x="303.95001 312.18744 321.92093 326.46323"
         y="-130.67"
         sodipodi:role="line"
         id="tspan9667">salt</tspan></text><text
       transform="scale(1,-1)"
       style="font-variant:normal;font-weight:normal;font-size:18.025px;font-family:AvenirNextLTPro;-inkscape-font-specification:AvenirNextLTPro;writing-mode:lr-tb;fill:#000000;fill-opacity:1;fill-rule:nonzero;stroke:none"
       id="text9681"
       x="278.38"
       y="-93.525002"><tspan
         x="278.38 291.89874 302.42535 311.41983 323.4425 333.96909 344.4957 357.27542"
         y="-93.525002"
         sodipodi:role="line"
         id="tspan9679">DELAYED,</tspan></text><path
       d="m 454.13,106.87 c 0,5.18 0.69,9.38 1.56,9.38 h 26.5 c 0.86,0 1.56,4.2 1.56,9.37 0,-5.17 0.7,-9.37 1.56,-9.37 h 26.5 c 0.87,0 1.57,-4.2 1.57,-9.38"
       style="fill:none;stroke:#00bac8;stroke-width:0.5;stroke-linecap:butt;stroke-linejoin:miter;stroke-miterlimit:10;stroke-dasharray:none;stroke-opacity:1"
       id="path9691" /><text
       transform="scale(1,-1)"
       style="font-variant:normal;font-weight:normal;font-size:18.025px;font-family:AvenirNextLTPro;-inkscape-font-specification:AvenirNextLTPro;writing-mode:lr-tb;fill:#00bac8;fill-opacity:1;fill-rule:nonzero;stroke:none"
       id="text9703"
       x="456.54999"
       y="-130.67"><tspan
         x="456.54999 467.83365 474.59302 485.10159 494.85312 500.85544"
         y="-130.67"
         sodipodi:role="line"
         id="tspan9701">breath</tspan></text><text
       transform="scale(1,-1)"
       style="font-variant:normal;font-weight:normal;font-size:18.025px;font-family:AvenirNextLTPro;-inkscape-font-specification:AvenirNextLTPro;writing-mode:lr-tb;fill:#000000;fill-opacity:1;fill-rule:nonzero;stroke:none"
       id="text9715"
       x="451.92999"
       y="-93.525002"><tspan
         x="451.92999 462.40253 473.70419 480.46356 496.23544 505.98697 510.52927"
         y="-93.525002"
         sodipodi:role="line"
         id="tspan9713">normal,</tspan></text><path
       d="m 591.38,109.87 c 0,3.32 0.44,6 0.99,6 h 17.13 c 0.55,0 1,2.69 1,6 0,-3.31 0.45,-6 1,-6 h 17.13 c 0.55,0 1,-2.68 1,-6"
       style="fill:none;stroke:#00bac8;stroke-width:0.5;stroke-linecap:butt;stroke-linejoin:miter;stroke-miterlimit:10;stroke-dasharray:none;stroke-opacity:1"
       id="path9725" /><text
       transform="scale(1,-1)"
       style="font-variant:normal;font-weight:normal;font-size:18.025px;font-family:AvenirNextLTPro;-inkscape-font-specification:AvenirNextLTPro;writing-mode:lr-tb;fill:#00bac8;fill-opacity:1;fill-rule:nonzero;stroke:none"
       id="text9737"
       x="585.20001"
       y="-130.67"><tspan
         x="585.20001 600.97186 612.20148 623.43103"
         y="-130.67"
         sodipodi:role="line"
         id="tspan9735">mood</tspan></text><text
       transform="scale(1,-1)"
       style="font-variant:normal;font-weight:normal;font-size:18.025px;font-family:AvenirNextLTPro;-inkscape-font-specification:AvenirNextLTPro;writing-mode:lr-tb;fill:#000000;fill-opacity:1;fill-rule:nonzero;stroke:none"
       id="text9749"
       x="591.08002"
       y="-93.525002"><tspan
         x="591.08002 600.09253 609.86206 614.40436 630.1402"
         y="-93.525002"
         sodipodi:role="line"
         id="tspan9747">calm,</tspan></text><path
       d="m 642.38,109.87 c 0,3.32 0.44,6 1,6 h 16.37 c 0.55,0 1,2.69 1,6 0,-3.31 0.45,-6 1,-6 h 16.38 c 0.55,0 1,-2.68 1,-6"
       style="fill:none;stroke:#00bac8;stroke-width:0.5;stroke-linecap:butt;stroke-linejoin:miter;stroke-miterlimit:10;stroke-dasharray:none;stroke-opacity:1"
       id="path9759" /><text
       transform="scale(1,-1)"
       style="font-variant:normal;font-weight:normal;font-size:18.025px;font-family:AvenirNextLTPro;-inkscape-font-specification:AvenirNextLTPro;writing-mode:lr-tb;fill:#00bac8;fill-opacity:1;fill-rule:nonzero;stroke:none"
       id="text9771"
       x="640.33002"
       y="-130.67"><tspan
         x="640.33002 651.61365 662.87927 671.1167"
         y="-130.67"
         sodipodi:role="line"
         id="tspan9769">pose</tspan></text><text
       transform="scale(1,-1)"
       style="font-variant:normal;font-weight:normal;font-size:18.025px;font-family:AvenirNextLTPro;-inkscape-font-specification:AvenirNextLTPro;writing-mode:lr-tb;fill:#000000;fill-opacity:1;fill-rule:nonzero;stroke:none"
       id="text9783"
       x="642.5"
       y="-93.525002"><tspan
         x="642.5 647.7453 658.23584 664.22015 673.95361 678.49591"
         y="-93.525002"
         sodipodi:role="line"
         id="tspan9781">fetal,</tspan></text></g></svg>
