<?xml version="1.0" encoding="UTF-8" standalone="no"?>
<svg
   xmlns:dc="http://purl.org/dc/elements/1.1/"
   xmlns:cc="http://creativecommons.org/ns#"
   xmlns:rdf="http://www.w3.org/1999/02/22-rdf-syntax-ns#"
   xmlns:svg="http://www.w3.org/2000/svg"
   xmlns="http://www.w3.org/2000/svg"
   xmlns:sodipodi="http://sodipodi.sourceforge.net/DTD/sodipodi-0.dtd"
   xmlns:inkscape="http://www.inkscape.org/namespaces/inkscape"
   version="1.1"
   id="svg14121"
   xml:space="preserve"
   width="1280"
   height="720"
   viewBox="0 0 1280 720"
   sodipodi:docname="frvrs_data_and_analysis_presentation_for_itm_slide038.svg"
   inkscape:version="1.0.2-2 (e86c870879, 2021-01-15)"
   inkscape:export-filename="C:\Users\DaveBabbitt\Documents\GitHub\itm-analysis-reporting\presentations\frvrs_data_and_analysis_presentation_for_itm\png\slide038.png"
   inkscape:export-xdpi="96"
   inkscape:export-ydpi="96"><metadata
     id="metadata14127"><rdf:RDF><cc:Work
         rdf:about=""><dc:format>image/svg+xml</dc:format><dc:type
           rdf:resource="http://purl.org/dc/dcmitype/StillImage" /><dc:title /></cc:Work></rdf:RDF></metadata><defs
     id="defs14125"><clipPath
       clipPathUnits="userSpaceOnUse"
       id="clipPath14137"><path
         d="M 0,1.2207e-4 H 960 V 540.00012 H 0 Z"
         clip-rule="evenodd"
         id="path14135" /></clipPath><linearGradient
       x1="73.199997"
       y1="498.67001"
       x2="817.20001"
       y2="498.67001"
       gradientUnits="userSpaceOnUse"
       spreadMethod="pad"
       id="linearGradient14147"><stop
         style="stop-opacity:1;stop-color:#00bac8"
         offset="0"
         id="stop14143" /><stop
         style="stop-opacity:1;stop-color:#203040"
         offset="1"
         id="stop14145" /></linearGradient><clipPath
       clipPathUnits="userSpaceOnUse"
       id="clipPath14157"><path
         d="M 76.5,473.25 H 816.75 V 520.5 H 76.5 Z"
         clip-rule="evenodd"
         id="path14155" /></clipPath><linearGradient
       x1="73.199997"
       y1="439.87"
       x2="530.82001"
       y2="439.87"
       gradientUnits="userSpaceOnUse"
       spreadMethod="pad"
       id="linearGradient14169"><stop
         style="stop-opacity:1;stop-color:#00bac8"
         offset="0"
         id="stop14165" /><stop
         style="stop-opacity:1;stop-color:#203040"
         offset="1"
         id="stop14167" /></linearGradient><clipPath
       clipPathUnits="userSpaceOnUse"
       id="clipPath14179"><path
         d="M 73.5,414 H 525 v 47.25 H 73.5 Z"
         clip-rule="evenodd"
         id="path14177" /></clipPath><clipPath
       clipPathUnits="userSpaceOnUse"
       id="clipPath14191"><path
         d="M 1.4305e-5,0 H 960.00001 V 540 H 1.4305e-5 Z"
         clip-rule="evenodd"
         id="path14189" /></clipPath><clipPath
       clipPathUnits="userSpaceOnUse"
       id="clipPath14203"><path
         d="M 1.4305e-5,0 H 960.00001 V 540 H 1.4305e-5 Z"
         clip-rule="evenodd"
         id="path14201" /></clipPath><clipPath
       clipPathUnits="userSpaceOnUse"
       id="clipPath14215"><path
         d="M 1.4305e-5,0 H 960.00001 V 540 H 1.4305e-5 Z"
         clip-rule="evenodd"
         id="path14213" /></clipPath><clipPath
       clipPathUnits="userSpaceOnUse"
       id="clipPath14227"><path
         d="M 1.4305e-5,0 H 960.00001 V 540 H 1.4305e-5 Z"
         clip-rule="evenodd"
         id="path14225" /></clipPath><clipPath
       clipPathUnits="userSpaceOnUse"
       id="clipPath14239"><path
         d="M 1.4305e-5,0 H 960.00001 V 540 H 1.4305e-5 Z"
         clip-rule="evenodd"
         id="path14237" /></clipPath><clipPath
       clipPathUnits="userSpaceOnUse"
       id="clipPath14251"><path
         d="M 1.4305e-5,0 H 960.00001 V 540 H 1.4305e-5 Z"
         clip-rule="evenodd"
         id="path14249" /></clipPath><clipPath
       clipPathUnits="userSpaceOnUse"
       id="clipPath14263"><path
         d="M 1.4305e-5,0 H 960.00001 V 540 H 1.4305e-5 Z"
         clip-rule="evenodd"
         id="path14261" /></clipPath><clipPath
       clipPathUnits="userSpaceOnUse"
       id="clipPath14275"><path
         d="M 1.4305e-5,0 H 960.00001 V 540 H 1.4305e-5 Z"
         clip-rule="evenodd"
         id="path14273" /></clipPath><clipPath
       clipPathUnits="userSpaceOnUse"
       id="clipPath14287"><path
         d="M 1.4305e-5,0 H 960.00001 V 540 H 1.4305e-5 Z"
         clip-rule="evenodd"
         id="path14285" /></clipPath><clipPath
       clipPathUnits="userSpaceOnUse"
       id="clipPath14299"><path
         d="M 1.4305e-5,0 H 960.00001 V 540 H 1.4305e-5 Z"
         clip-rule="evenodd"
         id="path14297" /></clipPath><clipPath
       clipPathUnits="userSpaceOnUse"
       id="clipPath14311"><path
         d="M 1.4305e-5,0 H 960.00001 V 540 H 1.4305e-5 Z"
         clip-rule="evenodd"
         id="path14309" /></clipPath><clipPath
       clipPathUnits="userSpaceOnUse"
       id="clipPath14323"><path
         d="M 1.4305e-5,0 H 960.00001 V 540 H 1.4305e-5 Z"
         clip-rule="evenodd"
         id="path14321" /></clipPath><clipPath
       clipPathUnits="userSpaceOnUse"
       id="clipPath14335"><path
         d="M 1.4305e-5,0 H 960.00001 V 540 H 1.4305e-5 Z"
         clip-rule="evenodd"
         id="path14333" /></clipPath><clipPath
       clipPathUnits="userSpaceOnUse"
       id="clipPath14347"><path
         d="M 1.4305e-5,0 H 960.00001 V 540 H 1.4305e-5 Z"
         clip-rule="evenodd"
         id="path14345" /></clipPath><clipPath
       clipPathUnits="userSpaceOnUse"
       id="clipPath14359"><path
         d="M 1.4305e-5,0 H 960.00001 V 540 H 1.4305e-5 Z"
         clip-rule="evenodd"
         id="path14357" /></clipPath><clipPath
       clipPathUnits="userSpaceOnUse"
       id="clipPath14371"><path
         d="M 1.4305e-5,0 H 960.00001 V 540 H 1.4305e-5 Z"
         clip-rule="evenodd"
         id="path14369" /></clipPath><clipPath
       clipPathUnits="userSpaceOnUse"
       id="clipPath14383"><path
         d="M 1.4305e-5,0 H 960.00001 V 540 H 1.4305e-5 Z"
         clip-rule="evenodd"
         id="path14381" /></clipPath><clipPath
       clipPathUnits="userSpaceOnUse"
       id="clipPath14395"><path
         d="M 1.4305e-5,0 H 960.00001 V 540 H 1.4305e-5 Z"
         clip-rule="evenodd"
         id="path14393" /></clipPath><clipPath
       clipPathUnits="userSpaceOnUse"
       id="clipPath14407"><path
         d="M 1.4305e-5,0 H 960.00001 V 540 H 1.4305e-5 Z"
         clip-rule="evenodd"
         id="path14405" /></clipPath><clipPath
       clipPathUnits="userSpaceOnUse"
       id="clipPath14419"><path
         d="M 1.4305e-5,0 H 960.00001 V 540 H 1.4305e-5 Z"
         clip-rule="evenodd"
         id="path14417" /></clipPath><clipPath
       clipPathUnits="userSpaceOnUse"
       id="clipPath14431"><path
         d="M 1.4305e-5,0 H 960.00001 V 540 H 1.4305e-5 Z"
         clip-rule="evenodd"
         id="path14429" /></clipPath><clipPath
       clipPathUnits="userSpaceOnUse"
       id="clipPath14443"><path
         d="M 1.4305e-5,0 H 960.00001 V 540 H 1.4305e-5 Z"
         clip-rule="evenodd"
         id="path14441" /></clipPath><clipPath
       clipPathUnits="userSpaceOnUse"
       id="clipPath14455"><path
         d="M 1.4305e-5,0 H 960.00001 V 540 H 1.4305e-5 Z"
         clip-rule="evenodd"
         id="path14453" /></clipPath><clipPath
       clipPathUnits="userSpaceOnUse"
       id="clipPath14467"><path
         d="M 1.4305e-5,0 H 960.00001 V 540 H 1.4305e-5 Z"
         clip-rule="evenodd"
         id="path14465" /></clipPath><clipPath
       clipPathUnits="userSpaceOnUse"
       id="clipPath14479"><path
         d="M 1.4305e-5,0 H 960.00001 V 540 H 1.4305e-5 Z"
         clip-rule="evenodd"
         id="path14477" /></clipPath><clipPath
       clipPathUnits="userSpaceOnUse"
       id="clipPath14491"><path
         d="M 1.4305e-5,0 H 960.00001 V 540 H 1.4305e-5 Z"
         clip-rule="evenodd"
         id="path14489" /></clipPath><clipPath
       clipPathUnits="userSpaceOnUse"
       id="clipPath14503"><path
         d="M 1.4305e-5,0 H 960.00001 V 540 H 1.4305e-5 Z"
         clip-rule="evenodd"
         id="path14501" /></clipPath><clipPath
       clipPathUnits="userSpaceOnUse"
       id="clipPath14515"><path
         d="M 1.4305e-5,0 H 960.00001 V 540 H 1.4305e-5 Z"
         clip-rule="evenodd"
         id="path14513" /></clipPath><clipPath
       clipPathUnits="userSpaceOnUse"
       id="clipPath14527"><path
         d="M 1.4305e-5,0 H 960.00001 V 540 H 1.4305e-5 Z"
         clip-rule="evenodd"
         id="path14525" /></clipPath><clipPath
       clipPathUnits="userSpaceOnUse"
       id="clipPath14539"><path
         d="M 1.4305e-5,0 H 960.00001 V 540 H 1.4305e-5 Z"
         clip-rule="evenodd"
         id="path14537" /></clipPath><clipPath
       clipPathUnits="userSpaceOnUse"
       id="clipPath14551"><path
         d="M 1.4305e-5,0 H 960.00001 V 540 H 1.4305e-5 Z"
         clip-rule="evenodd"
         id="path14549" /></clipPath><clipPath
       clipPathUnits="userSpaceOnUse"
       id="clipPath14563"><path
         d="M 1.4305e-5,0 H 960.00001 V 540 H 1.4305e-5 Z"
         clip-rule="evenodd"
         id="path14561" /></clipPath><clipPath
       clipPathUnits="userSpaceOnUse"
       id="clipPath14575"><path
         d="M 1.4305e-5,0 H 960.00001 V 540 H 1.4305e-5 Z"
         clip-rule="evenodd"
         id="path14573" /></clipPath><clipPath
       clipPathUnits="userSpaceOnUse"
       id="clipPath14587"><path
         d="M 1.4305e-5,0 H 960.00001 V 540 H 1.4305e-5 Z"
         clip-rule="evenodd"
         id="path14585" /></clipPath><clipPath
       clipPathUnits="userSpaceOnUse"
       id="clipPath14599"><path
         d="M 1.4305e-5,0 H 960.00001 V 540 H 1.4305e-5 Z"
         clip-rule="evenodd"
         id="path14597" /></clipPath><clipPath
       clipPathUnits="userSpaceOnUse"
       id="clipPath14611"><path
         d="M 1.4305e-5,0 H 960.00001 V 540 H 1.4305e-5 Z"
         clip-rule="evenodd"
         id="path14609" /></clipPath><clipPath
       clipPathUnits="userSpaceOnUse"
       id="clipPath14623"><path
         d="M 1.4305e-5,0 H 960.00001 V 540 H 1.4305e-5 Z"
         clip-rule="evenodd"
         id="path14621" /></clipPath><clipPath
       clipPathUnits="userSpaceOnUse"
       id="clipPath14635"><path
         d="M 1.4305e-5,0 H 960.00001 V 540 H 1.4305e-5 Z"
         clip-rule="evenodd"
         id="path14633" /></clipPath></defs><sodipodi:namedview
     pagecolor="#ffffff"
     bordercolor="#666666"
     borderopacity="1"
     objecttolerance="10"
     gridtolerance="10"
     guidetolerance="10"
     inkscape:pageopacity="0"
     inkscape:pageshadow="2"
     inkscape:window-width="1920"
     inkscape:window-height="1121"
     id="namedview14123"
     showgrid="false"
     inkscape:zoom="1.071875"
     inkscape:cx="662.88614"
     inkscape:cy="360"
     inkscape:window-x="-9"
     inkscape:window-y="611"
     inkscape:window-maximized="1"
     inkscape:current-layer="g14129"
     inkscape:document-rotation="0" /><g
     id="g14129"
     inkscape:groupmode="layer"
     inkscape:label="FRVRS - Data and Analysis Presentation for ITM"
     transform="matrix(1.3333333,0,0,-1.3333333,0,720)"><path
       d="M 0,6.1035e-5 H 960 V 540.00006 H 0 Z"
       style="fill:#ffffff;fill-opacity:1;fill-rule:evenodd;stroke:none"
       id="path14139" /><path
       d="m 255.4,500.62 c -1.55,0 -2.82,-0.59 -3.82,-1.75 -0.8,-0.95 -1.2,-2.03 -1.2,-3.25 0,-1.22 0.4,-2.3 1.2,-3.25 0.98,-1.16 2.26,-1.75 3.82,-1.75 1.4,0 2.59,0.48 3.56,1.45 0.98,0.96 1.46,2.14 1.46,3.55 0,1.39 -0.49,2.57 -1.47,3.54 -0.98,0.97 -2.16,1.46 -3.55,1.46 z m 261,0.02 c -1.55,0 -2.82,-0.59 -3.82,-1.76 -0.8,-0.96 -1.2,-2.05 -1.2,-3.27 0,-1.23 0.4,-2.32 1.2,-3.27 0.98,-1.18 2.26,-1.77 3.82,-1.77 1.4,0 2.59,0.49 3.56,1.46 0.98,0.97 1.46,2.16 1.46,3.58 0,1.4 -0.49,2.59 -1.47,3.56 -0.98,0.98 -2.16,1.47 -3.55,1.47 z m -88.17,0 c -1.4,0 -2.59,-0.48 -3.56,-1.45 -0.97,-0.97 -1.46,-2.17 -1.46,-3.58 0,-1.4 0.49,-2.59 1.47,-3.57 0.98,-0.98 2.16,-1.47 3.55,-1.47 1.57,0 2.84,0.59 3.82,1.77 0.8,0.95 1.2,2.04 1.2,3.27 0,1.25 -0.39,2.34 -1.18,3.27 -1,1.17 -2.27,1.76 -3.84,1.76 z m 224.81,0.12 c -1.61,0 -2.92,-0.6 -3.93,-1.82 -0.82,-0.97 -1.23,-2.08 -1.23,-3.32 0,-1.26 0.41,-2.38 1.23,-3.35 1.01,-1.21 2.32,-1.82 3.93,-1.82 1.44,0 2.66,0.5 3.65,1.5 1,1 1.49,2.22 1.49,3.67 0,1.43 -0.5,2.65 -1.5,3.65 -1,0.99 -2.22,1.49 -3.64,1.49 z m -195,0 c -1.61,0 -2.92,-0.6 -3.93,-1.82 -0.82,-0.97 -1.23,-2.08 -1.23,-3.32 0,-1.26 0.41,-2.38 1.23,-3.35 1.01,-1.21 2.32,-1.82 3.93,-1.82 1.44,0 2.66,0.5 3.65,1.5 1,1 1.49,2.22 1.49,3.67 0,1.43 -0.5,2.65 -1.5,3.65 -1,0.99 -2.22,1.49 -3.64,1.49 z m -333.75,0 c -1.61,0 -2.92,-0.6 -3.93,-1.82 -0.82,-0.97 -1.23,-2.08 -1.23,-3.32 0,-1.26 0.41,-2.38 1.23,-3.35 1.01,-1.21 2.32,-1.82 3.93,-1.82 1.44,0 2.66,0.5 3.65,1.5 1,1 1.49,2.22 1.49,3.67 0,1.43 -0.5,2.65 -1.5,3.65 -1,0.99 -2.22,1.49 -3.64,1.49 z m 598.54,1.6 c -1.33,0 -2.4,-0.4 -3.22,-1.19 -0.65,-0.63 -1.06,-1.48 -1.23,-2.55 h 8.87 c -0.55,2.49 -2.02,3.74 -4.42,3.74 z m -177,0 c -1.33,0 -2.4,-0.4 -3.22,-1.19 -0.65,-0.63 -1.06,-1.48 -1.23,-2.55 h 8.87 c -0.55,2.49 -2.02,3.74 -4.42,3.74 z m -168,0 c -1.33,0 -2.4,-0.4 -3.22,-1.19 -0.65,-0.63 -1.06,-1.48 -1.23,-2.55 h 8.87 c -0.55,2.49 -2.02,3.74 -4.42,3.74 z m 408.62,4.3 h 9.07 l 5.9,-11.33 5.74,11.33 h 8.95 l -17.73,-33.13 h -8.76 l 7.49,14.07 z m -487.5,0 h 9.07 l 5.9,-11.33 5.74,11.33 h 8.95 l -17.73,-33.13 h -8.76 l 7.49,14.07 z m -159.75,0 h 8.71 l 5.29,-11.64 5.54,11.64 h 4.91 l 5.52,-11.97 5.55,11.97 h 8.68 l -11.57,-22.09 h -5.21 l -5.52,12.12 -5.28,-12.12 h -5.27 z m 566.71,0.31 c 0.42,0 0.92,-0.02 1.52,-0.07 v -7.42 c -1.09,0.52 -2.2,0.78 -3.32,0.78 -2.56,0 -4.23,-1.05 -4.99,-3.16 -0.28,-0.77 -0.42,-1.79 -0.42,-3.07 v -9.46 h -7.83 v 22.09 h 7.83 v -3.61 c 0.82,1.28 1.71,2.21 2.66,2.78 1.28,0.76 2.8,1.14 4.55,1.14 z m -20.25,0 c 0.42,0 0.92,-0.02 1.52,-0.07 v -7.42 c -1.09,0.52 -2.2,0.78 -3.32,0.78 -2.56,0 -4.23,-1.05 -4.99,-3.16 -0.28,-0.77 -0.42,-1.79 -0.42,-3.07 v -9.46 h -7.83 v 22.09 h 7.83 v -3.61 c 0.82,1.28 1.71,2.21 2.66,2.78 1.28,0.76 2.8,1.14 4.55,1.14 z m -108.75,0 c 0.42,0 0.92,-0.02 1.52,-0.07 v -7.42 c -1.09,0.52 -2.2,0.78 -3.32,0.78 -2.56,0 -4.23,-1.05 -4.99,-3.16 -0.28,-0.77 -0.42,-1.79 -0.42,-3.07 v -9.46 h -7.83 v 22.09 h 7.83 v -3.61 c 0.82,1.28 1.71,2.21 2.66,2.78 1.28,0.76 2.8,1.14 4.55,1.14 z m -216,0 c 0.42,0 0.92,-0.02 1.52,-0.07 v -7.42 c -1.09,0.52 -2.2,0.78 -3.32,0.78 -2.56,0 -4.23,-1.05 -4.99,-3.16 -0.28,-0.77 -0.42,-1.79 -0.42,-3.07 v -9.46 h -7.83 v 22.09 h 7.83 v -3.61 c 0.82,1.28 1.71,2.21 2.66,2.78 1.28,0.76 2.8,1.14 4.55,1.14 z m -130.61,0.08 c 1.65,0 3.12,-0.4 4.41,-1.19 1.38,-0.88 2.29,-2.06 2.72,-3.55 0.25,-0.91 0.38,-2.03 0.38,-3.38 v -14.36 h -7.83 v 10.91 c 0,1.91 -0.2,3.21 -0.6,3.9 -0.58,1.03 -1.47,1.55 -2.64,1.55 -1.3,0 -2.3,-0.56 -3,-1.69 -0.49,-0.79 -0.74,-2.04 -0.74,-3.76 v -10.91 h -7.83 v 10.91 c 0,1.91 -0.16,3.14 -0.47,3.71 -0.64,1.14 -1.61,1.71 -2.93,1.71 -1.22,0 -2.18,-0.49 -2.86,-1.47 -0.25,-0.35 -0.43,-0.83 -0.55,-1.44 -0.11,-0.61 -0.16,-1.44 -0.16,-2.51 v -10.91 h -7.83 v 22.09 h 7.83 v -2.71 c 0.92,0.89 1.76,1.54 2.52,1.95 1.39,0.75 2.93,1.12 4.63,1.12 2.18,0 3.99,-0.56 5.44,-1.69 0.73,-0.57 1.43,-1.38 2.09,-2.43 0.61,0.99 1.28,1.77 2.03,2.34 1.57,1.2 3.37,1.81 5.39,1.81 z m 260.28,0.09 c 2.37,0 4.31,-0.64 5.8,-1.93 1.69,-1.46 2.54,-3.65 2.54,-6.57 v -14.07 h -7.83 v 11.18 c 0,1.95 -0.22,3.24 -0.66,3.87 -0.65,0.94 -1.62,1.4 -2.91,1.4 -1.19,0 -2.18,-0.4 -2.98,-1.2 -0.73,-0.73 -1.09,-1.87 -1.09,-3.41 v -11.84 h -7.83 v 22.09 h 7.83 v -2.78 c 0.9,1.05 1.73,1.79 2.49,2.21 1.24,0.7 2.78,1.05 4.64,1.05 z m -202.5,0 c 2.37,0 4.31,-0.64 5.8,-1.93 1.69,-1.46 2.54,-3.65 2.54,-6.57 v -14.07 h -7.83 v 11.18 c 0,1.95 -0.22,3.24 -0.66,3.87 -0.65,0.94 -1.62,1.4 -2.91,1.4 -1.19,0 -2.18,-0.4 -2.98,-1.2 -0.73,-0.73 -1.09,-1.87 -1.09,-3.41 v -11.84 h -7.83 v 22.09 h 7.83 v -2.78 c 0.9,1.05 1.73,1.79 2.49,2.21 1.24,0.7 2.78,1.05 4.64,1.05 z m 434.44,0.14 c 4.81,0 8.24,-1.75 10.31,-5.24 1.15,-1.97 1.73,-4.26 1.73,-6.87 v -1 h -16.4 c 0,-3.32 1.6,-4.98 4.78,-4.98 1.63,0 2.88,0.7 3.74,2.1 h 7.57 c -0.6,-2 -1.49,-3.54 -2.66,-4.63 -2.13,-1.98 -4.98,-2.97 -8.55,-2.97 -4.54,0 -7.95,1.38 -10.23,4.15 -1.72,2.06 -2.57,4.57 -2.57,7.54 0,3.52 1.07,6.39 3.21,8.59 2.14,2.21 5.16,3.31 9.07,3.31 z m -177,0 c 4.81,0 8.24,-1.75 10.3,-5.24 1.16,-1.97 1.74,-4.26 1.74,-6.87 v -1 h -16.4 c 0,-3.32 1.6,-4.98 4.78,-4.98 1.63,0 2.88,0.7 3.74,2.1 h 7.57 c -0.6,-2 -1.49,-3.54 -2.66,-4.63 -2.13,-1.98 -4.98,-2.97 -8.55,-2.97 -4.54,0 -7.95,1.38 -10.23,4.15 -1.72,2.06 -2.57,4.57 -2.57,7.54 0,3.52 1.07,6.39 3.21,8.59 2.14,2.21 5.16,3.31 9.07,3.31 z m -168,0 c 4.81,0 8.24,-1.75 10.3,-5.24 1.16,-1.97 1.74,-4.26 1.74,-6.87 v -1 h -16.4 c 0,-3.32 1.6,-4.98 4.78,-4.98 1.63,0 2.88,0.7 3.74,2.1 h 7.57 c -0.6,-2 -1.49,-3.54 -2.66,-4.63 -2.13,-1.98 -4.98,-2.97 -8.55,-2.97 -4.54,0 -7.95,1.38 -10.23,4.15 -1.72,2.06 -2.57,4.57 -2.57,7.54 0,3.52 1.07,6.39 3.21,8.59 2.14,2.21 5.16,3.31 9.07,3.31 z m 372.91,0.08 c 1.81,0 3.51,-0.42 5.1,-1.24 v -6.64 c -1.38,0.96 -2.72,1.45 -4.04,1.45 -1.55,0 -2.83,-0.5 -3.84,-1.5 -1.02,-1 -1.52,-2.28 -1.52,-3.83 0,-1.56 0.5,-2.84 1.52,-3.84 1.01,-1 2.29,-1.5 3.84,-1.5 1.3,0 2.65,0.48 4.04,1.43 v -6.64 c -1.62,-0.81 -3.32,-1.21 -5.1,-1.21 -4.03,0 -7.22,1.36 -9.59,4.09 -1.9,2.21 -2.85,4.76 -2.85,7.67 0,2.92 0.95,5.47 2.85,7.66 2.37,2.73 5.56,4.1 9.59,4.1 z m -119.25,0 c 1.81,0 3.51,-0.42 5.1,-1.24 v -6.64 c -1.38,0.96 -2.72,1.45 -4.04,1.45 -1.55,0 -2.83,-0.5 -3.84,-1.5 -1.02,-1 -1.52,-2.28 -1.52,-3.83 0,-1.56 0.5,-2.84 1.52,-3.84 1.01,-1 2.29,-1.5 3.84,-1.5 1.3,0 2.65,0.48 4.04,1.43 v -6.64 c -1.62,-0.81 -3.32,-1.21 -5.1,-1.21 -4.03,0 -7.22,1.36 -9.59,4.09 -1.9,2.21 -2.85,4.76 -2.85,7.67 0,2.92 0.95,5.47 2.85,7.66 2.37,2.73 5.56,4.1 9.59,4.1 z m -200.93,0 c 2.74,0 5.18,-0.95 7.32,-2.83 2.55,-2.26 3.83,-5.24 3.83,-8.95 0,-3.77 -1.31,-6.78 -3.93,-9.03 -2.07,-1.79 -4.46,-2.69 -7.15,-2.69 -1.57,0 -3.05,0.33 -4.42,1 -0.8,0.38 -1.61,1.01 -2.45,1.88 v -13.21 h -7.83 v 33.13 h 7.83 v -2.47 c 0.69,0.92 1.45,1.6 2.26,2.05 1.33,0.74 2.84,1.12 4.54,1.12 z m -176.94,0 c 1.57,0 3.05,-0.33 4.42,-0.98 0.8,-0.38 1.61,-1.01 2.45,-1.88 v 2.16 h 7.83 v -22.09 h -7.83 v 2.46 c -0.74,-0.94 -1.49,-1.62 -2.26,-2.05 -1.33,-0.75 -2.84,-1.12 -4.54,-1.12 -2.74,0 -5.18,0.94 -7.32,2.83 -2.55,2.25 -3.82,5.23 -3.82,8.94 0,3.77 1.3,6.79 3.92,9.04 2.07,1.79 4.46,2.69 7.15,2.69 z m 338.97,0.09 c 2.46,0 4.85,-0.48 7.17,-1.43 l -2.65,-5.04 c -1.45,0.76 -2.84,1.14 -4.17,1.14 -1.57,0 -2.35,-0.55 -2.35,-1.63 0,-0.5 0.32,-0.9 0.95,-1.2 0.29,-0.15 1.12,-0.36 2.52,-0.65 2.04,-0.43 3.54,-1.11 4.51,-2.04 1.22,-1.18 1.83,-2.7 1.83,-4.57 0,-2.35 -0.84,-4.27 -2.53,-5.76 -1.88,-1.69 -4.54,-2.53 -7.97,-2.53 -3.03,0 -5.97,0.85 -8.83,2.55 l 2.83,5.52 c 2.23,-1.46 4.31,-2.19 6.22,-2.19 1.63,0 2.45,0.56 2.45,1.69 0,0.59 -0.29,1.04 -0.86,1.36 -0.36,0.2 -1.19,0.45 -2.47,0.74 -1.44,0.31 -2.38,0.56 -2.82,0.73 -1.59,0.62 -2.66,1.59 -3.21,2.9 -0.3,0.71 -0.45,1.57 -0.45,2.57 0,1.93 0.66,3.62 1.97,5.06 1.7,1.85 4.32,2.78 7.86,2.78 z m -188.25,0 c 2.46,0 4.85,-0.48 7.17,-1.43 l -2.65,-5.04 c -1.45,0.76 -2.84,1.14 -4.17,1.14 -1.57,0 -2.35,-0.55 -2.35,-1.63 0,-0.5 0.32,-0.9 0.95,-1.2 0.29,-0.15 1.12,-0.36 2.52,-0.65 2.04,-0.43 3.54,-1.11 4.51,-2.04 1.22,-1.18 1.83,-2.7 1.83,-4.57 0,-2.35 -0.84,-4.27 -2.53,-5.76 -1.88,-1.69 -4.54,-2.53 -7.97,-2.53 -3.03,0 -5.97,0.85 -8.83,2.55 l 2.83,5.52 c 2.23,-1.46 4.31,-2.19 6.22,-2.19 1.63,0 2.45,0.56 2.45,1.69 0,0.59 -0.29,1.04 -0.86,1.36 -0.36,0.2 -1.19,0.45 -2.47,0.74 -1.44,0.31 -2.38,0.56 -2.82,0.73 -1.59,0.62 -2.66,1.59 -3.21,2.9 -0.3,0.71 -0.45,1.57 -0.45,2.57 0,1.93 0.66,3.62 1.97,5.06 1.7,1.85 4.32,2.78 7.86,2.78 z m 249.25,0.02 c 4.17,0 7.51,-1.34 10,-4.02 2.03,-2.19 3.04,-4.8 3.04,-7.83 0,-3.06 -1,-5.69 -3.02,-7.88 -2.44,-2.67 -5.86,-4 -10.26,-4 -4.41,0 -7.84,1.33 -10.28,4 -2.02,2.19 -3.02,4.88 -3.02,8.07 0,2.87 1.01,5.42 3.04,7.64 2.46,2.68 5.96,4.02 10.5,4.02 z m -195,0 c 4.17,0 7.51,-1.34 10,-4.02 2.03,-2.19 3.04,-4.8 3.04,-7.83 0,-3.06 -1,-5.69 -3.02,-7.88 -2.44,-2.67 -5.86,-4 -10.26,-4 -4.41,0 -7.84,1.33 -10.28,4 -2.02,2.19 -3.02,4.88 -3.02,8.07 0,2.87 1.01,5.42 3.04,7.64 2.46,2.68 5.96,4.02 10.5,4.02 z m -333.75,0 c 4.17,0 7.51,-1.34 10,-4.02 2.03,-2.19 3.04,-4.8 3.04,-7.83 0,-3.06 -1,-5.69 -3.02,-7.88 -2.44,-2.67 -5.86,-4 -10.26,-4 -4.41,0 -7.84,1.33 -10.28,4 -2.02,2.19 -3.02,4.88 -3.02,8.07 0,2.87 1.01,5.42 3.04,7.64 2.46,2.68 5.96,4.02 10.5,4.02 z m 636.24,5.84 h 7.83 v -6.65 h 4.45 v -6.4 h -4.45 v -15.69 h -7.83 v 15.69 h -2.57 v 6.4 h 2.57 z m -684.166,3.76 h 8.45 v -12.55 h 12.188 v 12.55 h 8.448 v -32.5 H 97.242 V 498.1 H 85.054 v -13.53 h -8.45 z m 699.016,3.26 h 7.83 v -35.76 h -7.83 z m -254.44,0 h 7.83 v -35.76 h -7.83 v 2.46 c -0.74,-0.94 -1.49,-1.62 -2.26,-2.05 -1.33,-0.75 -2.84,-1.12 -4.54,-1.12 -2.74,0 -5.18,0.94 -7.32,2.83 -2.55,2.25 -3.82,5.23 -3.82,8.94 0,3.77 1.3,6.79 3.92,9.04 2.07,1.79 4.46,2.69 7.15,2.69 1.57,0 3.05,-0.34 4.42,-1 0.8,-0.39 1.61,-1.01 2.45,-1.89 z"
       style="fill:url(#linearGradient14147);fill-opacity:1;fill-rule:evenodd;stroke:none"
       id="path14149" /><text
       transform="scale(1,-1)"
       style="font-variant:normal;font-weight:bold;font-size:48.825px;font-family:Aharoni;-inkscape-font-specification:Aharoni-Bold;writing-mode:lr-tb;fill:#000000;fill-opacity:0;fill-rule:nonzero;stroke:none"
       id="text14161"
       x="73.25"
       y="-484.5"><tspan
         x="73.25 109.23402 139.31023 183.5945 197.85141 240.6221 270.6983 299.35858 329.19064 343.39871 363.61227 391.39371 413.16965 443.19702 473.2244 501.88467 531.76556 559.547 579.76056 601.5365 617.25818 638.39935 668.3291 688.54266 708.75623 736.5376 757.67883 773.35168 786.82739 816.80591"
         y="-484.5"
         sodipodi:role="line"
         id="tspan14159">How many responders correctly </tspan></text><path
       d="m 516.63,430.47 c 0.78,0 1.44,-0.28 1.99,-0.84 0.55,-0.56 0.83,-1.23 0.83,-2.01 0,-0.78 -0.28,-1.44 -0.83,-1.97 -0.55,-0.53 -1.21,-0.8 -1.99,-0.8 -0.8,0 -1.47,0.27 -2.02,0.8 -0.55,0.53 -0.83,1.19 -0.83,1.97 0,0.78 0.28,1.45 0.83,2.01 0.55,0.56 1.22,0.84 2.02,0.84 z m -148.73,10.9 c -1.55,0 -2.82,-0.59 -3.82,-1.75 -0.8,-0.95 -1.2,-2.03 -1.2,-3.25 0,-1.22 0.4,-2.3 1.2,-3.25 0.98,-1.16 2.26,-1.75 3.82,-1.75 1.4,0 2.59,0.48 3.56,1.45 0.98,0.96 1.46,2.14 1.46,3.55 0,1.39 -0.49,2.57 -1.47,3.54 -0.98,0.97 -2.16,1.46 -3.55,1.46 z m -100.5,0 c -1.55,0 -2.82,-0.59 -3.82,-1.75 -0.8,-0.95 -1.2,-2.03 -1.2,-3.25 0,-1.22 0.4,-2.3 1.2,-3.25 0.98,-1.16 2.26,-1.75 3.82,-1.75 1.4,0 2.59,0.48 3.56,1.45 0.98,0.96 1.46,2.14 1.46,3.55 0,1.39 -0.49,2.57 -1.47,3.54 -0.98,0.97 -2.16,1.46 -3.55,1.46 z m -163.5,0 c -1.55,0 -2.82,-0.59 -3.82,-1.75 -0.801,-0.95 -1.204,-2.03 -1.204,-3.25 0,-1.22 0.403,-2.3 1.204,-3.25 0.98,-1.16 2.26,-1.75 3.82,-1.75 1.4,0 2.59,0.48 3.56,1.45 0.98,0.96 1.46,2.14 1.46,3.55 0,1.39 -0.49,2.57 -1.47,3.54 -0.98,0.97 -2.16,1.46 -3.55,1.46 z m 234.33,0.02 c -1.4,0 -2.59,-0.48 -3.56,-1.45 -0.97,-0.97 -1.46,-2.17 -1.46,-3.58 0,-1.4 0.49,-2.59 1.47,-3.57 0.98,-0.98 2.16,-1.47 3.55,-1.47 1.57,0 2.84,0.59 3.82,1.77 0.8,0.95 1.2,2.04 1.2,3.27 0,1.25 -0.39,2.34 -1.18,3.27 -1,1.17 -2.27,1.76 -3.84,1.76 z m -116.58,0 c -1.55,0 -2.82,-0.59 -3.82,-1.76 -0.8,-0.96 -1.2,-2.05 -1.2,-3.27 0,-1.23 0.4,-2.32 1.2,-3.27 0.98,-1.18 2.26,-1.77 3.82,-1.77 1.4,0 2.59,0.49 3.56,1.46 0.98,0.97 1.46,2.16 1.46,3.58 0,1.4 -0.49,2.59 -1.47,3.57 -0.98,0.97 -2.16,1.46 -3.55,1.46 z m -57.75,0.22 c -1.56,0 -2.84,-0.61 -3.84,-1.81 -0.79,-0.97 -1.18,-2.09 -1.18,-3.36 0,-1.41 0.48,-2.62 1.45,-3.63 0.97,-1.01 2.16,-1.51 3.57,-1.51 1.39,0 2.57,0.5 3.54,1.51 0.97,1.01 1.46,2.22 1.46,3.63 0,1.41 -0.48,2.63 -1.45,3.64 -0.96,1.02 -2.15,1.53 -3.55,1.53 z m -30,0 c -1.56,0 -2.84,-0.61 -3.84,-1.81 -0.79,-0.97 -1.18,-2.09 -1.18,-3.36 0,-1.41 0.48,-2.62 1.45,-3.63 0.97,-1.01 2.16,-1.51 3.57,-1.51 1.39,0 2.57,0.5 3.54,1.51 0.97,1.01 1.46,2.22 1.46,3.63 0,1.41 -0.48,2.63 -1.45,3.64 -0.96,1.02 -2.15,1.53 -3.55,1.53 z m 292.68,1.5 c -1.33,0 -2.4,-0.4 -3.22,-1.19 -0.65,-0.63 -1.06,-1.48 -1.23,-2.55 H 431 c -0.55,2.49 -2.02,3.74 -4.42,3.74 z m -233.25,0 c -1.33,0 -2.4,-0.4 -3.22,-1.19 -0.65,-0.63 -1.06,-1.48 -1.23,-2.55 h 8.87 c -0.55,2.49 -2.02,3.74 -4.42,3.74 z m 208.01,4.3 h 7.83 v -22.09 h -7.83 z m 56.24,0.48 c 2.37,0 4.31,-0.64 5.8,-1.93 1.69,-1.46 2.54,-3.65 2.54,-6.57 v -14.07 h -7.83 v 11.18 c 0,1.95 -0.22,3.24 -0.66,3.87 -0.65,0.94 -1.62,1.4 -2.91,1.4 -1.19,0 -2.18,-0.4 -2.98,-1.2 -0.73,-0.73 -1.09,-1.87 -1.09,-3.41 v -11.84 h -7.83 v 22.09 h 7.83 v -2.78 c 0.9,1.05 1.73,1.79 2.49,2.21 1.24,0.7 2.78,1.05 4.64,1.05 z m -31.31,0.14 c 4.81,0 8.24,-1.75 10.3,-5.24 1.16,-1.97 1.74,-4.26 1.74,-6.87 v -1 h -16.4 c 0,-3.32 1.6,-4.98 4.78,-4.98 1.63,0 2.88,0.7 3.74,2.1 H 438 c -0.6,-2 -1.49,-3.54 -2.66,-4.63 -2.13,-1.98 -4.98,-2.97 -8.55,-2.97 -4.54,0 -7.95,1.38 -10.23,4.15 -1.72,2.06 -2.57,4.57 -2.57,7.54 0,3.52 1.07,6.39 3.21,8.59 2.14,2.21 5.16,3.31 9.07,3.31 z m -233.25,0 c 4.81,0 8.24,-1.75 10.31,-5.24 1.15,-1.97 1.73,-4.26 1.73,-6.87 v -1 h -16.4 c 0,-3.32 1.6,-4.98 4.78,-4.98 1.63,0 2.88,0.7 3.74,2.1 h 7.57 c -0.6,-2 -1.49,-3.54 -2.66,-4.63 -2.13,-1.98 -4.98,-2.97 -8.55,-2.97 -4.54,0 -7.95,1.38 -10.23,4.15 -1.72,2.06 -2.57,4.57 -2.57,7.54 0,3.52 1.07,6.39 3.21,8.59 2.14,2.21 5.16,3.31 9.07,3.31 z m -31.11,0 c 1.6,0 3.02,-0.32 4.28,-0.97 0.74,-0.4 1.52,-1.05 2.33,-1.95 v 2.3 h 7.83 v -20.56 c 0,-1.94 -0.14,-3.5 -0.41,-4.69 -0.43,-1.91 -1.54,-3.61 -3.33,-5.12 -2.27,-1.9 -5.28,-2.86 -9.04,-2.86 -3.94,0 -7.07,1.04 -9.41,3.12 -1.55,1.38 -2.54,2.83 -2.97,4.34 -0.05,0.15 -0.11,0.49 -0.19,1 h 8.76 c 0.25,-0.73 0.59,-1.25 1.02,-1.56 0.7,-0.52 1.59,-0.78 2.67,-0.78 1.81,0 3.19,0.64 4.16,1.92 0.61,0.81 0.91,1.97 0.91,3.47 v 2.09 c -0.94,-0.86 -1.72,-1.46 -2.36,-1.81 -1.31,-0.73 -2.87,-1.1 -4.66,-1.1 -2.25,0 -4.26,0.58 -6.03,1.74 -1.83,1.19 -3.13,2.82 -3.93,4.88 -0.54,1.4 -0.8,2.91 -0.8,4.55 0,3.61 1.14,6.56 3.44,8.83 2.14,2.11 4.72,3.16 7.73,3.16 z m -30,0 c 1.6,0 3.02,-0.32 4.28,-0.97 0.74,-0.4 1.52,-1.05 2.33,-1.95 v 2.3 h 7.83 v -20.56 c 0,-1.94 -0.14,-3.5 -0.41,-4.69 -0.43,-1.91 -1.54,-3.61 -3.33,-5.12 -2.27,-1.9 -5.28,-2.86 -9.04,-2.86 -3.94,0 -7.07,1.04 -9.41,3.12 -1.55,1.38 -2.54,2.83 -2.97,4.34 -0.05,0.15 -0.11,0.49 -0.19,1 h 8.76 c 0.25,-0.73 0.59,-1.25 1.02,-1.56 0.7,-0.52 1.59,-0.78 2.67,-0.78 1.81,0 3.19,0.64 4.16,1.92 0.61,0.81 0.91,1.97 0.91,3.47 v 2.09 c -0.94,-0.86 -1.72,-1.46 -2.36,-1.81 -1.31,-0.73 -2.87,-1.1 -4.66,-1.1 -2.25,0 -4.26,0.58 -6.03,1.74 -1.83,1.19 -3.13,2.82 -3.93,4.88 -0.54,1.4 -0.8,2.91 -0.8,4.55 0,3.61 1.14,6.56 3.44,8.83 2.14,2.11 4.72,3.16 7.73,3.16 z m 233.9,0.08 c 1.57,0 3.05,-0.33 4.42,-0.98 0.8,-0.38 1.61,-1.01 2.45,-1.88 v 2.16 h 7.83 v -22.09 h -7.83 v 2.46 c -0.74,-0.94 -1.49,-1.62 -2.26,-2.05 -1.33,-0.75 -2.84,-1.12 -4.54,-1.12 -2.74,0 -5.18,0.94 -7.32,2.83 -2.55,2.25 -3.82,5.23 -3.82,8.94 0,3.77 1.3,6.79 3.92,9.04 2.07,1.79 4.46,2.69 7.15,2.69 z m -25.56,0 c 2.74,0 5.18,-0.95 7.32,-2.83 2.55,-2.26 3.83,-5.24 3.83,-8.95 0,-3.77 -1.31,-6.78 -3.93,-9.03 -2.07,-1.79 -4.46,-2.69 -7.15,-2.69 -1.57,0 -3.05,0.33 -4.42,1 -0.8,0.38 -1.61,1.01 -2.45,1.88 v -13.21 h -7.83 v 33.13 h 7.83 v -2.47 c 0.69,0.92 1.45,1.6 2.26,2.05 1.33,0.74 2.84,1.12 4.54,1.12 z m -74.94,0 c 1.57,0 3.05,-0.33 4.42,-0.98 0.8,-0.38 1.61,-1.01 2.45,-1.88 v 2.16 h 7.83 v -22.09 h -7.83 v 2.46 c -0.74,-0.94 -1.49,-1.62 -2.26,-2.05 -1.33,-0.75 -2.84,-1.12 -4.54,-1.12 -2.74,0 -5.18,0.94 -7.32,2.83 -2.55,2.25 -3.82,5.23 -3.82,8.94 0,3.77 1.3,6.79 3.92,9.04 2.07,1.79 4.46,2.69 7.15,2.69 z m -163.5,0 c 1.57,0 3.05,-0.33 4.42,-0.98 0.8,-0.38 1.61,-1.01 2.45,-1.88 v 2.16 h 7.83 v -22.09 h -7.83 v 2.46 c -0.74,-0.94 -1.49,-1.62 -2.26,-2.05 -1.33,-0.75 -2.84,-1.12 -4.54,-1.12 -2.737,0 -5.178,0.94 -7.318,2.83 -2.551,2.25 -3.827,5.23 -3.827,8.94 0,3.77 1.308,6.79 3.923,9.04 2.076,1.79 4.461,2.69 7.152,2.69 z m 395.22,0.09 c 2.46,0 4.85,-0.48 7.17,-1.43 l -2.65,-5.04 c -1.45,0.76 -2.84,1.14 -4.17,1.14 -1.57,0 -2.35,-0.55 -2.35,-1.63 0,-0.5 0.32,-0.9 0.95,-1.2 0.29,-0.15 1.12,-0.36 2.52,-0.65 2.04,-0.43 3.54,-1.11 4.51,-2.04 1.22,-1.18 1.83,-2.7 1.83,-4.57 0,-2.35 -0.84,-4.27 -2.53,-5.76 -1.88,-1.69 -4.54,-2.53 -7.97,-2.53 -3.03,0 -5.97,0.85 -8.83,2.55 l 2.83,5.52 c 2.23,-1.46 4.31,-2.19 6.22,-2.19 1.63,0 2.45,0.56 2.45,1.69 0,0.59 -0.29,1.04 -0.86,1.36 -0.36,0.2 -1.19,0.45 -2.47,0.74 -1.44,0.31 -2.38,0.56 -2.82,0.73 -1.59,0.62 -2.66,1.59 -3.21,2.9 -0.3,0.71 -0.45,1.57 -0.45,2.57 0,1.93 0.66,3.62 1.97,5.06 1.7,1.85 4.32,2.78 7.86,2.78 z m 19.22,0.05 c 2.47,0 4.49,-0.76 6.05,-2.28 1.56,-1.52 2.34,-3.44 2.34,-5.78 0,-2.5 -0.75,-4.43 -2.23,-5.82 -1.11,-1.05 -2.24,-1.57 -3.39,-1.57 v -1.26 h -4.81 v 5.83 c 0.86,-0.37 1.53,-0.55 2.01,-0.55 0.94,0 1.73,0.33 2.37,0.97 0.63,0.65 0.95,1.44 0.95,2.35 0,0.92 -0.33,1.71 -0.99,2.36 -0.67,0.66 -1.44,0.99 -2.3,0.99 -0.78,0 -1.51,-0.3 -2.19,-0.91 -0.68,-0.6 -1.06,-1.29 -1.16,-2.07 l -4.95,0.65 c 0.41,2.02 1.32,3.67 2.72,4.96 1.52,1.42 3.38,2.13 5.58,2.13 z m -44.23,5.81 h 7.83 v -6.65 h 4.45 v -6.4 h -4.45 v -15.69 h -7.83 v 15.69 h -2.57 v 6.4 h 2.57 z m -85.5,0 h 7.83 v -6.65 h 4.45 v -6.4 h -4.45 v -15.69 h -7.83 v 15.69 h -2.57 v 6.4 h 2.57 z m -309.749,0 h 7.831 v -6.65 h 4.451 v -6.4 h -4.451 v -15.69 h -7.831 v 15.69 H 74.2 v 6.4 h 2.571 z m 328.489,6.21 c 1.22,0 2.25,-0.42 3.11,-1.27 0.85,-0.85 1.28,-1.88 1.28,-3.1 0,-1.23 -0.42,-2.27 -1.27,-3.12 -0.85,-0.85 -1.89,-1.27 -3.12,-1.27 -1.22,0 -2.25,0.43 -3.1,1.28 -0.85,0.86 -1.27,1.89 -1.27,3.11 0,1.22 0.42,2.25 1.27,3.1 0.85,0.85 1.88,1.27 3.1,1.27 z m -106.64,0.81 h 7.83 v -35.76 h -7.83 z m -13.5,0 h 7.83 v -35.76 h -7.83 z m -58.69,0 h 7.83 v -35.76 h -7.83 v 2.46 c -0.74,-0.94 -1.49,-1.62 -2.26,-2.05 -1.33,-0.75 -2.84,-1.12 -4.54,-1.12 -2.74,0 -5.18,0.94 -7.32,2.83 -2.55,2.25 -3.82,5.23 -3.82,8.94 0,3.77 1.3,6.79 3.92,9.04 2.07,1.79 4.46,2.69 7.15,2.69 1.57,0 3.05,-0.34 4.42,-1 0.8,-0.39 1.61,-1.01 2.45,-1.89 z"
       style="fill:url(#linearGradient14169);fill-opacity:1;fill-rule:evenodd;stroke:none"
       id="path14171" /><text
       transform="scale(1,-1)"
       style="font-variant:normal;font-weight:bold;font-size:48.825px;font-family:Aharoni;-inkscape-font-specification:Aharoni-Bold;writing-mode:lr-tb;fill:#000000;fill-opacity:0;fill-rule:nonzero;stroke:none"
       id="text14183"
       x="73.25"
       y="-425.17001"><tspan
         x="73.25 89.020477 119.04785 149.17288 179.1026 206.88402 236.91141 252.63306 282.66043 296.13611 309.61182 323.13635 353.16373 383.1911 398.96158 412.43729 440.21869 468.87897 484.50296 506.27893"
         y="-425.17001"
         sodipodi:role="line"
         id="tspan14181">tagged all patients?</tspan></text><text
       transform="scale(1,-1)"
       style="font-variant:normal;font-weight:normal;font-size:20.275px;font-family:AvenirNextLTPro;-inkscape-font-specification:AvenirNextLTPro;writing-mode:lr-tb;fill:#203040;fill-opacity:1;fill-rule:nonzero;stroke:none"
       id="text14195"
       x="73.25"
       y="-364.57999"><tspan
         x="73.25 85.275497"
         y="-364.57999"
         sodipodi:role="line"
         id="tspan14193">1.</tspan></text><text
       transform="scale(1,-1)"
       style="font-variant:normal;font-weight:normal;font-size:20.275px;font-family:AvenirNextLTPro;-inkscape-font-specification:AvenirNextLTPro;writing-mode:lr-tb;white-space:pre;inline-size:772.542;fill:#000000;fill-opacity:1;fill-rule:nonzero;stroke:none"
       id="text-create-a-tag"
       x="109.27"
       y="-364.57999"
       xml:space="preserve"><tspan
         x="109.27"
         y="-364.57999"><tspan>Create a tag-to-SALT data frame by iterating through each patient </tspan></tspan><tspan
         x="109.27"
         y="-339.23624"><tspan>of each scene of each session of the FRVRS logs data frame</tspan></tspan></text><text
       transform="scale(1,-1)"
       style="font-variant:normal;font-weight:normal;font-size:18.025px;font-family:AvenirNextLTPro;-inkscape-font-specification:AvenirNextLTPro;writing-mode:lr-tb;fill:#203040;fill-opacity:1;fill-rule:nonzero;stroke:none"
       id="text14279"
       x="109.27"
       y="-312.75"><tspan
         x="109.27 119.04535"
         y="-312.75"
         sodipodi:role="line"
         id="tspan14277">a.</tspan></text><text
       transform="scale(1,-1)"
       style="font-variant:normal;font-weight:normal;font-size:18.025px;font-family:AvenirNextLTPro;-inkscape-font-specification:AvenirNextLTPro;writing-mode:lr-tb;fill:#000000;fill-opacity:1;fill-rule:nonzero;stroke:none"
       id="text-add-the-tag-applied"
       x="145.3"
       y="-312.75"><tspan
         x="145.3 158.06171 169.34535 180.629 185.13525 191.15559 201.66417"
         y="-312.75"
         sodipodi:role="line"
         id="tspan14289">Add the <tspan
   style="font-style:italic;font-variant:normal;font-weight:normal;font-stretch:normal;font-size:18.025px;font-family:AvenirNextLTPro;-inkscape-font-specification:'AvenirNextLTPro, Italic';font-variant-ligatures:normal;font-variant-caps:normal;font-variant-numeric:normal;font-variant-east-asian:normal"
   id="tspan2398">TAG_APPLIED</tspan> tag and <tspan
   style="font-style:italic;font-variant:normal;font-weight:normal;font-stretch:normal;font-size:18.025px;font-family:AvenirNextLTPro;-inkscape-font-specification:'AvenirNextLTPro, Italic';font-variant-ligatures:normal;font-variant-caps:normal;font-variant-numeric:normal;font-variant-east-asian:normal"
   id="tspan2400">PATIENT_RECORD</tspan> SALT values for this patient</tspan></text><text
       transform="scale(1,-1)"
       style="font-variant:normal;font-weight:normal;font-size:18.025px;font-family:AvenirNextLTPro;-inkscape-font-specification:AvenirNextLTPro;writing-mode:lr-tb;fill:#203040;fill-opacity:1;fill-rule:nonzero;stroke:none"
       id="text14351"
       x="109.27"
       y="-286.47"><tspan
         x="109.27 120.54492"
         y="-286.47"
         sodipodi:role="line"
         id="tspan14349">b.</tspan></text><text
       transform="scale(1,-1)"
       style="font-variant:normal;font-weight:normal;font-size:18.025px;font-family:AvenirNextLTPro;-inkscape-font-specification:AvenirNextLTPro;writing-mode:lr-tb;fill:#000000;fill-opacity:1;fill-rule:nonzero;stroke:none"
       id="text-add-the-predicted-tag"
       x="145.3"
       y="-286.47"><tspan
         x="145.3"
         y="-286.47"
         sodipodi:role="line"
         id="tspan14361">Add the predicted tag value for this patient based on the SALT value</tspan></text><text
       transform="scale(1,-1)"
       style="font-variant:normal;font-weight:normal;font-size:18.025px;font-family:AvenirNextLTPro;-inkscape-font-specification:AvenirNextLTPro;writing-mode:lr-tb;fill:#203040;fill-opacity:1;fill-rule:nonzero;stroke:none"
       id="text14375"
       x="109.27"
       y="-260.20001"><tspan
         x="109.27 118.295"
         y="-260.20001"
         sodipodi:role="line"
         id="tspan14373">c.</tspan></text><text
       transform="scale(1,-1)"
       style="font-variant:normal;font-weight:normal;font-size:18.025px;font-family:AvenirNextLTPro;-inkscape-font-specification:AvenirNextLTPro;writing-mode:lr-tb;fill:#000000;fill-opacity:1;fill-rule:nonzero;stroke:none"
       id="text-ad-if-the-tagging"
       x="145.3"
       y="-260.20001"><tspan
         x="145.3"
         y="-260.20001"
         sodipodi:role="line"
         id="tspan14385">Add if the tagging was correct for this patient</tspan></text><text
       transform="scale(1,-1)"
       style="font-variant:normal;font-weight:normal;font-size:20.275px;font-family:AvenirNextLTPro;-inkscape-font-specification:AvenirNextLTPro;writing-mode:lr-tb;fill:#203040;fill-opacity:1;fill-rule:nonzero;stroke:none"
       id="text14399"
       x="73.25"
       y="-226.39999"><tspan
         x="73.25 85.275497"
         y="-226.39999"
         sodipodi:role="line"
         id="tspan14397">2.</tspan></text><text
       transform="scale(1,-1)"
       style="font-variant:normal;font-weight:normal;font-size:20.275px;font-family:AvenirNextLTPro;-inkscape-font-specification:AvenirNextLTPro;writing-mode:lr-tb;white-space:pre;inline-size:739.043;fill:#000000;fill-opacity:1;fill-rule:nonzero;stroke:none"
       id="text-create-a-percentage-correct"
       x="109.27"
       y="-226.39999"
       xml:space="preserve"><tspan
         x="109.27"
         y="-226.39999"><tspan>Create a percentage-correct data frame by iterating through </tspan></tspan><tspan
         x="109.27"
         y="-201.05625"><tspan>each scene of each session of the tag-to-SALT data frame above</tspan></tspan></text><text
       transform="scale(1,-1)"
       style="font-variant:normal;font-weight:normal;font-size:18.025px;font-family:AvenirNextLTPro;-inkscape-font-specification:AvenirNextLTPro;writing-mode:lr-tb;fill:#203040;fill-opacity:1;fill-rule:nonzero;stroke:none"
       id="text14507"
       x="109.27"
       y="-175.33"><tspan
         x="109.27 119.04535"
         y="-175.33"
         sodipodi:role="line"
         id="tspan14505">a.</tspan></text><text
       transform="scale(1,-1)"
       style="font-variant:normal;font-weight:normal;font-size:18.025px;font-family:AvenirNextLTPro;-inkscape-font-specification:AvenirNextLTPro;writing-mode:lr-tb;fill:#000000;fill-opacity:1;fill-rule:nonzero;stroke:none"
       id="text-add-the-total"
       x="145.3"
       y="-175.33"><tspan
         x="145.3"
         y="-175.33"
         sodipodi:role="line"
         id="tspan14517">Add the total and correct counts for this scene</tspan></text><text
       transform="scale(1,-1)"
       style="font-variant:normal;font-weight:normal;font-size:18.025px;font-family:AvenirNextLTPro;-inkscape-font-specification:AvenirNextLTPro;writing-mode:lr-tb;fill:#203040;fill-opacity:1;fill-rule:nonzero;stroke:none"
       id="text14531"
       x="109.27"
       y="-148.27"><tspan
         x="109.27 120.54492"
         y="-148.27"
         sodipodi:role="line"
         id="tspan14529">b.</tspan></text><text
       transform="scale(1,-1)"
       style="font-variant:normal;font-weight:normal;font-size:18.025px;font-family:AvenirNextLTPro;-inkscape-font-specification:AvenirNextLTPro;writing-mode:lr-tb;fill:#000000;fill-opacity:1;fill-rule:nonzero;stroke:none"
       id="text-add-percentage-of-correct"
       x="145.3"
       y="-148.27"><tspan
         x="145.3"
         y="-148.27"
         sodipodi:role="line"
         id="tspan14541">Add percentage of correct tagging for this scene (another way to compute it)</tspan></text><text
       transform="scale(1,-1)"
       style="font-variant:normal;font-weight:normal;font-size:20.3px;font-family:AvenirNextLTPro;-inkscape-font-specification:AvenirNextLTPro;writing-mode:lr-tb;fill:#203040;fill-opacity:1;fill-rule:nonzero;stroke:none"
       id="text14555"
       x="73.25"
       y="-115.25"><tspan
         x="73.25 85.275002"
         y="-115.25"
         sodipodi:role="line"
         id="tspan14553">3.</tspan></text><text
       transform="scale(1,-1)"
       style="font-variant:normal;font-weight:normal;font-size:20.3px;font-family:AvenirNextLTPro;-inkscape-font-specification:AvenirNextLTPro;writing-mode:lr-tb;fill:#000000;fill-opacity:1;fill-rule:nonzero;stroke:none"
       id="text-get-the-sum"
       x="109.27"
       y="-115.25"><tspan
         x="109.27"
         y="-115.25"
         sodipodi:role="line"
         id="tspan14565">Get the sum of the total counts and the sum of the correct counts</tspan></text><text
       transform="scale(1,-1)"
       style="font-variant:normal;font-weight:normal;font-size:20.275px;font-family:AvenirNextLTPro;-inkscape-font-specification:AvenirNextLTPro;writing-mode:lr-tb;fill:#203040;fill-opacity:1;fill-rule:nonzero;stroke:none"
       id="text14579"
       x="73.25"
       y="-80.699997"><tspan
         x="73.25 85.275497"
         y="-80.699997"
         sodipodi:role="line"
         id="tspan14577">4.</tspan></text><text
       transform="scale(1,-1)"
       style="font-variant:normal;font-weight:normal;font-size:20.275px;font-family:AvenirNextLTPro;-inkscape-font-specification:AvenirNextLTPro;writing-mode:lr-tb;fill:#000000;fill-opacity:1;fill-rule:nonzero;stroke:none"
       id="text-compute-the-correct"
       x="109.27"
       y="-80.699997"><tspan
         x="109.27"
         y="-80.699997"
         sodipodi:role="line"
         id="tspan14589">Compute the correct-over-total percentage</tspan></text></g></svg>
