<?xml version="1.0" encoding="UTF-8" standalone="no"?>
<svg
   xmlns:dc="http://purl.org/dc/elements/1.1/"
   xmlns:cc="http://creativecommons.org/ns#"
   xmlns:rdf="http://www.w3.org/1999/02/22-rdf-syntax-ns#"
   xmlns:svg="http://www.w3.org/2000/svg"
   xmlns="http://www.w3.org/2000/svg"
   xmlns:sodipodi="http://sodipodi.sourceforge.net/DTD/sodipodi-0.dtd"
   xmlns:inkscape="http://www.inkscape.org/namespaces/inkscape"
   version="1.1"
   id="svg14395"
   xml:space="preserve"
   width="1280"
   height="720"
   viewBox="0 0 1280 720"
   sodipodi:docname="frvrs_data_and_analysis_presentation_for_itm_slide017.svg"
   inkscape:version="1.0.2-2 (e86c870879, 2021-01-15)"
   inkscape:export-filename="C:\Users\DaveBabbitt\Documents\GitHub\itm-analysis-reporting\saves\png\frvrs_data_and_analysis_presentation_for_itm\slide017.png"
   inkscape:export-xdpi="96"
   inkscape:export-ydpi="96"><metadata
     id="metadata14401"><rdf:RDF><cc:Work
         rdf:about=""><dc:format>image/svg+xml</dc:format><dc:type
           rdf:resource="http://purl.org/dc/dcmitype/StillImage" /><dc:title></dc:title></cc:Work></rdf:RDF></metadata><defs
     id="defs14399"><clipPath
       clipPathUnits="userSpaceOnUse"
       id="clipPath14411"><path
         d="M 0,1.2207e-4 H 960 V 540.00012 H 0 Z"
         clip-rule="evenodd"
         id="path14409" /></clipPath><clipPath
       clipPathUnits="userSpaceOnUse"
       id="clipPath14421"><path
         d="M 0,1.2207e-4 H 960 V 540.00012 H 0 Z"
         clip-rule="evenodd"
         id="path14419" /></clipPath><linearGradient
       x1="73.199997"
       y1="486.12"
       x2="818.57001"
       y2="486.12"
       gradientUnits="userSpaceOnUse"
       spreadMethod="pad"
       id="linearGradient14431"><stop
         style="stop-opacity:1;stop-color:#00bac8"
         offset="0"
         id="stop14427" /><stop
         style="stop-opacity:1;stop-color:#203040"
         offset="1"
         id="stop14429" /></linearGradient><clipPath
       clipPathUnits="userSpaceOnUse"
       id="clipPath14441"><path
         d="m 74.25,475.5 h 177 v 24 h -177 z"
         clip-rule="evenodd"
         id="path14439" /></clipPath><linearGradient
       x1="73.199997"
       y1="486.12"
       x2="818.57001"
       y2="486.12"
       gradientUnits="userSpaceOnUse"
       spreadMethod="pad"
       id="linearGradient14453"><stop
         style="stop-opacity:1;stop-color:#00bac8"
         offset="0"
         id="stop14449" /><stop
         style="stop-opacity:1;stop-color:#203040"
         offset="1"
         id="stop14451" /></linearGradient><clipPath
       clipPathUnits="userSpaceOnUse"
       id="clipPath14463"><path
         d="m 253.5,482.25 h 8.25 V 486 h -8.25 z"
         clip-rule="evenodd"
         id="path14461" /></clipPath><linearGradient
       x1="73.199997"
       y1="486.12"
       x2="818.57001"
       y2="486.12"
       gradientUnits="userSpaceOnUse"
       spreadMethod="pad"
       id="linearGradient14475"><stop
         style="stop-opacity:1;stop-color:#00bac8"
         offset="0"
         id="stop14471" /><stop
         style="stop-opacity:1;stop-color:#203040"
         offset="1"
         id="stop14473" /></linearGradient><clipPath
       clipPathUnits="userSpaceOnUse"
       id="clipPath14485"><path
         d="m 264,476.25 h 19.5 v 25.5 H 264 Z"
         clip-rule="evenodd"
         id="path14483" /></clipPath><linearGradient
       x1="73.199997"
       y1="486.12"
       x2="818.57001"
       y2="486.12"
       gradientUnits="userSpaceOnUse"
       spreadMethod="pad"
       id="linearGradient14497"><stop
         style="stop-opacity:1;stop-color:#00bac8"
         offset="0"
         id="stop14493" /><stop
         style="stop-opacity:1;stop-color:#203040"
         offset="1"
         id="stop14495" /></linearGradient><clipPath
       clipPathUnits="userSpaceOnUse"
       id="clipPath14507"><path
         d="m 285,482.25 h 8.25 V 486 H 285 Z"
         clip-rule="evenodd"
         id="path14505" /></clipPath><linearGradient
       x1="73.199997"
       y1="486.12"
       x2="818.57001"
       y2="486.12"
       gradientUnits="userSpaceOnUse"
       spreadMethod="pad"
       id="linearGradient14519"><stop
         style="stop-opacity:1;stop-color:#00bac8"
         offset="0"
         id="stop14515" /><stop
         style="stop-opacity:1;stop-color:#203040"
         offset="1"
         id="stop14517" /></linearGradient><clipPath
       clipPathUnits="userSpaceOnUse"
       id="clipPath14529"><path
         d="M 295.5,468 H 816 v 33.75 H 295.5 Z"
         clip-rule="evenodd"
         id="path14527" /></clipPath><linearGradient
       x1="73.199997"
       y1="453.48001"
       x2="155.7"
       y2="453.48001"
       gradientUnits="userSpaceOnUse"
       spreadMethod="pad"
       id="linearGradient14541"><stop
         style="stop-opacity:1;stop-color:#00bac8"
         offset="0"
         id="stop14537" /><stop
         style="stop-opacity:1;stop-color:#203040"
         offset="1"
         id="stop14539" /></linearGradient><clipPath
       clipPathUnits="userSpaceOnUse"
       id="clipPath14551"><path
         d="m 75,435.75 h 80.25 V 466.5 H 75 Z"
         clip-rule="evenodd"
         id="path14549" /></clipPath><clipPath
       clipPathUnits="userSpaceOnUse"
       id="clipPath14563"><path
         d="M 6.1035e-5,540 H 960 V 1.8311e-4 H 9.1553e-5"
         clip-rule="evenodd"
         id="path14561" /></clipPath><clipPath
       clipPathUnits="userSpaceOnUse"
       id="clipPath14573"><path
         d="M 1.4305e-5,0 H 960.00001 V 540 H 1.4305e-5 Z"
         clip-rule="evenodd"
         id="path14571" /></clipPath><clipPath
       clipPathUnits="userSpaceOnUse"
       id="clipPath14585"><path
         d="M 1.4305e-5,0 H 960.00001 V 540 H 1.4305e-5 Z"
         clip-rule="evenodd"
         id="path14583" /></clipPath><clipPath
       clipPathUnits="userSpaceOnUse"
       id="clipPath14597"><path
         d="M 1.2207e-4,540 H 960 V 1.8311e-4 H 1.8311e-4"
         clip-rule="evenodd"
         id="path14595" /></clipPath><clipPath
       clipPathUnits="userSpaceOnUse"
       id="clipPath14607"><path
         d="M 1.4305e-5,0 H 960.00001 V 540 H 1.4305e-5 Z"
         clip-rule="evenodd"
         id="path14605" /></clipPath><clipPath
       clipPathUnits="userSpaceOnUse"
       id="clipPath14619"><path
         d="M 1.4305e-5,0 H 960.00001 V 540 H 1.4305e-5 Z"
         clip-rule="evenodd"
         id="path14617" /></clipPath><clipPath
       clipPathUnits="userSpaceOnUse"
       id="clipPath14631"><path
         d="M 1.4305e-5,0 H 960.00001 V 540 H 1.4305e-5 Z"
         clip-rule="evenodd"
         id="path14629" /></clipPath><clipPath
       clipPathUnits="userSpaceOnUse"
       id="clipPath14643"><path
         d="M 1.2207e-4,540 H 960 V 1.8311e-4 H 1.8311e-4"
         clip-rule="evenodd"
         id="path14641" /></clipPath><clipPath
       clipPathUnits="userSpaceOnUse"
       id="clipPath14653"><path
         d="M 1.4305e-5,0 H 960.00001 V 540 H 1.4305e-5 Z"
         clip-rule="evenodd"
         id="path14651" /></clipPath><clipPath
       clipPathUnits="userSpaceOnUse"
       id="clipPath14665"><path
         d="M 1.4305e-5,0 H 960.00001 V 540 H 1.4305e-5 Z"
         clip-rule="evenodd"
         id="path14663" /></clipPath><clipPath
       clipPathUnits="userSpaceOnUse"
       id="clipPath14677"><path
         d="M 2.4414e-4,540 H 960 V 2.4414e-4 L 3.0518e-4,1.8311e-4"
         clip-rule="evenodd"
         id="path14675" /></clipPath><clipPath
       clipPathUnits="userSpaceOnUse"
       id="clipPath14687"><path
         d="M 1.4305e-5,0 H 960.00001 V 540 H 1.4305e-5 Z"
         clip-rule="evenodd"
         id="path14685" /></clipPath><clipPath
       clipPathUnits="userSpaceOnUse"
       id="clipPath14699"><path
         d="M 1.4305e-5,0 H 960.00001 V 540 H 1.4305e-5 Z"
         clip-rule="evenodd"
         id="path14697" /></clipPath><clipPath
       clipPathUnits="userSpaceOnUse"
       id="clipPath14711"><path
         d="M 6.1035e-5,540 H 960 V 1.8311e-4 L 7.6294e-5,1.2207e-4"
         clip-rule="evenodd"
         id="path14709" /></clipPath><clipPath
       clipPathUnits="userSpaceOnUse"
       id="clipPath14721"><path
         d="M 1.4305e-5,0 H 960.00001 V 540 H 1.4305e-5 Z"
         clip-rule="evenodd"
         id="path14719" /></clipPath><clipPath
       clipPathUnits="userSpaceOnUse"
       id="clipPath14733"><path
         d="M 1.4305e-5,0 H 960.00001 V 540 H 1.4305e-5 Z"
         clip-rule="evenodd"
         id="path14731" /></clipPath><clipPath
       clipPathUnits="userSpaceOnUse"
       id="clipPath14745"><path
         d="M 9.1553e-5,540 H 960 V 2.4414e-4 L 1.2207e-4,1.8311e-4"
         clip-rule="evenodd"
         id="path14743" /></clipPath><clipPath
       clipPathUnits="userSpaceOnUse"
       id="clipPath14755"><path
         d="M 1.4305e-5,0 H 960.00001 V 540 H 1.4305e-5 Z"
         clip-rule="evenodd"
         id="path14753" /></clipPath><clipPath
       clipPathUnits="userSpaceOnUse"
       id="clipPath14767"><path
         d="M 1.4305e-5,0 H 960.00001 V 540 H 1.4305e-5 Z"
         clip-rule="evenodd"
         id="path14765" /></clipPath><clipPath
       clipPathUnits="userSpaceOnUse"
       id="clipPath14779"><path
         d="M 1.8311e-4,540 H 960 V 1.8311e-4 H 2.4414e-4"
         clip-rule="evenodd"
         id="path14777" /></clipPath><clipPath
       clipPathUnits="userSpaceOnUse"
       id="clipPath14789"><path
         d="M 1.4305e-5,0 H 960.00001 V 540 H 1.4305e-5 Z"
         clip-rule="evenodd"
         id="path14787" /></clipPath><clipPath
       clipPathUnits="userSpaceOnUse"
       id="clipPath14801"><path
         d="M 1.4305e-5,0 H 960.00001 V 540 H 1.4305e-5 Z"
         clip-rule="evenodd"
         id="path14799" /></clipPath><clipPath
       clipPathUnits="userSpaceOnUse"
       id="clipPath14813"><path
         d="M 1.4305e-5,0 H 960.00001 V 540 H 1.4305e-5 Z"
         clip-rule="evenodd"
         id="path14811" /></clipPath><clipPath
       clipPathUnits="userSpaceOnUse"
       id="clipPath14825"><path
         d="M 1.4305e-5,0 H 960.00001 V 540 H 1.4305e-5 Z"
         clip-rule="evenodd"
         id="path14823" /></clipPath><clipPath
       clipPathUnits="userSpaceOnUse"
       id="clipPath14837"><path
         d="M 1.4305e-5,0 H 960.00001 V 540 H 1.4305e-5 Z"
         clip-rule="evenodd"
         id="path14835" /></clipPath><clipPath
       clipPathUnits="userSpaceOnUse"
       id="clipPath14849"><path
         d="M 1.4305e-5,0 H 960.00001 V 540 H 1.4305e-5 Z"
         clip-rule="evenodd"
         id="path14847" /></clipPath><clipPath
       clipPathUnits="userSpaceOnUse"
       id="clipPath14861"><path
         d="M 1.4305e-5,0 H 960.00001 V 540 H 1.4305e-5 Z"
         clip-rule="evenodd"
         id="path14859" /></clipPath><clipPath
       clipPathUnits="userSpaceOnUse"
       id="clipPath14873"><path
         d="M 1.4305e-5,0 H 960.00001 V 540 H 1.4305e-5 Z"
         clip-rule="evenodd"
         id="path14871" /></clipPath><clipPath
       clipPathUnits="userSpaceOnUse"
       id="clipPath14885"><path
         d="M 1.4305e-5,0 H 960.00001 V 540 H 1.4305e-5 Z"
         clip-rule="evenodd"
         id="path14883" /></clipPath><clipPath
       clipPathUnits="userSpaceOnUse"
       id="clipPath14897"><path
         d="M 1.4305e-5,0 H 960.00001 V 540 H 1.4305e-5 Z"
         clip-rule="evenodd"
         id="path14895" /></clipPath><clipPath
       clipPathUnits="userSpaceOnUse"
       id="clipPath14909"><path
         d="M 3.0518e-5,540 H 960 V 2.4414e-4 L 6.1035e-5,1.8311e-4"
         clip-rule="evenodd"
         id="path14907" /></clipPath><clipPath
       clipPathUnits="userSpaceOnUse"
       id="clipPath14919"><path
         d="M 1.4305e-5,0 H 960.00001 V 540 H 1.4305e-5 Z"
         clip-rule="evenodd"
         id="path14917" /></clipPath><clipPath
       clipPathUnits="userSpaceOnUse"
       id="clipPath14931"><path
         d="M 1.4305e-5,0 H 960.00001 V 540 H 1.4305e-5 Z"
         clip-rule="evenodd"
         id="path14929" /></clipPath></defs><sodipodi:namedview
     pagecolor="#ffffff"
     bordercolor="#666666"
     borderopacity="1"
     objecttolerance="10"
     gridtolerance="10"
     guidetolerance="10"
     inkscape:pageopacity="0"
     inkscape:pageshadow="2"
     inkscape:window-width="1920"
     inkscape:window-height="1121"
     id="namedview14397"
     showgrid="false"
     inkscape:zoom="0.99765625"
     inkscape:cx="640"
     inkscape:cy="360"
     inkscape:window-x="-9"
     inkscape:window-y="611"
     inkscape:window-maximized="1"
     inkscape:current-layer="g14403" /><g
     id="g14403"
     inkscape:groupmode="layer"
     inkscape:label="FRVRS - Data and Analysis Presentation for ITM"
     transform="matrix(1.3333333,0,0,-1.3333333,0,720)"><path
       d="M 0,6.1035e-5 H 960 V 540.00006 H 0 Z"
       style="fill:#ffffff;fill-opacity:1;fill-rule:evenodd;stroke:none"
       id="path14413" /><path
       d="M 0,6.1035e-5 H 960 V 540.00006 H 0 Z"
       style="fill:#ffffff;fill-opacity:1;fill-rule:evenodd;stroke:none"
       id="path14423" /><path
       d="m 202.8,487.5 c -1.07,0 -1.95,-0.4 -2.64,-1.21 -0.56,-0.65 -0.84,-1.4 -0.84,-2.25 0,-0.84 0.28,-1.59 0.84,-2.24 0.68,-0.81 1.56,-1.22 2.64,-1.22 0.97,0 1.8,0.34 2.47,1 0.67,0.67 1.01,1.49 1.01,2.46 0,0.97 -0.34,1.78 -1.02,2.46 -0.68,0.67 -1.5,1 -2.46,1 z m 40.1,1.21 c -0.91,0 -1.66,-0.28 -2.23,-0.83 -0.44,-0.43 -0.73,-1.02 -0.85,-1.76 h 6.15 c -0.38,1.73 -1.41,2.59 -3.07,2.59 z m -29.45,2.98 h 6.08 l 3.66,-7.84 3.67,7.84 h 6.05 l -7.96,-15.29 h -3.61 z m -108.72,0.25 -2.46,-7.17 h 4.88 z m 137.96,0.18 c 3.33,0 5.71,-1.21 7.13,-3.63 0.81,-1.37 1.21,-2.95 1.21,-4.76 v -0.69 h -11.36 c 0,-2.3 1.11,-3.45 3.31,-3.45 1.13,0 1.99,0.49 2.59,1.45 h 5.24 c -0.41,-1.38 -1.03,-2.44 -1.84,-3.2 -1.47,-1.37 -3.45,-2.05 -5.92,-2.05 -3.14,0 -5.5,0.95 -7.08,2.87 -1.19,1.42 -1.78,3.16 -1.78,5.22 0,2.44 0.74,4.42 2.22,5.95 1.48,1.53 3.58,2.29 6.28,2.29 z m -41.33,0.05 c 1.08,0 2.1,-0.23 3.06,-0.68 0.54,-0.26 1.11,-0.69 1.69,-1.3 v 1.5 h 5.42 V 476.4 h -5.42 v 1.7 c -0.51,-0.65 -1.04,-1.13 -1.56,-1.42 -0.92,-0.52 -1.97,-0.78 -3.15,-0.78 -1.89,0 -3.58,0.66 -5.06,1.96 -1.77,1.56 -2.65,3.62 -2.65,6.19 0,2.61 0.9,4.7 2.71,6.26 1.44,1.24 3.09,1.86 4.96,1.86 z m -43.41,6.72 h 6.11 l 3.91,-14.53 4.76,14.53 h 4.65 l 4.43,-14.53 4.25,14.53 h 6.1 l -7.18,-22.49 h -5.97 l -4.1,13.03 -4.3,-13.03 h -5.95 z m -25.27,0 h 15.46 v -4.88 h -4.85 V 476.4 h -5.85 v 17.61 h -4.76 z m -13.62,0 h 5.85 v -17.61 h 7.02 v -4.88 h -12.87 z m -17.48,0 h 6.38 l 8.47,-22.49 h -6.25 l -1.45,3.92 h -8.07 l -1.549,-3.92 h -6.18 z m -18.476,0.55 c 2.428,0 4.807,-0.61 7.136,-1.83 l -2.34,-4.55 c -1.278,1 -2.567,1.5 -3.867,1.5 -0.627,0 -1.189,-0.16 -1.685,-0.48 -0.561,-0.37 -0.842,-0.85 -0.842,-1.46 0,-0.59 0.368,-1.11 1.106,-1.54 0.33,-0.19 1.32,-0.54 2.971,-1.02 2.069,-0.61 3.544,-1.46 4.424,-2.57 0.759,-0.95 1.139,-2.17 1.139,-3.65 0,-3.81 -1.67,-6.29 -5.01,-7.44 -1.164,-0.41 -2.417,-0.61 -3.757,-0.61 -2.812,0 -5.422,0.85 -7.828,2.55 l 2.505,4.72 c 1.762,-1.6 3.485,-2.39 5.169,-2.39 0.759,0 1.404,0.17 1.932,0.53 0.617,0.4 0.925,0.96 0.925,1.7 0,0.66 -0.341,1.22 -1.024,1.66 -0.506,0.33 -1.359,0.67 -2.559,1.02 -1.452,0.42 -2.366,0.72 -2.74,0.89 -0.594,0.25 -1.1,0.54 -1.518,0.88 -1.2,0.99 -1.8,2.48 -1.8,4.48 0,2.09 0.621,3.81 1.862,5.19 1.451,1.61 3.384,2.42 5.801,2.42 z"
       style="fill:url(#linearGradient14431);fill-opacity:1;fill-rule:evenodd;stroke:none"
       id="path14433" /><text
       transform="scale(1,-1)"
       style="font-variant:normal;font-weight:bold;font-size:33.8px;font-family:Aharoni;-inkscape-font-specification:Aharoni-Bold;writing-mode:lr-tb;fill:#000000;fill-opacity:0;fill-rule:nonzero;stroke:none"
       id="text14445"
       x="73.25"
       y="-476.29999"><tspan
         x="73.25 92.752602 116.7506 132.6366 148.31979 158.0542 192.5302 213.48621 232.9888"
         y="-476.29999"
         sodipodi:role="line"
         id="tspan14443">SALT Wave</tspan></text><path
       d="m 253.93,482.35 h 7.218 v 3.4937 h -7.218 z"
       style="fill:url(#linearGradient14453);fill-opacity:1;fill-rule:evenodd;stroke:none"
       id="path14455" /><text
       transform="scale(1,-1)"
       style="font-variant:normal;font-weight:bold;font-size:33.8px;font-family:Aharoni;-inkscape-font-specification:Aharoni-Bold;writing-mode:lr-tb;fill:#000000;fill-opacity:0;fill-rule:nonzero;stroke:none"
       id="text14467"
       x="252.64999"
       y="-476.29999"><tspan
         x="252.64999"
         y="-476.29999"
         id="tspan14465">-</tspan></text><path
       d="m 264.78,491.69 h 5.42 V 476.4 h -5.42 z m 2.71,8.9 c 0.84,0 1.56,-0.29 2.15,-0.88 0.59,-0.59 0.89,-1.3 0.89,-2.14 0,-0.86 -0.29,-1.58 -0.88,-2.17 -0.58,-0.58 -1.31,-0.87 -2.16,-0.87 -0.84,0 -1.56,0.29 -2.14,0.88 -0.59,0.59 -0.88,1.31 -0.88,2.16 0,0.84 0.29,1.55 0.88,2.14 0.58,0.59 1.3,0.88 2.14,0.88 z m 13.57,0.61 c 0.79,0 1.59,-0.19 2.39,-0.56 v -4.7 c -0.73,0.41 -1.36,0.61 -1.88,0.61 -0.74,0 -1.27,-0.28 -1.61,-0.84 -0.2,-0.32 -0.3,-1.11 -0.3,-2.37 v -1.65 h 3.79 v -4.45 h -3.79 V 476.4 h -5.42 v 10.84 h -1.93 v 4.45 h 1.93 v 2.03 c 0,2.25 0.57,3.99 1.71,5.21 1.42,1.51 3.12,2.27 5.11,2.27 z"
       style="fill:url(#linearGradient14475);fill-opacity:1;fill-rule:evenodd;stroke:none"
       id="path14477" /><text
       transform="scale(1,-1)"
       style="font-variant:normal;font-weight:bold;font-size:33.8px;font-family:Aharoni;-inkscape-font-specification:Aharoni-Bold;writing-mode:lr-tb;fill:#000000;fill-opacity:0;fill-rule:nonzero;stroke:none"
       id="text14489"
       x="263.14999"
       y="-476.29999"><tspan
         x="263.14999 272.14999"
         y="-476.29999"
         sodipodi:role="line"
         id="tspan14487">if</tspan></text><path
       d="m 285.43,482.35 h 7.218 v 3.4937 h -7.218 z"
       style="fill:url(#linearGradient14497);fill-opacity:1;fill-rule:evenodd;stroke:none"
       id="path14499" /><text
       transform="scale(1,-1)"
       style="font-variant:normal;font-weight:bold;font-size:33.8px;font-family:Aharoni;-inkscape-font-specification:Aharoni-Bold;writing-mode:lr-tb;fill:#000000;fill-opacity:0;fill-rule:nonzero;stroke:none"
       id="text14511"
       x="284.17999"
       y="-476.29999"><tspan
         x="284.17999"
         y="-476.29999"
         id="tspan14509">-</tspan></text><path
       d="m 651.3,487.5 c -1.07,0 -1.95,-0.4 -2.64,-1.21 -0.56,-0.65 -0.84,-1.4 -0.84,-2.25 0,-0.84 0.28,-1.59 0.84,-2.24 0.68,-0.81 1.56,-1.22 2.64,-1.22 0.97,0 1.8,0.34 2.47,1 0.67,0.67 1.01,1.49 1.01,2.46 0,0.97 -0.34,1.78 -1.02,2.46 -0.68,0.67 -1.5,1 -2.46,1 z m -39,0 c -1.07,0 -1.95,-0.4 -2.64,-1.21 -0.56,-0.65 -0.84,-1.4 -0.84,-2.25 0,-0.84 0.28,-1.59 0.84,-2.24 0.68,-0.81 1.56,-1.22 2.64,-1.22 0.97,0 1.8,0.34 2.47,1 0.67,0.67 1.01,1.49 1.01,2.46 0,0.97 -0.34,1.78 -1.02,2.46 -0.68,0.67 -1.5,1 -2.46,1 z m -135.75,0 c -1.07,0 -1.95,-0.4 -2.64,-1.21 -0.56,-0.65 -0.84,-1.4 -0.84,-2.25 0,-0.84 0.28,-1.59 0.84,-2.24 0.68,-0.81 1.56,-1.22 2.64,-1.22 0.97,0 1.8,0.34 2.47,1 0.67,0.67 1.01,1.49 1.01,2.46 0,0.97 -0.34,1.78 -1.02,2.46 -0.68,0.67 -1.5,1 -2.46,1 z m -157.5,0 c -1.07,0 -1.95,-0.4 -2.64,-1.21 -0.56,-0.65 -0.84,-1.4 -0.84,-2.25 0,-0.84 0.28,-1.59 0.84,-2.24 0.68,-0.81 1.56,-1.22 2.64,-1.22 0.97,0 1.8,0.34 2.47,1 0.67,0.67 1.01,1.49 1.01,2.46 0,0.97 -0.34,1.78 -1.02,2.46 -0.68,0.67 -1.5,1 -2.46,1 z m 353.48,0.02 c -0.96,0 -1.78,-0.34 -2.46,-1.01 -0.68,-0.68 -1.02,-1.51 -1.02,-2.47 0,-0.97 0.34,-1.8 1.02,-2.47 0.68,-0.68 1.5,-1.02 2.46,-1.02 1.08,0 1.96,0.41 2.64,1.22 0.56,0.67 0.84,1.43 0.84,2.27 0,0.84 -0.28,1.6 -0.84,2.26 -0.69,0.81 -1.57,1.22 -2.64,1.22 z m 113.87,0.08 c -1.12,0 -2.03,-0.42 -2.73,-1.25 -0.56,-0.68 -0.85,-1.44 -0.85,-2.31 0,-0.87 0.29,-1.64 0.85,-2.31 0.7,-0.84 1.61,-1.26 2.73,-1.26 0.99,0 1.84,0.34 2.52,1.03 0.69,0.69 1.04,1.54 1.04,2.54 0,1 -0.35,1.84 -1.04,2.53 -0.7,0.69 -1.54,1.03 -2.52,1.03 z m -268.5,0 c -1.12,0 -2.03,-0.42 -2.73,-1.25 -0.56,-0.68 -0.85,-1.44 -0.85,-2.31 0,-0.87 0.29,-1.64 0.85,-2.31 0.7,-0.84 1.61,-1.26 2.73,-1.26 0.99,0 1.84,0.34 2.52,1.03 0.69,0.69 1.04,1.54 1.04,2.54 0,1 -0.35,1.84 -1.04,2.53 -0.7,0.69 -1.54,1.03 -2.52,1.03 z m -105.75,0 c -1.12,0 -2.03,-0.42 -2.72,-1.25 -0.57,-0.68 -0.86,-1.44 -0.86,-2.31 0,-0.87 0.29,-1.64 0.86,-2.31 0.69,-0.84 1.6,-1.26 2.72,-1.26 0.99,0 1.84,0.34 2.52,1.03 0.69,0.69 1.04,1.54 1.04,2.54 0,1 -0.35,1.84 -1.04,2.53 -0.7,0.69 -1.54,1.03 -2.52,1.03 z m 395.15,0.07 c -1.08,0 -1.97,-0.42 -2.66,-1.25 -0.54,-0.67 -0.82,-1.45 -0.82,-2.33 0,-0.97 0.34,-1.81 1.01,-2.51 0.67,-0.7 1.5,-1.05 2.47,-1.05 0.96,0 1.78,0.35 2.45,1.05 0.67,0.7 1.01,1.54 1.01,2.51 0,0.98 -0.33,1.82 -1,2.52 -0.67,0.71 -1.49,1.06 -2.46,1.06 z m -105.4,1.04 c -0.91,0 -1.66,-0.28 -2.23,-0.83 -0.44,-0.43 -0.73,-1.02 -0.85,-1.76 h 6.15 c -0.38,1.73 -1.41,2.59 -3.07,2.59 z m 21.88,2.98 h 5.42 V 476.4 h -5.42 z m -99,0 h 5.42 V 476.4 h -5.42 z m -42.33,0 h 6.08 l 3.66,-7.84 3.67,7.84 h 6.05 l -7.96,-15.29 h -3.61 z m -82.17,0 h 5.42 V 476.4 h -5.42 z m -65.32,0.21 c 0.29,0 0.64,-0.01 1.06,-0.04 v -5.15 c -0.76,0.37 -1.53,0.55 -2.31,0.55 -1.77,0 -2.92,-0.73 -3.45,-2.19 -0.19,-0.53 -0.29,-1.24 -0.29,-2.13 v -6.54 h -5.42 v 15.29 h 5.42 v -2.5 c 0.57,0.89 1.18,1.53 1.84,1.92 0.89,0.53 1.94,0.79 3.15,0.79 z m 135.52,0.04 -2.46,-7.17 h 4.88 z m -110.96,0.01 c 1.14,0 2.16,-0.27 3.05,-0.82 0.96,-0.6 1.59,-1.42 1.88,-2.46 0.18,-0.62 0.27,-1.4 0.27,-2.34 v -9.93 h -5.42 v 7.55 c 0,1.32 -0.14,2.22 -0.42,2.7 -0.4,0.71 -1.01,1.07 -1.83,1.07 -0.9,0 -1.59,-0.39 -2.07,-1.17 -0.34,-0.55 -0.51,-1.41 -0.51,-2.6 v -7.55 h -5.42 v 7.55 c 0,1.32 -0.11,2.17 -0.33,2.57 -0.44,0.79 -1.12,1.18 -2.03,1.18 -0.85,0 -1.51,-0.34 -1.98,-1.02 -0.17,-0.24 -0.3,-0.57 -0.38,-0.99 -0.07,-0.43 -0.11,-1 -0.11,-1.74 v -7.55 h -5.42 v 15.29 h 5.42 v -1.88 c 0.64,0.62 1.22,1.07 1.75,1.35 0.95,0.52 2.02,0.78 3.2,0.78 1.51,0 2.76,-0.39 3.76,-1.17 0.51,-0.4 0.99,-0.96 1.46,-1.68 0.41,0.68 0.88,1.22 1.4,1.61 1.09,0.84 2.33,1.25 3.73,1.25 z m 283.63,0.07 c 1.65,0 2.99,-0.44 4.02,-1.33 1.17,-1.02 1.76,-2.53 1.76,-4.55 v -9.74 h -5.42 v 7.73 c 0,1.35 -0.16,2.25 -0.46,2.68 -0.45,0.65 -1.12,0.97 -2.02,0.97 -0.81,0 -1.5,-0.27 -2.06,-0.83 -0.5,-0.5 -0.75,-1.29 -0.75,-2.36 v -8.19 h -5.42 v 15.29 h 5.42 v -1.93 c 0.62,0.73 1.2,1.24 1.73,1.54 0.85,0.48 1.92,0.72 3.2,0.72 z m -202.5,0 c 1.65,0 2.99,-0.44 4.02,-1.33 1.17,-1.02 1.76,-2.53 1.76,-4.55 v -9.74 h -5.42 v 7.73 c 0,1.35 -0.16,2.25 -0.46,2.68 -0.45,0.65 -1.12,0.97 -2.02,0.97 -0.81,0 -1.5,-0.27 -2.06,-0.83 -0.5,-0.5 -0.75,-1.29 -0.75,-2.36 v -8.19 h -5.42 v 15.29 h 5.42 v -1.93 c 0.62,0.73 1.2,1.24 1.73,1.54 0.85,0.48 1.92,0.72 3.2,0.72 z m -158.25,0 c 1.65,0 2.99,-0.44 4.02,-1.33 1.17,-1.02 1.76,-2.53 1.76,-4.55 v -9.74 h -5.42 v 7.73 c 0,1.35 -0.16,2.25 -0.46,2.68 -0.45,0.65 -1.12,0.97 -2.02,0.97 -0.81,0 -1.5,-0.27 -2.06,-0.83 -0.5,-0.5 -0.75,-1.29 -0.75,-2.36 v -8.19 h -5.42 v 15.29 h 5.42 v -1.93 c 0.62,0.73 1.2,1.24 1.73,1.54 0.85,0.48 1.92,0.72 3.2,0.72 z m -40.5,0 c 1.65,0 2.99,-0.44 4.02,-1.33 1.17,-1.02 1.76,-2.53 1.76,-4.55 v -9.74 h -5.42 v 7.73 c 0,1.35 -0.16,2.25 -0.46,2.68 -0.45,0.65 -1.12,0.97 -2.02,0.97 -0.81,0 -1.5,-0.27 -2.06,-0.83 -0.5,-0.5 -0.75,-1.29 -0.75,-2.36 v -8.19 h -5.42 v 15.29 h 5.42 v -1.93 c 0.62,0.73 1.2,1.24 1.73,1.54 0.85,0.48 1.92,0.72 3.2,0.72 z m 464.02,0.1 c 1.11,0 2.1,-0.23 2.96,-0.68 0.52,-0.27 1.06,-0.72 1.62,-1.35 v 1.6 h 5.42 v -14.24 c 0,-1.34 -0.1,-2.42 -0.28,-3.24 -0.3,-1.32 -1.07,-2.5 -2.31,-3.55 -1.57,-1.32 -3.66,-1.97 -6.26,-1.97 -2.73,0 -4.9,0.71 -6.51,2.15 -1.08,0.96 -1.76,1.96 -2.06,3 -0.03,0.11 -0.08,0.34 -0.13,0.7 h 6.06 c 0.18,-0.5 0.41,-0.86 0.71,-1.08 0.48,-0.36 1.1,-0.54 1.85,-0.54 1.25,0 2.21,0.44 2.88,1.33 0.42,0.56 0.63,1.36 0.63,2.4 v 1.45 c -0.65,-0.6 -1.19,-1.02 -1.63,-1.26 -0.91,-0.5 -1.99,-0.76 -3.23,-0.76 -1.56,0 -2.95,0.41 -4.18,1.21 -1.26,0.82 -2.17,1.95 -2.71,3.38 -0.38,0.96 -0.56,2.01 -0.56,3.14 0,2.51 0.79,4.55 2.38,6.12 1.48,1.46 3.27,2.19 5.35,2.19 z m -104.23,0 c 3.33,0 5.71,-1.21 7.13,-3.63 0.81,-1.37 1.21,-2.95 1.21,-4.76 v -0.69 h -11.36 c 0,-2.3 1.11,-3.45 3.31,-3.45 1.13,0 1.99,0.49 2.59,1.45 h 5.24 c -0.41,-1.38 -1.03,-2.44 -1.84,-3.2 -1.47,-1.37 -3.45,-2.05 -5.92,-2.05 -3.14,0 -5.5,0.95 -7.08,2.87 -1.19,1.42 -1.78,3.16 -1.78,5.22 0,2.44 0.74,4.42 2.22,5.95 1.48,1.53 3.58,2.29 6.28,2.29 z m -51.83,0.05 c 1.08,0 2.1,-0.23 3.06,-0.68 0.54,-0.26 1.11,-0.69 1.69,-1.3 v 1.5 h 5.42 V 476.4 h -5.42 v 1.7 c -0.51,-0.65 -1.04,-1.13 -1.56,-1.42 -0.92,-0.52 -1.97,-0.78 -3.15,-0.78 -1.89,0 -3.58,0.66 -5.06,1.96 -1.77,1.56 -2.65,3.62 -2.65,6.19 0,2.61 0.9,4.7 2.71,6.26 1.44,1.24 3.09,1.86 4.96,1.86 z m -39,0 c 1.08,0 2.1,-0.23 3.06,-0.68 0.54,-0.26 1.11,-0.69 1.69,-1.3 v 1.5 h 5.42 V 476.4 h -5.42 v 1.7 c -0.51,-0.65 -1.04,-1.13 -1.56,-1.42 -0.92,-0.52 -1.97,-0.78 -3.15,-0.78 -1.89,0 -3.58,0.66 -5.06,1.96 -1.77,1.56 -2.65,3.62 -2.65,6.19 0,2.61 0.9,4.7 2.71,6.26 1.44,1.24 3.09,1.86 4.96,1.86 z m -135.75,0 c 1.08,0 2.1,-0.23 3.06,-0.68 0.54,-0.26 1.11,-0.69 1.69,-1.3 v 1.5 h 5.42 V 476.4 h -5.42 v 1.7 c -0.51,-0.65 -1.04,-1.13 -1.56,-1.42 -0.92,-0.52 -1.97,-0.78 -3.15,-0.78 -1.89,0 -3.58,0.66 -5.06,1.96 -1.77,1.56 -2.65,3.62 -2.65,6.19 0,2.61 0.9,4.7 2.71,6.26 1.44,1.24 3.09,1.86 4.96,1.86 z m -157.5,0 c 1.08,0 2.1,-0.23 3.06,-0.68 0.54,-0.26 1.11,-0.69 1.69,-1.3 v 1.5 h 5.42 V 476.4 h -5.42 v 1.7 c -0.51,-0.65 -1.04,-1.13 -1.56,-1.42 -0.92,-0.52 -1.97,-0.78 -3.15,-0.78 -1.89,0 -3.58,0.66 -5.06,1.96 -1.77,1.56 -2.65,3.62 -2.65,6.19 0,2.61 0.9,4.7 2.71,6.26 1.44,1.24 3.09,1.86 4.96,1.86 z m -13.31,0 c 1.26,0 2.43,-0.29 3.53,-0.86 v -4.6 c -0.95,0.67 -1.88,1.01 -2.79,1.01 -1.08,0 -1.96,-0.35 -2.67,-1.04 -0.7,-0.69 -1.05,-1.58 -1.05,-2.65 0,-1.08 0.35,-1.96 1.05,-2.66 0.71,-0.69 1.59,-1.03 2.67,-1.03 0.9,0 1.83,0.33 2.79,0.99 v -4.6 c -1.12,-0.56 -2.29,-0.84 -3.53,-0.84 -2.79,0 -5,0.94 -6.64,2.83 -1.31,1.53 -1.97,3.3 -1.97,5.31 0,2.02 0.66,3.79 1.97,5.3 1.64,1.89 3.85,2.84 6.64,2.84 z m 482.26,0.08 c 2.89,0 5.2,-0.93 6.92,-2.78 1.41,-1.52 2.11,-3.33 2.11,-5.43 0,-2.12 -0.69,-3.93 -2.09,-5.45 -1.69,-1.85 -4.06,-2.77 -7.1,-2.77 -3.06,0 -5.43,0.92 -7.12,2.77 -1.4,1.52 -2.09,3.38 -2.09,5.59 0,1.98 0.7,3.75 2.11,5.29 1.7,1.85 4.12,2.78 7.26,2.78 z m -268.5,0 c 2.89,0 5.2,-0.93 6.92,-2.78 1.41,-1.52 2.11,-3.33 2.11,-5.43 0,-2.12 -0.69,-3.93 -2.09,-5.45 -1.69,-1.85 -4.06,-2.77 -7.1,-2.77 -3.06,0 -5.43,0.92 -7.12,2.77 -1.4,1.52 -2.09,3.38 -2.09,5.59 0,1.98 0.7,3.75 2.11,5.29 1.7,1.85 4.12,2.78 7.26,2.78 z m -105.75,0 c 2.89,0 5.2,-0.93 6.92,-2.78 1.41,-1.52 2.11,-3.33 2.11,-5.43 0,-2.12 -0.69,-3.93 -2.09,-5.45 -1.69,-1.85 -4.06,-2.77 -7.1,-2.77 -3.06,0 -5.43,0.92 -7.12,2.77 -1.4,1.52 -2.09,3.38 -2.09,5.59 0,1.98 0.7,3.75 2.11,5.29 1.7,1.85 4.12,2.78 7.26,2.78 z m 77.36,4.04 h 5.42 v -4.6 h 3.09 v -4.43 h -3.09 V 476.4 h -5.42 v 10.86 h -1.78 v 4.43 h 1.78 z m 272.89,2.6 h 5.85 v -17.61 h 7.02 v -4.88 h -12.87 z m -195.23,0 h 6.38 l 8.47,-22.49 h -6.25 l -1.45,3.92 h -8.07 l -1.55,-3.92 h -6.18 z m -205.27,0 h 5.85 V 476.4 h -5.85 z m 364.43,1.7 c 0.84,0 1.56,-0.29 2.15,-0.88 0.59,-0.59 0.89,-1.3 0.89,-2.14 0,-0.86 -0.29,-1.58 -0.88,-2.17 -0.58,-0.58 -1.31,-0.87 -2.16,-0.87 -0.84,0 -1.56,0.29 -2.14,0.88 -0.59,0.59 -0.88,1.31 -0.88,2.16 0,0.84 0.29,1.55 0.88,2.14 0.58,0.59 1.3,0.88 2.14,0.88 z m -99,0 c 0.84,0 1.56,-0.29 2.15,-0.88 0.59,-0.59 0.89,-1.3 0.89,-2.14 0,-0.86 -0.29,-1.58 -0.88,-2.17 -0.58,-0.58 -1.31,-0.87 -2.16,-0.87 -0.84,0 -1.56,0.29 -2.14,0.88 -0.59,0.59 -0.88,1.31 -0.88,2.16 0,0.84 0.29,1.55 0.88,2.14 0.58,0.59 1.3,0.88 2.14,0.88 z m -124.5,0 c 0.84,0 1.56,-0.29 2.15,-0.88 0.59,-0.59 0.89,-1.3 0.89,-2.14 0,-0.86 -0.29,-1.58 -0.88,-2.17 -0.58,-0.58 -1.31,-0.87 -2.16,-0.87 -0.84,0 -1.56,0.29 -2.14,0.88 -0.59,0.59 -0.88,1.31 -0.88,2.16 0,0.84 0.29,1.55 0.88,2.14 0.58,0.59 1.3,0.88 2.14,0.88 z m 181.81,0.56 h 5.42 V 476.4 h -5.42 z m -21,0 h 5.42 v -10.98 c 0.58,0.61 1.14,1.04 1.69,1.31 0.96,0.46 1.98,0.69 3.06,0.69 1.87,0 3.52,-0.62 4.96,-1.86 1.81,-1.56 2.71,-3.65 2.71,-6.26 0,-2.57 -0.88,-4.63 -2.65,-6.19 -1.48,-1.3 -3.17,-1.96 -5.07,-1.96 -1.17,0 -2.22,0.26 -3.14,0.78 -0.56,0.31 -1.08,0.78 -1.56,1.42 v -1.7 h -5.42 z m -30,0 h 5.42 V 476.4 h -5.42 z m -234.99,0.05 c 0.79,0 1.59,-0.19 2.39,-0.56 v -4.7 c -0.73,0.41 -1.36,0.61 -1.88,0.61 -0.74,0 -1.27,-0.28 -1.61,-0.84 -0.2,-0.32 -0.3,-1.11 -0.3,-2.37 v -1.65 h 3.79 v -4.45 h -3.79 V 476.4 h -5.42 v 10.84 h -1.93 v 4.45 h 1.93 v 2.03 c 0,2.25 0.57,3.99 1.71,5.21 1.42,1.51 3.12,2.27 5.11,2.27 z"
       style="fill:url(#linearGradient14519);fill-opacity:1;fill-rule:evenodd;stroke:none"
       id="path14521" /><text
       transform="scale(1,-1)"
       style="font-variant:normal;font-weight:bold;font-size:33.8px;font-family:Aharoni;-inkscape-font-specification:Aharoni-Bold;writing-mode:lr-tb;fill:#000000;fill-opacity:0;fill-rule:nonzero;stroke:none"
       id="text14533"
       x="294.67001"
       y="-476.29999"><tspan
         x="294.67001 308.93359 329.88959 349.49359 359.97159 370.55099 389.98599 401.9512 422.94101 437.17081 466.44162 487.39761 498.6868 507.67761 528.66742 548.2038 558.68182 582.67981 602.18237 623.23981 632.23059 641.22137 662.17737 683.2348 692.22559 711.72821 722.20618 731.19702 750.7334 760.43402 776.21863 797.20837 818.19818"
         y="-476.29999"
         sodipodi:role="line"
         id="tspan14531">can Information Available in Log </tspan></text><path
       d="m 134.7,458.69 h 6.28 l 4.09,-7.84 3.97,7.84 h 6.19 l -12.27,-22.94 h -6.07 l 5.19,9.74 z m -1.99,0.21 c 0.29,0 0.64,-0.01 1.06,-0.04 v -5.15 c -0.76,0.37 -1.53,0.55 -2.31,0.55 -1.77,0 -2.92,-0.73 -3.45,-2.19 -0.19,-0.53 -0.29,-1.24 -0.29,-2.13 v -6.54 h -5.42 v 15.29 h 5.42 v -2.5 c 0.57,0.89 1.18,1.53 1.84,1.92 0.89,0.53 1.94,0.79 3.15,0.79 z m -30.81,0.12 c 1.65,0 2.99,-0.44 4.02,-1.33 1.17,-1.02 1.76,-2.53 1.76,-4.55 v -9.74 h -5.42 v 7.73 c 0,1.35 -0.16,2.25 -0.46,2.68 -0.45,0.65 -1.12,0.97 -2.016,0.97 -0.818,0 -1.506,-0.27 -2.063,-0.83 -0.502,-0.5 -0.754,-1.29 -0.754,-2.36 v -8.19 h -5.421 v 15.29 h 5.421 v -1.93 c 0.626,0.73 1.202,1.24 1.728,1.54 0.856,0.48 1.925,0.72 3.205,0.72 z m 9.77,4.27 h 5.42 v -4.6 h 3.09 v -4.43 h -3.09 V 443.4 h -5.42 v 10.86 h -1.78 v 4.43 h 1.78 z m -36.113,2.6 h 12.804 v -4.88 h -6.954 v -3.84 h 6.575 v -4.87 h -6.575 v -4.02 h 6.954 V 443.4 H 75.557 Z"
       style="fill:url(#linearGradient14541);fill-opacity:1;fill-rule:evenodd;stroke:none"
       id="path14543" /><text
       transform="scale(1,-1)"
       style="font-variant:normal;font-weight:bold;font-size:33.8px;font-family:Aharoni;-inkscape-font-specification:Aharoni-Bold;writing-mode:lr-tb;fill:#000000;fill-opacity:0;fill-rule:nonzero;stroke:none"
       id="text14555"
       x="73.25"
       y="-443.26999"><tspan
         x="73.25 89.778198 109.31461 120.57 134.7998"
         y="-443.26999"
         sodipodi:role="line"
         id="tspan14553">Entry</tspan></text><path
       d="m 300.38,242.62 c 0,4.77 0.64,8.63 1.43,8.63 h 56.75 c 0.8,0 1.44,3.86 1.44,8.62 0,-4.76 0.64,-8.62 1.44,-8.62 h 56.75 c 0.79,0 1.44,-3.86 1.44,-8.63"
       style="fill:none;stroke:#00bac8;stroke-width:0.5;stroke-linecap:butt;stroke-linejoin:miter;stroke-miterlimit:10;stroke-dasharray:none;stroke-opacity:1"
       id="path14565" /><text
       transform="scale(1,-1)"
       style="font-variant:normal;font-weight:normal;font-size:18.025px;font-family:AvenirNextLTPro;-inkscape-font-specification:AvenirNextLTPro;writing-mode:lr-tb;fill:#00bac8;fill-opacity:1;fill-rule:nonzero;stroke:none"
       id="text14577"
       x="308.92999"
       y="-265.13"><tspan
         x="308.92999 317.16742 328.397 335.12033 341.10461 350.09909 361.32867 370.34119 380.05664 386.04095 390.54721 401.77676"
         y="-265.13"
         sodipodi:role="line"
         id="tspan14575">sortLocation</tspan></text><text
       transform="scale(1,-1)"
       style="font-variant:normal;font-weight:normal;font-size:18.025px;font-family:AvenirNextLTPro;-inkscape-font-specification:AvenirNextLTPro;writing-mode:lr-tb;fill:#000000;fill-opacity:1;fill-rule:nonzero;stroke:none"
       id="text14589"
       x="298.75"
       y="-230.5"><tspan
         x="298.75 306.23038 311.47565 321.93015 326.47244 336.92694 340.73022 345.23648 355.69098 360.23328 370.68777 374.49106 379.71829 390.17279 394.71509 405.16962 410.46893 417.94934"
         y="-230.5"
         sodipodi:role="line"
         id="tspan14587">&quot;(1.0, 0.0, 4.0)&quot;,</tspan></text><path
       d="m 446.63,243.37 c 0,4.35 0.58,7.88 1.31,7.88 h 42.37 c 0.73,0 1.32,3.53 1.32,7.87 0,-4.34 0.58,-7.87 1.31,-7.87 h 42.37 c 0.73,0 1.32,-3.53 1.32,-7.88"
       style="fill:none;stroke:#00bac8;stroke-width:0.5;stroke-linecap:butt;stroke-linejoin:miter;stroke-miterlimit:10;stroke-dasharray:none;stroke-opacity:1"
       id="path14599" /><text
       transform="scale(1,-1)"
       style="font-variant:normal;font-weight:normal;font-size:18.025px;font-family:AvenirNextLTPro;-inkscape-font-specification:AvenirNextLTPro;writing-mode:lr-tb;fill:#00bac8;fill-opacity:1;fill-rule:nonzero;stroke:none"
       id="text14611"
       x="415.47"
       y="-265.13"><tspan
         x="415.47 423.72546 434.99109 441.75046 447.75278 460.5325 471.79813 487.57001 503.34186 513.09338 523.56592 534.88562 543.91614 553.68567 561.95917"
         y="-265.13"
         sodipodi:role="line"
         id="tspan14609">sortCommandText</tspan></text><text
       transform="scale(1,-1)"
       style="font-variant:normal;font-weight:normal;font-size:18.025px;font-family:AvenirNextLTPro;-inkscape-font-specification:AvenirNextLTPro;writing-mode:lr-tb;fill:#000000;fill-opacity:1;fill-rule:nonzero;stroke:none"
       id="text14623"
       x="448.79999"
       y="-230.5"><tspan
         x="448.79999 462.30072 472.03421 481.01068 491.50122 496.00748 501.25275 514.03247 523.76599"
         y="-230.5"
         sodipodi:role="line"
         id="tspan14621">waveIfCan</tspan></text><text
       transform="scale(1,-1)"
       style="font-variant:normal;font-weight:normal;font-size:18.025px;font-family:AvenirNextLTPro;-inkscape-font-specification:AvenirNextLTPro;writing-mode:lr-tb;fill:#000000;fill-opacity:1;fill-rule:nonzero;stroke:none"
       id="text14635"
       x="534.38"
       y="-230.5"><tspan
         x="534.38"
         y="-230.5"
         id="tspan14633">,</tspan></text><path
       d="m 563.63,243.37 c 0,4.56 0.61,8.26 1.37,8.26 l 47.5,-0.01 c 0.76,0 1.38,3.7 1.38,8.25 0,-4.55 0.61,-8.25 1.37,-8.25 h 47.5 c 0.76,0 1.38,-3.69 1.38,-8.25"
       style="fill:none;stroke:#00bac8;stroke-width:0.5;stroke-linecap:butt;stroke-linejoin:miter;stroke-miterlimit:10;stroke-dasharray:none;stroke-opacity:1"
       id="path14645" /><text
       transform="scale(1,-1)"
       style="font-variant:normal;font-weight:normal;font-size:18.025px;font-family:AvenirNextLTPro;-inkscape-font-specification:AvenirNextLTPro;writing-mode:lr-tb;fill:#00bac8;fill-opacity:1;fill-rule:nonzero;stroke:none"
       id="text14657"
       x="576.58002"
       y="-265.13"><tspan
         x="576.58002 587.82758 597.5611 603.54541 608.05164 618.52417 628.9967 634.99902 639.50525"
         y="-265.13"
         sodipodi:role="line"
         id="tspan14655">patientId</tspan></text><text
       transform="scale(1,-1)"
       style="font-variant:normal;font-weight:normal;font-size:18.025px;font-family:AvenirNextLTPro;-inkscape-font-specification:AvenirNextLTPro;writing-mode:lr-tb;fill:#000000;fill-opacity:1;fill-rule:nonzero;stroke:none"
       id="text14669"
       x="565.83002"
       y="-230.5"><tspan
         x="565.83002 577.07758 588.30719 599.55475 608.56726 619.02179 623.52802 634.05463 645.28418 656.51379 662.49805"
         y="-230.5"
         sodipodi:role="line"
         id="tspan14667">Bob_7 Root,</tspan></text><path
       d="m 866.63,376.87 c 0,4.77 0.64,8.63 1.43,8.63 h 11.38 c 0.79,0 1.44,3.86 1.44,8.62 0,-4.76 0.64,-8.62 1.43,-8.62 h 11.38 c 0.79,0 1.44,-3.86 1.44,-8.63"
       style="fill:none;stroke:#00bac8;stroke-width:0.5;stroke-linecap:butt;stroke-linejoin:miter;stroke-miterlimit:10;stroke-dasharray:none;stroke-opacity:1"
       id="path14679" /><text
       transform="scale(1,-1)"
       style="font-variant:normal;font-weight:normal;font-size:18.025px;font-family:AvenirNextLTPro;-inkscape-font-specification:AvenirNextLTPro;writing-mode:lr-tb;fill:#00bac8;fill-opacity:1;fill-rule:nonzero;stroke:none"
       id="text14691"
       x="822.79999"
       y="-402.07999"><tspan
         x="822.79999 827.34229 838.53583 849.78345 861.03101 871.52161 878.24487 888.75348 899.24402 905.96735 914.20477 918.711 929.2016"
         y="-402.07999"
         sodipodi:role="line"
         id="tspan14689">loggerVersion</tspan></text><text
       transform="scale(1,-1)"
       style="font-variant:normal;font-weight:normal;font-size:18.025px;font-family:AvenirNextLTPro;-inkscape-font-specification:AvenirNextLTPro;writing-mode:lr-tb;fill:#000000;fill-opacity:1;fill-rule:nonzero;stroke:none"
       id="text14703"
       x="868.45001"
       y="-364.95001"><tspan
         x="868.45001 878.90448 883.44678 893.90131"
         y="-364.95001"
         sodipodi:role="line"
         id="tspan14701">1.3,</tspan></text><path
       d="m 24.375,380.62 c 0,3.11 0.42,5.63 0.938,5.63 h 98.247 c 0.52,0 0.94,2.52 0.94,5.62 0,-3.1 0.42,-5.62 0.94,-5.62 h 98.25 c 0.52,0 0.94,-2.52 0.94,-5.63"
       style="fill:none;stroke:#00bac8;stroke-width:0.5;stroke-linecap:butt;stroke-linejoin:miter;stroke-miterlimit:10;stroke-dasharray:none;stroke-opacity:1"
       id="path14713" /><text
       transform="scale(1,-1)"
       style="font-variant:normal;font-weight:normal;font-size:18.025px;font-family:AvenirNextLTPro;-inkscape-font-specification:AvenirNextLTPro;writing-mode:lr-tb;fill:#00bac8;fill-opacity:1;fill-rule:nonzero;stroke:none"
       id="text14725"
       x="104.3"
       y="-402.07999"><tspan
         x="104.3 113.29447 122.27093 133.51852"
         y="-402.07999"
         sodipodi:role="line"
         id="tspan14723">Type</tspan></text><text
       transform="scale(1,-1)"
       style="font-variant:normal;font-weight:normal;font-size:18.025px;font-family:AvenirNextLTPro;-inkscape-font-specification:AvenirNextLTPro;writing-mode:lr-tb;fill:#000000;fill-opacity:1;fill-rule:nonzero;stroke:none"
       id="text14737"
       x="22.85"
       y="-364.95001"><tspan
         x="22.85 33.340549 42.35305 55.078697 64.091202 73.085678 82.098175 92.570702 101.5832 118.8151 130.81975 142.04933 152.57593 161.58842 166.07666 175.82819 184.84068 197.58435 210.31001 223.81073"
         y="-364.95001"
         sodipodi:role="line"
         id="tspan14735">S_A_L_T_WAVE_IF_CAN,</tspan></text><path
       d="m 301.13,379.12 c 0,4.15 0.55,7.5 1.25,7.5 h 92.75 c 0.69,0 1.25,3.36 1.25,7.5 0,-4.14 0.55,-7.5 1.25,-7.5 h 92.75 c 0.69,0 1.25,-3.35 1.25,-7.5"
       style="fill:none;stroke:#00bac8;stroke-width:0.5;stroke-linecap:butt;stroke-linejoin:miter;stroke-miterlimit:10;stroke-dasharray:none;stroke-opacity:1"
       id="path14747" /><text
       transform="scale(1,-1)"
       style="font-variant:normal;font-weight:normal;font-size:18.025px;font-family:AvenirNextLTPro;-inkscape-font-specification:AvenirNextLTPro;writing-mode:lr-tb;fill:#00bac8;fill-opacity:1;fill-rule:nonzero;stroke:none"
       id="text14759"
       x="350"
       y="-402.07999"><tspan
         x="350 360.50858 365.01483 380.78671 391.29529 399.55072 405.55304 415.30457 431.07645"
         y="-402.07999"
         sodipodi:role="line"
         id="tspan14757">Timestamp</tspan></text><text
       transform="scale(1,-1)"
       style="font-variant:normal;font-weight:normal;font-size:18.025px;font-family:AvenirNextLTPro;-inkscape-font-specification:AvenirNextLTPro;writing-mode:lr-tb;fill:#000000;fill-opacity:1;fill-rule:nonzero;stroke:none"
       id="text14771"
       x="304.04999"
       y="-364.95001"><tspan
         x="304.04999 314.50449 321.28189 331.73639 342.263 348.98633 359.44083 369.96744 380.42194 390.94852 395.45477 405.90927 411.19061 421.64511 432.17169 437.41696 447.87146 458.39807 462.90433 473.35883 489.14871"
         y="-364.95001"
         sodipodi:role="line"
         id="tspan14769">9/11/2023 1:46:01 PM,</tspan></text><path
       d="m 500.63,376.87 c 0,5.18 0.69,9.38 1.56,9.38 h 176.12 c 0.87,0 1.57,4.2 1.57,9.37 0,-5.17 0.69,-9.37 1.56,-9.37 h 176.12 c 0.87,0 1.57,-4.2 1.57,-9.38"
       style="fill:none;stroke:#00bac8;stroke-width:0.5;stroke-linecap:butt;stroke-linejoin:miter;stroke-miterlimit:10;stroke-dasharray:none;stroke-opacity:1"
       id="path14781" /><text
       transform="scale(1,-1)"
       style="font-variant:normal;font-weight:normal;font-size:18.025px;font-family:AvenirNextLTPro;-inkscape-font-specification:AvenirNextLTPro;writing-mode:lr-tb;fill:#00bac8;fill-opacity:1;fill-rule:nonzero;stroke:none"
       id="text14793"
       x="634.65002"
       y="-402.07999"><tspan
         x="634.65002 645.15857 655.66718 663.92261 672.17804 676.68433 687.93188 698.40442 702.96472"
         y="-402.07999"
         sodipodi:role="line"
         id="tspan14791">SessionId</tspan></text><text
       transform="scale(1,-1)"
       style="font-variant:normal;font-weight:normal;font-size:18.025px;font-family:AvenirNextLTPro;-inkscape-font-specification:AvenirNextLTPro;writing-mode:lr-tb;fill:#000000;fill-opacity:1;fill-rule:nonzero;stroke:none"
       id="text14805"
       x="499.82001"
       y="-364.95001"><tspan
         x="499.82001 511.0676 521.52209 532.82379 543.27826 553.80487 565.05249 574.78595"
         y="-364.95001"
         sodipodi:role="line"
         id="tspan14803">d9d58da9</tspan></text><text
       transform="scale(1,-1)"
       style="font-variant:normal;font-weight:normal;font-size:18.025px;font-family:AvenirNextLTPro;-inkscape-font-specification:AvenirNextLTPro;writing-mode:lr-tb;fill:#000000;fill-opacity:1;fill-rule:nonzero;stroke:none"
       id="text14817"
       x="585.38"
       y="-364.95001"><tspan
         x="585.38"
         y="-364.95001"
         id="tspan14815">-</tspan></text><text
       transform="scale(1,-1)"
       style="font-variant:normal;font-weight:normal;font-size:18.025px;font-family:AvenirNextLTPro;-inkscape-font-specification:AvenirNextLTPro;writing-mode:lr-tb;fill:#000000;fill-opacity:1;fill-rule:nonzero;stroke:none"
       id="text14829"
       x="591.40002"
       y="-364.95001"><tspan
         x="591.40002 601.85449 613.15619 624.40375"
         y="-364.95001"
         sodipodi:role="line"
         id="tspan14827">9bdc</tspan></text><text
       transform="scale(1,-1)"
       style="font-variant:normal;font-weight:normal;font-size:18.025px;font-family:AvenirNextLTPro;-inkscape-font-specification:AvenirNextLTPro;writing-mode:lr-tb;fill:#000000;fill-opacity:1;fill-rule:nonzero;stroke:none"
       id="text14841"
       x="633.41998"
       y="-364.95001"><tspan
         x="633.41998"
         y="-364.95001"
         id="tspan14839">-</tspan></text><text
       transform="scale(1,-1)"
       style="font-variant:normal;font-weight:normal;font-size:18.025px;font-family:AvenirNextLTPro;-inkscape-font-specification:AvenirNextLTPro;writing-mode:lr-tb;fill:#000000;fill-opacity:1;fill-rule:nonzero;stroke:none"
       id="text14853"
       x="639.42999"
       y="-364.95001"><tspan
         x="639.42999 649.88452 660.41107 670.90167"
         y="-364.95001"
         sodipodi:role="line"
         id="tspan14851">41ea</tspan></text><text
       transform="scale(1,-1)"
       style="font-variant:normal;font-weight:normal;font-size:18.025px;font-family:AvenirNextLTPro;-inkscape-font-specification:AvenirNextLTPro;writing-mode:lr-tb;fill:#000000;fill-opacity:1;fill-rule:nonzero;stroke:none"
       id="text14865"
       x="680.70001"
       y="-364.95001"><tspan
         x="680.70001"
         y="-364.95001"
         id="tspan14863">-</tspan></text><text
       transform="scale(1,-1)"
       style="font-variant:normal;font-weight:normal;font-size:18.025px;font-family:AvenirNextLTPro;-inkscape-font-specification:AvenirNextLTPro;writing-mode:lr-tb;fill:#000000;fill-opacity:1;fill-rule:nonzero;stroke:none"
       id="text14877"
       x="686.72998"
       y="-364.95001"><tspan
         x="686.72998 697.18451 707.71112 712.95636"
         y="-364.95001"
         sodipodi:role="line"
         id="tspan14875">90fe</tspan></text><text
       transform="scale(1,-1)"
       style="font-variant:normal;font-weight:normal;font-size:18.025px;font-family:AvenirNextLTPro;-inkscape-font-specification:AvenirNextLTPro;writing-mode:lr-tb;fill:#000000;fill-opacity:1;fill-rule:nonzero;stroke:none"
       id="text14889"
       x="723.5"
       y="-364.95001"><tspan
         x="723.5"
         y="-364.95001"
         id="tspan14887">-</tspan></text><text
       transform="scale(1,-1)"
       style="font-variant:normal;font-weight:normal;font-size:18.025px;font-family:AvenirNextLTPro;-inkscape-font-specification:AvenirNextLTPro;writing-mode:lr-tb;fill:#000000;fill-opacity:1;fill-rule:nonzero;stroke:none"
       id="text14901"
       x="729.5"
       y="-364.95001"><tspan
         x="729.5 739.95453 748.96698 759.47559 769.93005 781.23175 792.47937 802.93384 813.46045 823.91492 834.44153 845.68915 856.14368"
         y="-364.95001"
         sodipodi:role="line"
         id="tspan14899">4c84db4635d9,</tspan></text><path
       d="m 241.13,379.12 c 0,4.15 0.55,7.51 1.24,7.51 l 23.01,-0.01 c 0.69,0 1.25,3.36 1.25,7.5 0,-4.14 0.55,-7.5 1.25,-7.5 h 23 c 0.69,0 1.25,-3.35 1.25,-7.5"
       style="fill:none;stroke:#00bac8;stroke-width:0.5;stroke-linecap:butt;stroke-linejoin:miter;stroke-miterlimit:10;stroke-dasharray:none;stroke-opacity:1"
       id="path14911" /><text
       transform="scale(1,-1)"
       style="font-variant:normal;font-weight:normal;font-size:18.025px;font-family:AvenirNextLTPro;-inkscape-font-specification:AvenirNextLTPro;writing-mode:lr-tb;fill:#00bac8;fill-opacity:1;fill-rule:nonzero;stroke:none"
       id="text14923"
       x="219.75"
       y="-402.07999"><tspan
         x="219.75 230.24055 234.78285 244.4803 255.72791 263.96533 274.45587 285.70349 296.19403 300.70026 316.4361"
         y="-402.07999"
         sodipodi:role="line"
         id="tspan14921">elapsedTime</tspan></text><text
       transform="scale(1,-1)"
       style="font-variant:normal;font-weight:normal;font-size:18.025px;font-family:AvenirNextLTPro;-inkscape-font-specification:AvenirNextLTPro;writing-mode:lr-tb;fill:#000000;fill-opacity:1;fill-rule:nonzero;stroke:none"
       id="text14935"
       x="241.08"
       y="-364.95001"><tspan
         x="241.08 251.58 262.07999 272.57999 283.07999 293.57999"
         y="-364.95001"
         sodipodi:role="line"
         id="tspan14933">55835,</tspan></text></g></svg>
